<?xml version="1.0" standalone="no"?>
<!DOCTYPE svg PUBLIC "-//W3C//DTD SVG 20010904//EN"
 "http://www.w3.org/TR/2001/REC-SVG-20010904/DTD/svg10.dtd">
<svg version="1.0" xmlns="http://www.w3.org/2000/svg"
 width="940.000000pt" height="670.000000pt" viewBox="0 0 940.000000 670.000000"
 preserveAspectRatio="xMidYMid meet">
<metadata>
Created by potrace 1.16, written by Peter Selinger 2001-2019
</metadata>
<g transform="translate(0.000000,670.000000) scale(0.100000,-0.100000)"
fill="#000000" stroke="none">
<path d="M8640 5955 c0 -409 -4 -811 -10 -892 -5 -82 -12 -587 -14 -1123 -3
-536 -9 -1339 -15 -1785 -5 -445 -13 -1113 -16 -1483 l-6 -672 60 0 60 0 4
413 c3 226 9 1156 15 2065 7 909 13 1656 16 1660 2 4 7 507 11 1117 4 611 8
1185 9 1278 l3 167 -59 0 -58 0 0 -745z"/>
<path d="M58 6066 c-20 -15 -25 -85 -7 -103 7 -7 8 -17 1 -29 -5 -11 -10 -47
-10 -82 -2 -52 1 -64 16 -68 54 -17 68 -43 20 -41 -40 2 -37 20 -42 -248 -3
-110 -7 -317 -11 -461 -4 -207 -3 -263 7 -272 9 -7 165 -13 450 -18 371 -6
438 -5 442 7 2 8 7 117 9 242 3 126 8 231 11 235 4 3 45 0 92 -6 58 -8 93 -8
111 -1 15 5 39 7 54 4 34 -8 69 9 69 34 0 10 9 26 20 36 25 22 25 36 2 66 -15
18 -28 22 -66 21 -44 0 -49 2 -68 34 -19 33 -50 45 -63 24 -3 -5 3 -27 15 -49
19 -37 19 -71 -1 -71 -4 0 -14 12 -21 28 -7 15 -23 31 -36 37 -13 6 -22 19
-22 32 0 31 -17 37 -46 18 -13 -9 -28 -13 -33 -11 -5 3 -8 45 -7 93 l1 88 165
3 c91 1 282 -1 425 -6 211 -6 271 -5 319 6 40 10 65 11 80 5 86 -39 119 -43
219 -30 l58 9 -3 -202 c-2 -170 -1 -202 12 -210 8 -5 114 -10 235 -10 121 0
310 -3 420 -7 l201 -6 -3 -206 c-2 -113 0 -211 4 -218 9 -13 887 -22 900 -9 4
4 9 107 11 230 2 179 0 225 -11 234 -9 8 -139 12 -433 14 l-419 3 0 170 0 170
26 12 c14 7 73 14 130 17 57 2 151 9 209 16 80 9 117 9 156 1 29 -7 63 -9 77
-6 15 4 37 0 55 -9 24 -12 40 -13 83 -5 30 5 158 9 284 7 127 -1 251 -1 278 0
209 8 344 6 364 -6 16 -9 35 -10 65 -3 50 10 352 -1 516 -20 85 -10 123 -10
155 -2 23 6 72 9 110 6 l68 -6 -2 -416 c-2 -229 1 -422 5 -429 8 -14 451 -18
459 -4 3 4 8 101 12 217 3 115 8 211 10 213 5 6 368 2 374 -4 3 -3 6 -17 6
-31 0 -15 6 -28 13 -30 6 -3 12 3 12 12 0 36 17 51 54 47 l36 -4 0 -189 0
-189 -38 0 c-32 0 -41 5 -50 26 -7 14 -16 23 -21 20 -5 -3 -10 -115 -10 -249
-1 -216 -3 -243 -19 -255 -13 -10 -64 -12 -217 -10 l-200 3 -5 -220 c-4 -184
-3 -222 9 -232 11 -10 99 -13 360 -14 331 0 470 -5 480 -15 3 -3 -1 -19 -8
-37 -9 -21 -14 -83 -16 -180 -1 -81 -5 -150 -8 -154 -4 -3 -90 -5 -191 -4
-169 2 -184 1 -191 -16 -4 -10 -9 -101 -11 -202 -2 -101 -8 -189 -13 -195 -8
-9 -64 -11 -212 -8 -164 4 -203 2 -210 -9 -5 -8 -9 -105 -9 -216 0 -111 -4
-204 -9 -207 -10 -6 -10 -6 -241 -7 -97 0 -179 -4 -185 -10 -5 -5 -10 -98 -12
-207 -2 -108 -5 -202 -7 -207 -2 -7 -150 -10 -424 -9 -305 1 -424 -1 -430 -10
-5 -6 -12 -109 -15 -229 -5 -216 -5 -217 17 -222 35 -7 1316 -13 1320 -6 2 3
7 195 11 426 3 230 9 423 12 428 6 10 809 1 826 -10 6 -4 8 -67 3 -182 -3 -97
-6 -243 -7 -326 0 -115 -4 -155 -15 -173 l-15 -23 -20 25 c-11 14 -25 26 -31
26 -6 0 -16 7 -23 17 -14 18 -37 10 -29 -11 11 -27 -13 -25 -34 4 -20 27 -21
29 -4 34 30 10 62 45 62 68 0 12 -7 30 -16 40 -13 14 -14 21 -5 32 21 25 9 75
-20 93 -23 14 -31 14 -58 3 -25 -10 -31 -18 -31 -41 0 -34 25 -40 33 -9 3 12
14 20 26 20 32 0 29 -47 -4 -62 -29 -13 -33 -38 -6 -38 31 0 46 -26 32 -56
-14 -32 -43 -28 -51 6 -7 31 -34 33 -38 3 -2 -15 6 -32 24 -48 22 -20 24 -25
9 -25 -12 0 -15 -5 -10 -17 16 -41 17 -80 3 -86 -10 -3 -19 6 -28 28 -7 18
-21 36 -32 38 -19 5 -26 37 -8 37 6 0 10 7 10 16 0 12 -6 15 -22 10 -13 -3
-31 -6 -40 -6 -10 0 -27 -9 -37 -19 -16 -16 -19 -32 -17 -102 3 -76 1 -86 -20
-104 -22 -19 -23 -26 -26 -240 l-3 -220 120 -2 c66 -1 161 -5 212 -8 l92 -7 7
-36 c4 -21 11 -43 17 -50 7 -9 5 -18 -8 -32 -9 -10 -15 -22 -12 -27 5 -9 -7
-178 -24 -333 -9 -82 -14 -191 -10 -232 1 -7 -3 -35 -9 -63 -33 -169 -39 -221
-39 -317 l-1 -108 70 0 c66 0 85 9 58 27 -7 4 -21 8 -30 8 -10 0 -17 5 -15 10
3 12 47 7 64 -7 7 -6 13 -17 13 -24 0 -11 32 -14 171 -14 151 0 170 2 159 15
-10 12 -10 18 1 31 16 19 17 150 2 165 -6 6 -43 11 -82 10 l-72 -1 20 29 c12
16 21 39 21 50 0 31 22 26 60 -14 32 -33 59 -45 61 -27 7 48 5 193 -2 197 -5
4 -3 15 5 28 13 22 14 114 2 155 -7 22 -42 29 -118 24 -30 -2 -35 7 -16 26 6
6 11 25 10 42 -1 45 31 40 64 -10 27 -41 47 -50 60 -28 11 18 11 171 1 186 -7
8 -6 22 2 38 13 29 15 143 2 163 -6 9 -30 14 -75 14 -57 1 -66 3 -60 16 4 9 9
28 12 44 6 36 31 35 67 -3 26 -27 65 -41 65 -22 0 4 2 47 3 95 2 48 -1 91 -6
94 -4 3 -5 12 -1 22 17 40 22 99 12 138 -11 47 -25 53 -110 46 -50 -4 -51 -3
-35 15 9 10 17 33 17 50 0 43 23 42 66 -3 55 -59 66 -48 68 68 1 45 -2 87 -7
94 -5 7 -4 20 2 32 15 28 14 156 -1 169 -7 6 -41 9 -75 7 -66 -3 -83 4 -58 25
8 7 15 25 15 41 0 40 22 37 55 -7 19 -24 33 -34 48 -32 21 3 22 9 25 97 1 51
-2 98 -7 105 -6 7 -6 17 -1 26 10 16 14 149 4 173 -4 11 -20 13 -74 10 -65 -4
-68 -3 -63 17 3 11 9 23 14 26 5 3 9 14 9 25 0 29 24 23 64 -18 23 -24 39 -34
45 -28 5 6 12 71 15 145 2 74 8 149 11 166 4 17 2 49 -4 71 -10 38 -13 41 -57
47 -25 3 -57 3 -70 0 -27 -7 -32 7 -8 27 10 8 13 21 9 36 -4 18 -1 23 14 23
11 0 26 -9 35 -21 20 -30 52 -50 68 -44 11 4 14 28 13 98 0 51 -3 97 -7 102
-4 6 -3 17 3 25 14 23 11 146 -3 157 -31 22 -87 34 -109 23 -29 -16 -36 -4
-16 30 10 16 16 34 15 41 -6 26 21 17 57 -20 21 -21 44 -37 52 -34 18 7 19
189 1 196 -10 3 -10 7 -2 18 16 20 25 107 16 149 -7 29 -12 34 -31 32 -13 -2
-36 2 -53 9 -22 9 -32 9 -41 0 -6 -6 -15 -11 -19 -11 -14 0 -9 27 7 40 8 7 15
23 15 36 0 33 19 30 59 -11 31 -32 61 -45 61 -27 1 15 1 188 0 202 -1 8 2 43
6 77 10 92 4 106 -53 119 -30 7 -57 8 -72 2 -31 -11 -38 -3 -18 20 10 10 17
31 17 46 0 25 3 27 25 22 14 -4 39 -21 55 -39 19 -21 32 -29 38 -22 15 15 22
193 8 198 -8 3 -7 11 3 30 14 26 12 151 -3 176 -4 6 -36 11 -77 11 l-69 0 17
27 c10 15 16 37 15 50 -5 36 23 28 59 -17 51 -63 63 -52 69 60 4 73 2 99 -9
112 -12 15 -12 20 0 34 14 17 20 157 7 169 -3 4 -36 7 -73 7 -63 1 -66 3 -60
22 4 12 8 31 9 43 4 39 14 37 61 -6 65 -60 76 -49 71 78 -2 53 -5 101 -5 106
-1 6 3 35 7 66 4 30 4 71 -1 90 -4 18 -8 39 -7 44 0 6 4 53 9 105 6 74 5 98
-5 111 -10 11 -11 18 -2 27 12 12 16 151 4 170 -4 7 -34 12 -77 12 -38 0 -69
3 -69 8 0 4 7 16 15 26 8 11 15 30 15 43 0 34 24 28 66 -17 29 -31 40 -37 51
-29 15 13 18 85 4 94 -10 6 -788 17 -1071 15 -8 0 -238 2 -510 5 -482 4 -893
9 -1870 20 -261 3 -851 7 -1310 10 -459 3 -1001 8 -1205 10 -1137 13 -1362 16
-1385 20 -14 3 -33 -1 -42 -9z m358 -67 c16 -17 40 -36 54 -42 22 -10 15 -12
-54 -15 -83 -3 -97 1 -78 20 7 7 12 25 12 40 0 38 28 37 66 -3z m423 -3 c19
-19 45 -36 59 -38 14 -2 27 -9 30 -17 3 -10 -4 -12 -35 -6 -22 3 -59 6 -82 7
-35 0 -41 3 -35 17 4 9 8 27 9 41 1 14 3 26 4 28 4 8 21 -2 50 -32z m453 -11
c10 -13 29 -26 43 -29 48 -12 24 -21 -60 -22 -86 0 -97 4 -70 26 8 7 15 22 15
35 0 12 3 25 6 28 9 9 45 -12 66 -38z m419 9 c13 -15 39 -33 57 -40 50 -22 41
-38 -15 -28 -27 4 -63 7 -80 6 -24 -1 -33 2 -33 13 0 8 5 15 11 15 6 0 10 10
9 23 -4 47 14 51 51 11z m931 -54 c9 0 20 -5 23 -11 5 -7 -19 -9 -74 -7 -44 2
-81 6 -81 11 0 4 5 7 10 7 6 0 10 15 10 33 0 19 3 37 7 41 4 3 25 -12 48 -34
22 -22 48 -40 57 -40z m-481 35 c22 -19 48 -35 59 -35 11 0 20 -5 20 -11 0 -9
-22 -10 -77 -5 -85 8 -92 11 -75 28 7 7 12 22 12 35 0 32 16 29 61 -12z m866
1 c21 -18 47 -35 57 -37 11 -2 21 -9 23 -15 2 -7 -25 -9 -79 -8 -83 2 -101 10
-73 34 8 7 15 23 15 36 0 32 13 30 57 -10z m434 -2 c13 -15 39 -33 58 -41 45
-19 27 -34 -29 -23 -25 5 -60 7 -77 3 -36 -6 -40 2 -18 31 8 11 13 28 9 38 -9
28 28 23 57 -8z m433 -3 c16 -16 41 -35 57 -41 44 -19 36 -33 -13 -24 -65 11
-82 11 -95 1 -23 -16 -35 3 -19 29 9 13 16 32 16 44 0 28 22 25 54 -9z m439
-6 c23 -20 52 -38 64 -41 13 -4 23 -13 23 -21 0 -11 -8 -12 -37 -7 -21 4 -59
8 -85 8 -50 0 -61 13 -33 36 8 7 15 23 15 36 0 31 4 30 53 -11z m438 -6 c16
-17 41 -34 56 -38 15 -4 28 -12 31 -19 2 -8 -18 -10 -80 -5 -46 3 -85 7 -87 9
-2 2 3 12 12 22 10 10 17 28 17 40 0 30 17 27 51 -9z m429 -3 c18 -19 42 -36
53 -38 11 -2 22 -8 24 -14 3 -8 -20 -11 -74 -9 -43 2 -79 3 -81 4 -1 1 5 12
14 26 8 13 13 29 9 35 -7 11 2 30 14 30 4 0 22 -16 41 -34z m458 -20 c20 -23
37 -34 47 -30 10 4 15 0 15 -11 0 -15 -6 -16 -37 -10 -21 4 -57 7 -80 7 -41
-1 -55 9 -33 23 6 3 10 19 10 34 0 15 3 31 6 34 10 10 38 -9 72 -47z m433 4
c22 -22 46 -40 54 -40 8 0 15 -7 15 -16 0 -11 -6 -14 -20 -9 -11 4 -47 7 -80
9 -66 2 -77 7 -55 26 8 7 15 25 15 41 0 41 24 37 71 -11z m431 0 c24 -22 51
-40 60 -40 10 0 18 -6 18 -14 0 -16 -52 -13 -102 6 -19 7 -33 6 -49 -3 -23
-12 -23 -12 -6 14 9 15 17 38 17 52 0 35 13 32 62 -15z m432 0 c20 -22 45 -40
55 -40 11 0 23 -4 26 -10 13 -22 -7 -27 -57 -13 -38 10 -59 11 -76 3 -35 -15
-47 -2 -22 25 12 13 21 31 20 41 -5 47 8 45 54 -6z m-6655 -31 c14 -17 38 -44
54 -59 15 -16 27 -31 27 -34 0 -13 -28 -5 -45 14 -20 22 -55 26 -85 10 -26
-14 -47 12 -25 33 8 9 15 27 15 41 0 36 26 33 59 -5z m411 16 c17 -9 30 -19
30 -23 0 -5 16 -27 36 -50 31 -36 33 -42 16 -42 -11 0 -25 7 -32 15 -8 10 -30
15 -61 15 -27 0 -49 2 -49 5 0 3 7 17 16 30 9 14 13 33 9 45 -8 24 -3 25 35 5z
m477 -42 c9 -19 27 -41 39 -50 13 -8 24 -19 24 -24 0 -16 -26 -10 -51 12 -19
17 -32 20 -65 15 -52 -7 -58 0 -34 34 11 16 20 35 20 43 0 29 49 7 67 -30z
m424 8 c5 -14 22 -36 37 -48 20 -17 24 -25 15 -34 -8 -8 -19 -6 -40 11 -26 18
-33 20 -57 9 -36 -17 -58 2 -33 29 9 10 17 28 17 39 0 11 3 22 6 25 12 13 46
-6 55 -31z m411 19 c13 -6 33 -29 46 -50 12 -22 27 -40 32 -40 6 0 10 -4 10
-10 0 -5 -7 -10 -15 -10 -8 0 -15 4 -15 8 0 5 -11 15 -25 22 -21 11 -29 11
-50 0 -35 -18 -57 1 -32 28 10 11 14 26 10 40 -6 24 4 27 39 12z m450 -22 c16
-18 42 -45 56 -60 35 -36 24 -44 -24 -19 -27 15 -49 19 -70 15 -38 -7 -56 13
-30 32 10 7 17 21 16 31 -5 44 11 44 52 1z m432 1 c24 -19 63 -79 52 -79 -3 0
-16 5 -30 11 -18 8 -33 9 -55 1 -37 -13 -51 1 -27 27 9 10 16 27 16 39 0 27
10 28 44 1z m851 9 c14 -6 36 -31 50 -55 14 -23 30 -43 35 -43 6 0 10 -5 10
-11 0 -6 -16 -1 -35 11 -27 17 -44 20 -70 16 -39 -8 -54 7 -31 32 9 11 13 27
9 40 -6 25 -3 26 32 10z m-381 -53 c45 -53 45 -72 -2 -39 -16 11 -34 14 -62 9
-32 -5 -40 -4 -40 8 0 8 7 20 15 27 9 7 13 21 10 31 -13 39 32 19 79 -36z
m837 39 c9 -3 24 -22 33 -41 l17 -36 -31 7 c-18 3 -41 1 -52 -5 -31 -16 -47 5
-24 30 10 11 16 27 13 35 -7 17 3 28 17 21 6 -3 18 -8 27 -11z m460 -36 c34
-43 45 -54 64 -61 6 -3 7 -8 3 -12 -3 -4 -26 5 -50 19 -30 18 -48 22 -58 16
-38 -24 -69 2 -35 30 8 7 15 21 15 31 0 32 26 21 61 -23z m430 0 c22 -24 39
-49 39 -55 0 -7 9 -13 20 -13 11 0 20 -4 20 -10 0 -17 -23 -11 -48 13 -18 16
-35 22 -68 21 -42 -1 -56 8 -34 21 6 3 10 19 10 36 0 40 15 37 61 -13z m413
22 c14 -5 26 -15 26 -22 0 -7 14 -27 32 -45 29 -30 30 -33 10 -33 -11 0 -25 7
-30 17 -8 13 -19 15 -56 10 -48 -7 -62 7 -32 32 8 7 12 21 9 31 -6 22 4 25 41
10z m442 -8 c12 -9 30 -30 39 -45 10 -16 30 -34 44 -40 26 -10 26 -11 3 -15
-14 -2 -34 6 -53 22 -24 20 -35 24 -49 16 -27 -15 -50 -12 -50 5 0 8 5 15 10
15 6 0 10 14 10 30 0 34 15 38 46 12z m869 2 c14 -9 25 -22 25 -29 0 -7 16
-27 35 -44 49 -43 43 -55 -12 -24 -40 22 -51 24 -75 15 -34 -13 -44 0 -23 31
8 13 12 26 9 30 -7 7 2 37 11 37 3 0 17 -7 30 -16z m-403 -39 c18 -24 41 -44
50 -45 19 0 32 -16 20 -24 -5 -3 -27 4 -48 15 -28 14 -50 19 -76 14 -29 -4
-38 -2 -38 9 0 8 5 18 10 21 6 3 10 17 10 31 0 40 35 30 72 -21z m851 28 c9
-3 17 -14 17 -24 0 -11 17 -31 40 -47 46 -31 50 -42 15 -42 -14 0 -29 8 -35
20 -9 16 -18 19 -60 16 -44 -4 -50 -2 -50 14 0 10 5 22 10 25 6 3 10 18 10 32
0 20 4 24 18 18 9 -4 25 -10 35 -12z m-2978 -63 c3 -5 -1 -10 -9 -10 -8 0 -18
5 -21 10 -3 6 1 10 9 10 8 0 18 -4 21 -10z m-3754 -30 c10 -6 19 -18 19 -27 0
-15 -2 -15 -18 1 -13 11 -28 14 -50 10 -30 -6 -41 3 -25 19 10 10 52 8 74 -3z
m425 -5 c18 -14 17 -14 -13 -15 -17 0 -38 -3 -47 -6 -10 -4 -16 -1 -16 9 0 28
45 35 76 12z m440 -6 c3 -5 -4 -9 -15 -9 -10 0 -26 -3 -35 -6 -10 -4 -16 -1
-16 9 0 25 51 29 66 6z m432 -6 c2 -9 -8 -13 -32 -13 -34 0 -44 8 -29 24 11
11 56 2 61 -11z m422 -4 c0 -5 -12 -9 -26 -9 -22 0 -24 2 -14 14 12 15 40 11
40 -5z m444 2 c3 -5 -6 -12 -20 -15 -29 -8 -39 -3 -29 13 8 13 42 14 49 2z
m420 3 c22 -9 10 -24 -20 -24 -25 0 -33 15 -11 23 6 3 13 6 14 6 1 1 8 -2 17
-5z m463 -17 c20 -11 17 -12 -23 -12 -28 0 -44 4 -44 13 0 15 38 15 67 -1z
m417 4 c3 -5 -6 -12 -20 -15 -29 -8 -39 -3 -29 13 8 13 42 14 49 2z m446 -11
c11 -7 5 -10 -23 -10 -23 0 -36 4 -32 10 8 13 35 13 55 0z m441 0 c40 0 17
-15 -27 -17 -39 -1 -43 1 -33 13 7 8 19 12 26 9 8 -3 23 -5 34 -5z m-4652 -34
c19 -22 -5 -31 -34 -12 -25 17 -30 27 -19 39 8 8 36 -7 53 -27z m5105 19 c11
-8 16 -18 12 -22 -4 -4 -11 -1 -16 6 -5 10 -19 12 -44 8 -34 -5 -53 3 -39 17
12 11 68 6 87 -9z m413 9 c12 -3 24 -12 27 -20 4 -12 2 -12 -15 -4 -11 6 -29
8 -39 5 -23 -7 -43 2 -35 16 7 10 30 11 62 3z m406 0 c9 -10 -4 -34 -19 -34
-8 0 -14 6 -14 13 0 22 19 35 33 21z m441 -1 c4 -4 15 -8 23 -8 36 0 20 -20
-17 -21 -22 -1 -40 0 -40 1 0 2 3 10 6 19 7 17 16 20 28 9z m-5942 -20 c23
-21 23 -33 0 -33 -21 0 -42 18 -42 37 0 18 20 16 42 -4z m6415 1 c2 -6 -15
-10 -37 -11 -37 -2 -49 5 -34 20 10 9 67 2 71 -9z m-5542 -14 c18 -20 17 -20
-8 -20 -15 0 -27 2 -27 4 0 2 -3 11 -6 20 -9 23 19 20 41 -4z m4690 9 c11 -17
-1 -21 -15 -4 -8 9 -8 15 -2 15 6 0 14 -5 17 -11z m-3824 -9 c23 -13 26 -43 3
-38 -21 4 -52 48 -35 48 7 0 21 -5 32 -10z m441 -7 c23 -21 23 -33 0 -33 -21
0 -42 18 -42 37 0 18 20 16 42 -4z m433 -4 c4 -6 5 -12 2 -15 -7 -7 -37 7 -37
17 0 13 27 11 35 -2z m1753 -21 c19 -19 14 -30 -10 -26 -13 2 -24 11 -26 21
-4 20 18 23 36 5z m436 -10 c20 -28 11 -41 -17 -27 -39 21 -49 49 -18 49 11 0
27 -10 35 -22z m435 -2 c15 -16 19 -26 11 -31 -14 -9 -60 21 -60 40 0 22 24
18 49 -9z m430 0 c27 -28 14 -41 -23 -25 -25 12 -33 29 -19 42 11 11 18 8 42
-17z m446 -6 c23 -25 9 -42 -22 -29 -14 5 -23 17 -23 29 0 26 22 26 45 0z
m449 -22 c53 -62 49 -72 -14 -37 -36 20 -56 52 -44 71 10 15 22 8 58 -34z
m-6334 -3 c9 -5 10 -108 5 -389 -4 -209 -8 -392 -8 -406 l-2 -25 -320 -1
c-176 -1 -360 2 -410 5 l-90 6 4 405 c2 223 5 408 7 411 5 9 800 3 814 -6z
m1887 -16 l301 -4 0 -177 c-1 -98 -4 -182 -8 -188 -5 -8 -124 -10 -411 -8
l-404 3 -3 170 c-1 94 0 179 2 190 5 19 12 21 113 19 59 -1 244 -4 410 -5z
m3566 -30 c191 -1 350 -6 353 -10 2 -5 17 -4 31 2 17 6 54 7 93 3 36 -4 92 -8
125 -8 l60 -1 -1 -183 c-1 -100 -5 -186 -9 -190 -3 -4 -66 -6 -138 -4 -73 2
-141 3 -152 3 -11 0 -94 0 -185 0 -91 0 -209 1 -262 2 -65 1 -102 -3 -110 -11
-9 -9 -13 -69 -15 -199 -1 -103 -4 -197 -8 -210 -5 -22 -6 -22 -195 -21 -129
1 -190 5 -191 12 -5 72 4 812 11 816 4 3 61 4 127 3 65 -1 275 -3 466 -4z
m1044 -61 c49 -47 44 -58 -27 -58 -55 0 -75 10 -50 25 6 3 10 16 10 29 0 46
22 47 67 4z m-134 -67 c14 -5 29 -23 35 -40 6 -16 22 -37 37 -47 17 -11 23
-20 16 -27 -6 -6 -19 -2 -38 12 -23 19 -35 21 -70 16 -47 -7 -51 -1 -27 33 9
13 13 31 9 42 -7 22 2 25 38 11z m-169 -177 c5 -14 4 -15 -9 -4 -17 14 -19 20
-6 20 5 0 12 -7 15 -16z m122 -60 c45 -35 46 -59 2 -50 -38 7 -34 4 -43 44 -8
39 -4 40 41 6z m-3264 -233 c-1 -107 -4 -196 -7 -200 -11 -10 -799 0 -811 10
-15 12 -6 358 9 377 8 11 90 12 410 9 l400 -3 -1 -193z m3198 189 c0 -5 -4
-10 -10 -10 -5 0 -10 5 -10 10 0 6 5 10 10 10 6 0 10 -4 10 -10z m-364 -65 c7
-28 19 -32 28 -10 7 18 37 20 54 3 7 -7 27 -12 45 -13 l32 0 3 -120 c4 -156 1
-165 -44 -165 -19 0 -43 -4 -53 -9 -9 -5 -23 -6 -31 -1 -8 5 -22 3 -36 -6 -13
-9 -32 -12 -48 -8 l-26 6 0 168 c0 177 0 178 47 179 16 1 24 -6 29 -24z m215
-47 c1 -7 1 -49 1 -92 -1 -89 -9 -136 -23 -136 -10 0 -13 223 -2 233 10 11 23
8 24 -5z m272 -65 c44 -52 62 -70 80 -76 28 -10 19 -23 -17 -24 -26 -1 -35 4
-39 19 -5 16 -13 19 -46 17 -48 -4 -70 11 -46 31 8 7 15 23 15 36 0 32 24 31
53 -3z m-54 -229 c32 -27 41 -54 18 -54 -15 0 -77 58 -77 71 0 17 29 9 59 -17z
m-359 -67 l145 -2 -2 -290 c-3 -518 -3 -525 -22 -534 -9 -4 -54 -7 -101 -5
-47 1 -224 5 -393 8 -170 3 -312 8 -315 10 -4 2 -6 88 -4 190 l3 187 202 -3
c111 -1 207 1 213 5 19 11 23 61 25 247 1 96 6 180 11 187 6 8 25 10 51 7 23
-3 107 -7 187 -7z m384 -129 c14 -6 28 -19 31 -29 3 -10 21 -31 40 -48 19 -17
35 -35 35 -41 0 -17 -43 -2 -58 20 -10 14 -22 17 -47 13 -19 -3 -42 -3 -51 1
-15 6 -16 8 0 24 9 10 16 31 16 45 0 31 0 31 34 15z m-168 -196 c-10 -10 -29
15 -21 28 6 9 10 8 17 -4 6 -10 7 -20 4 -24z m142 -63 c52 -49 38 -63 -32 -34
-28 12 -36 21 -36 40 0 35 27 32 68 -6z m36 -185 c9 -3 16 -11 16 -18 0 -6 14
-27 31 -45 35 -38 32 -50 -5 -26 -20 13 -37 15 -76 10 -54 -7 -62 1 -30 30 12
10 19 24 16 31 -8 22 15 31 48 18z m-176 -172 c2 -7 -3 -12 -12 -12 -9 0 -16
7 -16 16 0 17 22 14 28 -4z m126 -66 c54 -50 46 -72 -13 -41 -28 14 -41 33
-41 61 0 22 16 17 54 -20z m-74 -41 c0 -8 -4 -15 -10 -15 -5 0 -10 7 -10 15 0
8 5 15 10 15 6 0 10 -7 10 -15z m103 -146 c14 -6 31 -22 38 -36 7 -14 26 -35
41 -48 33 -28 34 -32 8 -30 -11 1 -26 10 -34 20 -11 15 -21 17 -58 12 -54 -8
-63 -1 -43 30 9 13 13 33 10 43 -7 23 3 25 38 9z m-159 -175 c9 -24 7 -28 -9
-14 -17 14 -20 30 -6 30 5 0 12 -7 15 -16z m129 -69 c15 -13 27 -31 27 -40 0
-17 -16 -20 -25 -5 -3 6 -15 10 -26 10 -16 0 -39 33 -39 56 0 13 39 0 63 -21z
m-218 -397 c-4 -189 -7 -374 -8 -413 l-2 -70 -409 3 c-225 1 -413 5 -418 8 -5
3 -7 12 -4 20 3 8 6 76 6 152 1 75 3 156 7 180 l5 42 201 -3 c158 -2 203 0
213 11 15 14 15 16 19 252 2 85 3 156 4 158 1 1 89 2 197 2 l196 0 -7 -342z
m298 157 c21 -25 43 -43 48 -40 5 4 9 1 9 -4 0 -18 -39 -12 -60 9 -28 28 -64
35 -79 16 -8 -9 -17 -16 -22 -16 -12 0 -11 37 1 45 6 3 10 16 10 29 0 12 3 25
6 29 10 10 46 -18 87 -68z m-203 -131 c0 -8 -4 -12 -10 -9 -5 3 -10 10 -10 16
0 5 5 9 10 9 6 0 10 -7 10 -16z m114 -56 c34 -30 47 -58 27 -58 -7 0 -75 42
-90 56 -6 6 8 34 18 34 5 0 25 -14 45 -32z m29 -180 c15 -7 27 -18 27 -25 0
-7 18 -31 40 -54 22 -23 40 -44 40 -46 0 -11 -33 0 -49 16 -15 15 -30 18 -70
15 -54 -4 -67 10 -35 37 11 9 14 22 10 41 -6 31 -2 33 37 16z m-161 -188 c12
-11 18 -20 12 -20 -11 1 -44 25 -44 34 0 11 10 7 32 -14z m130 -72 c23 -26 34
-46 28 -52 -6 -6 -14 -5 -22 1 -7 6 -24 13 -37 15 -17 2 -27 12 -32 32 -16 60
12 61 63 4z m-82 -28 c0 -5 -4 -10 -10 -10 -5 0 -10 5 -10 10 0 6 5 10 10 10
6 0 10 -4 10 -10z m-1015 -41 c6 -17 -3 -800 -8 -806 -7 -7 -967 2 -1182 11
l-70 3 -3 190 -2 190 47 6 c27 3 120 4 208 1 324 -9 571 -9 593 0 23 10 24 23
27 331 0 39 4 76 8 83 6 9 56 12 192 12 178 0 184 -1 190 -21z m1142 -138 c7
-9 22 -31 35 -48 13 -18 31 -33 41 -33 9 0 17 -4 17 -10 0 -17 -60 -12 -67 6
-9 25 -43 32 -76 16 -39 -19 -54 -3 -27 30 11 15 20 36 20 48 0 17 4 20 23 15
12 -4 27 -14 34 -24z m-44 -240 c24 -27 35 -51 23 -51 -22 0 -75 34 -84 55
-25 55 10 53 61 -4z m-98 -31 c-3 -5 -10 -10 -16 -10 -5 0 -9 5 -9 10 0 6 7
10 16 10 8 0 12 -4 9 -10z m148 -184 c28 -29 59 -56 67 -59 10 -3 5 -7 -13
-12 -21 -6 -31 -3 -41 10 -9 13 -26 18 -60 18 -32 -1 -46 3 -46 12 0 8 5 17
10 20 6 3 10 19 10 36 0 16 5 29 10 29 6 0 34 -24 63 -54z m-313 -176 c0 -43
-3 -50 -20 -50 -15 0 -20 7 -20 24 0 14 5 28 10 31 6 3 10 15 10 26 0 10 5 19
10 19 6 0 10 -22 10 -50z m128 21 c3 -8 -1 -12 -9 -9 -7 2 -15 10 -17 17 -3 8
1 12 9 9 7 -2 15 -10 17 -17z m-392 -18 c-7 -7 -26 7 -26 19 0 6 6 6 15 -2 9
-7 13 -15 11 -17z m502 -34 c28 -26 43 -59 27 -59 -5 0 -64 28 -72 34 -1 0 -4
13 -8 29 -10 37 11 36 53 -4z m-313 -61 c113 2 104 17 103 -185 -1 -147 -4
-179 -17 -192 -14 -14 -42 -16 -190 -15 -127 2 -176 6 -182 15 -7 12 -2 342 6
367 4 9 25 12 80 11 41 -2 78 0 82 4 3 4 16 4 27 0 12 -3 53 -6 91 -5z m330
-118 c3 -5 15 -10 26 -10 10 0 19 -6 19 -14 0 -20 49 -76 67 -76 23 0 9 -25
-16 -28 -16 -3 -24 2 -28 16 -6 23 -59 38 -79 21 -7 -6 -18 -8 -24 -4 -14 9
-13 32 2 37 7 3 11 18 10 36 -2 31 10 43 23 22z m-131 -212 c-7 -11 -44 26
-44 43 0 7 11 2 25 -11 13 -12 22 -27 19 -32z m115 -50 c17 -23 29 -43 27 -46
-3 -2 -21 4 -41 14 -27 13 -39 14 -48 5 -13 -13 -47 -15 -47 -2 0 5 7 11 15
15 8 3 20 17 25 31 14 36 34 31 69 -17z m55 -203 c3 -12 22 -37 41 -54 19 -17
35 -33 35 -37 0 -11 -55 7 -67 23 -13 17 -47 21 -80 9 -27 -9 -32 14 -8 34 9
7 13 20 10 28 -8 22 2 29 34 24 20 -3 31 -11 35 -27z m-190 -150 c16 -12 17
-18 8 -27 -9 -9 -16 -7 -32 10 -11 11 -20 24 -20 27 0 10 25 4 44 -10z m130
-75 c32 -34 29 -46 -8 -36 -34 8 -56 33 -56 62 0 21 3 23 18 15 9 -5 30 -24
46 -41z m-98 -37 c-10 -10 -19 5 -10 18 6 11 8 11 12 0 2 -7 1 -15 -2 -18z
m130 -143 c8 0 14 -5 14 -12 0 -22 45 -78 63 -78 9 0 17 -7 17 -16 0 -11 -5
-14 -16 -10 -9 3 -22 6 -30 6 -8 0 -14 6 -14 14 0 18 -49 27 -73 14 -30 -15
-45 6 -23 31 10 11 16 27 13 35 -7 18 3 28 21 21 7 -3 20 -5 28 -5z m-170
-187 c-7 -7 -26 7 -26 19 0 6 6 6 15 -2 9 -7 13 -15 11 -17z m116 -60 c21 -20
38 -43 38 -50 0 -16 0 -16 -39 3 -42 21 -74 84 -42 84 3 0 22 -17 43 -37z
m-72 -38 c0 -8 -4 -15 -10 -15 -5 0 -10 7 -10 15 0 8 5 15 10 15 6 0 10 -7 10
-15z m-100 -135 c0 -5 -4 -10 -10 -10 -5 0 -10 5 -10 10 0 6 5 10 10 10 6 0
10 -4 10 -10z m205 -20 c4 -6 10 -8 15 -5 5 3 12 -4 15 -16 10 -32 46 -69 67
-69 10 0 18 -7 18 -15 0 -23 -29 -18 -62 10 -33 28 -49 31 -78 13 -26 -16 -36
-4 -22 27 7 14 12 35 12 45 0 21 24 27 35 10z"/>
<path d="M6790 5031 l-45 -6 -3 -52 -3 -53 40 0 c30 0 43 -5 51 -19 12 -24 4
-48 -21 -61 -25 -14 -29 -13 -29 9 0 26 -27 48 -42 33 -17 -17 0 -61 28 -74
51 -23 123 33 110 86 -9 35 -45 66 -77 66 -47 0 -42 18 6 26 25 3 47 10 50 14
6 10 -5 41 -14 38 -3 0 -26 -4 -51 -7z"/>
<path d="M4020 5504 c0 -9 10 -34 22 -56 20 -35 26 -39 52 -34 15 3 34 6 41 6
20 0 26 28 9 44 -8 8 -21 13 -29 9 -9 -3 -31 7 -49 21 -40 30 -46 32 -46 10z"/>
<path d="M1407 5493 c-14 -13 -7 -33 11 -33 19 0 42 18 42 32 0 10 -44 11 -53
1z"/>
<path d="M1604 5465 c-10 -8 -34 -15 -52 -15 -30 0 -32 -2 -26 -25 5 -19 2
-25 -10 -25 -10 0 -16 9 -16 25 0 14 -6 25 -13 25 -35 0 -50 -57 -22 -80 9 -7
13 -21 10 -31 -5 -15 -1 -19 19 -19 14 0 26 5 26 10 0 6 -4 10 -10 10 -5 0
-10 7 -10 15 0 17 9 19 27 7 9 -6 10 -17 4 -39 -7 -25 -6 -35 9 -48 17 -15 19
-15 31 3 8 10 25 24 37 31 41 22 73 55 88 90 17 41 6 58 -26 41 -27 -15 -38
-5 -22 20 10 17 10 20 -6 20 -10 0 -27 -7 -38 -15z m16 -101 c0 -8 -9 -14 -20
-14 -19 0 -27 19 -14 33 10 9 34 -4 34 -19z"/>
<path d="M1970 5443 c-73 -31 -93 -68 -69 -130 13 -34 25 -43 65 -43 17 0 37
-7 44 -15 21 -26 65 -18 94 16 33 39 33 74 -1 124 -46 69 -67 76 -133 48z"/>
<path d="M1217 5434 c-3 -3 -3 -12 0 -20 4 -11 9 -12 19 -3 8 6 14 15 14 20 0
10 -24 12 -33 3z"/>
<path d="M4961 5409 c-13 -5 -31 -7 -40 -5 -10 3 -26 -8 -40 -26 -22 -27 -23
-34 -12 -63 8 -22 8 -41 2 -58 -8 -20 -6 -31 7 -46 14 -17 33 -22 103 -27 61
-5 92 -3 109 6 18 9 25 10 28 1 10 -31 67 0 77 42 4 15 13 31 20 35 8 4 11 19
8 40 -5 29 -9 33 -32 30 -24 -3 -26 0 -26 31 0 47 -21 50 -39 6 -18 -41 -31
-39 -41 6 -8 36 -31 48 -52 27 -13 -14 -13 -19 2 -47 9 -18 15 -44 13 -58 -4
-35 -28 -43 -28 -10 0 13 -9 36 -21 51 -17 22 -19 29 -8 42 17 21 0 34 -30 23z"/>
<path d="M5180 5390 c0 -5 5 -10 10 -10 6 0 10 5 10 10 0 6 -4 10 -10 10 -5 0
-10 -4 -10 -10z"/>
<path d="M4120 5355 c0 -8 5 -15 10 -15 6 0 10 7 10 15 0 8 -4 15 -10 15 -5 0
-10 -7 -10 -15z"/>
<path d="M4217 5353 c-13 -12 -7 -33 8 -33 8 0 15 9 15 20 0 20 -11 26 -23 13z"/>
<path d="M4073 5333 c-38 -15 10 -73 61 -73 32 0 45 20 17 27 -11 3 -27 16
-36 29 -16 24 -20 26 -42 17z"/>
<path d="M4280 5326 c0 -7 -9 -16 -19 -19 -11 -3 -22 -17 -26 -37 -9 -43 10
-63 53 -54 26 5 32 11 32 31 0 22 -3 24 -26 19 -23 -6 -25 -5 -19 16 4 13 11
27 16 33 12 12 11 25 -1 25 -5 0 -10 -6 -10 -14z"/>
<path d="M1690 5316 c0 -11 9 -16 26 -16 31 0 28 23 -4 28 -15 2 -22 -2 -22
-12z"/>
<path d="M1392 5253 c4 -23 58 -31 58 -10 0 15 -20 27 -47 27 -8 0 -13 -7 -11
-17z"/>
<path d="M4590 5070 c-19 -16 -46 -30 -60 -30 -58 0 -66 -55 -17 -114 27 -31
42 -40 82 -47 109 -18 120 -15 166 46 l41 54 -21 27 c-31 39 -94 83 -127 89
-22 4 -37 -2 -64 -25z"/>
<path d="M5420 5066 c0 -10 -13 -16 -37 -18 -31 -2 -39 -7 -41 -25 -3 -20 1
-23 30 -23 42 0 65 16 74 53 5 21 3 27 -10 27 -9 0 -16 -6 -16 -14z"/>
<path d="M5507 4989 c-15 -22 -27 -49 -27 -60 0 -27 -18 -24 -32 6 -13 29 -23
32 -32 9 -5 -12 -15 -14 -51 -8 -39 5 -44 4 -39 -10 3 -9 14 -16 24 -16 9 0
25 -9 36 -21 19 -21 19 -21 -1 -18 -16 3 -21 -2 -23 -25 -3 -27 -2 -28 27 -23
24 5 31 2 36 -14 11 -35 40 -19 40 23 0 33 26 78 45 78 4 0 13 -13 20 -30 7
-16 17 -30 23 -30 5 0 26 15 47 34 20 18 43 36 51 39 11 5 10 9 -5 21 -25 20
-46 20 -46 1 0 -8 -4 -15 -10 -15 -5 0 -10 9 -10 21 0 15 -4 19 -15 15 -8 -3
-22 -9 -30 -12 -8 -3 -15 -1 -15 6 0 6 9 14 21 17 13 4 19 12 17 26 -5 34 -23
29 -51 -14z"/>
<path d="M6548 5008 c-9 -7 -18 -25 -22 -41 -6 -24 -2 -30 29 -48 20 -12 35
-29 35 -40 0 -20 -24 -26 -35 -9 -8 13 -25 3 -25 -15 0 -18 24 -26 60 -18 27
5 30 9 30 44 0 33 -5 41 -30 54 -31 16 -45 63 -15 51 8 -3 22 -9 30 -12 23 -9
19 23 -4 36 -25 13 -34 13 -53 -2z"/>
<path d="M5294 4845 c-7 -18 2 -45 15 -45 5 0 11 7 15 15 7 18 -2 45 -15 45
-5 0 -12 -7 -15 -15z"/>
<path d="M1334 4757 c-3 -8 -6 -115 -7 -238 l-2 -224 238 -3 237 -2 1 192 c1
106 3 206 5 222 2 16 -1 37 -7 48 -9 17 -26 18 -235 18 -179 0 -226 -3 -230
-13z m414 -32 c10 -4 12 -46 10 -197 l-3 -193 -195 0 -195 0 -1 185 c0 102 3
192 7 200 6 13 35 15 185 12 99 -1 185 -5 192 -7z"/>
<path d="M2217 4757 c-14 -10 -18 -43 -23 -229 -6 -170 -4 -221 6 -233 10 -13
47 -15 236 -15 l223 0 5 33 c3 17 7 123 10 235 4 181 2 203 -12 211 -29 14
-426 13 -445 -2z m409 -40 c10 -9 4 -370 -6 -382 -7 -8 -66 -12 -190 -12 -168
0 -181 1 -191 19 -9 17 -3 363 6 379 5 7 374 3 381 -4z"/>
<path d="M5856 4566 c-31 -42 -56 -80 -56 -85 0 -11 25 -21 55 -21 20 0 23 -5
22 -27 -1 -17 3 -28 13 -30 38 -7 47 26 34 128 -3 26 -1 56 5 67 8 15 7 23 -3
32 -12 9 -25 -3 -70 -64z m24 -45 c0 -20 -17 -37 -27 -28 -7 8 7 47 18 47 5 0
9 -9 9 -19z"/>
<path d="M16 4294 c-3 -27 -9 -226 -12 -441 l-6 -393 38 0 c22 0 104 -2 184
-5 468 -13 666 -15 680 -6 13 9 15 71 18 437 3 285 0 430 -7 437 -6 6 -166 12
-449 15 l-440 5 -6 -49z m469 5 c198 -1 368 -3 378 -6 17 -4 17 -26 12 -401
-4 -288 -9 -398 -17 -403 -7 -4 -125 -6 -262 -3 -138 2 -303 4 -366 5 -63 1
-132 4 -153 6 l-37 5 4 182 c3 99 6 273 7 386 1 113 6 213 11 223 7 14 16 17
37 12 15 -3 189 -6 386 -6z"/>
<path d="M3512 4297 c-18 -21 -18 -437 -1 -448 19 -12 886 -12 894 0 9 15 7
433 -2 441 -4 4 -204 11 -444 14 -354 5 -438 4 -447 -7z m494 -37 l364 0 1
-78 c2 -134 -2 -266 -7 -284 -4 -15 -38 -16 -403 -13 -220 1 -404 6 -411 10
-9 6 -11 51 -7 184 4 97 6 177 7 178 1 6 40 11 64 7 16 -2 193 -4 392 -4z"/>
<path d="M1921 4175 c-36 -42 -37 -46 -8 -105 l22 -45 77 -3 76 -3 20 33 c17
28 19 40 12 73 -13 59 -49 85 -115 85 -48 0 -56 -3 -84 -35z"/>
<path d="M4883 4069 c-45 -31 -51 -47 -31 -78 9 -15 9 -25 0 -46 -18 -38 2
-65 49 -65 19 0 39 -3 42 -7 11 -11 109 -12 129 -2 12 6 25 6 37 0 24 -13 45
2 71 54 28 54 26 83 -5 95 -27 10 -35 40 -11 40 8 0 18 5 22 12 5 8 0 9 -14 6
-12 -4 -25 -2 -28 3 -10 17 -24 9 -24 -14 0 -25 -32 -62 -43 -50 -4 3 -7 14
-7 22 0 9 -13 21 -28 27 -27 10 -28 10 -24 -18 2 -15 8 -31 13 -34 15 -9 10
-44 -6 -50 -8 -4 -21 -1 -29 5 -7 6 -16 8 -19 4 -4 -3 -7 1 -7 10 0 10 5 17
10 17 6 0 10 5 10 10 0 6 -9 10 -20 10 -16 0 -20 6 -18 28 2 28 -7 52 -20 52
-4 -1 -26 -14 -49 -31z"/>
<path d="M2788 3783 c-2 -14 -13 -18 -43 -18 -35 0 -40 -3 -43 -24 -4 -23 -2
-24 42 -18 49 7 98 41 89 63 -7 20 -41 17 -45 -3z"/>
<path d="M2944 3789 c-3 -6 0 -15 7 -20 22 -14 29 -11 29 11 0 21 -24 27 -36
9z"/>
<path d="M2877 3711 c-15 -16 -27 -41 -27 -55 0 -31 -26 -35 -35 -6 -8 24 -22
25 -47 3 -16 -14 -23 -15 -38 -5 -24 15 -30 15 -30 2 0 -5 6 -10 14 -10 21 0
25 -22 8 -49 -15 -22 -14 -25 3 -37 10 -8 27 -11 38 -8 13 4 20 0 24 -15 3
-12 11 -21 19 -21 17 0 36 34 29 52 -3 8 5 24 19 37 l25 23 13 -21 c14 -24 53
-28 65 -8 4 8 22 20 38 28 34 16 40 42 10 47 -11 3 -24 10 -28 18 -4 8 -19 14
-32 14 -18 0 -25 5 -25 20 0 27 -10 25 -43 -9z m87 -56 c-6 -16 -24 -21 -24
-7 0 11 11 22 21 22 5 0 6 -7 3 -15z"/>
<path d="M1820 3671 c-39 -21 -48 -43 -30 -77 10 -18 10 -29 0 -53 -6 -16 -9
-34 -6 -39 3 -6 49 -18 102 -27 74 -14 101 -15 120 -6 14 6 36 8 50 5 27 -7
54 10 54 34 0 9 10 26 21 38 32 34 19 74 -24 75 -17 1 -39 0 -47 -1 -37 -6
-44 -4 -48 15 -5 26 -21 45 -38 45 -18 0 -17 -38 1 -70 12 -22 11 -27 -2 -42
-24 -27 -41 -22 -51 15 -6 22 -15 33 -30 35 -27 4 -28 13 -2 42 11 13 20 25
20 27 0 10 -60 0 -90 -16z"/>
<path d="M2060 3661 c0 -6 5 -13 10 -16 6 -3 10 1 10 9 0 9 -4 16 -10 16 -5 0
-10 -4 -10 -9z"/>
<path d="M2654 3575 c-9 -23 4 -47 23 -43 22 4 30 38 11 49 -19 13 -28 11 -34
-6z"/>
<path d="M4410 3440 c-34 -5 -35 -7 -41 -55 -9 -76 -21 -807 -14 -827 7 -16
27 -18 236 -18 l229 0 1 63 c1 34 4 132 8 217 l6 155 209 0 210 0 7 25 c4 14
7 114 8 222 1 147 -2 199 -11 205 -14 9 -793 21 -848 13z m788 -45 l32 -6 -2
-175 c-1 -116 -5 -180 -13 -191 -10 -14 -31 -16 -131 -14 -205 5 -271 4 -283
-3 -8 -5 -11 -71 -11 -215 0 -170 -3 -211 -15 -221 -8 -6 -18 -9 -23 -6 -4 2
-84 8 -177 11 -93 3 -172 9 -175 11 -7 7 -1 681 6 756 l6 57 51 3 c83 5 699
-1 735 -7z"/>
<path d="M3090 3370 c0 -5 6 -13 13 -17 7 -4 19 -27 25 -50 14 -49 38 -60 93
-46 24 7 35 16 37 31 3 19 -1 22 -30 22 -33 0 -108 42 -108 60 0 6 -7 10 -15
10 -8 0 -15 -4 -15 -10z"/>
<path d="M1370 3355 c0 -17 42 -83 55 -89 21 -7 88 20 83 34 -2 6 -30 22 -63
36 -62 25 -75 28 -75 19z"/>
<path d="M3198 3348 c9 -9 15 -9 24 0 9 9 7 12 -12 12 -19 0 -21 -3 -12 -12z"/>
<path d="M90 3283 c-27 -10 -60 -46 -60 -65 0 -11 5 -28 10 -39 8 -13 7 -25 0
-39 -13 -25 -5 -56 16 -64 38 -15 185 -19 209 -6 20 11 27 11 40 0 12 -10 19
-9 40 4 14 9 25 25 25 36 0 13 10 24 25 30 40 15 25 59 -28 79 -28 11 -28 41
-1 41 8 0 14 5 14 10 0 11 -79 14 -81 3 -1 -5 -3 -18 -4 -29 -5 -52 -35 -54
-35 -3 0 33 -35 57 -66 45 -16 -6 -15 -8 3 -29 28 -30 37 -77 20 -101 -18 -25
-37 -12 -37 23 0 20 -8 34 -26 46 -24 15 -25 18 -9 35 15 16 15 18 0 24 -19 7
-34 7 -55 -1z"/>
<path d="M1515 3258 c-4 -10 -15 -20 -26 -23 -22 -7 -26 -35 -4 -35 8 0 15 4
15 9 0 5 7 17 16 25 8 9 14 22 11 29 -3 8 -7 7 -12 -5z"/>
<path d="M3257 3243 c-12 -11 -8 -23 8 -23 8 0 15 7 15 15 0 16 -12 20 -23 8z"/>
<path d="M3206 3197 c-16 -15 -33 -27 -37 -27 -23 0 -6 -42 24 -60 38 -24 38
-24 63 -6 18 14 18 15 -8 25 -35 13 -44 30 -23 45 9 7 16 21 14 31 -4 17 -7
16 -33 -8z"/>
<path d="M1560 3197 c0 -8 7 -18 16 -21 11 -4 14 -1 12 11 -4 21 -28 30 -28
10z"/>
<path d="M1623 3178 c-36 -40 -45 -65 -32 -89 9 -17 17 -20 42 -15 17 4 35 12
39 19 11 17 10 47 -2 47 -5 0 -10 -4 -10 -10 0 -5 -7 -10 -15 -10 -8 0 -15 8
-15 19 0 10 7 24 15 31 16 14 20 30 7 30 -5 0 -18 -10 -29 -22z"/>
<path d="M3306 3191 c-3 -5 2 -17 11 -27 12 -12 18 -33 18 -63 0 -51 12 -59
58 -42 22 8 27 17 27 42 0 30 -1 31 -18 16 -10 -10 -22 -17 -25 -17 -13 0 -7
39 9 55 22 22 9 33 -14 12 -23 -21 -32 -21 -32 -3 0 18 -26 40 -34 27z"/>
<path d="M1415 3173 c-14 -37 80 -85 101 -51 4 7 2 14 -6 16 -8 3 -23 15 -35
28 -26 28 -50 31 -60 7z"/>
<path d="M2182 3032 c-10 -7 -13 -64 -15 -238 l-2 -229 229 -3 c135 -1 234 2
239 7 12 12 15 446 4 458 -11 11 -438 16 -455 5z m419 -232 c-1 -107 -4 -196
-6 -198 -8 -8 -359 -1 -375 8 -14 7 -16 22 -13 102 2 51 6 134 7 183 2 50 4
94 5 98 0 4 87 6 193 5 l191 -3 -2 -195z"/>
<path d="M3637 2916 c-3 -8 -18 -16 -34 -18 -17 -2 -29 -10 -31 -20 -3 -14 4
-18 30 -18 40 0 58 15 58 47 0 25 -15 31 -23 9z"/>
<path d="M3670 2920 c0 -5 5 -10 10 -10 6 0 10 5 10 10 0 6 -4 10 -10 10 -5 0
-10 -4 -10 -10z"/>
<path d="M67 2913 c-8 -8 -9 -43 -1 -43 16 0 44 23 44 35 0 15 -31 21 -43 8z"/>
<path d="M265 2880 c-14 -16 -27 -19 -69 -15 -33 2 -59 -2 -73 -11 -41 -26
-23 -74 28 -74 30 0 42 -20 33 -56 -6 -24 9 -54 27 -54 5 0 14 11 19 25 5 14
17 25 25 25 32 0 85 51 96 92 12 47 7 55 -26 40 -27 -12 -39 -4 -24 18 21 35
-7 42 -36 10z m-85 -60 c0 -11 -4 -20 -10 -20 -5 0 -10 2 -10 4 0 2 -3 11 -6
20 -4 11 -1 16 10 16 9 0 16 -8 16 -20z m88 -32 c19 -19 14 -28 -13 -28 -24 0
-34 18 -18 33 9 10 17 9 31 -5z"/>
<path d="M5730 2881 c0 -11 5 -23 10 -26 6 -3 10 -14 10 -24 0 -10 12 -26 26
-36 22 -14 28 -15 42 -2 10 8 25 17 35 20 30 11 20 37 -14 37 -34 0 -70 16
-82 36 -12 20 -27 17 -27 -5z"/>
<path d="M2687 2884 c-14 -14 -7 -25 13 -22 12 2 21 8 21 13 0 12 -24 18 -34
9z"/>
<path d="M2895 2868 c-11 -6 -23 -16 -27 -22 -4 -7 -31 -10 -67 -8 -54 3 -61
1 -75 -21 -22 -33 -12 -52 32 -63 35 -8 37 -12 40 -52 4 -51 21 -61 53 -32 13
12 40 32 59 44 25 15 39 34 49 64 16 50 10 60 -24 44 -21 -10 -27 -9 -32 5 -4
9 1 21 11 28 22 17 7 27 -19 13z m-95 -68 c0 -11 -7 -20 -15 -20 -8 0 -15 9
-15 20 0 11 7 20 15 20 8 0 15 -9 15 -20z m85 -50 c0 -22 -39 -19 -43 3 -3 15
1 18 20 15 12 -2 23 -10 23 -18z"/>
<path d="M3745 2849 c-4 -6 1 -16 11 -24 11 -7 15 -17 11 -22 -5 -4 -14 0 -22
10 -19 27 -43 11 -47 -31 l-4 -37 -12 28 c-6 15 -17 27 -24 27 -32 -1 -78 -61
-78 -101 0 -15 7 -19 35 -19 24 0 35 -5 35 -15 0 -8 8 -15 18 -15 26 0 34 11
20 27 -13 17 6 59 34 74 15 8 20 5 27 -14 13 -34 36 -39 58 -15 10 11 32 27
50 34 22 10 31 19 27 29 -8 20 -38 19 -69 -1 -21 -13 -25 -14 -25 -2 0 8 6 20
13 27 10 10 7 16 -13 31 -29 23 -36 24 -45 9z"/>
<path d="M3550 2785 c0 -8 7 -15 15 -15 8 0 15 7 15 15 0 8 -7 15 -15 15 -8 0
-15 -7 -15 -15z"/>
<path d="M352 2723 c4 -21 33 -25 33 -3 0 8 -8 16 -18 18 -14 3 -18 -1 -15
-15z"/>
<path d="M2745 2720 c-3 -6 1 -13 10 -16 19 -8 30 0 20 15 -8 14 -22 14 -30 1z"/>
<path d="M5920 2711 c0 -12 6 -21 16 -21 9 0 14 7 12 17 -5 25 -28 28 -28 4z"/>
<path d="M2967 2703 c-13 -12 -7 -23 12 -23 26 0 35 16 15 24 -19 7 -19 7 -27
-1z"/>
<path d="M3515 2700 c-10 -16 16 -43 28 -31 11 11 2 41 -12 41 -5 0 -13 -5
-16 -10z"/>
<path d="M5775 2700 c-11 -18 4 -47 31 -58 34 -16 45 -15 74 8 l25 19 -37 -6
c-34 -5 -39 -3 -48 21 -10 26 -33 35 -45 16z"/>
<path d="M5973 2680 c-50 -46 -36 -103 23 -92 25 5 44 35 44 70 0 13 -4 11
-21 -6 -22 -24 -49 -21 -29 3 7 8 10 21 8 30 -3 14 -6 13 -25 -5z"/>
<path d="M53 2663 c-4 -9 -1 -19 5 -21 21 -7 2 -22 -29 -22 l-29 0 0 -229 0
-229 63 -7 c99 -11 1230 -22 1250 -13 15 8 17 29 17 234 0 171 -3 226 -12 229
-7 2 -283 6 -613 10 -330 4 -603 9 -607 11 -5 3 -6 10 -2 15 6 11 -13 39 -28
39 -5 0 -12 -8 -15 -17z m1236 -99 c7 -7 -6 -372 -14 -385 -3 -4 -92 -5 -197
-3 -106 2 -383 6 -615 8 -233 3 -427 7 -431 10 -9 5 -6 362 3 376 5 8 1245 2
1254 -6z"/>
<path d="M2665 2630 c3 -5 15 -10 26 -10 11 0 17 5 14 10 -3 6 -15 10 -26 10
-11 0 -17 -4 -14 -10z"/>
<path d="M3100 2470 c0 -18 35 -78 52 -89 14 -9 27 -7 54 6 47 23 47 36 0 44
-20 3 -47 16 -59 27 -24 23 -47 29 -47 12z"/>
<path d="M6685 2410 c-7 -12 2 -30 16 -30 12 0 12 27 0 35 -5 3 -12 1 -16 -5z"/>
<path d="M6596 2384 c-9 -23 -8 -24 12 -24 19 0 42 18 42 32 0 15 -48 8 -54
-8z"/>
<path d="M6785 2358 c-13 -19 -18 -21 -35 -10 -31 19 -69 14 -96 -13 -21 -21
-23 -28 -14 -45 14 -27 38 -36 53 -21 9 9 9 16 0 30 -17 27 1 48 19 22 10 -15
14 -40 12 -81 -3 -54 -2 -60 16 -60 11 0 20 5 20 10 0 6 9 10 20 10 23 0 100
66 100 86 0 8 5 23 12 34 17 26 7 32 -30 18 -37 -14 -51 -5 -34 22 11 17 10
20 -7 20 -11 0 -27 -10 -36 -22z m15 -87 c13 -25 13 -31 -2 -31 -23 0 -41 18
-35 34 9 22 24 20 37 -3z"/>
<path d="M3200 2325 c0 -8 5 -15 10 -15 6 0 10 7 10 15 0 8 -4 15 -10 15 -5 0
-10 -7 -10 -15z"/>
<path d="M3302 2299 c2 -7 10 -15 17 -17 8 -3 12 1 9 9 -2 7 -10 15 -17 17 -8
3 -12 -1 -9 -9z"/>
<path d="M3364 2285 c-4 -8 -12 -15 -19 -15 -7 0 -18 -14 -25 -31 -18 -44 -4
-65 41 -61 19 2 34 5 35 5 1 1 4 16 7 32 4 17 4 24 1 18 -3 -7 -14 -13 -25
-13 -14 0 -18 6 -17 26 2 15 8 29 15 31 16 6 17 23 3 23 -6 0 -13 -7 -16 -15z"/>
<path d="M3145 2280 c-17 -27 55 -80 90 -66 21 8 19 23 -5 31 -11 3 -25 15
-30 26 -11 20 -45 26 -55 9z"/>
<path d="M6667 2234 c-9 -10 2 -24 19 -24 8 0 14 7 14 15 0 15 -21 21 -33 9z"/>
<path d="M6882 2208 c7 -19 38 -22 38 -4 0 10 -9 16 -21 16 -12 0 -19 -5 -17
-12z"/>
<path d="M6580 2155 c0 -19 36 -39 45 -25 8 13 -13 40 -31 40 -8 0 -14 -7 -14
-15z"/>
<path d="M2608 2143 c-6 -7 -11 -93 -14 -213 -2 -110 -6 -205 -9 -209 -2 -5 2
-15 11 -22 12 -10 63 -14 193 -15 97 -1 189 -2 205 -3 l29 -1 -6 -402 c-3
-222 -8 -412 -11 -423 -13 -43 -1 -46 240 -52 204 -5 231 -4 243 11 11 13 11
19 1 31 -10 12 -51 15 -219 17 l-206 3 2 130 c8 569 19 1095 24 1100 8 7 856
5 1083 -4 l168 -6 -1 -210 c-1 -115 -6 -347 -11 -515 -6 -168 -12 -350 -13
-405 l-2 -100 -211 -3 c-163 -2 -214 -6 -223 -16 -26 -32 11 -36 255 -34 l238
3 2 100 c2 55 5 276 8 490 3 215 7 468 10 563 4 170 4 172 -18 176 -21 5 -665
13 -1379 19 -296 2 -380 0 -389 -10z m417 -215 c-1 -103 -4 -190 -8 -194 -9
-9 -352 -8 -366 1 -17 10 -15 372 2 378 6 3 93 5 192 4 l180 -2 0 -187z"/>
<path d="M1010 2030 c0 -5 5 -10 10 -10 6 0 10 5 10 10 0 6 -4 10 -10 10 -5 0
-10 -4 -10 -10z"/>
<path d="M921 2016 c-8 -10 -9 -16 -1 -21 15 -9 52 5 47 18 -6 18 -32 20 -46
3z"/>
<path d="M1695 2023 c-37 -6 -55 -20 -55 -44 0 -20 34 -27 45 -9 3 6 17 10 31
10 17 0 24 -5 24 -20 0 -11 -4 -20 -9 -20 -11 0 -44 -117 -36 -130 10 -16 33
-11 38 8 3 9 10 42 17 72 6 30 16 65 22 76 24 50 -1 68 -77 57z"/>
<path d="M1115 1992 c-18 -9 -49 -14 -78 -13 -54 3 -77 -10 -77 -45 0 -26 26
-44 64 -44 23 0 25 -3 23 -42 -2 -37 1 -43 18 -43 11 0 20 6 20 14 0 8 11 18
25 21 42 12 90 61 90 92 0 24 -4 28 -30 28 -31 0 -37 9 -19 27 18 18 -5 22
-36 5z m-77 -50 c2 -7 -3 -12 -12 -12 -9 0 -16 7 -16 16 0 17 22 14 28 -4z
m90 -50 c2 -7 -6 -12 -17 -12 -21 0 -27 11 -14 24 9 9 26 2 31 -12z"/>
<path d="M1210 1846 c0 -9 7 -16 16 -16 17 0 14 22 -4 28 -7 2 -12 -3 -12 -12z"/>
<path d="M907 1786 c-9 -24 18 -39 44 -25 22 11 22 12 4 25 -24 18 -41 18 -48
0z"/>
<path d="M0 1724 c0 -17 4 -23 12 -18 13 8 376 7 389 -2 8 -4 2 -362 -7 -375
-2 -4 -88 -6 -191 -5 l-188 1 -6 30 c-6 26 -7 23 -8 -16 l-1 -46 68 -6 c106
-11 341 -8 363 3 18 10 19 23 19 229 0 190 -2 220 -16 225 -9 3 -110 6 -225 6
l-209 0 0 -26z"/>
<path d="M1293 1729 c-15 -20 -24 -424 -9 -443 17 -21 870 -31 887 -10 7 9 13
87 17 227 4 195 3 214 -12 220 -9 4 -209 10 -444 13 -357 6 -429 4 -439 -7z
m841 -49 c11 -11 11 -358 0 -370 -3 -3 -186 -4 -407 -2 -300 2 -403 6 -410 15
-4 7 -6 64 -3 127 3 63 6 145 6 183 l0 67 401 -4 c282 -3 405 -8 413 -16z"/>
<path d="M4 1580 c0 -58 1 -81 3 -52 2 28 2 76 0 105 -2 28 -3 5 -3 -53z"/>
<path d="M6350 1517 c-19 -9 -26 -22 -28 -51 -3 -32 -1 -37 15 -34 10 2 19 14
21 28 5 35 18 46 37 30 26 -22 17 -50 -36 -112 -35 -39 -49 -62 -42 -69 6 -6
39 -9 74 -7 62 3 64 4 67 31 4 31 -8 34 -44 11 -17 -12 -28 -14 -36 -6 -7 7 0
19 22 39 18 15 38 40 46 56 13 23 13 31 0 56 -22 42 -51 51 -96 28z"/>
<path d="M4773 1255 c-11 -8 -13 -53 -11 -230 l3 -220 446 -3 446 -2 7 187 c4
104 9 200 10 215 6 56 9 56 -458 60 -276 2 -434 -1 -443 -7z m802 -38 l50 -2
-1 -182 c0 -101 -3 -185 -6 -188 -7 -8 -798 -6 -809 1 -10 6 -13 367 -3 376 4
5 574 1 769 -5z"/>
<path d="M110 1230 c0 -5 5 -10 11 -10 6 0 9 -6 6 -12 -2 -7 -19 -13 -38 -13
-24 0 -35 -5 -37 -17 -3 -15 4 -18 32 -18 43 0 104 48 84 68 -15 15 -58 16
-58 2z"/>
<path d="M2217 1183 c-13 -12 -7 -34 19 -68 l25 -34 42 18 c55 23 55 44 0 52
-23 3 -51 13 -61 22 -10 9 -22 14 -25 10z"/>
<path d="M223 1153 c-4 -10 -12 -21 -19 -26 -7 -4 -16 -24 -20 -44 l-7 -36
-19 26 c-19 26 -21 26 -49 11 -19 -9 -29 -21 -27 -32 2 -9 -5 -24 -16 -33 -26
-21 -13 -39 30 -39 24 0 34 -5 34 -15 0 -16 18 -19 38 -6 8 5 11 17 7 32 -4
18 0 31 19 48 25 24 49 22 40 -4 -3 -7 3 -18 13 -24 15 -8 25 -4 51 20 17 16
35 29 40 29 5 0 15 7 23 16 10 13 10 17 -2 25 -22 14 -37 11 -59 -13 -23 -25
-37 -19 -21 10 8 15 7 23 -4 32 -8 7 -15 19 -15 26 0 20 -29 17 -37 -3z m27
-43 c0 -5 -4 -10 -10 -10 -5 0 -10 5 -10 10 0 6 5 10 10 10 6 0 10 -4 10 -10z"/>
<path d="M6670 1140 c-8 -15 -19 -19 -43 -17 -26 2 -32 -2 -32 -18 0 -16 6
-20 36 -19 40 1 84 36 75 60 -8 20 -23 17 -36 -6z"/>
<path d="M6830 1130 c0 -5 5 -10 10 -10 6 0 10 5 10 10 0 6 -4 10 -10 10 -5 0
-10 -4 -10 -10z"/>
<path d="M6758 1067 c-35 -29 -40 -87 -8 -87 13 0 24 -10 30 -25 12 -31 27
-32 56 -4 13 12 34 27 46 33 32 16 29 40 -5 44 -18 2 -29 -2 -33 -12 -9 -25
-27 -19 -21 7 4 13 -1 31 -13 45 -22 26 -19 27 -52 -1z m32 -33 c0 -8 -4 -12
-10 -9 -5 3 -10 10 -10 16 0 5 5 9 10 9 6 0 10 -7 10 -16z"/>
<path d="M2300 1035 c0 -8 5 -15 10 -15 6 0 10 7 10 15 0 8 -4 15 -10 15 -5 0
-10 -7 -10 -15z"/>
<path d="M2400 1010 c0 -5 5 -10 10 -10 6 0 10 5 10 10 0 6 -4 10 -10 10 -5 0
-10 -4 -10 -10z"/>
<path d="M2451 992 c-56 -63 -45 -111 20 -95 28 8 35 15 37 39 3 23 1 27 -9
17 -7 -7 -19 -13 -26 -13 -19 0 -16 41 4 55 9 7 12 15 7 18 -5 3 -20 -6 -33
-21z"/>
<path d="M6580 1005 c0 -8 5 -15 10 -15 6 0 10 7 10 15 0 8 -4 15 -10 15 -5 0
-10 -7 -10 -15z"/>
<path d="M6643 1006 c-28 -13 -30 -36 -3 -43 11 -3 17 -9 14 -15 -3 -5 -14 -6
-25 -3 -23 8 -38 -20 -20 -38 9 -9 16 -9 31 1 26 16 30 15 30 -7 0 -11 5 -23
11 -27 16 -9 30 17 24 43 -3 12 0 23 7 25 10 4 8 14 -7 41 -21 39 -27 41 -62
23z"/>
<path d="M0 985 c0 -28 12 -32 30 -10 14 16 6 35 -16 35 -8 0 -14 -10 -14 -25z"/>
<path d="M2251 1001 c-8 -5 -11 -16 -8 -24 9 -23 65 -49 87 -42 26 8 26 25 0
25 -11 0 -24 8 -27 18 -11 29 -29 37 -52 23z"/>
<path d="M3678 968 c-32 -11 -35 -20 -13 -38 20 -17 20 -108 -1 -138 -21 -30
-10 -42 36 -42 43 0 62 17 36 32 -15 8 -17 23 -15 94 2 46 -1 88 -6 93 -6 5
-22 4 -37 -1z"/>
<path d="M6540 921 c0 -24 18 -37 31 -24 13 13 1 43 -17 43 -8 0 -14 -9 -14
-19z"/>
<path d="M0 872 c0 -21 2 -21 233 -21 127 0 246 0 262 0 17 0 35 0 40 0 116 4
702 -14 710 -22 16 -16 14 -358 -3 -375 -10 -11 -82 -13 -375 -9 -380 5 -766
7 -829 6 -30 -1 -38 -5 -38 -20 0 -17 18 -18 398 -19 218 -1 499 -5 624 -8
125 -3 235 -3 246 0 11 4 23 17 26 30 4 18 13 23 38 23 18 0 38 -3 43 -7 6 -4
38 -10 73 -14 49 -6 66 -4 78 8 12 12 19 13 33 4 27 -16 49 -4 69 39 9 21 20
40 25 41 9 4 9 34 1 56 -4 12 -20 16 -55 16 -42 0 -49 -3 -49 -20 0 -11 -5
-20 -11 -20 -5 0 -9 8 -8 18 4 46 -2 61 -33 76 -19 10 -35 13 -41 7 -5 -5 -4
-11 2 -15 6 -4 11 -16 11 -27 0 -10 5 -28 12 -38 9 -15 9 -23 -1 -35 -23 -28
-44 -20 -39 14 3 19 0 30 -8 30 -6 0 -22 9 -35 19 -19 16 -22 22 -11 32 6 7
12 17 12 21 0 14 -43 9 -61 -8 -28 -25 -41 -8 -38 50 5 104 0 164 -16 170 -9
3 -301 9 -650 12 l-635 7 0 -21z"/>
<path d="M5332 748 c-16 -16 -15 -28 4 -28 8 0 12 -4 9 -10 -3 -5 -19 -7 -36
-3 -28 5 -30 4 -27 -18 4 -35 42 -37 71 -5 14 14 30 26 36 26 7 0 11 10 9 23
-3 25 -45 36 -66 15z"/>
<path d="M5505 731 c-3 -5 -1 -12 5 -16 12 -7 30 2 30 16 0 12 -27 12 -35 0z"/>
<path d="M2290 713 c-36 -13 -50 -36 -50 -84 0 -39 4 -51 26 -68 15 -12 35
-21 45 -21 11 0 28 -5 38 -12 28 -17 47 -4 65 48 34 100 14 145 -65 143 -24 0
-51 -3 -59 -6z"/>
<path d="M5453 673 c-7 -2 -13 -11 -13 -18 0 -7 -7 -15 -15 -19 -9 -3 -15 -18
-15 -36 0 -20 -5 -30 -15 -30 -8 0 -15 7 -15 15 0 24 -29 29 -50 10 -11 -10
-28 -15 -40 -12 -11 3 -20 1 -20 -4 0 -5 7 -9 15 -9 8 0 19 -9 24 -19 9 -15 7
-20 -9 -24 -24 -6 -27 -35 -5 -43 8 -4 22 -1 30 6 17 14 30 7 30 -18 0 -10 8
-17 20 -17 15 0 19 6 17 24 -4 39 20 81 45 81 13 0 23 -6 23 -14 0 -7 7 -19
15 -26 12 -10 21 -7 48 16 19 16 42 34 52 40 12 6 16 15 11 23 -8 13 -33 11
-70 -4 -15 -7 -17 -5 -11 14 4 14 2 23 -9 27 -9 3 -16 15 -16 25 0 19 -5 21
-27 12z"/>
<path d="M3946 621 c-31 -19 -44 -55 -26 -76 10 -12 10 -21 1 -41 -15 -34 -14
-64 4 -70 44 -17 -8 -21 -227 -16 -206 4 -243 3 -252 -10 -7 -10 -10 -81 -8
-211 3 -188 4 -197 22 -197 19 0 20 8 20 189 l0 189 388 -3 c213 -2 399 -6
414 -10 l26 -7 -2 -179 -3 -179 23 0 24 0 0 199 c0 224 5 211 -81 211 -46 0
-62 11 -39 25 6 3 10 14 10 23 0 10 9 23 20 30 27 17 28 78 1 87 -10 3 -25 3
-34 0 -26 -11 -30 14 -5 35 l23 19 -23 1 c-15 0 -26 -8 -31 -24 -16 -39 -39
-40 -62 -1 -36 61 -60 37 -35 -36 8 -24 14 -44 13 -45 -1 0 -17 -4 -34 -7 -31
-6 -33 -5 -33 21 0 17 -8 32 -21 40 -13 8 -18 19 -14 31 8 26 -25 33 -59 12z
m59 -141 c3 -5 2 -10 -4 -10 -5 0 -13 5 -16 10 -3 6 -2 10 4 10 5 0 13 -4 16
-10z"/>
<path d="M6263 604 c-3 -9 0 -20 8 -24 22 -14 20 -82 -3 -104 -20 -19 -20 -19
-13 4 6 20 5 22 -19 18 -18 -4 -26 -1 -26 8 0 8 7 14 16 14 8 0 13 4 9 10 -3
5 -12 7 -20 3 -14 -5 -20 15 -18 65 1 21 -50 13 -82 -13 -28 -23 -29 -25 -16
-60 10 -29 10 -42 0 -66 -15 -37 -6 -48 53 -61 91 -19 159 -20 178 -3 17 15
19 15 28 -1 9 -16 13 -17 36 -5 14 8 28 26 32 44 3 17 14 32 26 35 14 3 18 10
14 26 -3 11 -6 29 -6 39 0 20 -36 24 -43 5 -4 -10 -8 -10 -15 1 -14 19 -5 38
21 45 21 6 21 7 4 17 -30 17 -67 3 -67 -26 0 -33 -16 -32 -34 4 -13 24 -34 41
-52 41 -3 0 -7 -7 -11 -16z m-63 -156 c0 -13 -23 -5 -28 10 -2 7 2 10 12 6 9
-3 16 -11 16 -16z"/>
<path d="M5227 514 c-14 -15 -6 -34 14 -34 14 0 19 5 17 17 -3 18 -20 27 -31
17z"/>
<path d="M0 346 c0 -9 52 -95 63 -105 10 -7 25 -5 55 10 34 17 40 24 31 35 -6
8 -24 14 -38 14 -15 0 -42 11 -61 25 -31 23 -50 31 -50 21z"/>
<path d="M2333 214 c-3 -9 1 -29 11 -44 21 -37 20 -63 -3 -84 -18 -16 -19 -15
-25 19 -4 21 -13 35 -21 35 -8 0 -15 -4 -15 -10 0 -5 -4 -10 -10 -10 -5 0 -9
8 -8 18 2 23 -22 82 -33 82 -5 0 -12 -13 -15 -29 -4 -17 -14 -31 -26 -34 -16
-5 -18 -11 -13 -40 4 -20 2 -44 -4 -56 -9 -15 -8 -26 1 -41 12 -19 22 -20 161
-19 l147 1 25 53 c28 58 25 85 -10 85 -15 0 -26 8 -30 20 -6 19 -25 28 -25 13
0 -5 -7 -17 -15 -27 -14 -19 -15 -19 -35 -1 -11 10 -20 26 -20 36 0 43 -24 65
-37 33z"/>
<path d="M112 184 c4 -21 22 -23 26 -1 2 10 -3 17 -13 17 -10 0 -15 -6 -13
-16z"/>
<path d="M6116 151 c-26 -27 -27 -31 -18 -80 5 -28 5 -51 1 -51 -5 0 -9 -4 -9
-10 0 -5 18 -10 41 -10 32 0 40 3 35 15 -3 8 -1 15 5 15 5 0 12 -7 15 -15 5
-12 28 -15 120 -15 105 0 115 2 139 24 l26 24 -19 33 c-11 19 -27 34 -37 34
-10 0 -20 6 -22 13 -3 7 4 12 16 12 47 0 32 34 -16 36 -30 1 -33 -2 -33 -28 0
-25 -4 -29 -22 -26 -15 2 -24 11 -26 26 -2 12 -7 22 -12 22 -5 0 -15 3 -24 6
-11 4 -16 0 -16 -14 0 -12 4 -23 9 -26 17 -11 19 -69 2 -88 -19 -22 -34 -23
-51 -3 -10 12 -10 18 1 31 11 14 10 18 -6 30 -10 8 -22 14 -27 14 -4 0 -8 11
-8 24 0 19 -16 36 -34 36 -1 0 -15 -13 -30 -29z"/>
<path d="M56 144 c-8 -22 41 -64 74 -64 15 0 30 7 34 15 3 8 2 14 -2 13 -14
-4 -52 23 -52 37 0 20 -46 19 -54 -1z"/>
<path d="M210 154 c0 -4 7 -12 16 -19 14 -9 14 -16 5 -33 -24 -45 21 -78 70
-52 27 15 24 40 -5 40 -18 0 -23 5 -23 25 0 14 3 25 8 25 5 0 9 5 9 12 0 9 -3
9 -12 0 -15 -15 -48 -16 -48 -2 0 6 -4 10 -10 10 -5 0 -10 -3 -10 -6z"/>
<path d="M0 10 c0 -6 70 -10 192 -10 105 0 189 3 186 6 -11 10 -378 15 -378 4z"/>
</g>
</svg>
