<?xml version="1.0" standalone="no"?>
<!DOCTYPE svg PUBLIC "-//W3C//DTD SVG 20010904//EN"
 "http://www.w3.org/TR/2001/REC-SVG-20010904/DTD/svg10.dtd">
<svg version="1.0" xmlns="http://www.w3.org/2000/svg"
 width="500.000000pt" height="410.000000pt" viewBox="0 0 500.000000 410.000000"
 preserveAspectRatio="xMidYMid meet">
<metadata>
Created by potrace 1.16, written by Peter Selinger 2001-2019
</metadata>
<g transform="translate(0.000000,410.000000) scale(0.100000,-0.100000)"
fill="#000000" stroke="none">
<path d="M1120 4090 c0 -5 7 -10 16 -10 28 0 8 -25 -23 -28 -18 -2 -42 -15
-58 -32 -24 -25 -27 -33 -18 -53 14 -29 -13 -72 -39 -62 -11 4 -20 -1 -28 -15
-6 -12 -21 -25 -33 -29 -18 -7 -21 -17 -24 -74 -2 -62 0 -68 22 -83 14 -9 25
-23 25 -30 0 -10 7 -13 23 -9 15 4 28 1 36 -9 8 -9 24 -16 38 -16 13 0 36 -11
50 -24 35 -33 26 -70 -25 -94 -43 -20 -56 -56 -23 -67 11 -3 29 -1 40 4 37 20
70 12 105 -24 25 -25 43 -35 66 -35 28 0 31 3 28 25 -2 19 3 29 22 38 29 15
38 46 18 61 -23 18 -48 59 -48 79 0 14 5 17 21 12 35 -11 85 3 98 28 7 13 28
32 47 42 25 13 34 25 32 39 -2 21 59 92 70 82 2 -3 6 -95 8 -206 l4 -200 -25
0 c-13 0 -27 -4 -30 -10 -3 -6 -49 -10 -104 -10 -60 0 -101 -4 -109 -12 -19
-19 -149 -10 -197 14 -29 15 -56 20 -101 19 -47 -2 -71 3 -111 24 -36 18 -65
25 -98 23 -25 0 -51 4 -57 10 -7 7 -36 12 -64 12 -29 0 -56 5 -59 10 -12 20
-122 11 -173 -13 -39 -19 -66 -23 -154 -25 l-105 -2 -42 45 c-31 34 -41 53
-41 78 0 24 -8 41 -30 62 -37 36 -40 65 -5 65 14 0 29 -8 35 -20 13 -24 52
-26 70 -5 10 12 16 13 27 4 19 -16 30 -3 38 48 6 35 4 44 -10 50 -10 3 -25 1
-34 -5 -36 -26 -43 -24 -87 21 -50 52 -52 57 -25 57 11 0 31 -14 46 -31 32
-39 45 -31 16 9 -12 17 -21 37 -21 46 0 23 -66 22 -75 -1 -6 -17 -7 -17 -21 1
-8 11 -12 28 -9 37 3 10 1 20 -5 24 -7 4 -10 -112 -10 -372 l1 -378 30 33 c22
25 28 39 23 55 -10 35 -10 38 9 50 15 10 21 8 32 -7 7 -10 18 -15 24 -12 5 4
13 -4 16 -16 12 -40 66 -88 91 -82 15 4 29 -1 44 -16 21 -21 21 -23 5 -32 -12
-7 -24 -6 -39 2 -13 6 -29 11 -37 9 -19 -2 -79 12 -79 20 0 3 -7 15 -15 26
-15 18 -17 17 -60 -25 -37 -37 -45 -51 -45 -81 0 -34 13 -50 43 -53 4 -1 13
-12 20 -26 9 -17 20 -24 36 -22 17 1 22 -2 19 -15 -5 -30 -41 -26 -73 7 -16
16 -32 30 -37 30 -4 0 -8 -117 -8 -260 0 -143 3 -260 8 -260 4 0 17 15 30 34
18 27 22 42 17 70 -6 32 -5 36 13 36 12 0 45 -25 79 -60 48 -49 63 -58 82 -53
23 6 51 -16 51 -39 0 -10 -44 -11 -54 -1 -4 4 -22 8 -41 9 -23 0 -44 10 -61
27 -15 15 -30 27 -33 27 -3 0 -25 -20 -49 -44 -56 -58 -56 -88 -2 -140 24 -22
46 -36 55 -32 21 8 30 -13 12 -31 -13 -13 -17 -13 -40 2 -14 9 -28 23 -31 31
-3 8 -12 14 -21 14 -13 0 -15 -24 -15 -169 0 -145 2 -170 16 -175 9 -3 52 -6
97 -6 76 0 84 2 101 25 17 23 25 25 103 25 46 0 93 5 104 10 25 14 330 15 544
3 88 -5 161 -10 163 -11 1 -1 2 -9 2 -18 0 -11 -6 -13 -19 -9 -13 4 -26 -1
-39 -15 -12 -13 -25 -18 -35 -14 -24 9 -21 -3 8 -34 20 -21 27 -24 34 -13 14
22 51 -17 51 -56 0 -39 -10 -46 -69 -48 -61 -3 -61 -3 -61 -18 0 -24 22 -38
38 -25 23 19 62 -33 62 -83 0 -32 4 -39 19 -39 24 0 34 -25 21 -50 -18 -33
-12 -50 18 -50 15 0 32 -4 39 -8 19 -12 19 -78 0 -100 -23 -25 -22 -52 2 -52
10 0 21 -7 25 -15 8 -23 25 -18 36 10 6 16 15 23 25 19 26 -11 29 25 4 52 -27
29 -35 100 -17 147 12 31 14 31 48 12 14 -8 35 -14 46 -15 12 0 27 -7 34 -15
13 -16 64 -13 83 4 16 16 -5 43 -30 38 -31 -6 -41 17 -19 42 22 24 20 36 -8
64 -18 18 -33 23 -65 21 -35 -2 -41 1 -41 18 0 18 64 106 97 134 8 7 23 10 33
7 18 -5 20 0 20 41 0 45 13 59 35 37 6 -5 23 -11 39 -13 l30 -3 2 -308 c1
-170 4 -311 7 -313 7 -7 668 -5 678 2 5 3 6 10 3 16 -5 8 -101 9 -318 4 -171
-3 -316 -3 -323 1 -8 6 -12 91 -16 281 -3 228 -2 276 10 288 11 11 51 14 186
14 130 1 178 4 197 15 38 22 209 20 249 -2 24 -14 35 -15 48 -7 17 11 18 53
20 700 1 466 -2 693 -9 701 -13 16 -80 17 -95 2 -7 -7 -28 -9 -55 -5 -23 4
-91 10 -149 14 -59 4 -113 12 -121 19 -18 15 -71 11 -93 -7 -17 -14 -169 -20
-181 -7 -5 5 -10 142 -12 306 -3 248 -2 299 10 309 10 8 109 14 321 18 199 5
304 11 300 17 -8 13 -644 0 -657 -13 -5 -5 -10 -46 -12 -92 -1 -46 -3 -89 -3
-96 -1 -20 -50 19 -51 40 0 9 -12 26 -27 37 l-26 21 -23 -21 c-20 -19 -26 -20
-39 -9 -12 10 -15 23 -11 44 5 25 0 37 -20 59 -14 16 -32 26 -40 23 -16 -6
-29 10 -14 19 15 9 12 25 -4 25 -8 0 -23 -10 -33 -22 -17 -21 -55 -48 -67 -48
-8 0 -36 31 -36 41 0 5 9 9 19 9 11 0 23 5 26 10 4 6 -13 10 -44 10 -28 0 -51
-4 -51 -10z m-32 -177 c-4 -22 -22 -20 -26 1 -2 10 3 16 13 16 10 0 15 -7 13
-17z m142 -18 c18 -22 6 -42 -29 -47 -24 -4 -36 2 -58 25 l-28 29 36 -7 c23
-4 39 -3 43 4 10 15 21 14 36 -4z m-101 -100 c16 -16 8 -45 -13 -45 -14 0 -56
49 -56 65 0 11 53 -5 69 -20z m251 -87 c0 -21 -22 -48 -40 -48 -30 0 -34 19
-10 45 21 22 50 24 50 3z m-300 -18 c0 -5 -4 -10 -10 -10 -5 0 -10 5 -10 10 0
6 5 10 10 10 6 0 10 -4 10 -10z m-932 -253 c3 -13 -3 -17 -27 -17 -33 0 -39 8
-19 28 17 17 42 11 46 -11z m452 -62 l25 -15 -34 2 c-19 2 -36 9 -39 16 -5 16
17 15 48 -3z m1483 -58 c18 -8 49 -34 69 -60 28 -34 43 -44 58 -40 15 4 20 0
20 -16 0 -18 -6 -21 -48 -21 -39 0 -53 5 -72 25 -24 26 -50 33 -50 15 0 -14
-51 -59 -67 -60 -20 0 -16 8 23 53 35 41 37 56 19 100 -9 21 4 22 48 4z
m-1316 -14 c16 -9 44 -38 63 -64 35 -48 53 -59 65 -38 9 13 45 -18 45 -39 0
-10 -6 -12 -22 -7 -13 4 -32 7 -43 7 -38 0 -85 20 -95 39 -15 27 -25 24 -72
-21 -23 -21 -45 -37 -50 -34 -10 6 14 39 45 62 13 10 18 26 17 56 -3 66 -1 67
47 39z m729 -62 c13 -14 24 -29 24 -33 0 -4 12 -5 28 -2 21 4 33 -1 51 -20 23
-24 23 -26 5 -26 -54 0 -139 21 -159 40 -28 27 -36 25 -70 -10 -27 -28 -55
-39 -55 -22 0 5 14 21 30 37 17 16 30 35 30 42 0 18 39 33 69 26 14 -4 35 -18
47 -32z m417 -73 c12 -7 27 -12 34 -13 7 0 26 -21 42 -47 17 -27 36 -48 43
-48 7 0 18 -10 23 -22 6 -15 18 -23 33 -22 25 1 29 -18 7 -36 -13 -11 -22 -7
-53 23 -21 21 -45 37 -53 37 -9 0 -24 9 -34 20 -23 25 -31 25 -38 0 -3 -13
-10 -18 -21 -14 -10 4 -18 0 -22 -10 -8 -21 -34 -21 -34 0 0 8 12 31 26 50 25
32 26 36 10 52 -12 14 -13 21 -4 30 15 15 14 15 41 0z m-636 -15 c12 -3 27
-18 34 -37 19 -46 93 -118 114 -110 13 5 16 2 13 -12 -5 -27 -34 -29 -55 -4
-10 12 -37 33 -60 47 -24 14 -43 29 -43 34 0 5 -4 9 -10 9 -5 0 -10 -9 -10
-21 0 -16 -4 -19 -21 -14 -15 5 -22 2 -26 -15 -3 -11 -11 -19 -17 -17 -20 7
-17 32 9 61 29 34 28 31 15 57 -14 24 -3 43 19 33 9 -3 26 -9 38 -11z m-678
-5 c28 -9 44 -22 57 -47 28 -52 89 -112 107 -105 24 9 30 -14 6 -26 -18 -10
-26 -8 -53 19 -18 17 -39 31 -48 31 -9 0 -25 11 -36 25 -24 30 -42 32 -42 4 0
-16 -4 -19 -20 -14 -16 5 -20 2 -20 -14 0 -25 -25 -28 -34 -5 -7 19 18 64 35
64 11 0 8 29 -6 63 -9 20 1 21 54 5z m1571 -178 c0 -5 -7 -10 -16 -10 -8 0
-12 5 -9 10 3 6 10 10 16 10 5 0 9 -4 9 -10z m-555 -50 c3 -5 16 -10 28 -11
12 0 32 -13 45 -30 27 -33 25 -35 -14 -14 -33 17 -70 20 -79 5 -8 -13 -55 -13
-55 0 0 10 51 60 62 60 4 0 10 -4 13 -10z m-657 -9 c9 -5 34 -17 54 -27 21
-10 40 -24 42 -31 7 -18 -6 -16 -53 9 -41 22 -42 22 -72 4 -24 -14 -33 -15
-42 -6 -9 9 -5 17 18 36 35 28 30 26 53 15z m-644 -15 c22 0 73 -43 63 -52 -3
-3 -20 1 -38 10 -37 18 -65 21 -74 6 -9 -15 -45 -12 -45 4 0 20 42 48 60 40 8
-4 24 -7 34 -8z m1916 0 c0 -8 -4 -17 -9 -21 -12 -7 -24 12 -16 25 9 15 25 12
25 -4z m-339 -126 c62 -62 71 -80 42 -80 -25 0 -83 37 -83 53 0 7 -13 26 -30
42 -16 15 -27 32 -24 37 12 19 40 4 95 -52z m-1349 13 c72 -64 92 -93 70 -107
-15 -9 -92 34 -92 53 0 10 -11 26 -25 35 -27 18 -34 56 -10 56 8 0 34 -17 57
-37z m672 0 c42 -38 74 -89 63 -100 -12 -11 -78 28 -87 51 -5 13 -21 32 -36
43 -28 20 -26 43 3 43 9 0 34 -17 57 -37z m-114 -67 c0 -16 -18 -31 -27 -22
-8 8 5 36 17 36 5 0 10 -6 10 -14z m-670 -10 c0 -8 -4 -17 -9 -21 -12 -7 -24
12 -16 25 9 15 25 12 25 -4z m1716 -112 c22 -23 51 -44 65 -46 13 -1 24 -10
24 -18 0 -25 -93 -19 -114 7 -25 33 -45 31 -75 -4 -15 -18 -34 -33 -42 -33
-20 0 -18 4 17 42 26 28 29 38 25 70 -10 63 29 57 100 -18z m-675 -1 c46 -43
68 -57 86 -55 24 4 53 -13 53 -29 0 -11 -123 -5 -142 7 -7 4 -19 16 -26 26
-19 25 -32 23 -62 -13 -14 -18 -32 -30 -39 -28 -9 3 -5 14 14 37 21 25 26 40
23 67 -4 31 2 42 24 44 4 1 35 -25 69 -56z m-658 -9 c39 -42 57 -54 74 -51 29
5 75 -39 50 -49 -8 -3 -25 0 -37 6 -12 6 -29 9 -37 6 -9 -4 -22 -1 -29 5 -8 6
-14 8 -14 4 0 -4 -14 5 -31 19 -17 14 -34 26 -38 26 -4 0 -21 -16 -38 -35 -31
-35 -53 -45 -53 -24 0 6 14 22 30 36 25 21 30 32 30 69 0 38 3 44 21 44 13 0
41 -22 72 -56z m1103 -89 c10 -8 26 -15 35 -15 8 0 24 -17 35 -37 11 -21 29
-42 40 -47 11 -5 25 -19 30 -30 6 -14 16 -20 32 -18 27 4 31 -22 5 -36 -13 -8
-23 -4 -43 17 -26 25 -111 81 -124 81 -3 0 -6 -9 -6 -20 0 -17 -3 -19 -19 -11
-15 9 -22 6 -34 -12 -14 -20 -16 -21 -22 -4 -5 13 1 27 20 47 25 26 27 32 17
56 -19 41 -2 56 34 29z m-1316 -15 c22 -11 47 -33 57 -48 32 -52 87 -102 106
-96 12 4 17 0 17 -14 0 -36 -30 -35 -67 3 -19 19 -40 35 -47 35 -7 0 -23 10
-35 22 l-24 21 -17 -23 c-10 -13 -22 -20 -29 -16 -6 4 -14 0 -17 -8 -8 -20
-23 -20 -31 0 -3 9 5 27 22 44 25 26 27 32 17 56 -11 23 -9 44 4 44 3 0 23 -9
44 -20z m655 10 c3 -5 15 -10 26 -10 13 0 25 -12 35 -35 17 -41 81 -104 107
-105 22 0 22 -29 1 -37 -11 -4 -25 4 -43 25 -14 18 -33 32 -42 32 -8 0 -26 11
-39 25 -28 30 -40 32 -40 5 0 -14 -6 -19 -22 -17 -14 1 -23 -4 -23 -13 0 -23
-30 -18 -33 6 -2 14 6 29 22 42 27 20 34 46 16 57 -5 3 -10 13 -10 21 0 16 36
19 45 4z m-290 -250 c4 -6 11 -8 16 -4 11 6 76 -53 67 -61 -2 -2 -22 5 -43 16
-38 21 -40 21 -72 3 -27 -14 -36 -15 -46 -5 -9 10 -6 18 18 37 32 26 50 30 60
14z m660 0 c9 -15 -35 -49 -62 -50 -13 0 -23 6 -23 14 0 29 71 59 85 36z
m-1264 -35 c15 -16 26 -31 24 -33 -4 -5 -59 22 -67 32 -4 6 -17 2 -32 -7 -51
-34 -94 -9 -43 26 35 25 87 17 118 -18z m1326 9 c30 -33 25 -39 -15 -18 -32
15 -38 25 -25 37 10 11 14 9 40 -19z m553 1 c0 -8 -7 -15 -15 -15 -8 0 -15 7
-15 15 0 8 7 15 15 15 8 0 15 -7 15 -15z m-386 -77 c21 -29 20 -38 -1 -38 -26
1 -67 35 -59 49 12 18 44 13 60 -11z m-574 -113 c7 -8 21 -15 31 -15 36 0 37
-32 1 -35 -23 -1 -42 -14 -42 -26 0 -6 4 -8 9 -5 5 4 16 3 25 0 23 -9 20 -57
-4 -79 -11 -10 -20 -28 -20 -40 0 -12 -9 -30 -20 -40 -18 -17 -19 -16 -26 9
-3 14 -4 33 0 41 4 10 -1 15 -14 15 -22 0 -43 32 -35 53 3 7 -1 20 -10 27 -19
16 -19 39 0 46 10 4 13 14 9 29 -5 21 -2 24 28 28 18 2 38 5 44 5 6 1 17 -5
24 -13z m85 -285 c4 -6 1 -18 -6 -26 -11 -13 -14 -13 -27 0 -8 8 -11 19 -8 25
9 14 33 14 41 1z"/>
<path d="M1360 4091 c0 -13 26 -32 33 -24 14 13 6 33 -13 33 -11 0 -20 -4 -20
-9z"/>
<path d="M3920 4090 c0 -5 -9 -10 -19 -10 -10 0 -22 -7 -25 -16 -6 -15 -8 -15
-25 0 -50 45 -200 -22 -160 -71 18 -20 -8 -63 -37 -63 -13 0 -27 -7 -32 -16
-19 -34 -32 -3 -32 75 0 52 -4 82 -12 87 -18 13 -654 2 -650 -11 1 -6 112 -10
307 -10 202 0 308 -4 315 -11 7 -7 9 -107 8 -310 l-3 -299 -86 -7 c-48 -3 -96
-11 -107 -17 -12 -6 -45 -11 -76 -11 -30 0 -58 -4 -61 -10 -4 -6 -53 -10 -114
-10 -95 0 -110 2 -126 20 -22 24 -70 27 -79 4 -3 -9 -6 -323 -6 -699 0 -738
-2 -711 52 -703 17 2 24 11 28 33 4 26 10 30 40 33 19 2 39 8 45 13 5 5 21 9
36 9 14 0 43 13 64 30 32 25 47 30 94 30 31 0 69 -7 85 -15 15 -8 54 -15 85
-15 45 0 64 -5 91 -25 19 -14 37 -30 41 -36 12 -20 11 -609 -1 -624 -9 -11
-72 -14 -306 -15 -161 0 -300 -3 -309 -6 -41 -16 -3 -24 114 -24 72 0 132 -4
136 -10 3 -5 -12 -18 -35 -30 -33 -17 -47 -34 -80 -99 -22 -44 -45 -83 -51
-86 -6 -4 -17 -23 -25 -42 -8 -19 -25 -38 -40 -43 -16 -6 -32 -26 -44 -54 -18
-40 -19 -47 -5 -94 9 -28 27 -64 40 -81 31 -36 117 -80 123 -63 6 18 19 14 25
-8 5 -18 14 -20 110 -20 60 0 109 4 112 10 3 6 22 10 41 10 34 0 104 41 104
61 0 5 -13 15 -29 23 -31 17 -51 6 -51 -26 0 -21 -1 -21 -51 -6 -32 9 -39 16
-39 36 0 22 3 24 33 18 31 -6 35 -3 60 35 34 51 34 59 1 59 -23 0 -25 3 -20
25 5 18 1 27 -15 35 -16 9 -19 18 -14 37 5 23 4 25 -20 19 -25 -6 -25 -5 -25
48 0 49 -4 58 -32 85 -18 17 -39 31 -46 31 -27 0 -62 -32 -62 -59 -1 -48 -40
-77 -67 -50 -17 17 28 98 82 148 39 36 51 41 90 41 45 0 105 -22 105 -39 0 -5
10 -19 23 -32 12 -13 31 -51 41 -84 10 -33 22 -68 27 -77 5 -10 9 -56 9 -102
0 -52 4 -88 11 -92 22 -13 30 22 27 121 -3 79 -8 109 -26 144 -12 25 -22 51
-22 58 0 20 -69 106 -96 121 -44 23 -14 32 111 32 l125 0 6 25 c3 14 4 80 2
148 -5 111 3 167 22 167 16 0 50 -43 50 -64 0 -18 7 -25 28 -30 15 -3 37 -8
48 -12 16 -4 23 0 26 14 4 14 17 21 49 26 71 10 77 9 114 -20 56 -42 40 -93
-40 -129 -70 -30 -80 -34 -100 -37 -11 -2 -21 -11 -23 -21 -3 -14 4 -17 41
-17 25 0 58 7 73 15 28 14 54 20 54 11 0 -20 -22 -56 -31 -51 -5 4 -19 -1 -29
-10 -18 -16 -20 -16 -46 4 -24 19 -29 20 -43 7 -11 -10 -21 -12 -32 -6 -26 15
-73 -41 -66 -78 7 -34 -16 -74 -38 -66 -7 3 -22 -4 -32 -15 -9 -12 -25 -21
-35 -21 -24 0 -31 -16 -18 -41 9 -16 9 -28 0 -50 -12 -28 -10 -32 23 -64 20
-19 44 -35 54 -35 10 0 28 -7 41 -15 12 -9 27 -15 34 -13 7 2 23 -7 36 -20 33
-33 27 -80 -12 -102 -39 -21 -54 -46 -39 -61 10 -10 18 -10 38 -1 42 19 69 14
111 -22 55 -47 94 -52 94 -13 0 15 11 29 30 40 39 23 38 36 -5 83 -48 52 -46
64 13 64 42 1 52 6 100 49 32 29 52 56 52 70 0 11 3 21 8 21 4 0 19 16 35 34
l27 35 -25 47 c-46 87 -67 100 -99 62 -18 -21 -19 -21 -32 -3 -9 12 -12 31 -8
50 4 24 0 35 -20 52 -14 13 -32 20 -41 17 -20 -8 -20 20 1 37 14 11 19 10 35
-10 18 -23 39 -21 39 3 0 22 38 49 60 43 26 -7 25 -1 -4 38 -14 17 -28 48 -31
69 -4 21 -18 50 -31 66 -13 15 -24 35 -24 44 0 27 28 30 48 6 16 -20 24 -22
70 -15 60 8 75 22 70 66 -4 44 -30 59 -58 34 -16 -14 -23 -16 -32 -7 -9 9 -7
15 8 26 19 14 19 15 -3 38 -13 14 -23 29 -23 35 0 17 -36 26 -70 18 -40 -9
-53 1 -39 27 9 16 8 24 -4 36 -23 22 -81 5 -85 -26 -3 -18 -10 -22 -41 -22
-47 0 -68 22 -68 73 -1 37 -1 37 41 37 23 0 51 7 62 15 23 18 105 20 123 2 8
-8 48 -11 139 -10 126 3 188 -5 186 -23 0 -5 -12 -11 -27 -14 -19 -4 -24 -9
-18 -18 6 -11 17 -11 46 -3 46 12 59 5 75 -45 9 -25 17 -34 33 -34 28 0 137
-97 137 -121 0 -24 -14 -24 -52 -1 -28 16 -30 16 -43 -1 -7 -10 -13 -38 -13
-61 l0 -43 38 1 c32 0 46 -6 75 -34 19 -18 35 -37 35 -41 0 -16 -53 -69 -69
-69 -9 0 -33 -11 -53 -25 -20 -14 -46 -25 -57 -25 -25 0 -38 -20 -20 -31 14
-9 39 -5 101 13 32 9 41 9 57 -6 16 -15 22 -15 39 -5 18 11 24 10 42 -6 22
-20 22 -20 36 0 29 42 37 47 65 41 37 -7 37 5 1 41 -17 16 -31 44 -35 66 -3
21 -19 53 -36 73 -36 41 -41 83 -11 86 11 0 26 1 33 2 7 1 11 -8 9 -20 -5 -36
22 -49 71 -34 23 7 48 14 55 16 9 3 12 18 10 46 -3 49 -27 62 -59 32 -19 -17
-21 -17 -42 4 l-22 23 23 5 c27 8 27 4 1 55 -20 38 -24 40 -53 35 -66 -14 -71
-13 -68 13 3 32 -15 51 -49 51 -23 0 -28 -5 -31 -27 -3 -24 -8 -27 -40 -29
-47 -1 -78 25 -78 66 0 16 -4 32 -10 35 -18 11 -10 30 18 43 15 7 38 19 51 26
17 10 30 12 42 5 33 -17 112 -10 164 16 33 16 68 24 102 25 48 0 53 2 67 31
13 25 13 35 3 53 -7 13 -12 69 -12 153 -1 86 -5 137 -12 144 -7 7 -28 13 -48
15 -21 1 -47 12 -59 23 -30 28 -47 26 -81 -9 -27 -28 -55 -39 -55 -22 0 5 14
21 31 38 27 25 30 34 26 67 -9 66 35 57 109 -22 29 -31 46 -42 58 -38 24 9 38
54 26 78 -7 12 -7 25 -1 37 5 9 5 39 1 67 -4 28 -4 60 1 72 10 27 3 49 -17 57
-20 8 -17 26 7 52 17 18 19 26 10 43 -7 13 -8 28 -3 39 11 24 2 147 -13 172
-3 5 -23 10 -44 10 -27 0 -44 7 -61 25 -13 14 -28 25 -33 25 -6 0 -25 -16 -44
-35 -31 -32 -63 -46 -63 -27 0 4 16 23 35 42 19 19 35 43 35 55 0 12 5 26 12
33 23 23 51 12 94 -34 46 -51 66 -53 86 -8 10 22 9 31 -5 56 -9 16 -17 38 -17
48 0 43 -10 50 -71 50 -42 0 -61 4 -65 14 -9 24 15 56 41 56 31 0 32 10 1 39
-14 13 -26 40 -30 64 -5 27 -18 53 -37 73 -30 31 -31 57 -2 68 19 8 33 -1 33
-20 0 -8 12 -19 26 -25 21 -8 31 -6 47 8 10 10 29 18 41 18 17 0 22 7 24 38 4
44 -16 57 -54 36 -23 -12 -28 -10 -72 34 l-47 48 35 -3 c29 -3 35 0 35 17 0
18 -7 20 -55 20 -52 0 -55 1 -58 27 -4 35 -21 47 -54 41 -18 -3 -28 -12 -28
-23 0 -13 -11 -19 -42 -23 -36 -5 -46 -3 -60 14 -10 12 -18 32 -18 45 0 25
-31 47 -38 26 -2 -8 -8 -8 -22 1 -15 9 -22 9 -31 0 -17 -17 -3 -46 19 -39 15
5 23 -5 43 -46 23 -51 26 -53 67 -56 23 -2 42 -7 42 -13 0 -5 16 -27 36 -49
34 -38 38 -60 10 -60 -8 0 -19 6 -25 14 -8 10 -32 13 -86 11 -53 -2 -77 1 -85
11 -17 19 -2 37 26 30 26 -7 31 3 12 22 -14 14 -94 16 -103 3 -3 -5 4 -25 15
-44 l21 -35 -28 -20 c-22 -17 -26 -23 -15 -33 6 -7 12 -25 12 -40 0 -15 5 -31
12 -35 19 -12 81 -5 99 11 8 8 26 15 40 15 13 0 30 4 38 9 18 11 57 -4 94 -38
33 -30 34 -51 5 -78 -27 -24 -141 -83 -161 -83 -8 0 -35 -11 -61 -25 -45 -24
-54 -25 -236 -25 -180 0 -190 1 -200 20 -9 18 -7 23 19 38 17 9 31 23 31 31 0
8 -16 34 -36 57 -19 24 -32 48 -29 54 3 5 28 10 54 10 44 0 52 4 97 50 27 28
49 58 49 69 0 10 15 30 33 45 31 27 43 68 22 81 -5 3 -17 21 -25 39 -9 18 -27
39 -42 47 -23 12 -27 11 -43 -9 -23 -28 -26 -28 -46 3 -16 24 -15 27 0 44 16
17 15 20 -15 45 -17 15 -38 25 -45 22 -8 -3 -14 1 -14 9 0 9 -10 15 -25 15
-14 0 -25 -4 -25 -10z m-176 -138 c2 -4 0 -14 -5 -22 -8 -13 -10 -13 -18 0
-10 15 -6 30 9 30 5 0 11 -4 14 -8z m72 -37 c25 -19 44 -19 44 1 0 23 24 11
28 -14 3 -20 -1 -22 -39 -22 -28 0 -46 6 -55 18 -25 33 -13 43 22 17z m-34
-92 c18 -16 14 -43 -6 -43 -18 0 -59 47 -52 59 8 12 33 4 58 -16z m258 -94 c0
-15 -40 -51 -52 -46 -20 6 -20 25 1 46 19 19 51 19 51 0z m366 -46 c-2 -3 -9
-2 -15 2 -8 4 -7 13 1 28 l13 22 3 -23 c2 -13 1 -26 -2 -29z m78 32 c-4 -8
-10 -15 -15 -15 -5 0 -9 7 -9 15 0 8 7 15 15 15 9 0 12 -6 9 -15z m-800 -36
c16 -10 33 -16 38 -13 4 3 19 -6 34 -19 35 -33 29 -65 -18 -96 -27 -17 -38
-32 -38 -48 0 -24 1 -24 64 -18 58 6 65 5 84 -15 12 -13 19 -27 15 -32 -5 -9
-20 -8 -109 8 -18 4 -35 1 -38 -5 -10 -16 -106 -14 -110 2 -3 6 -7 69 -10 139
l-5 127 32 -6 c18 -4 45 -14 61 -24z m230 10 c-3 -5 -10 -7 -15 -3 -5 3 -7 10
-3 15 3 5 10 7 15 3 5 -3 7 -10 3 -15z m681 -219 c3 -5 -3 -10 -15 -10 -12 0
-18 5 -15 10 3 6 10 10 15 10 5 0 12 -4 15 -10z m-1119 -199 c29 -30 52 -47
62 -44 25 6 57 -21 49 -42 -5 -12 -13 -15 -25 -10 -9 4 -37 11 -62 15 -28 5
-49 15 -58 29 -20 30 -41 26 -78 -14 -30 -34 -54 -45 -54 -26 0 5 16 25 35 44
21 21 35 45 35 60 0 24 11 35 37 36 7 1 33 -21 59 -48z m694 -26 c9 -8 28 -15
43 -15 23 0 47 -23 47 -45 0 -17 -96 8 -117 31 -32 35 -80 32 -116 -6 -47 -50
-64 -36 -21 16 l38 46 55 -6 c30 -4 62 -13 71 -21z m405 -55 c3 -5 15 -10 25
-10 12 0 26 -16 41 -45 12 -25 26 -45 31 -45 4 0 18 -11 30 -25 12 -14 29 -25
38 -25 22 0 30 -9 23 -26 -8 -22 -35 -16 -73 16 -19 17 -39 30 -46 30 -6 0
-19 9 -29 20 -22 24 -35 26 -35 5 0 -9 -9 -15 -21 -15 -12 0 -27 -7 -34 -17
-13 -18 -35 -10 -35 13 0 8 11 26 25 40 25 25 33 54 15 54 -5 0 -10 9 -10 20
0 15 7 20 24 20 14 0 28 -4 31 -10z m-660 -10 c3 -5 15 -10 26 -10 12 0 23
-10 30 -27 13 -34 95 -117 108 -109 18 11 24 -16 7 -32 -15 -15 -19 -13 -54
21 -21 20 -45 37 -54 37 -9 0 -18 7 -22 15 -7 20 -32 19 -40 -1 -4 -10 -13
-13 -26 -9 -14 5 -20 2 -20 -9 0 -21 -29 -21 -37 0 -3 9 6 27 23 45 24 25 27
32 16 49 -7 11 -12 24 -12 30 0 13 47 13 55 0z m-655 -12 c32 -10 43 -20 54
-50 9 -20 24 -39 36 -43 11 -3 25 -15 30 -25 5 -10 20 -20 32 -22 27 -4 30
-17 6 -31 -13 -8 -24 -4 -52 21 -20 18 -43 32 -50 32 -7 0 -21 9 -31 20 -23
25 -35 25 -35 1 0 -14 -6 -17 -25 -13 -18 3 -25 0 -25 -12 0 -21 -29 -21 -37
0 -3 9 7 28 27 49 32 33 33 36 17 53 -32 35 -15 41 53 20z m1035 -236 c11 -3
24 -11 28 -19 4 -7 15 -13 22 -13 8 0 15 -4 15 -10 0 -15 -25 -12 -58 7 -29
17 -31 17 -51 -1 -24 -22 -54 -15 -44 11 10 26 35 43 53 37 8 -4 24 -9 35 -12z
m-681 -1 c3 -5 15 -7 26 -4 14 4 20 0 20 -10 0 -9 9 -19 20 -22 11 -3 20 -13
20 -21 0 -20 -8 -18 -46 11 -38 29 -47 30 -64 10 -12 -15 -60 -21 -60 -8 0 4
10 17 22 30 22 23 52 30 62 14z m-600 -35 c28 -25 32 -36 14 -36 -16 0 -48 31
-48 47 0 18 5 17 34 -11z m855 -92 c57 -51 77 -82 64 -95 -10 -10 -82 21 -83
36 0 5 -16 26 -36 46 -35 35 -38 59 -9 59 7 0 36 -21 64 -46z m662 9 c27 -20
49 -43 49 -50 0 -7 9 -17 20 -23 24 -13 18 -30 -10 -30 -21 0 -80 31 -80 43 0
4 -16 24 -35 43 -35 35 -38 54 -8 54 9 0 38 -17 64 -37z m-1314 -25 c56 -55
68 -88 33 -88 -11 0 -23 7 -26 15 -4 8 -15 15 -25 15 -10 0 -19 7 -19 15 0 8
-13 27 -30 42 -35 31 -39 53 -8 53 14 0 43 -21 75 -52z m524 -61 c-8 -8 -11
-7 -11 4 0 20 13 34 18 19 3 -7 -1 -17 -7 -23z m677 15 c2 -7 -3 -12 -12 -12
-9 0 -16 7 -16 16 0 17 22 14 28 -4z m-1328 -1 c0 -12 -20 -25 -27 -18 -7 7 6
27 18 27 5 0 9 -4 9 -9z m1047 -131 c35 -39 50 -48 75 -48 19 1 36 -6 44 -17
22 -29 17 -38 -18 -31 -30 6 -63 11 -95 15 -6 0 -25 12 -41 26 -34 29 -50 26
-81 -15 -12 -17 -26 -30 -31 -30 -19 0 -10 29 16 47 20 15 27 31 31 67 5 45 7
47 31 41 14 -3 45 -28 69 -55z m-697 41 c0 -4 18 -29 41 -55 32 -36 46 -45 63
-40 25 6 76 -39 57 -51 -6 -3 -15 -3 -21 0 -5 3 -35 10 -66 15 -38 6 -64 17
-81 35 -32 32 -38 31 -59 -3 -17 -30 -52 -57 -61 -48 -3 3 11 27 31 53 20 26
34 53 31 60 -3 7 -8 20 -11 28 -5 12 2 15 35 15 23 0 41 -4 41 -9z m1158 -138
c15 -4 31 -21 45 -49 11 -24 28 -46 37 -49 9 -3 23 -17 30 -31 9 -17 20 -24
32 -21 13 4 18 -1 18 -14 0 -28 -30 -23 -69 11 -18 17 -40 30 -48 30 -7 0 -16
7 -19 15 -8 20 -40 19 -48 0 -5 -13 -10 -14 -27 -5 -17 10 -21 8 -26 -9 -6
-25 -21 -27 -30 -5 -3 9 5 26 21 43 28 29 33 50 15 68 -17 17 0 36 25 28 11
-4 31 -9 44 -12z m-1339 -5 c30 -9 41 -20 50 -45 7 -19 26 -43 42 -55 16 -12
29 -28 29 -35 0 -8 12 -13 31 -13 33 0 36 -16 6 -34 -13 -8 -23 -4 -50 22 -18
17 -40 32 -48 32 -9 0 -24 9 -34 20 -24 26 -38 25 -30 -1 7 -20 5 -21 -24 -16
-18 4 -31 2 -31 -3 0 -6 -9 -10 -20 -10 -29 0 -25 19 11 56 30 31 31 33 15 55
-29 42 -16 49 53 27z m671 0 c31 -10 42 -20 50 -43 12 -36 80 -105 104 -105
20 0 21 -14 1 -30 -11 -10 -19 -7 -37 13 -13 13 -37 31 -54 40 -17 9 -36 23
-43 31 -18 22 -28 20 -36 -5 -5 -14 -13 -19 -26 -16 -11 3 -23 -1 -28 -10 -4
-9 -13 -13 -20 -9 -16 10 -14 18 14 48 26 28 33 62 15 73 -15 9 -12 25 5 25 8
0 33 -6 55 -12z m-258 -271 c49 -36 34 -50 -18 -18 -28 17 -35 18 -59 5 -29
-15 -45 -11 -45 11 0 39 71 40 122 2z m603 23 c5 -8 11 -7 21 1 12 10 20 7 42
-12 57 -50 51 -64 -13 -29 -44 24 -45 24 -76 6 -33 -20 -54 -11 -43 17 9 23
58 35 69 17z m-1264 -31 c22 -11 17 -31 -6 -23 -13 5 -30 34 -19 34 3 0 14 -5
25 -11z m759 -164 c18 -22 4 -48 -22 -42 -14 4 -31 -2 -50 -19 -16 -13 -26
-24 -21 -25 4 -1 15 -2 23 -3 8 -2 25 -3 36 -4 14 -1 26 -13 34 -32 23 -55 49
-81 75 -74 18 4 33 -4 69 -42 42 -42 45 -49 32 -63 -14 -13 -18 -13 -36 4 -16
14 -34 18 -95 16 -70 -2 -75 -1 -75 18 0 16 6 21 26 21 16 0 24 5 22 13 -3 7
-28 13 -66 14 -68 3 -79 -9 -42 -42 21 -19 27 -54 10 -56 -37 -5 -73 -3 -77 4
-7 12 -14 288 -7 309 4 15 17 18 78 18 53 0 77 -4 86 -15z m989 -201 c16 -12
20 -19 12 -27 -7 -7 -17 -5 -31 8 -36 33 -22 47 19 19z m-651 -25 c19 -31 9
-33 -18 -4 -16 17 -19 25 -9 25 8 0 20 -9 27 -21z m-348 -139 c0 -11 -4 -20
-10 -20 -5 0 -10 9 -10 20 0 11 5 20 10 20 6 0 10 -9 10 -20z m60 10 c0 -5 -4
-10 -10 -10 -5 0 -10 5 -10 10 0 6 5 10 10 10 6 0 10 -4 10 -10z m220 -110 c0
-5 -4 -10 -10 -10 -5 0 -10 5 -10 10 0 6 5 10 10 10 6 0 10 -4 10 -10z m-188
-360 c5 0 8 7 8 16 0 22 34 13 38 -10 8 -40 -51 -48 -85 -12 -27 28 -19 42 11
21 11 -8 24 -15 28 -15z m-612 -82 c0 -10 -2 -18 -4 -18 -2 0 -11 -3 -20 -6
-12 -5 -16 1 -16 24 0 31 19 48 32 28 4 -6 8 -19 8 -28z m563 7 c20 -8 21 -17
5 -33 -17 -17 -29 -15 -62 11 -50 41 -19 53 57 22z m-713 -50 c0 -8 -7 -15
-15 -15 -8 0 -15 7 -15 15 0 8 7 15 15 15 8 0 15 -7 15 -15z m961 -31 c11 -14
9 -20 -15 -41 -22 -18 -31 -21 -42 -12 -11 9 -10 16 8 40 25 33 31 35 49 13z
m-991 -18 c0 -8 -4 -17 -9 -20 -5 -4 -9 -44 -8 -91 1 -84 -3 -102 -21 -91 -13
8 -14 156 -1 189 12 28 39 37 39 13z m200 -16 c0 -5 -4 -10 -10 -10 -5 0 -10
5 -10 10 0 6 5 10 10 10 6 0 10 -4 10 -10z m661 -3 c-1 -12 -15 -9 -19 4 -3 6
1 10 8 8 6 -3 11 -8 11 -12z m-1 -198 c0 -5 -4 -9 -10 -9 -5 0 -10 7 -10 16 0
8 5 12 10 9 6 -3 10 -10 10 -16z"/>
<path d="M4804 3925 c-8 -20 4 -35 26 -35 25 0 35 17 20 35 -16 19 -39 19 -46
0z"/>
<path d="M156 3881 c-15 -16 -15 -19 -1 -31 12 -10 21 -10 40 -2 30 14 32 28
6 42 -25 13 -25 13 -45 -9z"/>
<path d="M4260 3745 c0 -11 7 -15 23 -13 12 2 22 8 22 13 0 6 -10 11 -22 13
-16 2 -23 -2 -23 -13z"/>
<path d="M4104 3559 c-3 -6 -2 -15 4 -21 13 -13 32 -2 32 18 0 16 -26 19 -36
3z"/>
<path d="M567 2002 c-60 -5 -99 -32 -127 -88 -54 -107 -113 -194 -135 -200
-27 -7 -55 -62 -55 -111 0 -65 63 -163 105 -163 7 0 18 -7 26 -16 7 -8 21 -13
31 -10 11 2 22 -2 25 -10 8 -21 198 -20 241 2 18 8 40 13 51 9 21 -6 81 38 81
61 0 13 -37 34 -61 34 -5 0 -15 -12 -21 -27 -7 -16 -13 -29 -14 -31 -1 -2 -10
1 -21 7 -10 5 -26 12 -35 15 -11 3 -18 15 -18 30 0 31 14 40 30 21 18 -21 37
-18 51 8 6 12 21 32 32 45 21 22 19 24 -18 26 -15 1 -20 8 -20 27 0 14 -6 33
-13 42 -7 8 -12 24 -10 34 2 13 -4 19 -24 21 -26 3 -28 6 -28 50 0 41 -5 52
-34 80 -19 18 -41 32 -50 32 -24 0 -58 -42 -52 -65 10 -39 -56 -77 -70 -40 -9
22 31 96 73 137 67 64 107 73 166 38 34 -20 85 -86 92 -118 2 -10 10 -30 19
-47 9 -16 16 -38 16 -47 0 -9 5 -20 10 -23 6 -3 10 -45 10 -91 0 -64 3 -85 13
-82 8 3 13 36 15 106 2 93 1 106 -23 147 -14 25 -25 53 -25 63 0 9 -11 30 -25
46 -14 16 -25 35 -25 42 0 6 -17 21 -37 31 -37 19 -71 23 -146 15z m13 -207
c0 -16 -27 -27 -36 -14 -3 5 -3 16 0 24 6 17 36 9 36 -10z m-150 -34 c0 -12
-20 -25 -27 -18 -7 7 6 27 18 27 5 0 9 -4 9 -9z m130 -38 c0 -20 -24 -11 -28
10 -2 12 1 15 12 11 9 -3 16 -13 16 -21z m-160 -32 c0 -17 -5 -33 -10 -36 -6
-4 -8 -31 -5 -68 5 -56 -5 -101 -20 -86 -12 12 -8 157 6 188 17 39 29 40 29 2z
m200 -16 c0 -8 -4 -15 -10 -15 -5 0 -10 7 -10 15 0 8 5 15 10 15 6 0 10 -7 10
-15z"/>
<path d="M0 1686 c0 -233 1 -254 18 -260 9 -3 25 -11 36 -18 15 -11 19 -10 24
2 3 8 19 27 35 43 29 27 29 28 13 61 -9 19 -16 43 -16 55 0 11 -14 36 -30 54
-32 37 -37 58 -17 75 14 12 40 -3 50 -30 8 -21 30 -23 60 -6 12 7 31 13 42 13
17 0 20 8 23 48 4 58 -19 75 -50 37 l-19 -23 -37 34 c-41 38 -52 51 -52 62 0
14 19 7 40 -15 28 -30 36 -16 16 27 -17 34 -19 36 -64 33 -41 -3 -47 0 -48 17
-2 38 -4 45 -14 45 -6 0 -10 -91 -10 -254z"/>
<path d="M4814 1915 c-9 -22 22 -53 37 -38 15 15 7 47 -14 51 -9 2 -20 -4 -23
-13z"/>
<path d="M4143 1904 c-3 -8 2 -23 11 -32 15 -15 17 -15 32 0 21 21 11 48 -16
48 -11 0 -23 -7 -27 -16z"/>
<path d="M172 1888 c-22 -22 -14 -48 13 -48 30 0 43 24 25 45 -15 18 -22 19
-38 3z"/>
<path d="M4383 1853 c-23 -4 -53 -38 -53 -60 0 -6 7 -19 16 -28 22 -21 46 -2
38 30 -6 26 6 38 30 29 33 -13 22 -48 -33 -112 -60 -69 -59 -80 5 -89 50 -6
94 10 94 36 0 24 -25 34 -40 15 -13 -15 -46 -19 -54 -6 -2 4 11 18 30 32 36
24 64 66 64 95 0 20 -45 65 -62 64 -7 -1 -23 -4 -35 -6z"/>
<path d="M4273 1745 c-3 -9 -3 -19 1 -22 7 -7 36 16 36 28 0 15 -30 10 -37 -6z"/>
<path d="M2489 1729 c-21 -21 -22 -50 -2 -56 7 -3 18 7 25 22 7 15 18 25 27
23 24 -5 25 -44 2 -67 -25 -25 -26 -31 -7 -31 7 0 19 -7 26 -15 11 -13 11 -20
0 -40 -16 -29 -28 -32 -37 -7 -16 45 -53 51 -53 8 0 -45 97 -63 124 -24 19 26
21 64 5 74 -7 4 -9 21 -5 47 12 76 -53 118 -105 66z"/>
<path d="M4372 1358 c-7 -7 -12 -17 -12 -24 0 -17 30 -26 46 -13 10 8 17 2 33
-28 22 -43 57 -76 72 -68 15 10 48 -5 54 -24 3 -10 16 -31 29 -46 29 -33 24
-60 -8 -49 -11 4 -58 9 -103 11 l-83 4 0 30 c0 26 3 29 25 23 15 -4 25 -2 25
4 0 18 -13 21 -60 12 -31 -6 -47 -5 -52 3 -4 6 -10 8 -15 4 -4 -5 -3 -11 3
-15 5 -4 18 -20 28 -36 18 -28 18 -30 1 -42 -10 -8 -28 -11 -40 -8 -13 3 -27
-1 -35 -11 -11 -13 -10 -15 2 -10 23 9 68 -33 68 -63 0 -25 4 -27 42 -29 27
-2 45 2 52 12 6 9 28 18 50 20 21 3 42 8 47 10 17 11 109 -52 109 -75 0 -28
-50 -75 -117 -108 -40 -19 -73 -39 -73 -43 0 -11 71 -3 108 12 30 13 35 12 47
-4 11 -15 17 -17 35 -7 18 10 26 8 46 -11 l23 -22 10 24 c11 31 29 46 60 51
l24 3 -26 31 c-18 21 -27 44 -27 66 0 25 -8 42 -30 63 -29 28 -41 77 -22 89
17 10 51 -7 54 -28 3 -24 41 -34 63 -16 8 7 21 10 28 7 24 -9 39 10 41 48 1
51 -24 68 -57 37 l-23 -22 -47 46 c-47 45 -61 72 -32 60 8 -3 22 -9 30 -12 11
-5 15 1 15 21 0 28 0 28 -54 21 l-55 -6 -3 32 c-3 30 -6 33 -40 36 -34 3 -38
1 -38 -21 0 -22 -5 -25 -41 -29 -34 -3 -44 0 -60 21 -11 14 -17 31 -14 39 3 8
0 21 -6 28 -14 17 -81 18 -97 2z m122 -293 c-6 -16 -24 -21 -24 -7 0 11 11 22
21 22 5 0 6 -7 3 -15z m-70 -11 c7 -19 -2 -37 -15 -29 -12 8 -12 45 0 45 5 0
12 -7 15 -16z"/>
<path d="M391 1323 c-8 -8 -24 -13 -37 -10 -13 2 -24 1 -24 -3 0 -15 26 -27
63 -27 39 -1 77 -25 77 -49 0 -14 42 -46 56 -43 25 4 45 -3 51 -18 3 -10 19
-32 36 -50 28 -30 30 -53 3 -53 -8 0 -18 6 -24 13 -8 9 -34 13 -85 11 -86 -2
-108 6 -87 30 7 10 20 14 31 11 11 -4 19 -2 19 3 0 18 -25 28 -60 26 -19 -1
-43 -3 -54 -3 -16 -1 -16 -5 9 -36 22 -30 25 -38 14 -51 -9 -11 -23 -14 -43
-10 l-31 6 32 -29 c17 -16 29 -31 27 -34 -3 -3 -2 -16 2 -31 5 -21 9 -24 25
-16 15 8 17 7 13 -4 -4 -11 2 -14 30 -13 25 1 35 6 33 17 -1 11 9 16 38 18 22
2 45 8 51 13 22 18 114 -44 114 -76 0 -34 -88 -96 -182 -128 -10 -4 -18 -11
-18 -17 0 -16 88 -12 122 6 25 13 36 14 51 5 10 -7 26 -9 36 -6 10 3 24 -1 31
-10 17 -21 37 -19 45 4 10 33 32 45 60 33 34 -16 32 1 -5 41 -22 23 -30 42
-30 68 0 26 -8 43 -30 64 -33 32 -41 75 -13 75 9 0 27 -10 40 -22 21 -20 26
-20 65 -8 24 7 48 14 54 15 15 4 23 49 12 69 -11 20 -47 21 -54 1 -4 -8 -11
-15 -17 -15 -13 0 -97 80 -97 92 0 16 25 7 52 -19 30 -28 52 -25 26 4 -9 10
-18 27 -20 38 -3 17 -11 20 -55 17 l-52 -2 -3 32 c-3 30 -6 33 -39 36 -36 3
-36 2 -42 -39 -7 -51 -27 -77 -27 -35 0 26 -3 28 -29 23 -23 -5 -30 -2 -40 19
-6 14 -11 33 -11 43 0 10 -6 23 -12 28 -20 15 -81 12 -97 -4z m117 -291 c2 -7
-3 -12 -12 -12 -9 0 -16 7 -16 16 0 17 22 14 28 -4z m-58 -18 c0 -31 -23 -28
-28 4 -2 15 2 22 12 22 11 0 16 -9 16 -26z m290 -154 c0 -5 -4 -10 -10 -10 -5
0 -10 5 -10 10 0 6 5 10 10 10 6 0 10 -4 10 -10z"/>
<path d="M4320 1330 c0 -5 7 -10 16 -10 8 0 12 5 9 10 -3 6 -10 10 -16 10 -5
0 -9 -4 -9 -10z"/>
<path d="M1795 1301 c-9 -15 9 -21 54 -19 23 1 47 -4 53 -10 7 -7 18 -12 25
-12 19 0 16 37 -3 44 -25 9 -122 7 -129 -3z"/>
<path d="M1743 1282 c-19 -13 -43 -71 -43 -105 0 -21 -7 -41 -20 -52 -11 -10
-20 -22 -20 -27 0 -6 -14 -40 -31 -76 l-31 -67 25 -45 c14 -25 35 -50 47 -56
12 -7 27 -17 33 -23 6 -6 21 -11 32 -11 12 0 35 -7 51 -15 36 -17 218 -15 236
3 7 7 31 12 54 12 35 0 47 5 73 35 30 34 31 39 31 128 0 99 -7 117 -47 117
-26 0 -30 -12 -8 -30 11 -9 15 -33 15 -87 0 -69 -2 -76 -30 -103 -17 -17 -34
-30 -38 -30 -16 0 -32 24 -32 47 0 23 -14 31 -24 15 -12 -20 -66 2 -107 44
-26 27 -52 44 -66 44 -27 0 -30 12 -6 31 13 11 17 11 20 2 6 -17 23 -16 23 1
0 8 7 16 15 20 18 7 20 26 2 26 -7 0 -27 14 -45 30 -18 17 -39 30 -46 30 -20
0 -47 73 -40 107 6 31 -4 47 -23 35z m-23 -266 c0 -20 -26 -40 -35 -26 -10 16
2 40 20 40 8 0 15 -6 15 -14z m50 -103 c0 -7 -7 -13 -15 -13 -10 0 -15 10 -15
32 0 30 1 31 15 12 8 -10 15 -25 15 -31z"/>
<path d="M0 1025 c0 -201 3 -256 13 -252 6 2 22 -5 34 -16 19 -16 25 -18 38
-7 8 7 15 19 15 26 0 8 11 20 25 26 29 13 31 25 10 48 -8 9 -17 35 -19 58 -2
31 -11 49 -35 71 -36 34 -40 57 -9 67 16 5 26 0 41 -20 19 -26 51 -34 62 -16
3 6 19 10 36 10 24 0 29 4 29 24 0 13 3 31 6 39 3 10 -3 20 -17 28 -20 10 -25
9 -41 -11 l-18 -22 -45 43 c-44 42 -57 69 -34 69 6 0 24 -13 39 -30 26 -28 50
-39 50 -23 0 3 -7 15 -17 25 -9 10 -21 28 -28 41 -11 22 -25 24 -77 12 -24 -7
-27 -4 -30 26 -2 18 -9 34 -15 37 -10 3 -13 -52 -13 -253z m60 -121 c0 -8 -4
-12 -10 -9 -5 3 -10 10 -10 16 0 5 5 9 10 9 6 0 10 -7 10 -16z m16 -61 c-10
-10 -19 5 -10 18 6 11 8 11 12 0 2 -7 1 -15 -2 -18z"/>
<path d="M4822 1248 c2 -13 10 -23 18 -23 8 0 16 10 18 23 3 17 -2 22 -18 22
-16 0 -21 -5 -18 -22z"/>
<path d="M170 1224 c-11 -12 -11 -18 2 -30 12 -13 20 -14 37 -5 26 14 27 27 2
41 -25 13 -26 13 -41 -6z"/>
<path d="M831 1227 c-8 -11 -6 -18 9 -32 18 -17 22 -17 36 -4 8 9 12 23 8 32
-7 20 -37 22 -53 4z"/>
<path d="M1985 1196 c-16 -12 -17 -16 -6 -30 18 -22 8 -136 -13 -148 -29 -16
-16 -28 29 -28 43 0 58 13 38 34 -5 4 -8 46 -8 94 0 89 -7 102 -40 78z"/>
<path d="M4404 725 c-4 -8 -17 -15 -30 -15 -26 0 -32 -14 -12 -27 7 -4 31 -13
53 -18 37 -10 40 -14 43 -49 2 -21 -1 -43 -7 -49 -5 -5 -34 -9 -64 -8 -39 0
-56 -3 -60 -13 -8 -19 16 -38 37 -30 10 4 28 1 42 -6 21 -12 23 -19 20 -58 -4
-37 -2 -45 14 -49 25 -7 34 -36 20 -63 -6 -11 -8 -25 -5 -30 9 -14 52 -12 61
2 10 16 22 -22 23 -73 1 -24 -6 -42 -19 -54 -32 -29 -25 -52 16 -60 22 -4 41
-2 47 4 6 6 19 11 29 11 25 0 23 29 -4 57 -19 20 -22 34 -21 94 1 85 13 102
47 70 14 -13 29 -20 35 -16 6 3 26 -2 44 -13 45 -27 107 -20 107 13 0 26 -18
36 -49 28 -16 -4 -21 -1 -21 15 0 12 5 24 10 27 16 10 11 37 -11 61 -18 20
-29 22 -64 17 -37 -5 -43 -3 -48 17 -4 16 3 31 24 53 16 18 39 48 52 67 15 23
32 36 49 38 14 2 29 10 32 19 8 21 10 20 -57 25 -49 4 -61 2 -70 -14 -7 -10
-20 -18 -29 -18 -22 0 -23 -13 -3 -30 21 -18 19 -34 -10 -68 -14 -17 -25 -41
-25 -55 0 -14 -7 -28 -17 -32 -26 -10 -28 -8 -26 30 1 22 -3 35 -11 35 -20 0
-46 34 -46 61 0 14 -5 30 -11 36 -8 8 -8 17 1 33 9 16 9 25 -1 36 -16 19 -78
18 -85 -1z m81 -195 c-3 -5 -11 -10 -16 -10 -6 0 -7 5 -4 10 3 6 11 10 16 10
6 0 7 -4 4 -10z m205 -90 c0 -13 -7 -20 -20 -20 -11 0 -20 2 -20 4 0 2 -3 11
-6 20 -5 12 0 16 20 16 19 0 26 -5 26 -20z"/>
<path d="M3230 710 c-76 -10 -103 -32 -144 -112 -56 -107 -88 -154 -118 -172
-53 -32 -75 -117 -47 -180 25 -56 103 -126 143 -126 7 0 20 -7 27 -16 12 -14
29 -16 123 -11 60 3 114 11 119 16 6 6 27 11 47 11 28 0 44 8 69 34 l34 35
-36 17 c-42 20 -67 8 -67 -33 0 -23 -1 -23 -22 -9 -12 9 -30 16 -40 16 -13 0
-18 8 -18 29 0 31 27 51 36 26 10 -26 31 -16 57 28 l25 42 -26 5 c-21 5 -26
11 -24 29 1 16 -4 24 -19 28 -14 4 -18 11 -13 22 13 34 9 46 -16 46 -24 0 -25
2 -22 50 3 47 1 52 -36 88 l-39 38 -31 -26 c-26 -22 -30 -31 -25 -56 4 -22 2
-29 -10 -29 -8 0 -17 -5 -19 -11 -5 -15 -48 -2 -48 15 0 41 108 174 143 177
29 3 74 -3 102 -13 33 -12 85 -83 85 -116 0 -12 4 -23 9 -27 21 -13 43 -108
42 -185 0 -43 3 -81 8 -84 19 -12 28 23 30 117 1 87 -1 102 -24 143 -14 24
-25 55 -25 68 0 12 -11 33 -25 46 -14 13 -25 29 -25 36 0 34 -93 57 -180 44z
m12 -192 c8 -21 -2 -38 -23 -38 -19 0 -27 29 -12 43 11 11 31 8 35 -5z m-152
-52 c0 -16 -18 -31 -27 -22 -8 8 5 36 17 36 5 0 10 -6 10 -14z m135 -26 c3 -6
-1 -13 -10 -16 -19 -8 -30 0 -20 15 8 14 22 14 30 1z m-178 -76 c-7 -31 -8
-54 -1 -73 11 -27 0 -81 -16 -81 -24 0 -26 142 -3 181 23 39 32 28 20 -27z
m213 31 c0 -8 -4 -15 -10 -15 -5 0 -10 7 -10 15 0 8 5 15 10 15 6 0 10 -7 10
-15z"/>
<path d="M0 672 c0 -13 10 -24 30 -31 17 -5 30 -15 30 -22 0 -6 11 -24 25 -41
14 -16 25 -39 25 -51 0 -12 7 -31 15 -41 8 -11 15 -30 15 -42 0 -13 5 -26 10
-29 6 -3 10 -46 10 -96 0 -54 4 -89 10 -89 19 0 28 44 25 130 -2 69 -7 94 -29
134 -14 27 -26 56 -26 64 0 8 -11 27 -25 44 -14 16 -25 35 -25 43 0 7 -12 18
-28 23 -15 5 -35 13 -44 17 -14 5 -18 2 -18 -13z"/>
<path d="M1060 665 c-27 -29 -20 -43 14 -27 27 12 30 10 61 -50 21 -40 38 -52
65 -43 12 4 25 -6 43 -32 15 -21 35 -44 46 -50 12 -8 18 -19 15 -28 -8 -19
-32 -19 -53 -2 -12 10 -34 12 -84 8 -46 -5 -71 -3 -78 5 -11 13 12 36 31 32 7
-2 15 2 17 9 4 11 -5 15 -73 29 -12 2 -28 -3 -35 -12 -12 -14 -11 -19 9 -32
12 -8 22 -23 22 -33 0 -24 -38 -45 -53 -30 -16 16 -31 13 -45 -10 -12 -19 -11
-20 7 -14 26 8 61 -15 61 -41 0 -11 9 -30 20 -42 l20 -22 33 20 c17 11 45 20
60 20 16 0 38 5 49 11 14 8 23 8 31 0 6 -6 18 -11 26 -11 9 0 29 -14 46 -31
28 -29 29 -31 13 -57 -17 -28 -127 -92 -158 -92 -20 0 -43 -23 -33 -33 10 -11
103 -8 103 2 0 19 41 23 60 6 15 -14 21 -14 40 -3 18 11 22 11 31 -4 15 -26
36 -22 51 9 7 16 23 29 36 31 27 4 28 26 2 59 -11 14 -20 40 -20 57 0 23 -9
41 -30 61 -16 16 -30 35 -30 42 0 24 31 26 60 4 35 -25 49 -26 65 -4 11 15 15
15 29 4 24 -20 42 1 44 48 2 33 -2 41 -20 47 -14 4 -25 1 -33 -10 -18 -24 -41
-19 -65 14 -12 17 -27 30 -35 30 -13 0 -29 29 -21 38 3 2 19 -1 36 -7 30 -10
31 -9 24 12 -11 36 -48 49 -71 26 -17 -17 -42 -4 -37 19 7 23 -11 37 -54 47
-32 7 -33 6 -30 -22 3 -26 0 -28 -36 -31 -32 -3 -43 1 -58 20 -10 13 -18 36
-18 52 0 26 -2 28 -30 23 -17 -4 -30 -2 -30 3 0 17 -16 11 -40 -15z m58 -299
c2 -9 1 -24 -3 -33 -10 -27 -39 8 -30 36 8 25 28 23 33 -3z m62 8 c0 -9 -5
-14 -12 -12 -18 6 -21 28 -4 28 9 0 16 -7 16 -16z m200 -116 c0 -19 -2 -20
-10 -8 -13 19 -13 30 0 30 6 0 10 -10 10 -22z"/>
<path d="M412 668 c-22 -22 -14 -40 15 -36 16 2 28 -1 28 -7 0 -17 35 -84 47
-91 7 -4 14 -2 16 4 8 24 30 11 82 -49 42 -48 50 -63 39 -70 -20 -12 -35 -11
-48 5 -8 10 -33 13 -92 10 -77 -2 -80 -2 -77 19 2 14 11 23 26 25 25 4 28 12
10 30 -8 8 -17 8 -30 1 -10 -5 -23 -7 -29 -4 -5 4 -17 1 -25 -6 -14 -11 -13
-15 5 -28 26 -20 19 -54 -15 -70 -25 -11 -31 -26 -15 -35 4 -3 11 -18 14 -34
6 -30 51 -60 63 -41 3 6 13 8 22 4 8 -3 18 -1 22 5 4 6 22 14 41 17 19 2 39 9
46 15 7 6 19 5 35 -4 35 -20 78 -60 78 -74 0 -18 -38 -62 -68 -78 -61 -33 -98
-49 -117 -50 -11 -1 -20 -8 -20 -16 0 -12 11 -14 55 -12 30 2 59 8 65 13 13
13 42 11 65 -3 17 -11 22 -10 31 2 8 13 12 12 28 -7 25 -30 34 -29 48 7 8 22
18 30 37 30 36 0 39 12 11 50 -14 19 -25 48 -25 65 0 22 -9 40 -30 60 -37 36
-37 69 1 73 19 2 28 -3 37 -23 14 -30 32 -29 47 3 11 25 25 29 25 7 0 -9 9
-15 24 -15 20 0 24 6 29 43 4 29 2 46 -8 56 -13 13 -18 12 -40 -9 -27 -25 -24
-26 -89 34 -19 19 -32 36 -29 40 14 13 36 4 64 -25 20 -22 29 -26 29 -15 0 9
-4 16 -8 16 -5 0 -16 16 -25 35 -14 28 -22 35 -46 35 -17 0 -33 -5 -36 -11
-13 -20 -30 -2 -30 31 0 21 -7 37 -18 44 -16 9 -23 5 -50 -27 -23 -27 -40 -37
-61 -37 -34 0 -70 40 -71 79 0 22 -5 26 -35 29 -19 2 -41 -3 -48 -10z m38
-313 c0 -15 -6 -25 -14 -25 -22 0 -30 19 -16 35 18 22 30 18 30 -10z m65 16
c10 -17 -12 -21 -25 -6 -10 12 -10 15 3 15 9 0 18 -4 22 -9z m225 -176 c0 -8
-4 -15 -10 -15 -5 0 -10 7 -10 15 0 8 5 15 10 15 6 0 10 -7 10 -15z"/>
<path d="M1000 655 c0 -8 5 -15 10 -15 6 0 10 7 10 15 0 8 -4 15 -10 15 -5 0
-10 -7 -10 -15z"/>
<path d="M3795 659 c-11 -16 1 -22 47 -24 51 -2 113 -37 130 -73 7 -15 24 -32
36 -38 13 -7 32 -25 42 -41 10 -17 34 -40 54 -52 36 -22 36 -23 36 -91 0 -62
-3 -72 -29 -101 -19 -20 -35 -30 -45 -26 -27 11 -30 36 -7 61 11 12 21 28 21
34 0 15 -42 16 -57 1 -7 -7 -31 -13 -55 -14 -34 -3 -48 2 -69 21 -14 14 -39
28 -55 33 -37 10 -34 25 7 31 18 3 38 15 47 28 13 20 13 22 -5 22 -11 0 -30
13 -43 30 -12 16 -31 32 -41 35 -9 3 -27 22 -39 42 -17 30 -19 41 -11 60 16
34 14 43 -9 43 -11 0 -23 -8 -26 -17 -3 -10 -10 -26 -15 -35 -5 -10 -9 -33 -9
-51 0 -23 -8 -41 -25 -57 -14 -13 -25 -32 -25 -42 0 -10 -12 -40 -26 -67 -29
-53 -28 -74 5 -128 38 -61 115 -86 271 -86 211 0 264 28 274 146 9 103 4 141
-19 145 -27 5 -52 29 -77 73 -13 24 -35 44 -60 55 -22 10 -54 35 -71 56 -29
36 -33 38 -88 38 -32 0 -61 -5 -64 -11z m-71 -275 c9 -22 8 -24 -9 -24 -8 0
-15 -4 -15 -10 0 -5 -4 -10 -10 -10 -14 0 -13 33 2 48 16 16 25 15 32 -4z m36
-110 c0 -9 -5 -14 -12 -12 -18 6 -21 28 -4 28 9 0 16 -7 16 -16z"/>
<path d="M340 650 c0 -5 5 -10 10 -10 6 0 10 5 10 10 0 6 -4 10 -10 10 -5 0
-10 -4 -10 -10z"/>
<path d="M844 565 c-4 -9 -2 -21 4 -27 15 -15 44 -1 40 19 -4 23 -36 29 -44 8z"/>
<path d="M1505 571 c-3 -6 -4 -15 -1 -20 8 -13 48 -1 43 13 -5 15 -34 20 -42
7z"/>
<path d="M3947 433 c-4 -3 -7 -11 -7 -17 0 -6 5 -5 12 2 6 6 9 14 7 17 -3 3
-9 2 -12 -2z"/>
<path d="M12 408 c-7 -7 -12 -46 -12 -98 0 -81 2 -87 24 -99 35 -19 49 -6 42
38 -4 20 -7 47 -7 61 0 14 -7 33 -16 42 -9 10 -12 25 -8 36 7 24 -7 36 -23 20z"/>
<path d="M80 181 c-5 -11 -7 -27 -3 -37 7 -18 8 -18 -57 2 -18 6 -20 2 -20
-31 0 -34 2 -37 22 -31 13 3 35 6 49 6 25 0 89 50 89 69 0 8 -54 41 -66 41 -2
0 -8 -9 -14 -19z"/>
</g>
</svg>
