<?xml version="1.0" standalone="no"?>
<!DOCTYPE svg PUBLIC "-//W3C//DTD SVG 20010904//EN"
 "http://www.w3.org/TR/2001/REC-SVG-20010904/DTD/svg10.dtd">
<svg version="1.0" xmlns="http://www.w3.org/2000/svg"
 width="1040.000000pt" height="940.000000pt" viewBox="0 0 1040.000000 940.000000"
 preserveAspectRatio="xMidYMid meet">
<metadata>
Created by potrace 1.16, written by Peter Selinger 2001-2019
</metadata>
<g transform="translate(0.000000,940.000000) scale(0.100000,-0.100000)"
fill="#000000" stroke="none">
<path d="M9920 8448 c0 -524 -5 -1162 -10 -1418 -5 -256 -11 -1430 -15 -2610
-6 -2545 -13 -3799 -22 -4158 l-6 -262 65 0 65 0 7 1628 c3 895 8 1758 11
1917 3 160 7 884 11 1610 3 726 9 1545 13 1820 5 275 9 933 10 1463 l2 962
-66 0 -65 0 0 -952z"/>
<path d="M562 8932 c-11 -7 -14 -130 -17 -623 -2 -338 -6 -780 -10 -984 -3
-203 -7 -719 -10 -1145 -3 -426 -7 -1011 -10 -1300 -2 -289 -7 -865 -10 -1280
-2 -415 -8 -1214 -12 -1775 -4 -561 -7 -1164 -8 -1340 l0 -320 22 -3 c22 -3
22 -1 27 150 6 189 5 155 4 446 -1 258 2 279 42 254 11 -6 24 -12 30 -12 6 0
24 -10 40 -22 43 -31 39 -62 -10 -93 -46 -29 -46 -58 0 -57 3 0 19 3 36 6 24
6 38 1 69 -24 42 -34 85 -40 85 -13 0 10 12 27 27 39 l27 21 -32 44 c-18 23
-32 46 -32 50 0 3 21 9 46 12 40 4 53 12 93 55 102 111 116 137 87 161 -8 7
-17 23 -20 36 -8 30 -43 52 -59 36 -6 -6 -19 -11 -29 -11 -14 0 -18 8 -18 33
-1 59 -19 70 -105 65 -42 -3 -78 -1 -81 4 -9 15 -88 -4 -113 -27 -20 -19 -21
-26 -11 -44 15 -29 -4 -53 -39 -49 l-26 3 1 465 c2 974 15 2836 20 2853 12 40
58 -1 47 -43 -7 -27 10 -40 53 -40 22 0 33 5 36 18 4 14 18 21 52 25 41 6 52
3 81 -19 18 -14 36 -31 39 -39 9 -25 -34 -63 -104 -91 -39 -15 -70 -33 -70
-41 0 -18 63 -17 101 2 32 17 49 13 49 -11 0 -17 12 -18 26 -4 8 8 20 7 39 -2
24 -11 29 -10 33 1 8 25 41 51 57 45 20 -8 19 3 -5 33 -11 14 -20 34 -20 45 0
24 -24 70 -44 87 -9 8 -16 20 -16 27 0 19 46 18 53 0 4 -11 20 -14 59 -12 50
3 53 5 59 32 15 69 1 85 -49 57 -29 -16 -29 -16 -60 18 -32 35 -25 54 9 23 28
-25 34 -11 15 31 -17 34 -20 36 -59 33 -39 -2 -42 -1 -47 27 -5 27 -9 30 -40
30 -29 0 -36 -4 -38 -22 -7 -50 -92 -15 -92 38 0 27 -2 29 -39 29 -22 0 -43
-4 -46 -10 -3 -6 -15 -10 -26 -10 -11 0 -19 -7 -19 -16 0 -12 9 -15 37 -12 35
3 38 0 60 -45 20 -39 29 -47 51 -47 29 0 102 -63 102 -88 0 -16 -23 -15 -38 0
-8 8 -39 13 -75 13 -51 0 -62 3 -65 18 -2 10 3 17 12 17 19 0 21 16 4 26 -16
10 -70 6 -81 -5 -5 -5 -1 -20 8 -34 9 -15 14 -31 10 -37 -10 -16 -43 -12 -54
8 -5 9 -8 134 -7 277 1 256 1 260 22 263 15 2 24 -5 34 -27 6 -16 9 -35 5 -40
-4 -7 9 -11 38 -11 35 0 46 4 49 18 4 15 15 18 57 16 42 -1 58 -7 82 -30 35
-34 37 -56 6 -81 -22 -17 -100 -55 -140 -67 -10 -3 -15 -10 -12 -16 8 -13 49
-13 98 2 31 9 42 9 44 1 3 -8 15 -10 32 -7 18 4 32 0 40 -10 11 -12 17 -14 27
-5 8 6 14 18 14 25 0 8 14 17 30 21 35 6 39 23 10 41 -15 9 -20 23 -20 56 0
36 -5 47 -25 60 -28 18 -34 56 -10 56 9 0 18 -7 21 -15 9 -22 40 -28 81 -13
21 7 39 13 41 14 2 1 5 18 8 38 5 43 -14 56 -51 36 -23 -12 -27 -10 -60 25
-19 22 -35 40 -35 42 0 10 23 -1 46 -22 49 -45 58 -30 18 28 -23 34 -30 38
-62 35 -30 -2 -37 1 -40 17 -6 32 -22 45 -54 45 -23 0 -29 -4 -24 -15 8 -22
-41 -40 -71 -26 -13 6 -24 16 -25 23 0 7 -2 18 -3 23 -2 6 -3 15 -4 21 -2 23
-34 24 -77 3 -53 -25 -56 -39 -11 -39 33 0 67 -24 67 -47 0 -15 34 -43 54 -43
24 0 99 -81 86 -94 -6 -6 -17 -6 -32 2 -13 6 -52 13 -88 14 -53 3 -65 6 -68
21 -3 15 1 17 22 11 28 -7 35 6 13 24 -9 8 -87 10 -105 3 -2 0 6 -15 18 -31
25 -35 20 -60 -9 -60 -32 0 -38 27 -35 160 1 69 3 180 3 246 1 96 4 123 15
127 8 3 38 -6 68 -21 42 -22 54 -33 56 -54 3 -23 -3 -32 -32 -49 -36 -21 -48
-52 -23 -62 8 -3 20 -1 28 4 27 17 59 9 104 -26 46 -35 75 -37 75 -5 0 9 9 25
20 35 27 25 25 51 -7 81 -32 29 -22 45 31 49 41 4 113 58 122 92 3 12 21 35
40 52 39 36 43 56 14 71 -11 6 -20 21 -20 34 0 33 -43 55 -72 37 -18 -11 -23
-11 -33 3 -7 9 -10 26 -8 39 6 32 -15 47 -76 54 -40 5 -55 2 -70 -11 -18 -16
-20 -16 -34 4 -12 17 -21 20 -49 15 -19 -4 -48 -17 -64 -30 -25 -20 -27 -25
-17 -48 14 -31 -3 -50 -39 -45 -21 3 -23 8 -23 58 1 30 2 242 3 471 2 382 3
417 19 423 19 8 75 -18 112 -51 23 -21 24 -22 7 -47 -9 -14 -22 -26 -30 -26
-7 0 -21 -9 -30 -19 -24 -26 -5 -37 59 -33 41 3 54 0 69 -17 22 -24 48 -27 68
-8 7 7 25 18 41 24 33 15 34 25 2 67 -25 33 -32 55 -17 57 4 1 23 2 43 3 27 2
47 14 82 46 25 24 48 54 52 67 3 12 10 23 15 23 5 0 17 11 26 25 15 23 15 27
-2 53 -10 15 -19 29 -19 32 0 3 -6 15 -13 28 -14 25 -33 28 -61 10 -28 -17
-55 6 -40 34 9 16 6 25 -12 44 -18 19 -32 24 -75 24 -29 0 -56 -5 -59 -10 -4
-7 -14 -5 -28 5 -14 10 -33 13 -61 8 -57 -8 -78 -29 -74 -72 3 -29 -1 -37 -25
-50 -24 -14 -29 -14 -37 -1 -7 9 -9 116 -6 285 3 149 5 355 5 458 1 226 -2
221 111 162 17 -9 26 -24 28 -44 3 -26 -1 -32 -32 -45 -24 -10 -36 -22 -36
-34 0 -24 28 -36 46 -21 20 16 62 3 101 -32 40 -34 73 -39 73 -9 0 13 12 28
30 38 27 15 41 42 23 42 -5 0 -21 16 -37 36 -32 41 -25 54 29 54 22 0 45 13
80 45 28 25 50 51 50 57 1 7 15 27 33 45 l32 31 -22 45 c-28 56 -60 77 -89 58
-28 -17 -53 3 -44 37 6 25 -17 62 -40 62 -14 0 -45 32 -45 47 0 6 14 14 30 18
20 4 30 13 30 25 0 10 -13 30 -30 43 -42 36 -40 57 8 57 30 0 44 7 76 40 21
22 45 40 52 40 8 0 14 10 14 23 0 13 11 34 25 47 29 27 33 65 9 74 -9 4 -14 9
-11 13 4 3 -1 19 -10 34 -18 30 -41 37 -60 18 -16 -16 -43 -4 -43 19 0 40 32
42 455 35 223 -3 405 -10 405 -15 0 -4 -9 -8 -19 -8 -11 0 -22 -4 -26 -9 -7
-13 27 -31 59 -31 15 0 32 -10 45 -27 36 -48 41 -53 60 -53 24 0 91 -61 91
-83 0 -21 -14 -22 -31 -1 -11 13 -26 15 -81 11 -63 -5 -68 -4 -68 14 0 12 7
19 20 19 11 0 20 4 20 10 0 17 -34 27 -78 22 l-42 -4 25 -29 c30 -37 23 -57
-21 -61 -39 -3 -46 -20 -12 -28 16 -4 24 -14 26 -35 5 -43 19 -55 64 -55 31 0
39 3 35 15 -8 20 4 25 68 27 50 1 59 -1 81 -27 13 -15 24 -31 24 -34 -1 -29
-113 -101 -157 -101 -14 0 -23 -6 -23 -16 0 -13 9 -15 48 -11 26 3 59 8 75 12
21 6 27 4 27 -9 0 -19 5 -20 29 -6 13 6 24 5 37 -5 27 -20 33 -19 44 10 7 18
17 25 35 25 30 0 31 9 5 43 -11 14 -20 37 -20 51 0 14 -14 41 -31 60 -17 20
-28 40 -24 46 9 15 42 12 49 -5 3 -10 19 -15 46 -15 57 0 80 14 80 50 0 58
-19 73 -60 48 -16 -11 -23 -9 -40 9 -11 12 -28 26 -37 32 -10 5 -15 13 -11 16
4 4 20 -2 36 -14 32 -23 52 -27 52 -11 0 6 -4 10 -10 10 -5 0 -10 5 -10 10 0
6 11 10 24 10 13 0 26 7 30 15 7 19 -22 49 -38 36 -6 -5 -38 -11 -71 -13 -58
-3 -60 -2 -64 22 -4 29 -17 40 -48 40 -16 0 -23 -6 -23 -19 0 -33 -58 -43 -81
-15 -8 9 -14 30 -15 46 l-2 29 230 -3 230 -3 20 -27 c14 -20 28 -28 49 -28 28
0 30 -2 27 -32 -3 -32 -4 -33 -58 -38 -47 -4 -55 -8 -55 -25 0 -15 8 -21 30
-23 44 -5 55 -19 55 -68 0 -37 3 -44 19 -44 28 0 37 -21 17 -36 -25 -18 -16
-48 14 -52 36 -5 50 -20 50 -53 0 -17 -8 -34 -22 -44 l-23 -16 24 -20 c28 -23
39 -24 79 -3 38 18 40 30 10 61 -18 19 -21 33 -19 76 1 28 6 56 11 61 5 5 32
-2 65 -18 61 -29 97 -33 114 -13 13 16 -4 37 -30 37 -28 0 -33 20 -10 36 12 8
21 19 21 23 0 20 -39 48 -74 54 -58 9 -64 21 -30 60 16 19 37 44 46 56 10 11
29 21 43 21 18 0 25 5 25 20 0 29 30 40 109 40 61 0 72 -3 85 -22 25 -36 20
-55 -19 -68 -19 -6 -35 -16 -35 -21 0 -5 -9 -9 -20 -9 -11 0 -20 -3 -21 -7 0
-5 -2 -34 -4 -66 -4 -54 -3 -58 20 -67 14 -5 25 -16 25 -25 0 -8 8 -15 17 -15
30 0 113 -43 119 -62 7 -24 -4 -58 -21 -58 -7 0 -23 -9 -36 -19 -21 -18 -22
-21 -9 -35 12 -12 22 -13 57 -3 42 11 44 11 82 -27 43 -42 74 -45 79 -8 2 13
14 28 28 34 31 14 31 38 -1 68 -38 36 -33 57 16 65 23 4 49 15 59 24 10 9 30
24 45 35 20 13 25 24 21 41 -4 17 0 25 19 33 14 7 31 23 37 37 10 22 9 28 -11
41 -13 10 -20 22 -17 31 6 15 -29 52 -50 53 -6 0 -17 -7 -24 -15 -10 -12 -16
-13 -26 -4 -20 17 -17 47 6 59 22 12 798 14 816 2 30 -19 26 -82 -5 -82 -9 0
-33 -11 -53 -25 -36 -25 -37 -25 -31 -81 6 -59 35 -104 66 -104 9 0 18 -4 22
-9 3 -5 18 -12 34 -16 67 -14 80 -83 21 -103 -20 -8 -30 -18 -30 -31 0 -19 6
-21 58 -21 53 0 61 -3 86 -31 32 -36 69 -37 74 -1 2 13 14 28 28 34 32 15 30
36 -7 74 -37 39 -31 54 21 54 31 0 47 8 84 42 25 22 46 49 46 58 0 9 14 29 30
45 33 31 39 60 15 69 -8 3 -15 15 -15 27 0 20 -35 58 -54 59 -5 0 -18 -8 -28
-17 -17 -15 -20 -15 -28 -3 -30 47 2 65 110 65 41 -1 224 -2 406 -3 l331 -2
-5 -25 c-4 -22 -1 -25 26 -25 20 0 33 -6 36 -17 3 -10 17 -31 30 -46 21 -24
28 -27 45 -18 24 14 34 14 26 1 -3 -5 11 -27 30 -49 20 -22 34 -45 30 -51 -9
-14 -21 -13 -39 6 -13 13 -26 14 -78 6 -45 -7 -65 -6 -70 1 -5 8 -15 4 -30
-10 -15 -14 -34 -22 -52 -20 -38 3 -46 -21 -9 -25 22 -2 29 -10 36 -41 11 -47
47 -60 80 -30 28 26 100 37 129 22 25 -14 57 -49 57 -64 0 -29 -66 -79 -119
-89 -59 -12 -71 -17 -65 -27 8 -12 102 -12 110 1 12 19 45 11 45 -10 0 -24 8
-25 32 -3 17 15 19 15 36 0 25 -23 29 -22 47 13 9 18 21 27 29 24 22 -8 30 15
12 35 -9 10 -19 35 -23 54 -3 20 -16 46 -29 58 -23 22 -31 49 -17 62 4 4 19
-5 35 -20 25 -24 30 -25 52 -14 13 7 33 10 44 7 24 -8 32 3 37 48 4 44 -27 66
-56 40 -18 -16 -21 -15 -63 24 -26 24 -41 44 -34 48 5 4 14 1 18 -6 10 -17 40
-5 40 15 0 16 -5 18 -65 19 -34 1 -39 4 -37 20 5 26 -21 44 -53 38 -16 -3 -25
-11 -25 -24 0 -16 -6 -19 -42 -16 -35 2 -45 8 -55 30 -28 56 -21 58 211 58
149 0 226 -4 261 -14 28 -8 44 -15 38 -15 -24 -2 -13 -19 17 -30 24 -8 30 -16
30 -39 0 -23 -5 -31 -25 -36 -14 -4 -35 -4 -48 -1 -15 4 -28 0 -37 -10 -12
-15 -12 -19 3 -30 10 -7 27 -10 39 -7 26 6 48 -21 48 -60 0 -15 9 -36 21 -47
20 -18 20 -21 5 -42 -23 -33 -21 -36 24 -44 39 -7 40 -7 40 -50 0 -26 -6 -47
-15 -55 -22 -18 -19 -27 17 -45 29 -14 34 -14 44 0 6 8 19 15 28 15 22 0 20
26 -4 50 -15 15 -20 33 -20 74 0 72 17 87 68 61 20 -11 43 -23 50 -29 7 -5 28
-10 45 -10 27 0 32 4 35 27 3 24 0 27 -27 27 -35 0 -39 14 -14 42 16 18 15 20
-10 45 -20 21 -35 27 -62 25 -53 -4 -47 30 17 95 29 29 47 53 40 53 -7 0 -12
5 -12 10 0 14 27 12 33 -2 3 -8 13 -2 27 16 23 28 25 28 89 22 153 -15 164
-19 139 -44 -9 -9 -6 -12 16 -12 25 0 27 -2 24 -37 -3 -38 -3 -38 -53 -41 -57
-3 -74 -14 -55 -36 8 -10 21 -14 36 -10 33 8 57 -13 49 -44 -8 -34 3 -62 26
-62 23 0 25 -25 4 -46 -8 -9 -15 -20 -15 -25 0 -18 31 -21 49 -5 27 25 31 20
31 -40 0 -45 -4 -59 -22 -73 -23 -19 -18 -41 11 -41 9 0 23 -6 30 -12 10 -11
15 -10 25 5 7 9 21 17 30 17 22 0 20 27 -4 42 -16 11 -20 24 -20 74 0 70 14
91 44 68 11 -8 30 -14 42 -14 13 0 27 -7 32 -16 7 -13 13 -14 29 -6 14 8 23 8
31 0 9 -9 15 -9 24 0 19 19 -4 47 -36 45 -29 -2 -31 5 -15 41 18 40 -9 74 -63
78 -23 2 -43 9 -45 15 -3 7 19 38 48 69 42 44 58 55 77 51 17 -3 20 -1 13 6
-16 16 -13 37 3 31 8 -3 17 -1 21 5 4 8 125 11 377 11 341 0 372 -1 384 -17
21 -28 16 -52 -13 -65 -16 -7 -42 -23 -59 -35 -27 -20 -31 -29 -32 -75 -1 -44
3 -55 26 -77 15 -14 30 -25 34 -23 12 3 82 -36 107 -59 29 -27 24 -51 -16 -68
-36 -16 -48 -37 -32 -57 9 -11 15 -11 34 2 31 20 69 9 98 -27 29 -37 71 -43
75 -11 2 12 14 30 28 38 31 21 30 32 -6 71 -17 18 -30 37 -30 42 0 6 20 11 45
11 34 0 47 5 55 20 6 11 16 20 23 20 22 0 68 55 62 73 -4 10 4 23 24 38 34 25
39 50 16 69 -8 7 -15 20 -15 29 0 10 -10 27 -23 39 l-24 22 -18 -20 c-10 -11
-24 -20 -32 -20 -7 0 -13 -4 -13 -10 0 -5 -9 -10 -20 -10 -11 0 -20 -4 -20
-10 0 -5 -4 -10 -10 -10 -21 0 -9 18 20 30 33 14 36 20 18 39 -11 10 -8 16 12
33 24 20 34 20 347 16 178 -2 328 -1 335 3 26 16 -12 36 -80 42 -37 4 -1174 9
-2527 12 -1353 3 -2640 7 -2860 10 -997 11 -2581 16 -2593 7z m92 -64 c20 -28
20 -33 0 -52 -21 -22 -41 -20 -54 5 -28 52 21 94 54 47z m2008 -3 c1 -5 -11
-12 -27 -15 -34 -6 -46 -30 -16 -30 31 0 37 -27 12 -54 -11 -12 -21 -32 -21
-44 0 -12 -9 -26 -20 -32 -22 -12 -23 -9 -20 34 1 17 -2 26 -9 22 -13 -8 -45
39 -36 54 3 5 -4 14 -16 18 -21 8 -21 9 12 35 29 23 42 27 87 25 29 -2 53 -7
54 -13z m3494 -6 c9 -15 -16 -30 -38 -23 -24 7 -23 -8 2 -26 26 -19 25 -29 -5
-64 -14 -17 -24 -35 -21 -42 6 -15 -29 -48 -42 -40 -5 3 -7 19 -4 36 3 22 0
30 -11 30 -15 0 -27 20 -27 47 0 9 -7 21 -16 27 -19 14 -11 38 19 52 29 15
134 17 143 3z m584 -9 c0 -11 -27 -20 -43 -14 -8 3 -20 -3 -28 -12 -12 -15
-12 -16 6 -11 14 5 24 1 33 -14 11 -17 9 -24 -13 -50 -14 -17 -25 -38 -25 -48
0 -18 -18 -41 -33 -41 -4 0 -7 8 -6 18 3 36 -1 52 -16 52 -17 0 -39 36 -30 50
3 5 -2 13 -11 18 -21 12 -11 46 16 58 24 11 150 6 150 -6z m1060 -20 c0 -5 -4
-10 -10 -10 -5 0 -10 5 -10 10 0 6 5 10 10 10 6 0 10 -4 10 -10z m-4760 -35
c0 -8 -4 -15 -10 -15 -5 0 -10 7 -10 15 0 8 5 15 10 15 6 0 10 -7 10 -15z
m4640 -10 c0 -8 -4 -15 -10 -15 -5 0 -10 7 -10 15 0 8 5 15 10 15 6 0 10 -7
10 -15z m-6844 -7 c6 -9 -23 -37 -38 -38 -4 0 -20 11 -35 24 l-28 24 48 0 c26
-1 50 -5 53 -10z m2260 -3 c24 -18 32 -19 36 0 2 10 8 12 17 6 22 -14 5 -41
-25 -41 -27 0 -64 24 -64 42 0 12 14 10 36 -7z m1162 -7 c10 -10 15 -10 21 1
10 16 41 8 41 -11 0 -7 -10 -19 -21 -27 -20 -12 -25 -10 -53 18 -21 21 -26 31
-15 31 8 0 21 -6 27 -12z m3487 -8 c19 -7 24 -7 19 1 -4 7 1 10 12 7 10 -2 20
-11 22 -21 7 -36 -63 -34 -86 3 -14 22 -6 25 33 10z m-7004 -57 c9 -10 9 -17
1 -25 -9 -9 -17 -7 -32 7 -11 10 -20 24 -20 31 0 15 35 7 51 -13z m2317 1 c12
-4 22 -13 22 -20 0 -23 -29 -28 -50 -9 -34 31 -23 42 28 29z m1156 -4 c28 -10
36 -40 11 -40 -16 0 -55 30 -55 42 0 11 13 10 44 -2z m3504 -22 c20 -17 14
-33 -17 -44 -25 -10 -28 -9 -24 6 3 10 0 21 -6 24 -6 4 -11 14 -11 22 0 16 33
11 58 -8z m-5035 -43 c1 -5 -6 -11 -15 -13 -11 -2 -18 3 -18 13 0 17 30 18 33
0z m-1713 -7 c0 -16 -30 -48 -46 -48 -23 0 -25 19 -4 40 22 22 50 27 50 8z
m5210 -14 c0 -33 -33 -30 -38 4 -3 17 2 22 17 22 16 0 21 -6 21 -26z m567 10
c3 -8 0 -21 -6 -27 -10 -9 -16 -8 -27 7 -8 11 -14 23 -14 28 0 15 41 8 47 -8z
m-3452 -5 c9 -14 -23 -49 -45 -49 -28 0 -31 12 -8 37 23 25 43 29 53 12z
m1150 1 c8 -14 -13 -50 -30 -50 -23 0 -28 20 -9 41 19 21 30 24 39 9z m-3585
-25 c0 -8 -7 -15 -15 -15 -16 0 -20 12 -8 23 11 12 23 8 23 -8z m1011 -8 c-13
-13 -26 -3 -16 12 3 6 11 8 17 5 6 -4 6 -10 -1 -17z m6064 12 c4 -5 -3 -19
-16 -30 -25 -22 -22 -21 -44 -13 -14 6 -13 9 6 30 24 26 44 30 54 13z m-7291
-14 c3 -8 16 -15 30 -15 15 0 33 -11 45 -27 19 -23 20 -29 8 -47 -8 -12 -26
-27 -41 -34 -17 -8 -26 -20 -24 -30 3 -14 14 -16 59 -14 51 3 58 1 78 -24 11
-15 21 -33 21 -40 0 -17 -26 -19 -35 -3 -11 16 -87 0 -113 -24 -17 -16 -21
-28 -17 -47 7 -31 -23 -64 -49 -54 -14 5 -16 27 -16 174 0 93 3 175 6 184 8
20 40 21 48 1z m4716 1 c0 -16 -18 -31 -27 -22 -8 8 5 36 17 36 5 0 10 -6 10
-14z m60 4 c0 -5 -4 -10 -10 -10 -5 0 -10 5 -10 10 0 6 5 10 10 10 6 0 10 -4
10 -10z m2408 -22 c-6 -18 -28 -21 -28 -4 0 9 7 16 16 16 9 0 14 -5 12 -12z
m-6991 -361 c10 -11 -18 -37 -40 -37 -20 0 -57 26 -57 40 0 8 88 5 97 -3z
m-96 -77 c23 -13 24 -26 3 -34 -17 -6 -54 19 -54 36 0 11 27 10 51 -2z m222
-77 c11 -10 -24 -43 -45 -43 -22 0 -23 8 -1 32 17 19 35 23 46 11z m-263 -973
c0 -5 -4 -10 -9 -10 -6 0 -13 5 -16 10 -3 6 1 10 9 10 9 0 16 -4 16 -10z m60
-25 c7 -8 19 -15 27 -15 9 0 13 6 9 15 -3 8 -1 15 5 15 19 0 22 -33 4 -46 -15
-11 -22 -11 -46 3 -16 10 -29 23 -29 30 0 17 15 16 30 -2z m-45 -67 c29 -13
34 -38 7 -38 -26 0 -56 25 -48 38 9 15 9 15 41 0z m240 -89 c8 -11 -22 -38
-42 -39 -16 0 -17 22 -1 38 15 15 35 15 43 1z m-200 -1019 c23 -26 35 -25 28
1 -5 17 -2 20 13 17 27 -5 28 -31 3 -46 -18 -12 -25 -10 -55 10 -19 13 -34 26
-34 31 0 14 27 7 45 -13z m-37 -72 c17 -17 15 -38 -5 -38 -18 0 -53 28 -53 42
0 12 44 10 58 -4z m220 -90 c-2 -15 -11 -24 -25 -26 -25 -4 -31 16 -11 36 20
20 40 14 36 -10z m-188 -588 c0 -5 -4 -10 -10 -10 -5 0 -10 5 -10 10 0 6 5 10
10 10 6 0 10 -4 10 -10z m-70 -595 c0 -8 -4 -15 -10 -15 -5 0 -10 7 -10 15 0
8 5 15 10 15 6 0 10 -7 10 -15z m-20 -3305 c0 -5 -4 -10 -10 -10 -5 0 -10 5
-10 10 0 6 5 10 10 10 6 0 10 -4 10 -10z m118 -46 c-4 -25 -33 -29 -63 -10
-34 22 -31 37 4 30 17 -4 32 -1 36 6 10 17 28 -3 23 -26z m-94 -63 c14 -16 15
-20 2 -30 -12 -10 -19 -8 -35 8 -12 12 -21 26 -21 31 0 17 36 11 54 -9z m221
-71 c9 -15 -14 -40 -36 -40 -23 0 -24 8 -2 32 18 20 29 23 38 8z m-105 -40 c0
-5 -4 -10 -10 -10 -5 0 -10 5 -10 10 0 6 5 10 10 10 6 0 10 -4 10 -10z"/>
<path d="M5707 8774 c-4 -4 -7 -16 -7 -26 0 -14 6 -19 23 -16 14 2 22 10 22
23 0 20 -25 32 -38 19z"/>
<path d="M5260 8715 c0 -3 11 -18 25 -32 23 -25 25 -26 43 -10 10 9 26 17 36
17 10 0 16 6 14 13 -5 12 -118 24 -118 12z"/>
<path d="M5680 8707 c0 -19 16 -31 24 -18 3 5 -1 14 -9 21 -12 10 -15 10 -15
-3z"/>
<path d="M8678 8543 c0 -98 -2 -322 -3 -498 -5 -742 -16 -1881 -20 -2020 -3
-82 -5 -163 -5 -178 0 -25 -2 -27 -21 -17 -11 6 -18 17 -16 23 3 7 -7 24 -21
39 l-25 27 -26 -20 c-24 -19 -26 -19 -38 -3 -7 10 -13 30 -13 45 0 36 -23 53
-78 56 -32 3 -48 -1 -56 -12 -10 -15 -14 -14 -34 3 l-22 19 27 5 c16 3 56 4
90 2 44 -2 65 1 73 12 14 16 46 19 55 4 4 -6 -5 -10 -19 -10 -14 0 -26 -4 -26
-10 0 -5 9 -10 19 -10 11 0 23 5 26 10 3 6 16 10 29 10 15 0 28 10 37 28 8 15
17 29 20 32 3 3 9 22 13 42 6 32 3 40 -21 62 -15 14 -35 26 -43 26 -10 0 -6
-9 13 -26 46 -42 16 -98 -59 -110 -24 -3 -47 -10 -50 -15 -3 -5 -50 -9 -105
-9 -98 0 -106 3 -100 34 1 6 -3 20 -9 32 -9 16 -9 27 -1 42 6 11 11 33 11 47
0 15 13 44 30 65 27 34 28 40 17 69 -11 31 -30 40 -42 21 -10 -16 -25 -11 -25
8 0 18 34 62 48 62 5 0 17 -7 28 -15 25 -19 58 -19 74 0 7 8 28 15 46 15 38 0
44 14 14 30 -13 7 -20 21 -20 40 0 44 -31 70 -83 70 -53 0 -77 -22 -77 -70 0
-23 -10 -44 -36 -72 -28 -31 -34 -45 -30 -64 6 -22 5 -24 -13 -15 -30 17 -76
13 -94 -7 -22 -24 -21 -34 4 -67 l22 -27 -22 -40 c-30 -56 -28 -111 4 -132 13
-9 34 -16 46 -16 19 0 20 -2 8 -17 -10 -11 -10 -17 -3 -20 6 -2 20 -10 30 -18
18 -14 18 -15 -5 -34 -16 -12 -22 -24 -18 -36 11 -26 -3 -65 -23 -65 -10 0
-23 -7 -30 -15 -7 -8 -21 -15 -32 -15 -16 0 -18 -6 -17 -38 2 -21 -1 -43 -5
-50 -11 -17 3 -52 20 -52 8 0 17 -7 20 -15 4 -8 14 -15 23 -15 9 0 25 -7 35
-15 11 -8 27 -15 36 -15 9 0 27 -11 40 -25 20 -21 22 -28 12 -50 -7 -14 -20
-25 -31 -25 -23 0 -44 -24 -39 -46 2 -10 16 -25 32 -34 36 -19 45 -40 19 -40
-27 0 -67 -45 -59 -65 3 -9 3 -28 0 -41 -5 -18 -11 -23 -25 -19 -12 4 -23 -1
-31 -14 -7 -12 -21 -21 -30 -21 -10 0 -18 -6 -18 -12 -1 -7 -3 -34 -5 -60 -4
-44 -2 -49 28 -70 17 -12 38 -23 45 -24 8 -2 22 -10 32 -19 10 -10 25 -15 32
-13 18 6 50 -38 46 -64 -2 -13 -15 -28 -29 -35 -43 -21 -55 -41 -37 -59 12
-13 20 -14 36 -5 34 18 58 13 103 -24 43 -37 76 -42 71 -13 -1 9 11 27 28 39
34 26 39 46 13 56 -39 15 -57 66 -27 77 9 3 28 6 42 6 30 0 128 83 117 99 -3
6 9 26 26 45 22 25 29 41 24 56 -3 11 -11 20 -16 20 -6 0 -8 8 -5 18 4 12 -3
27 -18 41 -23 22 -25 22 -51 5 -23 -15 -28 -15 -36 -3 -5 8 -8 23 -7 34 4 36
-21 67 -47 61 -18 -5 -24 -1 -29 17 -9 34 -8 37 19 47 34 13 32 44 -6 81 -39
38 -33 54 18 54 31 0 50 8 86 38 31 26 47 46 47 62 0 15 7 25 21 28 12 3 18
10 15 15 -3 5 4 12 15 15 l21 6 -3 -617 c-3 -670 -6 -780 -22 -744 -15 33 -34
25 -28 -12 6 -31 -66 -90 -96 -79 -6 2 -14 -1 -18 -6 -3 -6 -21 -11 -38 -11
l-32 0 33 26 c30 24 32 29 32 90 0 51 4 68 20 84 22 22 26 45 10 55 -6 4 -4
12 5 21 18 19 10 60 -18 89 l-20 20 7 -25 c4 -14 8 -47 9 -75 1 -38 -2 -50
-13 -50 -10 0 -16 12 -18 38 -4 50 -41 45 -70 -10 -10 -19 -9 -20 8 -16 12 3
21 0 24 -8 36 -132 29 -155 -28 -94 -23 25 -46 45 -52 45 -5 0 -20 -21 -32
-46 -24 -50 -45 -54 -50 -9 -3 19 6 41 27 70 34 48 38 72 16 101 -14 18 -16
18 -26 2 -12 -21 -39 -24 -39 -4 0 7 11 25 25 40 l25 27 30 -23 31 -22 42 21
c23 12 50 24 61 28 17 5 18 7 2 23 -9 10 -16 33 -16 51 0 48 -24 66 -84 64
-57 -3 -76 -19 -76 -66 0 -20 -12 -43 -36 -69 -22 -25 -34 -47 -32 -61 3 -20
-1 -22 -50 -22 -36 0 -56 -5 -62 -15 -14 -21 -12 -36 5 -50 20 -16 19 -35 -5
-98 -11 -29 -20 -57 -20 -62 0 -20 63 -81 78 -75 33 13 56 -61 26 -86 -11 -9
-14 -22 -10 -42 7 -33 -7 -57 -33 -57 -9 0 -29 -12 -44 -26 -22 -19 -28 -30
-23 -49 3 -13 2 -27 -4 -30 -30 -18 22 -105 63 -105 10 0 25 -7 33 -15 9 -8
23 -15 32 -15 9 0 27 -8 40 -18 20 -15 22 -22 13 -45 -6 -15 -17 -27 -24 -27
-19 0 -47 -33 -47 -54 0 -16 6 -17 50 -11 47 7 52 5 80 -25 17 -18 30 -38 30
-45 0 -24 -18 -26 -39 -4 -14 15 -25 19 -38 14 -10 -5 -24 -7 -31 -6 -8 1 -24
-5 -38 -14 -19 -12 -24 -24 -24 -60 0 -25 -4 -45 -10 -45 -21 0 -26 -2 -45
-19 -11 -10 -28 -21 -38 -24 -12 -4 -17 -16 -15 -34 1 -16 -2 -38 -6 -51 -6
-18 -2 -30 21 -52 15 -16 38 -30 49 -30 12 0 27 -7 35 -16 8 -10 21 -13 36 -9
14 3 23 1 23 -6 0 -7 8 -17 17 -24 24 -18 7 -69 -24 -73 -27 -4 -47 -27 -39
-47 6 -17 41 -20 51 -5 10 17 58 -1 98 -37 31 -28 41 -32 53 -22 8 6 14 17 14
24 0 8 11 22 25 33 14 11 25 23 25 26 0 3 -13 25 -30 47 -16 23 -27 45 -24 50
3 5 25 9 50 9 24 0 44 4 44 9 0 5 16 19 35 31 19 12 38 32 41 45 3 12 19 35
35 51 32 30 38 68 13 78 -10 4 -14 13 -10 22 3 9 -5 25 -20 39 l-26 25 -29
-21 c-26 -18 -30 -19 -35 -5 -4 9 -4 26 -1 38 7 25 -17 58 -43 58 -43 0 -53
49 -15 74 32 21 31 28 -5 69 -16 19 -30 43 -30 52 0 15 7 17 38 13 35 -5 41
-2 80 41 110 121 124 140 117 161 -3 11 -11 20 -16 20 -5 0 -9 8 -9 17 0 9
-12 29 -26 45 l-27 27 -25 -19 c-31 -25 -46 -16 -39 24 5 34 -24 83 -43 71 -5
-3 -15 -3 -22 1 -21 13 -68 8 -81 -8 -11 -14 -15 -12 -41 13 l-28 29 93 -4
c52 -2 110 -7 129 -11 29 -5 40 -2 62 18 15 14 36 28 47 32 11 3 24 18 30 33
11 32 13 -1626 1 -1673 -4 -16 -8 -25 -9 -18 0 7 -10 17 -21 23 -19 10 -21 8
-19 -12 5 -54 0 -68 -25 -68 -14 0 -28 -4 -31 -10 -3 -5 -17 -10 -30 -10 -13
0 -27 -5 -30 -10 -3 -6 -16 -10 -27 -10 -21 0 -21 1 5 28 23 24 27 37 27 89 0
44 5 67 19 84 12 16 17 34 14 51 -3 14 0 29 6 32 6 4 11 15 11 24 -1 19 -59
86 -84 95 -10 4 -16 18 -16 41 0 37 -21 65 -48 67 -68 5 -97 -14 -106 -69 -3
-24 -17 -49 -36 -67 -21 -21 -30 -38 -30 -62 0 -32 -12 -43 -25 -24 -9 16 -63
9 -85 -11 -21 -20 -17 -41 14 -68 21 -17 20 -25 -9 -68 -14 -20 -25 -48 -25
-62 0 -36 48 -81 78 -73 17 4 21 2 17 -9 -3 -8 1 -21 10 -28 19 -16 19 -34 -1
-55 -10 -10 -14 -26 -11 -43 7 -34 -8 -62 -33 -62 -10 0 -23 -8 -29 -17 -5
-10 -18 -18 -28 -18 -14 0 -18 -8 -18 -35 0 -30 -3 -35 -23 -35 -13 0 -27 -7
-31 -14 -11 -17 -37 -8 -80 29 -35 30 -36 60 -1 38 24 -15 38 -3 23 20 -7 11
-24 17 -49 17 -28 0 -39 4 -39 15 -1 27 -16 40 -44 40 -20 0 -30 -6 -34 -20
-3 -13 -11 -18 -20 -14 -8 3 -17 -2 -20 -10 -4 -9 -11 -16 -16 -16 -15 0 -41
54 -41 84 0 24 -3 26 -41 24 -27 -1 -45 -8 -54 -21 -8 -12 -18 -16 -27 -11 -8
4 -10 3 -5 -2 5 -5 25 -9 44 -9 31 0 38 -5 56 -38 22 -42 53 -65 69 -49 14 14
38 4 38 -15 0 -8 9 -26 20 -40 11 -14 20 -32 20 -39 0 -19 -27 -17 -38 2 -6
10 -14 14 -22 9 -7 -4 -35 -8 -64 -8 -43 0 -51 3 -51 19 0 11 7 19 15 19 8 0
15 7 15 15 0 18 -62 26 -84 11 -12 -8 -12 -13 0 -33 8 -12 13 -31 11 -41 -3
-16 -10 -18 -38 -12 -44 8 -47 -16 -4 -32 25 -9 30 -17 30 -45 0 -32 2 -34 37
-36 27 -2 42 2 53 16 8 11 34 22 57 26 39 6 46 3 79 -28 25 -24 34 -40 30 -52
-7 -22 -73 -66 -128 -85 -21 -7 -38 -19 -38 -26 0 -19 70 -17 98 3 24 16 42
12 42 -12 0 -17 5 -18 30 -2 15 10 22 9 39 -6 19 -17 20 -17 33 11 9 19 22 29
41 31 34 4 34 12 2 42 -20 18 -24 30 -20 51 5 21 -1 33 -24 57 -37 36 -38 48
-9 79 l23 24 11 -33 c12 -35 11 -34 91 -25 12 1 28 8 35 14 18 19 36 16 43 -8
5 -13 12 -18 22 -14 9 3 24 -2 34 -11 10 -9 27 -14 39 -11 12 3 20 0 20 -8 0
-7 7 -18 15 -25 28 -23 18 -59 -20 -77 -20 -10 -35 -24 -35 -34 0 -26 11 -29
59 -16 43 12 43 12 73 -26 22 -27 37 -37 59 -37 26 0 29 3 23 24 -5 20 0 25
25 34 39 14 39 32 1 70 -44 44 -40 62 13 62 38 0 48 5 91 50 26 27 45 54 42
59 -7 11 40 62 48 54 3 -3 8 2 12 11 4 11 -2 26 -15 40 -12 13 -19 29 -16 37
3 9 -6 21 -24 32 -25 15 -34 16 -50 5 -17 -11 -23 -10 -38 5 -14 14 -15 21 -6
36 17 28 -23 63 -68 60 -19 -2 -41 1 -48 5 -8 5 -14 1 -18 -13 -5 -20 -6 -20
-34 -4 -33 19 -35 49 -4 46 27 -4 62 -5 114 -3 27 1 50 -5 61 -15 17 -16 21
-15 52 7 18 12 35 27 37 31 2 5 14 12 27 18 14 5 29 19 34 31 11 29 12 22 10
-87 -1 -49 -1 -101 -1 -115 2 -75 1 -466 -2 -592 -2 -100 -7 -152 -15 -160 -9
-9 -12 -8 -12 5 0 21 -16 22 -24 2 -3 -8 -12 -15 -19 -15 -18 0 -77 65 -77 85
0 24 16 18 45 -16 14 -17 29 -28 33 -24 4 4 -3 15 -14 24 -12 10 -24 26 -26
37 -4 22 -37 32 -48 14 -14 -22 -39 -3 -42 32 -3 29 -6 33 -35 35 -31 1 -32
-1 -35 -40 -3 -39 -4 -40 -21 -23 -10 10 -24 15 -34 12 -20 -8 -47 28 -47 64
-1 14 -7 25 -13 24 -7 -1 -26 -2 -43 -3 -37 -1 -41 -27 -6 -41 13 -5 30 -23
37 -40 10 -21 20 -30 34 -29 32 3 53 -10 77 -49 12 -21 29 -42 37 -48 8 -6 11
-16 7 -22 -9 -15 -39 -15 -53 -1 -14 14 -71 20 -78 10 -4 -8 -65 -2 -65 6 0
14 22 43 30 38 5 -3 11 -1 14 4 8 13 -13 25 -46 27 -30 2 -42 -22 -26 -50 8
-14 4 -24 -17 -46 -17 -18 -23 -30 -16 -34 6 -4 11 -20 11 -37 0 -27 3 -29 35
-29 20 0 49 7 66 15 16 9 34 13 39 10 5 -3 11 -1 15 5 12 19 42 10 81 -24 38
-34 39 -35 24 -63 -10 -19 -39 -40 -88 -63 -39 -19 -72 -38 -72 -42 0 -13 79
-9 101 5 17 10 22 9 34 -6 11 -16 17 -17 36 -6 17 9 24 9 27 0 6 -17 42 -13
42 5 0 8 14 20 30 25 35 13 36 16 10 49 -11 14 -20 38 -20 54 0 15 -11 41 -25
58 -26 31 -33 58 -15 58 6 0 15 10 19 23 9 21 10 20 25 -15 16 -37 38 -49 51
-28 4 6 15 8 26 5 14 -5 18 -2 17 12 -2 10 2 20 7 23 7 3 11 -247 12 -739 2
-484 6 -748 13 -755 6 -6 13 -6 19 0 14 14 20 475 26 1949 3 748 8 1468 10
1600 9 521 15 1098 21 2180 4 622 9 1501 13 1955 3 454 4 843 1 865 -3 27 -10
41 -22 43 -17 3 -18 -11 -20 -175z m-270 -2054 c25 -40 -39 -70 -75 -34 -21
21 -10 43 24 48 15 2 30 5 33 6 3 0 11 -8 18 -20z m-128 -198 c0 -6 -4 -13
-10 -16 -5 -3 -10 1 -10 9 0 9 5 16 10 16 6 0 10 -4 10 -9z m-88 -134 c22 -21
48 -60 48 -72 0 -9 -25 -5 -53 8 -28 12 -44 46 -33 72 7 20 11 19 38 -8z m48
-272 c0 -8 -4 -15 -9 -15 -13 0 -22 16 -14 24 11 11 23 6 23 -9z m85 -35 c4 0
4 4 0 9 -3 5 0 13 6 16 16 10 41 -18 33 -38 -9 -25 -62 -22 -84 5 -24 30 -15
43 16 24 13 -9 26 -16 29 -16z m159 6 c-10 -8 -21 -12 -23 -10 -3 2 4 11 15
18 10 8 21 12 23 10 3 -2 -4 -11 -15 -18z m-210 -86 c5 -5 6 -16 3 -24 -9 -23
-51 -5 -55 24 -3 19 0 21 20 15 13 -4 27 -11 32 -15z m213 -76 c3 -9 -3 -23
-15 -34 -18 -17 -22 -17 -33 -4 -9 11 -8 18 6 34 22 24 34 25 42 4z m-105 -29
c0 -5 -5 -11 -11 -13 -6 -2 -11 4 -11 13 0 9 5 15 11 13 6 -2 11 -8 11 -13z
m-2 -161 c0 -8 -4 -12 -10 -9 -5 3 -10 10 -10 16 0 5 5 9 10 9 6 0 10 -7 10
-16z m-53 -46 c14 -13 23 -33 23 -52 l0 -31 -36 37 c-24 23 -35 42 -31 52 8
21 16 20 44 -6z m-87 -142 c0 -2 -7 -9 -15 -16 -12 -10 -15 -10 -15 4 0 9 7
16 15 16 8 0 15 -2 15 -4z m46 -31 c20 -19 34 -19 34 1 0 9 7 14 18 12 11 -2
17 -12 17 -28 0 -20 -6 -26 -28 -28 -30 -4 -67 21 -67 45 0 17 8 17 26 -2z
m-31 -81 c28 -19 31 -29 11 -37 -15 -6 -66 28 -66 44 0 14 28 11 55 -7z m245
-83 c-27 -38 -51 -52 -70 -41 -12 7 -10 14 10 35 14 15 30 23 41 20 10 -3 19
1 23 11 4 9 9 14 12 11 4 -3 -4 -20 -16 -36z m-120 -31 c0 -5 -4 -10 -10 -10
-5 0 -10 5 -10 10 0 6 5 10 10 10 6 0 10 -4 10 -10z m15 -350 c13 -42 -37 -66
-69 -34 -22 21 -20 33 7 44 36 14 55 11 62 -10z m-135 -195 c0 -8 -4 -15 -10
-15 -5 0 -10 7 -10 15 0 8 5 15 10 15 6 0 10 -7 10 -15z m-90 -125 c20 -11 64
-80 55 -88 -3 -3 -22 3 -43 14 -29 16 -38 26 -40 52 -4 35 0 37 28 22z m100
-36 c0 -12 7 -14 28 -9 22 4 38 -1 70 -25 24 -17 40 -34 38 -39 -3 -5 -35 -8
-71 -7 -47 1 -70 6 -82 19 -16 16 -16 17 0 17 21 0 23 26 2 34 -8 3 -15 10
-15 16 0 5 7 10 15 10 8 0 15 -7 15 -16z m18 -276 c8 -8 15 -8 27 2 21 17 51
-5 34 -26 -22 -27 -99 -5 -99 28 0 12 24 10 38 -4z m-45 -78 c15 -12 24 -27
20 -35 -9 -24 -37 -17 -50 12 -23 49 -13 56 30 23z m233 -85 c7 -17 -18 -45
-40 -45 -21 0 -20 19 1 42 20 22 32 23 39 3z m-106 -40 c-7 -8 -16 -12 -21 -9
-13 8 -1 24 18 24 13 0 13 -3 3 -15z m-84 -387 c22 -18 27 -19 21 -6 -9 24 12
34 30 15 41 -41 -31 -65 -74 -25 -42 40 -24 53 23 16z m-48 -73 c32 -16 35
-45 5 -45 -17 0 -53 41 -46 52 6 10 5 10 41 -7z m238 -87 c8 -13 -33 -51 -49
-45 -18 6 -19 24 -2 41 19 19 41 21 51 4z m-115 -41 c-13 -13 -26 -3 -16 12 3
6 11 8 17 5 6 -4 6 -10 -1 -17z m-7 -142 c3 -8 1 -15 -4 -15 -6 0 -10 7 -10
15 0 8 2 15 4 15 2 0 6 -7 10 -15z m25 -177 c5 -13 5 -31 -1 -40 -16 -32 -78
-17 -78 19 0 10 38 34 68 42 1 1 6 -9 11 -21z m75 -69 c24 -11 25 -16 24 -80
0 -38 -3 -69 -6 -69 -12 0 -31 38 -32 63 0 34 -22 36 -44 2 -15 -22 -15 -25 0
-33 16 -9 33 -73 37 -137 1 -21 -3 -30 -13 -30 -9 0 -14 7 -12 18 2 9 -2 17
-8 17 -6 0 -13 8 -17 18 -9 25 -34 52 -49 52 -7 0 -23 -20 -35 -45 -12 -25
-26 -45 -31 -45 -4 0 -8 -9 -8 -21 0 -12 -5 -19 -12 -16 -7 2 -12 10 -11 18 9
58 23 101 40 125 25 36 29 52 19 82 -8 23 -30 29 -42 11 -4 -7 -10 -7 -16 -1
-11 11 2 41 27 62 13 11 19 10 39 -9 17 -16 30 -20 50 -15 14 3 26 9 26 14 0
5 28 23 47 29 1 1 13 -4 27 -10z m-199 -128 c3 -5 1 -12 -5 -16 -5 -3 -10 1
-10 9 0 18 6 21 15 7z m-83 -148 c15 -15 28 -32 28 -39 0 -21 31 -25 66 -8 28
14 39 14 63 4 39 -16 67 -46 49 -52 -23 -8 -108 -1 -122 11 -7 6 -27 8 -45 5
-19 -4 -31 -2 -31 4 0 6 -12 17 -27 24 -28 13 -39 38 -29 64 8 20 16 18 48
-13z m33 -280 c-9 -8 -19 -13 -22 -9 -9 8 18 37 28 30 5 -3 2 -12 -6 -21z m72
-18 c20 -14 23 -14 32 2 7 14 12 15 22 6 20 -19 3 -43 -31 -43 -31 0 -60 19
-60 39 0 15 12 14 37 -4z m-48 -66 c33 -12 40 -29 16 -49 -18 -15 -31 -7 -50
31 -17 32 -13 34 34 18z m235 -85 c8 -21 9 -18 -13 -43 -19 -22 -41 -21 -41 0
0 12 32 58 41 59 4 0 10 -7 13 -16z m-264 -26 c0 -16 -3 -19 -11 -11 -6 6 -8
16 -5 22 11 17 16 13 16 -11z m-560 -2 c0 -17 -14 -29 -23 -20 -8 8 3 34 14
34 5 0 9 -6 9 -14z m56 -13 c-10 -10 -19 5 -10 18 6 11 8 11 12 0 2 -7 1 -15
-2 -18z m664 -3 c0 -21 -15 -27 -25 -10 -7 12 2 30 16 30 5 0 9 -9 9 -20z
m-140 -575 c0 -14 -4 -25 -10 -25 -5 0 -10 11 -10 25 0 14 5 25 10 25 6 0 10
-11 10 -25z m52 3 c-9 -9 -15 -9 -24 0 -9 9 -7 12 12 12 19 0 21 -3 12 -12z"/>
<path d="M8325 2810 c-8 -12 20 -24 35 -15 6 3 8 11 5 16 -8 12 -32 12 -40 -1z"/>
<path d="M4743 8314 c-15 -17 -22 -36 -20 -57 1 -23 -3 -34 -19 -42 -12 -6
-28 -16 -35 -22 -8 -6 -23 -12 -34 -14 -16 -4 -19 -13 -21 -68 -2 -54 0 -64
16 -68 10 -3 21 -11 24 -19 3 -8 14 -14 24 -14 11 0 25 -7 32 -15 7 -8 20 -15
29 -15 9 0 27 -9 40 -19 19 -14 22 -24 17 -45 -4 -15 -14 -30 -24 -33 -29 -10
-51 -34 -45 -50 5 -11 16 -13 55 -8 47 7 52 5 83 -25 39 -38 82 -39 78 -3 -2
15 4 23 19 25 11 2 26 11 32 21 9 14 5 23 -26 50 -47 42 -38 67 24 67 36 0 47
6 80 41 21 22 38 46 38 53 0 7 16 27 36 44 35 31 36 33 20 57 -9 13 -16 30
-16 38 0 16 -41 57 -57 57 -6 0 -16 -7 -23 -15 -7 -8 -16 -15 -20 -15 -9 0
-30 46 -30 68 0 9 -4 23 -9 30 -10 17 -110 22 -133 8 -13 -8 -21 -7 -30 2 -22
22 -81 14 -105 -14z m112 -134 c3 0 5 7 5 15 0 19 14 19 30 0 28 -33 -37 -50
-72 -18 -27 24 -22 38 7 19 13 -9 27 -16 30 -16z m-60 -62 c28 -13 32 -26 10
-34 -18 -7 -45 12 -45 32 0 17 2 17 35 2z m230 -79 c4 -5 -1 -19 -11 -30 -19
-21 -23 -22 -43 -10 -10 7 -10 12 5 30 20 23 39 27 49 10z m-104 -32 c-1 -12
-15 -9 -19 4 -3 6 1 10 8 8 6 -3 11 -8 11 -12z"/>
<path d="M1878 7771 c-47 -10 -70 -38 -63 -71 6 -26 3 -32 -24 -48 -17 -9 -31
-20 -31 -25 0 -4 -12 -12 -26 -17 -23 -9 -26 -15 -21 -40 4 -16 2 -32 -3 -35
-20 -12 -9 -41 24 -67 20 -16 41 -25 50 -22 9 3 16 1 16 -5 0 -7 20 -20 44
-31 24 -10 47 -23 51 -30 12 -19 -4 -58 -28 -66 -33 -10 -56 -34 -50 -51 4
-11 16 -13 54 -8 44 6 52 4 86 -24 44 -36 83 -41 83 -11 0 11 11 27 25 36 14
9 25 21 25 28 0 6 -11 23 -25 38 -14 15 -25 36 -25 48 0 17 6 20 40 20 35 0
48 7 91 49 29 28 47 54 44 62 -3 8 4 18 17 24 13 6 28 21 35 35 11 22 10 27
-7 42 -11 9 -20 26 -20 37 0 30 -43 56 -70 41 -27 -14 -50 2 -43 31 3 11 -2
28 -13 41 -17 18 -27 20 -91 15 -40 -3 -75 -1 -78 4 -7 10 -25 10 -67 0z m-14
-122 c-3 -5 -10 -7 -15 -3 -5 3 -7 10 -3 15 3 5 10 7 15 3 5 -3 7 -10 3 -15z
m61 -19 c3 -5 -1 -10 -9 -10 -9 0 -16 5 -16 10 0 6 4 10 9 10 6 0 13 -4 16
-10z m75 -8 c0 -14 -23 -32 -42 -32 -17 0 -17 1 -1 20 17 20 43 27 43 12z
m-105 -72 c4 -6 4 -18 1 -26 -5 -13 -9 -13 -31 2 -14 9 -25 20 -25 25 0 13 47
11 55 -1z m235 -79 c0 -15 -30 -41 -46 -41 -17 0 -19 36 -1 43 21 9 47 7 47
-2z m-110 -37 c0 -9 -5 -14 -12 -12 -18 6 -21 28 -4 28 9 0 16 -7 16 -16z"/>
<path d="M2884 7772 c-8 -5 -14 -183 -19 -608 -6 -528 -5 -602 8 -607 8 -3
280 -7 605 -8 464 -2 594 0 606 10 11 9 14 28 12 69 -3 48 0 60 17 73 32 26
12 39 -58 39 -72 0 -87 -12 -55 -42 14 -13 20 -29 18 -46 l-3 -27 -534 -3
c-421 -2 -537 1 -543 10 -9 13 -2 1053 7 1068 6 9 1058 5 1074 -4 13 -8 14
-111 4 -414 -6 -194 -8 -212 -25 -218 -10 -3 -18 -14 -18 -25 0 -17 8 -19 75
-19 59 0 75 3 75 15 0 7 -7 18 -17 23 -14 9 -16 43 -14 355 2 274 -1 347 -11
353 -16 10 -1189 16 -1204 6z"/>
<path d="M5193 7759 c-8 -8 -10 -32 -6 -74 3 -34 2 -182 -2 -329 -7 -247 -9
-269 -25 -273 -24 -6 -35 -34 -18 -45 7 -4 43 -8 81 -8 65 0 67 1 67 25 0 16
-6 25 -15 25 -13 0 -15 38 -13 308 l3 307 827 3 828 2 6 -24 c3 -13 4 -146 2
-296 l-3 -271 -25 -19 c-36 -27 -15 -45 58 -48 44 -2 63 2 73 14 11 14 10 18
-11 34 l-25 19 3 325 4 326 -589 0 c-323 1 -727 3 -898 6 -236 4 -313 2 -322
-7z"/>
<path d="M8296 7753 c-4 -5 -19 -8 -33 -8 -16 0 -33 -10 -45 -26 -17 -22 -17
-29 -7 -53 7 -15 18 -25 26 -22 7 3 13 -1 13 -9 0 -18 -12 -19 -28 -3 -10 10
-14 10 -21 0 -4 -7 -15 -10 -24 -7 -10 4 -21 -2 -32 -19 -10 -14 -25 -26 -34
-26 -14 0 -17 -9 -17 -53 1 -43 6 -60 28 -86 15 -18 32 -30 37 -27 5 4 23 -2
40 -11 28 -16 33 -16 41 -3 8 13 10 13 10 -1 0 -9 7 -22 15 -29 29 -24 6 -90
-32 -90 -6 0 -16 -7 -23 -16 -18 -21 13 -55 32 -36 39 39 118 -12 118 -75 0
-20 -4 -32 -10 -28 -5 3 -10 12 -10 20 0 21 -31 35 -52 24 -10 -6 -22 -8 -27
-5 -5 3 -21 -4 -36 -16 -21 -17 -26 -27 -22 -52 4 -32 -11 -56 -36 -56 -8 0
-20 -7 -28 -16 -7 -8 -24 -21 -38 -29 -21 -11 -30 -11 -44 0 -9 7 -17 19 -17
27 0 8 -11 25 -24 37 -23 21 -26 22 -49 7 -22 -15 -25 -15 -37 0 -11 13 -11
19 -1 36 11 17 9 23 -8 42 -17 18 -33 23 -79 23 -31 0 -60 -5 -64 -10 -4 -8
-13 -6 -25 6 -27 23 -84 12 -118 -23 -23 -24 -25 -31 -15 -50 13 -24 -1 -50
-26 -50 -7 0 -30 -11 -50 -25 -34 -23 -38 -30 -40 -75 -2 -45 0 -51 31 -74 19
-14 40 -26 48 -26 8 0 20 -7 27 -15 7 -8 18 -15 25 -15 6 0 24 -11 40 -24 35
-30 27 -62 -21 -82 -22 -9 -34 -21 -34 -33 0 -22 21 -33 41 -20 28 17 62 9
101 -27 43 -39 74 -42 71 -6 -2 16 4 25 22 32 42 16 42 38 0 76 -45 40 -39 55
23 56 38 0 52 8 88 50 6 7 21 21 33 31 12 10 19 21 16 26 -8 13 47 71 67 71
19 0 24 -15 8 -25 -17 -10 -12 -55 6 -55 9 0 18 -9 21 -20 3 -12 14 -20 26
-20 11 0 31 -10 44 -21 18 -18 25 -20 38 -9 12 10 15 10 15 -3 0 -9 9 -21 21
-27 32 -17 21 -52 -24 -74 -29 -14 -37 -23 -35 -40 3 -21 6 -22 70 -9 21 4 35
-3 72 -37 38 -35 48 -40 61 -30 8 7 15 21 15 31 0 11 11 24 25 31 33 15 32 33
-4 68 -15 16 -31 38 -33 48 -5 17 -1 19 39 14 49 -5 77 12 87 54 4 13 13 24
21 24 8 0 21 13 30 30 8 16 27 37 40 46 31 20 33 54 4 61 -12 3 -18 11 -15 19
3 8 -6 26 -19 41 l-25 28 -20 -24 c-17 -20 -23 -21 -36 -10 -10 8 -14 23 -11
43 6 43 -9 69 -37 62 -17 -4 -24 1 -35 26 -12 26 -12 32 0 39 8 4 23 14 34 23
20 14 19 15 -12 48 -27 27 -43 65 -30 69 1 0 22 2 45 5 34 4 53 14 85 46 23
23 42 47 42 55 0 7 15 29 34 48 34 35 37 65 5 65 -12 0 -15 7 -12 25 4 17 -2
31 -19 46 l-23 23 -21 -23 c-20 -21 -22 -21 -40 -5 -12 10 -18 29 -17 50 1 19
-2 37 -5 41 -12 11 -121 11 -135 0 -9 -7 -18 -5 -30 7 -21 18 -25 19 -36 9z
m23 -145 c11 -10 14 -10 18 0 6 17 32 15 39 -3 8 -19 -13 -45 -34 -45 -17 0
-62 38 -62 52 0 12 24 10 39 -4z m-36 -80 c30 -14 32 -41 4 -46 -20 -4 -57 32
-57 56 0 14 4 14 53 -10z m218 -81 c-1 -4 -1 -13 -1 -21 0 -20 -30 -29 -47
-14 -13 11 -12 15 7 30 22 18 42 20 41 5z m-103 -34 c-4 -22 -22 -20 -26 1 -2
10 3 16 13 16 10 0 15 -7 13 -17z m-736 -379 c-7 -12 -11 -13 -17 -4 -4 7 -2
16 6 21 18 11 23 4 11 -17z m588 22 c0 -2 -3 -11 -6 -20 -9 -23 -24 -20 -24 4
0 11 7 20 15 20 8 0 15 -2 15 -4z m-492 -29 c5 8 13 7 26 -3 19 -14 19 -14 1
-28 -28 -20 -85 -1 -85 30 0 11 5 11 26 2 18 -9 27 -9 32 -1z m613 -14 c21
-21 -35 -40 -66 -23 -14 7 -25 19 -25 25 0 15 75 14 91 -2z m-685 -59 c35 -17
41 -36 13 -42 -17 -3 -59 30 -59 47 0 15 6 14 46 -5z m583 -5 c35 -12 39 -24
12 -38 -14 -8 -23 -5 -40 13 -35 37 -27 44 28 25z m-349 -81 c0 -16 -31 -48
-47 -48 -19 0 -16 37 5 49 23 14 42 14 42 -1z m580 -4 c0 -8 -6 -22 -14 -30
-17 -16 -46 -19 -46 -4 0 6 6 19 12 30 15 24 48 27 48 4z m-682 -32 c2 -7 -3
-12 -12 -12 -9 0 -16 7 -16 16 0 17 22 14 28 -4z m580 0 c2 -7 -3 -12 -12 -12
-9 0 -16 7 -16 16 0 17 22 14 28 -4z"/>
<path d="M1865 7153 c-35 -7 -75 -25 -75 -35 0 -9 8 -13 53 -23 20 -4 31 -15
39 -36 11 -31 34 -49 65 -49 10 0 33 -19 52 -41 34 -41 35 -62 1 -41 -11 7
-49 12 -85 12 -37 0 -65 4 -65 10 0 6 9 10 21 10 14 0 19 5 17 18 -2 12 -16
18 -51 23 -56 6 -83 -12 -47 -31 30 -16 23 -55 -10 -55 -28 0 -50 -11 -50 -26
0 -5 11 -9 24 -9 28 0 43 -16 48 -49 4 -31 53 -38 83 -12 13 11 38 18 68 19
43 1 52 -2 78 -30 35 -39 35 -42 4 -70 -22 -19 -48 -32 -143 -69 -13 -5 -20
-14 -17 -19 8 -13 92 -13 100 0 8 14 55 13 55 -1 0 -8 11 -9 31 -5 18 3 38 1
45 -5 9 -8 17 -4 29 15 10 14 26 26 36 26 25 0 24 21 -1 43 -13 11 -20 29 -20
51 0 23 -9 45 -27 66 -21 26 -24 33 -12 40 9 6 21 2 36 -12 21 -20 26 -20 65
-8 24 7 49 14 56 16 17 5 15 59 -3 74 -12 10 -19 10 -27 2 -19 -19 -43 -14
-72 15 -34 34 -26 42 14 13 35 -25 52 -20 27 8 -24 27 -21 32 13 26 26 -6 30
-3 30 14 0 29 -17 36 -43 19 -15 -9 -30 -12 -45 -6 -12 5 -33 4 -47 -1 -25
-10 -42 1 -30 20 3 5 1 19 -5 30 -16 29 -64 24 -68 -7 -3 -19 -10 -23 -42 -23
-39 0 -63 21 -59 53 4 35 -9 47 -46 40z m5 -288 c0 -8 -4 -15 -9 -15 -13 0
-22 16 -14 24 11 11 23 6 23 -9z"/>
<path d="M6014 7002 c-25 -16 -34 -49 -22 -80 10 -26 9 -34 -5 -50 -9 -10 -17
-25 -17 -33 0 -51 79 -85 125 -55 34 22 41 58 19 95 -14 24 -16 33 -6 43 19
19 14 55 -10 72 -24 17 -65 21 -84 8z m64 -56 c-4 -26 -37 -28 -52 -3 -9 15
-7 21 8 32 24 18 48 2 44 -29z m-5 -80 c21 -16 22 -39 2 -56 -34 -28 -81 23
-49 55 19 18 24 18 47 1z"/>
<path d="M4223 6970 c-13 -5 -23 -13 -23 -17 0 -5 10 -13 23 -18 19 -9 22 -17
22 -73 0 -50 -4 -66 -18 -73 -32 -18 -17 -29 38 -29 52 0 72 11 40 23 -11 5
-15 29 -17 99 -3 85 -5 93 -23 95 -11 1 -30 -2 -42 -7z"/>
<path d="M6887 6773 c-14 -14 -6 -45 13 -50 20 -5 20 -14 20 -354 0 -191 -4
-350 -8 -353 -4 -3 -143 -6 -307 -7 l-299 -2 -21 27 c-35 44 -55 30 -55 -40 0
-40 20 -53 53 -36 16 8 109 10 327 4 l305 -7 0 -150 c0 -466 -18 -1531 -26
-1536 -6 -3 -143 -4 -307 -2 l-297 3 -18 25 c-30 40 -47 22 -47 -51 0 -56 2
-64 19 -64 10 0 21 9 24 20 5 20 12 20 319 18 l313 -3 1 -793 c1 -436 -1 -817
-5 -845 -7 -60 -32 -75 -61 -36 -11 14 -23 20 -34 16 -24 -9 -23 -115 1 -124
11 -4 22 1 31 15 15 22 46 29 56 13 14 -22 1 -1100 -13 -1114 -9 -9 -1657 -11
-1673 -1 -17 11 -7 55 17 76 30 26 32 38 4 38 -11 0 -29 5 -41 11 -11 6 -31 8
-44 5 -27 -7 -32 -33 -9 -42 15 -6 20 -49 9 -78 -6 -14 -63 -16 -550 -16
l-544 0 0 32 c0 19 9 41 22 55 27 29 18 39 -48 47 -40 5 -54 3 -64 -9 -11 -13
-9 -19 8 -38 20 -22 25 -37 23 -70 -1 -16 -32 -17 -553 -15 l-553 3 -3 29 c-3
22 3 34 25 52 25 20 26 24 13 37 -20 19 -109 11 -117 -11 -4 -8 1 -20 11 -28
12 -8 16 -23 14 -46 l-3 -33 -520 -3 c-286 -1 -530 0 -542 3 -35 8 -32 67 3
84 16 7 24 18 22 29 -3 14 -16 18 -71 20 -76 3 -95 -12 -61 -49 15 -17 18 -33
16 -79 -2 -32 0 -60 5 -63 5 -3 1196 -8 2646 -11 2115 -5 2638 -4 2642 6 2 7
7 683 10 1503 3 820 6 1528 8 1575 1 47 4 454 5 905 1 451 5 963 9 1137 6 297
7 318 25 323 22 8 24 41 2 49 -21 8 -119 8 -127 -1z"/>
<path d="M5140 6741 c0 -11 9 -23 20 -26 21 -7 21 -10 18 -618 -2 -405 -7
-618 -14 -630 -9 -16 -78 -17 -1310 -19 -714 -1 -1492 0 -1728 1 -236 1 -430
1 -431 -1 -2 -3 -8 -428 -21 -1453 -2 -181 -4 -745 -4 -1251 l0 -922 -26 -17
c-21 -13 -23 -19 -13 -31 19 -23 143 -15 147 9 2 11 -5 20 -19 26 l-23 8 3
319 c2 193 7 324 13 331 7 9 82 12 282 13 l272 0 22 -25 c34 -39 52 -24 52 46
0 69 -20 89 -51 51 -15 -19 -27 -22 -91 -22 -41 0 -77 3 -81 6 -3 4 7 20 23
36 51 51 39 119 -31 169 -47 33 -61 9 -15 -26 27 -20 36 -35 36 -56 0 -25 -7
-32 -42 -48 -24 -11 -52 -23 -63 -27 -28 -10 -227 -6 -234 4 -3 5 -21 12 -40
15 -46 9 -59 22 -53 52 6 34 16 32 48 -10 30 -40 40 -42 83 -18 29 17 31 17
63 -7 36 -26 87 -32 112 -11 11 10 16 31 16 74 0 41 6 69 19 91 17 27 26 89
22 146 -1 8 -19 28 -41 44 -29 22 -40 37 -40 56 0 42 -34 70 -84 70 -51 0 -74
-21 -83 -73 -3 -20 -16 -46 -29 -58 -16 -15 -24 -34 -24 -57 0 -31 -2 -34 -22
-28 -13 3 -26 6 -30 6 -5 0 -8 52 -8 115 0 98 3 117 16 122 9 3 25 1 36 -6 12
-8 24 -9 31 -3 7 5 58 13 115 17 87 6 107 4 128 -10 23 -15 28 -15 59 -1 18 9
47 29 64 45 57 54 37 130 -43 161 -41 15 -42 7 -1 -24 41 -32 45 -63 11 -93
-22 -19 -39 -25 -118 -39 l-33 -5 32 28 c29 26 32 33 31 86 0 41 4 63 16 76
11 12 19 43 22 86 4 61 2 71 -18 93 -13 13 -33 28 -45 33 -16 6 -23 17 -23 34
0 52 -16 65 -78 65 -66 0 -82 -11 -82 -56 0 -22 -10 -42 -30 -64 -18 -20 -30
-43 -30 -60 0 -31 -23 -46 -39 -27 -11 14 -17 224 -6 235 11 11 266 11 303 0
43 -13 94 4 132 45 42 44 42 102 1 146 -16 17 -38 31 -50 31 -30 0 -26 -16 9
-37 26 -15 30 -23 28 -53 -3 -32 -7 -36 -48 -48 -25 -7 -53 -17 -62 -23 -22
-11 -48 -12 -48 -1 0 5 11 14 25 20 23 11 25 17 25 79 0 59 3 70 27 95 21 22
24 30 14 42 -9 11 -10 20 -2 35 19 35 12 66 -22 99 -18 18 -38 32 -45 32 -18
0 -26 48 -12 65 11 13 46 15 224 13 l211 -3 -1 -38 c-1 -28 -10 -47 -33 -71
-17 -17 -31 -42 -31 -54 0 -23 -5 -25 -55 -22 -59 3 -87 -49 -48 -88 18 -18
16 -36 -7 -74 -31 -51 -26 -84 20 -134 22 -24 40 -48 40 -54 0 -5 -20 -10 -45
-10 -25 0 -45 -4 -45 -10 0 -12 -7 -12 180 -12 258 0 258 0 277 22 10 11 25
20 33 20 9 0 26 14 38 30 13 17 30 30 38 30 13 0 15 -11 10 -62 -3 -35 -5 -75
-5 -89 -1 -18 -8 -28 -22 -32 -13 -4 -20 -12 -17 -24 5 -26 115 -32 125 -7 4
11 -2 22 -15 33 -21 15 -22 23 -22 230 1 212 8 267 33 242 6 -6 23 -11 38 -11
35 0 42 -11 41 -66 -1 -37 2 -44 18 -44 26 0 33 -15 19 -38 -17 -27 -5 -50 27
-54 41 -5 54 -50 25 -89 -28 -37 -27 -44 9 -59 26 -11 33 -10 49 4 9 9 20 14
23 11 3 -3 11 2 18 10 11 13 9 20 -13 43 -22 23 -27 38 -27 78 0 28 6 59 14
69 14 19 15 19 33 2 11 -9 26 -17 33 -17 7 0 21 -7 31 -16 12 -11 27 -13 54
-8 29 5 36 10 33 28 -2 15 -9 20 -26 18 -29 -4 -39 23 -17 48 16 18 16 20 -1
43 -14 18 -27 23 -58 23 -29 -1 -41 3 -44 15 -4 22 75 116 104 123 13 4 24 13
24 21 0 22 -138 21 -166 0 -18 -15 -18 -16 5 -13 37 5 50 -26 23 -55 -12 -13
-22 -28 -22 -35 0 -21 -23 -63 -33 -59 -6 2 -12 14 -14 27 -2 13 -10 31 -17
39 -13 15 -46 86 -46 100 0 4 12 13 28 22 22 12 65 14 232 13 113 -2 208 -3
213 -3 4 -1 7 -10 7 -21 0 -14 10 -22 33 -28 28 -7 32 -12 32 -43 0 -34 -1
-34 -50 -39 -42 -4 -50 -8 -50 -25 0 -14 8 -21 27 -23 36 -4 59 -37 51 -73 -4
-22 0 -30 18 -39 33 -17 32 -16 18 -38 -18 -29 -5 -52 31 -52 29 0 30 -2 30
-44 0 -26 -6 -48 -15 -56 -42 -35 15 -72 72 -45 36 17 43 44 18 65 -10 9 -15
32 -15 76 0 63 12 86 33 65 6 -6 20 -11 32 -11 11 0 29 -7 39 -15 25 -19 57
-19 81 -1 16 12 17 16 6 29 -7 9 -18 14 -26 11 -21 -8 -29 15 -14 42 11 22 10
27 -9 47 -15 15 -35 22 -60 22 -50 0 -53 23 -8 73 20 22 36 44 36 50 0 6 14
13 30 17 17 4 30 13 30 21 0 10 -15 14 -59 14 -33 0 -67 -3 -76 -6 -14 -6 -14
-8 1 -25 14 -16 15 -24 6 -44 -6 -14 -16 -25 -22 -25 -5 0 -10 -8 -10 -18 0
-23 -26 -59 -35 -50 -4 4 -8 18 -9 32 0 17 -7 26 -18 26 -12 0 -19 11 -24 35
-3 19 -10 38 -15 41 -18 11 -8 34 19 47 21 11 74 13 240 9 l213 -4 9 -24 c7
-17 17 -24 35 -24 18 0 28 -7 35 -26 15 -38 -3 -54 -60 -54 -31 0 -50 -5 -53
-14 -6 -16 11 -36 33 -36 28 -1 47 -24 47 -59 0 -24 7 -39 23 -51 22 -17 23
-21 11 -43 -17 -32 -8 -47 30 -47 28 0 29 -2 29 -44 0 -26 -6 -48 -15 -56 -22
-18 -18 -33 14 -52 28 -15 31 -15 66 9 36 25 36 25 19 51 -27 40 -35 101 -19
139 16 37 18 38 37 21 34 -32 85 -49 119 -41 37 10 46 36 14 41 -31 6 -37 17
-24 46 11 23 10 29 -7 46 -10 10 -35 20 -54 22 -29 4 -35 9 -37 29 -4 32 50
90 91 98 22 5 31 12 31 26 0 18 -8 20 -78 23 -50 2 -84 -1 -93 -9 -20 -16 -17
-31 5 -24 10 3 24 -1 31 -10 11 -13 10 -21 -8 -45 -12 -16 -22 -37 -22 -48 0
-18 -18 -42 -32 -42 -4 0 -8 13 -8 29 0 17 -5 33 -10 36 -6 4 -22 25 -36 47
-24 37 -24 41 -10 63 l16 24 224 0 225 1 13 -28 c10 -19 21 -26 36 -25 29 3
47 -29 32 -58 -7 -12 -17 -18 -27 -15 -8 3 -20 3 -26 -1 -7 -4 -20 -7 -31 -8
-27 0 -46 -33 -26 -45 8 -6 24 -8 34 -6 24 6 45 -20 46 -54 0 -30 9 -44 33
-53 21 -8 22 -21 2 -37 -27 -22 -18 -48 18 -52 29 -3 32 -6 35 -40 2 -22 -3
-47 -13 -62 -15 -23 -15 -25 7 -40 28 -20 54 -20 62 -1 3 8 12 12 19 9 26 -10
27 25 2 55 -18 21 -25 41 -25 72 0 84 21 112 48 68 8 -13 19 -18 31 -14 10 3
24 -1 31 -10 15 -18 71 -20 87 -4 17 17 4 39 -22 39 -32 0 -41 17 -20 40 16
17 15 20 -5 48 -20 27 -26 29 -63 24 -40 -5 -40 -5 -33 23 9 35 59 95 97 115
49 26 23 41 -67 38 -62 -2 -79 -6 -79 -18 0 -9 11 -16 28 -18 32 -4 35 -24 7
-52 -11 -11 -20 -31 -20 -43 0 -25 -32 -62 -43 -51 -4 4 -4 17 -1 29 4 16 -1
27 -15 37 -12 8 -24 29 -27 46 -4 18 -13 32 -20 32 -20 0 -17 16 8 40 21 19
32 20 248 18 192 -3 225 -5 226 -18 2 -38 5 -41 31 -38 21 2 28 -2 33 -23 11
-39 -2 -51 -54 -51 -25 0 -48 -3 -51 -8 -11 -17 8 -40 32 -40 33 0 52 -26 53
-68 0 -26 5 -35 21 -39 17 -5 20 -11 15 -32 -13 -53 -12 -56 19 -56 26 0 30
-5 38 -38 8 -33 6 -43 -13 -69 -18 -25 -20 -32 -9 -39 26 -17 63 -23 67 -11 2
7 12 12 23 12 23 0 24 18 4 56 -19 36 -20 124 -2 149 13 17 14 17 28 -2 22
-31 130 -51 150 -27 15 18 3 34 -25 34 -32 0 -37 9 -20 36 14 21 14 25 -6 52
-19 25 -27 28 -61 25 -58 -6 -51 18 41 125 35 41 32 43 -60 47 -43 2 -65 -9
-54 -27 3 -4 14 -8 25 -8 25 0 25 -31 -1 -55 -11 -10 -20 -28 -20 -40 0 -20
-27 -55 -43 -55 -4 0 -4 14 0 31 5 26 2 35 -17 49 -13 10 -24 27 -25 39 -1 11
-9 27 -19 34 -18 13 -18 15 4 35 21 20 34 21 180 21 123 0 161 -3 170 -14 8
-9 10 -95 8 -303 -3 -267 -4 -292 -22 -311 -29 -31 -14 -51 38 -51 75 0 99 23
56 53 -20 14 -20 23 -18 318 3 304 3 304 25 307 14 2 26 -4 33 -17 13 -25 35
-27 44 -5 10 27 7 112 -5 120 -7 4 -20 -3 -29 -17 l-18 -23 -307 2 c-169 1
-312 5 -317 8 -6 4 -8 134 -7 326 3 279 5 321 18 326 20 7 31 23 25 34 -3 4
-32 8 -65 8 -51 0 -59 -2 -59 -19 0 -10 7 -21 15 -25 13 -5 15 -48 13 -328
l-3 -323 -550 0 -550 0 -3 33 c-3 27 1 35 18 39 14 4 20 12 18 27 -2 17 -11
22 -42 24 -80 7 -107 -16 -66 -53 13 -12 20 -29 18 -44 l-3 -26 -544 -3 c-428
-2 -546 1 -552 10 -5 7 -6 159 -4 337 4 279 6 326 20 333 22 13 19 49 -5 55
-19 5 -19 6 5 25 19 15 25 29 25 58 0 42 -19 62 -71 74 -28 6 -42 27 -33 50 8
20 41 26 55 10 12 -15 49 -19 49 -6 0 4 -7 18 -16 30 -36 52 -135 10 -128 -54
3 -32 36 -64 65 -64 28 0 50 -38 36 -61 -15 -24 -29 -24 -52 1 -10 11 -24 20
-32 20 -20 0 -15 -38 7 -52 11 -7 20 -16 20 -20 0 -4 -9 -10 -20 -13 -26 -8
-26 -45 0 -52 20 -5 20 -12 18 -342 l-3 -336 -529 -3 c-363 -1 -533 1 -540 8
-14 14 -9 1069 4 1085 10 12 907 20 1013 9 61 -6 75 -24 36 -45 -19 -10 -20
-13 -6 -26 14 -14 36 -17 105 -14 29 1 30 37 1 44 -12 3 -19 12 -17 19 4 11
109 13 554 13 l549 0 2 -309 1 -309 -25 -23 c-40 -37 -25 -54 47 -54 51 0 60
3 60 18 0 9 -9 23 -21 30 -20 13 -21 16 -13 310 3 163 11 307 15 320 l9 22
542 -2 543 -3 3 -26 c2 -20 -2 -28 -17 -32 -27 -7 -28 -44 -1 -52 11 -3 40 -3
65 1 36 5 45 10 45 26 0 11 -8 22 -20 25 -14 4 -20 14 -20 33 0 16 4 30 10 32
6 2 10 114 10 290 1 158 5 290 10 293 10 6 245 10 442 7 138 -2 147 -3 153
-23 4 -12 14 -19 23 -17 14 3 17 15 17 63 0 50 -3 60 -18 63 -12 3 -20 -4 -24
-17 -5 -21 -10 -21 -299 -21 l-294 0 0 344 c0 341 0 344 22 358 36 24 13 38
-63 38 -62 0 -69 -2 -69 -19z m-3278 -2528 c3 -38 -3 -56 -32 -91 -17 -20 -30
-47 -30 -59 0 -28 -36 -32 -43 -5 -7 27 -8 133 -2 153 9 27 104 28 107 2z
m968 -3 c8 -14 11 -360 3 -360 -10 0 -49 24 -58 36 -13 16 -55 28 -55 15 0 -5
13 -18 30 -27 37 -22 44 -39 28 -71 -15 -28 -43 -45 -106 -64 -52 -15 -62 -8
-28 22 23 20 26 30 26 84 0 48 5 68 21 89 13 17 19 36 16 52 -2 13 0 27 4 30
5 3 9 19 9 36 0 25 -10 41 -45 74 -47 44 -57 76 -27 93 27 15 172 8 182 -9z
m126 -7 c-11 -11 16 -33 39 -33 26 0 39 -33 24 -62 -7 -13 -21 -18 -54 -18
-24 0 -47 -5 -50 -10 -15 -24 -25 6 -25 70 0 57 3 69 18 73 19 4 57 -11 48
-20z m-977 -26 c16 -20 -9 -50 -39 -45 -31 4 -50 35 -30 48 22 14 56 12 69 -3z
m601 -7 c6 -10 4 -20 -7 -32 -22 -24 -39 -23 -58 4 -14 21 -14 24 0 34 21 15
54 12 65 -6z m-676 -75 c8 -8 28 -15 44 -15 16 0 35 7 42 15 15 18 61 20 78 3
20 -20 13 -98 -9 -98 -5 0 -9 11 -9 24 0 34 -20 43 -39 19 -29 -35 -64 -52
-88 -42 -13 4 -23 15 -23 22 0 25 -26 39 -40 22 -12 -14 -30 -12 -30 4 0 12
40 61 50 61 5 0 15 -7 24 -15z m764 3 c20 -20 12 -135 -9 -122 -5 3 -9 18 -9
34 0 40 -17 46 -48 17 -25 -23 -47 -31 -79 -28 -6 0 -16 14 -21 31 -8 21 -16
28 -26 24 -9 -3 -16 -10 -16 -15 0 -5 -4 -9 -10 -9 -15 0 -12 32 5 54 13 18
19 19 48 8 45 -16 72 -15 87 3 15 18 61 20 78 3z m-593 -117 c3 -5 1 -12 -5
-16 -5 -3 -10 1 -10 9 0 18 6 21 15 7z m1155 -6 c0 -8 -7 -15 -15 -15 -8 0
-15 7 -15 15 0 8 7 15 15 15 8 0 15 -7 15 -15z m580 0 c0 -8 -7 -15 -15 -15
-8 0 -15 7 -15 15 0 8 7 15 15 15 8 0 15 -7 15 -15z m580 1 c0 -8 -4 -17 -9
-21 -12 -7 -24 12 -16 25 9 15 25 12 25 -4z m587 -2 c5 -15 -28 -27 -40 -15
-5 5 -6 14 -2 21 8 13 37 9 42 -6z m578 6 c7 -12 -12 -40 -26 -40 -5 0 -9 11
-9 25 0 25 23 35 35 15z m-3542 -32 c3 -18 9 -45 12 -60 10 -39 -11 -36 -51 7
-17 19 -37 35 -43 35 -10 0 -42 -44 -55 -75 -8 -19 -25 20 -19 45 10 44 41 69
78 63 19 -3 35 -1 39 6 14 22 34 11 39 -21z m447 22 c0 -5 -4 -10 -10 -10 -5
0 -10 5 -10 10 0 6 5 10 10 10 6 0 10 -4 10 -10z m149 -12 c41 -110 32 -130
-28 -69 -22 22 -45 41 -51 41 -6 0 -19 -18 -28 -40 -21 -48 -42 -53 -42 -8 0
46 34 78 82 78 21 0 38 5 38 10 0 19 20 10 29 -12z m-219 -148 c39 -49 32 -62
-18 -35 -27 15 -38 28 -40 48 -5 40 20 34 58 -13z m-608 13 c17 -20 33 -63 23
-63 -20 0 -55 36 -55 56 0 28 11 31 32 7z m78 -7 c0 -11 -19 -15 -25 -6 -3 5
1 10 9 10 9 0 16 -2 16 -4z m102 -46 l33 -29 -77 -1 c-84 0 -100 12 -55 43 34
24 63 20 99 -13z m595 4 c18 -14 33 -30 33 -35 0 -10 -101 -11 -127 -1 -20 7
-15 28 10 45 31 22 45 21 84 -9z m83 -84 c0 -5 -7 -10 -15 -10 -8 0 -15 5 -15
10 0 6 7 10 15 10 8 0 15 -4 15 -10z m-664 -105 c8 -19 -13 -45 -36 -45 -23 0
-44 26 -36 45 3 9 18 15 36 15 18 0 33 -6 36 -15z m92 -97 c12 -32 12 -39 -2
-59 -17 -24 -16 -25 -32 29 -5 18 -45 -4 -51 -28 -3 -10 -16 -20 -30 -23 -26
-5 -47 10 -69 49 -10 16 -13 17 -28 5 -14 -12 -16 -11 -16 12 0 41 24 53 66
31 35 -19 35 -19 72 3 51 31 73 26 90 -19z m-53 -142 c21 -80 1 -101 -37 -41
-26 40 -66 48 -75 15 -3 -11 -9 -20 -13 -20 -4 0 -10 -9 -13 -21 -7 -27 -27
-15 -27 17 0 20 15 54 37 84 2 2 19 3 38 2 18 -1 37 2 40 8 15 24 38 3 50 -44z
m-223 -120 c15 -34 30 -38 77 -19 39 15 42 15 76 -8 56 -38 51 -42 -62 -43
-38 -1 -63 3 -63 9 0 6 -15 15 -32 20 -26 8 -34 16 -36 38 -4 35 24 37 40 3z
m182 -223 c16 -40 -54 -60 -75 -22 -12 23 -5 35 26 41 27 6 42 0 49 -19z m85
-66 c14 -17 11 -129 -3 -124 -6 2 -12 20 -14 40 -4 45 -19 47 -57 7 -39 -41
-78 -41 -95 0 -10 25 -17 29 -36 24 -30 -8 -32 15 -4 41 19 18 21 17 54 0 33
-18 34 -18 67 3 39 25 72 28 88 9z m-45 -165 c11 -88 11 -105 0 -109 -6 -2
-14 4 -18 14 -16 46 -53 93 -72 93 -7 0 -21 -17 -31 -37 -18 -40 -32 -55 -45
-47 -15 9 -8 51 12 77 11 14 20 30 20 35 0 19 19 23 39 10 17 -10 23 -10 37 4
28 28 51 11 58 -40z m-41 -239 c-13 -2 -33 -2 -45 0 -13 2 -3 4 22 4 25 0 35
-2 23 -4z"/>
<path d="M1293 6621 c-35 -7 -74 -49 -71 -78 3 -42 -2 -53 -27 -53 -13 0 -28
-6 -32 -12 -4 -7 -17 -18 -27 -24 -30 -16 -29 -108 1 -134 13 -11 23 -24 23
-30 0 -5 9 -10 20 -10 22 0 87 -34 113 -59 24 -24 8 -60 -36 -81 -51 -24 -42
-45 20 -45 44 0 57 -5 90 -33 43 -37 76 -39 81 -4 2 13 14 28 28 34 29 13 31
42 6 60 -17 12 -42 49 -42 62 0 3 21 8 47 12 38 6 56 16 90 51 24 24 43 50 43
58 0 8 14 24 30 37 32 23 39 58 16 77 -8 7 -17 23 -20 36 -9 36 -40 49 -69 30
-21 -13 -26 -14 -36 -1 -9 11 -9 20 -2 34 8 16 6 26 -11 47 -21 27 -24 27 -95
22 -40 -3 -75 -1 -78 4 -7 10 -13 10 -62 0z m107 -163 c0 -18 -4 -19 -37 -13
-21 3 -44 12 -51 20 -12 10 -5 13 37 13 44 0 51 -3 51 -20z m-105 -60 c29 -13
34 -38 7 -38 -21 0 -42 18 -42 37 0 16 2 16 35 1z m231 -83 c8 -20 -13 -45
-37 -45 -23 0 -24 9 -3 38 18 26 32 28 40 7z"/>
<path d="M8504 6405 c-3 -8 -4 -20 -1 -27 2 -7 0 -26 -4 -42 -6 -19 -5 -34 2
-43 9 -10 8 -13 -4 -13 -16 0 -33 52 -22 70 14 22 -26 21 -45 -1 -23 -28 -25
-45 -6 -52 7 -3 17 -23 20 -44 17 -97 18 -113 7 -113 -6 0 -11 5 -11 11 0 21
-62 89 -80 89 -12 0 -25 -15 -37 -40 -10 -22 -24 -40 -30 -40 -7 0 -13 -9 -13
-21 0 -15 6 -20 23 -18 32 4 64 -9 92 -37 30 -30 44 -30 74 2 24 25 26 34 30
161 1 12 9 24 21 28 16 5 18 9 7 25 -9 15 -9 22 1 32 17 17 15 75 -3 82 -9 3
-18 -1 -21 -9z"/>
<path d="M8353 6303 c-24 -9 -13 -23 17 -23 32 0 40 14 14 24 -9 3 -16 6 -17
5 -1 0 -8 -3 -14 -6z"/>
<path d="M7623 5974 c-18 -20 -21 -30 -12 -45 11 -22 -8 -49 -36 -49 -8 0 -18
-7 -22 -16 -3 -8 -17 -20 -30 -25 -20 -7 -24 -14 -19 -33 3 -14 2 -36 -4 -50
-8 -22 -5 -30 20 -56 16 -16 38 -30 48 -30 11 0 25 -7 32 -15 18 -22 40 -18
40 8 1 16 7 8 25 -28 22 -45 23 -52 9 -72 -8 -13 -20 -23 -28 -23 -20 0 -46
-34 -37 -48 6 -9 22 -11 57 -7 45 6 52 4 84 -24 42 -37 85 -43 77 -10 -5 17 1
24 24 32 37 14 37 36 -1 72 -16 16 -30 37 -30 47 0 15 8 18 46 18 37 0 50 5
66 25 11 14 25 25 32 25 19 0 49 37 41 50 -3 6 7 23 24 37 37 32 42 72 10 80
-12 3 -18 11 -15 19 8 20 -3 43 -25 55 -14 7 -26 5 -44 -7 -30 -19 -37 -15
-39 23 -3 55 -22 73 -76 73 -36 0 -52 -5 -59 -17 -9 -17 -10 -17 -28 0 -31 27
-103 23 -130 -9z m37 -89 c0 -8 -4 -15 -10 -15 -5 0 -10 7 -10 15 0 8 5 15 10
15 6 0 10 -7 10 -15z m118 -22 c14 -26 4 -43 -26 -43 -25 0 -62 25 -62 42 0
14 22 9 43 -9 18 -16 20 -16 14 -1 -11 30 16 39 31 11z m-103 -75 c31 -14 34
-48 4 -48 -27 0 -51 24 -43 44 7 19 7 19 39 4z m230 -88 c9 -15 -14 -40 -36
-40 -23 0 -24 8 -2 32 18 20 29 23 38 8z m-101 -41 c-3 -5 -10 -7 -15 -3 -5 3
-7 10 -3 15 3 5 10 7 15 3 5 -3 7 -10 3 -15z"/>
<path d="M6018 5869 c-11 -6 -18 -22 -18 -39 0 -33 11 -38 30 -15 15 18 60 20
60 3 0 -6 -12 -40 -26 -75 -26 -67 -28 -98 -5 -98 16 0 77 196 68 220 -7 18
-81 21 -109 4z"/>
<path d="M7634 5389 c-3 -6 -15 -8 -26 -6 -12 4 -18 1 -15 -6 2 -7 13 -13 25
-15 12 -2 22 -10 22 -18 0 -10 6 -13 19 -9 14 4 20 -1 25 -21 12 -47 0 -64
-49 -64 -52 0 -75 -8 -75 -25 0 -17 26 -26 55 -19 28 7 45 -18 45 -69 0 -26 5
-36 20 -40 21 -5 27 -31 10 -42 -5 -3 -10 -17 -10 -31 0 -21 4 -24 20 -19 12
4 27 1 35 -5 19 -16 12 -75 -11 -101 -16 -17 -15 -19 19 -35 33 -16 37 -16 52
0 9 9 20 14 25 11 22 -14 19 20 -4 44 -23 24 -25 32 -20 81 3 30 7 65 10 78
l4 22 42 -21 c23 -12 48 -28 56 -35 7 -8 31 -14 53 -14 35 0 39 3 39 25 0 21
-5 25 -28 25 -38 0 -45 9 -27 37 13 19 13 26 3 43 -27 42 -73 34 -64 -11 5
-25 2 -29 -17 -29 -13 0 -28 5 -35 12 -9 9 -12 9 -12 -2 0 -7 -2 -11 -5 -8
-13 12 8 38 26 33 13 -4 19 -1 19 9 0 9 -4 16 -10 16 -20 0 -9 47 16 71 14 13
30 34 35 47 5 12 17 25 26 28 52 16 64 36 31 51 -20 9 -37 9 -79 4 -4 -1 -14
-13 -24 -27 -13 -20 -14 -28 -4 -40 10 -12 7 -20 -14 -42 -14 -15 -29 -39 -32
-54 -4 -16 -11 -28 -16 -28 -5 0 -12 -1 -16 -2 -3 -2 -7 6 -8 18 -1 11 -11 35
-23 52 -12 17 -19 37 -16 46 3 9 1 23 -6 32 -10 11 -10 18 -2 26 7 7 12 18 12
25 0 16 -86 18 -96 2z"/>
<path d="M7817 5363 c-12 -11 -8 -23 8 -23 8 0 15 7 15 15 0 16 -12 20 -23 8z"/>
<path d="M1035 5316 c-22 -16 -14 -46 13 -46 31 0 46 25 27 44 -20 19 -17 19
-40 2z"/>
<path d="M1857 5284 c-26 -14 -27 -16 -12 -37 21 -29 20 -130 0 -147 -21 -18
-2 -30 48 -30 37 0 48 15 27 36 -5 5 -10 49 -12 98 -2 49 -7 91 -13 92 -5 2
-22 -4 -38 -12z"/>
<path d="M1980 5268 c-11 -18 -20 -42 -21 -53 -6 -105 34 -159 106 -141 47 12
70 99 43 163 -20 47 -39 63 -75 63 -27 0 -37 -6 -53 -32z m88 -33 c17 -36 15
-86 -4 -113 -23 -33 -42 -27 -55 18 -24 80 28 163 59 95z"/>
<path d="M1028 4719 c-23 -13 -12 -39 17 -39 26 0 42 29 23 42 -16 10 -19 10
-40 -3z"/>
<path d="M1863 4558 c-26 -13 -30 -33 -8 -42 11 -4 15 -22 15 -69 0 -45 -5
-68 -15 -77 -26 -22 -16 -30 35 -30 52 0 61 8 34 30 -12 11 -15 32 -13 104 2
98 -3 106 -48 84z"/>
<path d="M2012 4548 c-9 -9 -8 -16 5 -30 24 -26 24 -124 1 -145 -28 -26 -21
-33 30 -33 58 0 68 7 46 31 -12 13 -17 40 -18 92 -1 40 -6 78 -10 85 -9 15
-38 16 -54 0z"/>
<path d="M8340 4550 c0 -5 4 -10 9 -10 6 0 13 5 16 10 3 6 -1 10 -9 10 -9 0
-16 -4 -16 -10z"/>
<path d="M8520 4495 c0 -11 35 -45 47 -45 21 0 15 21 -7 27 -11 3 -20 9 -20
14 0 5 -4 9 -10 9 -5 0 -10 -2 -10 -5z"/>
<path d="M6007 4149 c-27 -16 -43 -59 -45 -122 -2 -52 1 -61 27 -88 37 -37 65
-37 102 0 36 36 37 60 2 101 -23 27 -31 31 -60 25 -36 -7 -43 6 -19 38 16 21
33 22 52 2 19 -19 30 -19 37 -1 13 33 -58 66 -96 45z m63 -142 c14 -25 13 -28
-7 -49 -22 -21 -23 -21 -43 -3 -24 22 -25 42 -3 67 20 23 34 19 53 -15z"/>
<path d="M638 3646 c-23 -20 -25 -26 -13 -36 8 -6 20 -13 27 -14 36 -8 48 -20
48 -47 0 -28 -2 -29 -43 -29 -24 0 -51 -6 -61 -13 -16 -12 -16 -14 -2 -26 9
-8 19 -11 23 -7 4 3 17 -3 29 -15 18 -16 21 -28 17 -55 -5 -29 -2 -35 21 -44
26 -10 35 -33 15 -45 -19 -12 -3 -30 27 -30 27 0 29 -3 32 -44 2 -30 -2 -49
-14 -62 -36 -40 23 -71 77 -40 34 19 35 24 9 59 -16 22 -19 36 -14 78 9 70 17
83 42 61 10 -9 27 -17 37 -17 10 0 26 -7 36 -16 13 -11 25 -13 50 -6 42 10 45
36 6 40 -29 4 -31 10 -13 52 11 26 -31 62 -67 58 -26 -2 -33 1 -35 18 -4 26
70 117 101 124 12 4 23 15 25 27 3 18 -3 21 -44 25 -27 2 -53 -2 -63 -9 -9 -7
-26 -13 -38 -13 -33 0 -38 -19 -9 -30 31 -11 32 -18 9 -50 -10 -14 -23 -41
-28 -60 -8 -25 -16 -35 -30 -35 -21 0 -22 3 -11 48 6 24 4 27 -19 27 -21 0
-25 5 -25 28 0 15 -5 33 -12 40 -9 9 -9 15 0 24 21 21 14 48 -12 48 -13 0 -30
2 -38 5 -7 2 -25 -6 -40 -19z m262 -246 c0 -21 -15 -27 -25 -10 -7 12 2 30 16
30 5 0 9 -9 9 -20z"/>
<path d="M4230 3640 c-11 -11 -20 -32 -20 -46 0 -16 -14 -42 -35 -65 -19 -22
-35 -50 -35 -62 0 -22 -4 -24 -46 -23 -37 1 -50 -4 -65 -23 -19 -23 -19 -23 5
-53 l23 -30 -24 -49 c-16 -32 -23 -58 -19 -73 7 -30 100 -105 139 -113 26 -5
34 -28 9 -28 -6 0 -17 -6 -23 -12 -7 -7 -22 -13 -33 -13 -18 0 -18 -1 4 -25
13 -14 34 -25 46 -25 28 0 40 -31 24 -60 -9 -18 -20 -21 -53 -19 -61 3 -67 1
-67 -20 0 -22 20 -32 48 -24 24 6 44 -26 46 -72 1 -21 8 -33 24 -40 25 -11 28
-27 8 -45 -24 -19 -7 -40 30 -40 32 0 34 -2 34 -37 0 -20 -7 -45 -17 -55 -9
-10 -17 -28 -18 -41 l-2 -22 -246 -2 c-136 -1 -247 1 -247 6 0 5 10 15 22 23
l22 15 -26 31 c-24 29 -26 37 -21 94 3 35 7 65 9 67 1 2 17 -7 33 -19 17 -11
35 -19 39 -16 5 3 18 -1 28 -9 24 -18 91 -20 97 -2 8 22 -13 48 -34 42 -23 -8
-38 20 -20 38 31 31 -2 64 -69 69 -20 2 -35 8 -35 15 0 7 20 38 44 68 31 39
51 55 67 55 19 0 24 5 24 24 0 20 -6 24 -40 30 -29 4 -47 2 -65 -10 -13 -9
-29 -13 -35 -9 -13 8 -42 -14 -34 -26 3 -5 14 -9 25 -9 23 0 27 -44 5 -57 -8
-4 -21 -25 -29 -45 -20 -48 -53 -54 -43 -8 4 22 2 30 -8 30 -15 0 -26 21 -26
50 0 9 -7 23 -15 30 -11 9 -12 16 -3 30 16 25 3 50 -26 50 -25 0 -86 -30 -86
-42 0 -14 32 -38 51 -38 20 0 38 -45 23 -60 -5 -5 -31 -13 -59 -17 -59 -10
-68 -34 -16 -44 37 -8 51 -23 51 -56 0 -12 11 -34 24 -48 23 -25 26 -55 5 -55
-5 0 -9 -9 -9 -19 0 -16 8 -20 38 -23 33 -3 37 -6 40 -32 2 -18 -4 -40 -17
-57 -23 -32 -27 -49 -9 -49 6 0 9 -3 5 -6 -3 -4 -116 -9 -250 -11 -180 -4
-247 -2 -252 7 -4 7 1 14 14 17 26 7 27 25 1 48 -16 15 -20 31 -20 87 0 59 2
68 18 68 10 0 27 -7 38 -15 10 -8 25 -15 33 -15 8 0 23 -8 33 -17 18 -16 22
-16 46 -2 32 17 35 42 7 47 -31 6 -38 18 -25 42 9 18 9 28 -1 46 -10 19 -20
24 -55 24 -26 0 -44 5 -47 13 -3 8 12 36 34 63 21 27 39 55 39 62 0 8 8 10 25
6 30 -7 44 18 25 41 -14 16 -76 15 -102 -2 -7 -4 -22 -8 -33 -8 -11 0 -21 -8
-23 -17 -2 -13 3 -18 17 -18 24 0 29 -31 8 -52 -8 -7 -20 -30 -26 -51 -14 -42
-41 -50 -41 -12 0 13 -11 35 -25 49 -16 16 -22 31 -18 41 3 10 0 21 -8 26 -12
7 -12 12 -1 29 30 48 -40 68 -91 26 l-28 -23 41 -18 c38 -17 41 -21 38 -54 -3
-35 -4 -36 -44 -37 -47 -1 -64 -9 -64 -30 0 -9 11 -14 30 -14 33 0 50 -26 50
-76 0 -17 8 -27 25 -34 29 -11 31 -17 9 -41 -23 -26 -11 -49 26 -49 29 0 30
-2 30 -44 0 -26 -6 -48 -15 -56 -10 -9 -12 -17 -5 -30 7 -13 6 -20 -6 -24 -20
-8 -89 -8 -136 0 l-38 7 0 332 c0 324 1 333 20 338 28 7 26 45 -2 51 -50 8
-87 4 -99 -11 -11 -13 -10 -18 9 -34 l23 -18 -3 -325 c-4 -360 -6 -371 -57
-322 -16 16 -34 25 -40 22 -6 -4 -11 -34 -11 -67 0 -53 2 -59 20 -59 11 0 23
7 26 15 4 8 18 15 34 15 l27 0 -2 -325 c-1 -299 -3 -326 -19 -338 -10 -7 -17
-22 -15 -32 3 -16 13 -19 54 -20 28 0 56 4 63 9 18 13 15 32 -9 42 -21 10 -21
14 -20 333 0 178 3 327 7 330 8 8 1029 14 1071 6 l33 -6 0 -328 0 -328 -25
-11 c-28 -13 -33 -37 -9 -46 29 -11 90 -6 110 9 19 15 19 15 -4 34 l-22 19 2
324 3 323 50 6 c76 10 1028 10 1043 0 11 -7 14 -64 13 -287 -1 -302 -6 -367
-27 -385 -19 -15 -18 -35 2 -43 23 -9 87 -7 103 3 17 11 7 41 -14 41 -8 0 -15
8 -16 18 -3 79 1 643 5 650 2 4 128 7 278 6 150 -1 416 -3 591 -3 293 -1 318
-2 324 -18 8 -21 24 -34 35 -27 4 3 8 34 8 70 0 57 -2 64 -20 64 -10 0 -24 -9
-30 -20 -11 -20 -19 -20 -308 -18 l-297 3 0 341 0 342 25 20 c36 30 16 44 -55
40 -65 -3 -77 -16 -45 -46 21 -19 21 -26 20 -352 0 -183 -3 -336 -6 -341 -7
-12 -264 -12 -264 0 0 5 9 11 20 14 11 3 20 12 20 20 0 7 -9 22 -20 32 -16 14
-20 31 -20 82 0 72 13 86 55 59 13 -9 31 -16 39 -16 8 0 19 -6 23 -14 6 -11
17 -13 43 -7 40 8 48 34 12 39 -29 4 -37 24 -22 52 17 31 -21 70 -67 70 -46 0
-53 23 -15 55 17 14 32 36 34 48 2 16 13 24 41 31 30 8 37 14 35 30 -2 17 -11
22 -47 24 -52 4 -84 -19 -75 -53 4 -14 -3 -32 -19 -51 -13 -16 -27 -41 -31
-56 -9 -40 -46 -39 -46 1 0 16 -4 31 -9 33 -5 2 -18 23 -30 47 -19 40 -19 47
-7 66 11 16 12 25 4 33 -13 13 -64 5 -96 -16 -21 -14 -22 -16 -6 -33 9 -10 19
-18 23 -17 34 4 41 -4 41 -42 l0 -40 -56 0 c-47 0 -55 -3 -52 -17 2 -12 14
-19 34 -21 26 -3 33 -9 43 -41 6 -21 11 -45 11 -53 0 -9 10 -22 23 -31 21 -14
22 -15 4 -35 -22 -24 -15 -42 17 -42 46 0 62 -53 29 -100 -10 -14 -16 -33 -15
-42 3 -17 -14 -18 -247 -18 -216 0 -251 2 -251 15 0 8 9 15 20 15 11 0 20 6
20 13 0 8 -9 22 -20 32 -27 25 -30 162 -3 172 10 4 23 -2 34 -15 9 -12 24 -22
32 -22 8 0 18 -7 21 -16 8 -22 90 -16 94 7 2 11 -7 18 -28 22 -29 6 -41 29
-20 42 32 20 -6 67 -60 74 -65 9 -64 13 33 134 12 15 27 27 34 27 7 0 13 7 13
16 0 16 -35 16 -115 2 -40 -7 -64 -38 -30 -38 22 0 30 -27 14 -47 -8 -9 -21
-34 -29 -57 -18 -48 -43 -54 -48 -13 -2 16 -12 37 -23 48 -10 10 -19 30 -19
43 0 13 -5 26 -11 28 -9 3 -8 10 1 25 31 48 -22 70 -87 35 -23 -12 -30 -21
-24 -31 5 -8 16 -11 24 -8 18 7 67 -38 67 -62 0 -29 -25 -43 -72 -39 -38 3
-43 0 -46 -19 -3 -20 1 -23 31 -23 30 0 37 -4 46 -31 6 -17 8 -42 5 -55 -5
-20 -2 -24 15 -24 29 0 37 -26 16 -50 -22 -24 -12 -40 26 -40 28 0 29 -2 29
-44 0 -25 -5 -48 -11 -51 -5 -4 -9 -19 -7 -33 l3 -27 -247 -3 c-137 -1 -248 1
-248 5 0 3 7 15 17 25 15 17 15 20 -5 41 -17 18 -22 36 -22 80 0 63 16 81 51
59 10 -7 27 -12 37 -12 10 0 23 -5 29 -11 18 -18 85 -2 81 19 -2 9 -14 18 -26
20 -27 4 -40 28 -23 45 16 16 14 30 -10 56 -15 16 -24 19 -34 11 -9 -7 -21 -7
-39 0 -22 8 -25 13 -17 28 15 29 94 109 114 115 9 4 17 16 17 27 0 17 -6 20
-40 20 -85 0 -167 -39 -102 -48 28 -4 27 -11 -1 -54 -13 -19 -27 -46 -31 -61
-9 -37 -36 -35 -36 2 0 20 -6 30 -20 34 -14 4 -20 14 -20 35 0 16 -6 35 -14
41 -12 10 -12 16 2 42 16 28 20 29 89 29 59 0 83 5 125 27 29 15 64 32 78 39
43 21 60 54 53 102 -3 25 -11 42 -19 42 -7 0 -17 7 -22 16 -5 9 -17 14 -28 12
-16 -4 -15 -6 9 -18 20 -10 27 -21 27 -41 0 -33 -17 -52 -62 -68 -18 -7 -41
-17 -50 -22 -23 -12 -45 -11 -53 1 -3 6 5 14 19 20 27 10 27 11 30 111 1 21 9
46 21 58 14 16 20 40 22 86 l4 63 -46 32 c-36 25 -45 37 -45 60 0 43 -31 70
-80 70 -27 0 -47 -7 -60 -20z m100 -76 c0 -23 -50 -38 -68 -20 -19 19 -9 43
20 48 27 5 48 -8 48 -28z m68 -50 c19 -13 22 -24 22 -75 0 -32 -4 -59 -10 -59
-12 0 -24 45 -15 60 3 5 -1 13 -11 17 -12 4 -26 -3 -45 -25 -40 -45 -75 -43
-95 4 -15 35 -15 35 -39 20 -23 -15 -25 -15 -25 0 0 21 28 54 45 54 7 0 18 -7
25 -15 19 -22 55 -18 87 10 33 29 33 29 61 9z m-40 -159 c2 -17 8 -35 13 -41
8 -10 9 -64 2 -64 -6 0 -39 37 -56 63 -26 40 -54 35 -74 -13 -21 -48 -43 -53
-43 -9 0 46 34 83 83 90 64 9 72 7 75 -26z m-220 -142 l23 -42 -27 3 c-31 3
-64 38 -64 68 0 35 42 18 68 -29z m165 -28 c20 -14 37 -29 37 -33 0 -12 -121
-12 -143 -1 -19 11 -19 12 9 35 37 30 51 30 97 -1z m-1079 -361 c8 -22 8 -24
-8 -24 -18 0 -29 16 -21 30 9 15 22 12 29 -6z m581 -12 c0 -18 -20 -15 -23 4
-3 10 1 15 10 12 7 -3 13 -10 13 -16z m580 7 c10 -15 -1 -23 -20 -15 -9 3 -13
10 -10 16 8 13 22 13 30 -1z m575 -9 c0 -11 -4 -20 -9 -20 -11 0 -22 26 -14
34 12 12 23 5 23 -14z m581 -5 c-1 -15 -24 -12 -29 3 -3 9 2 13 12 10 10 -1
17 -7 17 -13z"/>
<path d="M4536 3569 c-33 -38 -33 -69 -1 -107 18 -22 31 -28 50 -24 18 3 25 0
25 -12 0 -21 -28 -32 -43 -17 -17 17 -37 13 -37 -7 0 -47 71 -58 110 -17 24
26 38 102 26 149 -17 67 -87 86 -130 35z m90 -45 c8 -31 -6 -47 -37 -42 -18 2
-25 10 -27 31 -7 60 50 69 64 11z"/>
<path d="M646 3075 c-10 -8 -24 -16 -30 -18 -19 -6 13 -36 42 -39 24 -3 27 -7
27 -43 l0 -40 -50 -5 c-36 -4 -50 -9 -50 -20 0 -10 10 -15 30 -15 36 0 56 -28
48 -67 -4 -20 1 -32 21 -49 24 -21 25 -24 10 -40 -23 -26 -10 -53 21 -46 46 8
62 -59 24 -99 -23 -25 -18 -44 11 -44 10 0 21 -4 24 -9 6 -10 75 20 76 32 0 5
-9 20 -20 34 -15 19 -19 39 -18 89 1 70 10 85 37 60 10 -9 27 -16 38 -16 11 0
26 -7 33 -16 9 -10 26 -14 49 -12 29 2 37 8 39 26 3 18 -1 22 -22 22 -32 0
-41 16 -26 46 11 20 11 27 -4 43 -10 11 -34 21 -54 23 -56 5 -54 31 9 94 29
30 59 54 65 54 14 0 26 25 17 34 -10 10 -111 7 -118 -4 -3 -5 -17 -10 -31 -10
-15 0 -24 -6 -24 -15 0 -8 9 -15 20 -15 14 0 20 -7 20 -23 0 -13 -9 -32 -20
-42 -11 -10 -20 -26 -20 -35 0 -9 -7 -25 -15 -36 -12 -15 -16 -16 -24 -5 -5 7
-6 21 -4 31 3 12 -3 22 -16 29 -14 8 -21 22 -21 41 0 16 -5 32 -11 36 -6 4 -8
20 -4 40 4 24 2 34 -7 34 -7 0 -22 2 -33 5 -11 3 -29 -2 -39 -10z m254 -249
c0 -21 -21 -31 -31 -15 -14 22 -11 29 11 29 11 0 20 -6 20 -14z"/>
<path d="M663 2503 c-13 -2 -23 -9 -23 -14 0 -5 -9 -9 -21 -9 -32 0 -17 -23
29 -44 41 -19 49 -35 36 -70 -4 -12 -20 -16 -55 -16 -42 0 -49 -3 -49 -20 0
-16 20 -27 33 -18 1 1 12 -4 25 -11 18 -10 22 -20 22 -62 0 -42 3 -52 20 -56
22 -6 26 -23 8 -41 -16 -16 7 -42 35 -39 17 2 24 -6 31 -35 8 -33 7 -41 -12
-61 -12 -13 -22 -26 -22 -30 0 -3 16 -14 35 -23 35 -16 37 -16 56 5 11 11 24
21 29 21 16 0 11 19 -10 37 -16 14 -20 30 -20 85 0 61 2 68 19 68 11 0 23 -4
26 -10 3 -5 14 -10 24 -10 10 0 24 -7 31 -15 14 -16 67 -20 89 -6 19 12 6 41
-18 41 -28 0 -36 18 -21 46 11 19 10 27 -4 49 -14 21 -23 25 -59 23 -55 -4
-54 9 3 83 36 46 51 58 73 59 24 0 28 4 25 23 -3 19 -10 22 -51 25 -30 2 -55
-2 -64 -10 -9 -7 -25 -13 -36 -13 -28 0 -33 -22 -8 -30 26 -8 27 -37 2 -59
-11 -10 -21 -30 -23 -45 -4 -36 -42 -37 -46 -1 -2 14 -12 33 -23 43 -10 10
-19 26 -19 37 0 10 -6 20 -12 22 -9 3 -8 12 5 32 15 22 16 30 6 42 -11 14 -23
15 -66 7z m232 -273 c0 -22 -29 -18 -33 3 -3 14 1 18 15 15 10 -2 18 -10 18
-18z"/>
<path d="M1843 2383 c-26 -5 -29 -20 -8 -47 21 -28 20 -114 -2 -138 -21 -24
-6 -41 33 -36 24 2 29 7 26 28 -1 14 -3 63 -5 109 -2 86 -5 91 -44 84z"/>
<path d="M1971 2369 c-30 -28 -25 -64 9 -64 22 0 25 4 22 28 -3 25 -1 28 20
25 34 -5 35 -46 1 -84 -64 -72 -73 -87 -61 -101 13 -15 91 -17 119 -3 22 12
26 50 5 50 -8 0 -18 -4 -21 -10 -8 -13 -55 -13 -55 -1 0 6 9 16 21 24 33 24
67 76 62 97 -4 17 -70 60 -91 60 -5 0 -18 -9 -31 -21z"/>
<path d="M3032 2378 c-7 -7 -12 -16 -12 -21 0 -5 -16 -32 -35 -58 -43 -60 -45
-79 -7 -79 33 0 57 -14 48 -28 -11 -18 22 -36 48 -24 23 10 23 10 10 94 -22
135 -25 143 -52 116z m-2 -102 c0 -16 -18 -31 -27 -22 -8 8 5 36 17 36 5 0 10
-6 10 -14z"/>
<path d="M7987 2363 c-10 -9 -8 -43 2 -43 5 0 14 7 21 15 17 21 -4 48 -23 28z"/>
<path d="M8560 1756 c0 -8 7 -16 15 -20 10 -4 15 1 15 14 0 11 -7 20 -15 20
-8 0 -15 -6 -15 -14z"/>
<path d="M1909 1729 c-39 -15 -49 -69 -13 -69 8 0 17 13 21 30 6 35 18 38 33
11 16 -32 12 -51 -15 -61 -33 -13 -32 -26 5 -39 35 -12 41 -44 12 -60 -21 -11
-42 3 -42 27 0 20 -34 10 -38 -11 -6 -29 17 -47 58 -47 52 0 70 8 81 37 6 17
5 32 -5 52 -9 17 -13 42 -9 68 4 34 2 43 -18 57 -26 18 -33 18 -70 5z"/>
<path d="M1476 1708 c-24 -33 -21 -78 4 -78 16 0 20 7 20 31 0 26 3 30 23 27
16 -2 23 -11 25 -30 3 -22 -8 -39 -47 -81 -72 -77 -69 -86 31 -79 45 3 58 8
63 23 10 31 -3 40 -35 24 -35 -18 -40 -18 -40 -4 0 6 18 29 41 51 34 33 40 44
34 66 -16 66 -88 95 -119 50z"/>
<path d="M4132 1718 c-7 -7 -12 -36 -12 -66 l0 -54 33 6 c26 5 38 2 52 -14 17
-18 17 -21 1 -45 -22 -33 -41 -32 -56 5 -14 34 -33 35 -38 2 -4 -28 32 -62 67
-62 37 0 81 41 81 75 0 32 -50 85 -80 85 -15 0 -20 5 -18 18 2 11 13 17 33 17
42 0 59 13 44 31 -14 17 -90 19 -107 2z"/>
<path d="M7603 1273 c-21 -21 -15 -42 8 -28 15 10 49 -29 49 -55 0 -34 -22
-48 -69 -44 -31 3 -43 -1 -48 -12 -7 -19 12 -41 21 -25 5 8 13 8 29 0 30 -16
37 -28 37 -68 0 -26 3 -32 15 -27 24 9 31 -23 13 -55 -13 -23 -14 -30 -4 -39
10 -7 17 -6 27 6 12 14 14 14 26 -2 17 -24 17 -76 -2 -100 -8 -10 -15 -29 -15
-41 0 -13 -6 -24 -12 -24 -7 -1 -23 -3 -36 -4 -13 -1 -33 -12 -45 -24 -19 -17
-23 -30 -21 -69 2 -47 1 -49 -21 -44 -35 6 -89 -39 -90 -75 0 -23 -4 -28 -22
-26 -11 1 -27 -4 -33 -12 -18 -22 -27 -19 -67 20 -28 28 -32 35 -18 35 10 0
29 -10 42 -22 24 -23 33 -9 9 14 -8 8 -15 23 -18 34 -4 23 -52 32 -73 14 -16
-14 -22 -6 -27 40 -2 20 -9 26 -35 28 -29 3 -33 0 -33 -21 0 -20 -6 -26 -32
-30 -38 -6 -68 20 -68 57 0 32 -17 44 -53 37 -23 -5 -33 -13 -35 -29 -3 -21 6
-27 35 -23 7 1 15 -9 19 -23 8 -33 32 -52 77 -60 26 -5 37 -12 37 -24 0 -10 9
-25 20 -35 11 -9 20 -21 20 -26 0 -15 -29 -21 -42 -8 -8 8 -39 13 -78 12 -54
0 -65 3 -68 17 -2 13 3 18 17 18 12 0 21 6 21 13 0 9 -11 13 -34 12 -51 -3
-60 -12 -40 -43 16 -24 16 -26 -2 -39 -10 -7 -30 -13 -46 -13 -15 0 -28 -5
-28 -11 0 -7 10 -9 25 -5 26 7 30 -1 37 -64 3 -22 8 -25 41 -24 20 1 45 8 55
17 9 8 36 18 59 22 38 6 45 4 80 -29 38 -34 38 -35 21 -63 -17 -30 -43 -46
-122 -73 -28 -10 -52 -23 -54 -29 -5 -15 80 -14 113 1 20 9 31 9 45 0 11 -6
26 -9 35 -6 8 4 22 0 31 -7 14 -12 20 -9 39 15 17 21 28 26 43 22 24 -8 39 9
19 21 -22 13 -47 56 -47 81 0 13 -12 39 -26 57 -17 23 -24 41 -19 55 9 27 23
25 52 -6 16 -18 29 -24 41 -18 9 4 27 8 40 9 12 1 28 7 34 13 17 17 37 15 44
-3 4 -8 18 -15 31 -15 14 0 31 -7 37 -16 6 -8 19 -16 28 -18 27 -3 58 -37 58
-61 0 -25 -15 -41 -45 -47 -29 -5 -34 -58 -6 -58 11 0 23 5 26 10 12 20 45 9
90 -30 51 -44 75 -51 75 -21 0 30 11 51 26 51 28 0 26 30 -5 67 -48 58 -41 69
40 63 30 -1 85 54 118 118 11 22 27 42 36 45 19 8 20 43 1 54 -7 4 -19 25 -25
45 -16 49 -26 54 -58 28 -26 -20 -28 -21 -41 -3 -7 10 -11 30 -8 44 6 33 -24
64 -55 56 -40 -11 -71 22 -34 37 19 7 19 25 1 45 -9 10 -15 43 -17 90 l-2 74
36 4 c27 3 37 0 37 -11 0 -22 61 -55 94 -51 55 7 61 45 6 45 -31 0 -49 27 -25
36 21 9 18 27 -8 52 -18 17 -31 21 -54 16 -43 -9 -47 14 -12 67 16 24 29 53
29 64 0 17 7 20 42 20 36 0 43 3 43 20 0 17 -7 20 -50 21 -31 1 -56 -4 -67
-13 -9 -8 -23 -13 -31 -11 -9 2 -15 -1 -14 -7 1 -5 5 -9 9 -8 4 2 12 -6 18
-16 8 -16 5 -26 -15 -49 -14 -17 -25 -38 -25 -49 0 -19 -18 -43 -32 -43 -4 0
-8 12 -8 28 0 15 -9 35 -20 45 -11 9 -20 28 -20 41 0 13 -7 26 -15 30 -12 4
-13 11 -5 31 15 39 13 43 -22 42 -20 -1 -42 -11 -55 -24z m245 -230 c-5 -25
-28 -28 -28 -4 0 12 6 21 16 21 9 0 14 -7 12 -17z m-118 -294 c0 -18 -2 -19
-15 -9 -8 7 -15 16 -15 21 0 5 7 9 15 9 9 0 15 -9 15 -21z m-110 -118 c0 -6
-4 -13 -10 -16 -5 -3 -10 1 -10 9 0 9 5 16 10 16 6 0 10 -4 10 -9z m125 -29
c7 -18 -12 -42 -34 -42 -10 0 -30 13 -45 29 l-28 29 51 -1 c34 -1 52 -5 56
-15z m-107 -68 c23 -16 29 -39 12 -49 -12 -7 -49 33 -50 53 0 16 11 15 38 -4z
m232 -94 c0 -18 -27 -40 -49 -40 -17 0 -13 15 10 44 22 28 39 26 39 -4z m-822
-12 c-2 -13 -7 -23 -13 -23 -5 0 -11 10 -13 23 -2 15 2 22 13 22 11 0 15 -7
13 -22z m57 2 c-3 -5 -10 -10 -16 -10 -5 0 -9 5 -9 10 0 6 7 10 16 10 8 0 12
-4 9 -10z m655 -15 c0 -8 -4 -15 -10 -15 -5 0 -10 7 -10 15 0 8 5 15 10 15 6
0 10 -7 10 -15z m0 -165 c0 -5 -4 -10 -10 -10 -5 0 -10 5 -10 10 0 6 5 10 10
10 6 0 10 -4 10 -10z"/>
<path d="M1827 766 c-57 -21 -70 -35 -64 -72 6 -38 -12 -58 -89 -93 -18 -8
-22 -18 -22 -63 0 -46 4 -57 30 -80 16 -16 35 -28 43 -28 15 0 101 -55 110
-71 11 -17 -6 -49 -36 -64 -30 -16 -39 -49 -16 -58 8 -3 20 -1 28 4 26 16 51
9 92 -26 47 -40 80 -43 85 -7 2 13 14 28 28 34 31 14 30 23 -7 65 -16 19 -28
40 -26 46 2 7 23 14 46 17 33 4 52 14 87 49 24 25 44 52 44 60 0 21 66 85 74
72 3 -5 2 -21 -4 -35 -8 -22 -5 -30 23 -56 18 -16 39 -30 48 -30 9 0 22 -7 29
-15 7 -8 17 -15 22 -15 5 0 22 -10 38 -22 42 -31 40 -65 -4 -83 -66 -28 -52
-65 22 -57 42 4 50 1 79 -27 42 -40 83 -42 83 -6 0 18 7 28 25 35 33 13 32 32
-5 72 -17 18 -29 37 -27 43 2 5 24 11 50 13 41 3 50 8 87 51 22 27 40 54 40
60 0 5 14 27 32 47 26 30 30 39 20 52 -7 10 -21 36 -33 60 -23 45 -43 53 -65
25 -13 -17 -15 -17 -29 1 -8 11 -12 29 -10 40 8 37 -18 57 -77 60 -29 1 -59
-2 -66 -7 -8 -6 -21 -6 -35 0 -32 14 -93 4 -114 -19 -10 -12 -18 -36 -18 -56
0 -30 -4 -36 -26 -42 -15 -4 -40 -18 -57 -30 -33 -25 -82 -22 -82 5 0 48 -40
81 -67 54 -19 -19 -43 -2 -43 28 0 46 -25 73 -67 73 -20 0 -51 -5 -69 -12 -27
-9 -35 -9 -49 5 -9 10 -17 17 -18 17 -1 -1 -19 -7 -40 -14z m107 -161 c-9 -24
-41 -27 -71 -8 l-27 18 44 5 c53 7 61 4 54 -15z m586 0 c0 -20 -39 -29 -66
-14 -35 18 -29 26 21 27 31 0 45 -4 45 -13z m-673 -71 c10 -27 -14 -40 -37
-19 -11 10 -20 22 -20 27 0 15 50 8 57 -8z m583 1 c10 -12 10 -19 2 -27 -14
-14 -38 -4 -52 21 -9 19 -8 21 13 21 14 0 30 -7 37 -15z m-370 -78 c0 -17 -20
-37 -37 -37 -16 0 -17 22 -1 38 16 16 38 15 38 -1z m585 3 c8 -13 -13 -40 -31
-40 -17 0 -18 22 -2 38 15 15 25 15 33 2z"/>
<path d="M3550 763 c-27 -11 -50 -47 -46 -73 5 -29 -9 -60 -28 -60 -8 0 -19
-6 -26 -14 -6 -8 -21 -16 -33 -18 -19 -3 -22 -10 -23 -59 -2 -51 1 -59 28 -85
17 -15 37 -29 45 -30 8 -2 23 -10 32 -18 10 -9 24 -16 32 -16 8 -1 24 -9 37
-20 33 -27 21 -65 -25 -81 -27 -8 -33 -16 -31 -32 3 -20 8 -22 58 -19 51 3 57
1 88 -31 36 -37 72 -40 72 -6 0 10 13 25 30 34 17 9 30 19 30 24 0 4 -14 25
-30 46 -17 21 -29 43 -27 49 2 6 24 13 50 16 38 5 53 13 81 45 19 22 35 45 36
52 0 7 14 28 30 46 17 19 30 42 30 51 0 25 -62 116 -79 116 -7 0 -20 -8 -27
-17 -18 -26 -39 -2 -36 41 2 20 -4 38 -13 46 -20 16 -111 16 -131 -1 -9 -8
-18 -8 -26 -2 -17 13 -79 23 -98 16z m10 -133 c0 -5 -4 -10 -10 -10 -5 0 -10
5 -10 10 0 6 5 10 10 10 6 0 10 -4 10 -10z m118 -29 c-5 -24 -60 -26 -82 -3
-17 19 -16 20 34 19 40 -1 50 -4 48 -16z m-97 -62 c16 -16 18 -24 10 -32 -16
-16 -45 3 -49 32 -4 27 12 27 39 0z m229 -82 c0 -8 -9 -22 -20 -32 -18 -16
-20 -16 -26 -1 -7 19 12 46 32 46 8 0 14 -6 14 -13z"/>
<path d="M4745 763 c-44 -7 -78 -42 -71 -75 6 -31 -5 -43 -90 -88 -17 -10 -21
-22 -21 -70 -1 -52 2 -60 28 -79 15 -12 33 -21 38 -21 5 0 16 -6 23 -13 7 -7
31 -22 53 -33 33 -17 40 -26 40 -50 0 -23 -7 -32 -32 -44 -23 -10 -33 -22 -33
-38 0 -21 3 -22 48 -16 45 6 52 4 84 -25 43 -38 89 -43 85 -9 -1 15 6 26 26
36 35 17 34 30 -8 72 -20 19 -34 39 -32 45 2 5 24 11 49 13 38 3 52 9 81 41
19 21 42 51 50 67 8 16 24 38 36 48 24 22 27 43 7 65 -7 9 -18 29 -23 45 -13
42 -37 55 -61 33 -31 -28 -42 -21 -42 28 0 33 -5 47 -18 54 -27 15 -108 16
-125 3 -10 -9 -18 -8 -33 3 -10 8 -21 14 -24 13 -3 0 -18 -3 -35 -5z m43 -155
c8 -8 15 -8 27 2 18 15 30 7 22 -15 -9 -21 -51 -19 -72 5 -14 16 -15 20 -4 20
8 0 20 -5 27 -12z m-42 -72 c18 -18 18 -36 1 -36 -18 0 -49 34 -40 43 10 11
23 8 39 -7z m229 -76 c6 -10 -29 -50 -45 -50 -14 0 -13 33 2 48 14 14 35 16
43 2z"/>
<path d="M5905 763 c-42 -6 -76 -40 -69 -69 9 -36 -4 -64 -31 -64 -13 0 -28
-6 -32 -14 -4 -7 -17 -18 -29 -24 -16 -9 -21 -21 -22 -63 -1 -45 3 -56 28 -81
17 -16 34 -27 39 -24 5 3 20 -3 34 -14 14 -11 32 -20 40 -20 20 0 47 -33 47
-59 0 -14 -12 -29 -35 -42 -21 -13 -35 -29 -35 -40 0 -18 5 -19 51 -13 49 7
52 5 89 -31 40 -39 65 -42 77 -8 3 10 17 30 31 45 l25 27 -32 33 c-41 42 -37
62 14 66 33 3 48 11 88 54 26 28 47 55 47 60 0 4 16 25 35 45 l35 37 0 -52 c0
-38 4 -52 14 -52 8 0 18 -9 21 -21 5 -15 13 -19 27 -16 12 4 26 -2 36 -14 9
-10 24 -19 33 -19 23 0 49 -33 49 -63 0 -19 -8 -31 -29 -42 -37 -19 -46 -32
-32 -49 9 -10 20 -11 51 -3 39 11 41 10 79 -27 40 -39 85 -47 87 -16 1 8 2 20
3 27 0 6 10 15 21 18 23 7 27 40 5 49 -8 3 -15 12 -15 20 0 7 -7 16 -15 20
-32 12 -15 35 31 42 48 7 124 62 124 89 0 6 16 28 35 48 32 33 47 77 27 77 -5
0 -16 18 -26 41 -21 47 -43 60 -62 34 -20 -27 -41 -11 -49 37 -4 24 -12 49
-17 56 -13 16 -100 16 -116 0 -10 -10 -17 -10 -35 1 -12 8 -39 13 -61 12 -50
-3 -78 -33 -72 -78 4 -30 -22 -72 -37 -57 -3 3 -24 -8 -45 -26 -33 -26 -44
-30 -60 -21 -11 6 -23 26 -26 45 -10 51 -31 64 -60 37 -20 -19 -24 -20 -36 -6
-7 8 -10 25 -6 38 4 17 -1 30 -18 46 -21 19 -33 22 -92 20 -38 -1 -76 0 -84 3
-8 3 -28 3 -45 1z m29 -144 c19 -9 29 -9 40 0 12 10 17 8 25 -8 20 -37 -28
-46 -76 -14 -13 8 -23 19 -23 24 0 12 4 11 34 -2z m609 -5 c13 17 14 17 31 1
13 -13 14 -20 5 -31 -17 -21 -53 -17 -77 9 -26 28 -17 45 10 20 17 -15 19 -15
31 1z m-632 -74 c21 -12 25 -35 8 -45 -11 -7 -59 31 -59 47 0 11 27 10 51 -2z
m563 0 c29 -10 35 -37 11 -46 -20 -8 -45 13 -45 37 0 22 0 22 34 9z m-339 -95
c0 -25 -31 -43 -46 -28 -10 10 -8 17 6 33 21 24 40 21 40 -5z m579 7 c6 -10
-30 -52 -44 -52 -16 0 -21 19 -10 40 11 20 44 27 54 12z m-689 -42 c-5 -8 -11
-8 -17 -2 -6 6 -7 16 -3 22 5 8 11 8 17 2 6 -6 7 -16 3 -22z m576 7 c-1 -12
-15 -9 -19 4 -3 6 1 10 8 8 6 -3 11 -8 11 -12z"/>
<path d="M5263 738 c-15 -17 -19 -32 -16 -54 4 -27 0 -34 -34 -55 -21 -13 -46
-27 -55 -31 -12 -5 -18 -19 -18 -40 0 -18 -3 -43 -6 -54 -4 -13 0 -27 10 -35
9 -8 23 -19 30 -26 8 -7 25 -15 40 -19 14 -3 26 -11 26 -16 0 -6 13 -8 29 -6
20 3 27 0 24 -8 -2 -6 6 -19 18 -27 32 -23 19 -64 -27 -83 -24 -10 -34 -20
-32 -32 3 -14 13 -16 57 -14 48 3 56 0 93 -33 46 -42 72 -42 76 -2 2 19 11 31
28 37 31 12 30 25 -6 67 -42 48 -39 63 13 63 48 1 69 15 112 80 17 25 35 50
40 55 44 42 46 49 26 87 -10 20 -25 44 -34 52 -8 9 -17 21 -20 28 -3 10 -9 9
-24 -4 -24 -22 -27 -22 -48 -2 -12 13 -13 19 -4 30 10 12 7 20 -11 39 -19 20
-33 25 -76 25 -33 0 -54 -5 -57 -12 -3 -10 -9 -10 -26 0 -35 21 -104 15 -128
-10z m37 -97 c0 -6 -4 -13 -10 -16 -5 -3 -10 1 -10 9 0 9 5 16 10 16 6 0 10
-4 10 -9z m68 -33 c9 -9 15 -9 24 0 17 17 28 15 28 -7 0 -10 -7 -22 -16 -25
-19 -7 -66 13 -72 32 -5 15 20 16 36 0z m-47 -68 c23 -13 25 -40 3 -40 -16 0
-43 27 -44 43 0 10 18 9 41 -3z m236 -87 c2 -6 -8 -19 -22 -29 -33 -22 -51 -7
-29 24 16 24 44 26 51 5z"/>
<path d="M8176 731 c-21 -22 -26 -34 -20 -55 7 -30 -9 -56 -37 -56 -11 0 -19
-5 -19 -11 0 -5 -13 -14 -28 -20 -27 -9 -29 -13 -29 -70 -1 -48 3 -61 18 -70
10 -5 19 -17 19 -25 0 -11 6 -13 21 -9 14 5 29 0 46 -17 18 -16 27 -19 30 -10
3 6 9 12 15 12 5 0 8 -6 5 -12 -2 -7 4 -22 15 -34 15 -17 17 -26 9 -47 -6 -15
-17 -27 -25 -27 -21 0 -46 -28 -39 -45 4 -12 16 -14 55 -9 47 6 51 5 88 -31
43 -42 75 -44 75 -6 0 13 9 29 20 35 11 6 22 12 24 14 5 3 -19 51 -35 72 -7 8
-18 29 -24 45 -9 24 -9 28 1 18 7 -7 32 -13 54 -13 37 0 47 5 83 46 23 25 42
51 42 58 0 7 14 25 30 41 33 32 38 56 15 75 -8 7 -15 20 -15 29 -1 9 -10 27
-21 40 l-20 24 -25 -24 c-25 -24 -26 -24 -40 -5 -8 11 -11 29 -8 39 3 11 0 30
-7 43 -11 21 -18 23 -56 20 -24 -2 -46 1 -49 5 -10 16 -24 9 -24 -11 0 -11 -4
-20 -10 -20 -5 0 -10 3 -10 8 0 4 -9 13 -21 20 -17 11 -23 11 -36 0 -13 -10
-17 -10 -20 0 -7 18 -16 15 -47 -17z m24 -99 c0 -14 74 -31 88 -20 10 8 17 7
29 -5 13 -13 14 -19 3 -31 -18 -23 -48 -20 -81 9 -16 13 -36 22 -44 19 -10 -4
-15 0 -15 15 0 12 5 21 10 21 6 0 10 -3 10 -8z m32 -110 c14 -11 15 -18 7 -29
-16 -19 -32 -16 -52 8 -37 42 1 59 45 21z m221 -74 c7 -21 -12 -48 -33 -48
-13 0 -20 7 -20 18 0 34 43 57 53 30z m-113 -44 c0 -8 -4 -12 -10 -9 -5 3 -10
10 -10 16 0 5 5 9 10 9 6 0 10 -7 10 -16z"/>
<path d="M1215 740 c-3 -5 -15 -10 -26 -10 -10 0 -19 -6 -19 -13 0 -19 21 -37
45 -37 28 0 45 -18 45 -47 0 -29 -37 -45 -80 -37 -22 5 -31 2 -36 -10 -8 -22
15 -48 36 -41 25 8 50 -21 50 -55 0 -19 10 -38 27 -54 26 -24 26 -26 9 -45
-22 -24 -14 -41 19 -41 45 0 59 -60 25 -103 l-20 -26 22 -15 c33 -23 47 -20
107 20 2 2 -6 16 -18 32 -15 22 -21 45 -21 86 0 63 17 81 50 51 10 -9 23 -14
28 -11 6 3 24 -2 40 -11 25 -14 34 -15 57 -5 35 16 30 46 -9 50 -26 3 -28 6
-21 39 8 45 -15 73 -61 73 -44 0 -48 11 -19 51 14 19 28 41 31 50 5 16 29 31
67 43 12 4 17 14 15 27 -2 17 -11 22 -50 25 -26 2 -50 -1 -53 -6 -3 -6 -17
-10 -30 -10 -25 0 -47 -21 -28 -27 6 -2 18 -9 28 -16 16 -12 15 -15 -9 -44
-14 -17 -26 -38 -26 -46 0 -26 -12 -47 -26 -47 -8 0 -14 10 -14 25 0 14 -9 30
-20 37 -12 8 -20 24 -20 39 0 15 -7 32 -15 39 -13 11 -13 15 0 33 11 15 12 24
3 34 -12 15 -74 18 -83 3z m248 -254 c6 -15 -1 -26 -15 -26 -4 0 -8 9 -8 20 0
23 15 27 23 6z"/>
<path d="M2937 723 l-29 -15 22 -23 c12 -13 27 -22 34 -19 21 7 38 -13 34 -42
-3 -27 -7 -29 -55 -34 -28 -3 -55 -9 -59 -12 -15 -15 6 -38 35 -38 42 0 61
-23 54 -64 -4 -29 -1 -37 21 -51 24 -16 25 -20 13 -39 -19 -29 -11 -46 23 -46
16 0 30 -7 34 -16 11 -29 6 -75 -9 -80 -26 -10 -17 -41 15 -54 27 -11 33 -10
51 6 12 11 24 18 28 16 3 -1 7 6 9 18 2 11 -1 20 -6 20 -30 0 -44 127 -17 150
13 10 19 10 34 -4 10 -9 22 -16 27 -14 5 1 19 -3 32 -10 13 -7 37 -12 55 -10
24 2 33 8 35 26 2 16 -2 22 -15 22 -10 0 -25 5 -33 10 -12 7 -12 12 -2 22 22
22 14 56 -18 73 -17 9 -36 15 -43 14 -25 -3 -37 1 -37 15 0 17 99 126 115 126
15 0 28 27 19 41 -7 12 -97 12 -109 0 -6 -5 -21 -11 -34 -13 -34 -4 -38 -26
-7 -38 32 -12 32 -15 1 -52 -14 -16 -25 -38 -25 -48 0 -9 -7 -23 -15 -30 -15
-13 -19 -8 -16 22 1 9 -9 24 -23 34 -16 10 -26 26 -26 40 0 12 -5 26 -10 29
-6 4 -7 23 -4 46 l7 39 -39 -1 c-22 -1 -52 -8 -67 -16z m271 -246 c2 -12 -3
-17 -17 -17 -12 0 -21 6 -21 13 0 31 32 34 38 4z"/>
<path d="M586 710 c-25 -16 -27 -20 -13 -26 10 -3 31 -4 47 -2 18 3 30 0 30
-6 0 -24 51 -86 70 -86 20 0 100 -65 100 -81 0 -18 -30 -21 -46 -5 -12 13 -26
15 -59 10 -65 -9 -118 15 -64 29 33 9 16 32 -26 35 -52 5 -65 -11 -34 -44 l24
-26 -22 -18 c-19 -15 -22 -24 -17 -52 11 -54 22 -68 56 -68 17 0 36 7 42 15
13 18 75 30 110 21 13 -3 34 -20 46 -36 20 -28 21 -33 7 -54 -19 -28 -107 -76
-142 -76 -16 0 -25 -6 -25 -15 0 -18 70 -21 102 -4 15 8 26 8 44 -1 12 -7 29
-10 37 -7 8 3 23 -1 34 -8 26 -20 32 -18 43 10 6 15 17 25 29 25 30 0 35 19
12 44 -12 13 -21 36 -21 54 0 21 -10 43 -31 66 -29 34 -32 56 -6 56 7 0 21 -9
30 -21 12 -14 24 -18 35 -13 9 4 30 8 47 8 26 1 30 5 36 39 7 47 -10 65 -46
49 -21 -10 -28 -8 -50 14 -29 29 -26 47 3 21 10 -10 22 -17 25 -17 12 0 7 38
-5 43 -7 2 -9 8 -5 13 4 5 12 2 17 -5 11 -19 40 -6 40 19 0 28 -29 38 -46 16
-9 -13 -19 -16 -36 -10 -13 4 -37 6 -55 5 -29 -2 -32 0 -35 31 -4 44 -42 53
-60 14 -23 -51 -101 -27 -110 34 -3 22 -9 25 -43 27 -25 1 -51 -5 -69 -17z
m74 -259 c0 -12 -20 -25 -27 -18 -7 7 6 27 18 27 5 0 9 -4 9 -9z"/>
<path d="M7390 605 c-16 -20 -8 -29 19 -20 12 4 18 12 14 21 -7 18 -17 18 -33
-1z"/>
<path d="M5000 35 l-34 -35 37 0 c43 0 83 30 74 54 -10 26 -41 18 -77 -19z"/>
<path d="M192 44 c-41 -29 -28 -44 38 -44 51 0 60 3 60 18 0 41 -55 56 -98 26z"/>
<path d="M938 53 c-11 -3 -18 -14 -18 -29 0 -21 4 -24 40 -24 44 0 52 16 24
44 -16 17 -17 17 -46 9z"/>
<path d="M1770 49 c-14 -5 -31 -18 -38 -29 -12 -20 -10 -20 93 -20 86 0 103 2
99 14 -14 36 -100 55 -154 35z"/>
<path d="M8826 45 c-11 -29 5 -45 45 -45 45 0 48 8 16 38 -27 26 -52 28 -61 7z"/>
<path d="M0 26 c0 -24 3 -26 45 -26 42 0 44 1 36 23 -6 16 -18 23 -45 25 -33
3 -36 1 -36 -22z"/>
<path d="M2037 44 c-4 -4 -7 -16 -7 -26 0 -15 8 -18 46 -18 41 0 45 2 42 22
-2 18 -10 24 -38 26 -20 2 -39 0 -43 -4z"/>
<path d="M3367 44 c-4 -4 -7 -16 -7 -26 0 -16 10 -18 101 -18 98 0 100 0 97
23 -3 21 -8 22 -93 25 -50 1 -94 0 -98 -4z"/>
<path d="M7647 44 c-4 -4 -7 -16 -7 -26 0 -14 8 -18 40 -18 33 0 40 3 40 20 0
13 -7 20 -19 20 -11 0 -26 2 -33 5 -8 3 -17 2 -21 -1z"/>
<path d="M3932 28 c-21 -21 -14 -28 29 -28 33 0 40 3 37 18 -4 21 -48 28 -66
10z"/>
<path d="M4417 33 c-19 -19 -5 -33 33 -33 28 0 40 4 40 14 0 21 -56 36 -73 19z"/>
<path d="M6052 28 c-21 -21 -14 -28 29 -28 33 0 40 3 37 18 -4 21 -48 28 -66
10z"/>
<path d="M6304 23 c-17 -17 -16 -18 20 -21 46 -4 58 5 32 24 -25 18 -31 18
-52 -3z"/>
<path d="M8467 34 c-19 -20 -5 -34 34 -34 33 0 40 3 37 18 -3 17 -57 30 -71
16z"/>
<path d="M5427 23 c-16 -15 -4 -23 34 -23 36 0 40 2 29 15 -13 15 -51 20 -63
8z"/>
<path d="M5607 24 c-15 -16 -5 -24 29 -24 24 0 34 4 32 13 -5 13 -50 22 -61
11z"/>
<path d="M8107 24 c-19 -19 1 -24 89 -24 72 0 95 3 92 13 -5 13 -168 23 -181
11z"/>
<path d="M7040 10 c0 -5 14 -10 31 -10 17 0 28 4 24 10 -8 13 -55 13 -55 0z"/>
<path d="M6783 3 c9 -2 25 -2 35 0 9 3 1 5 -18 5 -19 0 -27 -2 -17 -5z"/>
</g>
</svg>
