<?xml version="1.0" standalone="no"?>
<!DOCTYPE svg PUBLIC "-//W3C//DTD SVG 20010904//EN"
 "http://www.w3.org/TR/2001/REC-SVG-20010904/DTD/svg10.dtd">
<svg version="1.0" xmlns="http://www.w3.org/2000/svg"
 width="980.000000pt" height="940.000000pt" viewBox="0 0 980.000000 940.000000"
 preserveAspectRatio="xMidYMid meet">
<metadata>
Created by potrace 1.16, written by Peter Selinger 2001-2019
</metadata>
<g transform="translate(0.000000,940.000000) scale(0.100000,-0.100000)"
fill="#000000" stroke="none">
<path d="M0 9136 c0 -25 2 -26 63 -27 34 0 184 -2 332 -5 149 -2 279 -3 290
-2 20 1 95 1 158 -1 17 -1 55 -1 82 -1 231 5 601 -3 617 -11 14 -8 23 -8 31 0
14 14 130 14 144 0 8 -8 17 -8 33 1 15 8 46 10 89 6 36 -3 72 -5 79 -5 10 1
45 1 172 1 11 0 48 -1 83 -1 34 0 76 0 92 1 17 0 57 0 90 -1 33 0 82 -1 108
-1 29 0 46 -4 42 -10 -10 -15 5 -12 22 6 9 9 22 12 32 8 9 -4 79 -6 156 -5 77
2 154 3 170 2 31 -1 309 -12 335 -13 8 -1 26 2 40 6 35 9 58 -8 44 -31 -6 -11
-7 -34 -3 -58 13 -69 11 -125 -6 -131 -8 -4 -12 -11 -8 -18 5 -6 8 -20 9 -31
2 -29 4 -157 3 -180 -1 -27 0 -160 2 -210 1 -22 1 -47 1 -55 -1 -26 -4 -463
-3 -500 l1 -35 173 -2 c94 -1 181 -2 192 -2 11 -1 43 1 70 3 28 3 75 2 105 -2
47 -6 55 -10 58 -29 2 -13 -2 -23 -8 -23 -8 0 -9 -7 -5 -17 12 -31 17 -144 6
-157 -7 -8 -7 -24 -1 -46 5 -19 7 -54 3 -79 -4 -25 -6 -58 -5 -73 4 -49 5
-239 3 -298 -1 -14 -1 -65 -1 -113 1 -54 -3 -94 -11 -103 -8 -10 -8 -18 -1
-26 8 -11 10 -69 4 -126 -2 -11 -19 -12 -74 -8 -40 2 -79 5 -85 4 -7 0 -44 0
-83 0 -84 0 -90 0 -205 -3 -120 -2 -121 -3 -139 -20 -12 -12 -14 -30 -9 -80 5
-59 4 -66 -18 -85 -19 -16 -20 -19 -5 -13 17 5 18 3 12 -21 -4 -17 -2 -34 5
-42 7 -9 9 -35 5 -76 -5 -52 -15 -343 -15 -438 0 -14 0 -50 0 -80 -1 -30 -1
-67 0 -82 0 -16 0 -54 0 -85 0 -32 0 -74 0 -93 1 -45 1 -75 -1 -240 -1 -74 1
-156 3 -182 3 -26 1 -50 -4 -54 -5 -3 -7 -38 -3 -84 6 -69 5 -80 -10 -86 -13
-5 -14 -9 -4 -21 8 -10 12 -44 11 -97 -1 -44 -2 -94 -2 -111 0 -189 0 -327 0
-357 1 -21 1 -59 0 -85 0 -27 0 -83 0 -126 0 -57 -4 -79 -14 -83 -12 -4 -12
-11 -2 -42 19 -54 6 -287 -15 -287 -8 0 -15 7 -16 15 -2 31 -6 34 -13 10 -6
-21 -12 -25 -42 -22 -39 3 -61 3 -144 2 -33 0 -120 0 -192 1 -119 2 -133 4
-139 21 -7 24 -24 23 -24 -1 0 -18 -7 -20 -80 -19 -60 1 -80 5 -80 15 0 21
-17 15 -23 -8 -5 -18 -10 -20 -34 -13 -15 4 -53 7 -83 5 -30 -1 -87 1 -126 4
l-72 7 2 227 c1 173 4 232 14 244 13 15 100 17 347 6 11 0 47 2 79 5 33 3 67
1 77 -5 14 -7 28 -5 49 6 33 17 35 24 31 148 -2 50 1 82 9 92 9 11 10 18 1 29
-13 15 -5 46 13 46 6 0 3 5 -6 11 -19 10 -24 63 -10 87 5 7 4 45 -1 84 -6 49
-6 78 1 89 7 11 8 28 3 46 -5 16 -7 47 -4 69 8 75 9 159 2 190 -4 19 -1 37 7
49 8 11 10 24 5 34 -4 9 -7 86 -5 171 2 85 6 274 8 420 2 146 5 270 5 275 1 6
-1 37 -4 70 -3 34 0 72 7 88 8 21 8 31 -1 40 -16 16 -14 37 6 37 15 0 14 2 -2
20 -12 14 -15 27 -10 47 3 15 6 39 5 53 -6 112 3 495 12 513 5 9 6 23 2 29
-13 21 -16 126 -4 148 7 14 8 25 2 33 -6 7 -8 41 -6 77 2 36 5 85 7 110 1 25
0 49 -2 55 -8 15 0 79 10 92 6 6 6 14 1 17 -7 4 -8 187 -1 346 0 8 0 87 0 175
-1 88 -1 167 0 175 0 8 0 47 -1 85 0 39 0 77 1 85 5 37 -2 126 -11 140 -7 12
-13 12 -27 4 -20 -13 -131 -7 -150 8 -7 5 -14 5 -17 -1 -9 -14 -484 -12 -507
2 -13 8 -21 8 -31 0 -14 -12 -480 -11 -508 1 -10 4 -24 -2 -37 -16 -19 -20
-20 -29 -13 -68 13 -65 12 -70 -11 -70 -19 0 -20 -2 -8 -16 18 -22 23 -142 7
-161 -8 -10 -8 -17 -1 -21 12 -9 14 -320 2 -328 -5 -3 -6 -10 -3 -16 10 -16
12 -516 3 -557 -5 -21 -4 -40 1 -45 12 -12 77 -21 125 -16 11 1 99 1 195 1 96
0 184 -1 195 -1 57 0 75 -2 80 -10 12 -19 8 -209 -5 -224 -8 -11 -9 -20 -3
-28 14 -20 16 -137 2 -154 -9 -11 -9 -17 1 -29 7 -8 10 -16 6 -16 -3 -1 -10
-2 -15 -3 -19 -2 -23 -16 -5 -16 15 -1 13 -4 -9 -16 -15 -8 -33 -12 -39 -8 -7
4 -101 7 -209 6 -121 -1 -200 2 -204 8 -4 7 -13 7 -25 0 -26 -14 -133 -13
-148 2 -9 9 -15 9 -24 0 -16 -16 -140 -16 -156 0 -10 10 -17 10 -32 0 -25 -15
-97 -16 -139 -1 -24 8 -35 8 -46 -1 -9 -7 -39 -11 -80 -8 -54 2 -68 0 -76 -14
-6 -11 -6 -19 1 -23 13 -8 13 -91 -1 -116 -6 -12 -7 -25 -2 -32 14 -19 16
-126 3 -142 -8 -9 -8 -24 -2 -47 5 -19 6 -59 2 -90 -5 -31 -6 -73 -4 -95 5
-44 5 -55 -2 -218 -3 -66 -10 -125 -16 -132 -8 -10 -6 -13 7 -13 14 0 16 -6
10 -42 -4 -23 -8 -202 -8 -397 0 -196 -3 -369 -8 -385 -5 -16 -5 -34 0 -40 10
-13 8 -274 -3 -297 -4 -9 -3 -35 3 -58 5 -23 7 -56 5 -74 -3 -17 -6 -72 -7
-122 -1 -49 -6 -98 -10 -107 -7 -14 -1 -19 30 -27 22 -6 52 -7 69 -3 16 4 49
6 74 4 59 -5 86 -6 140 -2 96 5 266 -1 280 -10 11 -7 14 -26 13 -82 -2 -40 -2
-81 -2 -90 2 -84 2 -119 0 -158 -1 -25 -2 -52 -2 -60 1 -8 -2 -238 -5 -510 -2
-272 -4 -502 -4 -510 1 -8 1 -46 0 -85 0 -38 -1 -93 0 -122 l1 -52 -98 1 c-54
1 -103 5 -110 11 -7 5 -18 5 -25 1 -19 -12 -177 -13 -211 -1 -21 7 -35 6 -52
-3 -14 -7 -37 -10 -54 -7 -27 6 -33 3 -46 -23 -10 -19 -13 -37 -7 -48 4 -9 7
-46 5 -82 -1 -36 -5 -263 -7 -505 -6 -520 -6 -452 -3 -552 l2 -83 70 1 c39 0
85 0 103 -1 17 -1 59 -2 92 -1 33 0 68 -1 78 -1 9 0 46 0 82 0 36 0 80 1 98 1
17 0 40 0 50 1 14 0 97 -2 302 -8 8 -1 46 2 83 4 44 4 73 2 82 -6 9 -8 20 -8
32 -2 19 10 125 9 158 -2 13 -4 29 1 44 13 23 17 24 24 27 162 2 79 4 151 4
159 0 8 0 47 -1 85 0 39 0 82 0 98 0 15 0 44 0 65 0 20 3 242 6 492 4 250 7
466 7 480 -2 112 -1 235 3 238 4 4 175 6 205 3 8 -1 42 0 75 3 33 3 72 0 87
-5 15 -6 36 -8 45 -3 26 11 104 13 131 3 14 -5 41 -5 67 1 28 6 61 6 96 0 34
-7 56 -7 64 0 6 5 36 7 66 4 30 -3 98 -5 151 -4 l97 2 -2 -244 -2 -243 -85 -2
c-123 -4 -121 -4 -230 -2 -57 1 -100 6 -100 12 0 5 -7 4 -15 -3 -8 -6 -23 -9
-34 -5 -11 3 -45 0 -76 -7 -63 -14 -58 0 -56 -172 0 -76 -3 -124 -11 -133 -8
-10 -8 -19 1 -36 8 -15 9 -43 2 -92 -5 -39 -5 -77 0 -87 5 -9 5 -50 -1 -93 -5
-43 -7 -82 -3 -89 9 -15 10 -97 1 -117 -4 -8 -3 -50 1 -92 5 -55 3 -83 -6
-101 -8 -16 -9 -27 -3 -31 13 -8 13 -121 -1 -146 -7 -14 -7 -24 0 -33 9 -11 9
-90 0 -351 -1 -11 1 -27 2 -35 2 -8 0 -54 -5 -102 l-8 -88 -118 2 c-66 1 -117
5 -114 9 2 4 0 10 -6 14 -5 3 -10 0 -10 -7 0 -11 -41 -14 -202 -15 -114 -1
-207 2 -213 7 -7 6 -24 6 -41 2 -16 -5 -130 -7 -254 -5 -124 2 -236 3 -250 3
-50 -1 -126 -1 -165 -1 -22 1 -67 0 -100 -1 -33 0 -71 0 -85 1 -14 1 -52 -1
-85 -4 -44 -4 -66 -1 -80 9 -16 12 -24 12 -45 1 -15 -7 -47 -11 -80 -9 -30 3
-104 4 -165 4 -207 -1 -239 1 -252 11 -10 9 -11 82 -7 353 3 187 5 357 4 376
-3 59 -2 111 3 485 3 198 6 470 6 605 0 135 0 254 0 265 0 11 0 74 0 140 0 66
0 127 0 135 2 453 6 608 13 623 6 12 5 23 -2 32 -8 9 -10 36 -6 77 4 35 6 74
6 88 0 14 -1 50 -1 80 -1 30 2 63 6 74 5 10 4 26 -2 35 -6 10 -7 46 -2 95 4
44 4 87 0 95 -5 9 -6 39 -4 66 5 55 12 316 12 410 0 80 0 80 3 315 2 113 7
211 11 217 4 7 3 22 -3 34 -8 13 -9 39 -4 72 4 29 6 115 5 192 -1 77 -2 149
-2 160 0 11 1 67 1 124 0 59 5 109 11 117 7 9 7 19 -1 34 -7 13 -9 44 -5 83 7
76 7 78 0 154 -4 39 -2 70 5 83 9 16 8 25 -1 36 -13 16 -6 129 11 149 6 7 6
15 -1 22 -11 11 -12 56 -3 308 3 105 7 217 8 249 l1 60 40 3 c21 1 45 -3 52
-9 9 -7 21 -7 40 1 30 12 110 10 131 -2 6 -5 36 -3 67 2 38 7 64 7 86 -1 22
-8 41 -8 68 0 20 6 45 9 56 6 11 -3 29 2 40 9 16 13 19 24 16 78 -2 35 -3 75
-3 89 1 14 1 106 2 205 1 99 5 197 10 218 4 20 4 39 0 42 -12 7 -9 447 2 462
6 7 6 19 0 30 -5 10 -8 38 -7 63 4 85 1 90 -66 90 -33 0 -67 5 -77 11 -14 9
-35 9 -82 1 -34 -6 -68 -8 -74 -5 -8 6 -271 13 -406 12 -103 -1 -278 -5 -292
-7 -14 -2 -18 -12 -18 -47 l0 -45 433 0 c328 0 438 -3 457 -13 l25 -13 -3
-244 c-3 -161 -8 -250 -15 -259 -8 -9 -26 -11 -67 -7 -40 5 -61 2 -75 -8 -11
-8 -47 -16 -80 -19 -33 -3 -85 -10 -115 -17 -59 -11 -127 -24 -200 -37 l-45
-8 0 -195 0 -195 40 -6 c22 -3 53 -11 68 -18 16 -6 32 -9 37 -6 5 3 21 0 37
-6 33 -14 107 -28 181 -36 28 -3 50 -9 46 -14 -3 -5 -95 -9 -204 -9 -109 0
-201 -4 -204 -8 -3 -5 -8 -294 -11 -643 -3 -349 -9 -818 -15 -1044 -5 -225
-13 -781 -16 -1235 -4 -454 -8 -854 -9 -890 -1 -36 -5 -641 -8 -1345 -4 -704
-10 -1319 -13 -1366 -5 -72 -3 -88 11 -102 15 -15 52 -17 349 -17 183 0 731
-3 1217 -7 l885 -6 23 24 22 24 232 -3 c128 -2 236 -8 242 -13 10 -10 10 0 6
-307 -3 -204 -5 -223 -22 -232 -11 -7 -157 -8 -396 -5 -208 3 -909 7 -1558 10
-649 3 -1197 8 -1217 11 l-38 7 0 -50 0 -50 403 -7 c684 -10 1956 -16 5062
-22 1645 -3 3038 -7 3097 -9 87 -4 110 -2 123 11 8 8 15 20 15 25 0 5 108 9
264 9 187 0 267 3 272 11 4 7 8 129 8 273 1 144 5 267 10 274 4 6 13 12 21 12
8 0 16 14 19 33 6 33 12 650 22 2133 l6 881 -27 17 -27 18 7 376 c3 207 8 445
10 527 2 83 5 289 5 458 l2 308 22 9 23 8 6 634 c4 348 9 971 12 1383 3 413 7
944 10 1181 4 341 3 433 -7 441 -8 7 -298 13 -803 17 -434 4 -900 9 -1035 11
-301 5 -1574 13 -3205 20 -1582 6 -2820 14 -3652 22 l-663 6 0 -27z m5431 -67
c14 -7 24 -7 33 0 8 7 55 10 118 9 l105 -1 2 -29 c3 -29 4 -123 3 -168 -1 -14
-1 -59 -1 -100 0 -41 0 -84 -1 -95 -2 -56 -3 -163 -2 -185 4 -83 0 -146 -10
-158 -9 -10 -9 -15 1 -22 8 -4 11 -12 8 -17 -3 -4 -1 -30 4 -58 5 -28 5 -53 0
-58 -5 -5 -6 -46 -3 -93 3 -59 1 -88 -8 -99 -8 -10 -9 -19 -3 -27 14 -20 16
-127 2 -144 -9 -11 -9 -21 0 -40 14 -31 15 -126 1 -140 -8 -8 -8 -19 0 -38 13
-35 13 -97 0 -131 -6 -15 -7 -32 -3 -38 10 -16 14 -58 8 -84 -4 -17 -13 -21
-42 -22 -21 0 -63 -1 -93 -2 -30 -1 -67 2 -83 6 -15 4 -33 3 -40 -3 -6 -5 -32
-8 -57 -5 -57 5 -280 6 -340 0 -27 -2 -56 2 -73 10 -23 11 -31 11 -53 0 -19
-10 -42 -11 -92 -5 -37 4 -80 5 -97 2 -42 -9 -107 -6 -119 6 -7 7 -7 20 1 39
7 21 8 32 0 40 -6 6 -10 41 -8 78 4 145 4 283 -1 289 -11 10 4 43 21 48 13 4
98 2 296 -4 6 0 39 2 74 4 35 2 75 0 89 -5 17 -6 29 -6 36 1 5 5 29 10 51 10
l41 0 -1 53 c-1 30 -5 59 -9 65 -4 7 -4 17 0 24 4 7 9 120 10 252 1 167 5 241
13 244 16 5 14 22 -3 22 -10 0 -13 14 -10 63 2 34 5 164 5 288 l2 227 104 1
c58 0 113 -4 124 -10z m-343 -34 c15 -5 18 -1090 3 -1100 -6 -3 -131 -6 -278
-6 -182 0 -279 -4 -301 -12 -31 -11 -35 -10 -51 12 -11 14 -25 22 -37 19 -16
-3 -19 -12 -19 -56 0 -66 18 -87 45 -52 11 15 23 21 34 17 14 -6 16 -37 13
-307 -2 -166 0 -303 3 -305 13 -8 1263 -6 1270 2 5 4 11 368 14 808 5 724 9
939 20 971 3 7 124 10 408 7 221 -2 988 -8 1703 -14 1338 -11 1351 -12 1361
-21 5 -5 4 -682 -1 -803 -1 -27 -5 -486 -9 -1020 -3 -533 -8 -1028 -11 -1100
-3 -71 -8 -222 -11 -335 -4 -113 -7 -206 -9 -208 -4 -4 -2075 -2 -2540 3 -220
2 -407 2 -416 -1 -15 -4 -17 -35 -18 -286 -1 -154 -4 -285 -7 -290 -4 -6 -217
-7 -585 -3 -450 5 -583 4 -594 -5 -12 -10 -15 -48 -15 -210 0 -108 -3 -238 -6
-288 -6 -82 -9 -92 -26 -92 -11 0 -28 10 -37 22 -12 14 -24 19 -35 15 -14 -6
-16 -18 -14 -64 3 -52 5 -58 26 -61 17 -3 25 2 29 17 7 27 37 27 55 -1 15 -22
18 -22 296 -23 155 -1 284 -4 287 -7 3 -3 6 -122 5 -263 0 -179 3 -262 11
-271 6 -8 28 -14 47 -14 27 0 42 -7 58 -28 30 -37 44 -21 47 54 2 53 0 59 -19
62 -15 2 -23 -3 -27 -17 -3 -15 -13 -21 -31 -21 l-26 0 2 248 3 247 265 0 265
0 3 -247 c2 -241 2 -248 -17 -248 -11 0 -25 9 -31 20 -6 11 -19 20 -29 20 -15
0 -21 -10 -26 -49 -11 -84 14 -119 49 -67 14 22 21 24 85 22 60 -3 73 -7 89
-26 28 -35 42 -17 42 56 0 57 -2 64 -19 64 -11 0 -23 -9 -26 -20 -4 -13 -15
-20 -31 -20 l-24 0 2 247 3 248 265 0 265 0 0 -245 0 -245 -27 -3 c-20 -2 -28
2 -33 18 -4 13 -13 20 -23 18 -13 -2 -18 -16 -20 -58 -1 -30 2 -62 8 -70 9
-13 13 -12 29 7 18 21 48 27 129 24 30 -1 42 -5 42 -16 0 -21 27 -30 45 -15
22 18 21 118 -2 127 -10 4 -23 -2 -34 -16 -10 -12 -26 -21 -36 -19 -17 3 -18
20 -18 218 0 118 2 230 4 248 l3 32 253 0 c139 0 260 -3 269 -6 14 -5 16 -37
16 -249 l0 -243 -25 -4 c-19 -4 -30 1 -44 20 -26 37 -41 20 -41 -48 0 -67 12
-81 44 -51 18 17 35 21 89 21 55 0 68 -3 81 -21 8 -12 22 -19 33 -17 15 3 18
13 18 68 0 60 -2 65 -22 68 -15 2 -23 -2 -23 -11 0 -8 -7 -20 -15 -27 -12 -10
-18 -10 -30 0 -13 10 -15 50 -15 239 0 166 3 232 13 244 11 16 36 17 266 15
l255 -3 8 -30 c4 -16 7 -126 5 -244 -2 -194 -4 -215 -20 -225 -15 -9 -22 -6
-42 19 -16 19 -28 26 -34 20 -8 -9 -16 -87 -12 -122 2 -19 24 -16 44 7 14 17
29 20 91 20 70 0 75 -1 78 -22 2 -13 11 -24 20 -26 12 -2 20 8 28 37 20 74
-18 144 -45 83 -15 -35 -48 -25 -57 18 -12 53 3 439 17 453 17 18 496 17 518
-1 13 -11 15 -43 11 -244 -3 -127 -7 -235 -10 -239 -9 -15 -54 -10 -54 5 0 7
-7 20 -16 27 -27 22 -40 -9 -34 -77 5 -63 24 -81 40 -40 16 43 70 31 70 -15 0
-5 -11 -14 -25 -19 -29 -11 -33 -36 -7 -44 26 -8 85 -5 105 6 12 6 17 17 14
28 -3 11 1 20 12 22 24 6 473 -1 489 -7 12 -4 13 -46 11 -239 -2 -129 -7 -237
-10 -240 -8 -8 -398 -13 -478 -6 -74 6 -84 19 -46 55 40 37 28 55 -38 55 -36
0 -59 -5 -67 -15 -13 -16 -6 -35 14 -35 14 0 26 -51 26 -110 0 -40 -7 -54 -33
-63 -11 -4 -17 -14 -15 -24 3 -15 16 -19 66 -21 75 -4 90 14 48 53 -16 14 -23
30 -20 39 5 14 40 16 263 16 141 0 262 -4 269 -9 11 -6 13 -62 13 -267 -1
-142 -5 -262 -9 -266 -5 -5 -127 -7 -273 -6 -249 3 -264 4 -267 22 -3 11 7 27
24 41 38 31 24 45 -46 45 -65 0 -86 -15 -52 -38 20 -13 22 -23 22 -94 0 -71
-2 -80 -20 -85 -13 -4 -20 -14 -20 -30 0 -23 2 -24 67 -21 55 2 68 6 71 20 2
12 -6 21 -22 28 -36 13 -36 57 -1 66 13 3 136 4 272 2 l248 -3 3 -259 c1 -148
-2 -264 -7 -269 -7 -7 -147 -10 -483 -7 -55 0 -58 1 -58 25 0 14 8 29 20 35
22 12 27 36 8 42 -7 2 -35 3 -63 3 -43 0 -50 -3 -53 -21 -2 -15 3 -23 17 -27
19 -5 21 -13 21 -85 0 -72 -2 -80 -21 -85 -15 -4 -20 -12 -17 -29 2 -18 10
-23 33 -24 77 -3 105 18 69 53 -8 9 -14 25 -12 37 3 21 6 21 263 24 222 2 262
0 271 -13 12 -16 11 -516 -1 -535 -4 -6 -102 -10 -271 -10 l-264 0 0 28 c0 15
9 35 20 45 34 29 15 47 -51 47 -70 0 -87 -18 -48 -54 22 -20 24 -29 21 -98 -3
-66 -6 -77 -24 -81 -12 -4 -18 -12 -16 -24 3 -15 15 -19 66 -21 60 -3 62 -2
62 21 0 14 -7 27 -15 31 -8 3 -15 17 -15 31 l0 25 268 -2 267 -3 3 -155 c2
-85 0 -210 -3 -276 l-7 -122 -266 3 -267 2 -3 23 c-3 16 4 29 20 41 34 27 12
41 -57 37 -65 -3 -82 -21 -40 -40 18 -8 25 -18 23 -32 -4 -31 -47 -34 -68 -5
-26 33 -40 15 -40 -52 0 -51 3 -59 19 -59 10 0 21 9 24 20 6 22 56 29 58 8 5
-56 -5 -535 -11 -542 -7 -7 -236 -10 -493 -6 l-37 0 2 277 c3 265 4 278 22
281 12 3 26 -5 36 -19 11 -14 23 -20 34 -16 24 9 23 115 -1 124 -11 4 -22 -1
-31 -15 -13 -19 -24 -22 -87 -22 -63 0 -74 3 -87 22 -24 35 -48 17 -48 -36 0
-24 3 -51 6 -60 9 -22 31 -20 44 5 7 13 19 19 33 17 l22 -3 0 -275 0 -275 -40
-5 c-22 -3 -143 -3 -270 0 l-230 5 -3 264 c-2 186 1 268 9 277 17 20 46 17 52
-6 6 -24 42 -27 51 -4 3 9 6 35 6 59 0 50 -21 75 -45 55 -8 -7 -15 -19 -15
-26 0 -11 -19 -14 -80 -14 -61 0 -80 3 -80 14 0 7 -7 19 -15 26 -25 21 -45 -5
-45 -60 0 -59 19 -79 45 -50 20 22 60 27 67 8 10 -29 -2 -521 -13 -534 -9 -11
-60 -14 -266 -12 l-255 1 -9 24 c-7 19 -7 206 0 483 1 19 5 41 9 48 11 16 42
5 42 -14 0 -20 27 -29 44 -15 22 18 18 109 -5 121 -15 8 -22 5 -35 -15 -15
-23 -22 -25 -90 -25 -70 0 -75 1 -84 25 -10 28 -35 33 -43 10 -9 -21 4 -114
16 -122 5 -3 19 6 29 20 23 32 43 34 57 8 13 -23 4 -522 -9 -534 -10 -11 -512
-9 -523 2 -12 12 -4 544 9 548 6 2 25 -8 43 -22 17 -15 35 -24 41 -20 13 8 13
122 -1 130 -6 4 -22 -3 -35 -16 -20 -19 -37 -24 -87 -25 -55 -2 -64 1 -84 23
-13 17 -27 24 -38 20 -24 -10 -18 -130 7 -135 12 -2 21 6 28 22 5 14 16 26 24
26 34 0 36 -24 34 -291 l-3 -264 -270 0 -270 0 0 275 c0 270 0 275 21 278 14
2 24 -5 32 -23 8 -17 19 -25 30 -23 25 5 31 125 6 135 -12 4 -24 -2 -38 -20
-16 -20 -25 -24 -38 -16 -25 14 -22 32 9 59 26 22 26 23 7 37 -29 21 -118 14
-122 -10 -2 -11 5 -25 17 -33 29 -20 28 -54 -1 -55 -54 -3 -513 3 -517 7 -4 4
-5 17 -2 322 l1 222 267 -2 c247 -3 268 -4 271 -21 2 -10 -6 -25 -18 -35 -35
-29 -17 -52 40 -52 27 0 55 3 64 6 23 9 20 41 -4 47 -18 5 -20 14 -20 85 0 72
2 80 21 85 15 4 20 12 17 29 -3 21 -9 23 -61 26 -67 4 -84 -14 -49 -51 14 -15
19 -30 15 -45 l-5 -22 -262 2 -261 3 -5 96 c-3 53 -3 177 0 275 l5 179 262 3
263 2 6 -26 c5 -19 1 -29 -15 -40 -48 -34 -5 -60 73 -46 47 9 57 27 22 43 -25
12 -26 16 -26 88 0 70 2 77 28 97 l27 22 -25 10 c-31 11 -112 1 -117 -15 -2
-6 5 -14 16 -18 28 -8 36 -37 15 -52 -22 -16 -504 -19 -520 -3 -10 10 -9 488
1 518 6 17 505 18 523 0 16 -16 15 -48 -2 -48 -7 0 -19 -7 -26 -15 -21 -25 5
-45 60 -45 64 0 82 21 49 56 -20 21 -23 33 -21 92 2 54 6 70 22 81 35 24 24
41 -25 43 -25 1 -53 2 -62 2 -27 1 -29 -40 -4 -54 12 -6 21 -19 21 -29 0 -25
-18 -27 -303 -23 l-237 3 2 267 3 267 265 0 265 0 3 -23 c3 -17 -2 -25 -17
-29 -12 -3 -21 -14 -21 -24 0 -22 -3 -21 68 -24 58 -2 81 17 49 40 -11 8 -17
27 -17 54 0 35 -4 43 -26 51 -14 6 -163 10 -349 10 -310 0 -324 1 -330 19 -3
11 -12 22 -20 25 -21 8 -48 -23 -41 -48 3 -12 6 -36 6 -53 0 -38 18 -43 45
-13 20 22 40 26 50 10 7 -12 6 -1894 -1 -1975 -2 -27 -8 -255 -12 -505 l-7
-455 -853 -2 c-469 -1 -859 0 -867 3 -12 5 -15 48 -15 274 0 152 4 271 9 275
5 3 150 6 322 6 l312 1 17 -23 c11 -14 23 -20 34 -16 25 10 19 130 -6 135 -12
2 -21 -6 -28 -22 l-10 -26 -597 2 -598 3 3 805 c2 443 5 819 8 835 13 71 -15
65 299 65 l284 0 17 32 c15 29 18 30 29 14 8 -10 23 -16 37 -14 20 3 23 8 23
51 1 27 -4 55 -10 63 -12 18 -45 9 -45 -12 0 -8 -7 -14 -15 -14 -17 0 -16 -23
-15 302 1 174 -2 248 -10 253 -10 6 -466 12 -1102 14 -104 1 -128 4 -128 15 0
8 9 18 21 21 14 5 19 14 17 28 -2 18 -11 23 -42 25 -74 6 -111 -21 -72 -52 17
-13 21 -99 18 -404 -2 -182 -4 -213 -18 -219 -9 -3 -23 3 -35 16 -36 38 -56
20 -57 -51 -1 -62 19 -80 53 -48 14 13 31 20 39 17 14 -6 16 -69 16 -561 0
-433 -3 -557 -13 -563 -14 -9 -1075 -5 -1090 4 -10 6 -2 899 9 1026 l6 68 285
-1 c261 -1 287 0 305 17 19 17 21 17 39 -6 29 -36 49 -13 49 56 0 64 -21 81
-52 43 -10 -13 -22 -19 -26 -14 -4 5 -5 386 -2 846 4 637 8 840 17 849 10 10
14 6 22 -14 12 -30 45 -37 55 -11 13 33 6 121 -10 135 -14 11 -19 10 -34 -9
-18 -22 -20 -22 -323 -22 -238 0 -307 3 -315 13 -8 9 -8 123 -2 392 5 209 12
710 15 1113 3 403 9 740 12 749 6 14 60 15 600 9 524 -6 593 -5 593 8 0 27 22
30 40 5 16 -20 20 -21 35 -9 12 10 15 27 13 69 -3 48 -6 56 -24 59 -15 2 -23
-3 -27 -17 -6 -26 -27 -28 -28 -3 -5 103 7 481 16 490 3 3 14 -3 25 -13 33
-29 52 -4 48 64 -2 46 -6 56 -22 59 -11 3 -24 -2 -30 -9 -9 -12 -66 -13 -316
-9 l-305 5 -2 542 c-3 528 -2 543 17 553 21 11 1051 7 1069 -4 6 -4 8 -28 6
-54 -2 -26 -4 -275 -4 -554 -1 -491 -2 -508 -20 -508 -11 0 -21 9 -24 21 -4
13 -12 20 -24 17 -25 -4 -30 -110 -7 -129 13 -11 19 -9 34 10 36 49 40 21 36
-242 -3 -265 -8 -288 -47 -236 -15 20 -19 21 -33 10 -23 -19 -22 -119 1 -128
11 -4 22 1 31 15 8 12 21 22 29 22 13 0 15 -30 9 -232 -3 -128 -9 -629 -12
-1113 -4 -484 -9 -900 -13 -925 l-6 -45 -300 -2 -300 -2 -23 24 c-37 40 -52
24 -52 -56 0 -56 3 -71 17 -76 11 -4 22 1 31 15 8 12 21 22 29 22 13 0 14 -39
8 -297 -9 -358 -7 -340 -30 -357 -11 -8 -16 -20 -12 -30 9 -24 115 -23 124 1
4 9 2 18 -3 20 -5 2 -16 8 -24 13 -43 27 19 30 606 31 330 0 605 4 612 8 13 8
15 99 26 1345 3 252 7 460 9 463 3 2 524 4 1160 3 1066 0 1155 1 1168 16 10
12 14 49 15 123 0 58 3 327 5 596 l4 490 -75 7 c-41 3 -194 6 -340 7 l-265 0
-20 26 c-18 22 -23 23 -39 12 -13 -10 -17 -24 -14 -67 3 -48 6 -55 26 -58 17
-3 22 2 22 17 0 21 3 21 319 21 208 0 322 -4 326 -10 6 -10 6 -532 1 -775 -1
-55 -3 -157 -4 -228 l-2 -127 -562 2 -563 3 -3 23 c-2 14 4 29 14 36 33 25 10
46 -50 46 -62 0 -79 -15 -47 -40 15 -11 22 -25 19 -41 l-3 -24 -534 -3 c-367
-1 -538 1 -545 8 -16 16 -8 1072 8 1082 6 4 138 8 292 8 266 0 282 1 295 19
13 17 30 19 184 22 94 1 203 2 243 1 l72 -2 0 -167 c0 -93 -3 -238 -7 -325 -6
-151 -7 -157 -29 -167 -15 -7 -22 -16 -18 -26 9 -22 132 -22 141 1 3 9 -3 21
-16 30 -22 16 -22 18 -21 321 1 168 4 312 7 319 8 22 54 17 60 -6 3 -11 14
-20 24 -20 13 0 19 10 24 44 9 59 4 80 -22 84 -14 2 -23 -3 -28 -17 -6 -21
-12 -21 -298 -21 -161 0 -298 4 -305 9 -11 7 -13 65 -8 317 3 170 5 420 6 557
0 203 2 247 14 247 7 0 20 -10 28 -22 10 -14 20 -19 32 -15 25 10 19 130 -6
135 -12 2 -21 -6 -28 -22 -11 -29 -13 -30 -41 -15 -13 7 -117 10 -292 10 -150
0 -278 4 -286 8 -12 8 -13 96 -9 551 4 373 9 544 16 549 11 7 1648 3 1670 -4z
m-4183 -1157 c3 -13 4 -131 3 -263 l-3 -240 -48 -3 c-79 -5 -77 -13 -71 266 3
135 7 249 10 254 3 4 27 8 54 8 43 0 50 -3 55 -22z m-160 -238 l0 -235 -45 0
-44 0 1 227 c1 125 4 232 8 238 4 6 23 10 43 8 l37 -3 0 -235z m-127 -3 l2
-218 -37 3 -38 3 4 210 c4 217 6 228 46 223 19 -3 20 -12 23 -221z m-113 3 l0
-195 -24 -3 c-13 -2 -28 1 -34 7 -10 10 -11 367 0 384 3 4 17 7 31 5 l27 -3 0
-195z m-107 -1 c2 -142 0 -168 -13 -173 -9 -3 -21 3 -30 17 -11 18 -14 52 -10
172 2 83 4 151 4 153 1 2 11 2 24 0 22 -3 22 -5 25 -169z m7099 -2211 c7 -5
13 -5 17 1 8 13 334 13 341 0 4 -5 14 -5 25 1 10 5 44 10 75 10 31 0 65 -5 75
-10 11 -6 21 -6 25 -1 7 13 307 12 322 0 8 -7 18 -7 32 0 27 15 127 14 151 -1
15 -10 22 -10 32 0 15 15 112 16 139 1 14 -7 24 -7 33 0 7 6 41 9 82 6 81 -5
71 -5 157 1 44 4 73 2 82 -6 10 -8 19 -9 35 0 11 6 42 10 68 8 l47 -3 -2 -295
c0 -162 -1 -299 -1 -305 0 -5 1 -71 3 -145 3 -79 0 -153 -7 -177 -8 -32 -8
-46 1 -56 8 -10 8 -35 2 -87 -6 -42 -6 -82 -1 -96 5 -13 5 -46 0 -76 -4 -29
-6 -92 -3 -139 4 -57 2 -88 -5 -93 -8 -5 -8 -15 -2 -32 23 -60 4 -178 -30
-189 -22 -7 -62 3 -71 17 -4 6 -15 5 -30 -3 -27 -14 -114 -13 -142 3 -12 6
-23 6 -32 -2 -9 -8 -37 -10 -77 -7 -124 10 -113 -3 -116 131 -2 80 1 123 9
133 9 10 9 17 1 25 -16 16 -15 121 0 136 9 9 9 17 -2 36 -8 16 -11 41 -7 70 6
42 4 47 -24 66 -20 15 -34 19 -42 12 -9 -7 -238 -10 -337 -3 -8 1 -32 -2 -53
-5 -23 -4 -43 -2 -52 6 -8 7 -15 8 -15 3 0 -5 -48 -8 -112 -7 -126 3 -118 3
-208 0 -36 -2 -70 1 -76 5 -6 5 -26 4 -45 -1 -19 -5 -97 -7 -174 -5 -77 3
-144 5 -150 4 -65 -5 -153 -4 -166 2 -9 4 -32 3 -52 -3 -19 -6 -44 -7 -54 -3
-21 9 -70 9 -127 1 -22 -3 -44 -2 -50 3 -6 5 -39 5 -72 1 -34 -4 -74 -6 -90
-3 -33 4 -50 5 -269 4 -88 0 -439 1 -780 2 l-620 2 3 55 c1 30 2 66 2 80 -4
158 1 334 10 345 9 11 59 13 258 10 136 -2 254 -4 262 -4 8 0 46 2 83 5 47 4
73 2 83 -7 11 -9 18 -9 26 -1 15 15 123 16 150 1 14 -8 23 -8 31 0 15 15 122
14 148 -1 17 -10 23 -10 26 0 3 7 23 12 53 12 27 0 52 4 55 10 3 5 8 98 11
207 2 109 7 213 10 230 3 18 1 41 -4 50 -5 10 -7 32 -5 50 l5 32 562 -1 c332
0 566 -4 573 -10z m-1884 -4863 c0 -88 -1 -171 -1 -185 -1 -14 -1 -52 0 -85 0
-33 -3 -75 -7 -93 -7 -29 -11 -32 -44 -32 -20 0 -42 5 -49 12 -9 9 -17 9 -34
1 -19 -9 -90 -11 -153 -3 -5 0 -41 -1 -80 -4 -38 -3 -75 0 -81 5 -8 6 -21 5
-38 -2 -31 -15 -36 -11 -42 32 -7 56 -9 493 -2 505 5 7 92 10 270 10 l263 -1
-2 -160z m3272 105 c11 0 40 1 65 4 25 2 62 -1 83 -6 20 -5 42 -6 48 -2 7 4
35 7 63 8 l51 1 0 -260 0 -260 -75 3 c-41 2 -84 3 -95 3 -73 -3 -151 2 -161
10 -7 6 -15 4 -23 -4 -8 -10 -29 -13 -73 -11 -34 2 -62 5 -64 7 -5 4 -6 96 -5
292 2 146 5 193 16 205 10 11 31 15 82 13 37 -2 77 -3 88 -3z"/>
<path d="M5500 8690 c0 -5 5 -10 10 -10 6 0 10 5 10 10 0 6 -4 10 -10 10 -5 0
-10 -4 -10 -10z"/>
<path d="M5655 8650 c-3 -5 1 -10 9 -10 9 0 16 5 16 10 0 6 -4 10 -9 10 -6 0
-13 -4 -16 -10z"/>
<path d="M5500 8510 c0 -5 5 -10 10 -10 6 0 10 5 10 10 0 6 -4 10 -10 10 -5 0
-10 -4 -10 -10z"/>
<path d="M5540 8370 c0 -5 5 -10 10 -10 6 0 10 5 10 10 0 6 -4 10 -10 10 -5 0
-10 -4 -10 -10z"/>
<path d="M5380 8310 c0 -5 5 -10 10 -10 6 0 10 5 10 10 0 6 -4 10 -10 10 -5 0
-10 -4 -10 -10z"/>
<path d="M5560 8130 c0 -5 5 -10 10 -10 6 0 10 5 10 10 0 6 -4 10 -10 10 -5 0
-10 -4 -10 -10z"/>
<path d="M5655 8110 c-3 -5 1 -10 9 -10 9 0 16 5 16 10 0 6 -4 10 -9 10 -6 0
-13 -4 -16 -10z"/>
<path d="M5340 7890 c0 -5 5 -10 10 -10 6 0 10 5 10 10 0 6 -4 10 -10 10 -5 0
-10 -4 -10 -10z"/>
<path d="M5520 7890 c0 -5 5 -10 10 -10 6 0 10 5 10 10 0 6 -4 10 -10 10 -5 0
-10 -4 -10 -10z"/>
<path d="M5160 7721 c0 -5 5 -13 10 -16 6 -3 10 -2 10 4 0 5 -4 13 -10 16 -5
3 -10 2 -10 -4z"/>
<path d="M5625 7701 c-3 -5 -1 -12 5 -16 5 -3 10 1 10 9 0 18 -6 21 -15 7z"/>
<path d="M4790 7630 c0 -5 5 -10 10 -10 6 0 10 5 10 10 0 6 -4 10 -10 10 -5 0
-10 -4 -10 -10z"/>
<path d="M4965 7630 c4 -6 11 -8 16 -5 14 9 11 15 -7 15 -8 0 -12 -5 -9 -10z"/>
<path d="M5320 7630 c0 -5 5 -10 10 -10 6 0 10 5 10 10 0 6 -4 10 -10 10 -5 0
-10 -4 -10 -10z"/>
<path d="M5500 7630 c0 -5 5 -10 10 -10 6 0 10 5 10 10 0 6 -4 10 -10 10 -5 0
-10 -4 -10 -10z"/>
<path d="M5225 7570 c-3 -5 1 -10 9 -10 9 0 16 5 16 10 0 6 -4 10 -9 10 -6 0
-13 -4 -16 -10z"/>
<path d="M5580 7570 c0 -5 5 -10 10 -10 6 0 10 5 10 10 0 6 -4 10 -10 10 -5 0
-10 -4 -10 -10z"/>
<path d="M5160 7545 c0 -8 5 -15 10 -15 6 0 10 7 10 15 0 8 -4 15 -10 15 -5 0
-10 -7 -10 -15z"/>
<path d="M4720 7470 c0 -5 5 -10 10 -10 6 0 10 5 10 10 0 6 -4 10 -10 10 -5 0
-10 -4 -10 -10z"/>
<path d="M4790 7450 c0 -5 5 -10 10 -10 6 0 10 5 10 10 0 6 -4 10 -10 10 -5 0
-10 -4 -10 -10z"/>
<path d="M4940 7410 c0 -5 5 -10 10 -10 6 0 10 5 10 10 0 6 -4 10 -10 10 -5 0
-10 -4 -10 -10z"/>
<path d="M5120 7410 c0 -5 5 -10 10 -10 6 0 10 5 10 10 0 6 -4 10 -10 10 -5 0
-10 -4 -10 -10z"/>
<path d="M4875 7390 c-3 -5 1 -10 10 -10 9 0 13 5 10 10 -3 6 -8 10 -10 10 -2
0 -7 -4 -10 -10z"/>
<path d="M5160 7370 c0 -5 5 -10 10 -10 6 0 10 5 10 10 0 6 -4 10 -10 10 -5 0
-10 -4 -10 -10z"/>
<path d="M4630 7355 c0 -8 4 -15 9 -15 5 0 11 7 15 15 3 9 0 15 -9 15 -8 0
-15 -7 -15 -15z"/>
<path d="M5340 7354 c0 -8 5 -12 10 -9 6 4 8 11 5 16 -9 14 -15 11 -15 -7z"/>
<path d="M5510 7361 c0 -6 5 -13 10 -16 6 -3 10 1 10 9 0 9 -4 16 -10 16 -5 0
-10 -4 -10 -9z"/>
<path d="M4218 8933 c-31 -19 -38 -39 -38 -106 0 -84 62 -142 119 -112 44 22
56 80 25 123 -13 19 -24 23 -57 20 -49 -3 -60 17 -26 47 20 19 21 19 34 1 15
-20 45 -16 45 7 0 37 -56 48 -102 20z m74 -148 c-5 -42 -18 -52 -42 -30 -35
32 -24 68 20 63 21 -3 25 -7 22 -33z"/>
<path d="M6298 8509 c-3 -8 -4 -39 -2 -69 1 -30 0 -76 -3 -102 -4 -38 -9 -48
-23 -48 -39 0 -37 -53 2 -66 l21 -6 -8 -652 c-4 -358 -8 -838 -9 -1066 l-1
-415 311 -3 c241 -2 314 1 322 10 7 9 13 313 19 893 l8 880 40 5 c63 8 1082
-4 1091 -13 8 -8 7 -662 -1 -913 -3 -76 -5 -158 -5 -181 l0 -43 -104 0 c-65 0
-107 4 -112 11 -4 7 -18 8 -38 4 -17 -4 -101 -10 -186 -14 l-155 -6 2 -85 c2
-47 2 -105 2 -130 0 -25 -1 -128 -2 -230 l-2 -185 610 -5 c336 -3 613 -3 617
0 11 8 16 345 24 1438 l6 982 -208 1 c-115 0 -312 2 -439 5 -126 2 -577 7
-1001 10 -652 6 -772 5 -776 -7z m1640 -88 c12 -21 22 -55 22 -75 0 -21 10
-52 24 -74 28 -44 40 -88 26 -97 -5 -3 -10 -1 -10 6 0 7 -9 33 -21 58 -55 119
-76 153 -96 162 -22 8 -31 38 -16 52 19 19 51 5 71 -32z m-1101 13 c6 -15 -14
-64 -27 -64 -6 0 -30 59 -30 73 0 14 51 6 57 -9z m883 -20 c0 -14 -4 -23 -10
-19 -5 3 -10 15 -10 26 0 10 5 19 10 19 6 0 10 -12 10 -26z m877 10 c3 -8 -4
-28 -16 -44 -27 -38 -27 -68 4 -121 29 -51 34 -79 10 -59 -15 12 -95 171 -95
189 0 6 -8 11 -19 11 -21 0 -45 23 -34 33 3 4 37 7 75 7 53 0 70 -4 75 -16z
m-2155 -33 c9 -18 29 -46 44 -62 18 -19 24 -33 19 -46 -7 -17 -7 -17 -18 1
-26 42 -81 96 -98 96 -22 0 -33 16 -25 36 11 28 59 13 78 -25z m621 32 c3 -5
8 -30 12 -58 l7 -50 -36 34 c-34 33 -44 59 -29 74 9 9 41 9 46 0z m238 -3 c10
-6 19 -19 19 -29 0 -10 7 -25 16 -32 21 -17 74 -130 73 -155 0 -17 -1 -17 -9
3 -5 12 -15 25 -22 30 -13 8 -28 31 -60 93 -10 19 -30 44 -46 57 -23 19 -25
24 -12 33 19 12 17 12 41 0z m909 -7 c0 -10 9 -33 21 -52 29 -48 17 -49 -30
-1 -41 42 -46 51 -34 63 13 14 43 7 43 -10z m110 -19 c0 -18 -14 -18 -30 1
-16 19 -3 40 16 24 8 -6 14 -18 14 -25z m-700 -6 c0 -6 7 -20 17 -30 21 -23 5
-23 -26 1 -16 12 -22 24 -18 35 7 18 27 13 27 -6z m-490 -139 c0 -18 -35 -5
-38 14 -3 16 -1 17 17 7 12 -6 21 -15 21 -21z m1170 15 c0 -8 -4 -12 -10 -9
-5 3 -10 10 -10 16 0 5 5 9 10 9 6 0 10 -7 10 -16z m-1900 -80 c0 -8 -5 -12
-10 -9 -6 4 -8 11 -5 16 9 14 15 11 15 -7z m-34 -137 c-3 -14 4 -29 24 -49 41
-39 37 -50 -10 -27 -36 18 -40 23 -40 58 0 21 3 41 6 44 12 12 26 -5 20 -26z
m43 -240 c30 -31 51 -60 47 -64 -4 -4 -10 -3 -14 2 -13 18 -72 44 -87 39 -12
-5 -15 3 -15 41 0 26 3 45 8 43 4 -1 31 -29 61 -61z m1751 36 c0 -5 29 -39 65
-76 66 -69 77 -87 50 -87 -8 0 -15 4 -15 8 0 5 -13 24 -30 42 -16 18 -30 38
-30 43 0 5 -13 6 -28 2 -23 -5 -30 -2 -38 17 -13 29 -7 58 12 58 8 0 14 -3 14
-7z m28 -262 c3 -8 -1 -12 -9 -9 -7 2 -15 10 -17 17 -3 8 1 12 9 9 7 -2 15
-10 17 -17z m-1618 -62 c0 -6 -4 -7 -10 -4 -5 3 -10 11 -10 16 0 6 5 7 10 4 6
-3 10 -11 10 -16z m-160 -94 c0 -3 -13 -5 -30 -5 -23 0 -30 4 -30 20 0 11 -7
20 -15 20 -15 0 -21 31 -9 43 6 6 84 -67 84 -78z m1742 23 c-1 -16 9 -34 33
-58 19 -19 35 -38 35 -42 0 -18 -31 -6 -64 26 -35 32 -43 57 -30 91 10 24 29
12 26 -17z m-1673 -69 c13 -11 21 -23 17 -26 -4 -4 -19 5 -34 20 -31 31 -19
36 17 6z m-76 -167 c59 -62 61 -81 5 -49 -24 14 -48 23 -55 20 -19 -7 -25 16
-18 65 5 30 10 41 14 30 3 -9 27 -39 54 -66z m1737 50 c0 -4 23 -31 50 -59 48
-49 61 -73 40 -73 -5 0 -10 4 -10 10 0 5 -16 17 -36 26 -35 17 -37 17 -50 -1
-12 -17 -14 -12 -14 43 0 35 4 62 10 62 6 0 10 -4 10 -8z m210 -342 c0 -5 -4
-10 -9 -10 -6 0 -13 5 -16 10 -3 6 1 10 9 10 9 0 16 -4 16 -10z m-163 -105
c-2 -5 -16 -11 -30 -13 -23 -3 -27 0 -27 21 0 14 -7 27 -15 31 -15 5 -21 37
-8 49 8 9 84 -75 80 -88z m-1818 54 c26 -35 22 -59 -10 -59 -18 0 -20 4 -15
25 5 18 2 25 -8 25 -18 0 -29 16 -21 30 11 18 31 11 54 -21z m97 -86 c21 -28
16 -35 -11 -17 -14 9 -25 20 -25 25 0 15 22 10 36 -8z m1804 -35 c0 -28 -49
12 -50 41 0 10 8 7 25 -9 14 -13 25 -27 25 -32z m-1915 -8 c3 -5 2 -10 -4 -10
-5 0 -13 5 -16 10 -3 6 -2 10 4 10 5 0 13 -4 16 -10z m1828 -37 l29 -23 -26 0
c-13 0 -27 4 -31 10 -9 14 -35 0 -35 -20 0 -10 20 -40 45 -66 42 -46 56 -74
37 -74 -5 0 -23 20 -41 45 -32 45 -74 66 -93 47 -7 -7 -4 -18 7 -35 26 -40 8
-52 -26 -17 -36 36 -38 92 -4 99 33 6 75 41 75 63 0 22 -2 23 63 -29z m-1792
-80 c53 -58 82 -117 37 -76 -32 29 -67 45 -84 39 -11 -4 -14 5 -14 40 0 40 2
44 18 35 9 -5 29 -22 43 -38z m1539 12 c0 -14 -6 -25 -13 -25 -8 0 -19 11 -25
25 -11 23 -10 25 13 25 20 0 25 -5 25 -25z m-282 -37 c13 -28 27 -116 17 -106
-5 4 -13 16 -19 27 -6 10 -19 30 -30 45 -15 21 -16 29 -6 41 17 20 25 19 38
-7z m302 -33 c7 -8 10 -24 7 -36 -4 -13 4 -36 19 -61 14 -21 22 -44 18 -50 -8
-13 -34 18 -34 41 0 9 -11 29 -23 45 -34 42 -21 102 13 61z m-250 -100 c0 -8
-4 -15 -10 -15 -5 0 -10 7 -10 15 0 8 5 15 10 15 6 0 10 -7 10 -15z m320 -141
c0 -8 -4 -14 -10 -14 -5 0 -10 9 -10 21 0 11 5 17 10 14 6 -3 10 -13 10 -21z
m-1662 -58 c17 -18 32 -36 32 -40 0 -3 -14 -6 -31 -6 -25 0 -29 3 -24 19 4 13
0 20 -15 24 -22 6 -28 37 -7 37 6 0 27 -15 45 -34z m102 -78 c11 -12 18 -24
15 -26 -7 -7 -55 27 -55 38 0 17 18 11 40 -12z"/>
<path d="M1721 8314 c-25 -32 -26 -43 -6 -71 13 -19 13 -25 -3 -52 -16 -29
-16 -32 0 -58 24 -40 81 -52 116 -26 34 25 43 88 16 108 -16 11 -16 17 -6 39
30 66 -72 118 -117 60z m77 -38 c3 -16 -12 -35 -28 -36 -11 0 -30 41 -24 51
10 16 48 6 52 -15z m12 -91 c14 -17 5 -51 -15 -59 -35 -13 -63 21 -45 55 13
23 43 25 60 4z"/>
<path d="M2405 7103 c-46 -5 -65 -18 -65 -44 0 -28 18 -32 46 -10 14 11 32 17
40 14 17 -6 17 -2 0 -50 -8 -22 -16 -62 -18 -89 -3 -43 -1 -49 17 -49 17 0 21
9 27 64 4 35 14 84 23 109 23 69 28 65 -70 55z"/>
<path d="M7483 7033 c-55 -86 -56 -103 -3 -103 41 0 52 -14 28 -38 -15 -15 13
-27 45 -18 19 4 22 12 22 46 0 22 -3 40 -7 40 -5 0 -8 32 -8 70 0 93 -19 94
-77 3z m37 -48 c0 -18 -5 -25 -20 -25 -23 0 -24 3 -8 30 17 27 28 25 28 -5z"/>
<path d="M3550 6531 c-33 -6 -35 -8 -36 -46 -1 -60 4 -68 39 -61 54 11 76 -38
39 -84 -22 -27 -42 -19 -42 16 0 17 -6 24 -19 24 -23 0 -31 -18 -20 -47 12
-33 40 -44 82 -32 42 11 57 33 57 83 0 39 -36 76 -75 76 -12 0 -25 3 -28 7
-14 13 17 33 50 33 27 0 34 4 31 18 -4 19 -26 23 -78 13z"/>
<path d="M3874 4949 c-9 -16 -24 -986 -27 -1813 -2 -492 -3 -519 -20 -530 -16
-9 -22 -7 -34 12 -16 22 -52 31 -54 12 -5 -74 -1 -105 15 -108 10 -2 27 6 37
17 24 25 27 26 50 5 15 -14 54 -16 296 -15 153 0 284 -3 292 -8 11 -7 12 -140
7 -807 -3 -440 -9 -828 -13 -864 -6 -50 -12 -66 -25 -68 -12 -2 -21 6 -28 23
-7 17 -16 25 -28 23 -14 -3 -17 -14 -17 -68 0 -55 3 -65 18 -68 12 -3 20 4 24
17 5 21 10 23 73 25 l35 1 6 395 c4 217 10 748 13 1180 4 432 9 791 11 798 7
20 41 14 57 -10 13 -20 17 -21 32 -9 23 19 23 116 -1 125 -11 5 -24 -2 -37
-19 -15 -18 -27 -24 -39 -20 -16 7 -17 42 -16 529 0 286 3 539 7 561 9 48 36
59 62 24 11 -14 23 -20 34 -16 24 9 23 115 -1 124 -11 4 -22 -1 -31 -15 -8
-13 -25 -22 -39 -22 l-25 0 4 290 c3 250 1 292 -12 300 -19 13 -618 11 -626
-1z m206 -52 c14 0 41 2 60 3 67 4 255 0 286 -6 34 -6 32 -3 35 -94 1 -14 0
-54 -1 -90 -1 -36 -1 -91 0 -122 2 -35 -1 -63 -9 -72 -9 -11 -10 -20 -1 -36 8
-15 8 -41 1 -92 -7 -49 -7 -76 0 -85 6 -7 7 -17 3 -24 -4 -6 -7 -70 -6 -140 0
-71 -3 -129 -8 -129 -4 0 -4 -19 0 -42 5 -24 6 -149 4 -278 -3 -129 -4 -244
-4 -255 1 -48 3 -264 2 -305 -1 -25 -1 -67 -1 -95 0 -262 -4 -416 -11 -420 -5
-3 -7 -12 -3 -20 6 -18 -47 -21 -64 -4 -9 9 -19 9 -42 -1 -19 -7 -50 -10 -83
-6 -61 7 -62 7 -148 2 -37 -3 -70 0 -78 6 -9 8 -19 7 -36 -1 -13 -7 -34 -11
-47 -9 l-24 3 -1 333 c-1 183 2 335 7 338 5 3 5 13 1 22 -10 21 -8 471 3 495
4 10 3 28 -3 41 -6 14 -7 49 -2 92 4 38 4 74 0 79 -5 6 -4 46 0 90 5 47 4 90
-2 104 -5 14 -6 43 -2 64 3 22 8 163 10 316 6 356 5 335 18 344 6 4 36 4 66 0
30 -4 66 -7 80 -6z"/>
<path d="M4220 4810 c0 -5 5 -10 10 -10 6 0 10 5 10 10 0 6 -4 10 -10 10 -5 0
-10 -4 -10 -10z"/>
<path d="M4380 4590 c0 -5 5 -10 10 -10 6 0 10 5 10 10 0 6 -4 10 -10 10 -5 0
-10 -4 -10 -10z"/>
<path d="M4345 4170 c-3 -5 1 -10 10 -10 9 0 13 5 10 10 -3 6 -8 10 -10 10 -2
0 -7 -4 -10 -10z"/>
<path d="M4080 3790 c0 -5 5 -10 10 -10 6 0 10 5 10 10 0 6 -4 10 -10 10 -5 0
-10 -4 -10 -10z"/>
<path d="M4370 3530 c0 -5 5 -10 10 -10 6 0 10 5 10 10 0 6 -4 10 -10 10 -5 0
-10 -4 -10 -10z"/>
<path d="M4300 3510 c0 -5 5 -10 10 -10 6 0 10 5 10 10 0 6 -4 10 -10 10 -5 0
-10 -4 -10 -10z"/>
<path d="M4210 3050 c0 -5 5 -10 10 -10 6 0 10 5 10 10 0 6 -4 10 -10 10 -5 0
-10 -4 -10 -10z"/>
<path d="M4120 2990 c0 -5 5 -10 10 -10 6 0 10 5 10 10 0 6 -4 10 -10 10 -5 0
-10 -4 -10 -10z"/>
<path d="M7728 4104 c-22 -11 -28 -22 -28 -48 0 -35 17 -50 40 -36 8 5 10 17
6 35 -6 24 -5 26 21 23 47 -5 42 -40 -17 -106 -65 -73 -64 -96 2 -100 59 -4
88 11 88 43 0 25 -23 35 -35 15 -6 -9 -55 -15 -55 -6 0 2 20 24 45 48 59 60
62 108 8 137 -28 14 -42 14 -75 -5z"/>
<path d="M5942 3697 c-26 -12 -40 -53 -23 -70 10 -9 16 -8 26 7 8 10 16 24 18
29 7 21 38 -2 35 -25 -2 -17 -11 -24 -31 -26 -35 -4 -33 -33 3 -42 35 -8 42
-65 9 -73 -30 -8 -39 -1 -39 29 0 33 -34 29 -38 -4 -8 -54 83 -86 121 -44 19
21 22 73 7 102 -7 13 -7 21 0 25 9 6 15 75 6 75 -2 0 -19 6 -37 14 -25 10 -40
11 -57 3z"/>
<path d="M6947 3204 c-4 -4 -7 -16 -7 -27 0 -19 -9 -19 -337 -17 -186 1 -344
2 -350 1 -9 -1 -13 -18 -13 -51 0 -42 -3 -50 -19 -50 -23 0 -35 -25 -18 -38
18 -13 106 -15 122 -2 16 13 9 40 -10 40 -19 0 -27 17 -20 40 6 19 16 20 264
20 202 0 261 -3 269 -13 10 -11 11 -264 3 -505 l-1 -33 -267 3 c-251 3 -268 4
-271 21 -2 11 6 29 18 42 31 33 18 45 -51 45 -52 0 -59 -2 -59 -20 0 -10 9
-24 20 -30 17 -9 20 -21 20 -90 0 -74 -1 -79 -22 -82 -15 -2 -23 -10 -23 -23
0 -17 7 -20 50 -21 28 -1 58 0 68 3 23 6 22 30 -3 43 -23 12 -27 55 -5 63 8 4
129 3 270 0 l255 -6 1 -26 c2 -44 -6 -462 -9 -489 -2 -10 -60 -12 -269 -10
-266 3 -268 3 -271 25 -2 14 3 23 16 28 27 8 35 33 14 44 -27 14 -122 1 -122
-16 0 -8 9 -17 20 -20 26 -7 34 -41 26 -106 -6 -39 -14 -57 -34 -73 -23 -19
-25 -24 -13 -38 9 -11 25 -14 55 -12 22 2 49 4 59 5 24 1 22 32 -3 38 -14 4
-20 14 -20 34 0 38 16 40 300 36 l235 -4 3 -277 2 -276 -267 2 -268 3 -3 27
c-2 20 2 28 18 33 15 5 20 13 18 28 -3 19 -9 22 -53 22 -27 0 -56 -1 -62 -3
-20 -6 -15 -43 7 -49 15 -4 20 -15 22 -57 l3 -51 344 -5 c340 -5 344 -5 358
-27 26 -39 43 -18 43 52 0 47 -4 64 -15 69 -11 4 -19 -3 -25 -20 -8 -20 -16
-25 -38 -22 l-27 3 0 250 c-1 138 1 260 3 273 l4 22 267 -2 266 -3 0 -275 0
-275 -22 -3 c-17 -3 -26 3 -33 22 -6 16 -17 26 -30 26 -19 0 -21 -5 -18 -67 2
-55 6 -68 20 -71 12 -2 21 6 28 24 l11 27 277 -6 c152 -3 309 -3 347 1 l70 7
3 49 c3 38 7 49 23 53 12 4 19 14 19 30 0 23 -2 24 -62 21 -52 -2 -63 -6 -66
-21 -2 -11 5 -25 18 -34 13 -9 20 -23 18 -36 -3 -22 -4 -22 -273 -22 l-270 0
-2 255 c-1 140 0 265 3 278 l4 22 268 -2 267 -3 3 -28 c3 -22 -1 -30 -17 -34
-12 -3 -21 -13 -21 -23 0 -15 10 -19 55 -22 30 -1 60 -2 65 0 16 6 12 34 -7
47 -12 9 -17 32 -20 83 -3 66 -2 72 23 95 15 14 23 30 20 36 -8 13 -105 15
-125 2 -17 -11 -7 -41 14 -41 10 0 15 -10 15 -30 l0 -30 -270 0 -270 0 0 28
c-2 253 1 495 5 502 4 6 110 10 265 10 254 0 260 0 271 -21 10 -19 7 -25 -17
-44 -25 -20 -27 -25 -15 -39 11 -13 28 -16 70 -14 50 3 56 6 59 26 3 17 -2 25
-16 29 -18 4 -21 15 -24 76 -3 64 -1 73 21 93 37 34 23 49 -43 48 -73 -2 -84
-12 -51 -48 21 -23 23 -31 14 -48 -10 -18 -17 -20 -56 -14 -25 3 -144 6 -264
6 l-219 0 0 264 c0 200 3 267 12 273 14 8 479 13 516 6 29 -7 31 -49 2 -58
-19 -6 -29 -44 -12 -46 4 0 32 -1 62 -2 50 -2 55 0 58 21 3 16 -2 22 -17 22
-17 0 -20 8 -23 53 l-3 52 -348 3 -348 2 -9 26 c-7 16 -16 24 -28 22 -14 -3
-18 -16 -20 -66 -3 -58 -1 -62 18 -62 12 0 30 10 39 22 23 28 47 18 53 -21 3
-17 2 -139 0 -271 l-5 -240 -271 2 -271 3 -3 267 c-2 265 -2 267 19 273 16 6
27 0 44 -21 20 -25 25 -27 39 -15 13 11 16 28 14 70 -3 48 -6 56 -23 59 -12 2
-24 0 -28 -4z m483 -704 c6 -8 7 -24 4 -35 -6 -18 -10 -144 -13 -376 l-1 -86
-32 -8 c-18 -5 -40 -8 -48 -7 -82 7 -202 7 -206 1 -7 -12 -51 -11 -59 0 -3 5
-47 7 -101 4 l-95 -6 0 54 c1 30 0 65 -1 79 -2 53 5 385 9 392 2 4 123 6 269
5 223 -2 266 -4 274 -17z"/>
<path d="M7100 1664 c0 -8 6 -22 14 -29 20 -20 21 -144 1 -151 -8 -4 -15 -12
-15 -20 0 -16 66 -19 90 -4 12 7 12 12 -4 29 -15 17 -18 34 -15 105 l4 86 -37
0 c-28 0 -38 -4 -38 -16z"/>
<path d="M7080 1359 c0 -18 2 -19 15 -9 8 7 15 16 15 21 0 5 -7 9 -15 9 -9 0
-15 -9 -15 -21z"/>
<path d="M3385 500 c-45 -50 -10 -130 57 -130 26 0 29 -3 22 -22 -11 -36 -27
-40 -47 -13 -21 28 -37 25 -37 -9 0 -31 18 -46 55 -46 46 0 76 46 82 124 4 52
2 65 -17 89 -27 34 -87 38 -115 7z m91 -46 c7 -28 -10 -54 -36 -54 -32 0 -42
62 -13 78 23 14 42 4 49 -24z"/>
<path d="M6666 5401 c-4 -7 -5 -15 -2 -18 9 -9 19 4 14 18 -4 11 -6 11 -12 0z"/>
<path d="M7370 5390 c0 -5 5 -10 10 -10 6 0 10 5 10 10 0 6 -4 10 -10 10 -5 0
-10 -4 -10 -10z"/>
<path d="M6460 5350 c0 -5 5 -10 10 -10 6 0 10 5 10 10 0 6 -4 10 -10 10 -5 0
-10 -4 -10 -10z"/>
<path d="M7060 5330 c0 -5 5 -10 10 -10 6 0 10 5 10 10 0 6 -4 10 -10 10 -5 0
-10 -4 -10 -10z"/>
<path d="M8980 5274 c0 -8 5 -12 10 -9 6 3 10 10 10 16 0 5 -4 9 -10 9 -5 0
-10 -7 -10 -16z"/>
<path d="M9160 5274 c0 -8 5 -12 10 -9 6 3 10 10 10 16 0 5 -4 9 -10 9 -5 0
-10 -7 -10 -16z"/>
<path d="M8800 5270 c0 -5 5 -10 10 -10 6 0 10 5 10 10 0 6 -4 10 -10 10 -5 0
-10 -4 -10 -10z"/>
<path d="M7260 5234 c0 -8 5 -12 10 -9 6 3 10 10 10 16 0 5 -4 9 -10 9 -5 0
-10 -7 -10 -16z"/>
<path d="M7900 5210 c0 -5 5 -10 10 -10 6 0 10 5 10 10 0 6 -4 10 -10 10 -5 0
-10 -4 -10 -10z"/>
<path d="M8080 5210 c0 -5 5 -10 10 -10 6 0 10 5 10 10 0 6 -4 10 -10 10 -5 0
-10 -4 -10 -10z"/>
<path d="M8960 5210 c0 -5 5 -10 10 -10 6 0 10 5 10 10 0 6 -4 10 -10 10 -5 0
-10 -4 -10 -10z"/>
<path d="M7520 5170 c0 -5 5 -10 10 -10 6 0 10 5 10 10 0 6 -4 10 -10 10 -5 0
-10 -4 -10 -10z"/>
<path d="M8820 5150 c0 -5 5 -10 10 -10 6 0 10 5 10 10 0 6 -4 10 -10 10 -5 0
-10 -4 -10 -10z"/>
<path d="M8100 5110 c0 -5 5 -10 10 -10 6 0 10 5 10 10 0 6 -4 10 -10 10 -5 0
-10 -4 -10 -10z"/>
<path d="M8800 5110 c0 -5 5 -10 10 -10 6 0 10 5 10 10 0 6 -4 10 -10 10 -5 0
-10 -4 -10 -10z"/>
<path d="M6550 5070 c0 -5 5 -10 10 -10 6 0 10 5 10 10 0 6 -4 10 -10 10 -5 0
-10 -4 -10 -10z"/>
<path d="M8220 4990 c0 -5 5 -10 10 -10 6 0 10 5 10 10 0 6 -4 10 -10 10 -5 0
-10 -4 -10 -10z"/>
<path d="M7470 4950 c0 -5 5 -10 10 -10 6 0 10 5 10 10 0 6 -4 10 -10 10 -5 0
-10 -4 -10 -10z"/>
<path d="M8620 4930 c0 -5 5 -10 10 -10 6 0 10 5 10 10 0 6 -4 10 -10 10 -5 0
-10 -4 -10 -10z"/>
<path d="M6720 4890 c0 -5 5 -10 10 -10 6 0 10 5 10 10 0 6 -4 10 -10 10 -5 0
-10 -4 -10 -10z"/>
<path d="M8780 4866 c0 -9 5 -16 10 -16 6 0 10 4 10 9 0 6 -4 13 -10 16 -5 3
-10 -1 -10 -9z"/>
<path d="M6740 4850 c0 -5 5 -10 10 -10 6 0 10 5 10 10 0 6 -4 10 -10 10 -5 0
-10 -4 -10 -10z"/>
<path d="M7520 4820 c0 -5 5 -10 10 -10 6 0 10 5 10 10 0 6 -4 10 -10 10 -5 0
-10 -4 -10 -10z"/>
<path d="M5280 4810 c0 -5 5 -10 10 -10 6 0 10 5 10 10 0 6 -4 10 -10 10 -5 0
-10 -4 -10 -10z"/>
<path d="M5460 4810 c0 -5 5 -10 10 -10 6 0 10 5 10 10 0 6 -4 10 -10 10 -5 0
-10 -4 -10 -10z"/>
<path d="M5640 4810 c0 -5 5 -10 10 -10 6 0 10 5 10 10 0 6 -4 10 -10 10 -5 0
-10 -4 -10 -10z"/>
<path d="M6060 4790 c0 -5 5 -10 10 -10 6 0 10 5 10 10 0 6 -4 10 -10 10 -5 0
-10 -4 -10 -10z"/>
<path d="M6240 4780 c0 -5 5 -10 10 -10 6 0 10 5 10 10 0 6 -4 10 -10 10 -5 0
-10 -4 -10 -10z"/>
<path d="M7960 4710 c0 -5 5 -10 10 -10 6 0 10 5 10 10 0 6 -4 10 -10 10 -5 0
-10 -4 -10 -10z"/>
<path d="M5590 4690 c0 -5 5 -10 10 -10 6 0 10 5 10 10 0 6 -4 10 -10 10 -5 0
-10 -4 -10 -10z"/>
<path d="M5760 4690 c0 -5 7 -10 15 -10 8 0 15 5 15 10 0 6 -7 10 -15 10 -8 0
-15 -4 -15 -10z"/>
<path d="M6120 4690 c0 -5 5 -10 10 -10 6 0 10 5 10 10 0 6 -4 10 -10 10 -5 0
-10 -4 -10 -10z"/>
<path d="M6480 4690 c0 -5 5 -10 10 -10 6 0 10 5 10 10 0 6 -4 10 -10 10 -5 0
-10 -4 -10 -10z"/>
<path d="M5390 4650 c0 -5 5 -10 10 -10 6 0 10 5 10 10 0 6 -4 10 -10 10 -5 0
-10 -4 -10 -10z"/>
<path d="M5990 4630 c0 -5 7 -10 16 -10 8 0 12 5 9 10 -3 6 -10 10 -16 10 -5
0 -9 -4 -9 -10z"/>
<path d="M5260 4590 c0 -5 5 -10 10 -10 6 0 10 5 10 10 0 6 -4 10 -10 10 -5 0
-10 -4 -10 -10z"/>
<path d="M5440 4590 c0 -5 5 -10 10 -10 6 0 10 5 10 10 0 6 -4 10 -10 10 -5 0
-10 -4 -10 -10z"/>
<path d="M5965 4590 c-3 -5 1 -10 10 -10 9 0 13 5 10 10 -3 6 -8 10 -10 10 -2
0 -7 -4 -10 -10z"/>
<path d="M9080 4550 c0 -5 5 -10 10 -10 6 0 10 5 10 10 0 6 -4 10 -10 10 -5 0
-10 -4 -10 -10z"/>
<path d="M7600 4530 c0 -5 5 -10 10 -10 6 0 10 5 10 10 0 6 -4 10 -10 10 -5 0
-10 -4 -10 -10z"/>
<path d="M7780 4530 c0 -5 5 -10 10 -10 6 0 10 5 10 10 0 6 -4 10 -10 10 -5 0
-10 -4 -10 -10z"/>
<path d="M8480 4530 c0 -5 5 -10 10 -10 6 0 10 5 10 10 0 6 -4 10 -10 10 -5 0
-10 -4 -10 -10z"/>
<path d="M8840 4530 c0 -5 5 -10 10 -10 6 0 10 5 10 10 0 6 -4 10 -10 10 -5 0
-10 -4 -10 -10z"/>
<path d="M8070 4510 c0 -5 5 -10 10 -10 6 0 10 5 10 10 0 6 -4 10 -10 10 -5 0
-10 -4 -10 -10z"/>
<path d="M8240 4510 c0 -5 5 -10 10 -10 6 0 10 5 10 10 0 6 -4 10 -10 10 -5 0
-10 -4 -10 -10z"/>
<path d="M5855 4501 c-6 -11 9 -23 19 -14 9 9 7 23 -3 23 -6 0 -12 -4 -16 -9z"/>
<path d="M6107 4483 c-4 -3 -7 -11 -7 -17 0 -6 5 -5 12 2 6 6 9 14 7 17 -3 3
-9 2 -12 -2z"/>
<path d="M5920 4470 c0 -5 5 -10 10 -10 6 0 10 5 10 10 0 6 -4 10 -10 10 -5 0
-10 -4 -10 -10z"/>
<path d="M6460 4470 c0 -5 5 -10 10 -10 6 0 10 5 10 10 0 6 -4 10 -10 10 -5 0
-10 -4 -10 -10z"/>
<path d="M7760 4450 c0 -5 5 -10 10 -10 6 0 10 5 10 10 0 6 -4 10 -10 10 -5 0
-10 -4 -10 -10z"/>
<path d="M5960 4410 c0 -5 5 -10 10 -10 6 0 10 5 10 10 0 6 -4 10 -10 10 -5 0
-10 -4 -10 -10z"/>
<path d="M8900 4194 c0 -8 5 -12 10 -9 6 4 8 11 5 16 -9 14 -15 11 -15 -7z"/>
<path d="M8880 4070 c0 -5 5 -10 10 -10 6 0 10 5 10 10 0 6 -4 10 -10 10 -5 0
-10 -4 -10 -10z"/>
<path d="M8900 4020 c0 -5 5 -10 10 -10 6 0 10 5 10 10 0 6 -4 10 -10 10 -5 0
-10 -4 -10 -10z"/>
<path d="M9010 4000 c0 -5 5 -10 10 -10 6 0 10 5 10 10 0 6 -4 10 -10 10 -5 0
-10 -4 -10 -10z"/>
<path d="M8870 3890 c0 -5 7 -10 16 -10 8 0 12 5 9 10 -3 6 -10 10 -16 10 -5
0 -9 -4 -9 -10z"/>
<path d="M9060 3890 c0 -5 5 -10 10 -10 6 0 10 5 10 10 0 6 -4 10 -10 10 -5 0
-10 -4 -10 -10z"/>
<path d="M1970 9070 c0 -5 5 -10 10 -10 6 0 10 5 10 10 0 6 -4 10 -10 10 -5 0
-10 -4 -10 -10z"/>
<path d="M1320 9050 c0 -5 5 -10 10 -10 6 0 10 5 10 10 0 6 -4 10 -10 10 -5 0
-10 -4 -10 -10z"/>
<path d="M1500 9050 c0 -5 5 -10 10 -10 6 0 10 5 10 10 0 6 -4 10 -10 10 -5 0
-10 -4 -10 -10z"/>
<path d="M1680 9050 c0 -5 7 -10 15 -10 8 0 15 5 15 10 0 6 -7 10 -15 10 -8 0
-15 -4 -15 -10z"/>
<path d="M2040 9050 c0 -5 5 -10 10 -10 6 0 10 5 10 10 0 6 -4 10 -10 10 -5 0
-10 -4 -10 -10z"/>
<path d="M2210 9050 c0 -5 7 -10 15 -10 8 0 15 5 15 10 0 6 -7 10 -15 10 -8 0
-15 -4 -15 -10z"/>
<path d="M2915 9040 c4 -6 11 -8 16 -5 14 9 11 15 -7 15 -8 0 -12 -5 -9 -10z"/>
<path d="M1950 9030 c0 -5 5 -10 10 -10 6 0 10 5 10 10 0 6 -4 10 -10 10 -5 0
-10 -4 -10 -10z"/>
<path d="M990 9010 c0 -5 5 -10 10 -10 6 0 10 5 10 10 0 6 -4 10 -10 10 -5 0
-10 -4 -10 -10z"/>
<path d="M3180 9010 c0 -5 5 -10 10 -10 6 0 10 5 10 10 0 6 -4 10 -10 10 -5 0
-10 -4 -10 -10z"/>
<path d="M1280 8990 c0 -5 5 -10 10 -10 6 0 10 5 10 10 0 6 -4 10 -10 10 -5 0
-10 -4 -10 -10z"/>
<path d="M1460 8990 c0 -5 5 -10 10 -10 6 0 10 5 10 10 0 6 -4 10 -10 10 -5 0
-10 -4 -10 -10z"/>
<path d="M150 8970 c0 -5 7 -10 15 -10 8 0 15 5 15 10 0 6 -7 10 -15 10 -8 0
-15 -4 -15 -10z"/>
<path d="M510 8970 c0 -5 7 -10 16 -10 8 0 12 5 9 10 -3 6 -10 10 -16 10 -5 0
-9 -4 -9 -10z"/>
<path d="M860 8970 c0 -5 5 -10 10 -10 6 0 10 5 10 10 0 6 -4 10 -10 10 -5 0
-10 -4 -10 -10z"/>
<path d="M3050 8970 c0 -5 5 -10 10 -10 6 0 10 5 10 10 0 6 -4 10 -10 10 -5 0
-10 -4 -10 -10z"/>
<path d="M3220 8970 c0 -5 7 -10 15 -10 8 0 15 5 15 10 0 6 -7 10 -15 10 -8 0
-15 -4 -15 -10z"/>
<path d="M1920 8950 c0 -5 5 -10 10 -10 6 0 10 5 10 10 0 6 -4 10 -10 10 -5 0
-10 -4 -10 -10z"/>
<path d="M2980 8950 c0 -5 5 -10 10 -10 6 0 10 5 10 10 0 6 -4 10 -10 10 -5 0
-10 -4 -10 -10z"/>
<path d="M130 8930 c0 -5 5 -10 10 -10 6 0 10 5 10 10 0 6 -4 10 -10 10 -5 0
-10 -4 -10 -10z"/>
<path d="M2010 8930 c0 -5 5 -10 10 -10 6 0 10 5 10 10 0 6 -4 10 -10 10 -5 0
-10 -4 -10 -10z"/>
<path d="M2360 8930 c0 -5 5 -10 10 -10 6 0 10 5 10 10 0 6 -4 10 -10 10 -5 0
-10 -4 -10 -10z"/>
<path d="M2890 8930 c0 -5 7 -10 15 -10 8 0 15 5 15 10 0 6 -7 10 -15 10 -8 0
-15 -4 -15 -10z"/>
<path d="M3070 8930 c0 -5 5 -10 10 -10 6 0 10 5 10 10 0 6 -4 10 -10 10 -5 0
-10 -4 -10 -10z"/>
<path d="M3245 8930 c3 -5 10 -10 16 -10 5 0 9 5 9 10 0 6 -7 10 -16 10 -8 0
-12 -4 -9 -10z"/>
<path d="M200 8910 c0 -5 5 -10 10 -10 6 0 10 5 10 10 0 6 -4 10 -10 10 -5 0
-10 -4 -10 -10z"/>
<path d="M1430 8890 c0 -5 5 -10 10 -10 6 0 10 5 10 10 0 6 -4 10 -10 10 -5 0
-10 -4 -10 -10z"/>
<path d="M1790 8890 c0 -5 5 -10 10 -10 6 0 10 5 10 10 0 6 -4 10 -10 10 -5 0
-10 -4 -10 -10z"/>
<path d="M3030 8890 c0 -5 5 -10 10 -10 6 0 10 5 10 10 0 6 -4 10 -10 10 -5 0
-10 -4 -10 -10z"/>
<path d="M1325 8879 c-10 -15 3 -25 16 -12 7 7 7 13 1 17 -6 3 -14 1 -17 -5z"/>
<path d="M2915 8860 c3 -5 10 -10 16 -10 5 0 9 5 9 10 0 6 -7 10 -16 10 -8 0
-12 -4 -9 -10z"/>
<path d="M520 8850 c0 -5 7 -10 15 -10 8 0 15 5 15 10 0 6 -7 10 -15 10 -8 0
-15 -4 -15 -10z"/>
<path d="M880 8850 c0 -5 5 -10 10 -10 6 0 10 5 10 10 0 6 -4 10 -10 10 -5 0
-10 -4 -10 -10z"/>
<path d="M990 8830 c0 -5 7 -10 15 -10 8 0 15 5 15 10 0 6 -7 10 -15 10 -8 0
-15 -4 -15 -10z"/>
<path d="M1166 8831 c-4 -5 -2 -12 3 -15 5 -4 12 -2 15 3 4 5 2 12 -3 15 -5 4
-12 2 -15 -3z"/>
<path d="M740 8810 c0 -5 5 -10 10 -10 6 0 10 5 10 10 0 6 -4 10 -10 10 -5 0
-10 -4 -10 -10z"/>
<path d="M2935 8810 c3 -5 10 -10 16 -10 5 0 9 5 9 10 0 6 -7 10 -16 10 -8 0
-12 -4 -9 -10z"/>
<path d="M3120 8810 c0 -5 5 -10 10 -10 6 0 10 5 10 10 0 6 -4 10 -10 10 -5 0
-10 -4 -10 -10z"/>
<path d="M150 8790 c0 -5 5 -10 10 -10 6 0 10 5 10 10 0 6 -4 10 -10 10 -5 0
-10 -4 -10 -10z"/>
<path d="M680 8790 c0 -5 5 -10 10 -10 6 0 10 5 10 10 0 6 -4 10 -10 10 -5 0
-10 -4 -10 -10z"/>
<path d="M2860 8790 c0 -5 7 -10 15 -10 8 0 15 5 15 10 0 6 -7 10 -15 10 -8 0
-15 -4 -15 -10z"/>
<path d="M1740 8770 c0 -5 4 -10 9 -10 6 0 13 5 16 10 3 6 -1 10 -9 10 -9 0
-16 -4 -16 -10z"/>
<path d="M2270 8770 c0 -5 5 -10 10 -10 6 0 10 5 10 10 0 6 -4 10 -10 10 -5 0
-10 -4 -10 -10z"/>
<path d="M2445 8770 c3 -5 10 -10 16 -10 5 0 9 5 9 10 0 6 -7 10 -16 10 -8 0
-12 -4 -9 -10z"/>
<path d="M2800 8770 c0 -5 7 -10 16 -10 8 0 12 5 9 10 -3 6 -10 10 -16 10 -5
0 -9 -4 -9 -10z"/>
<path d="M2010 8750 c0 -5 5 -10 10 -10 6 0 10 5 10 10 0 6 -4 10 -10 10 -5 0
-10 -4 -10 -10z"/>
<path d="M830 8730 c0 -5 4 -10 9 -10 6 0 13 5 16 10 3 6 -1 10 -9 10 -9 0
-16 -4 -16 -10z"/>
<path d="M1900 8730 c0 -5 5 -10 10 -10 6 0 10 5 10 10 0 6 -4 10 -10 10 -5 0
-10 -4 -10 -10z"/>
<path d="M720 8710 c0 -5 5 -10 10 -10 6 0 10 5 10 10 0 6 -4 10 -10 10 -5 0
-10 -4 -10 -10z"/>
<path d="M900 8710 c0 -5 5 -10 10 -10 6 0 10 5 10 10 0 6 -4 10 -10 10 -5 0
-10 -4 -10 -10z"/>
<path d="M1250 8710 c0 -5 7 -10 15 -10 8 0 15 5 15 10 0 6 -7 10 -15 10 -8 0
-15 -4 -15 -10z"/>
<path d="M1430 8710 c0 -5 7 -10 15 -10 8 0 15 5 15 10 0 6 -7 10 -15 10 -8 0
-15 -4 -15 -10z"/>
<path d="M2025 8690 c-3 -5 1 -10 10 -10 9 0 13 5 10 10 -3 6 -8 10 -10 10 -2
0 -7 -4 -10 -10z"/>
<path d="M520 8670 c0 -5 5 -10 10 -10 6 0 10 5 10 10 0 6 -4 10 -10 10 -5 0
-10 -4 -10 -10z"/>
<path d="M460 8650 c0 -5 5 -10 10 -10 6 0 10 5 10 10 0 6 -4 10 -10 10 -5 0
-10 -4 -10 -10z"/>
<path d="M2760 8630 c0 -5 5 -10 10 -10 6 0 10 5 10 10 0 6 -4 10 -10 10 -5 0
-10 -4 -10 -10z"/>
<path d="M2330 8610 c0 -5 7 -10 15 -10 8 0 15 5 15 10 0 6 -7 10 -15 10 -8 0
-15 -4 -15 -10z"/>
<path d="M2680 8610 c0 -5 7 -10 16 -10 8 0 12 5 9 10 -3 6 -10 10 -16 10 -5
0 -9 -4 -9 -10z"/>
<path d="M2860 8610 c0 -5 7 -10 15 -10 8 0 15 5 15 10 0 6 -7 10 -15 10 -8 0
-15 -4 -15 -10z"/>
<path d="M1560 8590 c0 -5 4 -10 9 -10 6 0 13 5 16 10 3 6 -1 10 -9 10 -9 0
-16 -4 -16 -10z"/>
<path d="M1740 8590 c0 -5 7 -10 15 -10 8 0 15 5 15 10 0 6 -7 10 -15 10 -8 0
-15 -4 -15 -10z"/>
<path d="M1250 8530 c0 -5 5 -10 10 -10 6 0 10 5 10 10 0 6 -4 10 -10 10 -5 0
-10 -4 -10 -10z"/>
<path d="M1420 8530 c0 -5 5 -10 10 -10 6 0 10 5 10 10 0 6 -4 10 -10 10 -5 0
-10 -4 -10 -10z"/>
<path d="M2895 8390 c-3 -5 1 -10 10 -10 9 0 13 5 10 10 -3 6 -8 10 -10 10 -2
0 -7 -4 -10 -10z"/>
<path d="M1430 8350 c0 -5 7 -10 15 -10 8 0 15 5 15 10 0 6 -7 10 -15 10 -8 0
-15 -4 -15 -10z"/>
<path d="M2840 8170 c0 -5 7 -10 16 -10 8 0 12 5 9 10 -3 6 -10 10 -16 10 -5
0 -9 -4 -9 -10z"/>
<path d="M3200 8170 c0 -5 5 -10 10 -10 6 0 10 5 10 10 0 6 -4 10 -10 10 -5 0
-10 -4 -10 -10z"/>
<path d="M3130 8010 c0 -5 5 -10 10 -10 6 0 10 5 10 10 0 6 -4 10 -10 10 -5 0
-10 -4 -10 -10z"/>
<path d="M3020 7810 c0 -5 5 -10 10 -10 6 0 10 5 10 10 0 6 -4 10 -10 10 -5 0
-10 -4 -10 -10z"/>
<path d="M3280 7750 c0 -5 5 -10 10 -10 6 0 10 5 10 10 0 6 -4 10 -10 10 -5 0
-10 -4 -10 -10z"/>
<path d="M3460 7750 c0 -5 5 -10 10 -10 6 0 10 5 10 10 0 6 -4 10 -10 10 -5 0
-10 -4 -10 -10z"/>
<path d="M3640 7750 c0 -5 5 -10 10 -10 6 0 10 5 10 10 0 6 -4 10 -10 10 -5 0
-10 -4 -10 -10z"/>
<path d="M3395 7730 c-3 -5 1 -10 10 -10 9 0 13 5 10 10 -3 6 -8 10 -10 10 -2
0 -7 -4 -10 -10z"/>
<path d="M1070 7650 c0 -5 7 -10 16 -10 8 0 12 5 9 10 -3 6 -10 10 -16 10 -5
0 -9 -4 -9 -10z"/>
<path d="M1430 7650 c0 -5 5 -10 10 -10 6 0 10 5 10 10 0 6 -4 10 -10 10 -5 0
-10 -4 -10 -10z"/>
<path d="M3180 7590 c0 -5 5 -10 10 -10 6 0 10 5 10 10 0 6 -4 10 -10 10 -5 0
-10 -4 -10 -10z"/>
<path d="M3350 7590 c0 -5 5 -10 10 -10 6 0 10 5 10 10 0 6 -4 10 -10 10 -5 0
-10 -4 -10 -10z"/>
<path d="M3100 7570 c0 -5 7 -10 15 -10 8 0 15 5 15 10 0 6 -7 10 -15 10 -8 0
-15 -4 -15 -10z"/>
<path d="M3805 7570 c-3 -5 1 -10 9 -10 9 0 16 5 16 10 0 6 -4 10 -9 10 -6 0
-13 -4 -16 -10z"/>
<path d="M2860 7550 c0 -5 5 -10 10 -10 6 0 10 5 10 10 0 6 -4 10 -10 10 -5 0
-10 -4 -10 -10z"/>
<path d="M1350 7490 c0 -5 5 -10 10 -10 6 0 10 5 10 10 0 6 -4 10 -10 10 -5 0
-10 -4 -10 -10z"/>
<path d="M3480 7480 c0 -5 5 -10 10 -10 6 0 10 5 10 10 0 6 -4 10 -10 10 -5 0
-10 -4 -10 -10z"/>
<path d="M3440 7430 c0 -5 5 -10 10 -10 6 0 10 5 10 10 0 6 -4 10 -10 10 -5 0
-10 -4 -10 -10z"/>
<path d="M3520 7410 c0 -5 5 -10 10 -10 6 0 10 5 10 10 0 6 -4 10 -10 10 -5 0
-10 -4 -10 -10z"/>
<path d="M3390 7370 c0 -5 5 -10 10 -10 6 0 10 5 10 10 0 6 -4 10 -10 10 -5 0
-10 -4 -10 -10z"/>
<path d="M1175 7310 c-3 -5 1 -10 10 -10 9 0 13 5 10 10 -3 6 -8 10 -10 10 -2
0 -7 -4 -10 -10z"/>
<path d="M1360 7310 c0 -5 5 -10 10 -10 6 0 10 5 10 10 0 6 -4 10 -10 10 -5 0
-10 -4 -10 -10z"/>
<path d="M2840 7274 c0 -8 5 -12 10 -9 6 3 10 10 10 16 0 5 -4 9 -10 9 -5 0
-10 -7 -10 -16z"/>
<path d="M1980 7190 c0 -5 5 -10 10 -10 6 0 10 5 10 10 0 6 -4 10 -10 10 -5 0
-10 -4 -10 -10z"/>
<path d="M2860 7190 c0 -5 5 -10 10 -10 6 0 10 5 10 10 0 6 -4 10 -10 10 -5 0
-10 -4 -10 -10z"/>
<path d="M3740 7190 c0 -5 5 -10 10 -10 6 0 10 5 10 10 0 6 -4 10 -10 10 -5 0
-10 -4 -10 -10z"/>
<path d="M3680 7170 c0 -5 5 -10 10 -10 6 0 10 5 10 10 0 6 -4 10 -10 10 -5 0
-10 -4 -10 -10z"/>
<path d="M1460 7150 c0 -5 7 -10 15 -10 8 0 15 5 15 10 0 6 -7 10 -15 10 -8 0
-15 -4 -15 -10z"/>
<path d="M885 7110 c-3 -5 1 -10 9 -10 9 0 16 5 16 10 0 6 -4 10 -9 10 -6 0
-13 -4 -16 -10z"/>
<path d="M1070 7110 c0 -5 5 -10 10 -10 6 0 10 5 10 10 0 6 -4 10 -10 10 -5 0
-10 -4 -10 -10z"/>
<path d="M1420 7110 c0 -5 5 -10 10 -10 6 0 10 5 10 10 0 6 -4 10 -10 10 -5 0
-10 -4 -10 -10z"/>
<path d="M3430 7070 c0 -5 7 -10 15 -10 8 0 15 5 15 10 0 6 -7 10 -15 10 -8 0
-15 -4 -15 -10z"/>
<path d="M3170 7050 c0 -5 5 -10 10 -10 6 0 10 5 10 10 0 6 -4 10 -10 10 -5 0
-10 -4 -10 -10z"/>
<path d="M3100 7030 c0 -5 5 -10 10 -10 6 0 10 5 10 10 0 6 -4 10 -10 10 -5 0
-10 -4 -10 -10z"/>
<path d="M3390 7010 c0 -5 5 -10 10 -10 6 0 10 5 10 10 0 6 -4 10 -10 10 -5 0
-10 -4 -10 -10z"/>
<path d="M3500 6990 c0 -5 5 -10 10 -10 6 0 10 5 10 10 0 6 -4 10 -10 10 -5 0
-10 -4 -10 -10z"/>
<path d="M2000 6970 c0 -5 5 -10 10 -10 6 0 10 5 10 10 0 6 -4 10 -10 10 -5 0
-10 -4 -10 -10z"/>
<path d="M3720 6920 c0 -5 5 -10 10 -10 6 0 10 5 10 10 0 6 -4 10 -10 10 -5 0
-10 -4 -10 -10z"/>
<path d="M510 6890 c0 -5 4 -10 9 -10 6 0 13 5 16 10 3 6 -1 10 -9 10 -9 0
-16 -4 -16 -10z"/>
<path d="M860 6890 c0 -5 7 -10 15 -10 8 0 15 5 15 10 0 6 -7 10 -15 10 -8 0
-15 -4 -15 -10z"/>
<path d="M3280 6850 c0 -5 5 -10 10 -10 6 0 10 5 10 10 0 6 -4 10 -10 10 -5 0
-10 -4 -10 -10z"/>
<path d="M900 6841 c0 -6 5 -13 10 -16 6 -3 10 1 10 9 0 9 -4 16 -10 16 -5 0
-10 -4 -10 -9z"/>
<path d="M1795 6839 c-4 -6 -5 -13 -2 -16 7 -7 27 6 27 18 0 12 -17 12 -25 -2z"/>
<path d="M2860 6836 c0 -9 5 -16 10 -16 6 0 10 4 10 9 0 6 -4 13 -10 16 -5 3
-10 -1 -10 -9z"/>
<path d="M3205 6830 c3 -5 10 -10 16 -10 5 0 9 5 9 10 0 6 -7 10 -16 10 -8 0
-12 -4 -9 -10z"/>
<path d="M3560 6830 c0 -5 5 -10 10 -10 6 0 10 5 10 10 0 6 -4 10 -10 10 -5 0
-10 -4 -10 -10z"/>
<path d="M3740 6830 c0 -5 5 -10 10 -10 6 0 10 5 10 10 0 6 -4 10 -10 10 -5 0
-10 -4 -10 -10z"/>
<path d="M1720 6810 c0 -5 5 -10 10 -10 6 0 10 5 10 10 0 6 -4 10 -10 10 -5 0
-10 -4 -10 -10z"/>
<path d="M1460 6790 c0 -5 5 -10 10 -10 6 0 10 5 10 10 0 6 -4 10 -10 10 -5 0
-10 -4 -10 -10z"/>
<path d="M1640 6790 c0 -5 5 -10 10 -10 6 0 10 5 10 10 0 6 -4 10 -10 10 -5 0
-10 -4 -10 -10z"/>
<path d="M3045 6790 c-3 -5 1 -10 9 -10 9 0 16 5 16 10 0 6 -4 10 -9 10 -6 0
-13 -4 -16 -10z"/>
<path d="M3230 6790 c0 -5 5 -10 10 -10 6 0 10 5 10 10 0 6 -4 10 -10 10 -5 0
-10 -4 -10 -10z"/>
<path d="M1880 6770 c0 -5 5 -10 10 -10 6 0 10 5 10 10 0 6 -4 10 -10 10 -5 0
-10 -4 -10 -10z"/>
<path d="M3125 6769 c-10 -15 3 -25 16 -12 7 7 7 13 1 17 -6 3 -14 1 -17 -5z"/>
<path d="M2940 6760 c0 -5 5 -10 10 -10 6 0 10 5 10 10 0 6 -4 10 -10 10 -5 0
-10 -4 -10 -10z"/>
<path d="M3140 6630 c0 -5 5 -10 10 -10 6 0 10 5 10 10 0 6 -4 10 -10 10 -5 0
-10 -4 -10 -10z"/>
<path d="M2940 6590 c0 -5 5 -10 10 -10 6 0 10 5 10 10 0 6 -4 10 -10 10 -5 0
-10 -4 -10 -10z"/>
<path d="M3110 6590 c0 -5 7 -10 15 -10 8 0 15 5 15 10 0 6 -7 10 -15 10 -8 0
-15 -4 -15 -10z"/>
<path d="M2830 6570 c0 -5 7 -10 16 -10 8 0 12 5 9 10 -3 6 -10 10 -16 10 -5
0 -9 -4 -9 -10z"/>
<path d="M440 6510 c0 -5 5 -10 10 -10 6 0 10 5 10 10 0 6 -4 10 -10 10 -5 0
-10 -4 -10 -10z"/>
<path d="M790 6510 c0 -5 5 -10 10 -10 6 0 10 5 10 10 0 6 -4 10 -10 10 -5 0
-10 -4 -10 -10z"/>
<path d="M545 6490 c-3 -5 1 -10 9 -10 9 0 16 5 16 10 0 6 -4 10 -9 10 -6 0
-13 -4 -16 -10z"/>
<path d="M3030 6470 c0 -5 5 -10 10 -10 6 0 10 5 10 10 0 6 -4 10 -10 10 -5 0
-10 -4 -10 -10z"/>
<path d="M680 6360 c0 -5 5 -10 10 -10 6 0 10 5 10 10 0 6 -4 10 -10 10 -5 0
-10 -4 -10 -10z"/>
<path d="M3160 6340 c0 -5 5 -10 10 -10 6 0 10 5 10 10 0 6 -4 10 -10 10 -5 0
-10 -4 -10 -10z"/>
<path d="M3000 6210 c0 -5 5 -10 10 -10 6 0 10 5 10 10 0 6 -4 10 -10 10 -5 0
-10 -4 -10 -10z"/>
<path d="M545 6130 c4 -6 11 -8 16 -5 14 9 11 15 -7 15 -8 0 -12 -5 -9 -10z"/>
<path d="M3040 6080 c0 -5 5 -10 10 -10 6 0 10 5 10 10 0 6 -4 10 -10 10 -5 0
-10 -4 -10 -10z"/>
<path d="M3150 5990 c0 -5 5 -10 10 -10 6 0 10 5 10 10 0 6 -4 10 -10 10 -5 0
-10 -4 -10 -10z"/>
<path d="M3200 5950 c0 -5 5 -10 10 -10 6 0 10 5 10 10 0 6 -4 10 -10 10 -5 0
-10 -4 -10 -10z"/>
<path d="M700 5870 c0 -5 5 -10 10 -10 6 0 10 5 10 10 0 6 -4 10 -10 10 -5 0
-10 -4 -10 -10z"/>
<path d="M760 5850 c0 -5 5 -10 10 -10 6 0 10 5 10 10 0 6 -4 10 -10 10 -5 0
-10 -4 -10 -10z"/>
<path d="M2840 5770 c0 -5 5 -10 10 -10 6 0 10 5 10 10 0 6 -4 10 -10 10 -5 0
-10 -4 -10 -10z"/>
<path d="M470 5590 c0 -5 5 -10 10 -10 6 0 10 5 10 10 0 6 -4 10 -10 10 -5 0
-10 -4 -10 -10z"/>
<path d="M3170 5510 c0 -5 5 -10 10 -10 6 0 10 5 10 10 0 6 -4 10 -10 10 -5 0
-10 -4 -10 -10z"/>
<path d="M490 5310 c0 -5 7 -10 15 -10 8 0 15 5 15 10 0 6 -7 10 -15 10 -8 0
-15 -4 -15 -10z"/>
<path d="M2920 5190 c0 -5 5 -10 10 -10 6 0 10 5 10 10 0 6 -4 10 -10 10 -5 0
-10 -4 -10 -10z"/>
<path d="M3150 5120 c0 -5 5 -10 10 -10 6 0 10 5 10 10 0 6 -4 10 -10 10 -5 0
-10 -4 -10 -10z"/>
<path d="M2860 5030 c0 -5 5 -10 10 -10 6 0 10 5 10 10 0 6 -4 10 -10 10 -5 0
-10 -4 -10 -10z"/>
<path d="M3045 4970 c-3 -5 1 -10 10 -10 9 0 13 5 10 10 -3 6 -8 10 -10 10 -2
0 -7 -4 -10 -10z"/>
<path d="M520 4910 c0 -5 7 -10 15 -10 8 0 15 5 15 10 0 6 -7 10 -15 10 -8 0
-15 -4 -15 -10z"/>
<path d="M640 4890 c0 -5 5 -10 10 -10 6 0 10 5 10 10 0 6 -4 10 -10 10 -5 0
-10 -4 -10 -10z"/>
<path d="M3100 4650 c0 -5 5 -10 10 -10 6 0 10 5 10 10 0 6 -4 10 -10 10 -5 0
-10 -4 -10 -10z"/>
<path d="M2960 4590 c0 -5 5 -10 10 -10 6 0 10 5 10 10 0 6 -4 10 -10 10 -5 0
-10 -4 -10 -10z"/>
<path d="M3180 4550 c0 -5 5 -10 10 -10 6 0 10 5 10 10 0 6 -4 10 -10 10 -5 0
-10 -4 -10 -10z"/>
<path d="M2940 4525 c0 -8 5 -15 10 -15 6 0 10 7 10 15 0 8 -4 15 -10 15 -5 0
-10 -7 -10 -15z"/>
<path d="M3066 4402 c-3 -6 -1 -14 5 -17 15 -10 25 3 12 16 -7 7 -13 7 -17 1z"/>
<path d="M2710 4210 c0 -5 5 -10 10 -10 6 0 10 5 10 10 0 6 -4 10 -10 10 -5 0
-10 -4 -10 -10z"/>
<path d="M2400 4170 c0 -5 5 -10 10 -10 6 0 10 5 10 10 0 6 -4 10 -10 10 -5 0
-10 -4 -10 -10z"/>
<path d="M2260 4110 c0 -5 7 -10 16 -10 8 0 12 5 9 10 -3 6 -10 10 -16 10 -5
0 -9 -4 -9 -10z"/>
<path d="M2620 4110 c0 -5 5 -10 10 -10 6 0 10 5 10 10 0 6 -4 10 -10 10 -5 0
-10 -4 -10 -10z"/>
<path d="M1360 4070 c0 -5 5 -10 10 -10 6 0 10 5 10 10 0 6 -4 10 -10 10 -5 0
-10 -4 -10 -10z"/>
<path d="M520 4030 c0 -5 5 -10 10 -10 6 0 10 5 10 10 0 6 -4 10 -10 10 -5 0
-10 -4 -10 -10z"/>
<path d="M2550 3950 c0 -5 5 -10 10 -10 6 0 10 5 10 10 0 6 -4 10 -10 10 -5 0
-10 -4 -10 -10z"/>
<path d="M2860 3910 c0 -5 5 -10 10 -10 6 0 10 5 10 10 0 6 -4 10 -10 10 -5 0
-10 -4 -10 -10z"/>
<path d="M2400 3820 c0 -5 5 -10 10 -10 6 0 10 5 10 10 0 6 -4 10 -10 10 -5 0
-10 -4 -10 -10z"/>
<path d="M540 3810 c0 -5 5 -10 10 -10 6 0 10 5 10 10 0 6 -4 10 -10 10 -5 0
-10 -4 -10 -10z"/>
<path d="M780 3430 c0 -5 5 -10 10 -10 6 0 10 5 10 10 0 6 -4 10 -10 10 -5 0
-10 -4 -10 -10z"/>
<path d="M1265 3390 c-3 -5 1 -10 10 -10 9 0 13 5 10 10 -3 6 -8 10 -10 10 -2
0 -7 -4 -10 -10z"/>
<path d="M470 3370 c0 -5 5 -10 10 -10 6 0 10 5 10 10 0 6 -4 10 -10 10 -5 0
-10 -4 -10 -10z"/>
<path d="M860 3330 c0 -5 5 -10 10 -10 6 0 10 5 10 10 0 6 -4 10 -10 10 -5 0
-10 -4 -10 -10z"/>
<path d="M620 3130 c0 -5 5 -10 10 -10 6 0 10 5 10 10 0 6 -4 10 -10 10 -5 0
-10 -4 -10 -10z"/>
<path d="M670 3070 c0 -5 5 -10 10 -10 6 0 10 5 10 10 0 6 -4 10 -10 10 -5 0
-10 -4 -10 -10z"/>
<path d="M2545 2730 c-3 -5 1 -10 9 -10 9 0 16 5 16 10 0 6 -4 10 -9 10 -6 0
-13 -4 -16 -10z"/>
<path d="M2300 2570 c0 -5 5 -10 10 -10 6 0 10 5 10 10 0 6 -4 10 -10 10 -5 0
-10 -4 -10 -10z"/>
<path d="M2270 1740 c0 -5 5 -10 10 -10 6 0 10 5 10 10 0 6 -4 10 -10 10 -5 0
-10 -4 -10 -10z"/>
<path d="M2420 1470 c0 -5 5 -10 10 -10 6 0 10 5 10 10 0 6 -4 10 -10 10 -5 0
-10 -4 -10 -10z"/>
<path d="M1875 1250 c-3 -5 1 -10 10 -10 9 0 13 5 10 10 -3 6 -8 10 -10 10 -2
0 -7 -4 -10 -10z"/>
<path d="M600 830 c0 -5 5 -10 10 -10 6 0 10 5 10 10 0 6 -4 10 -10 10 -5 0
-10 -4 -10 -10z"/>
</g>
</svg>
