<?xml version="1.0" standalone="no"?>
<!DOCTYPE svg PUBLIC "-//W3C//DTD SVG 20010904//EN"
 "http://www.w3.org/TR/2001/REC-SVG-20010904/DTD/svg10.dtd">
<svg version="1.0" xmlns="http://www.w3.org/2000/svg"
 width="940.000000pt" height="800.000000pt" viewBox="0 0 940.000000 800.000000"
 preserveAspectRatio="xMidYMid meet">
<metadata>
Created by potrace 1.16, written by Peter Selinger 2001-2019
</metadata>
<g transform="translate(0.000000,800.000000) scale(0.100000,-0.100000)"
fill="#000000" stroke="none">
<path d="M75 7990 c4 -6 110 -10 286 -10 179 0 279 4 279 10 0 6 -102 10 -286
10 -187 0 -283 -3 -279 -10z"/>
<path d="M1169 7933 c-4 -181 4 -459 12 -468 6 -6 121 -10 304 -10 l294 0 25
-24 c32 -30 46 -20 46 34 0 76 -14 91 -49 53 -20 -21 -25 -21 -298 -19 -152 1
-281 5 -285 7 -4 3 -8 115 -8 250 0 237 -1 244 -20 244 -18 0 -20 -7 -21 -67z"/>
<path d="M2270 7755 c0 -213 -2 -246 -16 -252 -8 -3 -25 3 -37 14 -40 37 -56
11 -41 -66 5 -21 12 -31 25 -31 11 0 19 6 19 13 0 8 19 17 48 23 l47 9 2 268
3 267 -25 0 -25 0 0 -245z"/>
<path d="M2821 7748 c0 -142 5 -260 10 -270 9 -17 58 -18 1098 -18 965 0 1090
-2 1101 -15 11 -13 9 -20 -9 -38 -37 -41 -23 -57 50 -57 46 0 61 21 35 49 -9
10 -16 27 -16 39 l0 22 282 0 c245 0 284 -2 299 -16 29 -27 49 -11 49 39 0 59
-21 79 -53 48 -23 -20 -31 -21 -300 -21 -214 0 -277 3 -278 13 -2 25 -5 156
-7 315 l-2 162 -26 0 -25 0 3 -235 c2 -154 -1 -238 -8 -245 -17 -17 -2118 -27
-2139 -10 -13 11 -15 48 -15 251 l0 239 -25 0 -25 0 1 -252z"/>
<path d="M6140 7760 c0 -207 -2 -241 -15 -247 -9 -3 -24 2 -34 11 -35 31 -51
21 -51 -33 0 -56 13 -71 40 -46 10 9 29 15 42 13 19 -2 23 -9 21 -33 -1 -16
-3 -254 -5 -528 -3 -304 -8 -501 -14 -507 -7 -7 -200 -9 -525 -8 l-514 3 -3
293 c-2 254 0 293 13 298 15 6 21 43 8 45 -41 4 -80 4 -90 1 -18 -6 -16 -39 2
-46 13 -5 15 -107 15 -841 0 -660 -3 -837 -12 -840 -7 -2 -750 -6 -1650 -7
-900 -2 -1639 -6 -1642 -8 -11 -11 -14 -1128 -3 -1139 17 -17 1669 -15 1685 1
9 9 12 145 12 549 0 296 3 540 8 542 4 3 372 8 817 12 528 4 814 11 823 17 9
8 12 128 12 538 0 472 2 529 16 534 9 3 251 6 539 6 406 0 525 3 533 13 7 8
11 253 12 717 4 971 4 930 -20 930 -19 0 -20 -7 -20 -240z m-2776 -2529 c9
-13 9 -1023 1 -1044 -7 -16 -54 -17 -804 -15 l-796 3 -3 520 c-1 286 0 526 3
533 3 9 173 12 799 12 470 0 797 -4 800 -9z"/>
<path d="M6662 7988 c-20 -20 6 -38 54 -38 46 0 58 9 48 34 -7 19 -84 22 -102
4z"/>
<path d="M7792 7768 c2 -128 -1 -239 -5 -245 -6 -10 -72 -13 -273 -13 -203 0
-264 -3 -266 -12 -3 -19 -4 -93 -6 -526 -2 -310 -5 -393 -14 -390 -7 3 -19 16
-26 31 -16 32 -59 67 -83 67 -10 0 -21 5 -24 10 -8 14 -190 13 -234 -1 -57
-18 -65 -23 -90 -62 -13 -20 -28 -34 -33 -31 -5 4 -8 207 -7 492 1 476 2 487
22 503 35 28 16 47 -40 42 -62 -7 -75 -19 -45 -42 l24 -17 -1 -607 c-2 -594
-1 -606 18 -616 23 -13 539 -15 558 -3 10 6 13 78 15 282 l3 275 264 3 c152 1
269 6 276 12 16 13 28 575 18 866 l-6 214 -24 0 -23 0 2 -232z m-8 -304 c15
-6 16 -32 10 -248 -4 -135 -11 -247 -17 -254 -7 -9 -66 -12 -251 -10 l-241 3
0 155 c0 200 6 320 17 343 8 15 30 17 238 17 125 0 236 -3 244 -6z m-901 -821
c-7 -2 -19 -2 -25 0 -7 3 -2 5 12 5 14 0 19 -2 13 -5z m357 -182 c0 -35 -5
-63 -12 -68 -10 -8 -452 -12 -490 -4 -11 2 -10 109 1 116 5 3 12 1 16 -5 3 -5
15 -10 26 -10 12 0 19 -7 19 -19 0 -41 73 -71 175 -70 125 0 182 24 226 96 11
18 25 31 30 27 5 -3 9 -31 9 -63z m-340 39 c0 -5 -4 -10 -10 -10 -5 0 -10 5
-10 10 0 6 5 10 10 10 6 0 10 -4 10 -10z m225 -20 c4 -6 -7 -10 -25 -10 -17 0
-40 -5 -51 -10 -11 -6 -24 -8 -31 -4 -16 10 31 33 69 34 17 0 35 -4 38 -10z
m-135 -20 c0 -5 -13 -10 -30 -10 -16 0 -30 5 -30 10 0 6 14 10 30 10 17 0 30
-4 30 -10z"/>
<path d="M8352 7493 c-6 -10 -6 -29 0 -50 5 -19 6 -42 1 -51 -4 -10 -10 -237
-13 -507 l-5 -490 -270 -5 -270 -5 -3 -829 c-1 -584 1 -833 9 -840 7 -8 15 -5
25 8 12 17 14 141 14 818 0 439 1 798 3 798 1 1 243 3 537 6 294 3 541 7 549
10 11 3 11 7 1 20 -11 13 -50 15 -266 13 -139 0 -258 2 -264 6 -16 10 -14
1052 3 1062 7 4 129 8 272 9 258 1 260 1 263 22 l3 22 -290 0 c-259 0 -291 -2
-299 -17z"/>
<path d="M73 7484 c-3 -9 0 -20 8 -25 8 -5 130 -9 272 -9 197 0 259 -3 262
-12 3 -7 1 -251 -3 -543 l-7 -530 -270 -5 c-231 -4 -270 -7 -270 -20 0 -13 39
-15 295 -15 l295 0 3 574 c1 415 -1 578 -9 587 -9 11 -67 14 -291 14 -246 0
-279 -2 -285 -16z"/>
<path d="M1431 7174 c-10 -7 -24 -26 -30 -43 -10 -24 -10 -34 3 -60 16 -30 32
-36 79 -32 22 3 23 -31 2 -49 -13 -10 -19 -10 -33 4 -25 22 -42 20 -42 -3 0
-31 36 -51 72 -40 40 11 55 33 62 91 9 64 -8 125 -37 134 -36 12 -56 11 -76
-2z m70 -41 c14 -36 8 -67 -14 -71 -39 -8 -59 36 -37 79 15 27 39 24 51 -8z"/>
<path d="M6922 6957 c-25 -26 -27 -45 -10 -81 9 -21 8 -29 -5 -44 -24 -26 -21
-49 8 -78 21 -21 31 -24 62 -18 21 4 43 13 50 20 17 16 17 68 1 94 -10 16 -10
24 0 40 16 26 2 54 -38 75 -38 20 -43 19 -68 -8z m69 -28 c9 -17 8 -25 -4 -37
-9 -8 -23 -12 -31 -9 -19 8 -21 53 -3 60 21 9 26 7 38 -14z m5 -110 c33 -36
-10 -75 -50 -44 -16 12 -18 19 -8 40 14 30 33 32 58 4z"/>
<path d="M1261 6951 c-8 -14 -23 -21 -54 -23 l-42 -3 -1 -543 c0 -298 -3 -544
-6 -547 -2 -3 -247 -8 -544 -11 -296 -3 -543 -10 -548 -14 -29 -27 19 -30 550
-30 l544 0 1 -57 c1 -116 -4 -1223 -10 -2188 l-6 -990 -540 -3 c-325 -2 -544
-7 -549 -12 -6 -6 -6 -13 0 -19 12 -13 1121 -18 1133 -6 6 6 11 659 13 1637 2
895 6 1629 9 1632 2 3 262 6 578 7 535 1 573 0 585 -16 18 -26 32 -12 39 37 8
57 -8 76 -39 47 -53 -50 -63 0 -60 306 l1 160 239 3 c167 2 243 -1 252 -9 11
-9 14 -58 14 -240 0 -228 0 -229 -22 -229 -12 0 -29 7 -39 16 -27 24 -39 8
-39 -52 0 -59 8 -65 47 -34 24 18 41 19 328 19 167 -1 309 2 314 6 15 9 15
1117 0 1132 -7 7 -264 9 -862 6 l-851 -4 -17 22 c-10 14 -22 20 -32 16 -13 -5
-15 -16 -10 -59 7 -66 17 -77 38 -44 l17 26 278 0 c210 0 280 -3 288 -12 11
-15 -2 -58 -18 -58 -5 0 -10 -9 -10 -20 0 -18 7 -20 60 -20 51 0 60 3 60 18 0
9 -9 23 -20 30 -24 15 -26 47 -4 56 9 3 245 6 525 6 l509 0 10 -26 c13 -33 12
-784 0 -784 -11 0 -31 35 -25 42 3 2 0 20 -6 39 -10 31 -21 79 -36 154 -10 54
-14 55 -160 51 -74 -2 -137 -7 -140 -10 -8 -8 -1 -8 134 -6 100 1 113 -1 122
-17 21 -40 0 -48 -138 -51 -118 -3 -130 -2 -140 15 -6 12 -6 25 0 34 14 23 11
31 -13 27 -16 -2 -24 -11 -26 -28 -2 -14 -7 -34 -12 -45 -5 -11 -11 -38 -14
-60 -13 -102 -22 -139 -33 -143 -10 -3 -13 29 -13 136 0 118 -2 141 -16 146
-9 3 -132 6 -273 6 -142 0 -261 3 -264 7 -4 3 3 17 15 30 13 14 18 27 12 32
-8 8 -71 16 -101 12 -20 -2 -15 -39 7 -51 20 -11 20 -19 18 -288 l-3 -277
-519 -3 c-326 -1 -523 1 -530 8 -15 15 -9 1032 7 1042 7 4 23 -4 40 -20 24
-22 29 -24 38 -12 5 8 8 37 7 65 -3 55 -27 73 -47 36z m2017 -696 c6 -3 12
-16 12 -29 0 -42 -28 -48 -177 -42 -146 5 -171 14 -158 55 6 19 15 21 123 23
112 3 172 1 200 -7z m23 -106 c5 -8 8 -23 7 -34 -3 -19 -12 -20 -184 -23 -162
-2 -182 -1 -188 14 -12 30 3 53 37 56 18 2 97 3 176 2 110 -1 145 -4 152 -15z
m27 -127 c6 -59 0 -60 -208 -60 -208 0 -214 2 -208 60 l3 33 145 3 c80 1 149
4 153 5 5 1 32 0 60 -3 50 -5 52 -6 55 -38z m17 -88 c11 -11 15 -30 13 -58
l-3 -41 -227 -3 -228 -2 -6 24 c-3 13 -4 37 -2 52 l3 29 210 5 c116 3 213 7
217 8 4 1 14 -5 23 -14z"/>
<path d="M3121 6644 c-40 -51 -22 -177 28 -204 22 -11 60 -1 78 21 20 27 35
90 28 126 -14 77 -93 110 -134 57z m83 -27 c17 -64 -1 -147 -31 -147 -32 0
-46 129 -17 161 19 21 40 15 48 -14z"/>
<path d="M2986 6645 c-18 -14 -18 -16 -3 -33 19 -21 24 -126 7 -137 -5 -3 -10
-13 -10 -21 0 -10 12 -14 40 -14 38 0 52 12 30 25 -6 3 -10 48 -10 101 0 83
-2 94 -17 94 -10 0 -27 -7 -37 -15z"/>
<path d="M4132 6285 c-40 -17 -82 -62 -82 -86 0 -16 6 -18 48 -12 37 4 55 14
83 43 28 28 34 41 27 53 -11 20 -32 21 -76 2z m28 -33 c0 -12 -23 -32 -37 -32
-7 0 -13 9 -13 20 0 15 7 20 25 20 14 0 25 -4 25 -8z"/>
<path d="M4354 6269 c-8 -14 11 -33 25 -25 11 7 4 36 -9 36 -5 0 -12 -5 -16
-11z"/>
<path d="M1397 6249 c-9 -6 -17 -19 -17 -30 0 -16 4 -19 23 -14 12 4 28 13 36
20 11 11 10 15 -6 23 -12 7 -25 7 -36 1z"/>
<path d="M1270 6211 c-14 -27 -13 -51 3 -51 21 0 71 46 63 58 -11 19 -54 14
-66 -7z"/>
<path d="M4273 6203 c-7 -15 -13 -33 -13 -39 0 -7 -12 -22 -27 -34 -25 -19
-26 -23 -10 -31 15 -9 25 -39 13 -39 -2 0 -11 -3 -19 -6 -11 -4 -17 4 -22 26
-9 40 -28 47 -70 24 -33 -17 -35 -17 -54 0 -20 19 -51 16 -51 -4 0 -6 15 -17
34 -25 43 -18 50 -29 31 -45 -20 -16 -19 -45 1 -65 12 -11 20 -13 27 -6 16 16
47 13 47 -3 0 -22 15 -27 44 -16 24 9 25 12 14 36 -10 21 -10 28 2 38 8 6 20
20 26 31 15 27 32 25 47 -5 17 -34 51 -37 81 -6 14 13 34 27 44 30 11 4 28 16
38 27 24 26 8 53 -32 56 -84 8 -87 9 -98 44 -14 42 -37 48 -53 12z m47 -73 c0
-5 -5 -12 -11 -16 -14 -8 -33 11 -25 25 7 11 36 4 36 -9z m54 -19 c3 -4 -1
-17 -9 -27 -11 -15 -16 -16 -26 -7 -10 10 -9 15 1 28 14 17 26 19 34 6z"/>
<path d="M2490 6199 c-7 -11 -9 -27 -6 -35 7 -19 32 -18 40 1 3 8 17 15 32 15
20 0 25 -4 21 -17 -39 -130 -44 -153 -31 -164 22 -18 31 -3 38 63 4 34 14 74
22 89 8 16 14 37 14 49 0 18 -6 20 -60 20 -50 0 -61 -3 -70 -21z"/>
<path d="M1526 6188 c-26 -13 -61 -21 -103 -22 -50 -2 -68 -6 -85 -24 -18 -18
-20 -26 -12 -49 8 -24 16 -28 52 -31 35 -3 45 -8 54 -28 9 -20 9 -30 -1 -46
-20 -33 2 -46 42 -26 17 9 41 19 52 22 11 4 39 24 63 47 38 36 44 46 41 65 0
3 7 17 16 31 22 34 6 52 -26 29 -23 -15 -69 -22 -69 -10 0 3 11 15 25 26 25
19 26 38 2 38 -7 -1 -30 -10 -51 -22z m-102 -64 c10 -26 7 -34 -13 -34 -26 0
-36 17 -21 35 16 19 26 19 34 -1z m114 -78 c3 -26 1 -28 -20 -23 -13 4 -26 7
-30 7 -10 0 -10 34 -1 44 17 17 48 0 51 -28z"/>
<path d="M1366 6033 c-14 -15 -5 -43 14 -43 13 0 20 7 20 19 0 19 -23 35 -34
24z"/>
<path d="M1635 6000 c-9 -15 14 -40 36 -40 27 0 35 21 14 37 -22 16 -41 17
-50 3z"/>
<path d="M3986 5993 c-9 -23 29 -62 45 -46 17 17 2 63 -20 63 -10 0 -22 -8
-25 -17z"/>
<path d="M1254 5936 c-9 -24 15 -56 41 -56 37 0 41 20 9 46 -34 27 -43 29 -50
10z"/>
<path d="M2510 5890 c-36 -36 -20 -87 31 -104 24 -8 35 -18 37 -35 5 -32 -17
-44 -46 -25 -16 10 -28 12 -34 6 -15 -15 20 -42 56 -42 48 0 68 19 64 60 -2
29 -10 38 -43 56 -22 11 -41 28 -43 37 -5 23 26 33 51 18 26 -17 43 0 28 28
-16 28 -73 29 -101 1z"/>
<path d="M8385 5851 l-40 -6 -5 -817 c-3 -542 -8 -820 -15 -827 -7 -7 -109
-12 -270 -13 l-260 -3 -5 -262 c-3 -144 -8 -265 -13 -269 -4 -4 -365 -10 -802
-12 l-795 -4 0 34 c-1 18 -1 148 0 288 0 221 3 257 17 267 28 22 8 43 -42 43
-50 0 -73 -24 -41 -42 15 -9 17 -35 16 -276 -1 -147 -4 -277 -7 -289 l-5 -23
-289 0 c-250 0 -289 2 -289 15 0 15 -39 22 -41 8 -1 -5 -2 -28 -3 -52 -2 -48
18 -67 40 -36 12 16 39 18 289 22 201 4 280 2 290 -7 11 -9 13 -94 12 -515 -1
-277 -6 -507 -10 -512 -10 -10 -932 -17 -995 -8 -52 8 -63 28 -31 55 21 17 22
21 9 30 -22 14 -83 12 -105 -4 -18 -13 -18 -14 3 -27 32 -20 28 -45 -9 -53
-17 -3 -146 -6 -285 -6 -243 0 -254 1 -264 20 -12 22 -35 26 -46 9 -4 -7 -9
-31 -10 -54 -5 -56 15 -76 46 -45 21 21 30 22 328 25 169 2 674 4 1122 4 448
1 821 5 829 10 11 7 13 101 12 539 -1 319 2 533 8 536 10 6 1591 9 1597 3 2
-2 5 -240 7 -528 2 -289 7 -531 11 -537 5 -9 84 -12 297 -12 271 0 290 1 287
18 -3 16 -25 17 -276 20 l-272 2 -1 518 c-1 284 -1 524 0 534 1 9 -4 20 -11
25 -7 4 -130 10 -273 13 l-260 5 -2 225 c-1 124 1 235 3 248 l4 22 258 0 c141
0 263 4 271 9 11 7 15 146 20 827 l6 819 268 3 c256 2 267 3 267 21 0 11 -8
22 -17 24 -24 7 -478 5 -528 -2z m-1706 -2753 c0 -277 -5 -513 -10 -525 -8
-22 -11 -22 -221 -22 -117 0 -225 2 -240 5 l-28 6 0 512 c0 282 3 516 7 519 3
4 116 7 250 7 l244 0 -2 -502z"/>
<path d="M5665 5840 l-80 -5 -5 -545 -5 -545 -270 -5 -270 -5 -5 -543 c-4
-468 -7 -544 -20 -552 -9 -6 -638 -10 -1652 -10 -1298 0 -1638 -3 -1645 -12
-4 -7 -9 -377 -11 -821 -3 -610 -6 -809 -15 -812 -7 -2 -373 -5 -814 -7 -606
-3 -806 -7 -815 -16 -8 -8 -13 -95 -15 -304 -4 -275 -5 -294 -24 -310 -36 -31
-14 -52 46 -43 17 2 36 4 43 4 19 1 14 29 -7 40 -17 10 -18 25 -14 288 3 153
8 281 12 285 8 9 1027 11 1041 3 18 -11 11 -32 -16 -50 -37 -24 -16 -45 48
-45 58 0 73 20 38 52 -19 18 -20 22 -8 35 12 11 98 14 523 14 288 0 512 -4
517 -9 13 -13 8 -1007 -5 -1028 -3 -5 -130 -10 -283 -12 -277 -3 -278 -3 -295
19 -25 33 -49 19 -49 -30 0 -69 22 -93 48 -51 12 20 21 20 295 18 269 -3 282
-4 285 -22 3 -11 -4 -25 -13 -32 -32 -23 -11 -44 45 -44 58 0 75 19 44 49 -15
13 -19 31 -18 77 4 281 3 1097 -1 1104 -4 6 -112 10 -270 10 l-263 0 -6 48
c-8 59 -1 1540 6 1548 7 6 1588 7 1595 1 7 -8 12 -1341 5 -1467 l-7 -125 -267
-3 -268 -2 -5 -23 c-3 -12 -4 -146 -3 -297 l3 -275 557 0 c482 0 559 2 572 15
13 13 15 89 17 544 0 291 3 536 6 543 8 20 39 15 55 -9 9 -14 20 -19 31 -15
24 9 24 115 0 124 -10 4 -23 -2 -34 -15 -9 -12 -24 -22 -33 -22 -13 0 -16 13
-16 68 0 37 -3 266 -5 509 -5 417 -5 442 12 451 10 5 248 10 529 11 447 2 512
1 517 -12 3 -8 4 -136 1 -284 -4 -260 -5 -269 -26 -286 -29 -24 -13 -38 52
-43 59 -4 79 17 41 45 -21 16 -21 19 -19 296 3 275 3 280 24 283 11 2 27 -4
34 -13 23 -28 38 -17 42 30 5 71 -7 83 -48 44 -14 -14 -29 -19 -40 -15 -16 6
-17 41 -10 529 4 287 10 525 14 529 5 5 240 7 522 6 500 -3 515 -4 518 -22 2
-11 -4 -25 -13 -32 -30 -22 -11 -44 38 -44 54 0 80 22 48 40 -20 10 -21 18
-21 305 0 161 4 296 9 299 5 3 244 8 532 11 288 3 532 8 542 11 16 5 17 28 17
289 0 277 0 284 -21 290 -23 7 -1469 3 -1594 -5z m1543 -40 l32 0 0 -239 c0
-181 -3 -242 -12 -248 -14 -8 -64 -9 -685 -12 -312 -1 -384 -4 -396 -15 -11
-11 -14 -65 -15 -267 -1 -165 -5 -256 -12 -263 -7 -7 -91 -11 -248 -11 l-237
0 -3 523 c-1 287 -1 523 0 524 4 4 1499 14 1523 11 11 -2 35 -3 53 -3z m-3300
-2224 c7 -8 2 -2130 -6 -2138 -5 -5 -242 -7 -528 -6 l-519 3 -3 233 c-1 149 1
240 8 252 10 19 22 20 280 20 314 0 284 -16 279 144 -2 56 -2 415 -1 798 2
654 3 697 20 700 22 5 465 -1 470 -6z"/>
<path d="M6956 5211 c-4 -6 -11 -9 -16 -6 -5 3 -19 1 -30 -5 l-21 -11 22 -17
c19 -16 19 -19 5 -31 -17 -14 -36 -7 -36 15 0 31 -32 8 -44 -32 -6 -19 -2 -22
26 -27 41 -6 93 21 93 49 0 14 6 18 23 17 27 -3 28 7 4 38 -13 15 -21 19 -26
10z"/>
<path d="M6360 5165 c0 -21 4 -26 16 -21 9 3 20 6 25 6 5 0 9 7 9 15 0 8 -4
15 -9 15 -5 0 -16 3 -25 6 -12 5 -16 0 -16 -21z"/>
<path d="M7145 5179 c-11 -17 1 -21 15 -4 8 9 8 15 2 15 -6 0 -14 -5 -17 -11z"/>
<path d="M6246 5154 c-9 -8 -16 -22 -16 -31 0 -12 7 -14 32 -9 46 9 58 24 34
42 -25 18 -31 18 -50 -2z"/>
<path d="M7052 5109 c-7 -23 -20 -48 -28 -56 -10 -10 -14 -30 -12 -57 3 -36 6
-41 25 -38 13 2 32 -6 45 -17 28 -26 54 -27 68 -1 6 10 28 25 50 31 41 12 48
26 30 59 -8 14 -26 21 -71 26 -60 7 -61 7 -55 34 3 19 0 33 -13 44 -24 22 -24
22 -39 -25z m36 -76 c-4 -22 -22 -20 -26 1 -2 10 3 16 13 16 10 0 15 -7 13
-17z m60 -36 c2 -10 -4 -20 -13 -23 -21 -9 -28 0 -20 26 8 24 28 22 33 -3z"/>
<path d="M6490 5120 c-20 -15 -38 -19 -87 -16 -57 3 -64 1 -89 -25 -48 -50
-10 -103 60 -85 30 7 40 -16 30 -68 -5 -28 -3 -37 10 -42 9 -4 24 0 34 8 9 9
29 18 43 22 34 8 109 83 109 109 0 11 7 28 15 37 9 10 13 25 9 34 -7 17 -24
22 -24 6 0 -11 -61 -39 -72 -33 -16 9 -7 30 17 43 14 7 25 17 25 22 0 15 -55
8 -80 -12z m-106 -56 c16 -6 23 -54 8 -54 -4 0 -18 7 -30 16 -18 13 -21 19
-11 30 13 16 12 16 33 8z m136 -94 c0 -13 -36 -18 -54 -8 -20 11 -20 22 1 43
16 16 18 16 35 -5 10 -12 18 -26 18 -30z"/>
<path d="M6924 5015 c-23 -18 -58 -19 -84 -3 -10 7 -22 9 -25 6 -13 -13 6 -46
30 -52 25 -6 34 -30 15 -41 -15 -9 -12 -41 5 -55 12 -10 19 -10 27 -2 17 17
48 15 54 -3 6 -14 37 -16 50 -2 4 4 1 13 -6 22 -11 13 -10 19 6 36 18 20 18
21 -9 41 -16 12 -27 29 -27 44 0 28 -8 30 -36 9z m-8 -90 c-11 -8 -22 -12 -25
-9 -6 6 19 24 34 24 6 -1 1 -7 -9 -15z"/>
<path d="M6342 4944 c4 -21 22 -23 26 -1 2 10 -3 17 -13 17 -10 0 -15 -6 -13
-16z"/>
<path d="M6616 4943 c-3 -4 -6 -14 -6 -24 0 -22 30 -33 46 -17 10 10 8 16 -10
30 -13 9 -26 14 -30 11z"/>
<path d="M6767 4903 c-14 -13 -6 -34 16 -42 28 -11 41 1 32 28 -6 20 -34 28
-48 14z"/>
<path d="M6232 4843 c2 -23 8 -29 36 -31 43 -4 43 21 0 42 -40 21 -40 21 -36
-11z"/>
<path d="M7138 4763 c-20 -5 -24 -28 -8 -38 6 -3 10 -35 10 -70 0 -35 -4 -67
-10 -70 -5 -3 -10 -13 -10 -21 0 -10 12 -14 41 -14 39 0 41 1 33 23 -4 12 -8
60 -9 107 0 89 -4 95 -47 83z"/>
<path d="M3933 4728 c-16 -21 -17 -579 -1 -590 19 -12 546 -10 569 2 12 7 19
21 19 40 0 20 6 31 21 35 12 4 19 14 17 23 -5 24 -105 30 -114 7 -4 -9 2 -25
11 -35 10 -11 16 -22 13 -25 -2 -3 -113 -8 -245 -12 -191 -5 -242 -3 -248 7
-8 13 -7 488 1 502 3 4 115 8 250 8 218 0 245 -2 251 -17 4 -10 -2 -23 -16
-35 -14 -11 -21 -24 -17 -34 9 -22 109 -16 114 8 2 9 -5 19 -17 23 -16 5 -21
16 -23 53 l-3 47 -286 3 c-222 2 -289 -1 -296 -10z"/>
<path d="M6860 4650 c0 -5 7 -10 16 -10 8 0 12 5 9 10 -3 6 -10 10 -16 10 -5
0 -9 -4 -9 -10z"/>
<path d="M6800 4635 c0 -18 31 -74 54 -99 30 -31 63 -31 111 0 39 25 32 44
-15 44 -43 0 -99 23 -113 46 -8 13 -37 20 -37 9z"/>
<path d="M6972 4491 c4 -13 18 -16 19 -4 0 4 -5 9 -11 12 -7 2 -11 -2 -8 -8z"/>
<path d="M6920 4426 c0 -7 -13 -19 -30 -26 -36 -15 -38 -39 -7 -67 46 -42 67
-47 96 -24 14 12 34 24 44 28 18 6 24 23 7 23 -6 0 -21 -7 -34 -15 -18 -12
-30 -13 -50 -5 -23 8 -25 14 -20 37 4 16 13 32 21 36 20 12 16 27 -7 27 -11 0
-20 -6 -20 -14z"/>
<path d="M7054 4416 c-6 -17 2 -36 17 -36 12 0 12 37 -1 45 -6 3 -13 -1 -16
-9z"/>
<path d="M7117 4379 c-32 -32 -46 -91 -27 -114 25 -30 104 -10 98 24 -2 10 3
25 10 34 21 24 4 42 -19 21 -10 -9 -19 -23 -19 -30 0 -19 -20 -28 -33 -15 -8
8 -8 14 1 23 7 7 12 22 12 35 0 13 5 23 10 23 6 0 10 7 10 15 0 21 -10 17 -43
-16z"/>
<path d="M6353 4075 c-3 -9 -3 -18 0 -21 9 -9 27 6 27 22 0 19 -19 18 -27 -1z"/>
<path d="M7299 4053 c-10 -27 2 -55 15 -34 4 6 16 11 26 11 28 0 36 21 15 37
-28 20 -44 16 -56 -14z"/>
<path d="M6247 4063 c-4 -3 -7 -15 -7 -25 0 -12 7 -18 24 -18 26 0 51 24 41
40 -7 11 -48 14 -58 3z"/>
<path d="M7551 4033 c-27 -18 -57 -25 -116 -24 -22 0 -50 -7 -62 -15 -43 -28
-20 -94 33 -94 27 0 31 16 9 40 -14 15 -14 19 1 31 14 11 18 11 30 -6 13 -17
17 -45 18 -134 1 -38 16 -50 36 -26 7 8 19 15 27 15 34 0 133 89 133 120 0 10
7 23 15 30 11 9 12 17 3 33 -10 19 -12 19 -23 4 -17 -24 -66 -40 -79 -27 -8 8
-5 17 12 30 44 36 11 57 -37 23z m7 -115 c7 -7 12 -20 12 -30 0 -13 -8 -18
-30 -18 -33 0 -37 9 -18 40 15 23 20 24 36 8z"/>
<path d="M6489 4025 c-10 -10 -43 -18 -89 -22 -54 -5 -79 -12 -98 -28 -25 -22
-26 -23 -9 -49 13 -20 26 -26 52 -26 41 0 43 5 13 30 -19 15 -20 20 -9 34 28
34 55 7 50 -49 -6 -60 2 -113 18 -119 10 -4 20 -1 25 9 5 8 19 15 32 15 46 0
146 114 146 167 0 15 -26 18 -34 4 -8 -13 -56 -20 -62 -9 -3 5 1 17 10 27 9
10 16 21 16 24 0 13 -46 7 -61 -8z m21 -147 c0 -21 -12 -23 -43 -7 -32 17 -32
17 -12 39 17 19 19 19 37 4 10 -10 18 -25 18 -36z"/>
<path d="M6335 3850 c-3 -5 1 -10 9 -10 9 0 16 5 16 10 0 6 -4 10 -9 10 -6 0
-13 -4 -16 -10z"/>
<path d="M6604 3845 c-9 -22 19 -50 41 -41 15 6 16 9 3 28 -19 29 -36 34 -44
13z"/>
<path d="M7664 3845 c-8 -20 4 -35 27 -35 20 0 23 8 13 34 -8 20 -33 21 -40 1z"/>
<path d="M7283 3774 c-13 -33 35 -70 59 -46 7 7 2 19 -17 36 -33 31 -34 31
-42 10z"/>
<path d="M6220 3762 c0 -25 19 -42 47 -42 30 0 29 14 -3 39 -33 26 -44 26 -44
3z"/>
<path d="M1880 3501 c-34 -6 -35 -7 -38 -58 l-3 -53 37 3 c33 2 39 -2 48 -25
8 -22 6 -31 -9 -48 -24 -26 -33 -25 -41 4 -7 30 -28 40 -44 20 -18 -20 11 -61
50 -69 59 -13 105 44 84 103 -9 26 -21 34 -68 48 -49 15 -44 34 8 34 49 0 74
23 45 41 -15 9 -17 9 -69 0z"/>
<path d="M7238 3094 c-4 -3 -7 -235 -8 -515 -1 -506 -3 -567 -24 -581 -6 -4
-371 -7 -811 -8 -721 0 -801 -2 -812 -16 -8 -11 -11 -94 -10 -297 l2 -282 280
0 c154 1 399 2 545 4 244 2 265 1 269 -15 1 -9 -4 -21 -13 -26 -9 -5 -16 -16
-16 -23 0 -11 14 -15 55 -15 41 0 55 4 55 15 0 7 -7 18 -15 22 -13 8 -15 48
-13 298 l3 290 267 5 c146 3 269 8 273 11 3 4 7 247 8 540 2 294 6 540 10 547
11 17 482 18 493 0 4 -6 7 -265 7 -576 l0 -564 -23 -18 c-36 -27 -21 -47 37
-46 26 1 53 5 60 9 15 9 6 37 -12 37 -16 0 -23 19 -17 43 4 16 27 17 291 17
157 1 390 2 518 3 127 1 234 0 237 -3 2 -3 6 -133 7 -290 2 -281 2 -284 -19
-298 -41 -27 -27 -42 38 -42 46 0 60 3 60 15 0 7 -7 18 -16 23 -14 8 -15 45
-15 302 0 161 3 295 5 298 3 2 1 13 -5 24 -10 18 -30 18 -551 18 -297 -1 -542
1 -544 3 -2 2 -5 249 -7 548 l-2 544 -291 3 c-160 1 -293 0 -296 -4z m-573
-1154 c9 -7 11 -75 11 -249 -1 -132 -4 -243 -8 -246 -3 -3 -239 -6 -524 -5
-397 0 -520 3 -526 13 -11 18 -10 471 2 483 13 13 1029 17 1045 4z"/>
<path d="M7450 2948 c-34 -46 -39 -124 -11 -159 35 -45 107 -44 131 1 26 49
-34 125 -80 100 -28 -15 -36 7 -13 38 25 34 40 38 48 13 10 -32 37 -27 33 7
-3 24 -8 27 -43 30 -36 3 -43 -1 -65 -30z m71 -97 c21 -17 22 -22 11 -46 -15
-32 -37 -30 -60 7 -13 22 -13 29 -3 42 17 20 24 20 52 -3z"/>
<path d="M2519 2923 c-26 -32 -56 -77 -73 -112 -20 -39 -12 -51 37 -51 23 0
27 -3 22 -19 -7 -24 7 -33 39 -25 18 4 25 14 28 40 2 19 0 38 -4 42 -5 5 -9
37 -11 72 -2 66 -14 82 -38 53z m-9 -100 c0 -10 -5 -25 -10 -33 -15 -22 -32 7
-19 32 12 23 29 23 29 1z"/>
<path d="M800 2463 c-34 -6 -100 -72 -100 -100 0 -20 4 -22 33 -17 69 12 78
15 89 39 6 14 17 25 25 25 20 0 27 28 13 45 -13 15 -16 16 -60 8z m0 -52 c0
-12 -29 -23 -41 -15 -18 10 -9 24 16 24 14 0 25 -4 25 -9z"/>
<path d="M1000 2430 c0 -25 45 -28 54 -4 9 23 8 24 -24 24 -23 0 -30 -4 -30
-20z"/>
<path d="M922 2368 c-18 -58 -43 -86 -83 -92 -19 -2 -51 -10 -72 -16 -34 -10
-40 -9 -51 6 -13 17 -46 14 -46 -5 0 -16 30 -41 51 -41 12 0 19 -7 19 -18 0
-10 5 -23 12 -30 9 -9 7 -12 -10 -12 -26 0 -30 -31 -8 -49 11 -9 19 -9 34 0
23 14 54 6 47 -13 -3 -7 -1 -20 4 -28 8 -12 15 -9 38 14 26 26 26 29 10 41
-23 17 -22 19 20 61 34 35 37 36 49 18 38 -54 54 -57 94 -14 15 17 34 30 42
30 20 1 48 25 48 42 0 21 -37 51 -54 45 -9 -4 -18 -2 -20 2 -3 5 -19 11 -36
14 -23 5 -30 12 -30 30 0 20 -27 57 -41 57 -3 0 -10 -19 -17 -42z m38 -78 c0
-11 -7 -20 -15 -20 -15 0 -21 21 -8 33 12 13 23 7 23 -13z m60 -39 c0 -10 -6
-21 -14 -24 -19 -7 -25 0 -19 24 7 25 33 25 33 0z m-140 -21 c0 -37 -17 -39
-30 -4 -13 34 -13 34 10 34 16 0 20 -7 20 -30z m-80 -48 c0 -13 -12 -22 -22
-16 -10 6 -1 24 13 24 5 0 9 -4 9 -8z"/>
<path d="M640 2141 c0 -20 25 -51 41 -51 10 0 12 30 3 54 -9 23 -44 20 -44 -3z"/>
<path d="M4678 1903 c-21 -5 -32 -33 -13 -33 19 0 29 -20 16 -33 -7 -7 -16 -6
-29 6 -25 23 -37 21 -57 -9 -22 -34 -11 -41 53 -36 44 3 55 8 64 28 6 13 17
24 25 24 20 0 27 28 13 45 -12 15 -37 17 -72 8z"/>
<path d="M4905 1886 c-16 -12 -18 -17 -7 -28 15 -15 47 0 47 22 0 20 -18 22
-40 6z"/>
<path d="M1880 1840 c0 -29 2 -31 31 -26 17 2 34 7 37 11 12 12 -15 40 -42 43
-23 3 -26 0 -26 -28z"/>
<path d="M1767 1814 c-20 -41 -14 -63 11 -41 10 8 27 18 40 21 24 8 29 25 10
44 -21 21 -44 13 -61 -24z"/>
<path d="M4815 1818 c-4 -18 -7 -39 -6 -45 1 -7 -4 -13 -12 -13 -8 0 -22 -8
-31 -19 -14 -15 -15 -23 -5 -45 9 -20 10 -29 1 -38 -9 -9 -16 -2 -28 28 -9 21
-17 40 -19 42 -1 1 -24 -5 -50 -13 -44 -15 -48 -15 -60 1 -11 15 -15 16 -29 5
-20 -17 -4 -51 25 -51 24 0 35 -25 19 -45 -7 -9 -10 -26 -6 -41 7 -27 22 -29
68 -9 13 5 19 1 24 -19 6 -27 12 -30 38 -20 18 7 21 35 6 50 -13 13 36 74 60
74 9 0 23 -11 30 -25 16 -31 41 -32 66 -4 10 12 38 30 60 39 23 10 44 22 47
28 12 18 -23 52 -53 52 -16 0 -32 5 -35 11 -4 6 -19 7 -37 4 -29 -7 -30 -6
-23 23 4 21 1 34 -10 46 -24 23 -32 20 -40 -16z m25 -89 c0 -11 -4 -17 -10
-14 -5 3 -10 13 -10 21 0 8 5 14 10 14 6 0 10 -9 10 -21z m70 -29 c0 -11 -7
-20 -15 -20 -15 0 -21 21 -8 33 12 13 23 7 23 -13z m-222 -72 c-3 -7 -13 -15
-24 -17 -16 -3 -17 -1 -5 13 16 19 34 21 29 4z"/>
<path d="M2065 1813 c-11 -2 -29 -8 -40 -12 -51 -21 -95 -31 -132 -31 -46 0
-73 -23 -73 -61 0 -35 18 -49 62 -49 45 0 66 -27 46 -60 -16 -25 -1 -54 31
-58 16 -3 24 3 28 17 3 11 15 23 26 27 68 21 164 156 137 189 -16 19 -30 19
-30 1 0 -15 -57 -33 -68 -21 -4 4 9 20 28 36 33 27 30 32 -15 22z m-138 -89
c9 -23 -13 -40 -32 -24 -8 7 -15 19 -15 26 0 19 39 18 47 -2z m107 -53 c30
-34 -1 -54 -45 -30 -20 10 -20 11 -3 30 21 24 27 24 48 0z"/>
<path d="M1857 1626 c-7 -18 1 -26 25 -26 13 0 18 6 16 17 -4 22 -34 29 -41 9z"/>
<path d="M2129 1604 c-10 -13 -10 -17 2 -25 34 -21 72 -1 49 26 -16 19 -34 19
-51 -1z"/>
<path d="M4524 1596 c-8 -22 14 -56 36 -56 20 0 26 23 14 54 -8 20 -43 21 -50
2z"/>
<path d="M1756 1552 c-12 -11 -5 -39 13 -56 22 -20 55 -18 58 4 3 16 -61 62
-71 52z"/>
<path d="M7744 1508 c-4 -7 2 -18 14 -26 22 -14 22 -19 22 -282 0 -148 -3
-275 -6 -284 -9 -24 -51 -20 -57 5 -11 41 -32 14 -35 -44 -2 -47 0 -57 13 -57
9 0 18 7 21 15 9 23 51 19 57 -6 3 -12 3 -203 0 -425 l-6 -404 27 0 26 0 0
425 0 425 29 0 c16 0 31 -6 35 -15 3 -8 12 -15 21 -15 12 0 15 12 15 54 0 62
-15 79 -40 46 -10 -13 -25 -21 -36 -18 -18 3 -19 16 -22 285 -2 274 -2 282 18
293 11 6 20 17 20 25 0 19 -105 21 -116 3z"/>
<path d="M1113 1494 c-4 -10 1 -22 12 -30 17 -13 18 -32 16 -291 -1 -153 -5
-280 -7 -283 -11 -10 -1015 -10 -1035 0 -25 14 -24 34 3 52 34 23 17 48 -31
48 -22 0 -46 -3 -55 -6 -20 -8 -21 -33 -1 -40 10 -4 15 -20 15 -44 0 -21 6
-43 13 -49 10 -7 175 -12 553 -13 l539 -3 3 -418 c2 -409 3 -417 22 -417 20 0
20 8 21 393 1 215 2 403 2 417 2 33 32 38 62 10 27 -25 30 -21 39 43 6 38 4
48 -9 53 -10 4 -24 -2 -36 -14 -22 -25 -45 -20 -51 11 -2 12 -3 137 -1 277 l4
255 25 19 c36 26 15 46 -48 46 -36 0 -50 -4 -55 -16z"/>
<path d="M6643 984 c-4 -10 0 -20 10 -26 15 -8 17 -52 17 -483 0 -468 0 -475
20 -475 20 0 20 7 21 338 1 185 2 375 3 421 l1 85 33 7 c18 3 145 6 282 4 224
-2 252 -4 270 -20 32 -29 50 -13 50 45 0 59 -21 77 -49 42 -15 -20 -26 -21
-295 -24 -259 -3 -280 -2 -290 15 -9 15 -7 21 13 36 37 28 22 51 -34 51 -33 0
-47 -5 -52 -16z"/>
<path d="M8840 981 c0 -10 9 -21 21 -24 15 -4 20 -12 17 -29 l-3 -23 -285 -3
c-282 -2 -285 -2 -301 19 -27 37 -49 18 -49 -41 0 -56 22 -78 45 -46 11 15 43
17 306 18 162 0 302 5 312 10 12 6 17 21 17 48 0 30 5 40 20 45 11 3 20 15 20
26 0 17 -7 19 -60 19 -52 0 -60 -2 -60 -19z"/>
<path d="M3282 917 c-10 -11 -10 -39 -3 -104 2 -20 29 -15 41 7 10 19 21 20
295 20 l285 0 0 -295 c0 -284 -1 -295 -20 -305 -11 -6 -20 -17 -20 -25 0 -12
15 -15 65 -15 69 0 85 14 45 41 -19 13 -20 26 -21 304 0 159 3 291 8 292 27 6
1014 8 1031 2 26 -10 28 -31 7 -49 -18 -15 -19 -36 -2 -43 20 -7 100 7 104 20
2 6 -5 14 -16 18 -14 4 -21 15 -21 30 0 21 5 24 63 30 34 3 271 5 527 3 l465
-3 3 -423 c2 -414 3 -422 22 -422 20 0 20 6 18 443 l-3 442 -1409 2 c-1396 3
-1410 3 -1428 23 -22 24 -22 24 -36 7z"/>
<path d="M2904 906 c-3 -8 -27 -16 -55 -20 l-49 -7 0 -363 c0 -200 -3 -397 -6
-439 l-7 -77 32 0 31 0 0 420 c0 402 1 420 18 420 11 0 27 -9 37 -20 27 -29
45 -9 45 51 0 43 -3 49 -20 49 -11 0 -23 -6 -26 -14z"/>
<path d="M4026 754 c-20 -29 -18 -69 4 -69 9 0 17 13 20 30 4 23 10 29 25 27
46 -9 35 -50 -32 -122 -58 -61 -54 -75 25 -75 45 0 66 5 72 15 23 37 0 53 -40
28 -14 -9 -22 -10 -31 -1 -8 8 0 21 30 49 51 49 59 81 31 117 -29 37 -81 38
-104 1z"/>
<path d="M4981 406 c-8 -10 -6 -19 9 -39 18 -23 20 -40 20 -196 l0 -171 25 0
25 0 0 179 c0 174 1 179 22 193 20 13 21 17 9 32 -17 20 -94 22 -110 2z"/>
<path d="M2214 388 c-4 -6 1 -17 12 -25 17 -13 18 -27 16 -188 l-4 -175 32 0
31 0 -2 176 c-2 155 0 178 14 186 10 5 17 16 17 23 0 19 -105 21 -116 3z"/>
<path d="M8327 333 c-4 -3 -7 -80 -7 -170 l0 -163 25 0 25 0 0 144 c0 141 0
144 23 150 12 3 136 6 275 6 245 0 252 1 252 20 0 20 -7 20 -293 20 -162 0
-297 -3 -300 -7z"/>
<path d="M40 300 c0 -19 7 -20 264 -20 220 0 266 -2 276 -15 9 -11 10 -47 5
-140 l-7 -125 26 0 c26 0 26 0 27 83 3 151 2 206 -4 221 -6 14 -44 16 -297 16
-283 0 -290 0 -290 -20z"/>
<path d="M9368 29 c-24 -25 -23 -29 7 -29 20 0 25 5 25 25 0 29 -8 30 -32 4z"/>
</g>
</svg>
