<?xml version="1.0" standalone="no"?>
<!DOCTYPE svg PUBLIC "-//W3C//DTD SVG 20010904//EN"
 "http://www.w3.org/TR/2001/REC-SVG-20010904/DTD/svg10.dtd">
<svg version="1.0" xmlns="http://www.w3.org/2000/svg"
 width="940.000000pt" height="730.000000pt" viewBox="0 0 940.000000 730.000000"
 preserveAspectRatio="xMidYMid meet">
<metadata>
Created by potrace 1.16, written by Peter Selinger 2001-2019
</metadata>
<g transform="translate(0.000000,730.000000) scale(0.100000,-0.100000)"
fill="#000000" stroke="none">
<path d="M0 7260 c0 -33 7 -48 38 -81 20 -22 47 -45 60 -50 12 -4 22 -13 22
-19 0 -17 -53 -11 -87 10 l-33 20 0 -84 c0 -58 4 -86 13 -90 10 -5 9 -7 -1
-12 -19 -9 -17 -274 2 -274 8 0 28 -16 45 -35 17 -19 35 -35 41 -35 16 0 12
-17 -6 -24 -25 -9 -31 -8 -63 20 l-31 26 0 -90 c0 -76 3 -91 18 -97 16 -6 16
-7 0 -16 -16 -9 -18 -27 -18 -139 0 -123 1 -130 20 -130 11 0 20 -6 20 -13 0
-7 18 -24 40 -37 51 -32 53 -55 4 -47 -20 3 -44 13 -54 22 -9 8 -20 15 -23 15
-4 0 -7 -36 -7 -80 0 -64 3 -80 15 -80 8 0 15 -7 15 -15 0 -8 -7 -15 -15 -15
-13 0 -15 -21 -15 -125 0 -69 4 -125 9 -125 5 0 28 -20 52 -45 24 -25 50 -44
58 -42 9 1 16 -4 16 -12 0 -8 -11 -16 -25 -18 -26 -4 -80 14 -80 27 0 4 -7 10
-15 14 -13 4 -15 -8 -15 -79 0 -69 3 -85 15 -85 19 0 19 -26 0 -34 -12 -4 -15
-28 -15 -130 0 -118 1 -125 21 -131 12 -4 35 -22 51 -41 17 -19 38 -33 47 -32
9 2 16 -4 16 -12 0 -21 -70 -18 -94 4 -34 31 -41 20 -41 -64 0 -73 2 -80 20
-80 26 0 26 -16 0 -23 -19 -5 -20 -14 -20 -127 l0 -122 30 -11 c16 -6 30 -15
30 -21 0 -12 52 -56 68 -56 6 0 12 -4 12 -10 0 -15 -64 -12 -86 5 -10 8 -27
15 -36 15 -16 0 -18 -10 -18 -80 0 -73 2 -80 20 -80 26 0 26 -20 0 -27 -19 -5
-20 -14 -20 -129 l0 -124 30 -6 c17 -4 30 -11 30 -17 0 -18 53 -67 72 -67 27
0 22 -19 -7 -26 -16 -4 -37 1 -60 15 -61 35 -65 31 -65 -60 0 -72 2 -81 20
-86 26 -7 26 -23 0 -23 -19 0 -20 -7 -20 -130 0 -122 1 -130 20 -130 10 0 36
-18 56 -40 21 -22 46 -40 56 -40 26 0 19 -34 -8 -38 -11 -2 -36 8 -56 21 -53
37 -68 23 -68 -63 0 -69 10 -87 45 -88 5 0 11 -5 13 -11 6 -17 -26 -25 -43
-11 -13 11 -15 -5 -15 -134 l0 -146 26 0 c17 0 39 -14 66 -43 23 -23 48 -41
56 -39 9 2 12 -3 10 -15 -5 -23 -50 -19 -94 8 l-32 19 -16 -25 c-19 -29 -21
-110 -4 -125 7 -6 22 -17 33 -25 25 -17 11 -33 -15 -17 -11 7 -22 12 -25 12
-3 0 -5 -60 -5 -134 l0 -133 40 -7 c23 -4 40 -12 40 -19 0 -19 53 -67 73 -67
21 0 22 -16 2 -24 -25 -9 -75 5 -89 26 -14 19 -14 19 -40 -3 -22 -19 -26 -31
-26 -73 0 -45 3 -53 30 -71 42 -28 34 -48 -12 -30 -17 7 -18 -5 -18 -169 0
-111 4 -176 10 -176 6 0 10 18 10 40 0 54 20 53 81 -5 26 -25 53 -45 59 -45 5
0 10 -7 10 -15 0 -22 -52 -19 -83 5 -32 25 -39 25 -65 -3 -43 -45 -19 -137 35
-137 27 0 30 -12 7 -31 -14 -11 -19 -10 -34 9 -10 12 -21 22 -24 22 -3 0 -6
-86 -6 -191 0 -142 3 -190 12 -187 23 8 34 37 21 57 -9 15 -9 21 -1 23 27 9
57 -6 84 -42 16 -22 37 -40 47 -42 10 -2 18 -7 18 -13 0 -19 -51 -16 -90 6
l-40 22 -25 -29 c-34 -38 -33 -76 2 -111 15 -15 31 -28 36 -28 5 0 11 -6 13
-12 6 -18 -32 -16 -47 2 -7 8 -16 15 -21 15 -5 0 -9 -88 -9 -195 0 -107 4
-195 8 -195 14 0 33 44 30 69 -5 40 18 35 76 -18 31 -28 61 -51 66 -51 6 0 10
-4 10 -10 0 -18 -62 -11 -97 11 l-34 21 -30 -28 c-18 -17 -29 -38 -29 -55 0
-30 36 -73 70 -84 24 -8 26 -23 4 -32 -8 -3 -25 4 -38 16 -12 11 -25 21 -29
21 -4 0 -7 -91 -7 -202 l0 -202 22 21 c15 15 21 33 20 58 -1 35 0 37 26 30 15
-3 29 -11 30 -16 11 -28 56 -69 78 -69 16 0 24 -6 24 -16 0 -14 -8 -16 -47
-10 -26 3 -52 11 -57 16 -12 12 -46 13 -46 2 0 -5 -11 -15 -25 -22 -36 -19
-33 -57 9 -97 18 -18 41 -33 50 -33 21 0 21 -16 -1 -24 -10 -4 -26 3 -43 19
-14 14 -29 25 -33 25 -4 0 -7 -36 -7 -80 l0 -80 138 0 c125 0 138 2 149 20 8
12 9 21 3 25 -6 3 -10 24 -10 46 0 37 2 39 30 39 20 0 30 -5 30 -15 0 -18 21
-20 38 -3 8 8 12 8 12 1 0 -20 -30 -37 -42 -25 -19 19 -28 14 -28 -18 0 -33
24 -50 43 -31 6 6 20 11 30 11 15 0 18 -5 13 -25 -6 -22 -3 -25 23 -25 35 0
51 37 24 57 -15 12 -15 14 3 35 40 47 69 59 69 28 0 -7 13 -18 28 -23 24 -8
33 -5 56 17 15 14 34 26 42 26 9 0 24 9 34 20 17 19 17 21 0 40 -10 11 -29 20
-42 20 -12 0 -23 5 -23 11 0 7 -11 9 -30 5 -28 -5 -30 -3 -30 22 0 16 -5 33
-12 40 -14 14 -42 16 -33 2 3 -5 -2 -21 -11 -35 -9 -14 -13 -25 -8 -25 4 0 -4
-12 -19 -28 -19 -20 -24 -31 -17 -42 14 -22 12 -40 -4 -40 -7 0 -19 14 -26 30
-17 40 -23 43 -56 25 -16 -8 -35 -15 -42 -15 -15 0 -51 39 -52 55 0 11 68 35
98 35 10 0 25 11 32 25 7 14 21 25 31 25 27 0 33 19 13 41 -28 31 -79 17 -131
-34 l-43 -41 0 97 c0 88 2 97 19 97 10 0 24 7 31 15 10 12 8 16 -13 24 -36 14
-39 22 -39 114 0 139 -1 134 32 146 39 13 39 38 0 46 -17 4 -31 10 -31 13 -1
4 -3 76 -4 160 -3 124 -1 155 12 167 13 13 13 17 -1 31 -11 10 -16 34 -16 70
l0 55 30 -18 c17 -10 28 -23 26 -30 -8 -19 10 -25 25 -7 7 8 30 24 51 35 53
27 49 44 -9 44 -60 0 -110 34 -118 79 -6 28 -10 167 -7 206 1 8 -1 34 -4 57
-5 34 -3 44 10 49 25 9 52 -4 38 -18 -17 -17 -15 -63 2 -77 11 -9 20 -9 35 -2
27 15 29 14 33 -11 2 -18 8 -22 28 -20 41 6 52 21 35 45 -19 27 -19 37 0 37 8
0 15 9 15 19 0 10 7 22 16 25 23 9 24 8 24 -12 0 -45 45 -55 80 -17 12 13 38
29 56 35 18 6 35 17 37 24 8 19 -21 56 -43 56 -10 0 -22 5 -26 11 -4 6 -19 9
-36 5 -26 -5 -29 -3 -27 17 3 30 -10 57 -27 57 -8 0 -14 -9 -14 -20 0 -11 -4
-20 -10 -20 -5 0 -10 -8 -10 -18 0 -9 -11 -29 -25 -44 -14 -15 -21 -30 -15
-33 15 -9 12 -45 -4 -45 -8 0 -17 13 -21 30 -9 39 -18 43 -52 23 -37 -21 -80
-11 -95 22 -18 40 -4 56 47 54 42 -3 85 19 85 43 0 12 -34 10 -48 -4 -10 -10
-14 -8 -18 10 -8 27 -16 28 -39 2 -28 -31 -35 -24 -35 39 0 42 4 60 15 64 8 4
103 7 212 8 109 1 329 4 488 8 l290 6 3 40 c2 26 10 46 24 56 30 24 14 39 -42
39 -57 0 -72 -16 -40 -40 13 -10 21 -25 18 -36 -3 -18 -17 -19 -188 -25 -357
-12 -767 -10 -778 4 -13 15 -17 983 -5 990 4 3 161 7 348 11 533 10 595 10
605 0 5 -5 12 -130 16 -277 l7 -268 -24 -25 c-29 -31 -15 -44 45 -39 43 3 58
21 34 39 -13 10 -16 60 -21 316 -4 168 -6 307 -7 309 0 2 -152 0 -337 -5 -186
-5 -403 -9 -483 -9 -135 0 -145 1 -142 18 2 10 -8 29 -21 43 -28 27 -37 63
-37 139 0 83 9 114 36 121 12 3 25 12 28 20 5 14 -29 44 -51 44 -9 0 -13 17
-13 55 l0 55 58 1 c148 2 398 7 410 8 8 1 12 17 12 46 0 39 3 47 25 55 49 19
22 48 -42 46 -24 -1 -48 -7 -54 -13 -13 -13 -4 -33 17 -33 8 0 14 -10 14 -25
0 -34 -12 -35 -240 -32 l-195 2 -6 80 c-4 44 -8 264 -9 490 l-3 409 25 7 c13
3 112 8 219 10 l194 4 8 -275 c7 -268 7 -275 -13 -292 -38 -31 -26 -48 34 -48
63 0 77 12 47 44 -21 22 -21 27 -21 596 0 527 1 575 17 592 15 17 15 20 3 28
-19 12 -81 12 -100 0 -12 -8 -11 -12 7 -32 21 -22 22 -29 20 -293 l-2 -270
-210 -6 c-119 -3 -214 -2 -220 3 -6 6 -11 187 -13 493 l-4 485 179 1 c241 2
254 2 265 -9 7 -7 2 -18 -11 -31 -31 -31 -26 -38 31 -44 64 -8 80 4 50 36 -12
13 -22 35 -22 49 0 48 -13 50 -247 46 -120 -1 -224 1 -231 5 -8 6 -12 28 -11
65 2 31 -1 71 -5 87 -6 27 -3 32 24 42 38 14 45 3 19 -31 -20 -25 -20 -28 -5
-51 19 -30 20 -30 51 -9 27 18 24 20 40 -31 6 -19 16 -19 41 -1 16 13 17 18 6
36 -13 21 -4 53 14 51 5 -1 9 3 9 8 0 6 5 15 11 21 9 9 17 6 33 -11 11 -13 21
-26 21 -31 0 -18 27 -6 64 27 22 19 47 35 57 35 9 0 22 7 29 15 21 26 -13 53
-76 61 -46 5 -54 9 -54 28 -1 23 -22 56 -36 56 -9 0 -34 -46 -34 -63 0 -4 -11
-23 -25 -41 -19 -25 -22 -35 -13 -44 9 -9 9 -15 0 -24 -8 -8 -14 -4 -24 18
-16 37 -29 46 -46 32 -27 -23 -70 -19 -91 8 -29 37 -12 68 32 61 38 -5 59 4
105 49 l34 33 -31 15 c-19 10 -32 12 -36 6 -3 -6 -14 -10 -23 -10 -10 0 -34
-14 -54 -30 -20 -17 -39 -26 -42 -21 -8 13 -10 147 -2 160 4 6 16 11 27 11 12
0 19 7 19 20 0 11 -6 20 -14 20 -26 0 -37 29 -38 93 0 108 9 141 43 154 37 14
38 41 2 49 -16 3 -32 7 -38 8 -12 3 -16 595 -4 619 9 15 30 17 230 17 133 0
228 4 240 10 10 6 19 20 19 31 0 19 -4 20 -32 14 -56 -13 -440 -17 -451 -6 -6
6 -55 11 -114 11 l-103 0 0 -40z m324 -1155 c-4 -8 -12 -15 -20 -15 -8 0 -14
7 -14 15 0 8 9 15 20 15 13 0 18 -5 14 -15z m151 -104 c3 -5 1 -12 -5 -16 -5
-3 -10 1 -10 9 0 18 6 21 15 7z m62 -45 c-8 -19 -37 -21 -37 -3 0 7 5 18 12
25 15 15 33 -1 25 -22z m-217 -66 c0 -5 -7 -10 -15 -10 -8 0 -15 5 -15 10 0 6
7 10 15 10 8 0 15 -4 15 -10z m-180 -1090 c0 -5 -4 -10 -10 -10 -5 0 -10 5
-10 10 0 6 5 10 10 10 6 0 10 -4 10 -10z m12 -1592 c-7 -7 -12 -8 -12 -2 0 14
12 26 19 19 2 -3 -1 -11 -7 -17z m-32 -978 c0 -5 -4 -10 -10 -10 -5 0 -10 5
-10 10 0 6 5 10 10 10 6 0 10 -4 10 -10z m403 -426 c8 -8 -3 -34 -14 -34 -5 0
-9 9 -9 20 0 19 11 26 23 14z m57 -44 c0 -11 -7 -20 -15 -20 -18 0 -19 12 -3
28 16 16 18 15 18 -8z m-210 -70 c0 -5 -7 -10 -16 -10 -8 0 -12 5 -9 10 3 6
10 10 16 10 5 0 9 -4 9 -10z m17 -1388 c-16 -15 -47 -11 -47 7 0 10 39 20 53
13 5 -2 2 -11 -6 -20z m153 -102 c0 -11 -4 -20 -9 -20 -14 0 -23 18 -16 30 10
17 25 11 25 -10z m64 -19 c3 -5 -1 -14 -8 -20 -16 -13 -32 2 -21 19 8 12 22
13 29 1z m-454 -71 c0 -5 -7 -10 -15 -10 -8 0 -15 5 -15 10 0 6 7 10 15 10 8
0 15 -4 15 -10z m32 -82 c-7 -7 -12 -8 -12 -2 0 14 12 26 19 19 2 -3 -1 -11
-7 -17z"/>
<path d="M1701 7038 c1 -145 6 -271 11 -281 9 -17 29 -18 310 -16 276 1 303 0
314 -16 23 -32 44 -11 44 45 0 59 -21 77 -49 42 -15 -20 -25 -21 -288 -23
-150 -2 -275 0 -279 3 -3 4 -7 119 -7 257 l-2 251 -28 0 -28 0 2 -262z"/>
<path d="M2758 7113 c0 -104 0 -214 1 -245 3 -68 -16 -86 -50 -49 -28 30 -39
18 -39 -45 0 -57 10 -66 41 -38 10 9 25 14 33 11 16 -6 21 -199 25 -1032 1
-394 5 -503 15 -513 10 -11 113 -12 539 -6 289 4 531 10 537 14 14 9 14 1048
0 1065 -6 7 -34 11 -72 9 -128 -5 -970 -5 -976 0 -7 8 -9 118 -11 604 -1 405
-1 412 -21 412 -19 0 -20 -7 -22 -187z m1065 -1190 c10 -462 9 -661 -4 -668
-5 -4 -230 -9 -499 -12 -483 -6 -488 -6 -494 14 -8 24 -14 262 -17 673 l-3
295 125 5 c68 3 295 7 505 8 l381 2 6 -317z"/>
<path d="M3292 7033 l3 -268 485 3 c267 2 629 7 805 10 l320 7 3 258 c2 252 2
257 -18 257 -16 0 -20 -7 -20 -32 0 -136 -8 -439 -11 -442 -4 -4 -647 -14
-1224 -19 l-300 -2 -3 248 c-2 239 -3 247 -22 247 -20 0 -20 -6 -18 -267z"/>
<path d="M5400 6802 l0 -499 -517 -7 c-354 -4 -521 -10 -530 -17 -11 -9 -12
-79 -8 -378 8 -544 12 -668 20 -680 5 -9 145 -10 538 -5 472 5 533 8 545 22
10 13 11 88 7 342 -10 630 -14 989 -15 1353 0 360 0 367 -20 367 -20 0 -20 -7
-20 -498z m5 -944 c6 -345 3 -584 -7 -593 -7 -6 -987 -9 -993 -3 -3 3 -7 226
-8 495 l-2 488 155 5 c85 3 311 7 501 8 l347 2 7 -402z"/>
<path d="M8555 6888 c2 -227 9 -809 14 -1293 14 -1199 16 -1838 8 -1852 -5 -9
-42 -12 -120 -11 -354 4 -1954 -16 -1964 -24 -10 -8 -11 -75 -6 -286 6 -267
11 -308 37 -282 7 7 8 276 1 452 -1 31 1 62 6 69 6 10 217 15 981 22 1125 12
1069 12 1079 -5 4 -7 8 -316 9 -688 0 -371 5 -880 10 -1130 5 -250 12 -759 16
-1131 l7 -677 -144 -6 c-205 -8 -1129 -21 -1554 -21 l-360 0 -6 200 c-4 110
-10 596 -14 1080 -10 1289 -11 1327 -27 1336 -8 4 -18 5 -24 1 -6 -5 -7 -210
-2 -602 16 -1254 20 -2008 11 -2013 -5 -3 -163 -7 -352 -8 -188 -2 -345 -7
-347 -11 -3 -4 648 -8 1446 -8 l1451 0 -1 678 c-1 372 -5 740 -10 817 -5 77
-11 574 -15 1104 -3 530 -8 968 -12 974 -3 5 -10 521 -15 1146 -5 625 -10
1174 -11 1221 -2 47 -4 365 -5 708 -2 342 -5 629 -8 637 -4 10 -20 15 -45 15
l-38 0 4 -412z"/>
<path d="M5990 7208 c47 -86 65 -101 114 -93 81 14 91 50 17 57 -37 4 -60 13
-88 37 -79 66 -79 66 -43 -1z"/>
<path d="M6060 7239 c0 -12 36 -29 61 -29 17 0 19 3 10 14 -13 15 -71 27 -71
15z"/>
<path d="M7684 7215 c-3 -8 -3 -19 0 -24 10 -16 36 -1 36 20 0 22 -28 26 -36
4z"/>
<path d="M7584 7185 c-9 -23 7 -36 34 -28 14 3 22 12 20 22 -4 22 -46 27 -54
6z"/>
<path d="M7833 7169 c-15 -15 -121 -39 -139 -32 -22 8 -64 -25 -64 -50 0 -33
19 -47 61 -47 45 0 52 -9 51 -61 -1 -47 21 -63 44 -31 8 11 27 23 43 27 28 6
91 72 95 101 1 8 8 20 14 26 7 7 12 18 12 25 0 24 -28 25 -59 2 -34 -25 -52
-19 -33 12 19 30 -1 52 -25 28z m-103 -68 c14 -27 13 -41 -4 -41 -20 0 -37 25
-30 44 8 21 21 20 34 -3z m94 -37 c23 -9 21 -54 -2 -54 -28 0 -43 20 -31 42
11 20 11 20 33 12z"/>
<path d="M3970 7125 c-10 -12 -10 -19 -2 -27 7 -7 12 -40 12 -73 0 -49 -4 -66
-20 -80 -28 -25 -16 -35 41 -35 51 0 60 10 34 36 -11 12 -15 39 -15 105 0 80
-2 89 -19 89 -10 0 -24 -7 -31 -15z"/>
<path d="M4132 7128 c-9 -9 -9 -15 0 -26 7 -8 13 -43 14 -79 1 -53 -2 -67 -17
-76 -35 -22 -22 -37 30 -37 57 0 69 10 41 35 -17 15 -20 31 -20 107 0 78 -2
88 -18 88 -10 0 -23 -5 -30 -12z"/>
<path d="M388 7043 c-14 -16 -28 -41 -30 -58 -3 -16 -8 -37 -12 -46 -4 -10 -1
-23 8 -32 9 -9 16 -20 16 -24 0 -12 81 -103 91 -103 13 0 99 94 99 108 0 7 5
21 12 32 9 14 9 24 1 42 -7 13 -13 32 -15 43 -2 13 -15 22 -41 27 -21 4 -48
15 -60 23 -30 21 -39 19 -69 -12z"/>
<path d="M918 7053 c-20 -23 -31 -84 -22 -128 16 -86 101 -114 137 -45 22 43
19 126 -6 164 -14 20 -26 26 -56 26 -24 0 -44 -7 -53 -17z m84 -63 c10 -57 -7
-123 -30 -118 -35 7 -53 87 -32 143 7 19 16 26 32 23 18 -2 24 -12 30 -48z"/>
<path d="M772 7045 c-22 -12 -22 -12 -2 -26 15 -11 21 -28 24 -77 3 -54 1 -64
-16 -76 -30 -21 -13 -35 38 -34 52 1 63 12 38 39 -13 14 -19 42 -22 104 -5 92
-10 98 -60 70z"/>
<path d="M6112 7048 c-7 -7 -12 -17 -12 -23 0 -7 -11 -17 -25 -23 -31 -14 -32
-32 -2 -59 31 -29 80 -38 97 -18 11 13 8 16 -20 21 -43 9 -48 29 -16 63 20 21
23 30 14 39 -15 15 -21 15 -36 0z"/>
<path d="M6235 7023 c8 -35 13 -39 26 -26 8 8 8 17 0 32 -17 31 -35 27 -26 -6z"/>
<path d="M6295 6984 c-39 -46 -47 -71 -34 -95 8 -16 19 -19 47 -17 31 3 40 9
55 40 26 53 11 70 -24 29 -15 -18 -30 -28 -33 -23 -4 6 -2 13 4 17 5 3 10 15
10 26 0 10 5 19 10 19 6 0 10 9 10 20 0 29 -11 25 -45 -16z"/>
<path d="M7685 6999 c-10 -15 3 -25 16 -12 7 7 7 13 1 17 -6 3 -14 1 -17 -5z"/>
<path d="M7930 6981 c0 -18 35 -39 47 -28 3 3 2 15 -2 26 -8 27 -45 28 -45 2z"/>
<path d="M7574 6915 c-8 -19 13 -45 37 -45 30 0 30 16 -2 39 -25 19 -30 20
-35 6z"/>
<path d="M885 6772 c-115 -1 -213 -6 -217 -10 -13 -13 -11 -533 2 -546 14 -14
524 -10 550 4 15 8 17 27 13 197 -4 246 -9 342 -17 351 -8 7 -47 8 -331 4z
m295 -275 c4 -163 2 -231 -6 -238 -7 -5 -109 -8 -240 -7 l-229 3 -3 232 c-2
212 -1 232 15 235 9 2 116 3 237 3 l221 0 5 -228z"/>
<path d="M8230 6761 c-36 -9 -100 -63 -100 -83 0 -14 9 -18 41 -18 53 0 81 15
77 43 -2 18 1 21 20 19 13 -2 22 2 22 10 0 14 -20 39 -29 37 -4 -1 -17 -4 -31
-8z m-15 -51 c0 -8 -8 -16 -17 -18 -13 -2 -18 3 -18 18 0 15 5 20 18 18 9 -2
17 -10 17 -18z"/>
<path d="M6092 6724 c-53 -26 -78 -55 -68 -80 10 -26 116 0 116 28 0 6 -13 8
-30 5 -22 -5 -30 -3 -30 8 0 11 12 15 46 15 41 0 45 2 42 22 -4 30 -16 31 -76
2z"/>
<path d="M8414 6739 c-3 -6 -2 -15 4 -21 13 -13 32 -2 32 18 0 16 -26 19 -36
3z"/>
<path d="M8345 6668 c-4 -18 -15 -42 -25 -53 -24 -26 -16 -75 11 -75 10 0 23
-9 29 -19 16 -31 48 -36 74 -12 12 11 37 26 54 32 29 10 33 15 30 43 -2 26 -7
31 -28 31 -14 0 -30 4 -37 8 -7 4 -24 5 -38 1 -22 -5 -25 -3 -25 19 0 61 -34
79 -45 25z m35 -62 c0 -24 -18 -28 -30 -6 -9 17 -8 20 10 20 11 0 20 -6 20
-14z m60 -31 c0 -16 -27 -32 -37 -22 -3 4 -3 13 0 22 8 20 37 20 37 0z"/>
<path d="M5596 6672 c-9 -15 12 -35 29 -28 14 5 15 9 5 21 -14 17 -26 19 -34
7z"/>
<path d="M6240 6661 c0 -11 -3 -21 -7 -23 -5 -1 -15 -16 -24 -33 -20 -39 -12
-88 16 -93 11 -2 30 -13 42 -24 23 -21 73 -19 73 3 0 5 16 17 35 25 70 29 50
77 -35 88 -45 6 -51 10 -65 41 -15 38 -35 47 -35 16z m26 -88 c-10 -10 -19 5
-10 18 6 11 8 11 12 0 2 -7 1 -15 -2 -18z m64 -23 c0 -13 -7 -20 -20 -20 -18
0 -19 3 -10 20 6 11 15 20 20 20 6 0 10 -9 10 -20z"/>
<path d="M5493 6653 c-23 -9 -15 -43 10 -43 31 0 51 15 44 34 -6 16 -29 20
-54 9z"/>
<path d="M5740 6633 c-8 -4 -20 -12 -27 -19 -7 -7 -43 -16 -80 -19 -38 -4 -76
-14 -85 -23 -40 -34 -7 -88 47 -78 37 7 45 -3 45 -60 0 -46 19 -51 72 -19 63
40 108 86 108 111 0 13 5 26 10 29 10 6 14 45 5 45 -4 0 -20 -7 -36 -16 -17
-8 -38 -13 -47 -9 -15 5 -14 9 7 24 33 25 19 49 -19 34z m-110 -86 c0 -19 -10
-27 -26 -20 -21 8 -17 33 6 33 11 0 20 -6 20 -13z m98 -39 c18 -18 15 -48 -6
-48 -29 0 -43 19 -29 41 14 22 19 23 35 7z"/>
<path d="M317 6614 c-4 -4 -7 -24 -7 -44 0 -30 -5 -39 -25 -48 -32 -15 -35
-66 -5 -84 12 -8 20 -24 20 -40 0 -16 3 -28 8 -28 18 1 32 18 26 33 -4 11 -1
17 9 17 18 0 31 -32 23 -58 -4 -11 1 -22 14 -30 16 -10 21 -9 30 8 6 11 17 20
25 20 35 0 115 70 115 100 0 10 7 23 15 30 20 16 19 50 -1 50 -8 0 -22 -7 -30
-15 -17 -16 -54 -21 -54 -6 0 5 11 16 25 25 14 9 25 21 25 26 0 16 -67 12 -73
-4 -12 -31 -137 -45 -137 -16 0 5 14 17 31 25 16 9 29 22 26 28 -4 14 -49 22
-60 11z m43 -134 c0 -22 -20 -26 -38 -8 -19 19 -14 28 13 28 18 0 25 -5 25
-20z m98 -32 c18 -18 15 -48 -6 -48 -28 0 -43 20 -31 42 11 21 20 23 37 6z"/>
<path d="M8104 6579 c-10 -17 23 -46 38 -31 8 8 8 15 -2 27 -15 18 -26 19 -36
4z"/>
<path d="M8193 6571 c-32 -16 -43 -31 -23 -31 6 0 10 -9 10 -20 0 -14 7 -20
22 -20 17 0 19 -3 10 -12 -9 -9 -15 -9 -24 0 -16 16 -25 15 -32 -3 -11 -31 5
-47 41 -40 26 5 35 2 40 -12 18 -48 57 -29 47 22 -4 26 -2 35 13 44 17 10 17
12 0 21 -9 6 -24 24 -32 40 -17 33 -26 35 -72 11z"/>
<path d="M6000 6556 c0 -8 16 -20 35 -26 40 -13 41 -17 19 -49 -13 -18 -14
-28 -5 -47 10 -22 15 -24 51 -18 33 5 40 4 40 -10 0 -9 4 -16 9 -16 16 0 33
29 27 45 -3 9 -1 24 5 34 9 14 6 26 -15 59 -29 47 -32 48 -72 27 -37 -19 -50
-19 -58 0 -7 19 -36 20 -36 1z m115 -86 c-3 -5 -13 -10 -21 -10 -8 0 -12 5 -9
10 3 6 13 10 21 10 8 0 12 -4 9 -10z"/>
<path d="M8082 6458 c2 -12 11 -24 21 -26 14 -3 18 1 15 20 -2 12 -11 24 -21
26 -14 3 -18 -1 -15 -20z"/>
<path d="M5576 6451 c-4 -5 -2 -12 3 -15 5 -4 12 -2 15 3 4 5 2 12 -3 15 -5 4
-12 2 -15 -3z"/>
<path d="M5967 6447 c-6 -17 11 -37 31 -37 19 0 11 44 -9 48 -9 2 -19 -3 -22
-11z"/>
<path d="M5825 6440 c-9 -15 3 -30 24 -30 25 0 33 11 20 27 -13 15 -35 17 -44
3z"/>
<path d="M561 6378 c-7 -19 -5 -24 16 -32 46 -16 56 21 12 44 -16 9 -21 7 -28
-12z"/>
<path d="M5470 6362 c0 -23 19 -42 41 -42 29 0 33 22 8 41 -31 24 -49 24 -49
1z"/>
<path d="M7173 6223 c-13 -2 -23 -9 -23 -14 0 -15 53 -7 58 9 2 6 0 11 -5 11
-4 -1 -18 -4 -30 -6z"/>
<path d="M8080 6224 c0 -11 42 -68 78 -106 l34 -36 49 20 c35 15 49 26 49 40
0 17 -5 19 -34 14 -43 -8 -84 7 -118 45 -24 26 -58 39 -58 23z"/>
<path d="M7375 6207 c-12 -10 -14 -16 -7 -21 15 -9 54 12 47 25 -8 12 -18 11
-40 -4z"/>
<path d="M7094 6175 c-12 -29 4 -45 44 -45 39 0 62 14 62 37 0 16 -32 17 -48
1 -9 -9 -13 -7 -18 5 -8 21 -33 22 -40 2z"/>
<path d="M697 6163 c-14 -14 -6 -32 16 -35 13 -2 23 -11 25 -23 2 -12 21 -40
42 -64 l39 -43 51 23 c61 27 66 56 10 51 -43 -3 -107 24 -115 49 -4 11 -13 19
-21 19 -8 0 -17 7 -20 15 -7 16 -17 19 -27 8z"/>
<path d="M1897 6163 c-31 -5 -101 -69 -92 -84 15 -23 111 -6 120 22 4 12 16
19 31 19 13 0 24 4 24 8 0 12 -35 42 -46 41 -5 -1 -22 -4 -37 -6z m23 -31 c0
-9 -40 -35 -46 -29 -3 2 -2 12 2 21 6 16 44 23 44 8z"/>
<path d="M7292 6140 c-8 -16 -11 -34 -8 -39 3 -5 -4 -11 -15 -14 -17 -5 -20
-11 -15 -30 3 -13 0 -32 -8 -42 -13 -18 -14 -18 -24 2 -6 11 -9 23 -5 26 16
16 -32 18 -59 3 -27 -16 -31 -17 -47 -2 -19 18 -47 21 -56 7 -7 -13 21 -40 51
-47 28 -7 30 -16 9 -34 -9 -7 -15 -23 -13 -34 3 -18 10 -21 53 -21 44 0 50 -2
47 -19 -3 -18 -2 -18 13 -6 10 8 14 22 11 36 -4 13 0 27 9 34 8 7 15 19 15 26
0 19 59 18 66 -1 11 -28 43 -28 76 0 18 15 43 31 56 36 17 6 22 15 20 32 -3
19 -12 24 -63 32 -53 9 -60 13 -63 35 -4 25 -19 50 -31 50 -3 0 -12 -13 -19
-30z m28 -66 c0 -8 -4 -12 -10 -9 -5 3 -10 10 -10 16 0 5 5 9 10 9 6 0 10 -7
10 -16z m60 -34 c0 -11 -7 -20 -15 -20 -18 0 -19 12 -3 28 16 16 18 15 18 -8z
m-200 -70 c0 -13 -28 -25 -38 -16 -3 4 0 11 8 16 20 13 30 12 30 0z"/>
<path d="M2105 6150 c-10 -17 12 -37 25 -24 8 8 6 15 -4 23 -10 9 -16 9 -21 1z"/>
<path d="M512 6123 c2 -10 13 -19 26 -21 17 -3 22 2 22 17 0 16 -6 21 -26 21
-19 0 -25 -5 -22 -17z"/>
<path d="M820 6120 c26 -20 70 -27 70 -10 0 14 -35 30 -67 30 l-28 0 25 -20z"/>
<path d="M2025 6120 c-3 -5 -4 -14 -1 -19 6 -9 -8 -40 -35 -79 -14 -20 -22
-22 -53 -17 -22 5 -36 3 -36 -3 0 -17 -63 -21 -78 -5 -10 9 -18 11 -24 5 -15
-15 -5 -46 17 -50 30 -6 40 -19 25 -36 -7 -10 -10 -26 -6 -41 6 -25 9 -26 52
-19 44 6 46 6 39 -15 -4 -15 -2 -21 9 -21 20 0 39 36 31 60 -5 16 -2 20 15 20
14 0 20 5 18 18 -2 11 4 18 20 20 15 2 22 -2 22 -12 0 -29 47 -30 84 -2 19 14
47 30 61 36 38 14 31 52 -13 66 -17 5 -37 15 -44 22 -8 8 -15 8 -24 1 -18 -15
-36 -1 -29 21 3 11 -2 27 -12 39 -19 23 -29 26 -38 11z m30 -120 c-5 -8 -11
-8 -17 -2 -6 6 -7 16 -3 22 5 8 11 8 17 2 6 -6 7 -16 3 -22z m68 4 c8 -9 -11
-44 -23 -44 -6 0 -10 8 -10 18 0 27 18 41 33 26z m-143 -45 c0 -24 -23 -21
-28 4 -2 10 3 17 12 17 10 0 16 -9 16 -21z"/>
<path d="M8280 6075 c0 -9 5 -15 11 -13 6 2 11 8 11 13 0 5 -5 11 -11 13 -6 2
-11 -4 -11 -13z"/>
<path d="M8220 6010 c0 -24 -44 -38 -65 -20 -10 9 -15 9 -15 1 0 -6 4 -11 10
-11 5 0 12 -11 16 -24 8 -33 45 -56 89 -56 43 0 46 14 5 28 -24 9 -29 16 -28
38 2 14 8 29 15 31 21 8 15 33 -7 33 -13 0 -20 -7 -20 -20z"/>
<path d="M8350 6013 c0 -12 5 -25 11 -28 19 -12 22 3 5 27 l-16 22 0 -21z"/>
<path d="M900 5995 c0 -8 4 -15 9 -15 5 0 11 7 15 15 3 9 0 15 -9 15 -8 0 -15
-7 -15 -15z"/>
<path d="M8408 5971 c-17 -18 -28 -42 -30 -66 -3 -35 0 -39 27 -46 47 -13 75
-2 75 32 0 16 5 29 10 29 6 0 10 5 10 10 0 19 -24 10 -47 -17 l-22 -28 -1 33
c0 20 6 35 15 38 18 7 20 44 3 44 -7 -1 -25 -14 -40 -29z"/>
<path d="M853 5948 c-6 -7 -13 -21 -16 -30 -4 -10 -13 -18 -21 -18 -19 0 -29
-30 -15 -46 21 -26 80 -48 97 -37 26 16 26 33 0 33 -49 0 -56 38 -14 72 18 15
19 19 6 28 -20 13 -26 12 -37 -2z"/>
<path d="M970 5936 c0 -25 12 -46 26 -46 17 0 18 14 4 41 -12 22 -30 25 -30 5z"/>
<path d="M7020 5938 c0 -8 5 -19 12 -26 20 -20 40 -14 36 11 -3 25 -48 39 -48
15z"/>
<path d="M750 5910 c0 -5 7 -10 15 -10 8 0 15 5 15 10 0 6 -7 10 -15 10 -8 0
-15 -4 -15 -10z"/>
<path d="M1050 5904 c0 -9 -9 -18 -19 -21 -11 -3 -21 -17 -25 -35 -11 -54 -7
-68 21 -79 38 -14 73 3 73 35 0 13 7 29 15 36 10 8 12 17 6 23 -13 13 -34 -2
-27 -19 3 -8 -1 -14 -8 -14 -8 0 -16 -6 -19 -12 -3 -10 -8 -10 -17 -2 -8 8 -9
14 -1 18 6 4 11 14 11 23 0 9 7 21 17 28 9 7 13 17 9 23 -11 18 -36 14 -36 -4z"/>
<path d="M1754 5885 c-9 -23 3 -45 25 -45 26 0 31 10 20 38 -10 25 -37 30 -45
7z"/>
<path d="M930 5870 c0 -5 7 -10 15 -10 8 0 15 5 15 10 0 6 -7 10 -15 10 -8 0
-15 -4 -15 -10z"/>
<path d="M8173 5680 c-18 -21 -33 -43 -33 -49 0 -17 95 -14 110 4 18 21 3 38
-22 24 -16 -9 -24 -8 -36 5 -15 15 -11 16 47 16 53 0 62 2 57 16 -3 9 -6 18
-6 20 0 2 -19 4 -42 4 -38 0 -47 -5 -75 -40z"/>
<path d="M8435 5699 c-4 -6 -4 -13 -1 -16 8 -8 36 5 36 17 0 13 -27 13 -35 -1z"/>
<path d="M8357 5632 c-3 -15 -15 -38 -26 -51 -13 -14 -21 -38 -21 -58 0 -42
-23 -41 -28 1 -4 33 -27 44 -50 23 -9 -8 -29 -19 -44 -22 -27 -7 -39 -25 -18
-25 6 0 10 -9 10 -20 0 -11 -4 -20 -10 -20 -13 0 -13 -43 1 -57 6 -6 28 -9 49
-6 36 5 38 4 33 -16 -6 -25 13 -28 38 -5 14 13 16 20 6 35 -10 15 -7 23 18 49
34 35 50 38 65 10 14 -26 29 -25 70 5 19 14 41 25 51 25 28 0 42 25 28 48 -14
22 -56 36 -118 41 -8 1 -11 8 -8 20 6 22 -9 51 -27 51 -8 0 -16 -12 -19 -28z
m27 -77 c-4 -8 -10 -15 -15 -15 -5 0 -9 7 -9 15 0 8 7 15 15 15 9 0 12 -6 9
-15z m69 -1 c8 -9 -11 -44 -23 -44 -6 0 -10 8 -10 18 0 27 18 41 33 26z m-231
-106 c-9 -9 -15 -9 -24 0 -9 9 -7 12 12 12 19 0 21 -3 12 -12z"/>
<path d="M6113 5624 c-10 -27 14 -40 37 -19 11 10 20 22 20 27 0 15 -50 8 -57
-8z"/>
<path d="M6012 5605 c-11 -24 -11 -25 28 -25 41 0 52 14 28 38 -19 19 -44 14
-56 -13z"/>
<path d="M1913 5603 c-14 -5 -18 -63 -5 -63 17 1 64 49 58 59 -7 11 -31 13
-53 4z"/>
<path d="M6245 5579 c-24 -16 -41 -19 -82 -15 -43 4 -56 1 -77 -18 -14 -12
-26 -29 -26 -37 0 -25 37 -52 69 -51 31 1 53 -31 45 -64 -2 -11 0 -26 6 -34 8
-13 13 -13 30 -2 12 7 39 22 60 33 37 20 85 79 85 106 0 7 9 19 20 27 16 12
17 16 6 30 -12 14 -16 15 -30 2 -23 -20 -58 -29 -66 -16 -4 7 2 18 14 26 50
35 -2 47 -54 13z m-85 -53 c0 -2 3 -11 6 -20 7 -18 -12 -21 -35 -7 -16 10 -6
31 15 31 8 0 14 -2 14 -4z m109 -60 c21 -39 -11 -65 -38 -32 -9 11 -9 19 1 35
16 27 22 26 37 -3z"/>
<path d="M1802 5568 c-7 -7 -12 -20 -12 -30 0 -14 6 -16 33 -11 37 7 50 22 35
40 -13 16 -40 17 -56 1z"/>
<path d="M2026 5543 c-16 -9 -56 -19 -88 -22 -39 -5 -66 -14 -79 -28 -20 -20
-20 -22 -4 -53 15 -29 20 -32 50 -27 27 4 35 1 45 -18 7 -13 10 -34 7 -46 -4
-15 0 -30 10 -41 22 -24 32 -23 43 7 5 14 16 25 25 25 26 0 105 80 105 107 0
13 7 26 15 29 22 9 19 44 -4 44 -11 0 -21 -5 -23 -10 -4 -14 -60 -18 -64 -5
-2 6 6 15 18 20 12 6 23 16 26 23 5 17 -45 14 -82 -5z m-76 -89 c0 -18 -10
-17 -35 2 -17 12 -18 16 -5 24 17 10 40 -5 40 -26z m104 -37 c7 -11 7 -20 0
-27 -15 -15 -44 -2 -44 19 0 35 25 39 44 8z"/>
<path d="M8120 5546 c0 -8 5 -18 10 -21 6 -3 10 3 10 14 0 12 -4 21 -10 21 -5
0 -10 -6 -10 -14z"/>
<path d="M8081 5427 c-8 -11 -6 -18 9 -32 19 -17 22 -17 37 -2 13 13 14 19 3
31 -15 20 -34 20 -49 3z"/>
<path d="M6107 5423 c-12 -11 -8 -23 8 -23 8 0 15 7 15 15 0 16 -12 20 -23 8z"/>
<path d="M6364 5405 c-8 -21 4 -35 31 -35 34 0 39 15 10 34 -30 20 -34 20 -41
1z"/>
<path d="M1885 5371 c-3 -5 -1 -12 5 -16 12 -7 30 2 30 16 0 12 -27 12 -35 0z"/>
<path d="M2156 5373 c-12 -13 -5 -41 12 -45 20 -6 42 0 42 12 0 11 -47 40 -54
33z"/>
<path d="M6002 5323 c3 -25 7 -28 37 -28 19 0 36 6 39 13 2 6 -3 12 -11 12 -8
0 -20 7 -27 15 -21 25 -42 18 -38 -12z"/>
<path d="M1784 5296 c-9 -24 15 -56 41 -56 36 0 39 17 8 45 -32 28 -42 30 -49
11z"/>
<path d="M1207 5213 c-4 -3 -7 -138 -7 -298 0 -292 0 -293 -22 -307 -19 -13
-21 -18 -10 -31 9 -11 24 -14 55 -10 55 7 68 21 40 40 -13 9 -23 24 -23 33 0
25 76 32 305 28 l180 -3 3 -229 c1 -126 -1 -233 -5 -237 -5 -4 -111 -9 -236
-11 -194 -2 -229 -1 -237 12 -7 11 -4 20 11 32 28 24 21 52 -15 56 -63 8 -101
-23 -58 -47 15 -9 17 -36 20 -303 1 -161 5 -299 7 -306 4 -10 62 -12 274 -11
148 1 274 4 279 8 6 4 13 23 15 44 2 20 12 45 21 56 26 28 12 41 -45 41 -59 0
-76 -22 -40 -49 13 -10 20 -23 16 -32 -5 -13 -32 -17 -142 -22 -195 -10 -301
-9 -324 3 -18 10 -19 24 -19 239 l0 228 46 7 c26 3 132 6 236 6 160 0 190 -2
195 -15 3 -9 -2 -24 -12 -35 -35 -39 -7 -53 88 -41 13 2 7 34 -9 46 -15 10
-17 50 -21 329 l-5 317 23 18 c33 26 16 41 -47 41 -57 0 -70 -14 -39 -40 9 -7
15 -23 13 -34 -3 -21 -8 -21 -234 -24 l-232 -2 -6 22 c-3 13 -6 116 -6 229 l0
206 92 7 c50 3 156 6 235 6 121 0 145 -2 150 -16 3 -9 -4 -24 -17 -36 -28 -26
-16 -39 44 -45 37 -5 47 -2 52 12 5 12 0 23 -15 35 -14 10 -22 26 -21 41 1 13
2 30 1 37 -1 9 -63 12 -274 12 -151 0 -277 -3 -280 -7z"/>
<path d="M6632 5169 c-46 -23 -78 -61 -67 -79 8 -13 61 -13 85 0 11 6 31 22
45 36 20 20 23 29 15 45 -14 24 -25 24 -78 -2z m26 -32 c2 -12 -3 -17 -17 -17
-15 0 -21 6 -21 21 0 25 33 22 38 -4z"/>
<path d="M6865 5166 c-14 -10 -15 -15 -6 -21 8 -4 19 -1 28 8 20 19 1 30 -22
13z"/>
<path d="M8243 5143 c-23 -9 -15 -35 10 -31 12 2 22 9 22 17 0 16 -14 22 -32
14z"/>
<path d="M8136 5118 c-17 -10 -21 -33 -7 -42 15 -9 61 12 61 28 0 17 -32 26
-54 14z"/>
<path d="M6787 5113 c-4 -3 -7 -15 -7 -25 0 -10 -10 -28 -22 -40 -14 -14 -23
-35 -23 -53 0 -27 4 -31 35 -35 21 -3 35 -11 35 -19 0 -8 8 -19 17 -25 14 -8
23 -6 45 12 15 12 43 29 61 37 17 9 32 20 32 26 0 24 -22 49 -45 49 -13 0 -27
5 -30 11 -4 6 -19 7 -37 3 -29 -6 -30 -4 -25 17 8 32 -17 61 -36 42z m83 -118
c0 -8 -7 -15 -15 -15 -8 0 -15 7 -15 15 0 8 7 15 15 15 8 0 15 -7 15 -15z"/>
<path d="M7697 5111 c-27 -4 -52 -13 -56 -20 -5 -7 -7 -43 -6 -81 3 -115 58
-166 180 -168 106 -2 115 7 115 118 0 100 -13 126 -59 117 -18 -4 -32 2 -48
19 -23 25 -38 27 -126 15z"/>
<path d="M8340 5080 c-25 -11 -64 -19 -88 -19 -46 -1 -72 -18 -72 -48 1 -32
25 -53 63 -53 40 0 53 -20 42 -63 -5 -19 -2 -28 13 -36 15 -8 21 -7 25 3 3 8
25 21 49 30 42 17 98 78 98 107 0 7 8 21 17 31 15 16 15 21 3 28 -9 6 -20 4
-31 -6 -16 -15 -59 -20 -59 -6 0 4 7 18 16 30 14 21 14 22 -8 21 -13 -1 -43
-9 -68 -19z m-60 -59 c14 -27 13 -31 -7 -31 -28 0 -47 16 -40 34 9 22 34 20
47 -3z m108 -68 c3 -17 -2 -23 -15 -23 -28 0 -44 15 -37 34 10 25 48 16 52
-11z"/>
<path d="M6547 5014 c-8 -9 11 -44 24 -44 6 0 9 10 7 22 -3 22 -19 34 -31 22z"/>
<path d="M6645 5007 c-46 -27 -47 -28 -33 -44 11 -13 9 -18 -10 -31 -26 -17
-29 -44 -6 -63 12 -10 20 -10 35 -1 28 18 49 15 49 -8 0 -29 30 -38 46 -15 10
13 11 22 4 29 -14 14 -13 43 2 48 8 3 6 13 -8 34 -12 16 -24 37 -27 47 -7 19
-23 20 -52 4z m10 -88 c-8 -12 -35 -12 -35 0 0 11 22 20 33 14 4 -2 5 -9 2
-14z"/>
<path d="M8225 4920 c-3 -5 1 -10 10 -10 9 0 13 5 10 10 -3 6 -8 10 -10 10 -2
0 -7 -4 -10 -10z"/>
<path d="M8473 4905 c-7 -21 1 -27 32 -27 35 0 44 11 21 28 -26 18 -45 18 -53
-1z"/>
<path d="M6504 4899 c-6 -11 41 -67 50 -58 2 2 1 19 -1 37 -5 33 -34 45 -49
21z"/>
<path d="M8117 4837 c-8 -20 5 -35 35 -42 36 -9 47 13 17 36 -29 22 -45 24
-52 6z"/>
<path d="M5002 4747 l-643 -10 3 -534 c3 -461 5 -535 18 -544 9 -6 90 -8 215
-5 110 3 448 6 750 7 303 1 573 4 600 8 l50 6 0 155 c0 85 -2 295 -5 465 -3
258 -1 314 10 333 12 18 12 26 2 42 -6 11 -12 30 -12 43 0 13 -5 28 -12 35
-13 13 11 13 -976 -1z m939 -38 c0 -2 3 -225 6 -495 l6 -491 -24 -7 c-45 -12
-1495 -20 -1503 -8 -4 6 -9 143 -11 304 -3 161 -7 377 -10 479 -5 151 -3 188
8 197 10 8 131 13 413 14 219 2 560 5 757 7 196 2 357 2 358 0z"/>
<path d="M3629 4736 c-2 -2 -307 -6 -677 -9 -461 -4 -677 -9 -686 -16 -17 -15
-10 -1048 7 -1070 9 -11 64 -12 305 -6 292 8 293 8 308 -14 17 -23 40 -28 46
-8 3 10 3 55 -1 95 -2 19 -39 14 -51 -8 -10 -19 -21 -20 -289 -20 l-278 0 -6
308 c-11 481 -9 668 6 680 8 6 276 13 757 17 631 6 747 5 757 -6 8 -10 11
-145 10 -499 l-2 -485 -276 -3 c-262 -2 -276 -1 -293 17 -29 32 -46 16 -46
-44 0 -59 19 -79 43 -45 13 18 32 20 313 25 164 4 303 11 308 16 10 9 10 58 0
681 -7 383 -7 387 -28 392 -22 5 -221 7 -227 2z"/>
<path d="M6070 4645 c0 -11 74 -35 83 -26 5 5 -5 13 -24 20 -34 12 -59 14 -59
6z"/>
<path d="M6020 4607 c0 -23 50 -87 74 -93 15 -3 40 3 65 15 43 22 53 40 24 42
-57 4 -86 11 -115 29 -38 23 -48 25 -48 7z"/>
<path d="M8272 4579 c-17 -17 -34 -40 -37 -52 -3 -12 -11 -39 -17 -60 -9 -30
-9 -43 0 -58 7 -10 12 -26 12 -34 0 -8 9 -23 20 -32 11 -10 20 -23 20 -30 0
-17 51 -51 81 -54 59 -5 77 1 98 35 17 26 21 50 21 113 l0 80 -42 46 c-34 37
-97 77 -121 77 -2 0 -17 -14 -35 -31z"/>
<path d="M6182 4509 c2 -7 10 -15 17 -17 8 -3 12 1 9 9 -2 7 -10 15 -17 17 -8
3 -12 -1 -9 -9z"/>
<path d="M6140 4445 c0 -10 7 -15 18 -13 21 4 19 22 -2 26 -10 2 -16 -3 -16
-13z"/>
<path d="M6254 4435 c-9 -23 15 -48 32 -34 10 8 11 15 1 30 -14 23 -26 24 -33
4z"/>
<path d="M6040 4410 c0 -5 5 -10 10 -10 6 0 10 5 10 10 0 6 -4 10 -10 10 -5 0
-10 -4 -10 -10z"/>
<path d="M6317 4390 c-33 -36 -43 -78 -22 -104 13 -17 20 -18 52 -10 26 6 39
15 41 29 2 11 11 28 19 37 14 16 14 18 -2 24 -13 5 -25 -1 -41 -19 -23 -27
-44 -35 -44 -17 0 6 5 10 10 10 6 0 10 5 10 12 0 6 7 19 16 29 15 16 12 40 -4
39 -4 -1 -19 -14 -35 -30z"/>
<path d="M6088 4399 c-10 -5 -18 -15 -18 -21 0 -24 83 -72 110 -63 29 9 24 33
-7 37 -19 2 -29 10 -33 28 -7 28 -26 35 -52 19z"/>
<path d="M6210 4370 c0 -5 6 -10 14 -10 8 0 18 5 21 10 3 6 -3 10 -14 10 -12
0 -21 -4 -21 -10z"/>
<path d="M7703 4150 c-13 -5 -23 -13 -23 -18 0 -5 -11 -15 -25 -22 -33 -18
-32 -36 5 -55 34 -18 62 -9 81 27 11 20 9 20 -25 14 -30 -6 -36 -4 -36 10 0
14 8 16 55 12 56 -5 69 4 43 30 -14 14 -43 15 -75 2z"/>
<path d="M8090 4151 c0 -5 9 -13 20 -16 11 -3 20 -15 20 -25 0 -11 14 -35 31
-55 26 -29 38 -35 70 -35 40 0 93 25 84 40 -3 4 -29 11 -59 14 -38 5 -60 14
-77 32 -12 13 -28 24 -35 24 -6 0 -14 7 -18 15 -6 16 -36 21 -36 6z"/>
<path d="M8180 4145 c0 -8 15 -18 33 -23 17 -6 40 -13 50 -17 10 -4 17 -3 17
3 0 6 -21 20 -46 32 -55 24 -54 24 -54 5z"/>
<path d="M7910 4132 c0 -14 11 -21 26 -15 21 8 17 23 -6 23 -11 0 -20 -4 -20
-8z"/>
<path d="M7844 4073 c-4 -16 -7 -31 -6 -35 1 -4 -7 -12 -18 -18 -15 -8 -20
-21 -20 -50 0 -22 -4 -40 -8 -40 -14 0 -32 23 -32 41 0 30 -16 30 -66 2 -26
-15 -42 -29 -36 -31 14 -4 16 -39 3 -44 -5 -1 -13 -15 -16 -30 -6 -23 -3 -28
18 -33 14 -4 34 -2 46 4 17 10 24 8 38 -9 10 -11 23 -20 30 -20 21 0 26 21 9
39 -16 17 -15 20 13 50 35 38 44 38 69 6 25 -31 27 -31 71 3 19 15 45 29 56
32 22 6 33 46 17 62 -10 10 -48 19 -94 21 -23 2 -26 6 -22 24 6 22 -14 53 -34
53 -5 0 -13 -12 -18 -27z m36 -84 c0 -5 -4 -9 -10 -9 -5 0 -10 7 -10 16 0 8 5
12 10 9 6 -3 10 -10 10 -16z m56 -28 c-8 -13 -36 -15 -36 -3 0 4 5 13 12 20
14 14 34 0 24 -17z m-234 -83 c-7 -7 -12 -8 -12 -2 0 14 12 26 19 19 2 -3 -1
-11 -7 -17z"/>
<path d="M8290 3995 c0 -8 7 -15 15 -15 8 0 15 7 15 15 0 8 -7 15 -15 15 -8 0
-15 -7 -15 -15z"/>
<path d="M7600 3976 c0 -10 9 -16 21 -16 24 0 21 23 -4 28 -10 2 -17 -3 -17
-12z"/>
<path d="M8252 3948 c-7 -7 -12 -16 -12 -20 0 -12 28 -10 36 3 10 17 -10 31
-24 17z"/>
<path d="M8375 3920 c-10 -17 12 -37 25 -24 8 8 6 15 -4 23 -10 9 -16 9 -21 1z"/>
<path d="M8440 3900 c-6 -11 -17 -20 -24 -20 -17 0 -27 -67 -15 -92 13 -24 46
-32 80 -18 22 9 28 17 24 31 -3 10 0 27 7 38 7 11 9 23 5 27 -10 10 -57 -36
-57 -55 0 -10 -3 -12 -10 -5 -11 11 8 74 22 74 4 0 8 9 8 20 0 11 -7 20 -15
20 -8 0 -19 -9 -25 -20z"/>
<path d="M8191 3887 c-21 -26 63 -83 105 -73 31 8 31 26 1 26 -28 0 -47 17
-47 42 0 22 -42 25 -59 5z"/>
<path d="M7571 3866 c-9 -10 -8 -16 3 -26 19 -15 36 -5 36 21 0 22 -22 25 -39
5z"/>
<path d="M3031 3581 c-13 -9 -20 -105 -8 -117 4 -5 17 -3 27 4 39 24 74 -22
50 -67 -14 -28 -50 -28 -50 -1 0 24 -27 37 -42 22 -15 -15 6 -55 38 -72 36
-20 91 10 99 53 12 61 -29 116 -77 104 -23 -7 -37 21 -17 34 8 5 28 9 46 9 31
0 51 15 38 28 -9 9 -90 11 -104 3z"/>
<path d="M347 3504 c-11 -11 -8 -64 3 -64 6 0 10 5 10 10 0 6 12 10 26 10 21
0 25 4 22 23 -2 15 -11 23 -28 25 -14 2 -29 0 -33 -4z"/>
<path d="M516 3460 c-16 -5 -32 -13 -35 -17 -11 -16 -103 -34 -115 -24 -16 14
-86 -33 -86 -57 0 -36 29 -61 73 -64 l42 -3 0 -48 c0 -36 5 -52 19 -63 22 -15
48 -2 40 20 -3 8 11 18 36 26 22 7 40 17 40 22 0 4 11 18 25 30 14 12 25 32
25 47 0 13 7 32 16 42 10 11 13 25 9 38 -7 23 -35 29 -35 7 0 -12 -28 -25 -52
-26 -18 0 -6 28 17 40 14 7 25 19 25 27 0 15 -3 15 -44 3z m-129 -95 c3 -9 2
-19 -1 -23 -8 -8 -38 10 -44 26 -6 18 38 14 45 -3z m107 -47 c22 -31 20 -38
-12 -38 -37 0 -43 7 -30 36 14 30 23 30 42 2z"/>
<path d="M330 3266 c0 -14 29 -31 38 -22 2 3 2 12 -1 21 -8 19 -37 20 -37 1z"/>
<path d="M597 3263 c-15 -14 -6 -40 17 -51 37 -16 51 5 23 34 -23 25 -30 28
-40 17z"/>
<path d="M0 2991 c0 -12 5 -21 10 -21 6 0 10 6 10 14 0 8 -4 18 -10 21 -5 3
-10 -3 -10 -14z"/>
<path d="M6623 2986 c-16 -7 -23 -20 -23 -39 0 -24 4 -28 23 -25 15 2 21 9 19
21 -3 19 32 25 43 7 11 -18 -5 -49 -28 -52 -28 -4 -29 -32 0 -36 37 -5 48 -28
29 -58 -20 -30 -38 -27 -46 7 -7 28 -43 33 -48 7 -9 -49 84 -77 126 -38 26 24
28 47 7 78 -12 16 -13 27 -5 41 36 68 -26 123 -97 87z"/>
<path d="M5220 2633 c-30 -1 -227 -4 -437 -5 -210 -2 -384 -6 -388 -10 -9 -8
-7 -846 1 -980 4 -56 11 -99 18 -101 23 -9 1589 12 1598 21 8 8 10 329 3 487
-1 22 -2 165 -3 318 l-2 277 -367 -2 c-203 -1 -393 -3 -423 -5z m750 -531 c3
-272 3 -498 0 -502 -7 -12 -1513 -28 -1521 -17 -11 15 -18 981 -8 992 10 10
577 20 1189 20 l335 0 5 -493z"/>
<path d="M3209 2615 c-3 -2 -208 -5 -456 -6 -248 -1 -456 -5 -463 -9 -8 -5
-10 -126 -6 -481 2 -261 5 -495 5 -520 0 -25 5 -57 10 -72 10 -25 14 -26 63
-23 29 2 384 7 788 11 439 5 743 12 754 17 18 10 18 25 12 422 -3 226 -9 468
-12 539 l-7 127 -342 0 c-188 0 -344 -2 -346 -5z m646 -45 c3 -5 8 -232 12
-504 l6 -495 -24 -5 c-13 -3 -357 -7 -765 -9 l-741 -4 -6 255 c-4 140 -7 367
-7 504 l0 248 288 1 c158 1 411 5 562 8 448 12 668 12 675 1z"/>
<path d="M0 2471 c0 -17 5 -31 10 -31 6 0 10 11 10 24 0 14 -4 28 -10 31 -6 4
-10 -7 -10 -24z"/>
<path d="M373 1957 c-46 -14 -41 -23 16 -34 44 -9 48 -8 44 8 -8 29 -25 37
-60 26z"/>
<path d="M573 1943 c-15 -6 -18 -43 -3 -43 12 0 50 32 50 42 0 9 -28 9 -47 1z"/>
<path d="M7473 1643 c-8 -3 -13 -24 -13 -54 0 -58 22 -76 49 -41 16 21 23 22
290 23 197 0 276 -3 281 -11 4 -6 10 -230 14 -497 6 -400 5 -487 -6 -494 -11
-7 -374 -13 -860 -14 l-133 0 -1 30 c-1 17 -3 241 -5 500 -4 458 -4 470 15
473 11 2 25 -4 32 -13 8 -10 20 -15 29 -11 24 9 17 99 -8 104 -11 2 -25 -5
-33 -17 -11 -15 -26 -21 -50 -21 l-35 0 2 -535 c1 -447 4 -536 16 -546 18 -16
1051 -3 1070 13 10 8 13 124 13 528 0 285 -3 525 -6 534 -5 14 -42 16 -310 16
-254 0 -306 2 -310 14 -7 17 -24 25 -41 19z"/>
<path d="M310 1410 c0 -16 66 -44 85 -36 22 8 9 26 -20 26 -13 0 -27 5 -30 10
-8 13 -35 13 -35 0z"/>
<path d="M873 1384 c-29 -14 -54 -29 -54 -32 -7 -37 -2 -74 14 -107 23 -46 56
-85 71 -85 5 0 22 -12 37 -26 23 -22 30 -24 48 -15 11 6 25 20 31 31 6 11 17
20 25 20 8 0 15 5 15 10 0 6 6 10 14 10 8 0 24 8 37 19 21 17 23 26 21 87 -1
54 -6 72 -24 91 -19 20 -30 23 -102 23 -66 -1 -91 -6 -133 -26z"/>
<path d="M4114 1323 c-43 -9 -60 -88 -19 -88 16 0 19 6 17 28 -3 32 20 46 43
27 24 -20 18 -44 -23 -91 -36 -41 -62 -80 -62 -93 0 -3 31 -6 69 -6 62 0 69 2
74 22 9 33 -1 40 -33 23 -62 -32 -67 -9 -10 46 73 71 39 152 -56 132z"/>
<path d="M425 1270 c-3 -6 -3 -19 0 -30 6 -19 -3 -25 -29 -21 -14 3 -35 -20
-30 -32 2 -7 -10 -20 -27 -30 -37 -20 -34 -34 12 -65 25 -17 43 -22 67 -18 35
5 73 42 65 63 -9 22 -23 14 -23 -12 0 -28 -25 -34 -61 -15 -28 15 -24 31 18
74 24 25 38 49 39 67 2 29 -18 40 -31 19z"/>
<path d="M495 1210 c-11 -18 7 -60 26 -60 22 0 23 7 7 43 -14 28 -23 33 -33
17z"/>
<path d="M563 1154 c-13 -14 -23 -31 -23 -39 0 -9 -5 -24 -12 -35 -10 -15 -9
-23 6 -39 23 -25 37 -26 76 -6 18 9 27 21 24 29 -3 7 2 21 12 30 27 27 2 41
-27 15 -13 -11 -25 -25 -25 -30 -1 -5 -2 -12 -3 -15 0 -4 -7 -1 -15 5 -12 10
-12 16 1 41 8 17 19 30 24 30 5 0 9 9 9 20 0 26 -20 24 -47 -6z"/>
<path d="M4763 1050 c-210 -3 -345 -9 -350 -15 -4 -5 -7 -241 -5 -523 l3 -512
23 0 23 0 -5 500 -4 500 158 0 c88 0 315 3 505 7 l346 6 5 -219 c2 -121 4
-348 4 -506 l-1 -288 29 0 28 0 -5 150 c-4 104 -3 150 5 150 7 0 7 4 0 13 -12
15 -8 80 5 84 6 2 18 -14 26 -36 9 -21 21 -42 27 -46 6 -3 8 -11 5 -16 -7 -10
20 -13 72 -10 20 2 39 -5 51 -17 19 -19 20 -20 25 -1 3 12 -1 20 -14 24 -20 7
-26 25 -9 25 16 0 12 27 -5 34 -8 3 -21 3 -29 0 -17 -6 -82 22 -110 48 -11 10
-23 18 -27 18 -19 0 -24 59 -29 335 l-5 300 -200 0 c-110 0 -354 -2 -542 -5z"/>
<path d="M3089 1030 c-136 -4 -251 -10 -257 -14 -9 -5 -10 -515 -3 -983 1 -29
4 -33 27 -33 l27 0 -5 474 c-3 260 -8 478 -12 484 -3 6 -2 13 4 17 15 10 993
26 1002 17 5 -5 11 -229 15 -500 6 -479 7 -492 26 -492 19 0 19 8 13 512 -4
281 -9 515 -12 520 -6 9 -458 8 -825 -2z"/>
<path d="M2505 930 c-3 -5 -13 -10 -22 -10 -23 0 -85 -67 -81 -88 2 -9 9 -17
16 -16 6 1 24 2 40 3 15 0 42 14 59 30 18 16 38 31 45 33 10 4 8 11 -5 31 -18
28 -41 35 -52 17z m5 -39 c0 -5 -11 -16 -25 -25 -19 -13 -25 -13 -25 -3 0 7 5
18 12 25 14 14 38 16 38 3z"/>
<path d="M1806 912 c-7 -11 6 -27 26 -35 10 -3 20 -19 24 -34 4 -15 21 -40 37
-56 26 -23 37 -26 66 -21 37 6 80 38 68 50 -4 4 -21 7 -39 8 -35 1 -76 24
-121 68 -28 28 -51 35 -61 20z"/>
<path d="M2687 913 c-14 -13 -7 -33 11 -33 19 0 42 18 42 32 0 10 -44 11 -53
1z"/>
<path d="M913 903 c-26 -5 -106 -89 -100 -106 2 -7 13 -11 23 -9 10 2 31 4 46
6 34 3 54 20 62 50 4 18 11 23 26 19 11 -3 20 -1 20 4 0 13 -34 43 -46 42 -5
-1 -19 -4 -31 -6z m12 -42 c6 -10 -25 -31 -45 -31 -8 0 -8 6 0 20 11 21 35 27
45 11z"/>
<path d="M1900 896 c0 -9 8 -16 19 -16 11 0 23 -4 26 -10 8 -13 55 -13 55 0 0
12 -26 26 -67 35 -26 5 -33 3 -33 -9z"/>
<path d="M1107 883 c-15 -14 -6 -23 23 -23 20 0 30 5 30 15 0 15 -40 21 -53 8z"/>
<path d="M2620 856 c0 -14 -4 -28 -10 -31 -5 -3 -10 -14 -10 -24 0 -10 -12
-24 -27 -31 -16 -8 -30 -16 -32 -17 -11 -8 45 -53 65 -53 16 0 24 -7 26 -22 5
-34 51 -36 83 -4 14 14 32 26 38 26 20 0 37 22 37 47 0 29 -33 46 -87 46 -43
0 -54 12 -32 34 8 8 5 17 -10 32 -28 28 -41 27 -41 -3z m20 -91 c0 -8 -4 -15
-10 -15 -5 0 -10 7 -10 15 0 8 5 15 10 15 6 0 10 -7 10 -15z m68 -37 c-6 -18
-28 -21 -28 -4 0 9 7 16 16 16 9 0 14 -5 12 -12z"/>
<path d="M7273 868 c-27 -35 -83 -138 -83 -152 0 -12 10 -16 40 -16 43 0 45
-2 30 -31 -10 -17 -7 -19 23 -19 40 0 51 8 36 27 -8 9 -8 17 0 26 6 8 7 17 3
21 -4 4 -9 40 -12 79 -5 69 -17 91 -37 65z m-8 -98 c3 -5 1 -19 -5 -31 -15
-27 -35 -10 -25 20 7 22 20 27 30 11z"/>
<path d="M1040 830 c0 -11 -7 -23 -15 -26 -9 -4 -13 -14 -10 -23 2 -9 -5 -24
-19 -36 -23 -19 -23 -21 -8 -47 9 -15 13 -30 9 -34 -11 -12 -37 5 -37 24 0 35
-24 45 -65 28 -33 -14 -39 -14 -58 -1 -28 19 -37 19 -37 -2 0 -23 29 -53 46
-46 16 6 20 -22 4 -32 -15 -9 -12 -51 5 -65 12 -10 19 -10 27 -2 7 7 22 12 35
12 20 0 22 -4 17 -25 -8 -31 13 -34 47 -6 22 17 22 19 6 35 -22 23 -22 37 2
43 11 3 17 11 15 17 -6 17 22 40 40 33 9 -4 12 -14 9 -26 -3 -13 2 -23 16 -30
14 -8 21 -8 21 -1 0 5 6 10 13 10 8 0 24 11 37 25 13 14 31 25 41 25 10 0 25
7 34 16 15 15 14 18 -6 40 -12 13 -33 24 -45 24 -13 0 -26 5 -29 10 -4 7 -13
6 -26 -1 -25 -13 -26 -12 -30 26 -5 49 -39 79 -39 35z m26 -81 c3 -6 -1 -18
-10 -27 -15 -15 -16 -14 -16 11 0 27 13 36 26 16z m60 -40 c9 -16 -12 -33 -31
-25 -14 5 -15 9 -5 21 15 18 26 19 36 4z m-206 -69 c0 -13 -28 -25 -38 -16 -3
4 0 11 8 16 20 13 30 12 30 0z"/>
<path d="M379 830 c-5 -30 -2 -35 29 -36 28 -1 32 2 32 22 0 20 -5 24 -30 24
-16 0 -31 -4 -31 -10z"/>
<path d="M518 776 c-33 -17 -76 -27 -120 -28 -45 0 -78 -23 -78 -53 0 -28 11
-36 64 -50 50 -13 65 -35 47 -69 -12 -21 -11 -27 3 -41 19 -19 46 -13 46 10 0
8 17 22 40 31 21 9 42 24 45 34 3 11 15 22 25 25 11 4 22 18 26 33 3 15 9 35
15 44 21 41 -7 69 -35 34 -6 -8 -21 -17 -33 -21 -30 -8 -32 20 -3 35 11 6 20
15 20 20 0 14 -31 12 -62 -4z m-94 -64 c9 -14 -12 -35 -28 -29 -23 9 -20 37 3
37 11 0 22 -4 25 -8z m99 -46 c28 -22 22 -46 -13 -46 -25 0 -30 4 -30 23 0 38
13 45 43 23z"/>
<path d="M2019 763 c-1 -5 -2 -17 -3 -28 -1 -14 -10 -21 -31 -25 -23 -4 -29
-11 -28 -27 2 -16 -5 -22 -27 -27 -17 -3 -30 -11 -30 -19 0 -26 32 -57 70 -68
36 -11 41 -10 72 16 37 31 42 48 16 53 -13 2 -18 -3 -18 -18 0 -18 -5 -21 -32
-18 -46 4 -47 30 -4 74 24 25 36 46 36 66 0 24 -17 41 -21 21z"/>
<path d="M2376 744 c-8 -20 1 -34 20 -34 9 0 24 -5 35 -10 19 -11 19 -12 2
-41 -14 -23 -15 -33 -6 -47 11 -17 21 -18 60 -7 18 6 22 3 25 -21 4 -34 20
-41 43 -18 12 12 15 26 11 49 -5 24 -2 34 9 39 22 8 18 21 -10 34 -14 6 -25
17 -25 24 0 7 -7 21 -14 31 -12 16 -16 16 -42 2 -37 -19 -60 -19 -68 0 -7 20
-32 19 -40 -1z m109 -94 c-3 -5 -13 -10 -21 -10 -8 0 -14 5 -14 10 0 6 9 10
21 10 11 0 17 -4 14 -10z"/>
<path d="M2080 681 c0 -20 6 -34 16 -38 23 -9 36 18 20 41 -21 32 -36 31 -36
-3z"/>
<path d="M2163 660 c-3 -11 -11 -20 -19 -20 -7 0 -18 -18 -24 -40 -14 -53 0
-80 41 -80 48 0 70 16 63 45 -4 15 -2 25 5 25 6 0 11 7 11 15 0 18 -36 20 -43
3 -4 -10 -7 -10 -18 0 -12 11 -11 15 4 26 21 16 22 32 1 40 -11 4 -18 -1 -21
-14z"/>
<path d="M2342 638 c-7 -7 -12 -17 -12 -23 0 -14 55 -47 64 -38 11 11 6 41
-10 57 -19 19 -26 20 -42 4z"/>
<path d="M367 617 c-11 -8 -14 -17 -8 -26 11 -17 41 -7 41 13 0 21 -15 27 -33
13z"/>
<path d="M2600 616 c0 -9 5 -16 10 -16 6 0 10 4 10 9 0 6 -4 13 -10 16 -5 3
-10 -1 -10 -9z"/>
<path d="M756 604 c-8 -22 11 -54 34 -54 22 0 35 16 20 25 -5 3 -10 15 -10 26
0 23 -35 26 -44 3z"/>
<path d="M620 597 c0 -20 22 -37 47 -37 29 0 29 7 1 31 -27 22 -48 24 -48 6z"/>
<path d="M5595 431 c-3 -5 -2 -12 3 -15 17 -10 96 -35 101 -31 9 10 -23 35
-45 35 -12 0 -26 5 -29 10 -8 13 -22 13 -30 1z"/>
<path d="M1961 386 c-34 -13 -101 -76 -101 -95 0 -16 101 -13 123 3 9 7 17 18
17 23 0 6 10 17 23 26 18 12 20 18 11 34 -14 22 -29 24 -73 9z m17 -38 c-6
-17 -36 -34 -45 -24 -4 4 1 14 11 22 24 17 39 18 34 2z"/>
<path d="M2167 373 c-13 -12 -7 -33 9 -33 9 0 22 -7 28 -16 10 -13 12 -10 12
20 0 30 -4 36 -21 36 -12 0 -25 -3 -28 -7z"/>
<path d="M6228 349 c-56 -29 -71 -61 -63 -132 9 -88 17 -97 74 -97 35 0 59 7
87 26 56 37 64 51 64 116 0 46 -4 61 -22 78 -12 11 -24 20 -27 21 -57 6 -84 3
-113 -12z"/>
<path d="M603 353 c-26 -5 -31 -31 -8 -40 9 -3 22 2 30 13 16 21 19 35 8 33
-5 -1 -18 -4 -30 -6z"/>
<path d="M2494 336 c-3 -9 -7 -28 -8 -43 0 -16 -13 -38 -29 -53 -25 -22 -27
-28 -18 -53 9 -24 16 -27 55 -27 40 0 44 -2 49 -27 3 -16 3 -39 0 -53 -3 -18
2 -31 16 -44 21 -19 21 -19 27 11 5 25 14 33 46 44 21 7 44 21 49 31 5 10 16
18 24 18 15 0 31 42 21 58 -3 4 4 16 16 26 19 16 19 19 4 34 -15 15 -17 15
-28 0 -15 -20 -49 -27 -55 -12 -2 6 8 16 22 24 32 17 34 40 3 33 -13 -3 -41
-14 -64 -24 -46 -22 -114 -26 -114 -6 0 18 12 33 33 40 26 10 16 31 -16 35
-18 2 -29 -2 -33 -12z m44 -129 c2 -11 -3 -17 -17 -17 -23 0 -35 15 -26 31 10
15 39 6 43 -14z m116 -50 c8 -13 8 -20 -3 -26 -17 -11 -61 7 -61 24 0 31 45
32 64 2z"/>
<path d="M2100 324 c0 -16 -31 -65 -58 -93 -7 -7 -10 -21 -7 -30 4 -9 9 -22
12 -28 11 -27 -17 -11 -33 18 -12 25 -20 30 -37 24 -48 -15 -78 -17 -92 -5
-16 13 -35 6 -35 -15 0 -7 13 -16 30 -20 35 -8 47 -22 31 -38 -6 -6 -11 -24
-11 -39 0 -33 24 -47 52 -29 23 14 38 7 38 -19 0 -29 20 -35 43 -12 19 20 19
22 3 47 -17 25 -17 27 2 32 11 3 22 13 25 24 7 25 29 24 52 -1 24 -26 41 -25
81 5 18 14 36 25 41 25 5 0 19 7 32 16 l22 16 -21 23 c-22 24 -69 39 -108 35
-20 -1 -23 2 -17 20 4 14 1 28 -11 41 -21 23 -34 24 -34 3z m20 -94 c0 -5 -4
-10 -10 -10 -5 0 -10 5 -10 10 0 6 5 10 10 10 6 0 10 -4 10 -10z m64 -25 c3
-9 -1 -18 -10 -22 -19 -7 -28 2 -21 22 8 19 23 19 31 0z m-219 -84 c-3 -6 -14
-11 -23 -11 -15 1 -15 2 2 15 21 16 32 13 21 -4z"/>
<path d="M2396 311 c-9 -10 -16 -30 -16 -46 0 -26 1 -27 18 -13 9 9 27 19 40
23 28 8 26 35 -5 46 -15 5 -26 3 -37 -10z"/>
<path d="M910 305 c-6 -8 -9 -19 -5 -25 8 -12 65 -14 65 -1 0 5 3 16 6 25 5
12 -1 16 -24 16 -16 0 -35 -7 -42 -15z"/>
<path d="M818 289 c-10 -5 -18 -21 -18 -35 0 -22 3 -24 28 -18 15 4 34 13 42
21 13 13 13 16 -4 29 -23 16 -25 17 -48 3z"/>
<path d="M1480 269 c-71 -38 -99 -69 -93 -103 6 -32 109 -146 131 -146 33 0
105 31 121 51 12 15 18 44 20 101 2 71 0 83 -20 104 -31 33 -88 31 -159 -7z"/>
<path d="M1095 272 c-16 -2 -37 -10 -47 -19 -10 -8 -43 -16 -85 -19 -58 -3
-71 -8 -91 -30 -21 -24 -21 -28 -9 -48 10 -14 27 -22 53 -24 44 -3 69 -35 50
-64 -7 -11 -6 -24 2 -42 15 -34 42 -34 42 -1 0 16 7 28 18 31 43 15 72 29 72
37 0 4 11 17 25 29 14 12 25 29 25 39 0 9 7 22 15 29 20 17 19 33 -5 55 -19
18 -20 17 -20 -4 0 -24 -46 -49 -62 -33 -10 10 -2 20 37 47 25 17 19 22 -20
17z m-135 -93 c0 -15 -5 -20 -22 -17 -34 5 -37 38 -4 38 20 0 26 -5 26 -21z
m110 -49 c16 -31 -12 -41 -45 -16 -16 12 -17 16 -6 29 14 18 37 12 51 -13z"/>
<path d="M5656 224 c-8 -20 1 -34 20 -34 20 0 30 30 13 41 -20 12 -26 11 -33
-7z"/>
<path d="M5770 221 c0 -23 14 -41 31 -41 24 0 24 5 -1 30 -22 22 -30 25 -30
11z"/>
<path d="M4128 206 c-10 -7 -18 -16 -18 -18 0 -3 8 -8 18 -10 15 -4 17 -15 14
-78 -3 -61 -7 -73 -23 -77 -36 -10 -19 -23 31 -23 47 0 63 11 39 25 -7 5 -10
41 -8 99 3 84 2 91 -16 93 -11 2 -28 -3 -37 -11z"/>
<path d="M5560 190 c0 -5 7 -10 16 -10 8 0 12 5 9 10 -3 6 -10 10 -16 10 -5 0
-9 -4 -9 -10z"/>
<path d="M5853 180 c-3 -11 -13 -20 -23 -20 -12 0 -19 -11 -23 -37 -10 -61 0
-83 37 -83 38 0 81 31 73 53 -3 8 0 20 6 26 8 8 8 14 -2 24 -11 10 -15 8 -25
-6 -25 -42 -35 -52 -42 -45 -8 9 15 68 27 68 5 0 9 9 9 20 0 12 -7 20 -16 20
-9 0 -18 -9 -21 -20z"/>
<path d="M5602 168 c-19 -19 -15 -25 33 -54 31 -18 53 -24 70 -20 35 9 31 24
-7 34 -23 6 -34 15 -36 30 -4 25 -39 31 -60 10z"/>
<path d="M5730 150 c0 -5 7 -10 15 -10 8 0 15 5 15 10 0 6 -7 10 -15 10 -8 0
-15 -4 -15 -10z"/>
<path d="M2472 123 c-19 -7 -4 -23 24 -23 15 0 24 6 24 15 0 15 -22 19 -48 8z"/>
<path d="M1824 105 c-18 -14 -18 -16 -1 -29 9 -7 17 -18 17 -25 0 -12 26 -15
33 -4 6 11 -12 73 -21 73 -5 0 -17 -7 -28 -15z"/>
<path d="M2738 95 c-4 -20 -1 -26 19 -31 14 -4 30 -1 36 5 9 9 6 17 -13 31
-33 25 -37 25 -42 -5z"/>
<path d="M886 91 c-9 -15 23 -36 36 -23 5 5 7 15 4 21 -9 13 -33 14 -40 2z"/>
<path d="M1156 83 c-3 -10 -9 -24 -12 -30 -4 -9 5 -13 28 -13 31 0 68 15 58
22 -13 10 -60 38 -63 38 -3 0 -7 -8 -11 -17z"/>
<path d="M2376 34 c-12 -30 -6 -34 55 -34 37 0 58 4 54 10 -3 5 -19 10 -34 10
-16 0 -34 7 -41 15 -16 19 -26 19 -34 -1z"/>
<path d="M795 20 c-9 -15 -1 -23 21 -18 15 3 16 4 1 16 -11 9 -17 10 -22 2z"/>
<path d="M535 10 c-3 -5 1 -10 10 -10 9 0 13 5 10 10 -3 6 -8 10 -10 10 -2 0
-7 -4 -10 -10z"/>
</g>
</svg>
