<?xml version="1.0" standalone="no"?>
<!DOCTYPE svg PUBLIC "-//W3C//DTD SVG 20010904//EN"
 "http://www.w3.org/TR/2001/REC-SVG-20010904/DTD/svg10.dtd">
<svg version="1.0" xmlns="http://www.w3.org/2000/svg"
 width="560.000000pt" height="660.000000pt" viewBox="0 0 560.000000 660.000000"
 preserveAspectRatio="xMidYMid meet">
<metadata>
Created by potrace 1.16, written by Peter Selinger 2001-2019
</metadata>
<g transform="translate(0.000000,660.000000) scale(0.100000,-0.100000)"
fill="#000000" stroke="none">
<path d="M4831 5568 l4 -353 -345 -9 c-228 -5 -350 -12 -359 -19 -11 -10 -12
-106 -6 -612 5 -330 10 -625 11 -655 1 -30 6 -273 10 -540 l7 -485 -27 -13
c-27 -12 -36 -41 -13 -43 34 -4 163 4 170 10 12 12 -1 35 -26 46 -16 7 -21 17
-19 35 2 14 5 26 6 28 5 4 516 22 649 22 l127 0 10 -26 c7 -19 16 -25 33 -22
21 3 22 8 22 78 0 41 -1 81 -3 88 -7 21 -42 13 -51 -11 -9 -24 -11 -24 -222
-30 -117 -4 -292 -7 -390 -7 -177 0 -179 0 -183 23 -5 21 -7 194 -25 1457 -3
283 -4 531 -1 550 l5 35 355 7 c195 3 416 9 490 12 74 3 226 6 338 6 l202 0 0
42 0 41 -329 -6 c-245 -4 -332 -2 -339 6 -5 7 -11 82 -12 167 -1 85 -5 238 -9
340 l-6 185 -39 3 -39 3 4 -353z"/>
<path d="M3129 5896 c-2 -2 -109 -6 -237 -8 -129 -1 -238 -6 -244 -9 -7 -4
-11 -133 -12 -359 l-1 -353 -35 -2 c-88 -6 -741 -5 -750 0 -6 3 -10 13 -10 21
0 10 -8 14 -22 12 -21 -3 -23 -10 -28 -74 -6 -93 -4 -104 26 -104 17 0 25 7
30 25 3 14 11 25 18 26 64 2 868 20 1174 25 271 5 395 11 402 18 5 7 10 41 12
76 3 59 5 65 26 68 29 4 31 48 2 57 -29 9 -154 -5 -162 -19 -13 -18 -9 -26 16
-36 24 -9 44 -56 29 -71 -4 -4 -150 -9 -323 -11 l-315 -3 -3 317 -3 316 53 7
c29 3 172 5 317 3 l264 -3 4 -39 c3 -34 0 -43 -23 -61 -41 -33 -24 -45 65 -45
99 0 127 25 66 58 -16 8 -22 27 -30 89 l-10 78 -146 3 c-80 1 -147 1 -150 -2z"/>
<path d="M1187 5833 c-6 -31 2 -718 9 -750 4 -21 10 -23 64 -23 53 0 60 -2 60
-19 0 -21 32 -37 51 -26 14 9 6 152 -9 167 -16 16 -42 2 -42 -22 0 -16 -5 -21
-22 -18 l-23 3 -8 345 c-4 190 -9 351 -12 358 -2 6 -17 12 -34 12 -23 0 -30
-5 -34 -27z"/>
<path d="M460 5783 c0 -55 -2 -59 -32 -76 -27 -15 -29 -20 -17 -32 20 -20 174
-7 174 15 0 8 -10 19 -22 25 -18 8 -23 19 -25 65 l-3 55 -37 3 -38 3 0 -58z"/>
<path d="M3362 5631 c-31 -27 -31 -104 0 -125 12 -9 32 -16 44 -16 13 0 32
-12 44 -27 l21 -27 -25 -25 -26 -25 -30 22 c-31 23 -50 22 -50 -2 0 -43 94
-62 138 -28 20 15 23 26 20 66 -3 50 -15 62 -82 82 -38 12 -55 38 -40 62 16
25 39 26 73 1 49 -36 73 2 25 40 -33 26 -84 27 -112 2z"/>
<path d="M3078 5608 c-33 -11 -36 -24 -8 -31 18 -5 20 -14 20 -76 0 -54 -4
-73 -15 -77 -31 -12 -13 -24 35 -24 46 0 63 11 41 24 -5 4 -12 49 -16 101 -8
100 -9 101 -57 83z"/>
<path d="M433 5303 c-7 -3 -13 -16 -13 -29 0 -17 6 -24 19 -24 15 0 20 -10 26
-50 11 -82 16 -80 -241 -80 l-224 0 0 -41 0 -41 262 3 c145 2 269 5 276 7 9 3
13 20 12 51 -5 131 -2 148 26 155 19 5 25 12 22 29 -3 20 -9 22 -78 23 -41 0
-81 -1 -87 -3z"/>
<path d="M5231 4574 c-37 -47 -18 -134 30 -134 33 0 79 -29 79 -50 0 -11 -11
-27 -26 -36 -24 -16 -26 -16 -55 5 -45 33 -68 10 -29 -29 30 -30 99 -27 130 5
20 22 22 29 14 67 -9 44 -30 61 -86 73 -32 6 -48 46 -28 70 14 17 60 21 60 5
0 -5 9 -14 20 -20 31 -17 38 15 10 46 -33 34 -91 34 -119 -2z"/>
<path d="M5507 4543 c-4 -3 -7 -41 -7 -83 0 -57 4 -81 15 -90 12 -10 18 -10
30 0 8 7 15 18 15 26 0 7 9 16 20 19 16 5 20 15 20 46 0 32 -3 39 -20 39 -13
0 -20 7 -20 19 0 24 -37 41 -53 24z"/>
<path d="M5032 4511 c-11 -30 -11 -30 -94 -33 l-83 -3 3 -385 c3 -280 7 -387
15 -392 7 -4 66 -5 132 -3 66 3 227 8 358 11 l237 6 0 34 0 34 -327 2 -328 3
-6 265 c-3 146 -3 284 -1 308 l5 42 42 0 c35 0 44 -4 48 -21 4 -15 12 -20 29
-17 22 3 23 7 23 88 0 79 -1 85 -21 88 -16 2 -24 -4 -32 -27z"/>
<path d="M117 4480 c-22 -17 -27 -30 -27 -64 0 -48 22 -76 61 -76 29 -1 69
-32 69 -54 0 -8 -11 -23 -26 -32 -24 -16 -26 -16 -56 6 -38 28 -59 14 -34 -24
14 -22 24 -26 65 -26 59 0 83 22 83 77 0 28 -7 43 -26 60 -15 12 -33 20 -42
16 -16 -6 -64 32 -64 52 0 6 11 22 24 34 23 22 25 22 50 6 14 -10 26 -21 26
-26 0 -13 28 -11 36 2 10 17 -37 57 -76 64 -28 5 -42 2 -63 -15z"/>
<path d="M2830 4444 c-267 -6 -573 -13 -681 -14 -108 -1 -201 -5 -207 -9 -5
-3 -12 -20 -14 -36 -3 -30 -3 -30 -78 -35 -41 -3 -85 -11 -97 -18 -12 -6 -49
-12 -82 -12 -33 0 -63 -4 -66 -10 -3 -5 -18 -10 -32 -10 -30 0 -104 -20 -117
-32 -6 -4 -31 -8 -56 -8 -25 0 -50 -4 -56 -9 -5 -6 -29 -11 -53 -13 -40 -3
-46 -6 -53 -33 -4 -17 -4 -120 0 -230 l7 -200 39 3 c25 2 44 -3 57 -14 13 -11
29 -15 56 -12 22 3 50 -1 66 -9 15 -8 50 -13 78 -12 28 2 55 -3 61 -9 7 -7 41
-12 79 -12 48 0 70 -4 79 -15 10 -12 31 -16 85 -14 40 1 77 -1 82 -4 13 -8 28
-577 28 -1062 l0 -370 -175 -7 c-96 -4 -412 -11 -703 -16 -364 -7 -531 -13
-541 -21 -10 -9 -13 -42 -10 -149 1 -75 5 -321 8 -547 3 -225 8 -476 12 -556
3 -80 3 -155 0 -167 -7 -22 -10 -22 -245 -22 -131 0 -253 -3 -270 -6 -27 -6
-31 -10 -31 -41 l0 -34 271 1 c149 1 274 -2 278 -5 3 -4 7 -157 9 -341 l3
-334 41 0 40 0 -3 334 c-3 246 -1 338 8 347 13 13 33 4 33 -15 0 -20 25 -37
44 -30 13 5 15 19 12 86 -2 44 -8 84 -13 89 -14 14 -40 1 -46 -23 -4 -12 -12
-18 -24 -16 -14 2 -20 16 -25 58 -8 60 -28 1268 -21 1286 2 7 166 14 491 22
268 7 571 15 673 19 l186 6 6 -39 c3 -21 12 -326 18 -678 9 -515 9 -640 -1
-646 -7 -4 -112 -9 -234 -9 -122 -1 -290 -4 -375 -7 l-154 -6 -23 29 c-31 39
-45 21 -51 -65 -3 -56 -1 -73 13 -86 21 -21 37 -16 44 15 5 19 12 24 35 24
l30 0 6 -115 c4 -63 8 -220 10 -347 l4 -233 43 0 42 0 -5 38 c-2 20 -7 172
-10 338 -5 240 -3 303 7 311 15 12 414 33 616 33 134 0 142 -1 142 -19 0 -22
37 -38 51 -24 6 6 9 45 7 89 -3 77 -4 79 -28 79 -18 0 -26 -6 -28 -22 -2 -15
-10 -23 -23 -23 -20 0 -21 4 -23 245 -1 50 -7 316 -15 593 -9 311 -11 506 -5
511 10 10 608 29 1064 33 l295 3 6 -385 c3 -212 10 -513 14 -668 7 -240 6
-285 -6 -293 -26 -16 -49 -9 -59 17 -7 16 -16 24 -28 22 -13 -2 -19 -18 -26
-65 -11 -80 -3 -113 28 -113 15 0 27 9 34 25 8 16 20 25 35 25 22 0 25 -5 30
-67 4 -38 7 -178 8 -313 1 -302 5 -344 37 -348 48 -7 50 4 46 221 -19 917 -25
1240 -29 1627 -3 245 -8 495 -12 555 -8 142 -9 242 -12 810 -2 274 -7 477 -12
487 -8 15 -24 18 -102 18 -86 0 -93 2 -102 23 -6 12 -19 22 -30 22 -18 0 -20
-7 -20 -85 0 -78 2 -85 21 -88 14 -2 24 5 32 23 11 24 16 26 65 23 l52 -3 6
-105 c4 -58 7 -242 8 -410 0 -168 6 -425 12 -572 9 -201 9 -271 0 -281 -9 -11
-85 -15 -384 -21 -204 -4 -504 -11 -665 -17 -164 -6 -298 -7 -303 -2 -4 4 -11
130 -14 278 -3 149 -10 451 -16 673 -6 221 -7 411 -4 422 6 19 16 20 173 20
92 0 251 3 354 7 l186 6 4 -24 c2 -18 9 -24 28 -24 25 0 25 1 25 85 0 84 0 85
-25 85 -18 0 -26 -6 -28 -21 -3 -20 -11 -21 -160 -27 -86 -4 -299 -7 -473 -7
l-316 0 -7 292 c-5 233 -4 293 6 299 7 5 38 9 68 9 31 0 60 4 65 9 15 14 464
30 1005 36 272 4 503 9 513 11 20 6 24 53 5 72 -7 7 -37 11 -72 10 -34 0 -279
-7 -546 -14z m-1088 -163 c3 -3 8 -125 10 -271 l3 -265 -54 -3 c-35 -2 -57 1
-62 9 -4 7 -8 118 -9 248 0 130 -2 245 -3 255 -3 26 38 46 77 39 17 -3 34 -8
38 -12z m-150 -65 c5 -22 7 -132 6 -245 l-3 -206 -45 0 -45 0 -3 248 -2 248
42 -3 c40 -3 43 -5 50 -42z m-129 -194 c5 -117 6 -219 3 -227 -7 -19 -69 -20
-84 -2 -15 18 -16 434 -1 439 6 2 25 4 43 3 l31 0 8 -213z m-143 178 c12 -8
15 -42 15 -202 l0 -193 -28 -3 c-16 -2 -29 2 -32 10 -2 7 -6 93 -9 191 -4 148
-2 180 10 192 18 17 24 18 44 5z"/>
<path d="M393 4443 c-9 -3 -13 -30 -13 -88 0 -87 7 -101 43 -83 10 5 16 16 13
23 -4 12 30 33 39 23 1 -1 4 -145 6 -318 l4 -315 -242 -3 -243 -2 0 -40 0 -40
258 1 c287 2 318 5 315 34 -2 11 -5 167 -8 347 -6 310 -5 326 12 331 10 3 171
8 358 12 187 4 343 10 348 14 4 4 4 22 1 40 l-7 34 -106 -7 c-145 -8 -717 -10
-730 -1 -6 3 -11 12 -11 20 0 15 -19 24 -37 18z"/>
<path d="M5265 4188 c-23 -27 -24 -33 -12 -46 18 -18 37 -8 37 19 0 15 6 20
23 17 30 -4 29 -39 -3 -55 -14 -7 -25 -18 -25 -25 0 -7 11 -15 25 -18 20 -5
25 -12 25 -35 0 -39 -30 -47 -39 -10 -8 33 -40 30 -44 -5 -6 -42 59 -66 108
-40 28 15 36 67 14 91 -15 17 -16 24 -6 39 19 31 14 57 -14 79 -37 29 -58 26
-89 -11z"/>
<path d="M145 4040 c-56 -88 -57 -100 -6 -100 37 0 40 -2 38 -27 -2 -24 2 -28
23 -28 21 0 26 6 31 40 4 22 3 44 -2 50 -5 5 -9 37 -9 72 0 84 -16 83 -75 -7z
m33 -47 c-2 -17 -10 -29 -20 -31 -21 -4 -24 22 -5 43 19 22 29 18 25 -12z"/>
<path d="M1228 3693 c-1 -5 -3 -165 -3 -358 l0 -350 -165 -6 c-91 -4 -366 -10
-612 -14 l-448 -7 0 -39 0 -39 158 0 c367 0 1137 22 1148 34 9 8 9 29 3 71 -4
33 -9 201 -9 373 -1 172 -3 319 -7 327 -5 15 -61 21 -65 8z"/>
<path d="M5502 3033 c3 -88 3 -88 31 -91 22 -3 27 1 27 18 0 13 8 24 20 27 16
4 20 14 20 49 0 40 -2 44 -25 44 -18 0 -25 5 -25 20 0 15 -7 20 -25 20 l-26 0
3 -87z"/>
<path d="M4122 2468 c-19 -19 -14 -36 15 -50 23 -11 27 -19 28 -58 1 -25 4
-243 8 -485 4 -242 12 -602 18 -800 5 -198 11 -511 12 -695 l2 -335 36 -3 c23
-2 38 2 41 10 3 7 1 171 -3 363 -4 193 -11 511 -15 708 l-7 357 22 0 c14 0 25
-9 31 -25 10 -26 34 -33 46 -14 12 19 4 163 -9 171 -20 13 -27 9 -37 -17 -5
-14 -17 -25 -28 -25 -18 0 -19 16 -25 278 -4 152 -10 340 -13 418 l-7 141 27
7 c31 8 38 52 9 59 -37 10 -140 6 -151 -5z"/>
<path d="M4779 1613 c-6 -77 -2 -156 8 -165 18 -14 43 -2 43 21 0 10 7 22 16
25 9 3 87 6 173 6 87 0 253 3 369 7 l212 6 0 42 0 41 -62 -4 c-120 -6 -683
-18 -695 -14 -6 2 -13 12 -16 23 -5 18 -46 28 -48 12z"/>
<path d="M3050 910 c-14 -14 -20 -33 -20 -63 0 -51 22 -77 63 -77 29 0 67 -31
67 -55 0 -8 -13 -21 -29 -29 -27 -14 -31 -14 -54 4 -44 35 -63 18 -31 -28 12
-18 25 -22 64 -22 58 0 80 23 80 82 0 42 -30 78 -65 78 -25 0 -65 27 -65 44 0
7 11 23 25 36 l25 23 23 -21 c26 -24 57 -29 57 -9 0 8 -10 23 -23 35 -30 29
-89 30 -117 2z"/>
<path d="M5510 874 c-8 -2 -140 -5 -292 -6 -230 -3 -280 -6 -292 -18 -12 -13
-13 -43 -6 -190 5 -96 9 -268 9 -381 1 -222 4 -234 53 -227 l23 3 0 360 0 360
95 6 c52 4 158 7 236 8 78 0 169 4 203 7 l61 7 0 38 c0 39 0 39 -37 38 -21 -1
-45 -3 -53 -5z"/>
<path d="M2602 858 c-12 -12 -17 -133 -6 -162 10 -25 43 -19 50 9 5 20 12 25
38 25 l33 0 8 -302 c12 -398 12 -401 13 -415 2 -16 44 -17 59 -2 8 8 10 112 6
361 -5 291 -3 352 8 359 21 13 25 11 37 -16 13 -29 48 -34 56 -7 4 13 2 94 -3
155 -2 18 -42 5 -51 -17 -10 -28 -52 -36 -141 -28 -43 3 -57 9 -65 25 -11 26
-26 31 -42 15z"/>
<path d="M3086 529 c-33 -26 -34 -74 -1 -74 13 0 20 7 20 20 1 11 4 26 8 33
11 17 47 -3 47 -26 0 -18 -36 -67 -77 -105 -13 -11 -23 -29 -23 -39 0 -17 7
-19 68 -16 61 3 67 5 70 26 3 21 1 22 -37 16 -49 -8 -52 4 -12 37 15 13 33 34
40 47 18 34 5 81 -26 93 -35 13 -47 11 -77 -12z"/>
</g>
</svg>
