<?xml version="1.0" standalone="no"?>
<!DOCTYPE svg PUBLIC "-//W3C//DTD SVG 20010904//EN"
 "http://www.w3.org/TR/2001/REC-SVG-20010904/DTD/svg10.dtd">
<svg version="1.0" xmlns="http://www.w3.org/2000/svg"
 width="660.000000pt" height="564.000000pt" viewBox="0 0 660.000000 564.000000"
 preserveAspectRatio="xMidYMid meet">
<metadata>
Created by potrace 1.16, written by Peter Selinger 2001-2019
</metadata>
<g transform="translate(0.000000,564.000000) scale(0.100000,-0.100000)"
fill="#000000" stroke="none">
<path d="M4346 5453 c-321 -2 -514 -7 -521 -13 -7 -6 -12 -29 -12 -52 0 -34
-6 -46 -28 -64 -42 -33 -25 -45 58 -42 58 2 72 6 75 20 2 10 -5 19 -18 23 -17
5 -21 13 -18 43 l3 36 615 1 615 0 3 -617 2 -618 -29 0 c-28 0 -46 13 -46 35
0 6 -9 10 -20 10 -18 0 -20 -8 -23 -64 -2 -44 1 -67 10 -72 16 -10 27 -2 38
27 7 18 17 24 39 24 16 0 30 -6 32 -12 2 -7 3 -144 1 -305 l-3 -292 -237 -3
c-130 -2 -265 -2 -298 0 -57 3 -62 5 -67 28 -4 24 10 48 35 56 7 3 9 12 5 22
-6 14 -17 16 -69 14 -68 -3 -90 -24 -46 -43 24 -11 36 -51 20 -67 -5 -5 -129
-10 -293 -11 l-284 -2 -3 303 c-2 238 0 302 10 302 227 6 394 6 473 1 l100 -6
0 -30 c0 -22 -5 -31 -20 -33 -65 -12 -35 -45 40 -45 67 0 91 17 58 40 -15 10
-23 26 -23 43 0 22 5 29 27 33 34 6 43 1 43 -24 0 -12 7 -19 19 -19 16 0 20 9
23 61 1 34 0 66 -3 71 -11 17 -44 4 -47 -20 l-3 -22 -347 2 -347 3 -3 368 -2
367 26 10 c49 19 22 35 -64 38 -69 2 -82 0 -82 -13 0 -8 11 -20 23 -24 l24 -9
6 -424 c4 -232 6 -852 5 -1377 -1 -790 1 -956 12 -959 7 -3 18 1 24 9 9 11 46
13 198 9 l187 -5 51 -50 c27 -27 50 -58 50 -70 0 -11 11 -40 25 -64 14 -23 25
-51 25 -61 0 -10 7 -25 15 -33 8 -8 22 -34 31 -58 23 -57 43 -89 58 -89 7 0
27 -16 46 -35 23 -24 43 -35 62 -35 15 0 28 -4 28 -9 0 -4 21 -16 48 -26 26
-10 51 -22 56 -26 6 -5 26 -9 46 -9 36 0 94 -22 105 -41 4 -5 28 -9 54 -9 26
0 51 -3 55 -7 29 -30 158 -54 171 -33 3 5 34 10 68 10 39 1 69 6 81 15 25 19
325 22 343 4 18 -18 89 -31 188 -36 50 -2 94 -9 99 -14 13 -12 93 -12 101 1 3
5 23 10 44 10 22 0 44 6 51 15 14 17 104 15 122 -3 15 -15 80 -16 95 -1 8 8
17 8 33 -1 14 -7 26 -8 32 -2 12 12 6 174 -7 179 -6 2 -19 -10 -28 -27 -19
-32 -37 -40 -37 -16 0 7 11 21 25 30 27 18 33 41 13 50 -7 2 -2 4 12 3 l25 -2
1 118 c0 127 -6 143 -53 131 -12 -3 -24 -1 -27 5 -4 6 -20 8 -39 4 -28 -6 -30
-4 -19 9 10 12 10 18 -2 27 -11 9 -18 7 -34 -13 -10 -14 -31 -31 -46 -37 -14
-7 -26 -18 -26 -25 0 -28 25 -65 47 -70 13 -4 22 -9 19 -12 -11 -10 17 -32 40
-32 28 0 32 -21 8 -41 -12 -9 -20 -10 -33 -2 -11 7 -23 8 -32 2 -8 -5 -25 -8
-39 -8 l-25 0 25 11 c14 6 29 10 33 9 4 -1 3 7 -2 18 -9 15 -22 19 -71 19 -33
0 -60 -4 -60 -9 0 -14 -33 -10 -54 6 -19 14 -19 16 14 56 30 38 32 43 17 54
-10 7 -17 17 -17 22 0 18 43 23 60 8 25 -22 36 -19 85 26 45 42 60 88 34 105
-21 13 15 23 59 17 34 -5 41 -9 37 -23 -8 -25 62 -86 84 -73 19 12 28 73 11
73 -7 0 -9 7 -6 15 3 8 9 22 12 30 5 11 -1 15 -24 15 -17 0 -34 5 -37 10 -3 6
5 10 19 10 32 0 38 10 43 76 3 42 0 56 -12 60 -20 8 -19 44 3 60 15 11 15 16
4 34 -9 15 -10 25 -3 34 11 13 7 288 -4 317 -4 10 -2 20 4 24 20 12 12 63 -11
79 -25 18 -133 22 -143 6 -3 -5 -17 -10 -30 -10 -13 0 -27 -5 -30 -10 -3 -5
-19 -10 -35 -10 -16 0 -40 -5 -54 -11 -26 -12 -25 -12 -129 45 -36 20 -63 26
-113 27 -37 1 -70 -3 -77 -10 -7 -7 -62 -11 -157 -11 l-147 0 -56 59 c-32 33
-57 66 -57 74 0 8 -6 20 -14 26 -25 21 -57 92 -61 135 -5 68 -22 107 -65 146
-22 20 -40 45 -40 54 0 9 -7 19 -15 22 -9 4 -20 15 -26 25 -8 16 -5 21 13 30
l23 10 -3 987 c-1 543 -4 992 -7 999 -3 8 -51 11 -167 10 -90 -1 -392 -3 -672
-4z m-29 -2015 c18 -7 33 -17 33 -23 0 -5 16 -26 34 -46 25 -27 41 -36 66 -36
20 0 36 -6 42 -16 5 -9 16 -17 23 -17 8 0 15 -7 15 -15 0 -17 -65 -22 -75 -5
-3 5 -22 10 -43 10 -85 2 -93 3 -84 9 7 4 5 14 -4 26 -15 20 -16 20 -35 -7
-12 -16 -26 -28 -32 -28 -7 0 -21 -7 -31 -15 -19 -14 -19 -15 0 -55 11 -24 26
-40 37 -40 10 0 17 -8 17 -19 0 -21 22 -33 45 -25 10 4 15 0 15 -15 0 -17 6
-21 29 -21 17 0 32 -4 36 -9 9 -15 -34 -24 -50 -11 -8 7 -22 9 -31 6 -20 -8
-72 23 -80 47 -5 15 -12 18 -35 13 -26 -5 -29 -3 -29 19 0 14 -4 25 -10 25 -5
0 -10 -9 -10 -20 0 -23 -19 -26 -39 -7 -11 10 -11 8 -2 -11 10 -18 9 -23 -4
-28 -8 -4 -21 -1 -29 5 -7 6 -21 9 -30 5 -28 -11 -18 13 24 57 45 47 46 51 25
69 -40 33 3 55 50 24 23 -15 25 -14 69 27 47 42 60 81 35 106 -12 12 -4 33 13
33 7 0 27 -5 45 -12z m-317 -8 c0 -5 -4 -10 -10 -10 -5 0 -10 5 -10 10 0 6 5
10 10 10 6 0 10 -4 10 -10z m983 -119 c-5 -19 -31 -36 -40 -27 -5 5 29 46 38
46 4 0 5 -9 2 -19z m-183 -20 c0 -5 13 -11 28 -14 18 -4 33 -16 41 -34 7 -15
17 -35 21 -43 4 -8 17 -16 29 -18 13 -2 21 -11 21 -23 0 -15 7 -19 31 -19 26
0 30 -3 27 -22 -5 -34 -38 -33 -76 2 -18 16 -38 30 -45 30 -6 0 -24 12 -40 28
l-30 27 7 -27 c5 -23 3 -28 -13 -28 -10 0 -21 -7 -25 -15 -7 -20 -16 -19 -46
5 l-25 19 40 41 40 41 -22 19 c-31 25 -29 40 7 40 17 0 30 -4 30 -9z m-800
-61 c0 -5 -4 -10 -10 -10 -5 0 -10 5 -10 10 0 6 5 10 10 10 6 0 10 -4 10 -10z
m480 -146 c0 -17 -22 -14 -28 4 -2 7 3 12 12 12 9 0 16 -7 16 -16z m590 7 c0
-14 -38 -20 -49 -7 -7 9 -2 12 20 14 16 1 29 -2 29 -7z m-527 -55 c10 3 18 -2
22 -15 3 -12 12 -21 19 -21 11 0 36 -39 36 -55 0 -14 -31 -2 -40 15 -6 11 -17
20 -25 20 -8 0 -15 5 -15 10 0 15 -33 12 -57 -5 -29 -20 -50 -10 -50 25 0 16
4 27 8 25 4 -3 18 -1 31 4 13 5 30 5 40 0 9 -5 23 -6 31 -3z m-621 -28 c40
-38 59 -85 28 -68 -11 6 -22 15 -25 21 -4 5 -18 14 -31 19 -23 9 -32 38 -17
53 9 9 6 11 45 -25z m198 -24 c0 -8 -4 -12 -10 -9 -5 3 -10 10 -10 16 0 5 5 9
10 9 6 0 10 -7 10 -16z m963 -14 c-6 -22 -21 -35 -30 -26 -5 5 24 46 33 46 1
0 0 -9 -3 -20z m-663 -10 c0 -5 -4 -10 -10 -10 -5 0 -10 5 -10 10 0 6 5 10 10
10 6 0 10 -4 10 -10z m-325 -40 c16 -17 39 -30 52 -30 20 0 22 -4 17 -25 -3
-14 -2 -26 2 -26 5 -1 42 -2 82 -3 68 -2 105 -16 88 -33 -4 -4 -10 -3 -14 2
-9 13 -110 17 -117 5 -10 -15 -61 -12 -75 5 -7 9 -21 13 -31 10 -15 -5 -19 -1
-19 17 0 14 -14 35 -35 53 -42 36 -45 55 -7 55 18 0 38 -11 57 -30z m662 -5
c20 -19 40 -35 43 -35 4 0 12 -11 18 -25 6 -14 19 -25 28 -25 13 0 14 -3 4
-15 -16 -19 -45 -19 -75 1 -20 13 -28 14 -39 4 -18 -14 -56 3 -56 25 0 19 16
19 24 0 7 -18 36 -20 36 -2 0 6 -13 23 -29 37 -16 14 -32 35 -36 48 -11 36 38
29 82 -13z m-732 -35 c3 -5 -1 -10 -9 -10 -9 0 -16 -8 -16 -17 -1 -19 -22 -53
-34 -53 -15 0 -4 45 17 65 25 26 33 29 42 15z m647 -2 c-15 -15 -16 -55 -1
-60 7 -2 -5 -4 -25 -5 -39 -1 -48 16 -21 39 9 7 21 18 28 25 7 7 16 12 22 13
5 0 4 -5 -3 -12z m-612 -53 c11 -13 10 -14 -4 -9 -9 3 -16 10 -16 15 0 13 6
11 20 -6z m376 -12 c-6 -6 -36 9 -36 18 0 5 9 4 20 -3 10 -7 18 -14 16 -15z
m504 17 c0 -5 -7 -10 -15 -10 -8 0 -15 5 -15 10 0 6 7 10 15 10 8 0 15 -4 15
-10z m45 0 c3 -5 -1 -10 -9 -10 -9 0 -16 5 -16 10 0 6 4 10 9 10 6 0 13 -4 16
-10z m120 -6 c-7 -7 -22 -10 -34 -7 -33 8 -25 21 13 20 27 -1 31 -3 21 -13z
m275 -14 c0 -5 -4 -10 -10 -10 -5 0 -10 5 -10 10 0 6 5 10 10 10 6 0 10 -4 10
-10z m470 -14 c0 -2 3 -12 7 -21 5 -15 3 -16 -15 -6 -25 13 -29 31 -7 31 8 0
15 -2 15 -4z m-1950 -37 c0 -5 -4 -9 -10 -9 -5 0 -10 7 -10 16 0 8 5 12 10 9
6 -3 10 -10 10 -16z m1090 6 c18 -1 24 -7 22 -19 -4 -22 61 -86 85 -84 40 3
63 -3 63 -17 0 -7 7 -18 16 -23 11 -6 13 -12 6 -16 -16 -10 -174 23 -193 40
-23 20 -42 17 -69 -11 -13 -14 -29 -25 -36 -25 -23 0 -25 -18 -6 -52 10 -18
28 -34 40 -36 16 -3 22 -10 22 -29 0 -22 3 -24 26 -19 20 5 27 3 31 -14 3 -13
14 -20 29 -20 12 0 26 -4 29 -10 3 -6 -16 -9 -50 -8 -49 1 -61 6 -93 35 -20
18 -42 33 -49 33 -8 0 -16 7 -19 15 -4 8 -10 15 -15 15 -5 0 -9 -7 -9 -15 0
-8 5 -15 10 -15 6 0 10 -5 10 -11 0 -8 -4 -8 -12 -2 -7 6 -26 13 -41 17 -25 6
-28 5 -22 -14 7 -22 -5 -26 -36 -10 -27 15 -24 22 19 64 l37 37 -22 19 c-40
32 -18 60 28 34 39 -22 59 -16 100 29 39 43 48 74 28 94 -17 17 0 36 25 28 11
-4 32 -8 46 -10z m650 2 c14 -7 25 -17 25 -23 0 -6 14 -26 30 -45 28 -31 35
-35 73 -31 29 3 42 0 42 -8 0 -7 8 -19 18 -26 15 -12 15 -15 2 -23 -16 -11
-57 -5 -77 11 -7 5 -21 7 -32 3 -10 -3 -22 -1 -26 5 -3 6 -10 8 -15 5 -16 -10
-70 -12 -76 -4 -3 5 4 9 15 9 20 0 28 19 15 33 -4 3 -30 -13 -58 -36 -28 -23
-53 -43 -55 -44 -3 -2 3 -19 12 -38 13 -27 23 -35 43 -35 21 0 24 -4 19 -20
-3 -11 -3 -20 2 -21 62 -6 69 -10 59 -34 -4 -11 -17 -14 -53 -12 -43 3 -48 5
-45 25 2 15 -2 22 -12 22 -9 0 -25 9 -36 20 l-21 21 -18 -23 c-16 -19 -21 -20
-35 -9 -14 12 -16 11 -16 -9 0 -26 -27 -24 -44 2 -8 14 -4 24 24 53 l35 36
-22 19 c-13 10 -23 23 -23 29 0 14 57 15 65 1 13 -22 49 -8 86 33 37 41 51 88
29 102 -38 23 26 34 70 12z m-1540 -13 c0 -8 -4 -12 -10 -9 -5 3 -10 10 -10
16 0 5 5 9 10 9 6 0 10 -7 10 -16z m219 10 c17 -4 31 -12 31 -19 0 -7 15 -29
34 -49 29 -30 42 -36 75 -36 30 0 41 -4 41 -15 0 -9 7 -18 15 -21 27 -11 16
-24 -19 -24 -18 0 -39 7 -46 14 -8 11 -18 12 -35 6 -15 -6 -27 -6 -30 0 -4 6
-14 10 -24 10 -10 0 -26 9 -36 20 -18 19 -18 19 -51 -9 -18 -16 -40 -33 -49
-39 -15 -8 -15 -12 -1 -45 8 -21 22 -37 31 -37 8 0 20 -12 25 -26 9 -21 15
-25 35 -20 20 5 25 3 25 -12 0 -21 -18 -42 -37 -42 -7 0 -28 14 -46 30 -19 17
-40 30 -45 30 -6 0 -16 9 -22 20 -6 11 -15 20 -21 20 -6 0 -8 -9 -4 -20 7 -23
-6 -26 -37 -9 -18 9 -19 8 -13 -10 5 -16 2 -21 -12 -21 -11 0 -27 6 -37 13
-16 12 -15 15 13 42 32 32 39 63 19 83 -10 10 -10 15 2 22 8 6 22 7 30 4 47
-20 60 -16 100 27 44 48 45 51 30 80 -19 35 -2 45 59 33z m2006 -4 c-4 -6 2
-23 12 -38 20 -30 43 -79 43 -93 0 -9 -100 0 -115 11 -5 4 -28 -4 -51 -19
l-41 -26 14 -34 c8 -18 22 -35 31 -38 10 -2 22 -14 27 -26 7 -14 19 -22 35
-22 31 0 37 -26 10 -43 -17 -10 -24 -10 -43 3 -13 8 -27 12 -31 8 -4 -5 -6 1
-4 11 2 14 -9 25 -41 42 -47 26 -63 25 -37 -1 22 -22 20 -28 -3 -15 -24 13
-54 13 -46 1 10 -16 -12 -22 -39 -10 -34 16 -33 29 4 64 34 33 36 42 14 66 -9
10 -13 23 -9 28 8 14 55 14 55 1 0 -5 11 -10 24 -10 35 0 96 59 105 101 7 34
9 35 84 48 5 0 5 -4 2 -9z m-265 -90 c0 -5 -4 -10 -10 -10 -5 0 -10 5 -10 10
0 6 5 10 10 10 6 0 10 -4 10 -10z m320 -100 c0 -5 -4 -10 -10 -10 -5 0 -10 5
-10 10 0 6 5 10 10 10 6 0 10 -4 10 -10z m-1989 -153 c-13 -13 -26 -3 -16 12
3 6 11 8 17 5 6 -4 6 -10 -1 -17z m87 4 c3 -8 -1 -12 -9 -9 -7 2 -15 10 -17
17 -3 8 1 12 9 9 7 -2 15 -10 17 -17z m1242 10 c0 -12 -29 -23 -41 -15 -5 3
-7 10 -4 15 8 12 45 12 45 0z m655 -1 c4 -6 -7 -10 -24 -10 -17 0 -31 5 -31
10 0 6 11 10 24 10 14 0 28 -4 31 -10z m-1180 -54 c11 5 18 0 22 -15 3 -12 13
-21 24 -21 17 0 43 -38 34 -48 -5 -5 -69 31 -73 41 -7 13 -53 7 -59 -9 -3 -9
-12 -13 -21 -9 -8 3 -32 -6 -54 -20 -46 -30 -50 -20 -8 20 17 16 29 34 27 40
-5 14 54 33 75 23 9 -4 24 -5 33 -2z m681 -17 c9 -10 23 -19 29 -19 7 0 15 -8
18 -17 2 -10 8 -26 12 -36 5 -12 -8 -7 -45 18 -52 35 -84 43 -95 25 -3 -5 -17
-10 -31 -10 -14 0 -27 -7 -30 -15 -7 -17 -34 -21 -34 -5 0 6 6 13 14 16 8 3
19 18 25 34 7 21 17 29 38 32 46 5 81 -3 99 -23z m-1959 -6 c27 -27 59 -83 47
-83 -14 0 -84 57 -90 72 -5 16 1 38 11 38 1 0 16 -12 32 -27z m640 15 c4 -7
16 -18 26 -23 24 -13 52 -75 34 -75 -7 0 -17 8 -23 18 -7 9 -28 26 -48 36 -34
18 -37 18 -54 3 -10 -10 -26 -17 -34 -17 -9 0 -21 -7 -28 -15 -7 -8 -16 -15
-21 -15 -15 0 -10 27 7 41 8 7 13 21 11 30 -4 13 2 19 22 22 56 9 100 6 108
-5z m1833 -73 c0 -8 -9 -15 -20 -15 -20 0 -26 11 -13 23 12 13 33 7 33 -8z
m-330 -29 c17 -19 38 -33 48 -32 11 1 16 -5 14 -16 -3 -22 6 -27 63 -32 60 -6
71 -16 17 -16 -22 0 -44 -4 -47 -10 -8 -14 -41 -13 -65 2 -16 10 -24 10 -40 1
-11 -7 -21 -9 -25 -3 -3 5 -26 7 -50 4 -39 -3 -45 -1 -45 16 0 21 36 60 57 60
16 0 17 12 1 28 -9 9 -6 14 13 21 13 5 25 10 27 10 1 1 16 -14 32 -33z m-2006
18 c24 -9 9 -24 -25 -24 -29 0 -40 14 -16 23 18 8 23 8 41 1z m705 -29 c19
-22 36 -33 46 -29 11 4 14 2 10 -9 -4 -8 1 -21 9 -30 35 -35 10 -47 -50 -25
-20 7 -35 20 -39 35 -4 19 -12 23 -40 23 -31 0 -35 -3 -35 -25 0 -14 5 -25 10
-25 6 0 10 -4 10 -8 0 -5 -17 -8 -37 -7 -36 1 -39 5 -34 34 0 6 19 20 41 32
27 15 37 26 30 33 -19 19 -10 36 19 36 21 0 38 -10 60 -35z m648 5 c18 -16 40
-30 47 -30 8 0 17 -11 20 -25 5 -20 13 -25 36 -25 16 0 32 -5 36 -11 4 -6 -1
-9 -13 -7 -11 2 -26 -2 -34 -9 -21 -17 -105 14 -114 42 -6 18 -8 18 -12 3 -6
-25 -29 -22 -36 3 -3 13 -10 18 -17 14 -7 -4 -10 -15 -7 -25 6 -22 -21 -36
-37 -20 -13 13 48 75 65 65 6 -4 4 4 -5 17 -31 47 19 53 71 8z m-1047 -30 c0
-5 -4 -10 -10 -10 -5 0 -10 5 -10 10 0 6 5 10 10 10 6 0 10 -4 10 -10z m520 0
c0 -5 -4 -10 -10 -10 -5 0 -10 5 -10 10 0 6 5 10 10 10 6 0 10 -4 10 -10z m40
0 c0 -5 -4 -10 -10 -10 -5 0 -10 5 -10 10 0 6 5 10 10 10 6 0 10 -4 10 -10z
m100 0 c0 -5 -4 -10 -10 -10 -5 0 -10 5 -10 10 0 6 5 10 10 10 6 0 10 -4 10
-10z m560 0 c0 -5 -4 -10 -10 -10 -5 0 -10 5 -10 10 0 6 5 10 10 10 6 0 10 -4
10 -10z m-880 -46 c0 -8 -4 -12 -10 -9 -5 3 -10 10 -10 16 0 5 5 9 10 9 6 0
10 -7 10 -16z m1591 -9 c0 -5 -9 -11 -21 -13 -20 -3 -27 8 -13 22 10 9 34 3
34 -9z m-1411 -5 c0 -5 -4 -10 -10 -10 -5 0 -10 5 -10 10 0 6 5 10 10 10 6 0
10 -4 10 -10z m100 0 c0 -5 -4 -10 -10 -10 -5 0 -10 5 -10 10 0 6 5 10 10 10
6 0 10 -4 10 -10z m145 0 c3 -5 -1 -10 -9 -10 -9 0 -16 5 -16 10 0 6 4 10 9
10 6 0 13 -4 16 -10z m475 0 c0 -5 -4 -10 -9 -10 -6 0 -13 5 -16 10 -3 6 1 10
9 10 9 0 16 -4 16 -10z m180 0 c0 -12 -37 -12 -65 0 -15 7 -10 9 23 9 23 1 42
-3 42 -9z m-759 -103 c49 -47 59 -53 97 -52 35 0 41 -2 37 -16 -4 -11 2 -19
17 -24 22 -7 22 -8 -6 -12 -16 -3 -58 0 -93 7 -49 8 -68 8 -79 -1 -10 -8 -14
-8 -14 0 0 6 5 11 10 11 7 0 7 6 0 20 -6 11 -17 20 -26 20 -20 0 -30 -30 -13
-42 11 -8 10 -9 -4 -4 -22 7 -77 -19 -77 -37 0 -23 31 -57 51 -57 13 0 19 -6
17 -17 -2 -10 9 -23 27 -32 17 -9 34 -22 38 -28 4 -7 19 -13 32 -13 16 0 25
-6 25 -15 0 -19 -34 -19 -50 0 -9 11 -17 12 -31 5 -25 -14 -69 -2 -69 19 0 14
-2 14 -11 1 -8 -12 -9 -10 -4 7 5 19 1 25 -21 33 -15 6 -33 18 -39 27 -6 9
-17 14 -24 12 -8 -3 -5 -12 9 -27 l21 -23 -24 6 c-14 4 -28 2 -31 -4 -10 -15
-38 -14 -60 2 -17 13 -17 16 13 49 35 40 38 53 16 62 -8 3 -15 12 -15 21 0 17
55 22 65 5 12 -20 44 -9 81 28 37 37 46 68 30 105 -7 14 -3 17 22 17 22 0 43
-13 83 -53z m637 33 c2 -6 17 -25 33 -43 16 -17 29 -35 29 -39 0 -4 13 -5 29
-2 21 5 34 1 50 -15 12 -12 26 -21 31 -21 6 0 10 -4 10 -10 0 -13 -77 -13 -85
0 -4 6 -16 10 -28 9 -53 -5 -87 1 -87 15 0 28 -21 27 -57 -3 -21 -17 -43 -31
-50 -31 -7 0 -13 -7 -13 -16 0 -25 41 -76 56 -70 8 3 14 -4 16 -17 2 -17 11
-23 36 -25 24 -3 32 -8 32 -23 0 -15 5 -19 19 -14 10 3 23 -1 31 -10 18 -22
-16 -33 -37 -12 -11 11 -22 13 -38 7 -18 -7 -29 -2 -56 26 -18 19 -39 34 -46
34 -7 0 -21 9 -30 20 -21 24 -43 26 -43 4 0 -11 -6 -14 -21 -9 -16 5 -20 3
-17 -12 2 -12 -3 -18 -17 -18 -29 0 -32 45 -5 70 24 22 25 38 5 55 -8 7 -15
16 -15 21 0 13 57 11 79 -3 17 -10 25 -7 59 23 53 46 68 76 47 99 -8 9 -12 20
-8 24 11 11 87 -1 91 -14z m-378 -130 c0 -5 -4 -10 -10 -10 -5 0 -10 5 -10 10
0 6 5 10 10 10 6 0 10 -4 10 -10z m-700 -100 c0 -5 -4 -10 -10 -10 -5 0 -10 5
-10 10 0 6 5 10 10 10 6 0 10 -4 10 -10z m50 0 c0 -5 -4 -10 -9 -10 -6 0 -13
5 -16 10 -3 6 1 10 9 10 9 0 16 -4 16 -10z m50 0 c0 -5 -4 -10 -10 -10 -5 0
-10 5 -10 10 0 6 5 10 10 10 6 0 10 -4 10 -10z m1680 0 c0 -5 -4 -10 -10 -10
-5 0 -10 5 -10 10 0 6 5 10 10 10 6 0 10 -4 10 -10z m-1220 -96 c0 -14 -21
-19 -33 -7 -9 9 13 34 24 27 5 -3 9 -12 9 -20z m1238 4 c3 -14 -3 -18 -27 -18
-25 0 -31 4 -31 21 0 16 5 20 27 17 17 -2 29 -10 31 -20z m-590 1 c-2 -6 -8
-10 -13 -10 -5 0 -11 4 -13 10 -2 6 4 11 13 11 9 0 15 -5 13 -11z m52 1 c0 -5
-4 -10 -10 -10 -5 0 -10 5 -10 10 0 6 5 10 10 10 6 0 10 -4 10 -10z m-500 -4
c0 -11 -19 -15 -25 -6 -3 5 1 10 9 10 9 0 16 -2 16 -4z m-147 -49 c10 -1 21
-7 25 -13 4 -6 17 -14 29 -18 19 -6 41 -52 29 -63 -3 -3 -14 4 -26 15 -36 33
-79 47 -101 34 -10 -7 -30 -12 -44 -12 -19 0 -25 -5 -25 -22 0 -21 -1 -21 -17
-5 -16 16 -16 18 6 38 12 12 20 28 17 36 -4 10 -1 13 13 8 11 -3 22 -1 26 5 4
7 17 9 29 5 11 -3 29 -7 39 -8z m207 3 c0 -5 -4 -10 -10 -10 -5 0 -10 5 -10
10 0 6 5 10 10 10 6 0 10 -4 10 -10z m423 -2 c3 -10 7 -10 17 -1 10 10 20 7
44 -14 37 -31 63 -83 42 -83 -8 0 -16 6 -19 14 -3 7 -24 23 -47 35 -38 20 -44
20 -59 6 -10 -8 -25 -15 -35 -15 -9 0 -26 -5 -37 -10 -31 -17 -23 5 16 45 36
35 70 45 78 23z m197 2 c0 -5 -4 -10 -10 -10 -5 0 -10 5 -10 10 0 6 5 10 10
10 6 0 10 -4 10 -10z m40 0 c0 -5 -4 -10 -10 -10 -5 0 -10 5 -10 10 0 6 5 10
10 10 6 0 10 -4 10 -10z m20 -45 c0 -8 -4 -15 -10 -15 -5 0 -10 7 -10 15 0 8
5 15 10 15 6 0 10 -7 10 -15z m-40 -55 c0 -5 -4 -10 -10 -10 -5 0 -10 5 -10
10 0 6 5 10 10 10 6 0 10 -4 10 -10z m70 0 c0 -5 -4 -10 -10 -10 -5 0 -10 5
-10 10 0 6 5 10 10 10 6 0 10 -4 10 -10z"/>
<path d="M5980 2200 c0 -11 5 -20 10 -20 6 0 10 9 10 20 0 11 -4 20 -10 20 -5
0 -10 -9 -10 -20z"/>
<path d="M6020 2205 c0 -8 5 -15 10 -15 6 0 10 7 10 15 0 8 -4 15 -10 15 -5 0
-10 -7 -10 -15z"/>
<path d="M1400 5349 c0 -8 12 -10 34 -6 22 3 41 0 53 -8 34 -27 69 -15 41 13
-16 16 -128 16 -128 1z"/>
<path d="M1331 5326 c-7 -8 -15 -40 -18 -71 -5 -45 -11 -60 -29 -72 -16 -10
-24 -25 -24 -44 0 -16 -11 -47 -25 -69 -30 -48 -31 -68 -4 -114 19 -33 86 -76
120 -76 8 0 22 -6 31 -14 23 -17 230 -15 236 2 2 7 22 12 46 12 56 0 93 37 96
95 6 91 0 165 -12 165 -19 1 -77 57 -88 85 -11 29 -68 61 -82 47 -11 -11 28
-52 49 -52 7 0 13 -5 13 -11 0 -20 40 -68 68 -81 25 -12 27 -18 30 -87 3 -72
2 -75 -29 -108 -36 -36 -50 -40 -68 -19 -9 10 -21 12 -52 5 -22 -5 -45 -6 -51
-3 -6 4 -14 1 -18 -6 -6 -9 -12 -9 -29 2 -18 11 -23 11 -30 -1 -6 -10 -10 -10
-16 -1 -4 6 -14 9 -22 6 -8 -3 -27 3 -43 14 -15 11 -33 20 -38 20 -6 0 -13 8
-16 18 -3 9 -17 30 -31 46 -29 33 -31 49 -10 66 8 7 15 19 15 26 0 19 15 18
36 -3 22 -23 93 -27 101 -7 3 8 0 21 -7 29 -7 8 -10 22 -6 30 3 9 -4 21 -20
31 -38 25 -55 67 -48 114 7 42 -4 52 -25 26z"/>
<path d="M4077 5243 c-2 -4 -10 -25 -16 -45 -7 -21 -16 -38 -20 -38 -5 0 -16
-21 -26 -46 -19 -51 -11 -71 25 -59 20 6 20 8 6 24 -15 16 -15 21 -1 47 8 16
15 36 15 44 0 9 3 11 10 4 9 -9 12 -38 10 -99 -2 -51 6 -80 20 -80 18 0 27 80
11 99 -6 7 -7 16 -2 22 13 12 -1 126 -16 131 -6 2 -13 0 -16 -4z"/>
<path d="M1455 5130 c-3 -5 1 -10 10 -10 9 0 13 5 10 10 -3 6 -8 10 -10 10 -2
0 -7 -4 -10 -10z"/>
<path d="M1369 5058 c-1 -2 -3 -25 -5 -52 l-3 -48 30 6 c21 4 31 1 35 -9 10
-25 41 -28 63 -6 12 12 21 27 21 35 0 19 -52 56 -78 56 -12 0 -24 5 -27 10 -5
9 -33 14 -36 8z m51 -48 c0 -5 -4 -10 -10 -10 -5 0 -10 5 -10 10 0 6 5 10 10
10 6 0 10 -4 10 -10z"/>
<path d="M1595 4960 c-3 -5 -2 -10 4 -10 5 0 13 5 16 10 3 6 2 10 -4 10 -5 0
-13 -4 -16 -10z"/>
<path d="M2075 4711 c-7 -13 12 -24 26 -15 6 3 28 -2 50 -11 46 -21 64 -12 30
16 -24 20 -95 26 -106 10z"/>
<path d="M1985 4675 c-3 -8 -8 -23 -11 -32 -4 -10 -8 -33 -9 -51 -2 -17 -15
-46 -30 -63 -14 -18 -24 -38 -21 -45 3 -8 -8 -34 -25 -59 -29 -43 -29 -46 -16
-77 8 -18 17 -41 20 -50 7 -20 81 -58 112 -58 11 0 26 -5 32 -11 14 -14 222
-14 236 0 6 6 30 11 52 11 32 0 47 6 68 28 25 26 27 34 27 118 0 97 -2 101
-43 127 -15 10 -41 40 -58 66 -25 42 -50 60 -81 61 -20 0 -4 -32 27 -57 19
-15 35 -33 35 -38 0 -6 23 -28 51 -49 l51 -38 -4 -69 c-3 -59 -8 -72 -33 -99
-29 -30 -58 -39 -70 -20 -5 8 -11 7 -21 -1 -10 -8 -14 -8 -14 0 0 6 5 11 10
11 6 0 10 7 10 15 0 20 -17 19 -28 -1 -5 -9 -14 -14 -21 -10 -17 11 -13 26 11
35 34 12 7 19 -30 6 l-32 -11 20 -21 19 -21 -35 2 c-19 2 -37 5 -40 8 -7 7 7
38 17 38 5 0 9 8 9 18 0 23 -57 73 -76 65 -8 -3 -21 0 -30 7 -21 19 -38 -1
-41 -49 -2 -29 2 -41 14 -45 9 -4 20 -1 24 6 6 9 14 6 33 -12 28 -26 38 -63
11 -40 -8 6 -19 9 -24 6 -19 -12 -91 35 -106 70 -8 19 -19 34 -24 34 -19 0
-12 66 8 84 18 16 20 16 38 -2 13 -14 29 -19 58 -17 52 3 50 1 32 29 -9 13
-13 33 -10 44 3 15 -1 22 -17 27 -30 9 -66 90 -50 110 12 15 6 35 -11 35 -5 0
-12 -7 -14 -15z"/>
<path d="M4773 4542 c-6 -4 -13 -30 -15 -57 l-3 -50 40 0 c32 0 42 -5 54 -26
16 -29 10 -69 -15 -93 -23 -23 -34 -20 -47 14 -6 17 -16 29 -22 27 -18 -6 -17
-38 1 -58 40 -44 124 -2 124 63 0 69 -9 80 -80 97 -34 8 -40 46 -8 55 13 3 33
6 46 6 26 0 30 17 5 23 -29 7 -67 7 -80 -1z"/>
<path d="M4782 3980 c-44 -10 -59 -33 -65 -100 -7 -76 0 -105 33 -140 49 -52
109 -13 110 71 0 54 -14 69 -67 78 -44 7 -50 20 -24 52 16 19 22 22 32 12 21
-21 41 -16 37 9 -4 26 -12 28 -56 18z m40 -157 c6 -47 0 -70 -18 -77 -25 -10
-54 30 -54 74 0 39 1 40 34 40 32 0 34 -2 38 -37z"/>
<path d="M4113 3953 c-31 -4 -51 -27 -33 -38 5 -3 18 -1 29 5 24 12 32 12 50
1 11 -7 11 -14 -2 -42 -24 -54 -36 -91 -43 -131 -5 -30 -3 -39 11 -44 23 -9
35 12 35 63 0 39 15 94 42 150 19 40 1 47 -89 36z"/>
<path d="M2652 3868 c-7 -7 -12 -16 -12 -20 0 -15 15 -8 28 12 13 22 3 27 -16
8z"/>
<path d="M2829 3859 c12 -12 25 -18 28 -15 9 9 -18 36 -35 36 -12 0 -11 -5 7
-21z"/>
<path d="M2602 3845 c3 -25 -2 -32 -29 -45 -27 -12 -33 -21 -33 -46 0 -24 5
-33 21 -37 13 -3 19 -11 16 -19 -3 -7 -8 -21 -12 -30 -5 -12 4 -27 29 -51 20
-19 36 -37 36 -40 0 -11 -34 5 -58 27 l-23 20 -6 -22 c-3 -14 -13 -22 -27 -22
-12 0 -27 -5 -34 -12 -6 -6 -26 -11 -44 -10 -18 0 -43 -6 -55 -14 -15 -9 -49
-14 -98 -14 -58 0 -77 -3 -81 -15 -4 -8 -14 -15 -24 -15 -11 0 -22 -4 -25 -10
-8 -13 -42 -13 -47 -1 -1 6 -39 12 -84 14 -66 3 -84 7 -102 25 -21 21 -31 22
-182 22 -127 0 -166 -3 -194 -16 -31 -15 -38 -16 -68 -2 -25 12 -64 15 -162
13 l-129 -2 -16 -28 c-12 -21 -13 -29 -3 -32 7 -3 12 -22 12 -48 0 -26 6 -47
15 -55 14 -11 14 -15 0 -37 -16 -23 -15 -25 4 -30 12 -3 21 -12 21 -19 0 -8 7
-14 15 -14 8 0 15 -4 15 -10 0 -5 -10 -10 -22 -10 -43 0 -53 -14 -41 -54 8
-27 8 -44 0 -66 -9 -23 -9 -35 1 -50 6 -11 12 -26 12 -35 0 -19 36 -38 60 -30
14 4 19 0 22 -17 2 -15 11 -24 24 -26 15 -2 24 -12 27 -30 6 -30 0 -43 -11
-25 -4 6 -25 21 -46 33 -34 18 -43 20 -63 9 -15 -8 -23 -21 -23 -38 0 -14 -2
-41 -6 -59 -4 -21 -1 -40 9 -56 14 -21 14 -26 2 -36 -18 -15 -20 -61 -3 -78 8
-8 8 -15 -2 -26 -7 -9 -10 -23 -6 -31 4 -13 10 -14 26 -5 19 10 20 9 14 -14
-5 -20 -2 -26 10 -26 9 0 16 -4 16 -10 0 -5 -14 -10 -30 -10 -37 0 -47 -20
-30 -59 9 -23 9 -33 -2 -50 -10 -17 -10 -25 0 -42 7 -11 10 -28 7 -38 -6 -21
32 -42 63 -35 14 4 21 0 25 -15 3 -12 11 -21 19 -21 12 0 38 -43 38 -64 0 -5
-12 1 -27 15 -16 14 -40 31 -55 39 -25 12 -30 11 -48 -5 -15 -13 -19 -26 -15
-42 3 -13 1 -23 -5 -23 -5 0 -10 -9 -10 -19 0 -11 -4 -23 -10 -26 -16 -10 -12
-29 10 -53 18 -19 28 -21 88 -16 78 6 160 23 183 37 13 8 23 4 46 -19 59 -58
145 -83 172 -51 17 21 82 39 126 35 l40 -3 5 -990 5 -990 684 2 c558 1 685 4
692 15 5 7 7 30 3 50 -8 49 2 77 32 88 13 5 24 17 24 25 0 13 -13 15 -82 13
-66 -2 -83 -6 -83 -18 0 -8 10 -16 23 -18 18 -3 22 -10 22 -41 l0 -38 -302 -7
c-369 -7 -927 -11 -932 -5 -6 6 -12 1886 -6 1892 3 3 281 8 618 11 l612 6 0
-23 c0 -12 2 -317 4 -679 l5 -656 -25 -6 c-17 -5 -24 -12 -22 -24 3 -14 16
-17 82 -17 88 0 107 14 56 40 l-30 16 0 699 c1 472 -2 706 -9 719 -8 13 -11
232 -11 664 l0 645 -45 22 c-42 21 -47 21 -64 6 -10 -9 -29 -16 -44 -16 -14 0
-32 -7 -41 -15 -19 -19 -26 -19 -26 0 0 8 11 25 25 37 18 15 22 24 13 29 -9 6
-8 12 5 27 20 22 22 56 4 74 -8 7 -12 20 -10 29 5 18 -35 61 -51 56 -5 -2 -14
-11 -20 -21 -9 -14 -6 -21 14 -38 16 -14 21 -22 13 -25 -8 -3 -11 -14 -8 -26
7 -29 -11 -58 -24 -38 -7 10 -13 11 -31 1 l-22 -12 23 31 c17 23 20 33 11 44
-7 8 -9 17 -5 20 3 4 -1 7 -10 7 -10 0 -14 5 -11 14 5 13 2 13 -20 3 -14 -7
-29 -20 -32 -29 -3 -10 -10 -18 -15 -18 -5 0 -9 -8 -9 -19 0 -35 -46 -32 -82
5 -24 24 -36 30 -45 22 -21 -17 -15 -39 19 -69 41 -35 32 -46 -16 -18 -46 27
-54 43 -50 101 2 31 -2 50 -12 58 -18 16 -18 36 1 44 22 8 18 31 -10 63 l-25
28 2 -30z m278 -211 c0 -8 -4 -12 -10 -9 -5 3 -10 10 -10 16 0 5 5 9 10 9 6 0
10 -7 10 -16z m66 -114 c-1 -47 -21 -60 -49 -31 -23 23 -17 48 15 61 35 13 36
13 34 -30z m-105 -11 c26 -14 15 -29 -22 -29 -31 0 -36 9 -17 28 15 15 15 15
39 1z m-273 -61 c18 -18 14 -30 -8 -23 -11 4 -20 2 -20 -4 0 -6 -4 -11 -9 -11
-5 0 -4 11 2 25 14 28 18 30 35 13z m-1304 -14 c3 -9 6 -16 6 -17 0 -1 -11 -3
-25 -3 -27 -2 -31 6 -13 24 16 16 25 15 32 -4z m452 -14 c19 0 24 -4 20 -17
-3 -11 8 -33 30 -58 30 -34 37 -38 54 -27 12 7 21 8 25 2 4 -6 11 -8 16 -5 5
4 12 -2 16 -12 4 -10 14 -23 22 -30 13 -10 9 -12 -26 -13 -23 0 -45 5 -49 11
-3 6 -18 9 -33 6 -27 -6 -91 19 -91 34 0 18 -26 8 -57 -21 -18 -17 -39 -30
-47 -30 -20 0 -20 1 0 -45 8 -20 23 -39 32 -42 10 -2 22 -14 28 -26 6 -16 17
-21 37 -20 22 1 27 -2 27 -23 0 -20 5 -24 30 -24 17 0 30 -4 30 -10 0 -13 -47
-13 -55 0 -3 5 -19 7 -34 4 -24 -5 -33 0 -57 30 -33 41 -40 43 -66 19 -10 -9
-18 -11 -18 -5 0 6 5 14 10 17 16 10 12 23 -10 35 -19 10 -20 9 -14 -14 7 -30
-2 -33 -35 -10 -22 16 -23 16 -16 -5 10 -33 -3 -43 -30 -24 -32 23 -31 31 6
70 31 31 31 33 15 57 -20 31 -20 32 -1 40 9 3 31 -2 50 -11 l35 -17 41 40 c39
37 41 41 35 85 -6 55 -2 61 31 48 13 -5 36 -9 49 -9z m641 8 c18 -7 33 -19 33
-28 0 -8 13 -29 29 -46 26 -28 34 -31 75 -29 42 3 46 2 41 -16 -4 -12 -1 -21
9 -25 9 -3 16 -10 16 -15 0 -13 -78 -11 -86 2 -3 6 -15 8 -27 5 -19 -5 -77 27
-85 46 -6 14 -19 8 -58 -27 -22 -19 -45 -35 -51 -35 -15 0 -17 -16 -3 -25 6
-3 10 -14 10 -24 0 -10 9 -26 20 -36 11 -10 20 -14 20 -9 0 5 6 -2 13 -16 10
-18 20 -24 40 -23 34 2 37 -26 6 -45 -19 -12 -25 -10 -54 21 -18 19 -42 38
-53 41 -11 4 -26 13 -32 21 -18 22 -32 18 -25 -5 4 -14 2 -20 -9 -20 -8 0 -18
5 -21 10 -12 20 -25 9 -19 -15 7 -30 -10 -34 -38 -8 -24 22 -23 26 14 69 l32
36 -22 18 c-12 10 -22 20 -22 23 0 14 47 14 73 1 29 -16 30 -15 73 27 45 44
57 82 33 106 -14 14 -3 33 18 33 9 0 32 -5 50 -12z m718 -68 c31 -32 42 -37
57 -29 14 7 20 6 24 -5 9 -23 -1 -51 -17 -47 -8 2 -32 3 -54 3 -26 0 -48 7
-62 21 -21 18 -25 19 -40 5 -10 -8 -25 -18 -33 -22 -57 -26 -59 -29 -43 -69
13 -32 20 -37 46 -37 23 0 28 -3 20 -11 -20 -20 6 -49 38 -42 21 4 27 1 32
-16 3 -15 13 -21 32 -21 17 0 25 -5 22 -12 -9 -26 -120 1 -148 36 -22 28 -48
33 -67 14 -9 -9 -15 -10 -20 -2 -11 17 -52 24 -52 9 0 -23 -20 -28 -41 -9 -25
23 -24 36 6 64 29 27 32 55 9 68 -9 5 -14 14 -10 21 10 16 47 13 68 -6 18 -16
21 -14 78 45 59 61 86 81 105 82 6 0 28 -18 50 -40z m-1675 10 c0 -5 -4 -10
-10 -10 -5 0 -10 5 -10 10 0 6 5 10 10 10 6 0 10 -4 10 -10z m560 0 c0 -5 -4
-10 -10 -10 -5 0 -10 5 -10 10 0 6 5 10 10 10 6 0 10 -4 10 -10z m510 0 c0 -5
-4 -10 -10 -10 -5 0 -10 5 -10 10 0 6 5 10 10 10 6 0 10 -4 10 -10z m250 0 c0
-5 -4 -10 -10 -10 -5 0 -10 5 -10 10 0 6 5 10 10 10 6 0 10 -4 10 -10z m-1320
-100 c0 -5 -4 -10 -10 -10 -5 0 -10 5 -10 10 0 6 5 10 10 10 6 0 10 -4 10 -10z
m540 -40 c0 -5 -4 -10 -10 -10 -5 0 -10 5 -10 10 0 6 5 10 10 10 6 0 10 -4 10
-10z m-660 -10 c0 -5 -4 -10 -10 -10 -5 0 -10 5 -10 10 0 6 5 10 10 10 6 0 10
-4 10 -10z m40 0 c0 -5 -4 -10 -10 -10 -5 0 -10 5 -10 10 0 6 5 10 10 10 6 0
10 -4 10 -10z m80 -50 c0 -5 -4 -10 -10 -10 -5 0 -10 5 -10 10 0 6 5 10 10 10
6 0 10 -4 10 -10z m1260 0 c0 -5 -4 -10 -10 -10 -5 0 -10 5 -10 10 0 6 5 10
10 10 6 0 10 -4 10 -10z m-430 -40 c0 -5 -4 -10 -10 -10 -5 0 -10 5 -10 10 0
6 5 10 10 10 6 0 10 -4 10 -10z m310 0 c0 -5 -4 -10 -10 -10 -5 0 -10 5 -10
10 0 6 5 10 10 10 6 0 10 -4 10 -10z m-500 -10 c0 -5 -4 -10 -10 -10 -5 0 -10
5 -10 10 0 6 5 10 10 10 6 0 10 -4 10 -10z m-435 -40 c-10 -11 -21 -17 -24
-14 -3 3 3 12 13 20 28 20 32 17 11 -6z m-345 -10 c0 -5 -4 -10 -10 -10 -5 0
-10 5 -10 10 0 6 5 10 10 10 6 0 10 -4 10 -10z m40 0 c0 -5 -4 -10 -10 -10 -5
0 -10 5 -10 10 0 6 5 10 10 10 6 0 10 -4 10 -10z m555 0 c3 -5 -1 -10 -9 -10
-8 0 -18 5 -21 10 -3 6 1 10 9 10 8 0 18 -4 21 -10z m585 0 c0 -5 -11 -10 -24
-10 -14 0 -28 5 -31 10 -4 6 7 10 24 10 17 0 31 -4 31 -10z m75 0 c-3 -5 -13
-10 -21 -10 -8 0 -14 5 -14 10 0 6 9 10 21 10 11 0 17 -4 14 -10z m630 -56
c17 -26 16 -27 -9 -50 -25 -24 -56 -32 -56 -14 0 5 9 14 21 20 12 7 20 20 19
33 -4 45 1 47 25 11z m-1205 -7 c0 -10 11 -22 25 -27 15 -6 25 -17 25 -29 0
-14 -5 -19 -15 -15 -8 4 -15 10 -15 15 0 5 -9 9 -20 9 -11 0 -20 4 -20 9 0 17
-33 21 -56 6 -13 -8 -33 -15 -44 -15 -11 0 -23 -7 -26 -15 -4 -8 -10 -12 -16
-9 -5 3 0 16 12 29 13 14 18 28 14 40 -6 14 -3 16 14 11 11 -4 23 -3 26 2 3 5
26 8 51 8 36 -1 45 -5 45 -19z m677 -16 c18 -14 33 -29 33 -33 0 -3 3 -14 6
-23 6 -15 4 -16 -17 -3 -13 7 -26 16 -29 19 -3 3 -19 14 -37 24 -30 18 -33 18
-51 2 -10 -9 -28 -17 -40 -17 -13 0 -22 -6 -22 -15 0 -8 -4 -15 -10 -15 -14 0
-12 22 5 44 8 10 12 23 9 28 -9 14 39 27 81 21 21 -3 54 -17 72 -32z m440 -17
c-9 -9 -28 6 -21 18 4 6 10 6 17 -1 6 -6 8 -13 4 -17z m-1576 -80 c19 -19 38
-32 41 -28 3 3 9 -5 13 -17 4 -13 14 -29 21 -37 17 -17 9 -32 -16 -32 -23 0
-80 32 -80 45 0 5 -16 26 -36 46 -24 25 -35 43 -30 54 8 23 43 11 87 -31z
m652 10 c21 -21 43 -34 51 -31 10 4 16 -2 18 -21 2 -22 8 -27 28 -26 26 1 56
-21 41 -30 -5 -4 -11 0 -14 6 -3 10 -9 8 -24 -5 -21 -18 -64 -18 -71 1 -4 13
-44 16 -56 5 -14 -14 -66 -11 -66 3 0 8 5 14 10 14 6 0 10 9 10 20 0 11 -4 20
-10 20 -5 0 -10 -8 -10 -18 0 -11 -9 -27 -20 -37 -18 -17 -20 -17 -26 0 -5 11
3 27 24 47 28 28 32 30 46 15 9 -8 16 -23 16 -31 0 -9 7 -16 15 -16 8 0 15 9
15 20 0 11 -6 20 -14 20 -8 0 -18 9 -21 20 -3 11 -11 20 -16 20 -5 0 -9 9 -9
20 0 32 41 24 83 -16z m656 9 c20 -16 43 -28 51 -28 9 0 14 -11 15 -30 0 -29
1 -30 50 -31 71 -2 75 -3 75 -15 0 -8 -5 -8 -15 1 -12 10 -18 10 -30 0 -12
-10 -18 -10 -30 0 -12 10 -16 9 -21 -4 -8 -20 -57 -21 -74 -1 -7 8 -19 15 -26
15 -8 0 -14 6 -14 14 0 8 -16 32 -35 53 -19 21 -35 41 -35 46 0 17 56 5 89
-20z m191 17 c0 -5 -4 -10 -10 -10 -5 0 -10 5 -10 10 0 6 5 10 10 10 6 0 10
-4 10 -10z m-260 -60 c0 -5 -4 -10 -10 -10 -5 0 -10 5 -10 10 0 6 5 10 10 10
6 0 10 -4 10 -10z m-1338 -25 c-2 -14 0 -31 6 -38 9 -10 4 -13 -23 -13 -42 0
-45 15 -10 51 32 31 33 31 27 0z m38 -4 c0 -11 6 -21 13 -24 6 -2 9 -7 6 -11
-3 -3 -14 -4 -23 0 -17 7 -23 54 -6 54 6 0 10 -9 10 -19z m1270 -6 c0 -31 -36
-54 -43 -27 -4 17 19 52 35 52 4 0 8 -11 8 -25z m50 0 c0 -8 5 -15 10 -15 6 0
10 -7 10 -15 0 -13 -3 -13 -20 -3 -21 13 -28 48 -10 48 6 0 10 -7 10 -15z
m388 -5 c29 0 -4 -23 -37 -25 -27 -2 -29 -1 -18 16 7 11 18 17 25 14 8 -3 21
-5 30 -5z m-1522 -14 c22 -22 18 -38 -6 -24 -11 7 -20 18 -20 25 0 17 8 16 26
-1z m849 3 c12 -19 -5 -23 -22 -6 -16 16 -16 17 -1 17 9 0 20 -5 23 -11z m60
-27 c-6 -7 -35 18 -35 31 0 5 9 2 20 -8 11 -10 18 -20 15 -23z m-808 12 c2 -6
-10 -8 -32 -6 -48 6 -55 22 -9 19 21 -1 39 -7 41 -13z m151 -1 c2 -7 -1 -13
-6 -13 -6 0 -12 6 -15 13 -3 9 -7 9 -19 0 -12 -10 -19 -10 -34 1 -17 13 -15
14 25 13 25 -1 46 -7 49 -14z m520 0 c5 -18 -10 -16 -34 2 -18 15 -18 15 5 13
14 -2 26 -9 29 -15z m-1115 -44 c4 -16 3 -18 -9 -8 -16 13 -19 29 -5 29 5 0
11 -9 14 -21z m677 -16 c0 -7 -4 -13 -10 -13 -5 0 -10 5 -10 10 0 6 -7 10 -15
10 -15 0 -20 12 -9 23 9 9 44 -16 44 -30z m638 19 c2 -7 -2 -10 -12 -6 -9 3
-16 11 -16 16 0 13 23 5 28 -10z m423 -7 c19 -8 50 -35 69 -59 26 -32 42 -43
60 -42 20 1 25 -4 25 -24 0 -23 -3 -25 -35 -22 -35 4 -64 15 -107 42 -19 12
-25 11 -57 -18 -59 -51 -76 -42 -26 15 32 36 38 71 18 91 -10 10 -10 15 2 22
18 12 12 13 51 -5z m-1311 -7 c17 -11 22 -10 29 1 10 16 23 -1 16 -21 -3 -7
13 -31 35 -53 34 -33 43 -37 51 -25 8 11 12 12 16 3 2 -7 11 -13 19 -13 8 0
14 -6 14 -14 0 -7 9 -16 21 -19 12 -3 18 -10 14 -16 -8 -14 -68 -14 -82 0 -6
6 -31 13 -55 14 -30 3 -47 10 -57 24 -18 28 -45 26 -59 -3 -6 -13 -24 -30 -41
-37 -32 -14 -38 -24 -21 -34 6 -3 10 -15 10 -25 0 -21 28 -40 48 -33 8 3 11
-4 10 -19 -3 -19 2 -23 30 -26 20 -2 32 -9 32 -18 0 -9 11 -14 29 -14 35 0 53
-19 19 -21 -13 -1 -27 0 -33 1 -57 15 -91 17 -97 7 -4 -6 -11 -8 -15 -3 -4 5
-2 11 5 13 21 8 13 21 -34 52 -49 34 -69 39 -61 16 9 -21 -14 -31 -28 -12 -18
25 -28 21 -21 -9 6 -23 5 -25 -16 -19 -41 13 -43 24 -10 58 35 36 41 61 17 71
-8 3 -15 10 -15 16 0 19 29 22 61 6 18 -9 33 -16 35 -16 1 0 21 19 44 43 37
38 41 46 37 84 -6 56 9 68 53 41z m681 -14 c70 -76 81 -85 95 -80 8 3 33 -6
56 -21 l40 -27 -27 -9 c-18 -6 -34 -5 -50 3 -13 7 -28 9 -35 5 -12 -8 -54 10
-78 33 -21 20 -45 14 -75 -18 -16 -16 -35 -30 -43 -30 -16 0 -19 -26 -4 -35 6
-4 8 -10 5 -15 -7 -11 22 -40 40 -40 7 0 15 -10 17 -22 2 -19 8 -23 36 -20 26
2 32 -2 32 -18 0 -16 7 -20 30 -20 31 0 41 -14 16 -23 -7 -3 -23 1 -35 10 -15
10 -26 12 -34 5 -9 -8 -20 -5 -37 9 -91 72 -168 110 -130 64 10 -13 9 -15 -7
-15 -10 0 -25 6 -32 13 -11 10 -12 7 -7 -15 3 -16 3 -28 -2 -28 -12 0 -62 24
-62 31 0 3 16 20 35 39 38 36 44 57 20 66 -8 4 -15 12 -15 19 0 22 33 27 66 9
l33 -18 41 44 c41 43 48 66 35 108 -7 19 -4 22 23 22 19 0 38 -9 53 -26z m269
16 c0 -5 -4 -10 -10 -10 -5 0 -10 5 -10 10 0 6 5 10 10 10 6 0 10 -4 10 -10z
m20 -55 c0 -8 -4 -15 -10 -15 -5 0 -10 7 -10 15 0 8 5 15 10 15 6 0 10 -7 10
-15z m200 -6 c0 -5 -4 -9 -10 -9 -5 0 -10 7 -10 16 0 8 5 12 10 9 6 -3 10 -10
10 -16z m-1600 1 c0 -5 -4 -10 -10 -10 -5 0 -10 5 -10 10 0 6 5 10 10 10 6 0
10 -4 10 -10z m40 0 c0 -5 -4 -10 -10 -10 -5 0 -10 5 -10 10 0 6 5 10 10 10 6
0 10 -4 10 -10z m100 0 c0 -5 -4 -10 -10 -10 -5 0 -10 5 -10 10 0 6 5 10 10
10 6 0 10 -4 10 -10z m540 -40 c0 -5 -4 -10 -10 -10 -5 0 -10 5 -10 10 0 6 5
10 10 10 6 0 10 -4 10 -10z m-235 -40 c3 -5 2 -10 -4 -10 -5 0 -13 5 -16 10
-3 6 -2 10 4 10 5 0 13 -4 16 -10z m1130 -11 c5 -5 19 -9 32 -9 13 0 26 -8 30
-17 14 -41 45 -74 63 -68 14 4 16 1 12 -20 -4 -22 -1 -25 26 -25 21 0 35 -7
42 -20 6 -12 21 -20 35 -20 14 0 25 -4 25 -10 0 -5 -13 -10 -30 -10 -16 0 -30
4 -30 10 0 5 -16 9 -37 8 -28 -1 -41 4 -57 25 -12 15 -27 27 -32 27 -6 0 -21
9 -34 20 -28 25 -42 26 -38 3 4 -21 -31 -30 -44 -11 -5 8 -6 3 -2 -14 7 -32
-2 -35 -34 -12 -30 21 -28 30 13 67 33 29 34 32 20 53 -22 33 -19 47 8 39 12
-4 26 -11 32 -16z m-1435 -9 c0 -5 -4 -10 -10 -10 -5 0 -10 5 -10 10 0 6 5 10
10 10 6 0 10 -4 10 -10z m440 -40 c0 -5 -4 -10 -10 -10 -5 0 -10 5 -10 10 0 6
5 10 10 10 6 0 10 -4 10 -10z m200 0 c0 -5 -4 -10 -10 -10 -5 0 -10 5 -10 10
0 6 5 10 10 10 6 0 10 -4 10 -10z m-760 -10 c0 -5 -4 -10 -10 -10 -5 0 -10 5
-10 10 0 6 5 10 10 10 6 0 10 -4 10 -10z m574 -129 c3 -4 3 -11 0 -14 -8 -8
-34 3 -34 14 0 11 27 12 34 0z m656 -1 c0 -5 -7 -10 -15 -10 -8 0 -15 5 -15
10 0 6 7 10 15 10 8 0 15 -4 15 -10z m50 0 c0 -5 -4 -10 -10 -10 -5 0 -10 5
-10 10 0 6 5 10 10 10 6 0 10 -4 10 -10z m3 -48 c15 -2 27 -8 27 -13 0 -5 11
-14 24 -20 28 -13 44 -61 17 -51 -9 3 -18 8 -21 11 -3 4 -22 15 -42 26 -35 18
-39 18 -50 3 -7 -9 -26 -18 -43 -20 -17 -2 -29 -8 -28 -15 2 -7 -4 -10 -13 -6
-13 5 -12 9 5 27 12 12 21 30 21 39 0 10 8 17 20 17 11 0 20 5 20 11 0 7 7 8
18 4 9 -4 29 -10 45 -13z m-673 -2 c9 -5 19 -5 27 2 9 8 15 4 23 -16 5 -14 16
-26 25 -26 15 0 41 -48 31 -57 -3 -3 -15 4 -27 16 -13 12 -29 21 -36 21 -7 0
-13 5 -13 10 0 6 -11 10 -24 10 -14 0 -28 -4 -31 -10 -3 -5 -19 -10 -36 -10
-19 0 -29 -5 -29 -15 0 -8 -4 -15 -10 -15 -14 0 -12 11 5 34 8 11 12 29 9 39
-5 15 -2 18 14 13 11 -4 23 -2 27 4 8 12 25 13 45 0z m-370 -10 c0 -5 -4 -10
-10 -10 -5 0 -10 5 -10 10 0 6 5 10 10 10 6 0 10 -4 10 -10z m1630 -6 c11 -13
8 -19 -18 -44 -33 -30 -56 -22 -28 9 9 10 16 25 16 34 0 21 14 22 30 1z m-950
-34 c0 -5 -4 -10 -10 -10 -5 0 -10 5 -10 10 0 6 5 10 10 10 6 0 10 -4 10 -10z
m-42 -94 c29 -34 28 -36 -10 -36 -33 0 -98 51 -98 76 0 36 61 13 108 -40z
m622 34 c12 -16 30 -30 41 -30 22 0 24 -11 7 -28 -21 -21 -52 -13 -90 23 -47
42 -49 65 -9 65 21 0 36 -8 51 -30z m-1380 10 c0 -5 -4 -10 -10 -10 -5 0 -10
5 -10 10 0 6 5 10 10 10 6 0 10 -4 10 -10z m660 -50 c0 -5 -4 -10 -10 -10 -5
0 -10 5 -10 10 0 6 5 10 10 10 6 0 10 -4 10 -10z"/>
<path d="M2840 3174 c0 -3 7 -12 15 -21 20 -19 32 -9 15 12 -12 15 -30 20 -30
9z"/>
<path d="M2940 3857 c0 -7 5 -18 11 -24 7 -7 7 -13 0 -17 -14 -9 -2 -36 15
-36 17 0 18 17 2 23 -10 3 -10 7 -1 17 8 9 9 19 2 32 -11 21 -29 24 -29 5z"/>
<path d="M2872 3800 c-7 -11 -8 -20 -3 -20 9 0 24 30 18 36 -1 2 -8 -6 -15
-16z"/>
<path d="M3044 3736 c-8 -22 3 -49 19 -43 6 2 12 14 12 27 0 27 -22 39 -31 16z"/>
<path d="M3330 2061 c-14 -27 -13 -41 4 -41 8 0 21 14 30 30 13 28 13 30 -4
30 -11 0 -24 -9 -30 -19z"/>
<path d="M3400 2075 c0 -2 5 -15 11 -29 9 -19 9 -32 -1 -56 -7 -16 -16 -30
-21 -30 -17 0 -9 -19 10 -25 24 -7 34 -35 26 -68 -10 -38 -41 -41 -66 -6 -22
31 -39 30 -39 -1 0 -23 36 -50 66 -50 12 0 33 9 48 21 31 24 35 72 9 101 -15
17 -15 21 1 57 17 37 17 40 1 65 -15 22 -45 37 -45 21z"/>
<path d="M2065 2001 c-11 -5 -27 -21 -35 -35 -12 -24 -12 -28 0 -36 23 -15 28
-12 32 18 4 39 49 44 66 7 13 -28 5 -50 -35 -92 -27 -28 -77 -112 -71 -119 3
-2 31 -5 63 -7 48 -2 60 1 71 18 9 14 10 25 3 35 -8 13 -12 12 -26 -7 -15 -22
-52 -31 -66 -17 -7 8 23 54 65 99 49 53 46 115 -8 135 -29 11 -32 12 -59 1z"/>
<path d="M6120 1872 c0 -4 9 -13 20 -20 19 -12 20 -11 8 8 -13 20 -28 27 -28
12z"/>
<path d="M5945 1259 c-4 -6 -5 -13 -2 -16 7 -7 27 6 27 18 0 12 -17 12 -25 -2z"/>
<path d="M6075 1250 c-16 -18 -17 -23 -5 -30 8 -5 24 -7 34 -4 13 4 25 -1 37
-17 10 -13 21 -20 25 -16 9 9 -23 54 -52 74 -18 12 -23 11 -39 -7z"/>
<path d="M5882 1224 c3 -26 -7 -36 -44 -48 -13 -4 -18 -16 -18 -41 0 -31 3
-35 27 -35 21 0 24 -3 15 -12 -19 -19 -14 -63 8 -83 11 -10 20 -24 20 -32 0
-21 -31 -15 -37 7 -7 25 -33 27 -33 3 0 -10 9 -29 19 -42 14 -19 25 -23 47
-18 16 3 47 -1 69 -7 22 -7 76 -14 121 -15 69 -2 83 1 99 19 19 21 50 27 60
10 3 -5 1 -10 -4 -10 -6 0 -11 -4 -11 -10 0 -15 22 -12 59 6 22 11 29 20 23
26 -7 7 -4 20 10 39 20 27 21 30 4 47 -21 24 -11 54 18 50 15 -2 22 3 24 20 2
12 -1 22 -7 22 -6 0 -11 7 -11 15 0 8 -5 15 -10 15 -6 0 -10 -6 -9 -12 6 -47
-23 -69 -36 -28 -5 15 -12 19 -26 15 -11 -4 -27 -1 -35 6 -8 6 -18 8 -22 4 -4
-4 -1 -10 6 -12 6 -3 12 -13 12 -23 0 -10 6 -20 14 -23 18 -7 29 -79 13 -89
-7 -4 -28 -8 -47 -7 -35 0 -35 0 -12 16 25 18 29 48 7 57 -8 3 -15 12 -15 21
0 8 -4 15 -10 15 -12 0 -70 -56 -70 -69 0 -5 -12 -12 -26 -15 -30 -8 -54 8
-54 35 0 24 -16 32 -40 19 -27 -15 -25 -44 5 -68 14 -11 25 -23 25 -26 0 -11
-31 -6 -55 10 -20 13 -23 23 -23 69 0 35 -5 64 -16 80 -18 27 -14 45 10 45 23
0 16 34 -11 58 -32 28 -36 28 -33 -4z"/>
<path d="M5980 1231 c0 -5 5 -13 10 -16 6 -3 10 -2 10 4 0 5 -4 13 -10 16 -5
3 -10 2 -10 -4z"/>
<path d="M6250 1226 c0 -21 21 -31 30 -15 5 7 6 17 4 21 -9 14 -34 9 -34 -6z"/>
<path d="M6160 1151 c0 -12 5 -21 10 -21 6 0 10 6 10 14 0 8 -4 18 -10 21 -5
3 -10 -3 -10 -14z"/>
<path d="M6120 1150 c0 -5 5 -10 10 -10 6 0 10 5 10 10 0 6 -4 10 -10 10 -5 0
-10 -4 -10 -10z"/>
<path d="M5342 778 c3 -7 24 -16 49 -19 24 -3 51 -9 60 -13 25 -11 36 14 14
31 -25 17 -128 18 -123 1z"/>
<path d="M5262 735 c-7 -14 -12 -43 -12 -64 0 -27 -7 -44 -25 -61 -15 -14 -25
-35 -25 -51 0 -14 -7 -32 -15 -39 -8 -6 -14 -15 -13 -18 1 -4 -5 -19 -12 -35
-12 -24 -11 -32 9 -73 13 -25 31 -48 40 -51 18 -6 76 -31 106 -46 26 -13 235
-11 249 3 5 5 26 10 46 10 27 0 43 7 63 28 26 27 27 33 27 128 l0 99 -33 18
c-18 10 -45 37 -59 62 -25 41 -90 86 -105 72 -11 -11 27 -57 52 -63 16 -4 25
-13 25 -26 0 -21 27 -49 73 -73 25 -14 27 -20 27 -76 0 -65 -10 -92 -47 -127
-23 -21 -25 -21 -48 -5 -14 10 -25 21 -25 26 0 4 -5 7 -11 7 -6 0 -8 -9 -4
-20 7 -21 -9 -28 -20 -9 -4 6 -13 8 -21 5 -8 -3 -25 -1 -38 4 -17 6 -30 4 -45
-7 -14 -9 -26 -11 -34 -6 -7 5 -23 10 -36 11 -13 0 -27 5 -30 10 -3 5 -15 11
-26 13 -12 3 -21 14 -23 26 -2 13 -14 31 -28 42 -29 23 -31 54 -4 83 l20 22
22 -21 c27 -24 81 -24 105 0 15 15 14 17 -9 26 -30 11 -43 27 -28 36 17 11 11
23 -12 27 -13 2 -23 8 -23 13 0 6 -7 25 -14 44 -11 26 -12 37 -3 52 16 25 15
29 -6 29 -11 0 -24 -11 -30 -25z"/>
<path d="M2883 673 c-18 -7 -16 -33 2 -33 12 0 15 -17 15 -93 0 -56 -5 -98
-11 -104 -18 -18 -3 -43 25 -43 32 0 42 17 22 38 -12 14 -14 33 -10 87 6 73
-5 147 -21 151 -6 1 -16 0 -22 -3z"/>
<path d="M5314 482 c-6 -4 -11 -24 -11 -44 -1 -36 15 -52 43 -47 22 4 34 -2
34 -16 0 -24 30 -17 58 12 l25 27 -38 33 c-21 18 -46 33 -56 33 -9 0 -23 2
-31 5 -7 3 -18 1 -24 -3z"/>
<path d="M5500 390 c0 -5 5 -10 10 -10 6 0 10 5 10 10 0 6 -4 10 -10 10 -5 0
-10 -4 -10 -10z"/>
</g>
</svg>
