<?xml version="1.0" standalone="no"?>
<!DOCTYPE svg PUBLIC "-//W3C//DTD SVG 20010904//EN"
 "http://www.w3.org/TR/2001/REC-SVG-20010904/DTD/svg10.dtd">
<svg version="1.0" xmlns="http://www.w3.org/2000/svg"
 width="536.000000pt" height="600.000000pt" viewBox="0 0 536.000000 600.000000"
 preserveAspectRatio="xMidYMid meet">
<metadata>
Created by potrace 1.16, written by Peter Selinger 2001-2019
</metadata>
<g transform="translate(0.000000,600.000000) scale(0.100000,-0.100000)"
fill="#000000" stroke="none">
<path d="M2930 5795 c-35 -36 -64 -47 -54 -20 3 8 3 19 0 24 -10 15 -36 1 -36
-19 0 -15 -8 -17 -52 -15 -29 2 -57 4 -63 6 -5 2 -20 -2 -33 -9 -19 -11 -27
-10 -52 4 -24 15 -31 15 -44 5 -13 -11 -19 -11 -32 0 -10 8 -18 9 -22 3 -12
-18 -60 -8 -80 16 -18 22 -22 23 -51 11 -23 -10 -35 -11 -44 -2 -16 13 -27 5
-27 -21 0 -18 -15 -25 -24 -10 -6 10 -42 9 -52 -1 -16 -15 -26 -6 -20 18 6 22
3 25 -19 25 -19 0 -25 -5 -25 -21 0 -16 -4 -19 -17 -15 -9 4 -20 1 -24 -6 -6
-9 -11 -9 -23 1 -9 7 -21 9 -28 5 -21 -14 -91 -15 -114 -3 -16 8 -27 8 -44 -1
-18 -10 -24 -9 -31 1 -7 12 -11 11 -19 -1 -8 -12 -12 -13 -19 -1 -6 10 -13 10
-28 2 -23 -12 -33 -6 -33 21 0 20 -39 25 -57 7 -8 -8 -17 -8 -32 0 -18 10 -21
9 -21 -9 0 -17 -5 -19 -45 -15 -25 2 -45 0 -45 -6 0 -5 -4 -9 -10 -9 -5 0 -10
11 -10 25 0 29 -25 34 -32 7 -4 -14 -14 -18 -47 -16 -22 1 -44 -3 -47 -8 -4
-6 -10 -5 -15 3 -7 11 -12 12 -29 2 -24 -16 -56 -17 -65 -3 -9 14 -42 12 -48
-2 -3 -10 -10 -10 -23 -3 -11 6 -36 10 -56 9 -29 -1 -39 3 -43 17 -7 22 -54
26 -73 7 -9 -9 -15 -9 -24 0 -19 19 -41 15 -35 -7 4 -16 -2 -18 -50 -17 -47 0
-54 3 -50 18 4 13 -1 18 -14 18 -12 0 -19 -7 -19 -20 0 -17 -5 -19 -25 -14
-19 5 -25 2 -25 -9 0 -19 33 -31 61 -22 19 6 21 4 16 -18 -5 -19 0 -32 24 -56
18 -20 37 -30 46 -27 26 10 63 -5 63 -25 0 -10 7 -19 15 -19 8 0 15 -4 15 -10
0 -14 -65 -23 -86 -12 -26 13 -212 8 -226 -6 -17 -17 23 -78 50 -75 18 2 22
-2 22 -28 0 -24 4 -30 18 -27 11 2 25 -2 33 -9 8 -6 25 -13 39 -15 14 -1 26
-11 28 -20 3 -14 -3 -18 -27 -18 -16 0 -32 4 -35 8 -3 5 -37 8 -76 7 -71 -1
-86 6 -50 25 38 20 20 27 -67 26 -100 -1 -112 9 -68 60 27 31 31 49 15 59 -18
11 -10 34 13 37 12 2 32 -3 45 -11 22 -13 26 -11 68 30 44 44 54 74 31 98 -10
10 -8 15 7 26 12 9 16 20 12 32 -7 17 -8 17 -21 -1 -12 -16 -17 -17 -30 -6
-12 10 -19 10 -27 2 -17 -17 -53 -15 -68 3 -16 20 -36 19 -44 -1 -6 -16 -8
-16 -25 0 -9 9 -21 13 -25 9 -4 -4 -21 -8 -38 -9 -22 -1 -32 3 -35 17 -7 26
-41 34 -62 15 -16 -15 -19 -15 -31 -1 -17 21 -33 19 -50 -7 -11 -18 -15 -68
-18 -208 -2 -123 -8 -195 -16 -215 -8 -16 -14 -54 -14 -83 -1 -30 -6 -59 -12
-67 -7 -8 -9 -102 -8 -286 l3 -274 32 -15 c30 -14 33 -18 33 -66 0 -28 -6 -59
-14 -70 -8 -10 -12 -30 -9 -45 3 -16 -1 -32 -11 -42 -13 -13 -16 -43 -16 -181
0 -99 -4 -167 -10 -171 -5 -3 -10 -34 -10 -68 0 -67 -3 -62 102 -148 35 -29
44 -31 145 -36 126 -6 155 -18 228 -92 35 -37 57 -51 76 -51 24 0 31 -8 53
-56 14 -31 26 -64 26 -73 0 -9 7 -25 15 -35 16 -21 19 -77 9 -175 l-7 -61 -78
0 c-72 0 -79 -2 -79 -20 0 -20 7 -20 420 -20 l420 0 6 -25 c9 -37 -3 -72 -27
-78 -12 -3 -19 -12 -17 -19 3 -9 26 -13 79 -13 61 0 74 3 77 17 2 11 -5 18
-20 20 -19 2 -23 9 -23 38 l0 35 275 1 c174 1 280 -2 288 -8 22 -18 14 -58
-13 -68 -25 -9 -34 -35 -15 -42 5 -1 39 -1 75 0 56 3 65 6 65 23 0 13 -7 19
-21 19 -18 0 -20 5 -17 48 l3 47 383 3 c358 2 383 3 380 20 -2 11 -13 17 -33
18 -132 3 -125 2 -125 33 0 17 -4 33 -10 36 -5 3 -10 29 -10 56 0 29 -7 60
-16 75 -28 41 -11 194 32 289 7 17 14 39 16 50 3 20 12 20 366 23 l362 2 10
-25 c6 -16 14 -23 25 -19 11 5 15 22 15 75 0 62 -2 69 -19 69 -12 0 -21 -8
-23 -21 -3 -20 -7 -20 -353 -19 -263 0 -351 3 -358 13 -9 14 -2 1161 8 1177
10 16 1202 14 1206 -2 2 -7 3 -277 1 -599 l-2 -587 -24 -6 c-32 -8 -56 2 -56
24 0 18 -26 35 -34 22 -2 -4 -5 -38 -7 -77 -4 -60 -2 -70 13 -73 12 -2 21 6
28 22 9 24 14 26 69 26 33 0 62 3 64 8 3 4 6 300 8 657 l4 650 -625 3 c-401 2
-628 6 -635 13 -5 5 -13 47 -17 92 -10 117 -19 171 -29 182 -5 5 -9 68 -9 141
0 107 3 134 16 145 18 15 12 54 -13 82 -22 23 -24 22 -63 -18z m-490 -25 c0
-5 -4 -10 -10 -10 -5 0 -10 5 -10 10 0 6 5 10 10 10 6 0 10 -4 10 -10z m-1306
-26 c22 -21 21 -22 -19 -21 -37 1 -42 6 -23 25 16 16 23 15 42 -4z m630 10
c27 -10 18 -31 -14 -31 -30 0 -42 21 -17 30 6 3 13 6 14 6 1 1 8 -2 17 -5z
m642 -8 c21 -21 18 -26 -16 -26 -40 0 -41 30 -2 39 2 1 10 -5 18 -13z m-1905
-19 c-13 -13 -26 -3 -16 12 3 6 11 8 17 5 6 -4 6 -10 -1 -17z m99 3 c0 -5 -4
-10 -10 -10 -5 0 -10 5 -10 10 0 6 5 10 10 10 6 0 10 -4 10 -10z m50 6 c0 -11
-19 -15 -25 -6 -3 5 1 10 9 10 9 0 16 -2 16 -4z m50 -6 c0 -5 -4 -10 -10 -10
-5 0 -10 5 -10 10 0 6 5 10 10 10 6 0 10 -4 10 -10z m40 0 c0 -5 -4 -10 -10
-10 -5 0 -10 5 -10 10 0 6 5 10 10 10 6 0 10 -4 10 -10z m55 0 c3 -5 -1 -10
-9 -10 -9 0 -16 5 -16 10 0 6 4 10 9 10 6 0 13 -4 16 -10z m260 0 c-3 -5 -13
-10 -21 -10 -8 0 -14 5 -14 10 0 6 9 10 21 10 11 0 17 -4 14 -10z m285 0 c0
-5 -4 -10 -10 -10 -5 0 -10 5 -10 10 0 6 5 10 10 10 6 0 10 -4 10 -10z m40 0
c0 -5 -4 -10 -10 -10 -5 0 -10 5 -10 10 0 6 5 10 10 10 6 0 10 -4 10 -10z
m215 -16 c0 -29 52 -89 68 -77 16 13 63 0 59 -16 -1 -7 7 -15 18 -18 12 -3 19
-11 17 -17 -4 -14 -74 -20 -90 -8 -14 10 -189 8 -206 -2 -29 -18 7 -91 40 -81
16 5 19 1 19 -25 0 -26 3 -30 19 -25 14 4 23 0 31 -15 7 -14 17 -19 27 -15 15
5 32 -9 33 -27 0 -12 -45 -9 -58 4 -8 8 -15 8 -27 -2 -11 -9 -19 -10 -23 -3
-4 5 -24 9 -44 9 -25 -1 -34 2 -28 8 14 14 12 46 -3 46 -7 0 -18 -5 -24 -11
-8 -8 -17 -8 -33 1 -15 8 -25 8 -34 1 -13 -11 -86 -4 -86 8 0 4 16 22 35 41
35 34 44 63 25 75 -18 11 -12 46 8 43 11 -2 18 4 20 20 2 12 8 22 14 22 6 0 8
-10 5 -22 -7 -24 8 -48 28 -48 8 0 32 19 55 43 37 38 40 46 35 80 l-5 37 52
-2 c45 -3 53 -6 53 -24z m325 16 c0 -5 -4 -10 -10 -10 -5 0 -10 5 -10 10 0 6
5 10 10 10 6 0 10 -4 10 -10z m100 0 c0 -5 -4 -10 -10 -10 -5 0 -10 5 -10 10
0 6 5 10 10 10 6 0 10 -4 10 -10z m202 -13 c-2 -10 13 -32 32 -50 29 -28 40
-32 74 -29 37 4 40 2 35 -17 -4 -15 -1 -21 11 -21 18 0 22 -26 4 -32 -6 -2
-40 1 -75 8 -85 16 -190 11 -211 -10 -15 -14 -14 -18 5 -43 13 -17 29 -27 41
-26 17 2 20 -3 19 -24 -2 -20 3 -28 18 -31 11 -2 27 -10 35 -17 8 -7 26 -15
39 -17 14 -1 26 -9 29 -15 5 -16 -59 -18 -74 -3 -6 6 -22 6 -44 0 -23 -7 -38
-6 -47 1 -9 9 -17 8 -28 -1 -24 -20 -27 -6 -4 18 20 22 18 49 -3 36 -15 -9
-117 -13 -146 -5 l-26 7 37 41 c36 39 48 73 27 73 -5 0 -10 9 -10 20 0 23 25
26 65 8 23 -10 29 -8 65 27 44 43 57 72 41 88 -26 26 -12 38 42 34 42 -3 51
-6 49 -20z m98 13 c0 -5 -4 -10 -10 -10 -5 0 -10 5 -10 10 0 6 5 10 10 10 6 0
10 -4 10 -10z m200 0 c0 -5 -4 -10 -10 -10 -5 0 -10 5 -10 10 0 6 5 10 10 10
6 0 10 -4 10 -10z m40 0 c0 -5 -4 -10 -10 -10 -5 0 -10 5 -10 10 0 6 5 10 10
10 6 0 10 -4 10 -10z m55 0 c3 -5 -3 -10 -14 -10 -12 0 -21 5 -21 10 0 6 6 10
14 10 8 0 18 -4 21 -10z m90 1 c3 -5 1 -12 -5 -16 -5 -3 -10 1 -10 9 0 18 6
21 15 7z m165 -16 c0 -13 7 -28 15 -35 8 -7 15 -28 15 -46 0 -29 -5 -36 -32
-47 -18 -7 -51 -12 -73 -10 -25 3 -47 -1 -60 -11 -19 -14 -19 -16 -3 -43 13
-20 24 -27 44 -26 19 1 24 -2 20 -12 -9 -24 5 -46 25 -40 12 4 21 -1 29 -15 6
-11 19 -20 30 -20 26 0 31 -13 17 -44 -13 -28 -27 -34 -27 -11 0 22 -29 32
-97 31 -35 -1 -63 1 -63 3 0 2 7 12 16 22 20 22 10 43 -15 30 -10 -6 -28 -7
-40 -4 -12 3 -33 0 -46 -7 -19 -10 -28 -10 -38 -1 -8 6 -22 9 -31 5 -27 -11
-18 10 24 51 43 42 48 56 25 75 -25 21 -18 40 14 40 17 0 33 -4 36 -10 14 -22
51 -8 83 32 27 34 32 48 28 73 -4 17 -3 34 0 38 3 3 28 5 55 5 44 -1 49 -4 49
-23z m-2346 -36 c-3 -5 -10 -7 -15 -3 -5 3 -7 10 -3 15 3 5 10 7 15 3 5 -3 7
-10 3 -15z m56 0 c0 -5 -4 -9 -10 -9 -5 0 -10 7 -10 16 0 8 5 12 10 9 6 -3 10
-10 10 -16z m40 11 c0 -5 -4 -10 -10 -10 -5 0 -10 5 -10 10 0 6 5 10 10 10 6
0 10 -4 10 -10z m140 -5 c0 -8 -4 -15 -10 -15 -5 0 -10 7 -10 15 0 8 5 15 10
15 6 0 10 -7 10 -15z m360 -1 c0 -8 -5 -12 -10 -9 -6 4 -8 11 -5 16 9 14 15
11 15 -7z m40 0 c0 -8 -5 -12 -10 -9 -6 4 -8 11 -5 16 9 14 15 11 15 -7z m240
0 c0 -8 -5 -12 -10 -9 -6 4 -8 11 -5 16 9 14 15 11 15 -7z m57 -10 c-9 -9 -28
6 -21 18 4 6 10 6 17 -1 6 -6 8 -13 4 -17z m-647 6 c0 -5 -4 -10 -10 -10 -5 0
-10 5 -10 10 0 6 5 10 10 10 6 0 10 -4 10 -10z m545 1 c3 -5 1 -12 -5 -16 -5
-3 -10 1 -10 9 0 18 6 21 15 7z m405 -1 c0 -5 -4 -10 -10 -10 -5 0 -10 5 -10
10 0 6 5 10 10 10 6 0 10 -4 10 -10z m280 0 c0 -5 -4 -10 -10 -10 -5 0 -10 5
-10 10 0 6 5 10 10 10 6 0 10 -4 10 -10z m450 0 c0 -5 -4 -10 -10 -10 -5 0
-10 5 -10 10 0 6 5 10 10 10 6 0 10 -4 10 -10z m-1190 -10 c0 -5 -4 -10 -10
-10 -5 0 -10 5 -10 10 0 6 5 10 10 10 6 0 10 -4 10 -10z m-800 -35 c0 -8 -4
-15 -10 -15 -5 0 -10 7 -10 15 0 8 5 15 10 15 6 0 10 -7 10 -15z m50 5 c0 -5
-4 -10 -10 -10 -5 0 -10 5 -10 10 0 6 5 10 10 10 6 0 10 -4 10 -10z m50 -5 c0
-8 -4 -15 -10 -15 -5 0 -10 7 -10 15 0 8 5 15 10 15 6 0 10 -7 10 -15z m40 5
c0 -5 -4 -10 -10 -10 -5 0 -10 5 -10 10 0 6 5 10 10 10 6 0 10 -4 10 -10z
m100 -11 c0 -6 -4 -7 -10 -4 -5 3 -10 11 -10 16 0 6 5 7 10 4 6 -3 10 -11 10
-16z m40 6 c0 -8 -4 -15 -10 -15 -5 0 -10 7 -10 15 0 8 5 15 10 15 6 0 10 -7
10 -15z m460 -6 c0 -5 -4 -9 -10 -9 -5 0 -10 7 -10 16 0 8 5 12 10 9 6 -3 10
-10 10 -16z m36 -6 c-10 -10 -19 5 -10 18 6 11 8 11 12 0 2 -7 1 -15 -2 -18z
m504 12 c0 -8 -4 -15 -10 -15 -5 0 -10 7 -10 15 0 8 5 15 10 15 6 0 10 -7 10
-15z m-640 -5 c0 -5 -4 -10 -10 -10 -5 0 -10 5 -10 10 0 6 5 10 10 10 6 0 10
-4 10 -10z m50 0 c0 -5 -4 -10 -10 -10 -5 0 -10 5 -10 10 0 6 5 10 10 10 6 0
10 -4 10 -10z m630 0 c0 -5 -4 -10 -10 -10 -5 0 -10 5 -10 10 0 6 5 10 10 10
6 0 10 -4 10 -10z m100 0 c0 -5 -4 -10 -10 -10 -5 0 -10 5 -10 10 0 6 5 10 10
10 6 0 10 -4 10 -10z m100 0 c0 -5 -7 -10 -16 -10 -8 0 -12 5 -9 10 3 6 10 10
16 10 5 0 9 -4 9 -10z m40 0 c0 -5 -4 -10 -10 -10 -5 0 -10 5 -10 10 0 6 5 10
10 10 6 0 10 -4 10 -10z m360 0 c0 -5 -4 -10 -10 -10 -5 0 -10 5 -10 10 0 6 5
10 10 10 6 0 10 -4 10 -10z m140 0 c0 -5 -4 -10 -10 -10 -5 0 -10 5 -10 10 0
6 5 10 10 10 6 0 10 -4 10 -10z m100 0 c0 -5 -4 -10 -10 -10 -5 0 -10 5 -10
10 0 6 5 10 10 10 6 0 10 -4 10 -10z m40 0 c0 -5 -4 -10 -10 -10 -5 0 -10 5
-10 10 0 6 5 10 10 10 6 0 10 -4 10 -10z m-2120 -40 c0 -5 -4 -10 -10 -10 -5
0 -10 5 -10 10 0 6 5 10 10 10 6 0 10 -4 10 -10z m40 0 c0 -5 -4 -10 -10 -10
-5 0 -10 5 -10 10 0 6 5 10 10 10 6 0 10 -4 10 -10z m540 0 c0 -5 -4 -10 -10
-10 -5 0 -10 5 -10 10 0 6 5 10 10 10 6 0 10 -4 10 -10z m100 0 c0 -5 -4 -10
-10 -10 -5 0 -10 5 -10 10 0 6 5 10 10 10 6 0 10 -4 10 -10z m590 0 c0 -5 -7
-10 -15 -10 -8 0 -15 5 -15 10 0 6 7 10 15 10 8 0 15 -4 15 -10z m50 0 c0 -5
-4 -10 -10 -10 -5 0 -10 5 -10 10 0 6 5 10 10 10 6 0 10 -4 10 -10z m640 0 c0
-5 -4 -10 -10 -10 -5 0 -10 5 -10 10 0 6 5 10 10 10 6 0 10 -4 10 -10z m-50
-4 c0 -11 -19 -15 -25 -6 -3 5 1 10 9 10 9 0 16 -2 16 -4z m-1350 -41 c0 -8
-4 -15 -10 -15 -5 0 -10 7 -10 15 0 8 5 15 10 15 6 0 10 -7 10 -15z m100 0 c0
-8 -4 -15 -10 -15 -5 0 -10 7 -10 15 0 8 5 15 10 15 6 0 10 -7 10 -15z m-740
-5 c0 -5 -4 -10 -10 -10 -5 0 -10 5 -10 10 0 6 5 10 10 10 6 0 10 -4 10 -10z
m100 0 c0 -5 -4 -10 -10 -10 -5 0 -10 5 -10 10 0 6 5 10 10 10 6 0 10 -4 10
-10z m260 0 c0 -5 -4 -10 -10 -10 -5 0 -10 5 -10 10 0 6 5 10 10 10 6 0 10 -4
10 -10z m100 0 c0 -5 -4 -10 -10 -10 -5 0 -10 5 -10 10 0 6 5 10 10 10 6 0 10
-4 10 -10z m40 -5 c0 -8 -4 -15 -10 -15 -5 0 -10 7 -10 15 0 8 5 15 10 15 6 0
10 -7 10 -15z m100 -6 c0 -5 -4 -9 -10 -9 -5 0 -10 7 -10 16 0 8 5 12 10 9 6
-3 10 -10 10 -16z m90 11 c0 -5 -4 -10 -10 -10 -5 0 -10 5 -10 10 0 6 5 10 10
10 6 0 10 -4 10 -10z m100 0 c0 -5 -4 -10 -10 -10 -5 0 -10 5 -10 10 0 6 5 10
10 10 6 0 10 -4 10 -10z m1270 -5 c0 -8 -4 -15 -10 -15 -5 0 -10 7 -10 15 0 8
5 15 10 15 6 0 10 -7 10 -15z m-880 -5 c0 -5 -4 -10 -10 -10 -5 0 -10 5 -10
10 0 6 5 10 10 10 6 0 10 -4 10 -10z m140 0 c0 -5 -4 -10 -10 -10 -5 0 -10 5
-10 10 0 6 5 10 10 10 6 0 10 -4 10 -10z m500 0 c0 -5 -4 -10 -10 -10 -5 0
-10 5 -10 10 0 6 5 10 10 10 6 0 10 -4 10 -10z m140 0 c0 -5 -4 -10 -10 -10
-5 0 -10 5 -10 10 0 6 5 10 10 10 6 0 10 -4 10 -10z m60 0 c0 -5 -4 -10 -10
-10 -5 0 -10 5 -10 10 0 6 5 10 10 10 6 0 10 -4 10 -10z m260 0 c0 -5 -4 -10
-10 -10 -5 0 -10 5 -10 10 0 6 5 10 10 10 6 0 10 -4 10 -10z m40 0 c0 -5 -4
-10 -10 -10 -5 0 -10 5 -10 10 0 6 5 10 10 10 6 0 10 -4 10 -10z m-2304 -47
c-10 -10 -19 5 -10 18 6 11 8 11 12 0 2 -7 1 -15 -2 -18z m64 13 c0 -11 -19
-15 -25 -6 -3 5 1 10 9 10 9 0 16 -2 16 -4z m400 -6 c0 -5 -4 -10 -10 -10 -5
0 -10 5 -10 10 0 6 5 10 10 10 6 0 10 -4 10 -10z m90 0 c0 -5 -4 -10 -10 -10
-5 0 -10 5 -10 10 0 6 5 10 10 10 6 0 10 -4 10 -10z m50 0 c0 -5 -4 -10 -10
-10 -5 0 -10 5 -10 10 0 6 5 10 10 10 6 0 10 -4 10 -10z m100 0 c0 -5 -4 -10
-10 -10 -5 0 -10 5 -10 10 0 6 5 10 10 10 6 0 10 -4 10 -10z m40 0 c0 -5 -4
-10 -10 -10 -5 0 -10 5 -10 10 0 6 5 10 10 10 6 0 10 -4 10 -10z m320 0 c0 -5
-7 -10 -15 -10 -8 0 -15 5 -15 10 0 6 7 10 15 10 8 0 15 -4 15 -10z m40 0 c0
-5 -4 -10 -10 -10 -5 0 -10 5 -10 10 0 6 5 10 10 10 6 0 10 -4 10 -10z m90 0
c0 -5 -4 -10 -10 -10 -5 0 -10 5 -10 10 0 6 5 10 10 10 6 0 10 -4 10 -10z m50
0 c0 -5 -4 -10 -10 -10 -5 0 -10 5 -10 10 0 6 5 10 10 10 6 0 10 -4 10 -10z
m40 0 c0 -5 -4 -10 -10 -10 -5 0 -10 5 -10 10 0 6 5 10 10 10 6 0 10 -4 10
-10z m50 0 c0 -5 -4 -10 -10 -10 -5 0 -10 5 -10 10 0 6 5 10 10 10 6 0 10 -4
10 -10z m50 0 c0 -5 -4 -10 -10 -10 -5 0 -10 5 -10 10 0 6 5 10 10 10 6 0 10
-4 10 -10z m360 0 c0 -5 -4 -10 -10 -10 -5 0 -10 5 -10 10 0 6 5 10 10 10 6 0
10 -4 10 -10z m40 0 c0 -5 -4 -10 -10 -10 -5 0 -10 5 -10 10 0 6 5 10 10 10 6
0 10 -4 10 -10z m45 0 c-3 -5 -10 -10 -16 -10 -5 0 -9 5 -9 10 0 6 7 10 16 10
8 0 12 -4 9 -10z m50 1 c3 -5 1 -12 -5 -16 -5 -3 -10 1 -10 9 0 18 6 21 15 7z
m95 -1 c0 -5 -4 -10 -10 -10 -5 0 -10 5 -10 10 0 6 5 10 10 10 6 0 10 -4 10
-10z m400 0 c0 -5 -7 -10 -15 -10 -8 0 -15 5 -15 10 0 6 7 10 15 10 8 0 15 -4
15 -10z m-2390 -40 c0 -5 -4 -10 -10 -10 -5 0 -10 5 -10 10 0 6 5 10 10 10 6
0 10 -4 10 -10z m1320 -6 c0 -8 -5 -12 -10 -9 -6 4 -8 11 -5 16 9 14 15 11 15
-7z m600 -4 c0 -5 -4 -10 -10 -10 -5 0 -10 5 -10 10 0 6 5 10 10 10 6 0 10 -4
10 -10z m-1800 -40 c0 -5 -4 -10 -10 -10 -5 0 -10 5 -10 10 0 6 5 10 10 10 6
0 10 -4 10 -10z m440 -5 c0 -8 -7 -15 -15 -15 -16 0 -20 12 -8 23 11 12 23 8
23 -8z m200 0 c0 -8 -4 -15 -10 -15 -5 0 -10 7 -10 15 0 8 5 15 10 15 6 0 10
-7 10 -15z m440 0 c0 -8 -7 -15 -15 -15 -8 0 -15 7 -15 15 0 8 7 15 15 15 8 0
15 -7 15 -15z m640 -9 c0 -17 45 -40 60 -31 7 4 14 -1 17 -14 3 -12 13 -21 22
-21 15 0 51 -50 51 -71 0 -5 -15 -7 -32 -5 -22 2 -32 9 -31 18 2 7 -11 22 -28
32 -28 16 -32 17 -48 2 -10 -9 -28 -16 -40 -16 -17 0 -21 -4 -17 -18 5 -15 1
-19 -24 -19 -36 0 -38 10 -6 48 15 18 22 36 19 49 -4 17 0 20 23 20 28 1 28 1
9 16 -17 12 -18 16 -5 24 16 10 30 4 30 -14z m-1580 4 c0 -5 -4 -10 -10 -10
-5 0 -10 5 -10 10 0 6 5 10 10 10 6 0 10 -4 10 -10z m640 0 c0 -5 -4 -10 -10
-10 -5 0 -10 5 -10 10 0 6 5 10 10 10 6 0 10 -4 10 -10z m540 0 c0 -5 -4 -10
-10 -10 -5 0 -10 5 -10 10 0 6 5 10 10 10 6 0 10 -4 10 -10z m640 0 c0 -5 -4
-10 -10 -10 -5 0 -10 5 -10 10 0 6 5 10 10 10 6 0 10 -4 10 -10z m-1457 -34
c9 3 16 -3 20 -15 3 -13 13 -21 25 -21 13 0 24 -10 31 -31 15 -45 14 -51 -9
-39 -11 6 -25 8 -30 5 -5 -3 -7 1 -4 9 4 9 -5 20 -25 30 -26 14 -37 14 -71 4
-28 -9 -40 -18 -40 -32 0 -13 -5 -17 -20 -13 -11 3 -20 1 -20 -4 0 -5 -4 -9
-10 -9 -18 0 -10 26 15 50 14 13 25 34 25 47 0 19 4 23 18 19 9 -3 24 -1 31 4
9 5 22 5 32 -1 10 -5 24 -6 32 -3z m-603 -19 c48 -44 67 -97 28 -76 -16 9 -23
9 -26 0 -2 -6 -9 -11 -15 -11 -8 0 -7 4 1 12 19 19 14 28 -18 39 -18 7 -30 18
-30 28 0 37 24 40 60 8z m80 13 c0 -5 -4 -10 -10 -10 -5 0 -10 5 -10 10 0 6 5
10 10 10 6 0 10 -4 10 -10z m40 0 c0 -5 -4 -10 -10 -10 -5 0 -10 5 -10 10 0 6
5 10 10 10 6 0 10 -4 10 -10z m60 0 c0 -5 -4 -10 -10 -10 -5 0 -10 5 -10 10 0
6 5 10 10 10 6 0 10 -4 10 -10z m40 0 c0 -5 -4 -10 -10 -10 -5 0 -10 5 -10 10
0 6 5 10 10 10 6 0 10 -4 10 -10z m40 0 c0 -5 -4 -10 -10 -10 -5 0 -10 5 -10
10 0 6 5 10 10 10 6 0 10 -4 10 -10z m60 0 c0 -5 -7 -10 -15 -10 -8 0 -15 5
-15 10 0 6 7 10 15 10 8 0 15 -4 15 -10z m40 0 c0 -5 -4 -10 -10 -10 -5 0 -10
5 -10 10 0 6 5 10 10 10 6 0 10 -4 10 -10z m100 0 c0 -5 -4 -10 -10 -10 -5 0
-10 5 -10 10 0 6 5 10 10 10 6 0 10 -4 10 -10z m210 0 c0 -5 -4 -10 -10 -10
-5 0 -10 5 -10 10 0 6 5 10 10 10 6 0 10 -4 10 -10z m50 0 c0 -5 -4 -10 -10
-10 -5 0 -10 5 -10 10 0 6 5 10 10 10 6 0 10 -4 10 -10z m140 0 c0 -5 -4 -10
-10 -10 -5 0 -10 5 -10 10 0 6 5 10 10 10 6 0 10 -4 10 -10z m40 0 c0 -5 -4
-10 -10 -10 -5 0 -10 5 -10 10 0 6 5 10 10 10 6 0 10 -4 10 -10z m100 0 c0 -5
-4 -10 -10 -10 -5 0 -10 5 -10 10 0 6 5 10 10 10 6 0 10 -4 10 -10z m261 -13
c6 -9 14 -15 19 -12 5 3 19 -13 30 -36 l22 -42 -26 7 c-15 4 -26 2 -26 -4 0
-5 -5 -10 -11 -10 -6 0 -8 8 -5 18 4 12 -3 23 -24 35 -28 17 -31 17 -55 1 -14
-9 -25 -13 -25 -9 0 4 -7 2 -15 -5 -8 -6 -14 -15 -13 -18 2 -20 -4 -25 -13
-12 -8 11 -12 12 -16 3 -2 -7 -9 -13 -14 -13 -17 0 -9 27 17 50 17 17 23 31
20 46 -6 21 -3 22 60 20 51 -1 68 -5 75 -19z m139 13 c0 -5 -4 -10 -10 -10 -5
0 -10 5 -10 10 0 6 5 10 10 10 6 0 10 -4 10 -10z m40 0 c0 -5 -4 -10 -10 -10
-5 0 -10 5 -10 10 0 6 5 10 10 10 6 0 10 -4 10 -10z m100 0 c0 -5 -4 -10 -10
-10 -5 0 -10 5 -10 10 0 6 5 10 10 10 6 0 10 -4 10 -10z m140 0 c0 -5 -4 -10
-10 -10 -5 0 -10 5 -10 10 0 6 5 10 10 10 6 0 10 -4 10 -10z m-1580 -40 c0 -5
-4 -10 -10 -10 -5 0 -10 5 -10 10 0 6 5 10 10 10 6 0 10 -4 10 -10z m140 0 c0
-5 -4 -10 -10 -10 -5 0 -10 5 -10 10 0 6 5 10 10 10 6 0 10 -4 10 -10z m100 0
c0 -5 -4 -10 -10 -10 -5 0 -10 5 -10 10 0 6 5 10 10 10 6 0 10 -4 10 -10z
m400 -6 c0 -8 -4 -12 -10 -9 -5 3 -10 10 -10 16 0 5 5 9 10 9 6 0 10 -7 10
-16z m920 1 c0 -8 -4 -15 -10 -15 -5 0 -10 7 -10 15 0 8 5 15 10 15 6 0 10 -7
10 -15z m355 6 c3 -5 1 -12 -5 -16 -5 -3 -10 1 -10 9 0 18 6 21 15 7z m-1175
-16 c0 -8 -4 -15 -10 -15 -5 0 -10 7 -10 15 0 8 5 15 10 15 6 0 10 -7 10 -15z
m720 5 c0 -5 -4 -10 -10 -10 -5 0 -10 5 -10 10 0 6 5 10 10 10 6 0 10 -4 10
-10z m860 -23 c0 -31 -2 -32 -40 -33 -22 -1 -40 2 -40 6 0 9 61 60 72 60 4 0
8 -15 8 -33z m-2140 -7 c0 -13 -7 -20 -20 -20 -18 0 -19 3 -10 20 6 11 15 20
20 20 6 0 10 -9 10 -20z m-100 -29 c19 -14 40 -25 47 -23 6 1 13 -10 15 -25 3
-24 8 -28 37 -31 20 -2 37 2 42 10 7 11 11 11 18 -1 5 -8 16 -11 26 -7 19 7
48 -11 39 -25 -3 -5 -10 -7 -15 -3 -18 11 -68 13 -75 3 -3 -5 -14 -7 -24 -4
-10 3 -28 0 -39 -7 -17 -10 -26 -10 -51 6 -20 11 -35 14 -43 9 -17 -13 -121
-7 -125 7 -4 12 26 50 40 50 4 0 8 -9 8 -20 0 -11 5 -20 10 -20 14 0 12 37 -2
44 -10 5 -10 7 -1 12 8 3 10 16 7 34 -6 26 -4 27 22 23 16 -3 45 -17 64 -32z
m1322 -25 c17 5 20 3 16 -14 -9 -33 5 -41 81 -44 96 -4 106 -23 11 -22 -38 0
-70 -3 -70 -8 0 -12 -58 -10 -65 2 -8 13 -55 13 -55 0 0 -6 -8 -5 -20 2 -11 7
-20 23 -20 35 0 13 -4 23 -10 23 -5 0 -10 -11 -10 -24 0 -22 -16 -36 -41 -36
-20 0 -7 38 21 65 20 19 28 35 24 47 -4 13 1 21 18 27 19 7 30 2 61 -26 28
-25 44 -32 59 -27z m-1542 44 c0 -5 -4 -10 -10 -10 -5 0 -10 5 -10 10 0 6 5
10 10 10 6 0 10 -4 10 -10z m640 -11 c0 -5 -4 -9 -10 -9 -5 0 -10 7 -10 16 0
8 5 12 10 9 6 -3 10 -10 10 -16z m215 -9 c19 -20 35 -28 47 -24 15 4 18 0 18
-26 l0 -31 68 2 c89 2 92 1 92 -17 0 -11 -6 -14 -20 -9 -16 5 -20 2 -20 -14 0
-17 6 -21 30 -21 20 0 30 -5 30 -15 0 -8 14 -30 30 -49 27 -30 36 -34 70 -31
33 3 40 1 40 -14 0 -10 10 -26 23 -34 21 -16 21 -16 -24 -16 -25 -1 -50 4 -57
11 -9 9 -15 9 -23 1 -8 -8 -16 -9 -29 -1 -10 6 -26 8 -36 3 -11 -4 -40 -8 -67
-9 -26 -1 -52 -7 -57 -12 -15 -15 17 -74 40 -74 12 0 20 -8 22 -22 2 -17 9
-22 24 -21 14 2 24 -4 27 -17 3 -13 14 -20 30 -20 14 0 28 -4 31 -9 4 -5 -35
-9 -89 -9 -52 0 -95 2 -95 4 0 2 5 13 12 24 16 25 3 38 -22 22 -12 -7 -21 -8
-25 -2 -8 13 -45 13 -45 0 0 -14 -44 -12 -58 2 -10 10 -15 10 -22 -2 -5 -8
-12 -11 -16 -8 -3 4 12 26 35 50 45 47 49 59 26 78 -12 10 -13 16 -4 26 15 18
27 17 63 -1 29 -15 30 -15 68 22 45 44 53 65 38 94 -9 15 -9 24 -1 32 6 6 11
16 11 22 0 17 -69 12 -80 -4 -7 -12 -16 -10 -51 7 -31 16 -46 18 -56 11 -7 -6
-20 -8 -30 -5 -9 4 -20 1 -25 -6 -8 -10 -11 -10 -15 0 -2 6 -13 12 -24 12 -28
0 -24 34 6 54 17 11 25 26 25 46 0 26 4 30 28 30 18 0 38 -11 57 -30z m45 21
c0 -6 -4 -13 -10 -16 -5 -3 -10 1 -10 9 0 9 5 16 10 16 6 0 10 -4 10 -9z
m1225 -21 c16 -17 39 -30 52 -30 19 0 24 -5 21 -22 -3 -22 1 -23 77 -28 61 -4
80 -8 80 -20 0 -11 -12 -14 -50 -12 -27 2 -58 5 -67 8 -10 3 -18 1 -18 -5 0
-14 -57 -14 -65 -1 -7 11 -83 9 -102 -3 -6 -4 -15 -3 -18 3 -4 6 -15 8 -26 5
-29 -10 -24 22 11 62 17 18 30 43 30 53 0 31 42 25 75 -10z m-1125 10 c0 -5
-4 -10 -10 -10 -5 0 -10 5 -10 10 0 6 5 10 10 10 6 0 10 -4 10 -10z m280 0 c0
-5 -4 -10 -10 -10 -5 0 -10 5 -10 10 0 6 5 10 10 10 6 0 10 -4 10 -10z m400 0
c0 -5 -4 -10 -10 -10 -5 0 -10 5 -10 10 0 6 5 10 10 10 6 0 10 -4 10 -10z m40
0 c0 -5 -4 -10 -10 -10 -5 0 -10 5 -10 10 0 6 5 10 10 10 6 0 10 -4 10 -10z
m140 0 c0 -5 -4 -10 -10 -10 -5 0 -10 5 -10 10 0 6 5 10 10 10 6 0 10 -4 10
-10z m320 0 c0 -5 -4 -10 -10 -10 -5 0 -10 5 -10 10 0 6 5 10 10 10 6 0 10 -4
10 -10z m90 0 c0 -5 -4 -10 -10 -10 -5 0 -10 5 -10 10 0 6 5 10 10 10 6 0 10
-4 10 -10z m50 0 c0 -5 -4 -10 -10 -10 -5 0 -10 5 -10 10 0 6 5 10 10 10 6 0
10 -4 10 -10z m-2300 -40 c0 -5 -4 -10 -10 -10 -5 0 -10 5 -10 10 0 6 5 10 10
10 6 0 10 -4 10 -10z m50 0 c0 -5 -4 -10 -10 -10 -5 0 -10 5 -10 10 0 6 5 10
10 10 6 0 10 -4 10 -10z m310 0 c0 -5 -4 -10 -10 -10 -5 0 -10 5 -10 10 0 6 5
10 10 10 6 0 10 -4 10 -10z m640 0 c0 -5 -4 -10 -10 -10 -5 0 -10 5 -10 10 0
6 5 10 10 10 6 0 10 -4 10 -10z m280 0 c0 -5 -4 -10 -10 -10 -5 0 -10 5 -10
10 0 6 5 10 10 10 6 0 10 -4 10 -10z m500 0 c0 -5 -4 -10 -10 -10 -5 0 -10 5
-10 10 0 6 5 10 10 10 6 0 10 -4 10 -10z m500 0 c0 -5 -4 -10 -10 -10 -5 0
-10 5 -10 10 0 6 5 10 10 10 6 0 10 -4 10 -10z m-2304 -54 c-4 -15 0 -28 9
-36 24 -20 17 -37 -15 -37 -22 0 -30 5 -30 18 0 10 5 21 10 24 6 3 10 17 10
31 0 13 5 24 11 24 7 0 9 -9 5 -24z m560 4 c15 0 24 -6 24 -16 0 -13 -3 -14
-13 -5 -8 6 -16 8 -19 5 -3 -3 -20 -7 -37 -9 -21 -3 -31 0 -31 10 0 16 19 25
38 19 8 -2 25 -4 38 -4z m84 0 c0 -5 -4 -10 -10 -10 -5 0 -10 5 -10 10 0 6 5
10 10 10 6 0 10 -4 10 -10z m523 -2 c3 -10 7 -10 20 0 17 15 37 9 37 -11 0 -8
-18 -12 -50 -12 -52 0 -58 3 -38 23 15 15 25 15 31 0z m673 2 c15 0 24 -6 24
-16 0 -11 -6 -14 -20 -9 -12 4 -20 2 -20 -6 0 -9 -3 -9 -14 0 -7 6 -21 9 -30
5 -9 -3 -16 -2 -16 3 0 16 24 34 38 28 8 -3 25 -5 38 -5z m581 -27 c-9 -9 -17
-11 -21 -5 -3 6 2 18 11 28 12 12 18 13 21 4 2 -6 -2 -19 -11 -27z m-1769 -25
c19 -19 14 -25 -18 -25 -16 0 -30 6 -30 12 0 26 28 33 48 13z m640 0 c19 -19
14 -28 -18 -28 -18 0 -30 5 -30 13 0 28 27 36 48 15z m632 8 c0 -2 2 -11 5
-19 5 -10 -1 -13 -25 -9 -25 3 -28 7 -19 18 10 13 39 20 39 10z m-1466 -16
c11 0 16 -5 13 -13 -3 -7 10 -30 29 -51 25 -28 40 -37 55 -33 29 8 49 -2 49
-24 0 -12 7 -19 20 -19 11 0 20 -5 20 -11 0 -13 -125 -6 -164 10 -16 6 -35 19
-42 29 -11 14 -13 15 -14 2 0 -9 5 -21 10 -26 7 -7 -2 -10 -28 -8 -24 1 -47
-5 -61 -16 -23 -16 -23 -18 -6 -49 14 -28 20 -32 41 -27 20 5 25 3 24 -11 -4
-35 0 -42 28 -40 21 2 26 -2 24 -15 -2 -14 4 -18 28 -18 16 0 30 -4 30 -9 0
-6 -25 -9 -55 -8 -30 1 -55 5 -55 8 0 4 -15 6 -32 5 -28 -1 -33 2 -31 21 2 19
-2 21 -45 21 -26 0 -53 -5 -60 -11 -9 -7 -21 -6 -39 2 -20 9 -28 9 -33 0 -5
-7 -10 -8 -14 -1 -3 5 12 28 34 51 40 41 49 64 30 76 -5 3 -10 13 -10 21 0 19
40 18 68 -2 22 -15 25 -14 68 31 43 46 55 77 34 90 -5 3 -10 13 -10 22 0 12 7
14 38 9 20 -3 45 -6 56 -6z m1264 -2 c14 0 22 -6 22 -17 0 -21 63 -83 81 -81
34 5 59 -1 59 -15 0 -7 8 -18 17 -24 39 -21 -2 -28 -92 -16 -49 7 -61 7 -103
3 -18 -3 -35 -1 -38 4 -8 13 -64 -21 -64 -40 1 -27 35 -66 53 -59 11 4 17 -1
19 -16 2 -16 9 -21 25 -20 14 2 24 -4 28 -17 4 -14 15 -20 36 -20 16 0 29 -4
29 -10 0 -6 -39 -9 -99 -7 -90 2 -98 4 -85 18 8 8 14 21 14 27 0 15 -36 16
-45 2 -5 -8 -11 -7 -21 1 -12 9 -20 9 -40 -2 -21 -11 -29 -11 -46 0 -17 11
-22 10 -29 0 -4 -8 -11 -10 -15 -7 -3 4 12 28 35 54 43 49 47 59 31 69 -5 3
-10 13 -10 21 0 16 55 20 65 4 10 -16 22 -12 52 18 59 56 66 69 53 92 -17 31
-5 54 23 45 12 -4 32 -7 45 -7z m-1558 -8 c0 -5 -4 -10 -10 -10 -5 0 -10 5
-10 10 0 6 5 10 10 10 6 0 10 -4 10 -10z m60 0 c0 -5 -4 -10 -9 -10 -6 0 -13
5 -16 10 -3 6 1 10 9 10 9 0 16 -4 16 -10z m300 0 c0 -5 -4 -10 -10 -10 -5 0
-10 5 -10 10 0 6 5 10 10 10 6 0 10 -4 10 -10z m40 0 c0 -5 -4 -10 -10 -10 -5
0 -10 5 -10 10 0 6 5 10 10 10 6 0 10 -4 10 -10z m200 0 c0 -5 -4 -10 -10 -10
-5 0 -10 5 -10 10 0 6 5 10 10 10 6 0 10 -4 10 -10z m40 0 c0 -5 -4 -10 -10
-10 -5 0 -10 5 -10 10 0 6 5 10 10 10 6 0 10 -4 10 -10z m400 0 c0 -5 -4 -10
-10 -10 -5 0 -10 5 -10 10 0 6 5 10 10 10 6 0 10 -4 10 -10z m140 0 c0 -5 -4
-10 -10 -10 -5 0 -10 5 -10 10 0 6 5 10 10 10 6 0 10 -4 10 -10z m100 0 c0 -5
-4 -10 -10 -10 -5 0 -10 5 -10 10 0 6 5 10 10 10 6 0 10 -4 10 -10z m680 0 c0
-5 -4 -10 -10 -10 -5 0 -10 5 -10 10 0 6 5 10 10 10 6 0 10 -4 10 -10z m260
-14 c0 -25 51 -73 83 -78 16 -2 22 -10 22 -28 l0 -25 -111 -1 c-61 -1 -116 -4
-123 -8 -27 -17 1 -76 37 -76 14 0 22 -7 24 -22 2 -17 9 -22 26 -21 16 2 22
-2 22 -17 0 -16 7 -20 36 -20 24 0 34 -4 31 -12 -2 -7 -15 -12 -28 -11 -13 2
-56 4 -96 5 -66 2 -71 4 -58 18 29 32 7 57 -24 28 -11 -10 -14 -10 -18 0 -6
17 -41 15 -59 -3 -11 -11 -20 -12 -34 -5 -10 5 -26 7 -34 4 -27 -11 -17 10 24
51 43 42 49 59 25 69 -8 3 -15 12 -15 20 0 20 52 27 71 10 24 -21 34 -18 73
28 35 41 46 81 26 93 -22 13 3 25 50 24 44 -1 50 -4 50 -23z m100 14 c0 -5 -4
-10 -10 -10 -5 0 -10 5 -10 10 0 6 5 10 10 10 6 0 10 -4 10 -10z m-2480 -40
c0 -5 -4 -10 -10 -10 -5 0 -10 5 -10 10 0 6 5 10 10 10 6 0 10 -4 10 -10z m40
0 c0 -5 -4 -10 -10 -10 -5 0 -10 5 -10 10 0 6 5 10 10 10 6 0 10 -4 10 -10z
m100 0 c0 -5 -4 -10 -10 -10 -5 0 -10 5 -10 10 0 6 5 10 10 10 6 0 10 -4 10
-10z m190 0 c0 -5 -4 -10 -9 -10 -6 0 -13 5 -16 10 -3 6 1 10 9 10 9 0 16 -4
16 -10z m210 0 c0 -5 -4 -10 -10 -10 -5 0 -10 5 -10 10 0 6 5 10 10 10 6 0 10
-4 10 -10z m240 0 c0 -5 -4 -10 -10 -10 -5 0 -10 5 -10 10 0 6 5 10 10 10 6 0
10 -4 10 -10z m40 0 c0 -5 -4 -10 -10 -10 -5 0 -10 5 -10 10 0 6 5 10 10 10 6
0 10 -4 10 -10z m100 0 c0 -5 -4 -10 -10 -10 -5 0 -10 5 -10 10 0 6 5 10 10
10 6 0 10 -4 10 -10z m50 0 c0 -5 -4 -10 -10 -10 -5 0 -10 5 -10 10 0 6 5 10
10 10 6 0 10 -4 10 -10z m310 0 c0 -5 -9 -10 -20 -10 -11 0 -20 5 -20 10 0 6
9 10 20 10 11 0 20 -4 20 -10z m40 0 c0 -5 -4 -10 -10 -10 -5 0 -10 5 -10 10
0 6 5 10 10 10 6 0 10 -4 10 -10z m100 1 c0 -6 -4 -13 -10 -16 -5 -3 -10 1
-10 9 0 9 5 16 10 16 6 0 10 -4 10 -9z m40 -1 c0 -5 -4 -10 -10 -10 -5 0 -10
5 -10 10 0 6 5 10 10 10 6 0 10 -4 10 -10z m140 0 c0 -5 -4 -10 -10 -10 -5 0
-10 5 -10 10 0 6 5 10 10 10 6 0 10 -4 10 -10z m220 0 c0 -5 -4 -10 -10 -10
-5 0 -10 5 -10 10 0 6 5 10 10 10 6 0 10 -4 10 -10z m640 0 c0 -5 -4 -10 -10
-10 -5 0 -10 5 -10 10 0 6 5 10 10 10 6 0 10 -4 10 -10z m-2480 -40 c0 -5 -7
-10 -16 -10 -8 0 -12 5 -9 10 3 6 10 10 16 10 5 0 9 -4 9 -10z m180 -6 c0 -8
-5 -12 -10 -9 -6 4 -8 11 -5 16 9 14 15 11 15 -7z m600 -4 c0 -5 -4 -10 -10
-10 -5 0 -10 5 -10 10 0 6 5 10 10 10 6 0 10 -4 10 -10z m1360 -10 c0 -5 -4
-10 -10 -10 -5 0 -10 5 -10 10 0 6 5 10 10 10 6 0 10 -4 10 -10z m-2120 -34
c0 -17 -27 -29 -35 -16 -4 6 -3 15 0 20 9 15 35 12 35 -4z m1320 -6 c0 -5 -4
-10 -10 -10 -5 0 -10 5 -10 10 0 6 5 10 10 10 6 0 10 -4 10 -10z m740 0 c0 -5
-4 -10 -10 -10 -5 0 -10 5 -10 10 0 6 5 10 10 10 6 0 10 -4 10 -10z m-2082
-41 c-2 -6 -8 -10 -13 -10 -5 0 -11 4 -13 10 -2 6 4 11 13 11 9 0 15 -5 13
-11z m42 1 c0 -5 -4 -10 -10 -10 -5 0 -10 5 -10 10 0 6 5 10 10 10 6 0 10 -4
10 -10z m40 0 c0 -5 -4 -10 -10 -10 -5 0 -10 5 -10 10 0 6 5 10 10 10 6 0 10
-4 10 -10z m100 0 c0 -5 -4 -10 -10 -10 -5 0 -10 5 -10 10 0 6 5 10 10 10 6 0
10 -4 10 -10z m360 0 c0 -5 -4 -10 -10 -10 -5 0 -10 5 -10 10 0 6 5 10 10 10
6 0 10 -4 10 -10z m920 -10 c0 -5 -4 -10 -10 -10 -5 0 -10 5 -10 10 0 6 5 10
10 10 6 0 10 -4 10 -10z m-1420 -85 c0 -8 -4 -15 -10 -15 -5 0 -10 7 -10 15 0
8 5 15 10 15 6 0 10 -7 10 -15z m1160 0 c0 -8 -4 -15 -10 -15 -5 0 -10 7 -10
15 0 8 5 15 10 15 6 0 10 -7 10 -15z m-520 -5 c0 -5 -4 -10 -10 -10 -5 0 -10
5 -10 10 0 6 5 10 10 10 6 0 10 -4 10 -10z m680 0 c0 -5 -4 -10 -10 -10 -5 0
-10 5 -10 10 0 6 5 10 10 10 6 0 10 -4 10 -10z m640 0 c0 -5 -4 -10 -10 -10
-5 0 -10 5 -10 10 0 6 5 10 10 10 6 0 10 -4 10 -10z m-1980 -40 c0 -5 -4 -10
-10 -10 -5 0 -10 5 -10 10 0 6 5 10 10 10 6 0 10 -4 10 -10z m40 0 c0 -5 -4
-10 -10 -10 -5 0 -10 5 -10 10 0 6 5 10 10 10 6 0 10 -4 10 -10z m100 0 c0 -5
-4 -10 -10 -10 -5 0 -10 5 -10 10 0 6 5 10 10 10 6 0 10 -4 10 -10z m440 0 c0
-5 -7 -10 -15 -10 -8 0 -15 5 -15 10 0 6 7 10 15 10 8 0 15 -4 15 -10z m640 0
c0 -5 -7 -10 -15 -10 -8 0 -15 5 -15 10 0 6 7 10 15 10 8 0 15 -4 15 -10z
m100 0 c0 -5 -4 -10 -10 -10 -5 0 -10 5 -10 10 0 6 5 10 10 10 6 0 10 -4 10
-10z m240 0 c0 -5 -4 -10 -10 -10 -5 0 -10 5 -10 10 0 6 5 10 10 10 6 0 10 -4
10 -10z m298 -1 c-2 -6 -8 -10 -13 -10 -5 0 -11 4 -13 10 -2 6 4 11 13 11 9 0
15 -5 13 -11z m-1838 -44 c0 -9 7 -18 15 -22 9 -3 25 -22 35 -43 l19 -38 -34
1 c-35 1 -46 11 -22 20 7 4 3 8 -10 12 -19 6 -23 15 -23 46 0 22 5 39 10 39 6
0 10 -7 10 -15z m100 -5 c0 -5 -4 -10 -10 -10 -5 0 -10 5 -10 10 0 6 5 10 10
10 6 0 10 -4 10 -10z m36 -17 c-10 -10 -19 5 -10 18 6 11 8 11 12 0 2 -7 1
-15 -2 -18z m144 17 c0 -5 -4 -10 -10 -10 -5 0 -10 5 -10 10 0 6 5 10 10 10 6
0 10 -4 10 -10z m100 0 c0 -5 -4 -10 -10 -10 -5 0 -10 5 -10 10 0 6 5 10 10
10 6 0 10 -4 10 -10z m260 -7 c0 -7 11 -18 25 -25 13 -6 28 -23 34 -38 9 -27
8 -28 -25 -27 -28 1 -33 4 -28 19 3 12 0 18 -10 18 -9 0 -16 5 -16 10 0 16
-47 12 -54 -5 -3 -8 -14 -15 -25 -15 -10 0 -21 -7 -25 -15 -5 -15 -56 -22 -56
-7 0 4 11 20 25 36 14 16 25 36 25 45 0 13 12 16 65 17 48 0 65 -3 65 -13z
m661 -24 c29 -30 45 -66 34 -77 -3 -4 -10 0 -14 7 -5 7 -14 10 -20 7 -6 -4
-11 -1 -11 6 0 7 -14 21 -31 31 -30 16 -33 16 -50 1 -10 -9 -26 -14 -35 -10
-11 4 -18 0 -21 -14 -4 -14 -14 -20 -34 -20 -35 0 -38 16 -4 32 14 6 27 23 30
39 7 31 28 39 89 31 26 -3 50 -15 67 -33z m634 7 c17 -12 31 -21 31 -21 1 0 5
-14 8 -31 7 -29 6 -30 -23 -26 -16 2 -31 11 -34 21 -2 9 -16 22 -30 30 -24 13
-29 12 -45 -2 -10 -10 -26 -17 -35 -17 -9 0 -17 -7 -17 -15 0 -10 -10 -15 -30
-15 -16 0 -30 2 -30 4 0 3 13 18 30 34 18 18 28 37 24 46 -12 32 101 26 151
-8z m525 5 c12 -23 5 -47 -16 -55 -8 -3 -14 -11 -14 -19 0 -9 -9 -12 -31 -9
l-31 4 31 32 c17 18 31 40 31 49 0 23 17 22 30 -2z m-2200 -31 c0 -5 -4 -10
-10 -10 -5 0 -10 5 -10 10 0 6 5 10 10 10 6 0 10 -4 10 -10z m140 0 c0 -5 -4
-10 -10 -10 -5 0 -10 5 -10 10 0 6 5 10 10 10 6 0 10 -4 10 -10z m360 0 c0 -5
-4 -10 -10 -10 -5 0 -10 5 -10 10 0 6 5 10 10 10 6 0 10 -4 10 -10z m40 -13
c0 -34 52 -81 80 -72 21 7 22 5 16 -19 -7 -29 -11 -28 87 -26 53 1 68 -2 73
-15 9 -22 -2 -30 -21 -15 -8 7 -15 8 -15 3 0 -13 -129 -14 -173 -1 -24 7 -41
8 -45 2 -4 -5 -33 -9 -64 -10 -68 -1 -75 13 -28 54 17 15 30 36 30 50 0 15 7
26 20 29 11 3 20 14 20 24 0 11 5 19 10 19 6 0 10 -10 10 -23z m60 13 c0 -5
-4 -10 -10 -10 -5 0 -10 5 -10 10 0 6 5 10 10 10 6 0 10 -4 10 -10z m40 1 c0
-6 -4 -13 -10 -16 -5 -3 -10 1 -10 9 0 9 5 16 10 16 6 0 10 -4 10 -9z m100 -1
c0 -5 -4 -10 -10 -10 -5 0 -10 5 -10 10 0 6 5 10 10 10 6 0 10 -4 10 -10z m40
0 c0 -5 -4 -10 -10 -10 -5 0 -10 5 -10 10 0 6 5 10 10 10 6 0 10 -4 10 -10z
m50 0 c0 -5 -4 -10 -10 -10 -5 0 -10 5 -10 10 0 6 5 10 10 10 6 0 10 -4 10
-10z m300 0 c0 -5 -4 -10 -10 -10 -5 0 -10 5 -10 10 0 6 5 10 10 10 6 0 10 -4
10 -10z m100 0 c0 -5 -7 -10 -15 -10 -8 0 -15 5 -15 10 0 6 7 10 15 10 8 0 15
-4 15 -10z m90 0 c0 -5 -4 -10 -10 -10 -5 0 -10 5 -10 10 0 6 5 10 10 10 6 0
10 -4 10 -10z m100 0 c0 -5 -4 -10 -10 -10 -5 0 -10 5 -10 10 0 6 5 10 10 10
6 0 10 -4 10 -10z m540 0 c0 -5 -4 -10 -10 -10 -5 0 -10 5 -10 10 0 6 5 10 10
10 6 0 10 -4 10 -10z m-2032 -58 c19 -20 39 -31 48 -28 9 3 14 -1 14 -13 0
-30 21 -38 93 -36 52 2 70 -1 74 -12 8 -20 -6 -30 -18 -13 -8 13 -10 13 -19 0
-9 -13 -11 -13 -19 -1 -7 10 -13 12 -23 5 -18 -14 -118 -17 -134 -3 -9 7 -18
6 -34 -3 -17 -11 -22 -11 -30 2 -9 13 -11 13 -20 0 -8 -12 -12 -13 -19 -1 -7
10 -13 11 -30 2 -34 -19 -27 25 10 60 20 19 29 35 25 45 -16 43 39 40 82 -4z
m1321 -27 c11 -3 21 -16 23 -28 3 -19 9 -22 52 -22 31 0 51 -5 53 -12 4 -12
-17 -18 -57 -15 -8 0 -22 -4 -32 -9 -13 -7 -28 -6 -50 5 -17 9 -36 12 -42 9
-6 -4 -39 -8 -73 -8 -53 0 -63 3 -63 17 0 10 16 28 35 40 35 23 44 41 25 53
-18 11 -10 24 18 27 18 2 37 -5 59 -23 17 -15 41 -30 52 -34z m639 -5 c14 0
22 -7 24 -22 3 -21 9 -23 69 -24 36 0 71 -4 77 -8 26 -16 9 -23 -51 -23 -35 1
-68 -2 -73 -6 -6 -3 -26 -2 -44 3 -18 5 -68 7 -111 4 -72 -6 -79 -4 -79 13 0
10 14 31 30 47 19 17 30 36 28 49 -2 15 4 23 22 27 20 5 31 -1 56 -27 17 -18
40 -33 52 -33z m-1868 50 c0 -5 -4 -10 -10 -10 -5 0 -10 5 -10 10 0 6 5 10 10
10 6 0 10 -4 10 -10z m100 0 c0 -5 -4 -10 -10 -10 -5 0 -10 5 -10 10 0 6 5 10
10 10 6 0 10 -4 10 -10z m40 0 c0 -5 -4 -10 -10 -10 -5 0 -10 5 -10 10 0 6 5
10 10 10 6 0 10 -4 10 -10z m460 0 c0 -5 -4 -10 -10 -10 -5 0 -10 5 -10 10 0
6 5 10 10 10 6 0 10 -4 10 -10z m40 -6 c0 -8 -4 -12 -10 -9 -5 3 -10 10 -10
16 0 5 5 9 10 9 6 0 10 -7 10 -16z m95 7 c3 -5 1 -12 -5 -16 -5 -3 -10 1 -10
9 0 18 6 21 15 7z m185 -6 c0 -8 -4 -15 -10 -15 -5 0 -10 7 -10 15 0 8 5 15
10 15 6 0 10 -7 10 -15z m400 -1 c0 -8 -5 -12 -10 -9 -6 4 -8 11 -5 16 9 14
15 11 15 -7z m600 1 c0 -8 -4 -15 -10 -15 -5 0 -10 7 -10 15 0 8 5 15 10 15 6
0 10 -7 10 -15z m95 5 c3 -5 -1 -10 -9 -10 -9 0 -16 5 -16 10 0 6 4 10 9 10 6
0 13 -4 16 -10z m45 -5 c0 -8 -4 -15 -10 -15 -5 0 -10 7 -10 15 0 8 5 15 10
15 6 0 10 -7 10 -15z m-1400 -41 c0 -8 -5 -12 -10 -9 -6 4 -8 11 -5 16 9 14
15 11 15 -7z m-540 -4 c0 -5 -4 -10 -10 -10 -5 0 -10 5 -10 10 0 6 5 10 10 10
6 0 10 -4 10 -10z m140 -5 c0 -8 -2 -15 -4 -15 -2 0 -6 7 -10 15 -3 8 -1 15 4
15 6 0 10 -7 10 -15z m100 6 c0 -6 -4 -13 -10 -16 -5 -3 -10 1 -10 9 0 9 5 16
10 16 6 0 10 -4 10 -9z m40 -1 c0 -5 -4 -10 -10 -10 -5 0 -10 5 -10 10 0 6 5
10 10 10 6 0 10 -4 10 -10z m400 -6 c0 -8 -5 -12 -10 -9 -6 4 -8 11 -5 16 9
14 15 11 15 -7z m140 0 c0 -8 -5 -12 -10 -9 -6 4 -8 11 -5 16 9 14 15 11 15
-7z m1240 -5 c0 -5 -4 -9 -10 -9 -5 0 -10 7 -10 16 0 8 5 12 10 9 6 -3 10 -10
10 -16z m-1914 -36 c20 -27 18 -29 -36 -29 -41 0 -50 3 -47 16 2 10 12 14 30
13 15 -1 27 2 27 8 0 14 12 11 26 -8z m642 -6 c24 -16 11 -24 -38 -23 -27 1
-50 3 -50 7 0 23 59 34 88 16z m502 -2 c7 -9 11 -18 8 -20 -9 -10 -38 7 -38
21 0 18 14 18 30 -1z m138 2 c24 -16 11 -23 -50 -25 -61 -3 -61 -2 -44 17 18
20 67 24 94 8z m630 -6 c-2 -11 -16 -16 -41 -18 -20 0 -37 0 -37 2 0 20 16 31
46 31 26 0 34 -4 32 -15z m-2438 -12 c0 -5 -4 -9 -10 -9 -5 0 -10 7 -10 16 0
8 5 12 10 9 6 -3 10 -10 10 -16z m619 -53 c-2 -2 -19 -1 -37 1 -32 5 -32 6
-15 23 17 17 19 17 37 -1 11 -10 18 -20 15 -23z m1271 11 c0 -7 -13 -12 -30
-12 -34 0 -34 -1 -18 24 9 15 16 17 30 10 10 -5 18 -15 18 -22z m-642 6 c2 -8
-6 -13 -22 -13 -14 0 -26 -4 -26 -10 0 -5 -4 -10 -10 -10 -17 0 -11 28 8 39
21 13 44 10 50 -6z m-1273 -2 c3 -5 1 -12 -5 -16 -5 -3 -10 1 -10 9 0 18 6 21
15 7z m145 -6 c0 -8 -4 -15 -10 -15 -5 0 -10 7 -10 15 0 8 5 15 10 15 6 0 10
-7 10 -15z m258 3 c8 -8 15 -8 27 2 13 11 15 9 15 -14 0 -15 12 -39 28 -56 24
-25 34 -28 70 -25 35 3 42 1 42 -15 0 -10 7 -20 15 -24 8 -3 15 -13 15 -22 0
-14 -6 -15 -37 -9 -21 4 -51 8 -68 9 -16 1 -34 4 -40 6 -9 5 -46 5 -121 1 -11
-1 -29 -7 -39 -15 -18 -13 -18 -14 4 -50 21 -33 51 -49 51 -26 0 6 4 10 9 10
6 0 9 -12 8 -27 -2 -21 3 -28 16 -28 10 0 25 -9 33 -20 8 -11 24 -20 36 -20
12 0 23 -5 25 -12 6 -17 -33 -26 -57 -13 -11 6 -25 8 -31 5 -5 -4 -16 -2 -24
5 -9 7 -15 8 -20 0 -4 -6 -12 -7 -24 0 -12 6 -22 5 -29 -2 -7 -7 -15 -8 -19
-5 -4 4 3 14 15 23 12 8 22 22 22 30 0 16 -35 19 -45 4 -4 -6 -13 -5 -25 2
-15 10 -23 9 -39 -6 -16 -15 -23 -16 -42 -5 -17 9 -24 9 -27 0 -2 -6 -8 -11
-13 -11 -19 0 -7 28 30 70 37 42 39 47 25 67 -8 12 -14 27 -14 33 0 16 46 12
60 -5 7 -8 19 -15 27 -15 21 0 105 93 99 110 -19 60 -19 60 6 60 13 0 29 -5
36 -12z m97 3 c3 -5 1 -12 -5 -16 -5 -3 -10 1 -10 9 0 18 6 21 15 7z m540 -1
c4 -6 15 -8 26 -5 15 5 19 1 19 -17 0 -27 64 -96 74 -80 12 20 57 6 72 -23 20
-38 18 -48 -8 -39 -12 4 -40 8 -63 9 -22 1 -48 6 -58 10 -9 4 -23 3 -30 -3 -6
-5 -33 -8 -58 -5 -60 4 -81 -15 -58 -55 10 -18 23 -27 39 -27 21 0 25 -5 22
-28 -3 -23 0 -27 21 -27 17 0 26 -7 30 -21 4 -14 12 -20 28 -17 12 2 24 -2 26
-8 2 -8 -28 -11 -97 -11 -55 0 -100 3 -100 7 0 4 12 12 27 19 24 11 25 13 10
28 -14 14 -18 14 -33 2 -13 -11 -18 -11 -21 -1 -5 14 -39 16 -48 3 -3 -5 -25
-9 -49 -8 -49 2 -49 -1 6 65 23 27 26 36 17 53 -21 39 13 67 41 34 20 -25 42
-17 82 28 35 38 38 46 33 85 -6 40 -5 42 19 42 14 0 28 -5 31 -10z m645 -2
c24 -8 40 -19 40 -29 0 -20 53 -71 71 -69 32 5 70 -1 65 -9 -3 -5 1 -14 9 -21
26 -22 18 -40 -19 -40 -19 0 -38 5 -42 11 -3 6 -17 9 -30 6 -14 -2 -27 0 -30
5 -3 5 -15 6 -27 2 -12 -4 -42 -7 -67 -6 -25 0 -53 -5 -63 -12 -17 -13 -17
-15 -1 -50 18 -37 28 -44 39 -26 3 6 13 10 20 10 11 0 13 -8 8 -32 -5 -28 -4
-31 15 -26 14 4 27 -2 41 -18 12 -13 28 -24 36 -24 8 0 15 -5 15 -10 0 -16
-29 -24 -43 -12 -7 6 -36 9 -64 8 -31 -2 -54 2 -57 8 -3 7 -8 6 -15 -4 -5 -8
-13 -11 -17 -7 -4 3 4 15 17 26 19 15 21 22 12 32 -10 10 -15 10 -27 0 -10 -9
-20 -9 -34 -2 -26 14 -65 -13 -57 -40 4 -11 2 -19 -4 -19 -6 0 -11 8 -11 19 0
24 -23 43 -44 35 -27 -11 -18 16 19 53 38 38 43 54 21 73 -8 6 -13 17 -10 24
6 17 36 14 68 -7 26 -17 26 -17 71 30 44 48 55 79 34 100 -12 12 -4 33 12 33
5 0 27 -6 49 -12z m658 0 c16 0 22 -6 22 -23 0 -32 54 -85 79 -78 13 3 21 -2
26 -16 10 -32 -2 -41 -48 -35 -23 2 -46 4 -52 4 -70 -2 -114 -8 -133 -19 -22
-12 -22 -13 -5 -41 10 -18 26 -30 38 -30 16 0 21 -6 21 -22 -1 -18 5 -24 27
-26 19 -2 27 -9 27 -23 0 -15 7 -19 31 -19 20 0 29 -4 26 -12 -2 -7 -15 -12
-28 -10 -13 1 -57 3 -96 3 -40 0 -73 3 -73 5 0 3 7 12 15 20 8 9 15 19 15 23
0 12 -82 11 -107 -1 -17 -8 -26 -8 -39 3 -13 11 -18 11 -21 2 -7 -19 -23 -16
-23 5 0 9 16 31 35 47 34 30 44 58 25 70 -17 11 -11 33 11 40 13 4 27 1 38 -9
26 -24 42 -19 80 25 25 29 33 48 33 76 0 48 5 56 32 48 11 -4 31 -7 44 -7z
m-1558 -8 c0 -5 -4 -10 -10 -10 -5 0 -10 5 -10 10 0 6 5 10 10 10 6 0 10 -4
10 -10z m400 1 c0 -6 -4 -13 -10 -16 -5 -3 -10 1 -10 9 0 9 5 16 10 16 6 0 10
-4 10 -9z m920 -1 c0 -5 -4 -10 -10 -10 -5 0 -10 5 -10 10 0 6 5 10 10 10 6 0
10 -4 10 -10z m343 -31 c-12 -24 -18 -29 -21 -17 -3 15 27 62 35 54 2 -1 -5
-18 -14 -37z m-1743 -19 c0 -5 -4 -10 -10 -10 -5 0 -10 5 -10 10 0 6 5 10 10
10 6 0 10 -4 10 -10z m250 0 c0 -5 -4 -10 -10 -10 -5 0 -10 5 -10 10 0 6 5 10
10 10 6 0 10 -4 10 -10z m250 0 c0 -5 -4 -10 -10 -10 -5 0 -10 5 -10 10 0 6 5
10 10 10 6 0 10 -4 10 -10z m240 0 c0 -5 -4 -10 -10 -10 -5 0 -10 5 -10 10 0
6 5 10 10 10 6 0 10 -4 10 -10z m40 0 c0 -5 -4 -10 -10 -10 -5 0 -10 5 -10 10
0 6 5 10 10 10 6 0 10 -4 10 -10z m100 0 c0 -5 -4 -10 -10 -10 -5 0 -10 5 -10
10 0 6 5 10 10 10 6 0 10 -4 10 -10z m400 0 c0 -5 -4 -10 -10 -10 -5 0 -10 5
-10 10 0 6 5 10 10 10 6 0 10 -4 10 -10z m-1980 -40 c0 -5 -4 -10 -10 -10 -5
0 -10 5 -10 10 0 6 5 10 10 10 6 0 10 -4 10 -10z m40 0 c0 -5 -4 -10 -10 -10
-5 0 -10 5 -10 10 0 6 5 10 10 10 6 0 10 -4 10 -10z m240 0 c0 -5 -4 -10 -10
-10 -5 0 -10 5 -10 10 0 6 5 10 10 10 6 0 10 -4 10 -10z m440 -6 c0 -8 -4 -12
-10 -9 -5 3 -10 10 -10 16 0 5 5 9 10 9 6 0 10 -7 10 -16z m200 6 c0 -5 -4
-10 -10 -10 -5 0 -10 5 -10 10 0 6 5 10 10 10 6 0 10 -4 10 -10z m1040 0 c0
-5 -4 -10 -10 -10 -5 0 -10 5 -10 10 0 6 5 10 10 10 6 0 10 -4 10 -10z m-1840
-40 c0 -5 -4 -10 -10 -10 -5 0 -10 5 -10 10 0 6 5 10 10 10 6 0 10 -4 10 -10z
m-125 -49 c3 -5 1 -12 -5 -16 -5 -3 -10 1 -10 9 0 18 6 21 15 7z m145 -11 c0
-5 -4 -10 -10 -10 -5 0 -10 5 -10 10 0 6 5 10 10 10 6 0 10 -4 10 -10z m900 0
c0 -5 -4 -10 -10 -10 -5 0 -10 5 -10 10 0 6 5 10 10 10 6 0 10 -4 10 -10z
m-1070 -40 c0 -5 -4 -10 -10 -10 -5 0 -10 5 -10 10 0 6 5 10 10 10 6 0 10 -4
10 -10z m50 0 c0 -5 -4 -10 -10 -10 -5 0 -10 5 -10 10 0 6 5 10 10 10 6 0 10
-4 10 -10z m400 0 c0 -5 -4 -10 -10 -10 -5 0 -10 5 -10 10 0 6 5 10 10 10 6 0
10 -4 10 -10z m240 0 c0 -5 -4 -10 -10 -10 -5 0 -10 5 -10 10 0 6 5 10 10 10
6 0 10 -4 10 -10z m730 0 c0 -5 -4 -10 -10 -10 -5 0 -10 5 -10 10 0 6 5 10 10
10 6 0 10 -4 10 -10z m490 0 c0 -5 -4 -10 -10 -10 -5 0 -10 5 -10 10 0 6 5 10
10 10 6 0 10 -4 10 -10z m60 0 c0 -5 -4 -10 -10 -10 -5 0 -10 5 -10 10 0 6 5
10 10 10 6 0 10 -4 10 -10z m40 0 c0 -5 -4 -10 -10 -10 -5 0 -10 5 -10 10 0 6
5 10 10 10 6 0 10 -4 10 -10z m50 0 c0 -5 -4 -10 -10 -10 -5 0 -10 5 -10 10 0
6 5 10 10 10 6 0 10 -4 10 -10z m410 0 c0 -5 -4 -10 -10 -10 -5 0 -10 5 -10
10 0 6 5 10 10 10 6 0 10 -4 10 -10z m-2445 -60 c-5 -8 -11 -8 -17 -2 -6 6 -7
16 -3 22 5 8 11 8 17 2 6 -6 7 -16 3 -22z m45 4 c0 -8 -5 -12 -10 -9 -6 4 -8
11 -5 16 9 14 15 11 15 -7z m55 7 c3 -5 1 -12 -5 -16 -5 -3 -10 1 -10 9 0 18
6 21 15 7z m425 -1 c0 -5 -4 -10 -10 -10 -5 0 -10 5 -10 10 0 6 5 10 10 10 6
0 10 -4 10 -10z m1480 -6 c0 -8 -5 -12 -10 -9 -6 4 -8 11 -5 16 9 14 15 11 15
-7z m-1440 -45 c0 -5 -9 -9 -20 -9 -19 0 -26 11 -14 23 8 8 34 -3 34 -14z
m1276 -4 c-5 -18 -2 -25 9 -25 8 0 15 -4 15 -10 0 -5 13 -7 30 -3 23 4 30 2
30 -11 0 -9 7 -16 15 -16 13 0 45 -47 45 -68 0 -5 -13 -9 -30 -9 -22 0 -30 5
-30 18 0 10 -13 25 -30 34 -27 14 -32 14 -55 -1 -13 -8 -29 -13 -35 -9 -7 4
-14 -2 -17 -13 -4 -18 -51 -37 -62 -26 -3 2 10 20 29 38 22 23 31 40 26 52 -5
13 -2 15 14 11 25 -7 40 20 19 34 -12 8 -12 11 1 19 25 16 33 11 26 -15z
m-1816 5 c0 -5 -4 -10 -10 -10 -5 0 -10 5 -10 10 0 6 5 10 10 10 6 0 10 -4 10
-10z m100 0 c0 -5 -4 -10 -10 -10 -5 0 -10 5 -10 10 0 6 5 10 10 10 6 0 10 -4
10 -10z m40 0 c0 -5 -4 -10 -10 -10 -5 0 -10 5 -10 10 0 6 5 10 10 10 6 0 10
-4 10 -10z m500 0 c0 -5 -4 -10 -10 -10 -5 0 -10 5 -10 10 0 6 5 10 10 10 6 0
10 -4 10 -10z m140 0 c0 -5 -4 -10 -10 -10 -5 0 -10 5 -10 10 0 6 5 10 10 10
6 0 10 -4 10 -10z m400 0 c0 -5 -9 -10 -20 -10 -11 0 -20 5 -20 10 0 6 9 10
20 10 11 0 20 -4 20 -10z m240 0 c0 -5 -4 -10 -10 -10 -5 0 -10 5 -10 10 0 6
5 10 10 10 6 0 10 -4 10 -10z m500 0 c0 -5 -4 -10 -10 -10 -5 0 -10 5 -10 10
0 6 5 10 10 10 6 0 10 -4 10 -10z m40 0 c0 -5 -4 -10 -10 -10 -5 0 -10 5 -10
10 0 6 5 10 10 10 6 0 10 -4 10 -10z m50 0 c0 -5 -7 -10 -16 -10 -8 0 -12 5
-9 10 3 6 10 10 16 10 5 0 9 -4 9 -10z m-2030 -50 c6 -11 16 -20 23 -20 15 0
49 -65 40 -74 -3 -3 -13 0 -21 7 -12 9 -16 9 -19 0 -3 -7 -9 -13 -14 -13 -6 0
-9 6 -8 13 3 26 -2 36 -20 42 -25 7 -35 34 -20 51 16 19 26 17 39 -6z m280 11
c0 -6 -4 -13 -10 -16 -5 -3 -10 1 -10 9 0 9 5 16 10 16 6 0 10 -4 10 -9z m305
-1 c4 -7 13 -6 26 1 17 9 21 7 26 -10 3 -12 11 -21 19 -21 13 0 44 -48 44 -68
0 -5 -13 -9 -29 -9 -22 0 -27 4 -24 18 4 13 -5 23 -31 35 -32 16 -37 16 -53 2
-10 -8 -24 -13 -31 -11 -8 3 -16 -4 -19 -16 -4 -15 -13 -21 -35 -21 -26 0 -28
2 -18 21 6 11 18 23 26 26 8 3 14 16 14 30 0 19 4 23 19 18 11 -3 22 -1 26 5
8 13 32 13 40 0z m193 -1 c-2 -6 -8 -10 -13 -10 -5 0 -11 4 -13 10 -2 6 4 11
13 11 9 0 15 -5 13 -11z m92 -5 c0 -8 -5 -12 -10 -9 -6 4 -8 11 -5 16 9 14 15
11 15 -7z m346 5 c3 -6 15 -9 25 -6 10 3 24 -2 30 -9 7 -8 18 -13 24 -10 13 5
51 -71 40 -82 -3 -3 -10 0 -15 8 -7 11 -11 11 -24 1 -14 -12 -16 -11 -16 7 0
11 -12 28 -27 37 -24 16 -28 16 -54 1 -15 -9 -34 -16 -43 -16 -9 0 -16 -3 -16
-8 0 -12 -40 -33 -51 -26 -6 4 2 19 20 36 17 17 31 39 31 48 0 17 14 24 57 29
6 0 15 -4 19 -10z m144 -5 c0 -8 -5 -12 -10 -9 -6 4 -8 11 -5 16 9 14 15 11
15 -7z m335 7 c3 -5 1 -12 -5 -16 -5 -3 -10 1 -10 9 0 18 6 21 15 7z m265 -1
c0 -5 -4 -10 -10 -10 -5 0 -10 5 -10 10 0 6 5 10 10 10 6 0 10 -4 10 -10z m40
-5 c0 -8 -4 -15 -10 -15 -5 0 -10 7 -10 15 0 8 5 15 10 15 6 0 10 -7 10 -15z
m51 0 c-1 -15 -24 -12 -29 3 -3 9 2 13 12 10 10 -1 17 -7 17 -13z m149 6 c0
-6 -4 -13 -10 -16 -5 -3 -10 1 -10 9 0 9 5 16 10 16 6 0 10 -4 10 -9z m40 -12
c0 -11 -4 -17 -10 -14 -5 3 -10 13 -10 21 0 8 5 14 10 14 6 0 10 -9 10 -21z
m96 3 c-4 -6 -62 -7 -76 -1 -3 1 11 5 30 8 36 7 53 5 46 -7z m-736 -2 c0 -5
-4 -10 -10 -10 -5 0 -10 5 -10 10 0 6 5 10 10 10 6 0 10 -4 10 -10z m844 4
c20 -8 21 -48 1 -64 -8 -7 -15 -18 -15 -24 0 -7 -15 -12 -35 -12 -19 0 -35 2
-35 4 0 2 14 20 30 39 17 18 30 40 30 48 0 17 2 17 24 9z m-2284 -56 c1 -33
45 -80 73 -76 19 3 22 -1 19 -27 -2 -16 -5 -32 -7 -33 -2 -2 -29 10 -61 28
l-57 31 -22 -21 c-27 -26 -46 -9 -21 19 9 10 16 27 16 39 0 15 6 22 20 22 13
0 20 7 20 20 0 11 5 20 10 20 6 0 10 -10 10 -22z m140 12 c0 -5 -4 -10 -10
-10 -5 0 -10 5 -10 10 0 6 5 10 10 10 6 0 10 -4 10 -10z m1960 0 c0 -5 -4 -10
-10 -10 -5 0 -10 5 -10 10 0 6 5 10 10 10 6 0 10 -4 10 -10z m-2293 -56 c-9
-9 -28 6 -21 18 4 6 10 6 17 -1 6 -6 8 -13 4 -17z m349 -1 c-10 -10 -19 5 -10
18 6 11 8 11 12 0 2 -7 1 -15 -2 -18z m510 -8 c26 -22 48 -33 58 -29 12 5 16
0 16 -19 0 -19 5 -25 23 -25 75 0 118 -6 129 -19 10 -13 5 -14 -33 -13 -24 1
-46 1 -49 0 -3 -1 -29 -4 -58 -6 -39 -4 -57 -1 -69 11 -14 15 -17 14 -34 -1
-21 -19 -40 -11 -21 8 15 15 16 38 2 38 -5 0 -10 -9 -10 -19 0 -22 -21 -33
-67 -36 -44 -2 -44 26 -2 64 17 16 30 37 29 47 -4 30 -1 34 21 34 12 0 41 -16
65 -35z m629 5 c16 -17 39 -30 53 -30 20 0 23 -4 19 -21 -3 -12 0 -22 8 -25
23 -9 99 -11 116 -2 11 5 22 1 34 -12 19 -21 15 -37 -6 -24 -20 12 -62 12 -77
1 -10 -8 -16 -7 -22 4 -7 11 -12 11 -22 1 -15 -15 -60 -16 -75 -1 -7 7 -19 8
-30 4 -10 -4 -44 -8 -76 -9 -68 -1 -74 14 -27 66 17 18 28 39 25 46 -16 41 41
43 80 2z m245 15 c0 -8 -4 -15 -10 -15 -5 0 -10 7 -10 15 0 8 5 15 10 15 6 0
10 -7 10 -15z m399 -19 c22 -23 39 -32 52 -29 15 4 19 0 19 -21 0 -26 0 -26
70 -23 58 2 74 -1 87 -15 9 -10 14 -18 12 -19 -2 0 -38 -2 -80 -3 -41 -1 -80
-5 -85 -9 -6 -3 -23 1 -39 9 -16 8 -36 11 -44 7 -23 -10 -125 -11 -132 0 -11
16 2 45 27 62 14 9 24 25 24 39 0 48 43 49 89 2z m-1819 14 c0 -5 -4 -10 -10
-10 -5 0 -10 5 -10 10 0 6 5 10 10 10 6 0 10 -4 10 -10z m140 0 c0 -5 -4 -10
-10 -10 -5 0 -10 5 -10 10 0 6 5 10 10 10 6 0 10 -4 10 -10z m500 0 c0 -5 -4
-10 -10 -10 -5 0 -10 5 -10 10 0 6 5 10 10 10 6 0 10 -4 10 -10z m40 0 c0 -5
-4 -10 -10 -10 -5 0 -10 5 -10 10 0 6 5 10 10 10 6 0 10 -4 10 -10z m100 0 c0
-5 -4 -10 -10 -10 -5 0 -10 5 -10 10 0 6 5 10 10 10 6 0 10 -4 10 -10z m180 0
c0 -5 -4 -10 -10 -10 -5 0 -10 5 -10 10 0 6 5 10 10 10 6 0 10 -4 10 -10z
m360 0 c0 -5 -4 -10 -10 -10 -5 0 -10 5 -10 10 0 6 5 10 10 10 6 0 10 -4 10
-10z m640 0 c0 -5 -4 -10 -10 -10 -5 0 -10 5 -10 10 0 6 5 10 10 10 6 0 10 -4
10 -10z m45 0 c-3 -5 -10 -10 -16 -10 -5 0 -9 5 -9 10 0 6 7 10 16 10 8 0 12
-4 9 -10z m55 0 c0 -5 -4 -10 -10 -10 -5 0 -10 5 -10 10 0 6 5 10 10 10 6 0
10 -4 10 -10z m-2304 -57 c-10 -10 -19 5 -10 18 6 11 8 11 12 0 2 -7 1 -15 -2
-18z m264 6 c0 -6 -4 -7 -10 -4 -5 3 -10 11 -10 16 0 6 5 7 10 4 6 -3 10 -11
10 -16z m100 11 c0 -5 -4 -10 -10 -10 -5 0 -10 5 -10 10 0 6 5 10 10 10 6 0
10 -4 10 -10z m240 0 c0 -5 -4 -10 -10 -10 -5 0 -10 5 -10 10 0 6 5 10 10 10
6 0 10 -4 10 -10z m48 -1 c-2 -6 -8 -10 -13 -10 -5 0 -11 4 -13 10 -2 6 4 11
13 11 9 0 15 -5 13 -11z m252 1 c0 -5 -4 -10 -10 -10 -5 0 -10 5 -10 10 0 6 5
10 10 10 6 0 10 -4 10 -10z m640 -11 c0 -6 -4 -7 -10 -4 -5 3 -10 11 -10 16 0
6 5 7 10 4 6 -3 10 -11 10 -16z m380 0 c0 -6 -4 -7 -10 -4 -5 3 -10 11 -10 16
0 6 5 7 10 4 6 -3 10 -11 10 -16z m300 11 c0 -5 -4 -10 -10 -10 -5 0 -10 5
-10 10 0 6 5 10 10 10 6 0 10 -4 10 -10z m-1080 -10 c0 -5 -4 -10 -10 -10 -5
0 -10 5 -10 10 0 6 5 10 10 10 6 0 10 -4 10 -10z m1280 -5 c0 -8 -4 -15 -10
-15 -5 0 -10 7 -10 15 0 8 5 15 10 15 6 0 10 -7 10 -15z m-2105 -34 c37 3 50
0 58 -13 16 -24 7 -28 -34 -19 -21 5 -44 4 -53 -1 -21 -12 -23 -11 -31 27 -4
20 -4 26 3 16 6 -9 25 -12 57 -10z m167 -3 c14 14 38 -2 38 -24 0 -17 -17 -19
-22 -2 -3 7 -10 8 -17 3 -15 -8 -81 -15 -81 -8 0 3 10 13 23 23 16 13 25 15
35 8 9 -8 16 -8 24 0z m662 -4 c10 -27 7 -29 -43 -26 -57 4 -62 28 -8 35 18 2
35 5 38 5 4 1 10 -5 13 -14z m1224 0 c-4 -20 -34 -41 -44 -31 -8 8 24 47 38
47 5 0 8 -7 6 -16z m-583 -5 c10 -16 3 -19 -54 -23 -52 -4 -60 1 -39 22 15 15
84 16 93 1z m-1165 -19 c0 -5 -4 -10 -10 -10 -5 0 -10 5 -10 10 0 6 5 10 10
10 6 0 10 -4 10 -10z m1280 -5 c0 -8 -4 -15 -9 -15 -5 0 -11 7 -15 15 -3 9 0
15 9 15 8 0 15 -7 15 -15z m-1300 -37 c0 -12 -38 -10 -45 2 -12 19 5 30 25 17
11 -6 20 -15 20 -19z m1270 0 c0 -5 -13 -8 -30 -8 -32 0 -37 9 -19 27 9 9 16
9 30 0 11 -7 19 -15 19 -19z m-650 1 c0 -14 -17 -10 -23 5 -4 10 -1 13 9 9 7
-3 14 -9 14 -14z m-720 1 c0 -5 -4 -10 -10 -10 -5 0 -10 5 -10 10 0 6 5 10 10
10 6 0 10 -4 10 -10z m514 0 c14 -5 26 -15 26 -22 0 -7 11 -25 24 -39 18 -21
31 -26 67 -25 38 1 44 -2 47 -22 2 -12 8 -22 13 -22 5 0 9 -7 9 -15 0 -12 -12
-14 -67 -9 -38 4 -73 10 -79 15 -6 5 -14 6 -18 2 -7 -7 -24 -9 -94 -12 -19 0
-35 -7 -39 -17 -8 -22 17 -64 38 -64 11 0 19 -9 21 -22 2 -16 10 -23 26 -23
13 0 28 -8 33 -18 6 -9 21 -17 34 -17 18 0 25 -5 25 -20 0 -24 -32 -27 -50 -5
-7 8 -17 12 -22 9 -15 -9 -128 -10 -128 -1 0 4 7 10 15 13 8 4 15 15 15 25 0
21 -11 24 -27 8 -8 -8 -17 -8 -33 1 -18 9 -25 8 -40 -5 -14 -13 -23 -14 -38
-6 -12 6 -28 8 -36 5 -26 -10 -18 6 25 53 38 41 40 46 25 62 -9 10 -16 22 -16
28 0 18 43 23 60 8 25 -22 34 -19 79 30 42 46 47 60 32 85 -6 8 -7 18 -5 22 7
11 47 10 78 -2z m642 0 c7 0 16 -10 20 -22 16 -50 85 -87 122 -64 15 9 14 10
30 -28 16 -36 2 -49 -43 -41 -74 12 -91 15 -100 14 -5 0 -36 -2 -68 -4 -73 -4
-89 -16 -75 -56 9 -28 18 -33 45 -30 6 1 13 -9 15 -21 2 -16 11 -24 28 -26 14
-2 29 -10 33 -18 4 -8 19 -14 33 -14 19 0 25 -5 22 -17 -3 -13 -11 -17 -28
-14 -14 2 -58 4 -98 5 -73 1 -86 8 -54 32 27 20 2 40 -28 22 -18 -10 -24 -10
-27 0 -6 16 -23 15 -42 -2 -18 -16 -81 -10 -81 7 0 6 16 28 36 48 34 35 35 38
21 60 -16 26 -20 79 -6 79 5 0 9 -9 9 -21 0 -12 5 -19 13 -16 6 2 24 -3 39
-11 27 -16 29 -16 69 26 32 34 40 50 39 75 -3 49 -2 50 31 43 17 -3 37 -6 45
-6z m304 0 c0 -5 -4 -10 -10 -10 -5 0 -10 5 -10 10 0 6 5 10 10 10 6 0 10 -4
10 -10z m140 0 c0 -5 -4 -10 -10 -10 -5 0 -10 5 -10 10 0 6 5 10 10 10 6 0 10
-4 10 -10z m55 1 c3 -5 1 -12 -5 -16 -5 -3 -10 1 -10 9 0 18 6 21 15 7z m123
3 c20 -4 34 -14 38 -27 4 -12 13 -27 20 -34 11 -11 9 -20 -8 -49 -25 -42 -28
-44 -93 -47 -44 -2 -50 -5 -53 -25 -4 -28 14 -52 39 -52 14 0 19 -7 19 -26 0
-23 3 -25 30 -19 26 6 30 4 30 -14 0 -11 5 -23 10 -26 25 -15 5 -21 -66 -18
-42 1 -79 4 -82 7 -2 3 3 12 12 21 19 19 11 42 -8 25 -7 -5 -27 -7 -45 -4 -17
4 -37 2 -43 -3 -8 -6 -26 -5 -48 3 l-35 11 38 38 c42 42 43 47 22 65 -9 7 -15
20 -13 28 4 20 54 24 69 6 17 -21 28 -18 71 26 38 37 40 43 34 80 -7 44 -2 47
62 34z m86 -15 c-3 -5 -10 -7 -15 -3 -5 3 -7 10 -3 15 3 5 10 7 15 3 5 -3 7
-10 3 -15z m-1894 -29 c0 -5 -4 -10 -10 -10 -5 0 -10 5 -10 10 0 6 5 10 10 10
6 0 10 -4 10 -10z m390 0 c0 -5 -4 -10 -10 -10 -5 0 -10 5 -10 10 0 6 5 10 10
10 6 0 10 -4 10 -10z m1318 -9 c3 -8 -1 -12 -9 -9 -7 2 -15 10 -17 17 -3 8 1
12 9 9 7 -2 15 -10 17 -17z m-1518 -1 c0 -5 -4 -10 -10 -10 -5 0 -10 5 -10 10
0 6 5 10 10 10 6 0 10 -4 10 -10z m240 0 c0 -5 -4 -10 -10 -10 -5 0 -10 5 -10
10 0 6 5 10 10 10 6 0 10 -4 10 -10z m540 0 c0 -5 -4 -10 -10 -10 -5 0 -10 5
-10 10 0 6 5 10 10 10 6 0 10 -4 10 -10z m-914 -40 c8 0 14 -9 14 -20 0 -13 7
-20 20 -20 11 0 20 -4 20 -10 0 -12 -41 -23 -71 -18 -20 2 -25 10 -27 42 -3
32 -1 38 13 32 9 -3 23 -6 31 -6z m114 -11 c0 -5 -4 -9 -10 -9 -5 0 -10 7 -10
16 0 8 5 12 10 9 6 -3 10 -10 10 -16z m1510 11 c0 -5 -8 -10 -17 -10 -15 0
-16 2 -3 10 19 12 20 12 20 0z m-1370 -10 c0 -5 -4 -10 -10 -10 -5 0 -10 5
-10 10 0 6 5 10 10 10 6 0 10 -4 10 -10z m1140 0 c0 -5 -4 -10 -10 -10 -5 0
-10 5 -10 10 0 6 5 10 10 10 6 0 10 -4 10 -10z m40 0 c0 -5 -4 -10 -10 -10 -5
0 -10 5 -10 10 0 6 5 10 10 10 6 0 10 -4 10 -10z m100 0 c0 -5 -4 -10 -10 -10
-5 0 -10 5 -10 10 0 6 5 10 10 10 6 0 10 -4 10 -10z m-1400 -40 c0 -5 -4 -10
-10 -10 -5 0 -10 5 -10 10 0 6 5 10 10 10 6 0 10 -4 10 -10z m1240 0 c0 -5 -4
-10 -10 -10 -5 0 -10 5 -10 10 0 6 5 10 10 10 6 0 10 -4 10 -10z m40 0 c0 -5
-4 -10 -10 -10 -5 0 -10 5 -10 10 0 6 5 10 10 10 6 0 10 -4 10 -10z m50 0 c0
-5 -4 -10 -10 -10 -5 0 -10 5 -10 10 0 6 5 10 10 10 6 0 10 -4 10 -10z m20
-45 c0 -8 -4 -15 -10 -15 -5 0 -10 7 -10 15 0 8 5 15 10 15 6 0 10 -7 10 -15z
m-630 -5 c0 -5 -4 -10 -10 -10 -5 0 -10 5 -10 10 0 6 5 10 10 10 6 0 10 -4 10
-10z m580 0 c0 -5 -4 -10 -10 -10 -5 0 -10 5 -10 10 0 6 5 10 10 10 6 0 10 -4
10 -10z m360 -6 c0 -8 -4 -12 -10 -9 -5 3 -10 10 -10 16 0 5 5 9 10 9 6 0 10
-7 10 -16z m-1680 -84 c0 -5 -4 -10 -10 -10 -5 0 -10 5 -10 10 0 6 5 10 10 10
6 0 10 -4 10 -10z m40 0 c0 -5 -4 -10 -10 -10 -5 0 -10 5 -10 10 0 6 5 10 10
10 6 0 10 -4 10 -10z m472 -52 c-3 -19 34 -49 52 -42 7 3 21 -4 31 -16 10 -11
24 -20 32 -20 7 0 13 -8 13 -18 0 -10 5 -23 12 -30 9 -9 6 -12 -15 -12 -18 0
-39 11 -58 31 -29 29 -31 30 -54 15 -13 -9 -33 -16 -45 -16 -11 0 -20 -6 -20
-14 0 -13 -50 -30 -59 -20 -3 2 10 19 27 37 18 18 32 38 32 45 0 7 12 17 28
23 l27 11 -22 18 c-13 10 -23 21 -23 25 0 3 10 5 23 3 14 -2 21 -9 19 -20z
m48 12 c0 -5 -4 -10 -10 -10 -5 0 -10 5 -10 10 0 6 5 10 10 10 6 0 10 -4 10
-10z m100 0 c0 -5 -4 -10 -10 -10 -5 0 -10 5 -10 10 0 6 5 10 10 10 6 0 10 -4
10 -10z m490 -11 c0 -24 -23 -21 -28 4 -2 10 3 17 12 17 10 0 16 -9 16 -21z
m-1130 1 c0 -5 -4 -10 -10 -10 -5 0 -10 5 -10 10 0 6 5 10 10 10 6 0 10 -4 10
-10z m1225 0 c3 -5 2 -10 -4 -10 -5 0 -13 5 -16 10 -3 6 -2 10 4 10 5 0 13 -4
16 -10z m245 -5 c0 -8 -4 -15 -10 -15 -5 0 -10 7 -10 15 0 8 5 15 10 15 6 0
10 -7 10 -15z m-1510 -53 c0 9 5 20 11 24 8 5 10 0 6 -17 -4 -14 0 -37 8 -53
19 -36 14 -44 -25 -38 -20 3 -29 9 -26 17 3 8 -6 21 -20 29 -28 19 -30 29 -7
51 15 16 18 15 34 -7 15 -18 19 -20 19 -6z m1195 18 c3 -6 17 -7 30 -4 17 4
26 0 35 -15 6 -12 17 -21 25 -21 8 0 15 -8 15 -18 0 -10 5 -23 11 -29 19 -19
1 -34 -22 -20 -16 10 -21 9 -29 -3 -5 -8 -12 -11 -17 -7 -4 5 -1 12 7 17 12 8
10 14 -15 34 -27 22 -32 23 -52 10 -12 -8 -30 -14 -39 -14 -9 0 -18 -9 -21
-20 -4 -16 -8 -18 -19 -9 -11 9 -18 8 -29 -1 -29 -24 -15 7 16 34 21 19 28 33
24 46 -6 18 -1 21 62 29 6 0 15 -4 18 -9z m145 -5 c0 -8 -4 -15 -10 -15 -5 0
-10 7 -10 15 0 8 5 15 10 15 6 0 10 -7 10 -15z m-1180 -5 c0 -5 -4 -10 -10
-10 -5 0 -10 5 -10 10 0 6 5 10 10 10 6 0 10 -4 10 -10z m140 0 c0 -5 -4 -10
-10 -10 -5 0 -10 5 -10 10 0 6 5 10 10 10 6 0 10 -4 10 -10z m640 0 c0 -5 -4
-10 -10 -10 -5 0 -10 5 -10 10 0 6 5 10 10 10 6 0 10 -4 10 -10z m50 0 c0 -5
-7 -10 -15 -10 -8 0 -15 5 -15 10 0 6 7 10 15 10 8 0 15 -4 15 -10z m590 0 c0
-5 -4 -10 -10 -10 -5 0 -10 5 -10 10 0 6 5 10 10 10 6 0 10 -4 10 -10z m40 -6
c0 -8 -4 -12 -10 -9 -5 3 -10 10 -10 16 0 5 5 9 10 9 6 0 10 -7 10 -16z
m-1530 -34 c0 -5 -7 -10 -16 -10 -8 0 -12 5 -9 10 3 6 10 10 16 10 5 0 9 -4 9
-10z m50 0 c0 -5 -4 -10 -10 -10 -5 0 -10 5 -10 10 0 6 5 10 10 10 6 0 10 -4
10 -10z m40 -6 c0 -8 -4 -12 -10 -9 -5 3 -10 10 -10 16 0 5 5 9 10 9 6 0 10
-7 10 -16z m60 6 c0 -5 -4 -10 -10 -10 -5 0 -10 5 -10 10 0 6 5 10 10 10 6 0
10 -4 10 -10z m40 0 c0 -5 -4 -10 -10 -10 -5 0 -10 5 -10 10 0 6 5 10 10 10 6
0 10 -4 10 -10z m40 0 c0 -5 -4 -10 -10 -10 -5 0 -10 5 -10 10 0 6 5 10 10 10
6 0 10 -4 10 -10z m100 0 c0 -5 -4 -10 -10 -10 -5 0 -10 5 -10 10 0 6 5 10 10
10 6 0 10 -4 10 -10z m300 0 c0 -5 -4 -10 -10 -10 -5 0 -10 5 -10 10 0 6 5 10
10 10 6 0 10 -4 10 -10z m60 1 c0 -6 -5 -13 -11 -17 -15 -9 49 -74 73 -74 27
0 22 -29 -8 -40 -19 -8 -34 -7 -55 4 -16 8 -31 11 -34 6 -6 -9 -51 -7 -61 3
-3 3 3 11 14 18 16 10 19 20 15 41 -3 16 -2 28 3 27 23 -4 34 3 34 21 0 11 7
20 15 20 8 0 15 -4 15 -9z m40 -1 c0 -5 -4 -10 -10 -10 -5 0 -10 5 -10 10 0 6
5 10 10 10 6 0 10 -4 10 -10z m40 0 c0 -5 -4 -10 -10 -10 -5 0 -10 5 -10 10 0
6 5 10 10 10 6 0 10 -4 10 -10z m60 0 c0 -5 -4 -10 -10 -10 -5 0 -10 5 -10 10
0 6 5 10 10 10 6 0 10 -4 10 -10z m140 1 c0 -6 -4 -13 -10 -16 -5 -3 -10 1
-10 9 0 9 5 16 10 16 6 0 10 -4 10 -9z m400 -6 c0 -8 -4 -15 -10 -15 -5 0 -10
7 -10 15 0 8 5 15 10 15 6 0 10 -7 10 -15z m45 5 c3 -5 -1 -10 -9 -10 -9 0
-16 5 -16 10 0 6 4 10 9 10 6 0 13 -4 16 -10z m55 0 c0 -5 -4 -10 -10 -10 -5
0 -10 5 -10 10 0 6 5 10 10 10 6 0 10 -4 10 -10z m40 0 c0 -5 -4 -10 -10 -10
-5 0 -10 5 -10 10 0 6 5 10 10 10 6 0 10 -4 10 -10z m40 0 c0 -5 -4 -10 -10
-10 -5 0 -10 5 -10 10 0 6 5 10 10 10 6 0 10 -4 10 -10z m-256 -30 c12 0 35
-13 51 -30 16 -16 37 -30 48 -30 12 0 17 -6 15 -17 -3 -16 -15 -18 -91 -18
-59 0 -87 4 -87 11 0 7 7 15 16 18 9 4 14 16 13 33 -1 16 -1 37 1 48 2 17 3
18 7 3 3 -11 14 -18 27 -18z m-1224 -30 c19 -17 42 -30 52 -30 22 0 23 -13 3
-30 -12 -10 -31 -11 -80 -4 -43 7 -68 7 -75 0 -5 -5 -13 -6 -17 -2 -5 4 3 16
16 27 17 14 22 25 17 44 -6 22 -3 25 21 25 16 -1 43 -14 63 -30z m820 15 c0
-8 -4 -15 -10 -15 -5 0 -10 7 -10 15 0 8 5 15 10 15 6 0 10 -7 10 -15z m54 -6
c-3 -5 -10 -7 -15 -3 -5 3 -7 10 -3 15 3 5 10 7 15 3 5 -3 7 -10 3 -15z m141
12 c3 -5 1 -12 -5 -16 -5 -3 -10 1 -10 9 0 18 6 21 15 7z m403 -10 c3 -8 -1
-12 -9 -9 -7 2 -15 10 -17 17 -3 8 1 12 9 9 7 -2 15 -10 17 -17z m134 -13 c-9
-9 -12 -7 -12 12 0 19 3 21 12 12 9 -9 9 -15 0 -24z m-1132 12 c0 -5 -4 -10
-10 -10 -5 0 -10 5 -10 10 0 6 5 10 10 10 6 0 10 -4 10 -10z m900 -6 c0 -8 -4
-12 -10 -9 -5 3 -10 10 -10 16 0 5 5 9 10 9 6 0 10 -7 10 -16z m140 6 c0 -5
-4 -10 -10 -10 -5 0 -10 5 -10 10 0 6 5 10 10 10 6 0 10 -4 10 -10z m-700 -50
c0 -5 -4 -10 -10 -10 -5 0 -10 5 -10 10 0 6 5 10 10 10 6 0 10 -4 10 -10z m40
0 c0 -5 -4 -10 -10 -10 -5 0 -10 5 -10 10 0 6 5 10 10 10 6 0 10 -4 10 -10z
m50 0 c0 -5 -7 -10 -15 -10 -8 0 -15 5 -15 10 0 6 7 10 15 10 8 0 15 -4 15
-10z"/>
<path d="M640 5175 c0 -8 7 -15 15 -15 8 0 15 7 15 15 0 8 -7 15 -15 15 -8 0
-15 -7 -15 -15z"/>
<path d="M1920 5176 c0 -9 7 -16 16 -16 17 0 14 22 -4 28 -7 2 -12 -3 -12 -12z"/>
<path d="M1240 5170 c0 -5 5 -10 10 -10 6 0 10 5 10 10 0 6 -4 10 -10 10 -5 0
-10 -4 -10 -10z"/>
<path d="M1285 5170 c3 -5 10 -10 16 -10 5 0 9 5 9 10 0 6 -7 10 -16 10 -8 0
-12 -4 -9 -10z"/>
<path d="M1240 4550 c0 -5 5 -10 10 -10 6 0 10 5 10 10 0 6 -4 10 -10 10 -5 0
-10 -4 -10 -10z"/>
<path d="M1280 4540 c0 -11 5 -20 10 -20 6 0 10 9 10 20 0 11 -4 20 -10 20 -5
0 -10 -9 -10 -20z"/>
<path d="M600 4545 c0 -8 5 -15 10 -15 6 0 10 7 10 15 0 8 -4 15 -10 15 -5 0
-10 -7 -10 -15z"/>
<path d="M640 4551 c0 -6 5 -13 10 -16 6 -3 10 1 10 9 0 9 -4 16 -10 16 -5 0
-10 -4 -10 -9z"/>
<path d="M1875 4551 c-6 -11 9 -23 19 -14 9 9 7 23 -3 23 -6 0 -12 -4 -16 -9z"/>
<path d="M1920 4540 c0 -5 5 -10 10 -10 6 0 10 5 10 10 0 6 -4 10 -10 10 -5 0
-10 -4 -10 -10z"/>
<path d="M2560 4545 c0 -8 5 -15 10 -15 6 0 10 7 10 15 0 8 -4 15 -10 15 -5 0
-10 -7 -10 -15z"/>
<path d="M1235 3910 c-3 -5 -2 -10 4 -10 5 0 13 5 16 10 3 6 2 10 -4 10 -5 0
-13 -4 -16 -10z"/>
<path d="M1870 3910 c0 -5 5 -10 10 -10 6 0 10 5 10 10 0 6 -4 10 -10 10 -5 0
-10 -4 -10 -10z"/>
<path d="M1920 3910 c0 -5 5 -10 10 -10 6 0 10 5 10 10 0 6 -4 10 -10 10 -5 0
-10 -4 -10 -10z"/>
<path d="M2560 3910 c0 -5 5 -10 10 -10 6 0 10 5 10 10 0 6 -4 10 -10 10 -5 0
-10 -4 -10 -10z"/>
<path d="M1640 2762 c-18 -6 -11 -30 11 -37 16 -5 19 -14 17 -38 l-3 -32 -433
-3 c-406 -2 -433 -3 -430 -20 3 -12 14 -17 43 -18 22 0 46 -2 53 -2 19 -3 14
-30 -7 -42 -11 -5 -23 -24 -26 -42 -4 -18 -11 -38 -16 -44 -5 -7 -9 -25 -8
-40 1 -16 -7 -49 -18 -74 -12 -25 -24 -57 -27 -72 -4 -16 -13 -28 -21 -28 -17
0 -115 -89 -115 -104 0 -7 -13 -27 -28 -46 -16 -19 -31 -43 -35 -52 -3 -10
-12 -18 -20 -18 -7 0 -24 -22 -37 -50 -24 -52 -45 -76 -82 -94 -12 -6 -29 -24
-39 -41 -56 -95 -53 -75 -54 -320 l-1 -230 -37 -55 c-41 -61 -43 -68 -22 -96
8 -11 15 -41 15 -71 0 -28 5 -55 10 -58 14 -9 12 -192 -2 -233 -11 -30 -11
-35 7 -48 29 -21 62 -18 70 8 l8 23 4 -22 c4 -20 10 -22 63 -20 66 3 97 23
102 66 2 21 7 25 28 23 14 -2 37 -16 52 -33 15 -16 37 -29 48 -29 11 0 20 -6
20 -14 0 -11 26 -14 135 -14 109 0 135 3 135 14 0 8 5 14 10 14 6 0 10 -6 10
-13 0 -17 112 -20 123 -4 5 9 10 8 16 -3 8 -12 14 -11 35 9 14 13 26 33 28 45
5 35 44 32 80 -6 18 -19 38 -32 49 -30 12 2 19 -3 19 -12 0 -11 10 -15 35 -14
22 1 35 6 35 15 0 7 5 13 10 13 6 0 10 -7 10 -15 0 -10 10 -15 28 -16 160 -4
192 -3 192 4 0 5 9 6 19 2 13 -4 23 0 30 12 9 16 10 16 11 1 0 -13 9 -17 40
-15 42 1 69 21 74 54 2 10 14 24 27 31 22 11 27 9 56 -25 18 -21 39 -37 48
-35 8 2 15 -4 15 -13 0 -11 11 -15 40 -15 29 0 40 4 40 15 0 8 5 15 10 15 6 0
10 -7 10 -15 0 -10 11 -15 33 -16 50 -1 269 2 298 4 35 3 59 24 59 53 0 13 4
24 10 24 5 0 18 10 30 22 19 21 20 21 20 2 1 -26 56 -85 74 -78 9 3 16 -2 18
-12 3 -16 16 -18 141 -16 76 1 142 4 148 7 26 17 42 74 44 163 2 52 8 99 14
105 7 7 11 75 11 197 0 166 -2 189 -20 223 -11 20 -20 46 -20 56 0 11 -4 23
-10 26 -6 3 -10 50 -10 105 0 55 4 102 10 105 6 4 10 115 10 301 0 189 -4 294
-10 294 -6 0 -10 55 -10 145 l0 144 103 3 c83 2 102 6 102 18 0 13 -52 16
-385 20 l-385 5 -3 32 c-3 28 1 33 22 39 14 3 26 12 26 20 0 11 -18 14 -75 14
-56 0 -75 -3 -75 -13 0 -8 11 -19 23 -24 17 -8 23 -18 21 -35 -1 -12 -3 -26
-3 -31 -1 -4 -128 -6 -283 -5 l-283 3 -3 33 c-3 27 1 35 17 39 12 3 21 11 21
18 0 9 -20 14 -65 17 -36 1 -70 2 -75 0z m-532 -164 c21 -21 13 -35 -18 -34
-16 1 -30 6 -30 12 0 11 20 34 30 34 3 0 11 -5 18 -12z m422 -14 c21 -5 35
-15 41 -31 16 -44 52 -70 92 -68 32 1 40 -4 52 -29 8 -16 15 -31 15 -33 0 -7
-136 4 -150 12 -7 4 -16 2 -20 -6 -7 -10 -11 -10 -25 1 -12 10 -19 10 -27 2
-7 -7 -16 -8 -22 -2 -7 5 -20 2 -35 -9 -20 -16 -22 -22 -14 -47 7 -21 17 -30
36 -32 21 -3 26 -8 24 -25 -1 -17 3 -22 20 -22 13 0 28 -8 35 -17 7 -9 24 -18
38 -20 37 -5 33 -34 -5 -30 -16 1 -59 5 -95 8 -72 6 -83 11 -57 26 14 8 16 13
6 24 -8 9 -16 11 -23 5 -7 -6 -27 -10 -46 -10 -19 0 -46 0 -60 -1 -73 -1 -74
2 -25 56 33 36 46 74 25 74 -11 0 -14 33 -4 43 3 3 26 -2 51 -11 l45 -17 39
45 c40 46 47 68 28 87 -13 13 -4 33 15 33 8 0 28 -3 46 -6z m470 -15 c0 -5 -4
-9 -10 -9 -5 0 -10 7 -10 16 0 8 5 12 10 9 6 -3 10 -10 10 -16z m155 11 c4 -6
15 -8 26 -5 15 5 19 1 19 -17 0 -31 54 -72 98 -75 30 -2 71 -34 72 -56 0 -9
-117 -3 -140 7 -17 7 -77 3 -87 -7 -3 -4 -15 -4 -27 -1 -12 3 -29 -1 -39 -8
-17 -13 -17 -15 -1 -46 12 -24 22 -32 37 -30 18 2 22 -2 22 -22 0 -17 6 -26
20 -28 11 -3 24 -10 28 -18 4 -8 18 -14 30 -14 34 0 55 -16 39 -32 -9 -9 -19
-9 -47 1 -28 10 -39 10 -50 1 -9 -7 -15 -8 -15 -3 0 6 -18 10 -40 9 -22 0 -40
-4 -40 -8 0 -5 -4 -8 -10 -8 -18 0 -11 29 10 40 31 17 17 25 -37 23 -94 -5
-143 -3 -143 6 0 4 18 25 40 46 45 44 47 50 25 72 -19 19 -15 37 11 42 10 2
22 8 25 13 4 6 10 1 14 -11 9 -31 33 -26 76 17 39 37 47 64 30 92 -6 8 -7 18
-5 22 7 12 52 10 59 -2z m521 -17 c-10 -10 -19 5 -10 18 6 11 8 11 12 0 2 -7
1 -15 -2 -18z m171 13 c2 -1 6 -30 9 -63 6 -57 5 -62 -17 -76 -14 -9 -40 -14
-63 -12 -22 2 -48 -1 -58 -6 -33 -18 -15 -74 27 -81 11 -2 22 -12 25 -23 8
-28 36 -26 33 3 -5 38 14 24 21 -17 5 -31 11 -40 31 -45 14 -4 25 -11 25 -17
0 -14 -27 -22 -47 -13 -29 12 -127 13 -135 1 -4 -6 -11 -8 -15 -3 -4 4 2 16
15 26 12 10 22 23 22 29 0 14 -23 14 -38 -1 -8 -8 -15 -8 -26 2 -9 7 -23 9
-33 5 -31 -13 -103 -13 -103 0 0 6 18 29 40 51 44 44 46 49 25 70 -8 9 -15 19
-15 24 0 14 41 23 53 11 23 -23 61 -11 96 31 30 35 33 44 24 67 -17 45 -7 54
51 46 28 -3 52 -8 53 -9z m-1827 -6 c0 -5 -4 -10 -10 -10 -5 0 -10 5 -10 10 0
6 5 10 10 10 6 0 10 -4 10 -10z m200 0 c0 -5 -4 -10 -10 -10 -5 0 -10 5 -10
10 0 6 5 10 10 10 6 0 10 -4 10 -10z m90 0 c0 -5 -4 -10 -10 -10 -5 0 -10 5
-10 10 0 6 5 10 10 10 6 0 10 -4 10 -10z m50 0 c0 -5 -4 -10 -10 -10 -5 0 -10
5 -10 10 0 6 5 10 10 10 6 0 10 -4 10 -10z m300 0 c0 -5 -4 -10 -10 -10 -5 0
-10 5 -10 10 0 6 5 10 10 10 6 0 10 -4 10 -10z m100 0 c0 -5 -4 -10 -10 -10
-5 0 -10 5 -10 10 0 6 5 10 10 10 6 0 10 -4 10 -10z m40 0 c0 -5 -4 -10 -10
-10 -5 0 -10 5 -10 10 0 6 5 10 10 10 6 0 10 -4 10 -10z m50 0 c0 -5 -4 -10
-10 -10 -5 0 -10 5 -10 10 0 6 5 10 10 10 6 0 10 -4 10 -10z m90 0 c0 -5 -4
-10 -10 -10 -5 0 -10 5 -10 10 0 6 5 10 10 10 6 0 10 -4 10 -10z m100 0 c0 -5
-4 -10 -10 -10 -5 0 -10 5 -10 10 0 6 5 10 10 10 6 0 10 -4 10 -10z m260 0 c0
-5 -4 -10 -10 -10 -5 0 -10 5 -10 10 0 6 5 10 10 10 6 0 10 -4 10 -10z m40 0
c0 -5 -4 -10 -10 -10 -5 0 -10 5 -10 10 0 6 5 10 10 10 6 0 10 -4 10 -10z
m100 0 c0 -5 -4 -10 -10 -10 -5 0 -10 5 -10 10 0 6 5 10 10 10 6 0 10 -4 10
-10z m50 0 c0 -5 -7 -10 -15 -10 -8 0 -15 5 -15 10 0 6 7 10 15 10 8 0 15 -4
15 -10z m50 0 c0 -5 -4 -10 -10 -10 -5 0 -10 5 -10 10 0 6 5 10 10 10 6 0 10
-4 10 -10z m50 0 c0 -5 -7 -10 -15 -10 -8 0 -15 5 -15 10 0 6 7 10 15 10 8 0
15 -4 15 -10z m50 0 c0 -5 -4 -10 -10 -10 -5 0 -10 5 -10 10 0 6 5 10 10 10 6
0 10 -4 10 -10z m-1400 -40 c0 -5 -4 -10 -10 -10 -5 0 -10 5 -10 10 0 6 5 10
10 10 6 0 10 -4 10 -10z m140 0 c0 -5 -4 -10 -10 -10 -5 0 -10 5 -10 10 0 6 5
10 10 10 6 0 10 -4 10 -10z m50 0 c0 -5 -4 -10 -10 -10 -5 0 -10 5 -10 10 0 6
5 10 10 10 6 0 10 -4 10 -10z m390 0 c0 -5 -4 -10 -10 -10 -5 0 -10 5 -10 10
0 6 5 10 10 10 6 0 10 -4 10 -10z m160 1 c0 -6 -4 -13 -10 -16 -5 -3 -10 1
-10 9 0 9 5 16 10 16 6 0 10 -4 10 -9z m90 -1 c0 -5 -7 -10 -15 -10 -8 0 -15
5 -15 10 0 6 7 10 15 10 8 0 15 -4 15 -10z m550 0 c0 -5 -9 -10 -20 -10 -11 0
-20 5 -20 10 0 6 9 10 20 10 11 0 20 -4 20 -10z m38 -1 c-2 -6 -8 -10 -13 -10
-5 0 -11 4 -13 10 -2 6 4 11 13 11 9 0 15 -5 13 -11z m42 -4 c0 -8 -4 -15 -10
-15 -5 0 -10 7 -10 15 0 8 5 15 10 15 6 0 10 -7 10 -15z m-1720 -35 c0 -5 13
-7 28 -4 21 4 36 -1 60 -22 18 -16 32 -32 32 -37 0 -13 -133 -4 -147 10 -16
15 -16 36 -1 51 15 15 28 16 28 2z m160 -60 c0 -5 -4 -10 -10 -10 -5 0 -10 5
-10 10 0 6 5 10 10 10 6 0 10 -4 10 -10z m640 0 c0 -5 -4 -10 -10 -10 -5 0
-10 5 -10 10 0 6 5 10 10 10 6 0 10 -4 10 -10z m100 0 c0 -5 -4 -10 -10 -10
-5 0 -10 5 -10 10 0 6 5 10 10 10 6 0 10 -4 10 -10z m640 0 c0 -5 -4 -10 -10
-10 -5 0 -10 5 -10 10 0 6 5 10 10 10 6 0 10 -4 10 -10z m-1540 -40 c0 -5 -4
-10 -10 -10 -5 0 -10 5 -10 10 0 6 5 10 10 10 6 0 10 -4 10 -10z m240 1 c0 -6
-4 -13 -10 -16 -5 -3 -10 1 -10 9 0 9 5 16 10 16 6 0 10 -4 10 -9z m296 -18
c-10 -10 -19 5 -10 18 6 11 8 11 12 0 2 -7 1 -15 -2 -18z m329 17 c3 -5 -1
-10 -9 -10 -9 0 -16 5 -16 10 0 6 4 10 9 10 6 0 13 -4 16 -10z m55 -5 c0 -8
-4 -15 -10 -15 -5 0 -10 7 -10 15 0 8 5 15 10 15 6 0 10 -7 10 -15z m260 0 c0
-8 -4 -15 -10 -15 -5 0 -10 7 -10 15 0 8 5 15 10 15 6 0 10 -7 10 -15z m235 6
c3 -5 1 -12 -5 -16 -5 -3 -10 1 -10 9 0 18 6 21 15 7z m145 -6 c0 -8 -4 -15
-10 -15 -5 0 -10 7 -10 15 0 8 5 15 10 15 6 0 10 -7 10 -15z m260 -6 c0 -5 -4
-9 -10 -9 -5 0 -10 7 -10 16 0 8 5 12 10 9 6 -3 10 -10 10 -16z m54 0 c-3 -5
-10 -7 -15 -3 -5 3 -7 10 -3 15 3 5 10 7 15 3 5 -3 7 -10 3 -15z m-979 -38 c3
-5 1 -12 -5 -16 -5 -3 -10 1 -10 9 0 18 6 21 15 7z m305 -7 c0 -8 -5 -12 -10
-9 -6 4 -8 11 -5 16 9 14 15 11 15 -7z m-1080 -4 c0 -5 -4 -10 -10 -10 -5 0
-10 5 -10 10 0 6 5 10 10 10 6 0 10 -4 10 -10z m40 0 c0 -5 -4 -10 -10 -10 -5
0 -10 5 -10 10 0 6 5 10 10 10 6 0 10 -4 10 -10z m600 0 c0 -5 -4 -10 -9 -10
-6 0 -13 5 -16 10 -3 6 1 10 9 10 9 0 16 -4 16 -10z m40 0 c0 -5 -4 -10 -10
-10 -5 0 -10 5 -10 10 0 6 5 10 10 10 6 0 10 -4 10 -10z m40 0 c0 -5 -4 -10
-10 -10 -5 0 -10 5 -10 10 0 6 5 10 10 10 6 0 10 -4 10 -10z m460 0 c0 -5 -4
-10 -10 -10 -5 0 -10 5 -10 10 0 6 5 10 10 10 6 0 10 -4 10 -10z m40 0 c0 -5
-4 -10 -10 -10 -5 0 -10 5 -10 10 0 6 5 10 10 10 6 0 10 -4 10 -10z m100 0 c0
-5 -4 -10 -10 -10 -5 0 -10 5 -10 10 0 6 5 10 10 10 6 0 10 -4 10 -10z m45 0
c3 -5 -1 -10 -9 -10 -9 0 -16 5 -16 10 0 6 4 10 9 10 6 0 13 -4 16 -10z m55 0
c0 -5 -4 -10 -10 -10 -5 0 -10 5 -10 10 0 6 5 10 10 10 6 0 10 -4 10 -10z
m-1605 -49 c3 -12 17 -21 33 -23 33 -4 36 -32 4 -36 -14 -2 -29 4 -38 15 -14
17 -15 17 -29 -1 -23 -30 -30 -11 -11 29 19 39 32 44 41 16z m85 9 c0 -5 -4
-10 -10 -10 -5 0 -10 5 -10 10 0 6 5 10 10 10 6 0 10 -4 10 -10z m220 1 c0 -6
-4 -13 -10 -16 -5 -3 -10 1 -10 9 0 9 5 16 10 16 6 0 10 -4 10 -9z m420 -1 c0
-5 -4 -10 -10 -10 -5 0 -10 5 -10 10 0 6 5 10 10 10 6 0 10 -4 10 -10z m70 0
c0 -5 -4 -10 -10 -10 -5 0 -10 5 -10 10 0 6 5 10 10 10 6 0 10 -4 10 -10z m90
0 c0 -5 -4 -10 -10 -10 -5 0 -10 5 -10 10 0 6 5 10 10 10 6 0 10 -4 10 -10z
m540 -6 c0 -8 -5 -12 -10 -9 -6 4 -8 11 -5 16 9 14 15 11 15 -7z m150 6 c0 -5
-4 -10 -10 -10 -5 0 -10 5 -10 10 0 6 5 10 10 10 6 0 10 -4 10 -10z m-1453
-45 c3 -9 3 -19 -1 -22 -8 -9 -37 18 -30 28 8 14 24 11 31 -6z m643 -5 c0 -21
-15 -27 -25 -10 -7 12 2 30 16 30 5 0 9 -9 9 -20z m920 -6 c0 -8 -4 -12 -10
-9 -5 3 -10 13 -10 21 0 8 5 12 10 9 6 -3 10 -13 10 -21z m-1360 6 c0 -5 -4
-10 -10 -10 -5 0 -10 5 -10 10 0 6 5 10 10 10 6 0 10 -4 10 -10z m140 1 c0 -6
-4 -13 -10 -16 -5 -3 -10 1 -10 9 0 9 5 16 10 16 6 0 10 -4 10 -9z m360 -1 c0
-5 -4 -10 -10 -10 -5 0 -10 5 -10 10 0 6 5 10 10 10 6 0 10 -4 10 -10z m40 -5
c0 -8 -4 -15 -10 -15 -5 0 -10 7 -10 15 0 8 5 15 10 15 6 0 10 -7 10 -15z m40
5 c0 -5 -4 -10 -10 -10 -5 0 -10 5 -10 10 0 6 5 10 10 10 6 0 10 -4 10 -10z
m500 -9 c0 -21 24 -35 56 -32 14 1 23 -5 27 -19 3 -12 10 -19 16 -16 11 7 41
-43 41 -67 0 -9 -11 -14 -30 -14 -24 0 -29 4 -25 17 4 11 -3 23 -20 34 -23 15
-30 15 -68 2 -31 -11 -41 -19 -40 -34 2 -15 -4 -19 -27 -19 -17 0 -30 2 -30 4
0 2 11 21 25 42 15 22 23 45 19 54 -5 13 0 17 20 17 14 0 26 5 26 10 0 6 -4
10 -9 10 -5 0 -11 7 -15 15 -4 10 1 15 14 15 13 0 20 -7 20 -19z m100 10 c0
-6 -4 -13 -10 -16 -5 -3 -10 1 -10 9 0 9 5 16 10 16 6 0 10 -4 10 -9z m100 -6
c0 -8 -4 -15 -10 -15 -5 0 -10 7 -10 15 0 8 5 15 10 15 6 0 10 -7 10 -15z
m140 0 c0 -8 -4 -15 -10 -15 -5 0 -10 7 -10 15 0 8 5 15 10 15 6 0 10 -7 10
-15z m-640 -5 c0 -5 -4 -10 -10 -10 -5 0 -10 5 -10 10 0 6 5 10 10 10 6 0 10
-4 10 -10z m-922 -33 c12 1 22 -3 22 -8 0 -5 11 -15 25 -21 13 -6 27 -19 30
-30 3 -10 8 -27 11 -39 5 -19 4 -20 -16 -9 -18 10 -24 9 -31 -1 -6 -10 -9 -6
-9 14 0 17 -5 27 -15 27 -8 0 -15 5 -15 10 0 13 -25 13 -48 1 -9 -5 -25 -12
-34 -15 -10 -3 -18 -15 -18 -27 0 -18 -2 -20 -16 -8 -13 10 -17 10 -24 -1 -5
-8 -12 -11 -16 -7 -4 4 8 26 26 49 21 26 29 43 22 46 -20 6 -13 25 7 19 10 -2
25 -1 32 4 8 5 21 6 29 2 8 -3 25 -6 38 -6z m262 -2 c0 -8 -4 -15 -10 -15 -5
0 -10 7 -10 15 0 8 5 15 10 15 6 0 10 -7 10 -15z m377 3 c14 1 24 -6 28 -18 4
-11 13 -20 20 -20 15 0 31 -23 36 -54 3 -16 -2 -20 -28 -22 -29 -1 -32 1 -27
20 8 35 -33 52 -81 35 -21 -8 -40 -22 -43 -32 -2 -9 -9 -17 -16 -16 -6 1 -19
-1 -29 -6 -32 -14 -31 5 1 38 18 18 32 40 32 48 0 18 48 39 70 32 8 -3 25 -5
37 -5z m263 -9 c0 -5 -4 -9 -10 -9 -5 0 -10 7 -10 16 0 8 5 12 10 9 6 -3 10
-10 10 -16z m-1140 1 c0 -5 -4 -10 -10 -10 -5 0 -10 5 -10 10 0 6 5 10 10 10
6 0 10 -4 10 -10z m40 0 c0 -5 -4 -10 -10 -10 -5 0 -10 5 -10 10 0 6 5 10 10
10 6 0 10 -4 10 -10z m360 0 c0 -5 -4 -10 -10 -10 -5 0 -10 5 -10 10 0 6 5 10
10 10 6 0 10 -4 10 -10z m240 0 c0 -5 -4 -10 -10 -10 -5 0 -10 5 -10 10 0 6 5
10 10 10 6 0 10 -4 10 -10z m50 0 c0 -5 -4 -10 -10 -10 -5 0 -10 5 -10 10 0 6
5 10 10 10 6 0 10 -4 10 -10z m1045 0 c-3 -5 -13 -10 -21 -10 -8 0 -14 5 -14
10 0 6 9 10 21 10 11 0 17 -4 14 -10z m45 0 c0 -5 -4 -10 -9 -10 -6 0 -13 5
-16 10 -3 6 1 10 9 10 9 0 16 -4 16 -10z m40 0 c0 -5 -4 -10 -10 -10 -5 0 -10
5 -10 10 0 6 5 10 10 10 6 0 10 -4 10 -10z m40 0 c0 -5 -4 -10 -10 -10 -5 0
-10 5 -10 10 0 6 5 10 10 10 6 0 10 -4 10 -10z m160 0 c0 -5 -9 -10 -21 -10
-11 0 -17 5 -14 10 3 6 13 10 21 10 8 0 14 -4 14 -10z m-2096 -51 c-3 -5 -10
-7 -15 -3 -5 3 -7 10 -3 15 3 5 10 7 15 3 5 -3 7 -10 3 -15z m56 11 c0 -5 -4
-10 -10 -10 -5 0 -10 5 -10 10 0 6 5 10 10 10 6 0 10 -4 10 -10z m40 -6 c0 -8
-5 -12 -10 -9 -6 4 -8 11 -5 16 9 14 15 11 15 -7z m55 6 c-3 -5 -10 -10 -16
-10 -5 0 -9 5 -9 10 0 6 7 10 16 10 8 0 12 -4 9 -10z m545 1 c0 -6 -4 -13 -10
-16 -5 -3 -10 1 -10 9 0 9 5 16 10 16 6 0 10 -4 10 -9z m40 -7 c0 -8 -4 -12
-10 -9 -5 3 -10 10 -10 16 0 5 5 9 10 9 6 0 10 -7 10 -16z m55 7 c3 -5 1 -12
-5 -16 -5 -3 -10 1 -10 9 0 18 6 21 15 7z m1267 -13 c-7 -7 -12 -8 -12 -2 0
14 12 26 19 19 2 -3 -1 -11 -7 -17z m-1462 2 c0 -5 -4 -10 -10 -10 -5 0 -10 5
-10 10 0 6 5 10 10 10 6 0 10 -4 10 -10z m-71 -55 c22 -20 45 -34 52 -33 7 2
15 -10 19 -27 5 -26 9 -30 35 -27 97 10 125 6 125 -19 0 -18 -2 -20 -16 -8
-13 10 -17 10 -25 -2 -8 -12 -10 -12 -18 0 -8 12 -12 12 -25 2 -13 -11 -19
-11 -32 0 -13 11 -17 10 -25 -3 -9 -17 -42 -14 -66 5 -7 5 -21 6 -30 2 -26
-11 -83 -13 -83 -3 0 5 -11 6 -25 2 -35 -9 -33 18 5 58 17 17 30 41 30 53 0
47 27 47 79 0z m1272 0 c17 -19 40 -35 50 -35 12 0 19 -7 19 -19 0 -29 17 -35
95 -36 60 0 70 -3 73 -18 3 -15 0 -18 -16 -13 -11 4 -23 2 -26 -3 -9 -13 29
-32 48 -25 11 4 16 0 16 -14 0 -10 9 -31 20 -45 23 -29 26 -70 6 -86 -8 -6
-38 -14 -67 -17 -85 -8 -99 -13 -99 -32 1 -30 27 -55 54 -50 21 4 24 1 23 -21
-2 -21 2 -26 19 -24 16 2 25 -6 34 -28 7 -16 11 -31 9 -33 -8 -8 -105 -9 -117
-2 -7 4 -19 2 -27 -4 -12 -10 -15 -10 -15 0 0 6 10 20 23 30 21 17 21 19 3 26
-11 4 -21 2 -26 -5 -6 -10 -12 -10 -28 0 -17 10 -23 10 -36 0 -17 -14 -96 -6
-96 10 0 5 17 25 37 44 38 35 38 36 21 65 -18 31 -15 40 14 40 12 0 18 8 19
23 1 20 2 20 6 2 15 -58 46 -58 97 1 36 43 38 48 28 80 -8 28 -7 36 5 43 25
14 7 28 -34 26 -35 -1 -38 -3 -35 -29 2 -18 -1 -25 -7 -21 -6 3 -11 13 -11 21
0 8 -8 14 -17 14 -9 0 -25 8 -35 17 -14 13 -24 14 -36 7 -9 -6 -42 -10 -72 -9
-50 1 -55 3 -53 22 2 12 14 33 28 47 14 14 25 34 25 46 0 17 20 33 48 39 1 1
16 -15 33 -34z m-1825 -2 c-10 -10 -19 5 -10 18 6 11 8 11 12 0 2 -7 1 -15 -2
-18z m699 18 c3 -5 1 -12 -5 -16 -5 -3 -10 1 -10 9 0 18 6 21 15 7z m490 -21
c22 -23 35 -30 53 -25 20 5 23 3 17 -15 -8 -25 14 -58 25 -39 5 7 13 8 21 3 8
-4 33 -8 56 -7 40 2 75 -19 59 -34 -4 -4 -11 -1 -16 7 -7 11 -11 11 -23 1 -11
-8 -17 -9 -22 -1 -3 6 -11 7 -17 4 -20 -12 -116 -15 -123 -4 -7 11 -55 14 -55
3 0 -5 -27 -8 -60 -8 -52 0 -60 3 -60 18 0 11 14 31 30 45 20 18 30 36 30 54
0 24 4 28 28 28 18 0 38 -11 57 -30z m875 15 c0 -8 -4 -15 -10 -15 -5 0 -10 7
-10 15 0 8 5 15 10 15 6 0 10 -7 10 -15z m60 -6 c0 -5 -9 -9 -20 -9 -22 0 -27
16 -7 23 15 5 27 -1 27 -14z m-2070 1 c0 -5 -4 -10 -9 -10 -6 0 -13 5 -16 10
-3 6 1 10 9 10 9 0 16 -4 16 -10z m50 0 c0 -5 -4 -10 -10 -10 -5 0 -10 5 -10
10 0 6 5 10 10 10 6 0 10 -4 10 -10z m240 0 c0 -5 -4 -10 -10 -10 -5 0 -10 5
-10 10 0 6 5 10 10 10 6 0 10 -4 10 -10z m260 0 c0 -5 -4 -10 -10 -10 -5 0
-10 5 -10 10 0 6 5 10 10 10 6 0 10 -4 10 -10z m40 0 c0 -5 -4 -10 -10 -10 -5
0 -10 5 -10 10 0 6 5 10 10 10 6 0 10 -4 10 -10z m100 0 c0 -5 -4 -10 -10 -10
-5 0 -10 5 -10 10 0 6 5 10 10 10 6 0 10 -4 10 -10z m55 0 c-3 -5 -10 -10 -16
-10 -5 0 -9 5 -9 10 0 6 7 10 16 10 8 0 12 -4 9 -10z m185 0 c0 -5 -4 -10 -10
-10 -5 0 -10 5 -10 10 0 6 5 10 10 10 6 0 10 -4 10 -10z m260 0 c0 -5 -4 -10
-10 -10 -5 0 -10 5 -10 10 0 6 5 10 10 10 6 0 10 -4 10 -10z m40 0 c0 -5 -4
-10 -10 -10 -5 0 -10 5 -10 10 0 6 5 10 10 10 6 0 10 -4 10 -10z m100 0 c0 -5
-4 -10 -10 -10 -5 0 -10 5 -10 10 0 6 5 10 10 10 6 0 10 -4 10 -10z m40 0 c0
-5 -4 -10 -10 -10 -5 0 -10 5 -10 10 0 6 5 10 10 10 6 0 10 -4 10 -10z m140 0
c0 -5 -4 -10 -10 -10 -5 0 -10 5 -10 10 0 6 5 10 10 10 6 0 10 -4 10 -10z
m320 6 c0 -11 -19 -15 -25 -6 -3 5 1 10 9 10 9 0 16 -2 16 -4z m40 -5 c0 -6
-4 -13 -10 -16 -5 -3 -10 1 -10 9 0 9 5 16 10 16 6 0 10 -4 10 -9z m100 -1 c0
-5 -4 -10 -10 -10 -5 0 -10 5 -10 10 0 6 5 10 10 10 6 0 10 -4 10 -10z m-2040
-59 c0 -27 2 -28 52 -30 57 -1 80 -13 60 -33 -9 -9 -12 -9 -12 1 0 8 -6 11
-17 6 -10 -4 -40 -9 -67 -11 -78 -8 -116 43 -58 78 37 24 42 22 42 -11z m330
19 c0 -5 -4 -10 -10 -10 -5 0 -10 5 -10 10 0 6 5 10 10 10 6 0 10 -4 10 -10z
m50 -5 c0 -8 -4 -15 -10 -15 -5 0 -10 7 -10 15 0 8 5 15 10 15 6 0 10 -7 10
-15z m40 0 c0 -8 -4 -15 -10 -15 -5 0 -10 7 -10 15 0 8 5 15 10 15 6 0 10 -7
10 -15z m315 6 c3 -5 1 -12 -5 -16 -5 -3 -10 1 -10 9 0 18 6 21 15 7z m45 -7
c0 -8 -4 -12 -10 -9 -5 3 -10 10 -10 16 0 5 5 9 10 9 6 0 10 -7 10 -16z m50 1
c-7 -8 -16 -12 -21 -9 -13 8 -1 24 18 24 13 0 13 -3 3 -15z m230 0 c0 -8 -4
-15 -10 -15 -5 0 -10 7 -10 15 0 8 5 15 10 15 6 0 10 -7 10 -15z m1041 2 c-1
-12 -15 -9 -19 4 -3 6 1 10 8 8 6 -3 11 -8 11 -12z m-1181 -7 c0 -5 -4 -10
-10 -10 -5 0 -10 5 -10 10 0 6 5 10 10 10 6 0 10 -4 10 -10z m-627 -39 c4 -1
7 -9 7 -19 0 -14 -8 -19 -30 -19 -16 0 -30 5 -30 11 0 6 -5 5 -12 -2 -16 -16
-28 -15 -28 1 0 29 28 38 93 28z m644 -17 c7 -19 -6 -32 -15 -17 -5 8 -19 9
-45 4 -27 -7 -37 -6 -37 3 0 20 8 24 51 24 27 1 42 -4 46 -14z m641 -5 c2 -13
-4 -16 -30 -14 -18 2 -44 4 -57 4 -20 1 -22 3 -11 16 18 22 94 16 98 -6z
m-1418 -10 c0 -6 -4 -7 -10 -4 -5 3 -10 11 -10 16 0 6 5 7 10 4 6 -3 10 -11
10 -16z m880 1 c0 -5 -4 -10 -10 -10 -5 0 -10 5 -10 10 0 6 5 10 10 10 6 0 10
-4 10 -10z m1095 0 c-3 -5 -13 -10 -21 -10 -8 0 -14 5 -14 10 0 6 9 10 21 10
11 0 17 -4 14 -10z m-1767 -22 c19 -19 14 -25 -18 -25 -16 0 -30 1 -30 3 0 1
3 9 6 18 7 19 25 21 42 4z m640 -8 c11 -19 10 -20 -23 -20 -37 0 -43 8 -23 28
17 17 31 15 46 -8z m640 -7 c2 -9 -8 -13 -33 -13 -33 0 -36 2 -25 15 15 18 51
16 58 -2z m-1708 -3 c0 -5 -7 -10 -15 -10 -8 0 -15 5 -15 10 0 6 7 10 15 10 8
0 15 -4 15 -10z m205 0 c5 -8 11 -7 21 1 14 12 17 7 15 -21 -1 -9 14 -31 33
-49 28 -27 40 -33 66 -29 26 4 33 1 40 -18 5 -12 15 -24 22 -27 10 -3 10 -7 1
-17 -8 -9 -23 -10 -50 -4 -21 4 -45 8 -53 9 -8 1 -22 5 -31 9 -9 4 -34 3 -57
-2 -26 -6 -44 -6 -50 0 -13 13 -61 -21 -62 -43 0 -21 46 -64 55 -50 12 20 24
11 22 -16 -2 -23 2 -28 20 -27 15 0 24 -7 28 -23 3 -15 12 -23 23 -22 53 5 69
-11 31 -32 -17 -9 -25 -7 -43 10 -17 16 -25 18 -34 9 -8 -8 -15 -8 -26 1 -11
9 -15 9 -18 0 -3 -9 -9 -9 -25 0 -14 7 -24 8 -28 1 -8 -13 -25 -13 -25 0 0 6
7 10 15 10 8 0 15 8 15 19 0 15 -8 18 -42 18 -24 1 -51 -4 -60 -9 -12 -5 -26
-5 -39 2 -15 9 -24 8 -35 -1 -11 -9 -14 -9 -14 2 0 7 19 32 42 56 41 42 41 42
23 69 -14 22 -15 28 -4 35 19 12 36 11 44 -1 3 -5 18 -10 33 -10 21 0 38 12
65 44 40 49 45 67 22 86 -8 7 -12 16 -9 21 7 13 61 11 69 -1z m686 -22 c12
-45 49 -78 88 -78 29 0 38 -5 49 -27 18 -41 15 -46 -25 -39 -21 4 -49 7 -63 7
-14 1 -31 5 -37 11 -9 7 -17 7 -26 0 -7 -6 -32 -9 -56 -7 -43 4 -81 -10 -81
-31 0 -17 49 -66 59 -60 5 3 12 -5 15 -19 4 -16 13 -25 26 -25 11 0 24 -9 30
-20 6 -11 16 -20 23 -19 26 3 37 -2 37 -16 0 -19 -51 -20 -68 -3 -10 10 -15
10 -22 -1 -6 -10 -13 -12 -22 -5 -7 5 -30 9 -50 9 -39 0 -49 8 -23 19 8 3 15
12 15 21 0 18 -36 20 -44 3 -5 -10 -7 -10 -12 0 -7 14 -40 16 -49 3 -6 -11
-95 -9 -95 2 0 4 19 28 41 52 40 44 41 46 24 65 -9 10 -14 24 -10 29 8 14 52
14 60 1 3 -5 16 -10 28 -10 41 1 117 117 88 134 -6 4 -11 14 -11 22 0 12 11
14 52 11 45 -4 53 -8 59 -29z m329 11 c0 -5 -4 -9 -10 -9 -5 0 -10 7 -10 16 0
8 5 12 10 9 6 -3 10 -10 10 -16z m258 9 c8 -8 15 -8 27 2 13 11 15 9 15 -13 0
-14 12 -39 27 -56 22 -25 35 -31 68 -31 35 0 42 -4 54 -31 7 -16 10 -33 7 -36
-3 -4 -43 -1 -88 6 -62 10 -83 10 -88 1 -4 -7 -10 -8 -13 -3 -11 17 -89 9
-101 -9 -16 -27 15 -74 47 -70 21 2 24 -1 19 -23 -4 -21 -1 -25 21 -25 14 0
27 -6 30 -14 3 -7 20 -16 37 -19 19 -4 30 -12 28 -19 -6 -16 -34 -22 -56 -12
-25 11 -125 11 -139 1 -19 -14 -17 11 2 29 8 9 15 20 15 25 0 14 -27 11 -34
-3 -5 -10 -7 -10 -12 0 -7 15 -29 15 -54 0 -16 -10 -24 -10 -40 0 -12 7 -25
10 -30 7 -5 -3 -11 -1 -14 3 -3 5 13 26 34 47 38 37 39 40 24 63 -29 45 7 70
54 36 26 -18 37 -13 80 37 33 37 39 63 23 89 -6 8 -7 18 -5 22 8 12 48 10 62
-4z m382 -3 c0 -8 -4 -15 -10 -15 -5 0 -10 7 -10 15 0 8 5 15 10 15 6 0 10 -7
10 -15z m40 -1 c0 -8 -4 -12 -10 -9 -5 3 -10 10 -10 16 0 5 5 9 10 9 6 0 10
-7 10 -16z m50 -4 c-11 -20 -30 -28 -30 -12 0 11 22 32 32 32 5 0 4 -9 -2 -20z
m-598 -12 c-7 -7 -12 -8 -12 -2 0 6 3 14 7 17 3 4 9 5 12 2 2 -3 -1 -11 -7
-17z m268 12 c0 -5 -4 -10 -10 -10 -5 0 -10 5 -10 10 0 6 5 10 10 10 6 0 10
-4 10 -10z m-426 -51 c-3 -5 -10 -7 -15 -3 -5 3 -7 10 -3 15 3 5 10 7 15 3 5
-3 7 -10 3 -15z m146 6 c0 -8 -4 -15 -10 -15 -5 0 -10 7 -10 15 0 8 5 15 10
15 6 0 10 -7 10 -15z m576 -12 c-10 -10 -19 5 -10 18 6 11 8 11 12 0 2 -7 1
-15 -2 -18z m59 18 c3 -5 1 -12 -5 -16 -5 -3 -10 1 -10 9 0 18 6 21 15 7z
m-590 -11 c-3 -5 -10 -10 -16 -10 -5 0 -9 5 -9 10 0 6 7 10 16 10 8 0 12 -4 9
-10z m355 0 c0 -5 -4 -10 -10 -10 -5 0 -10 5 -10 10 0 6 5 10 10 10 6 0 10 -4
10 -10z m140 0 c0 -5 -4 -10 -10 -10 -5 0 -10 5 -10 10 0 6 5 10 10 10 6 0 10
-4 10 -10z m-2040 -40 c0 -5 -4 -10 -10 -10 -5 0 -10 5 -10 10 0 6 5 10 10 10
6 0 10 -4 10 -10z m50 0 c0 -5 -4 -10 -10 -10 -5 0 -10 5 -10 10 0 6 5 10 10
10 6 0 10 -4 10 -10z m190 0 c0 -5 -4 -10 -10 -10 -5 0 -10 5 -10 10 0 6 5 10
10 10 6 0 10 -4 10 -10z m1140 0 c0 -5 -4 -10 -10 -10 -5 0 -10 5 -10 10 0 6
5 10 10 10 6 0 10 -4 10 -10z m140 0 c0 -5 -4 -10 -10 -10 -5 0 -10 5 -10 10
0 6 5 10 10 10 6 0 10 -4 10 -10z m500 0 c0 -5 -4 -10 -10 -10 -5 0 -10 5 -10
10 0 6 5 10 10 10 6 0 10 -4 10 -10z m140 0 c0 -5 -4 -10 -10 -10 -5 0 -10 5
-10 10 0 6 5 10 10 10 6 0 10 -4 10 -10z m-2180 -50 c0 -5 -4 -10 -10 -10 -5
0 -10 5 -10 10 0 6 5 10 10 10 6 0 10 -4 10 -10z m740 -10 c0 -5 -4 -10 -10
-10 -5 0 -10 5 -10 10 0 6 5 10 10 10 6 0 10 -4 10 -10z m-764 -47 c-11 -11
-19 6 -11 24 8 17 8 17 12 0 3 -10 2 -21 -1 -24z m144 12 c0 -8 -4 -15 -10
-15 -5 0 -10 7 -10 15 0 8 5 15 10 15 6 0 10 -7 10 -15z m-100 -5 c0 -5 -4
-10 -10 -10 -5 0 -10 5 -10 10 0 6 5 10 10 10 6 0 10 -4 10 -10z m360 0 c0 -5
-4 -10 -10 -10 -5 0 -10 5 -10 10 0 6 5 10 10 10 6 0 10 -4 10 -10z m50 0 c0
-5 -4 -10 -10 -10 -5 0 -10 5 -10 10 0 6 5 10 10 10 6 0 10 -4 10 -10z m190 0
c0 -5 -4 -10 -10 -10 -5 0 -10 5 -10 10 0 6 5 10 10 10 6 0 10 -4 10 -10z
m140 0 c0 -5 -4 -10 -10 -10 -5 0 -10 5 -10 10 0 6 5 10 10 10 6 0 10 -4 10
-10z m260 0 c0 -5 -4 -10 -10 -10 -5 0 -10 5 -10 10 0 6 5 10 10 10 6 0 10 -4
10 -10z m50 0 c0 -5 -7 -10 -16 -10 -8 0 -12 5 -9 10 3 6 10 10 16 10 5 0 9
-4 9 -10z m230 1 c0 -6 -4 -13 -10 -16 -5 -3 -10 1 -10 9 0 9 5 16 10 16 6 0
10 -4 10 -9z m100 -1 c0 -5 -4 -10 -10 -10 -5 0 -10 5 -10 10 0 6 5 10 10 10
6 0 10 -4 10 -10z m300 0 c0 -5 -4 -10 -10 -10 -5 0 -10 5 -10 10 0 6 5 10 10
10 6 0 10 -4 10 -10z m200 0 c0 -5 -4 -10 -10 -10 -5 0 -10 5 -10 10 0 6 5 10
10 10 6 0 10 -4 10 -10z m40 1 c0 -6 -4 -13 -10 -16 -5 -3 -10 1 -10 9 0 9 5
16 10 16 6 0 10 -4 10 -9z m44 -12 c-3 -5 -10 -7 -15 -3 -5 3 -7 10 -3 15 3 5
10 7 15 3 5 -3 7 -10 3 -15z m56 11 c0 -5 -4 -10 -10 -10 -5 0 -10 5 -10 10 0
6 5 10 10 10 6 0 10 -4 10 -10z m260 0 c0 -5 -4 -10 -10 -10 -5 0 -10 5 -10
10 0 6 5 10 10 10 6 0 10 -4 10 -10z m40 0 c0 -5 -4 -10 -10 -10 -5 0 -10 5
-10 10 0 6 5 10 10 10 6 0 10 -4 10 -10z m-2340 -40 c0 -5 -4 -10 -10 -10 -5
0 -10 5 -10 10 0 6 5 10 10 10 6 0 10 -4 10 -10z m100 0 c0 -5 -4 -10 -10 -10
-5 0 -10 5 -10 10 0 6 5 10 10 10 6 0 10 -4 10 -10z m1180 0 c0 -5 -4 -10 -10
-10 -5 0 -10 5 -10 10 0 6 5 10 10 10 6 0 10 -4 10 -10z m40 0 c0 -5 -4 -10
-10 -10 -5 0 -10 5 -10 10 0 6 5 10 10 10 6 0 10 -4 10 -10z m500 -5 c0 -8 -4
-15 -10 -15 -5 0 -10 7 -10 15 0 8 5 15 10 15 6 0 10 -7 10 -15z m100 6 c0 -6
-4 -13 -10 -16 -5 -3 -10 1 -10 9 0 9 5 16 10 16 6 0 10 -4 10 -9z m-1845 -41
c12 -19 -5 -30 -27 -17 -16 9 -22 9 -25 -1 -5 -13 -23 -7 -23 8 0 17 65 26 75
10z m495 -21 c0 -5 -4 -9 -10 -9 -5 0 -10 7 -10 16 0 8 5 12 10 9 6 -3 10 -10
10 -16z m1210 6 c0 -8 -4 -15 -10 -15 -5 0 -10 7 -10 15 0 8 5 15 10 15 6 0
10 -7 10 -15z m56 -12 c-10 -10 -19 5 -10 18 6 11 8 11 12 0 2 -7 1 -15 -2
-18z m-1216 7 c0 -5 -4 -10 -10 -10 -5 0 -10 5 -10 10 0 6 5 10 10 10 6 0 10
-4 10 -10z m657 -46 c-9 -9 -28 6 -21 18 4 6 10 6 17 -1 6 -6 8 -13 4 -17z
m535 -6 c-9 -9 -15 -9 -24 0 -10 10 -10 15 2 22 9 6 19 5 24 0 7 -7 6 -14 -2
-22z m195 -5 c-16 -16 -17 -16 -17 3 0 26 11 37 24 24 7 -7 5 -16 -7 -27z
m-2007 17 c0 -5 -4 -10 -10 -10 -5 0 -10 5 -10 10 0 6 5 10 10 10 6 0 10 -4
10 -10z m140 0 c0 -5 -4 -10 -10 -10 -5 0 -10 5 -10 10 0 6 5 10 10 10 6 0 10
-4 10 -10z m100 0 c0 -5 -4 -10 -10 -10 -5 0 -10 5 -10 10 0 6 5 10 10 10 6 0
10 -4 10 -10z m300 -6 c0 -9 -5 -14 -12 -12 -18 6 -21 28 -4 28 9 0 16 -7 16
-16z m60 6 c0 -5 -4 -10 -10 -10 -5 0 -10 5 -10 10 0 6 5 10 10 10 6 0 10 -4
10 -10z m140 0 c0 -5 -4 -10 -10 -10 -5 0 -10 5 -10 10 0 6 5 10 10 10 6 0 10
-4 10 -10z m40 0 c0 -5 -4 -10 -10 -10 -5 0 -10 5 -10 10 0 6 5 10 10 10 6 0
10 -4 10 -10z m100 0 c0 -5 -4 -10 -10 -10 -5 0 -10 5 -10 10 0 6 5 10 10 10
6 0 10 -4 10 -10z m300 -8 c0 -18 37 -42 62 -42 18 0 78 -70 78 -91 0 -11 -4
-19 -10 -19 -5 0 -10 5 -10 11 0 6 -9 8 -20 4 -15 -5 -20 -2 -20 12 0 24 -57
50 -73 34 -6 -6 -21 -11 -34 -11 -12 0 -26 -6 -30 -14 -8 -13 -53 -32 -53 -22
0 2 13 19 30 37 16 18 27 36 24 41 -3 4 6 12 20 18 29 11 34 25 11 34 -22 8
-18 26 5 26 13 0 20 -7 20 -18z m280 2 c0 -8 -4 -12 -10 -9 -5 3 -10 10 -10
16 0 5 5 9 10 9 6 0 10 -7 10 -16z m60 6 c0 -5 -7 -10 -16 -10 -8 0 -12 5 -9
10 3 6 10 10 16 10 5 0 9 -4 9 -10z m355 0 c-3 -5 -13 -10 -21 -10 -8 0 -12 5
-9 10 3 6 13 10 21 10 8 0 12 -4 9 -10z m85 -6 c0 -8 -4 -12 -10 -9 -5 3 -10
10 -10 16 0 5 5 9 10 9 6 0 10 -7 10 -16z m200 6 c0 -5 -7 -10 -16 -10 -8 0
-12 5 -9 10 3 6 10 10 16 10 5 0 9 -4 9 -10z m-840 -10 c0 -5 -4 -10 -10 -10
-5 0 -10 5 -10 10 0 6 5 10 10 10 6 0 10 -4 10 -10z m780 0 c0 -5 -4 -10 -10
-10 -5 0 -10 5 -10 10 0 6 5 10 10 10 6 0 10 -4 10 -10z m-2099 -55 c13 0 38
-44 39 -67 0 -21 -16 -24 -23 -5 -3 8 -10 6 -21 -8 -15 -20 -15 -19 -16 6 0
15 -7 29 -15 33 -15 6 -21 57 -8 70 4 4 13 -1 21 -11 7 -10 18 -18 23 -18z
m119 26 c0 -6 -4 -13 -10 -16 -5 -3 -10 1 -10 9 0 9 5 16 10 16 6 0 10 -4 10
-9z m40 -7 c0 -8 -5 -12 -10 -9 -6 4 -8 11 -5 16 9 14 15 11 15 -7z m406 5 c3
-6 15 -9 25 -6 12 3 23 -2 29 -14 6 -10 16 -19 23 -19 7 0 20 -15 28 -33 l15
-34 -28 1 c-15 1 -28 6 -28 12 0 14 -44 44 -63 44 -8 0 -20 -6 -27 -14 -6 -8
-18 -12 -26 -9 -10 4 -14 -2 -14 -21 0 -14 -4 -26 -10 -26 -5 0 -10 5 -10 10
0 6 -11 8 -25 4 -16 -4 -25 -2 -25 6 0 7 11 21 25 32 15 11 25 30 25 44 0 20
4 24 19 19 11 -3 22 -1 26 5 8 13 32 13 41 -1z m1330 -24 c6 -8 16 -15 22 -15
9 0 42 -49 42 -63 0 -2 -13 -4 -30 -4 -21 0 -30 5 -30 16 0 22 -58 47 -73 32
-6 -6 -20 -11 -30 -11 -10 0 -21 -9 -24 -20 -4 -14 -14 -20 -34 -20 -36 0 -36
10 -4 40 14 13 25 34 25 46 0 22 3 23 62 19 41 -3 67 -10 74 -20z m279 16 c3
-5 1 -12 -5 -16 -5 -3 -10 1 -10 9 0 18 6 21 15 7z m45 -6 c0 -8 -4 -15 -10
-15 -5 0 -10 7 -10 15 0 8 5 15 10 15 6 0 10 -7 10 -15z m100 -6 c0 -5 -4 -9
-10 -9 -5 0 -10 7 -10 16 0 8 5 12 10 9 6 -3 10 -10 10 -16z m-60 1 c0 -5 -4
-10 -10 -10 -5 0 -10 5 -10 10 0 6 5 10 10 10 6 0 10 -4 10 -10z m-2123 -41
c-7 -25 49 -81 75 -75 12 3 18 -4 20 -23 2 -20 8 -26 26 -25 12 0 22 -2 22 -6
0 -4 24 -6 52 -4 32 1 56 -2 60 -9 13 -20 9 -30 -7 -17 -11 9 -18 10 -28 1 -8
-6 -16 -8 -19 -5 -10 10 -78 12 -78 3 0 -13 -64 -11 -78 3 -10 10 -17 10 -34
-1 -17 -11 -22 -11 -29 1 -6 8 -12 9 -16 3 -12 -16 -77 -11 -81 6 -1 8 13 30
32 48 29 28 34 39 29 64 -5 26 -4 29 14 23 15 -5 22 -1 26 14 3 11 8 20 12 20
4 0 5 -9 2 -21z m103 6 c0 -8 -4 -15 -10 -15 -5 0 -10 7 -10 15 0 8 5 15 10
15 6 0 10 -7 10 -15z m40 5 c0 -6 -6 -19 -12 -30 -10 -16 -10 -24 0 -40 15
-24 15 -30 2 -30 -5 0 -10 7 -10 15 0 8 -4 15 -10 15 -5 0 -10 9 -10 20 0 11
5 20 10 20 6 0 10 9 10 20 0 11 5 20 10 20 6 0 10 -5 10 -10z m100 -5 c0 -8
-4 -15 -10 -15 -5 0 -10 7 -10 15 0 8 5 15 10 15 6 0 10 -7 10 -15z m-190 -5
c0 -5 -7 -7 -15 -4 -8 4 -15 8 -15 10 0 2 7 4 15 4 8 0 15 -4 15 -10z m234
-11 c-3 -5 -10 -7 -15 -3 -5 3 -7 10 -3 15 3 5 10 7 15 3 5 -3 7 -10 3 -15z
m356 11 c0 -5 -4 -10 -10 -10 -5 0 -10 5 -10 10 0 6 5 10 10 10 6 0 10 -4 10
-10z m200 0 c0 -5 -4 -10 -10 -10 -5 0 -10 5 -10 10 0 6 5 10 10 10 6 0 10 -4
10 -10z m80 0 c0 -5 -4 -10 -10 -10 -5 0 -10 5 -10 10 0 6 5 10 10 10 6 0 10
-4 10 -10z m400 0 c0 -5 -4 -10 -10 -10 -5 0 -10 5 -10 10 0 6 5 10 10 10 6 0
10 -4 10 -10z m55 0 c3 -5 -1 -10 -9 -10 -9 0 -16 5 -16 10 0 6 4 10 9 10 6 0
13 -4 16 -10z m185 0 c0 -5 -4 -10 -10 -10 -5 0 -10 5 -10 10 0 6 5 10 10 10
6 0 10 -4 10 -10z m400 0 c0 -5 -4 -10 -10 -10 -5 0 -10 5 -10 10 0 6 5 10 10
10 6 0 10 -4 10 -10z m100 0 c0 -5 -4 -10 -10 -10 -5 0 -10 5 -10 10 0 6 5 10
10 10 6 0 10 -4 10 -10z m100 0 c0 -5 -7 -10 -15 -10 -8 0 -15 5 -15 10 0 6 7
10 15 10 8 0 15 -4 15 -10z m-1493 -59 c19 -18 41 -30 48 -27 9 3 15 -4 17
-22 3 -25 5 -26 60 -25 31 0 62 4 69 8 11 7 39 -18 39 -35 0 -4 -31 -6 -70 -5
-38 1 -70 -2 -70 -7 0 -13 -32 -9 -63 7 -18 9 -35 12 -45 7 -19 -10 -117 -10
-127 -1 -10 11 17 58 37 64 12 4 18 16 18 34 0 15 2 30 5 33 13 12 50 -1 82
-31z m684 -23 c14 2 19 -3 19 -18 0 -26 10 -30 85 -33 33 -1 66 -6 73 -10 18
-12 15 -29 -5 -23 -17 5 -54 -9 -43 -16 30 -19 52 -27 65 -22 11 5 15 0 15
-18 0 -14 12 -35 28 -50 21 -20 36 -25 68 -23 36 2 42 0 53 -26 7 -16 10 -33
6 -39 -8 -12 -57 -13 -70 -1 -13 12 -94 21 -100 11 -2 -4 -26 -6 -51 -4 -26 2
-53 -1 -61 -7 -30 -25 -5 -87 30 -73 11 4 16 -2 19 -23 2 -23 7 -28 30 -26 18
1 28 -4 31 -18 3 -13 14 -19 32 -19 20 0 26 -4 23 -17 -4 -24 -32 -28 -52 -8
-9 10 -21 13 -28 8 -19 -11 -72 -10 -80 2 -5 6 -11 5 -17 -5 -6 -8 -13 -11
-17 -7 -4 3 4 15 17 26 20 16 22 22 11 33 -10 10 -16 10 -33 0 -16 -10 -24
-10 -35 -1 -11 9 -20 8 -40 -5 -19 -13 -29 -14 -38 -6 -8 5 -20 8 -29 4 -31
-12 -24 14 15 55 l42 42 -18 30 c-17 29 -17 29 6 38 16 6 28 5 39 -5 24 -21
40 -17 81 21 41 38 46 49 34 83 -5 14 -3 28 4 37 25 30 -12 39 -82 20 -16 -4
-35 -2 -50 6 -12 7 -27 12 -33 10 -5 -2 -38 -4 -72 -5 -54 -1 -63 1 -63 16 0
17 36 58 52 58 4 0 8 13 8 29 0 43 35 46 78 7 19 -18 42 -30 53 -28z m-1191
43 c0 -6 -4 -13 -10 -16 -5 -3 -10 1 -10 9 0 9 5 16 10 16 6 0 10 -4 10 -9z
m100 -1 c0 -5 -4 -10 -10 -10 -5 0 -10 5 -10 10 0 6 5 10 10 10 6 0 10 -4 10
-10z m500 0 c0 -5 -4 -10 -10 -10 -5 0 -10 5 -10 10 0 6 5 10 10 10 6 0 10 -4
10 -10z m95 1 c3 -5 1 -12 -5 -16 -5 -3 -10 1 -10 9 0 18 6 21 15 7z m45 -1
c0 -5 -4 -10 -10 -10 -5 0 -10 5 -10 10 0 6 5 10 10 10 6 0 10 -4 10 -10z
m540 0 c0 -5 -4 -10 -10 -10 -5 0 -10 5 -10 10 0 6 5 10 10 10 6 0 10 -4 10
-10z m503 -20 c14 -16 33 -30 41 -30 9 0 16 -5 16 -12 0 -6 10 -22 22 -35 19
-21 20 -26 8 -34 -8 -5 -26 -7 -40 -3 -14 3 -62 5 -107 4 -78 -2 -83 0 -83 19
0 12 14 33 30 48 17 15 30 36 30 50 0 36 51 32 83 -7z m87 20 c0 -5 -4 -10
-10 -10 -5 0 -10 5 -10 10 0 6 5 10 10 10 6 0 10 -4 10 -10z m191 -3 c-1 -12
-15 -9 -19 4 -3 6 1 10 8 8 6 -3 11 -8 11 -12z m-2383 -38 c-2 -6 -8 -10 -13
-10 -5 0 -11 4 -13 10 -2 6 4 11 13 11 9 0 15 -5 13 -11z m450 0 c-2 -6 -8
-10 -13 -10 -5 0 -11 4 -13 10 -2 6 4 11 13 11 9 0 15 -5 13 -11z m1907 -8 c3
-5 1 -12 -5 -16 -5 -3 -10 1 -10 9 0 18 6 21 15 7z m68 -51 c22 -26 14 -44
-13 -30 -10 5 -26 7 -36 3 -15 -6 -15 -4 1 20 21 32 25 33 48 7z m-1865 -11
c2 -13 -6 -16 -50 -13 -29 1 -55 3 -57 3 -2 1 2 8 9 16 18 22 94 17 98 -6z
m634 3 c17 -17 9 -19 -44 -14 -34 3 -45 8 -41 17 6 17 67 15 85 -3z m58 8 c0
-5 -4 -10 -10 -10 -5 0 -10 5 -10 10 0 6 5 10 10 10 6 0 10 -4 10 -10z m578
-3 c23 -18 12 -24 -43 -26 -54 -1 -65 5 -45 25 14 14 71 14 88 1z m500 1 c24
-20 11 -28 -46 -28 -51 0 -82 11 -82 30 0 10 115 9 128 -2z m-1061 -63 c-4 -9
-46 -9 -56 1 -2 2 2 10 8 18 10 12 16 13 32 3 10 -6 17 -16 16 -22z m-639 8
c2 -9 -7 -13 -27 -13 -31 0 -42 14 -18 23 19 8 40 3 45 -10z m436 -7 c11 4 16
0 16 -12 0 -11 13 -33 29 -50 23 -25 36 -31 65 -30 30 1 40 -4 54 -27 15 -24
15 -29 2 -37 -8 -5 -22 -7 -30 -4 -33 12 -125 23 -133 15 -4 -4 -29 -6 -55 -3
-61 5 -81 -13 -62 -58 9 -21 19 -30 36 -30 17 0 24 -6 24 -18 0 -26 11 -34 27
-20 11 9 15 7 19 -9 4 -13 17 -23 35 -27 29 -6 40 -31 17 -39 -18 -5 -48 4
-48 15 0 5 -5 6 -10 3 -20 -12 -79 -15 -85 -5 -5 8 -11 7 -21 -1 -24 -20 -29
0 -6 24 26 27 19 41 -11 25 -16 -8 -22 -8 -25 1 -5 14 -37 14 -61 -1 -11 -6
-26 -8 -37 -3 -11 5 -22 7 -26 7 -19 -4 -5 20 27 49 37 34 44 56 20 65 -8 4
-15 15 -15 25 0 14 7 19 29 19 17 0 33 -4 36 -10 13 -21 44 -9 80 31 33 36 36
45 30 77 -8 43 9 58 42 37 12 -8 29 -12 37 -9z m-1074 4 c0 -5 -4 -10 -10 -10
-5 0 -10 5 -10 10 0 6 5 10 10 10 6 0 10 -4 10 -10z m50 -5 c0 -8 -4 -15 -10
-15 -5 0 -10 7 -10 15 0 8 5 15 10 15 6 0 10 -7 10 -15z m360 4 c0 -6 9 -8 20
-4 15 5 20 2 20 -12 0 -11 15 -33 33 -50 26 -26 39 -31 70 -28 22 2 37 -1 37
-8 0 -6 7 -18 15 -27 14 -15 14 -18 0 -30 -13 -11 -23 -11 -54 0 -21 7 -44 9
-50 5 -7 -4 -19 -1 -27 6 -13 10 -20 10 -36 0 -17 -10 -22 -10 -29 0 -6 10
-11 10 -21 1 -9 -7 -18 -8 -24 -2 -13 13 -54 -16 -54 -39 0 -27 35 -54 59 -46
17 5 20 2 18 -22 -2 -22 2 -28 18 -26 11 1 24 -5 28 -13 8 -13 11 -13 23 3 10
13 13 14 14 4 0 -8 7 -23 16 -33 16 -16 16 -18 0 -24 -9 -3 -16 -15 -16 -26 0
-10 -4 -17 -10 -13 -5 3 -7 12 -4 19 3 7 -3 17 -13 21 -27 11 -133 14 -133 4
0 -5 -4 -9 -10 -9 -16 0 -12 27 5 34 8 3 15 12 15 21 0 18 -26 20 -33 3 -4
-10 -7 -10 -18 0 -18 17 -39 15 -61 -4 -13 -13 -21 -14 -32 -5 -7 6 -21 9 -30
5 -28 -11 -18 20 19 56 33 34 46 70 25 70 -5 0 -10 9 -10 20 0 15 7 20 29 20
17 0 33 -4 36 -10 12 -19 36 -10 75 29 39 38 51 73 30 86 -24 15 -9 35 25 35
19 0 35 -5 35 -11z m1500 1 c0 -5 -12 -10 -26 -10 -14 0 -23 4 -19 10 3 6 15
10 26 10 10 0 19 -4 19 -10z m438 -7 c12 -3 22 -13 22 -22 0 -9 18 -33 39 -54
23 -22 38 -44 34 -52 -7 -19 -43 -29 -55 -17 -8 8 -19 7 -39 -3 -15 -8 -30
-12 -32 -7 -9 14 -70 7 -80 -10 -15 -23 6 -68 32 -68 13 0 21 -8 23 -22 2 -14
11 -24 23 -26 11 -2 25 -11 32 -19 7 -9 19 -13 27 -10 8 3 22 -1 33 -8 14 -11
16 -16 5 -26 -9 -10 -19 -10 -45 -2 -17 6 -60 10 -94 9 -64 -4 -75 2 -48 24 8
7 15 19 15 26 0 19 -27 17 -34 -2 -6 -15 -8 -15 -27 2 -16 15 -23 16 -37 6
-30 -22 -46 -26 -50 -14 -2 7 -13 10 -28 6 -36 -9 -30 11 16 52 44 40 47 46
25 68 -23 22 -18 43 11 49 18 3 33 -2 45 -14 24 -24 44 -15 83 36 23 29 27 43
22 70 -7 36 4 48 39 39 11 -3 30 -8 43 -11z m-2198 -3 c0 -5 -4 -10 -10 -10
-5 0 -10 5 -10 10 0 6 5 10 10 10 6 0 10 -4 10 -10z m40 0 c0 -5 -4 -10 -10
-10 -5 0 -10 5 -10 10 0 6 5 10 10 10 6 0 10 -4 10 -10z m-210 -45 c0 -9 -7
-18 -15 -21 -8 -4 -15 -13 -15 -21 0 -8 -4 -12 -9 -8 -6 3 -3 18 7 35 19 33
32 39 32 15z m50 -5 c0 -11 -4 -20 -10 -20 -5 0 -10 9 -10 20 0 11 5 20 10 20
6 0 10 -9 10 -20z m1560 5 c0 -8 -4 -15 -10 -15 -5 0 -10 7 -10 15 0 8 5 15
10 15 6 0 10 -7 10 -15z m851 -8 c-13 -13 -26 -3 -16 12 3 6 11 8 17 5 6 -4 6
-10 -1 -17z m-1231 3 c0 -5 -4 -10 -10 -10 -5 0 -10 5 -10 10 0 6 5 10 10 10
6 0 10 -4 10 -10z m240 0 c0 -5 -4 -10 -10 -10 -5 0 -10 5 -10 10 0 6 5 10 10
10 6 0 10 -4 10 -10z m40 -6 c0 -8 -4 -12 -10 -9 -5 3 -10 10 -10 16 0 5 5 9
10 9 6 0 10 -7 10 -16z m640 6 c0 -5 -4 -10 -10 -10 -5 0 -10 5 -10 10 0 6 5
10 10 10 6 0 10 -4 10 -10z m-2080 -39 c0 -6 -4 -13 -10 -16 -5 -3 -10 1 -10
9 0 9 5 16 10 16 6 0 10 -4 10 -9z m140 -1 c0 -5 -4 -10 -10 -10 -5 0 -10 5
-10 10 0 6 5 10 10 10 6 0 10 -4 10 -10z m100 0 c0 -5 -4 -10 -10 -10 -5 0
-10 5 -10 10 0 6 5 10 10 10 6 0 10 -4 10 -10z m400 0 c0 -5 -4 -10 -10 -10
-5 0 -10 5 -10 10 0 6 5 10 10 10 6 0 10 -4 10 -10z m50 0 c0 -5 -4 -10 -10
-10 -5 0 -10 5 -10 10 0 6 5 10 10 10 6 0 10 -4 10 -10z m820 0 c0 -5 -4 -10
-9 -10 -6 0 -13 5 -16 10 -3 6 1 10 9 10 9 0 16 -4 16 -10z m410 0 c0 -5 -4
-10 -10 -10 -5 0 -10 5 -10 10 0 6 5 10 10 10 6 0 10 -4 10 -10z m40 0 c0 -5
-4 -10 -10 -10 -5 0 -10 5 -10 10 0 6 5 10 10 10 6 0 10 -4 10 -10z m-2032
-42 c-7 -19 -38 -22 -38 -4 0 10 9 16 21 16 12 0 19 -5 17 -12z m52 3 c0 -6
-4 -13 -10 -16 -5 -3 -10 1 -10 9 0 9 5 16 10 16 6 0 10 -4 10 -9z m100 0 c0
-6 -4 -13 -10 -16 -5 -3 -10 1 -10 9 0 9 5 16 10 16 6 0 10 -4 10 -9z m540 -1
c0 -5 -4 -10 -10 -10 -5 0 -10 5 -10 10 0 6 5 10 10 10 6 0 10 -4 10 -10z
m100 0 c0 -5 -4 -10 -10 -10 -5 0 -10 5 -10 10 0 6 5 10 10 10 6 0 10 -4 10
-10z m530 -6 c0 -8 -5 -12 -10 -9 -6 4 -8 11 -5 16 9 14 15 11 15 -7z m50 1
c0 -8 -4 -15 -10 -15 -5 0 -10 7 -10 15 0 8 5 15 10 15 6 0 10 -7 10 -15z
m640 -6 c0 -5 -4 -9 -10 -9 -5 0 -10 7 -10 16 0 8 5 12 10 9 6 -3 10 -10 10
-16z m50 1 c0 -11 -7 -20 -15 -20 -8 0 -15 9 -15 20 0 11 7 20 15 20 8 0 15
-9 15 -20z m-1890 -41 c0 -5 -4 -9 -10 -9 -5 0 -10 7 -10 16 0 8 5 12 10 9 6
-3 10 -10 10 -16z m357 -15 c-9 -9 -28 6 -21 18 4 6 10 6 17 -1 6 -6 8 -13 4
-17z m-97 6 c0 -5 -4 -10 -10 -10 -5 0 -10 5 -10 10 0 6 5 10 10 10 6 0 10 -4
10 -10z m600 0 c0 -5 -4 -10 -10 -10 -5 0 -10 5 -10 10 0 6 5 10 10 10 6 0 10
-4 10 -10z m960 0 c0 -5 -4 -10 -10 -10 -5 0 -10 5 -10 10 0 6 5 10 10 10 6 0
10 -4 10 -10z m100 0 c0 -5 -4 -10 -9 -10 -6 0 -13 5 -16 10 -3 6 1 10 9 10 9
0 16 -4 16 -10z m300 0 c0 -5 -4 -10 -10 -10 -5 0 -10 5 -10 10 0 6 5 10 10
10 6 0 10 -4 10 -10z m-2400 -40 c0 -5 -4 -10 -10 -10 -5 0 -10 5 -10 10 0 6
5 10 10 10 6 0 10 -4 10 -10z m60 1 c0 -6 -4 -13 -10 -16 -5 -3 -10 1 -10 9 0
9 5 16 10 16 6 0 10 -4 10 -9z m400 -1 c0 -5 -4 -10 -10 -10 -5 0 -10 5 -10
10 0 6 5 10 10 10 6 0 10 -4 10 -10z m240 1 c0 -6 -4 -13 -10 -16 -5 -3 -10 1
-10 9 0 9 5 16 10 16 6 0 10 -4 10 -9z m1270 -11 c0 -5 -4 -10 -10 -10 -5 0
-10 5 -10 10 0 6 5 10 10 10 6 0 10 -4 10 -10z m-1890 -35 c0 -8 -4 -15 -10
-15 -5 0 -10 7 -10 15 0 8 5 15 10 15 6 0 10 -7 10 -15z m-50 -5 c0 -5 -4 -10
-10 -10 -5 0 -10 5 -10 10 0 6 5 10 10 10 6 0 10 -4 10 -10z m690 -6 c0 -8 -5
-12 -10 -9 -6 4 -8 11 -5 16 9 14 15 11 15 -7z m40 6 c0 -5 -4 -10 -10 -10 -5
0 -10 5 -10 10 0 6 5 10 10 10 6 0 10 -4 10 -10z m1180 0 c0 -5 -4 -10 -10
-10 -5 0 -10 5 -10 10 0 6 5 10 10 10 6 0 10 -4 10 -10z m100 0 c0 -5 -4 -10
-10 -10 -5 0 -10 5 -10 10 0 6 5 10 10 10 6 0 10 -4 10 -10z m-40 -10 c0 -5
-4 -10 -10 -10 -5 0 -10 5 -10 10 0 6 5 10 10 10 6 0 10 -4 10 -10z m-1940
-41 c0 -5 -4 -9 -10 -9 -5 0 -10 7 -10 16 0 8 5 12 10 9 6 -3 10 -10 10 -16z
m40 5 c0 -8 -4 -12 -10 -9 -5 3 -10 10 -10 16 0 5 5 9 10 9 6 0 10 -7 10 -16z
m498 -2 c2 -7 -3 -12 -12 -12 -9 0 -16 7 -16 16 0 17 22 14 28 -4z m647 -15
c6 -13 19 -22 32 -22 12 0 31 -10 43 -22 11 -13 25 -23 29 -23 5 0 11 -13 13
-29 5 -34 -7 -32 -60 8 -28 20 -37 23 -53 13 -10 -7 -30 -12 -44 -12 -16 0
-25 -6 -25 -15 0 -8 -7 -15 -15 -15 -8 0 -15 4 -15 9 0 5 7 16 15 25 8 8 15
21 15 29 0 8 10 22 23 30 18 13 19 18 8 25 -16 11 -6 33 12 26 7 -2 17 -14 22
-27z m625 20 c0 -23 45 -58 57 -46 8 8 14 5 22 -10 7 -12 18 -21 26 -21 12 0
51 -68 43 -76 -9 -8 -58 10 -58 21 0 8 -12 20 -28 27 -24 12 -32 12 -70 -4
-23 -10 -42 -23 -42 -28 0 -5 -11 -9 -25 -8 -30 3 -31 6 -3 35 12 12 22 33 23
45 1 17 7 22 23 20 15 -2 22 2 22 12 0 9 -4 16 -10 16 -5 0 -10 7 -10 15 0 8
7 15 15 15 8 0 15 -6 15 -13z m-1670 -7 c0 -5 -4 -10 -10 -10 -5 0 -10 5 -10
10 0 6 5 10 10 10 6 0 10 -4 10 -10z m500 0 c0 -5 -4 -10 -10 -10 -5 0 -10 5
-10 10 0 6 5 10 10 10 6 0 10 -4 10 -10z m860 -6 c0 -8 -4 -12 -10 -9 -5 3
-10 10 -10 16 0 5 5 9 10 9 6 0 10 -7 10 -16z m444 -18 c-7 -30 -24 -35 -24
-8 0 18 20 45 27 38 2 -2 1 -15 -3 -30z m56 24 c0 -5 -4 -10 -10 -10 -5 0 -10
5 -10 10 0 6 5 10 10 10 6 0 10 -4 10 -10z m-1930 -41 c0 -5 -7 -9 -15 -9 -15
0 -20 12 -9 23 8 8 24 -1 24 -14z m190 0 c0 -5 -7 -9 -15 -9 -15 0 -20 12 -9
23 8 8 24 -1 24 -14z m295 11 c3 -5 17 -10 31 -10 14 0 27 -7 30 -15 4 -8 14
-15 24 -15 12 0 22 -12 30 -36 12 -35 6 -60 -9 -36 -4 7 -15 10 -24 6 -12 -4
-17 -1 -17 10 0 8 -11 23 -25 32 -21 13 -30 14 -53 5 -16 -7 -35 -11 -43 -9
-8 2 -15 -7 -17 -19 -2 -17 -10 -23 -28 -23 -31 0 -30 10 1 40 14 13 25 34 25
47 0 19 4 23 19 18 11 -3 22 -1 26 5 8 13 22 13 30 0z m-575 -15 c0 -8 5 -15
10 -15 6 0 10 7 10 15 0 28 18 15 23 -17 3 -18 8 -46 12 -63 6 -29 6 -29 -9
-11 -16 20 -16 20 -31 0 -15 -18 -15 -18 -10 7 5 20 1 27 -20 37 -18 8 -25 18
-21 28 3 9 6 20 6 25 0 5 7 9 15 9 8 0 15 -7 15 -15z m180 5 c0 -5 -4 -10 -10
-10 -5 0 -10 5 -10 10 0 6 5 10 10 10 6 0 10 -4 10 -10z m40 0 c0 -5 -4 -10
-10 -10 -5 0 -10 5 -10 10 0 6 5 10 10 10 6 0 10 -4 10 -10z m100 0 c0 -5 -4
-10 -10 -10 -5 0 -10 5 -10 10 0 6 5 10 10 10 6 0 10 -4 10 -10z m100 0 c0 -5
-4 -10 -10 -10 -5 0 -10 5 -10 10 0 6 5 10 10 10 6 0 10 -4 10 -10z m265 0
c-3 -5 -10 -10 -16 -10 -5 0 -9 5 -9 10 0 6 7 10 16 10 8 0 12 -4 9 -10z m40
0 c3 -5 -1 -10 -9 -10 -9 0 -16 5 -16 10 0 6 4 10 9 10 6 0 13 -4 16 -10z
m195 0 c0 -5 -4 -10 -10 -10 -5 0 -10 5 -10 10 0 6 5 10 10 10 6 0 10 -4 10
-10z m440 0 c0 -5 -4 -10 -10 -10 -5 0 -10 5 -10 10 0 6 5 10 10 10 6 0 10 -4
10 -10z m100 0 c0 -5 -4 -10 -10 -10 -5 0 -10 5 -10 10 0 6 5 10 10 10 6 0 10
-4 10 -10z m40 0 c0 -5 -4 -10 -10 -10 -5 0 -10 5 -10 10 0 6 5 10 10 10 6 0
10 -4 10 -10z m50 -6 c0 -8 -5 -12 -10 -9 -6 4 -8 11 -5 16 9 14 15 11 15 -7z
m98 5 c-2 -6 -8 -10 -13 -10 -5 0 -11 4 -13 10 -2 6 4 11 13 11 9 0 15 -5 13
-11z m52 -4 c0 -8 5 -15 10 -15 6 0 10 5 10 11 0 5 4 7 10 4 6 -4 5 -13 -3
-25 -14 -24 -27 -26 -27 -5 0 8 -4 15 -10 15 -5 0 -10 7 -10 15 0 8 5 15 10
15 6 0 10 -7 10 -15z m300 -5 c0 -11 5 -20 10 -20 6 0 10 9 10 21 0 12 5 19
13 17 18 -7 21 -38 4 -38 -9 0 -17 -6 -19 -12 -3 -9 -9 -8 -21 4 -19 18 -23
48 -7 48 6 0 10 -9 10 -20z m100 11 c0 -6 -4 -13 -10 -16 -5 -3 -10 1 -10 9 0
9 5 16 10 16 6 0 10 -4 10 -9z m40 -1 c0 -5 -4 -10 -10 -10 -5 0 -10 5 -10 10
0 6 5 10 10 10 6 0 10 -4 10 -10z m54 -5 c3 -8 1 -15 -4 -15 -6 0 -10 7 -10
15 0 8 2 15 4 15 2 0 6 -7 10 -15z m131 5 c3 -5 -1 -10 -10 -10 -9 0 -13 5
-10 10 3 6 8 10 10 10 2 0 7 -4 10 -10z m-1985 -40 c0 -5 -4 -10 -10 -10 -5 0
-10 5 -10 10 0 6 5 10 10 10 6 0 10 -4 10 -10z m410 0 c0 -5 -4 -10 -10 -10
-5 0 -10 5 -10 10 0 6 5 10 10 10 6 0 10 -4 10 -10z m330 0 c0 -5 -4 -10 -10
-10 -5 0 -10 5 -10 10 0 6 5 10 10 10 6 0 10 -4 10 -10z m440 -6 c0 -8 -4 -12
-10 -9 -5 3 -10 10 -10 16 0 5 5 9 10 9 6 0 10 -7 10 -16z m700 6 c0 -5 -4
-10 -10 -10 -5 0 -10 5 -10 10 0 6 5 10 10 10 6 0 10 -4 10 -10z m80 0 c0 -5
-4 -10 -10 -10 -5 0 -10 5 -10 10 0 6 5 10 10 10 6 0 10 -4 10 -10z m60 -5 c0
-8 -4 -15 -10 -15 -5 0 -10 7 -10 15 0 8 5 15 10 15 6 0 10 -7 10 -15z m-880
-5 c0 -5 -4 -10 -10 -10 -5 0 -10 5 -10 10 0 6 5 10 10 10 6 0 10 -4 10 -10z
m140 0 c0 -5 -4 -10 -10 -10 -5 0 -10 5 -10 10 0 6 5 10 10 10 6 0 10 -4 10
-10z m-1664 -57 c-10 -10 -19 5 -10 18 6 11 8 11 12 0 2 -7 1 -15 -2 -18z
m324 12 c0 -8 -4 -15 -10 -15 -5 0 -10 7 -10 15 0 8 5 15 10 15 6 0 10 -7 10
-15z m140 -5 c0 -5 -4 -10 -10 -10 -5 0 -10 5 -10 10 0 6 5 10 10 10 6 0 10
-4 10 -10z m1860 0 c0 -5 -4 -10 -10 -10 -5 0 -10 5 -10 10 0 6 5 10 10 10 6
0 10 -4 10 -10z m40 0 c0 -5 -4 -10 -10 -10 -5 0 -10 5 -10 10 0 6 5 10 10 10
6 0 10 -4 10 -10z m60 0 c0 -5 -4 -10 -10 -10 -5 0 -10 5 -10 10 0 6 5 10 10
10 6 0 10 -4 10 -10z"/>
<path d="M1220 2010 c0 -5 5 -10 10 -10 6 0 10 5 10 10 0 6 -4 10 -10 10 -5 0
-10 -4 -10 -10z"/>
<path d="M1260 2010 c0 -5 5 -10 10 -10 6 0 10 5 10 10 0 6 -4 10 -10 10 -5 0
-10 -4 -10 -10z"/>
<path d="M1850 2010 c0 -5 7 -10 15 -10 8 0 15 5 15 10 0 6 -7 10 -15 10 -8 0
-15 -4 -15 -10z"/>
<path d="M1900 2005 c0 -8 5 -15 10 -15 6 0 10 7 10 15 0 8 -4 15 -10 15 -5 0
-10 -7 -10 -15z"/>
<path d="M586 1381 c-4 -7 -5 -15 -2 -18 9 -9 19 4 14 18 -4 11 -6 11 -12 0z"/>
<path d="M620 1370 c0 -5 5 -10 10 -10 6 0 10 5 10 10 0 6 -4 10 -10 10 -5 0
-10 -4 -10 -10z"/>
<path d="M1260 1371 c0 -6 5 -13 10 -16 6 -3 10 1 10 9 0 9 -4 16 -10 16 -5 0
-10 -4 -10 -9z"/>
<path d="M1850 1364 c0 -8 5 -12 10 -9 6 3 10 10 10 16 0 5 -4 9 -10 9 -5 0
-10 -7 -10 -16z"/>
<path d="M1900 1365 c0 -8 5 -15 10 -15 6 0 10 7 10 15 0 8 -4 15 -10 15 -5 0
-10 -7 -10 -15z"/>
</g>
</svg>
