<?xml version="1.0" standalone="no"?>
<!DOCTYPE svg PUBLIC "-//W3C//DTD SVG 20010904//EN"
 "http://www.w3.org/TR/2001/REC-SVG-20010904/DTD/svg10.dtd">
<svg version="1.0" xmlns="http://www.w3.org/2000/svg"
 width="776.000000pt" height="830.000000pt" viewBox="0 0 776.000000 830.000000"
 preserveAspectRatio="xMidYMid meet">
<metadata>
Created by potrace 1.16, written by Peter Selinger 2001-2019
</metadata>
<g transform="translate(0.000000,830.000000) scale(0.100000,-0.100000)"
fill="#000000" stroke="none">
<path d="M465 7940 c-2 -3 -8 -414 -14 -915 -28 -2254 -32 -2617 -36 -2725 -2
-63 -7 -632 -10 -1265 -3 -632 -10 -1238 -15 -1345 -10 -221 -11 -413 -1 -429
5 -8 398 -13 1377 -17 877 -4 1373 -10 1382 -17 19 -15 17 -480 -2 -496 -9 -8
-77 -10 -232 -6 -121 2 -609 7 -1085 10 -703 5 -868 4 -876 -7 -7 -8 -11 -107
-12 -267 -1 -179 -5 -258 -13 -268 -10 -12 -80 -13 -470 -7 l-458 7 0 -37 0
-36 253 -1 c138 0 366 -2 506 -2 l253 -2 4 260 c3 143 7 266 9 274 4 11 188
12 1122 7 l1117 -5 17 -22 c25 -34 37 -15 37 60 0 80 -15 97 -47 53 -16 -22
-23 -25 -38 -16 -17 10 -18 31 -18 260 l0 249 28 3 c22 3 30 -1 34 -17 3 -12
14 -21 24 -21 17 0 19 8 19 65 0 56 -2 65 -18 65 -11 0 -24 -12 -31 -26 -10
-22 -16 -25 -39 -20 -15 3 -641 9 -1392 12 -751 3 -1371 7 -1377 9 -7 3 -13
11 -13 20 0 12 9 15 37 13 44 -4 54 22 13 32 -38 9 -59 62 -60 148 0 40 5 81
12 91 9 14 9 26 1 43 -11 25 -6 148 7 161 4 5 247 8 539 7 427 -1 531 2 532
12 1 7 2 20 3 28 2 8 3 172 4 363 2 340 3 349 22 354 11 3 20 12 20 19 0 10
-15 14 -54 14 -56 0 -85 -17 -47 -27 21 -5 21 -8 21 -364 0 -280 -3 -359 -12
-359 -239 -5 -1015 3 -1023 11 -12 12 -8 1049 5 1062 4 5 239 5 521 0 l514 -8
3 -27 c2 -19 -3 -30 -18 -38 -34 -18 -18 -33 38 -35 44 -2 52 1 52 16 0 10 -8
19 -17 21 -12 2 -17 15 -19 46 -1 24 -4 45 -6 46 -1 2 -241 6 -533 10 -291 3
-533 10 -538 15 -5 5 -6 322 -3 727 3 396 6 758 6 807 l0 87 258 0 c187 0 261
3 270 12 7 7 12 27 12 45 0 23 6 36 18 40 20 8 33 24 26 35 -3 4 -30 8 -60 8
-43 0 -54 -3 -54 -16 0 -9 9 -18 21 -21 15 -4 19 -12 17 -32 l-3 -26 -248 -3
-247 -2 2 257 3 258 235 0 c129 1 241 -1 248 -3 21 -7 15 -60 -9 -67 -38 -12
-14 -30 41 -30 59 0 75 15 35 33 -19 9 -25 17 -20 31 3 10 1 30 -4 45 l-11 26
-249 0 c-206 0 -251 3 -261 15 -9 11 -11 135 -8 526 1 281 6 516 10 522 10 17
1572 8 1600 -9 10 -7 5 -992 -8 -1441 -5 -179 -4 -203 9 -203 9 0 18 3 21 8 2
4 5 277 6 607 2 330 5 610 7 622 3 11 13 23 24 26 25 7 25 37 -1 37 -19 0 -20
7 -20 163 0 89 4 168 8 174 8 13 154 16 435 9 98 -3 107 -1 107 16 0 17 -14
18 -247 19 -137 1 -256 1 -266 0 -10 -2 -20 7 -25 21 -4 13 -6 127 -3 253 l6
230 265 3 c145 1 268 6 272 10 4 4 10 122 14 262 3 140 7 261 10 268 3 9 122
12 554 12 504 0 575 3 542 24 -12 7 -1122 9 -1129 2 -3 -3 -8 -122 -11 -263
-3 -159 -8 -263 -15 -271 -8 -10 -66 -13 -268 -11 -141 1 -262 -2 -268 -5 -8
-5 -11 -87 -11 -261 0 -185 -3 -256 -12 -261 -13 -8 -570 -7 -1187 2 l-414 7
6 271 c4 149 10 509 14 799 l6 529 786 -3 c459 -1 794 -6 804 -11 17 -9 18
-27 16 -271 -2 -233 0 -262 14 -265 14 -3 16 24 17 259 0 144 3 266 7 272 4 6
324 8 957 3 523 -3 1379 -9 1901 -12 523 -3 956 -7 964 -10 11 -3 12 -98 10
-552 l-4 -547 48 -3 c39 -3 47 -6 47 -23 0 -10 7 -19 15 -19 11 0 15 12 15 49
0 52 -13 73 -28 45 -6 -10 -19 -14 -38 -12 -29 3 -29 3 -28 68 0 36 2 271 3
523 2 288 7 460 13 464 19 11 1051 3 1065 -9 8 -6 11 -18 8 -28 -3 -9 -7 -243
-10 -519 -2 -276 -7 -507 -11 -513 -5 -8 -93 -9 -302 -6 -257 5 -297 8 -307
22 -24 32 -41 19 -40 -31 0 -51 17 -67 36 -32 l11 22 295 -6 c161 -4 298 -9
304 -13 6 -4 9 -103 8 -277 -1 -241 0 -272 14 -275 26 -5 28 10 27 268 0 91 2
193 6 228 l6 62 226 0 c125 0 237 -3 249 -6 l23 -6 2 -517 3 -516 26 -3 27 -3
7 523 c4 288 9 631 10 763 2 132 4 247 4 256 1 9 10 19 21 22 15 4 20 14 20
41 l0 36 -49 0 c-28 0 -52 -4 -55 -8 -6 -9 -15 -269 -15 -444 l-1 -108 -239 0
c-197 0 -241 3 -251 15 -18 22 -2 37 32 30 21 -5 28 -4 24 4 -4 6 -16 11 -26
11 -11 0 -24 9 -30 20 -7 14 -10 182 -9 527 l3 508 -165 6 c-90 4 -627 10
-1194 13 -566 4 -1192 9 -1390 11 -198 3 -976 7 -1730 10 -753 3 -1556 7
-1783 8 -228 1 -415 0 -417 -3z"/>
<path d="M6194 7791 c-50 -30 -67 -108 -43 -193 7 -27 17 -40 34 -44 38 -9 70
3 83 31 22 48 9 115 -23 115 -11 0 -12 -5 -5 -26 15 -40 12 -72 -10 -94 -24
-24 -37 -19 -51 18 -14 37 -1 148 21 175 18 21 19 21 38 3 21 -19 42 -15 42 9
0 13 -21 25 -43 25 -7 0 -26 -9 -43 -19z"/>
<path d="M6826 7765 c-10 -28 -8 -41 6 -27 14 14 64 16 73 2 3 -5 -5 -31 -19
-57 -48 -96 -58 -171 -21 -157 10 4 15 20 15 50 0 30 11 64 37 113 20 39 35
73 32 75 -2 2 -29 7 -60 11 -47 6 -57 4 -63 -10z"/>
<path d="M4367 7362 c-24 -2 -37 -8 -34 -15 5 -16 577 -23 577 -7 0 6 -6 13
-12 15 -16 5 -477 11 -531 7z"/>
<path d="M1917 7219 c-3 -11 -1 -34 5 -51 9 -25 8 -37 -7 -64 -15 -29 -16 -38
-5 -64 17 -40 41 -53 82 -42 55 14 67 55 37 128 -11 27 -10 34 4 48 11 12 14
23 8 39 -11 29 -26 23 -26 -10 0 -14 -8 -31 -17 -37 -27 -17 -53 5 -52 43 2
35 -20 43 -29 10z m85 -116 c38 -34 4 -107 -39 -84 -38 20 -47 38 -33 71 14
34 43 40 72 13z"/>
<path d="M3300 7225 c0 -24 22 -65 35 -65 7 0 15 -9 18 -20 6 -25 34 -26 82
-3 44 21 48 47 5 38 -36 -8 -120 27 -120 49 0 9 -4 16 -10 16 -5 0 -10 -7 -10
-15z"/>
<path d="M4415 7193 c3 -15 11 -30 17 -32 6 -2 18 -12 26 -22 20 -23 53 -24
93 -4 37 20 27 39 -17 32 -25 -4 -43 1 -79 24 l-47 30 7 -28z"/>
<path d="M2972 7198 c-75 -11 -87 -20 -99 -74 -12 -53 -1 -104 23 -104 8 0 18
-11 23 -23 10 -26 66 -77 83 -77 6 0 26 11 44 25 18 14 37 25 43 25 16 0 31
35 35 84 4 35 0 48 -16 63 -11 10 -26 30 -34 45 -20 38 -41 46 -102 36z m-52
-74 c0 -8 -4 -12 -10 -9 -5 3 -10 10 -10 16 0 5 5 9 10 9 6 0 10 -7 10 -16z
m0 -34 c0 -5 -4 -10 -10 -10 -5 0 -10 5 -10 10 0 6 5 10 10 10 6 0 10 -4 10
-10z m120 -20 c0 -5 -4 -10 -10 -10 -5 0 -10 5 -10 10 0 6 5 10 10 10 6 0 10
-4 10 -10z"/>
<path d="M7185 7140 c-8 -12 20 -24 35 -15 5 3 10 10 10 16 0 12 -37 12 -45
-1z"/>
<path d="M7423 7106 c-10 -13 -23 -31 -28 -41 -9 -15 -12 -15 -34 4 -28 24
-45 18 -35 -12 9 -30 24 -38 58 -32 33 6 66 -17 66 -46 0 -10 4 -20 9 -23 14
-9 61 52 61 79 0 12 7 26 16 29 8 3 12 11 9 17 -5 7 -11 5 -18 -5 -7 -8 -28
-16 -47 -18 -27 -2 -35 1 -38 16 -2 10 3 23 12 28 9 5 16 13 16 18 0 19 -29
10 -47 -14z m57 -96 c0 -5 -4 -10 -10 -10 -5 0 -10 5 -10 10 0 6 5 10 10 10 6
0 10 -4 10 -10z"/>
<path d="M7230 7065 c-7 -8 -10 -25 -6 -40 5 -20 13 -25 37 -25 26 0 30 3 24
18 -4 9 -10 27 -12 40 -6 25 -25 29 -43 7z"/>
<path d="M3550 7004 c0 -8 5 -12 10 -9 6 4 8 11 5 16 -9 14 -15 11 -15 -7z"/>
<path d="M3354 6986 c-9 -24 28 -64 65 -71 38 -7 68 10 35 20 -37 12 -49 23
-47 44 2 16 -3 21 -22 21 -14 0 -28 -7 -31 -14z"/>
<path d="M4730 6990 c0 -5 5 -10 10 -10 6 0 10 5 10 10 0 6 -4 10 -10 10 -5 0
-10 -4 -10 -10z"/>
<path d="M4460 6963 c0 -21 61 -63 89 -63 34 0 33 19 -1 28 -23 6 -34 15 -36
30 -4 28 -52 32 -52 5z"/>
<path d="M7340 6940 c0 -22 3 -40 6 -40 17 0 100 24 109 31 5 5 -6 9 -26 9
-21 0 -44 8 -57 20 -29 27 -32 26 -32 -20z"/>
<path d="M3500 6960 c0 -5 5 -10 10 -10 6 0 10 5 10 10 0 6 -4 10 -10 10 -5 0
-10 -4 -10 -10z"/>
<path d="M3593 6958 c-31 -49 -34 -61 -17 -80 21 -22 67 -24 84 -3 10 13 11
18 1 28 -10 9 -14 8 -22 -6 -8 -14 -14 -16 -25 -6 -16 13 -19 45 -4 54 13 8
13 25 1 25 -6 0 -13 -6 -18 -12z"/>
<path d="M4600 6950 c0 -5 5 -10 10 -10 6 0 10 5 10 10 0 6 -4 10 -10 10 -5 0
-10 -4 -10 -10z"/>
<path d="M4700 6945 c0 -8 5 -15 10 -15 6 0 10 7 10 15 0 8 -4 15 -10 15 -5 0
-10 -7 -10 -15z"/>
<path d="M4775 6930 c3 -5 10 -10 16 -10 5 0 9 5 9 10 0 6 -7 10 -16 10 -8 0
-12 -4 -9 -10z"/>
<path d="M7530 6921 c0 -15 28 -33 40 -26 8 5 8 11 -1 21 -13 15 -39 19 -39 5z"/>
<path d="M4677 6900 c-4 -14 2 -25 18 -36 19 -13 28 -13 54 -2 24 10 28 16 21
28 -9 13 -12 13 -24 -3 -13 -16 -15 -16 -30 -2 -9 9 -16 21 -16 26 0 17 -18 9
-23 -11z"/>
<path d="M4885 6791 c-3 -5 -2 -12 3 -15 4 -2 129 -8 277 -11 263 -6 307 -3
291 24 -9 14 -562 16 -571 2z"/>
<path d="M3037 6684 c-15 -8 -36 -14 -45 -13 -16 2 -29 -2 -80 -22 -12 -5 -25
-17 -28 -26 -3 -10 -10 -26 -15 -35 -5 -10 -9 -36 -9 -58 0 -31 7 -47 29 -71
17 -17 31 -35 33 -41 2 -5 33 -12 69 -15 59 -5 68 -3 95 20 28 25 29 28 32
132 3 90 1 109 -14 126 -20 23 -30 23 -67 3z m43 -190 c0 -8 -4 -12 -10 -9 -5
3 -10 10 -10 16 0 5 5 9 10 9 6 0 10 -7 10 -16z"/>
<path d="M2262 6668 c-7 -7 -12 -20 -12 -29 0 -9 -6 -19 -14 -22 -10 -4 -14
-23 -14 -64 0 -71 5 -93 24 -93 8 0 14 -8 14 -18 0 -19 18 -42 33 -42 5 0 6
12 2 28 -4 15 -6 50 -5 77 6 117 4 157 -6 166 -6 5 -15 4 -22 -3z"/>
<path d="M2506 6672 c-7 -12 12 -139 24 -162 6 -10 10 -37 10 -59 0 -30 4 -41
15 -41 8 0 15 5 15 10 0 6 10 20 22 32 40 40 18 167 -32 183 -10 3 -20 15 -23
25 -5 20 -22 27 -31 12z"/>
<path d="M3473 6653 c-18 -9 -33 -20 -33 -25 0 -4 -13 -8 -30 -8 -51 0 -39
-33 25 -70 55 -31 64 -43 45 -55 -12 -8 6 -35 23 -35 5 0 15 -7 21 -15 20 -28
65 -28 102 0 40 30 42 41 13 71 -18 20 -20 28 -12 67 13 60 0 76 -68 82 -37 3
-64 -1 -86 -12z"/>
<path d="M2410 6630 c-9 -16 -9 -25 0 -35 6 -8 11 -38 10 -67 -4 -115 -2 -128
20 -128 20 0 21 4 14 88 -4 48 -8 102 -8 121 -1 40 -20 51 -36 21z"/>
<path d="M7250 6592 c0 -6 7 -12 15 -16 13 -4 15 -21 12 -93 -3 -49 -8 -96
-12 -106 -9 -21 7 -42 27 -35 10 4 13 36 13 129 l0 124 -27 3 c-16 2 -28 -1
-28 -6z"/>
<path d="M7435 6563 c14 -22 17 -41 12 -106 -3 -43 -10 -84 -16 -90 -18 -18
-12 -27 19 -27 32 0 37 9 19 27 -9 9 -9 26 0 69 6 32 11 79 11 106 0 47 -1 48
-31 48 l-31 0 17 -27z"/>
<path d="M2350 6511 c-16 -30 -13 -54 6 -47 9 3 18 6 20 6 3 0 0 9 -6 20 -6
11 -8 25 -5 30 3 6 4 10 1 10 -3 0 -10 -9 -16 -19z"/>
<path d="M5427 6244 c-4 -4 -7 -210 -7 -458 -1 -248 -3 -497 -5 -553 -4 -100
4 -132 24 -95 13 24 17 1105 4 1109 -5 2 -12 0 -16 -3z"/>
<path d="M2270 6180 c-12 -8 -12 -10 3 -16 21 -8 35 2 21 16 -5 5 -15 6 -24 0z"/>
<path d="M2214 6125 c-9 -23 5 -35 40 -35 20 0 40 8 51 20 23 25 14 36 -14 18
-17 -10 -25 -10 -41 0 -25 15 -29 15 -36 -3z"/>
<path d="M3871 6107 c-13 -17 -5 -27 24 -27 12 0 25 3 28 7 9 8 -12 33 -28 33
-7 0 -18 -6 -24 -13z"/>
<path d="M3947 6103 c-12 -12 -7 -22 8 -17 8 4 15 10 15 15 0 11 -14 12 -23 2z"/>
<path d="M4980 6091 c0 -19 18 -31 46 -31 22 0 65 31 58 42 -3 5 -13 3 -23 -6
-15 -14 -20 -14 -37 -1 -26 20 -44 19 -44 -4z"/>
<path d="M2882 6085 c-40 -14 -52 -30 -51 -70 0 -50 30 -99 64 -106 44 -8 95
-30 95 -40 0 -5 8 -9 19 -9 22 0 51 40 51 71 0 11 11 34 25 51 29 35 31 55 7
86 -16 21 -28 24 -98 26 -44 2 -94 -2 -112 -9z m133 -115 c-3 -5 -10 -10 -16
-10 -5 0 -9 5 -9 10 0 6 7 10 16 10 8 0 12 -4 9 -10z"/>
<path d="M2437 6074 c-8 -8 1 -24 14 -24 5 0 9 7 9 15 0 15 -12 20 -23 9z"/>
<path d="M6193 6056 c-57 -40 -73 -68 -73 -130 0 -51 2 -57 25 -66 32 -12 170
-3 195 12 10 7 21 22 24 33 8 31 -4 148 -16 163 -18 22 -118 14 -155 -12z
m107 -26 c0 -5 -7 -10 -16 -10 -8 0 -12 5 -9 10 3 6 10 10 16 10 5 0 9 -4 9
-10z m-100 -49 c0 -12 -20 -25 -27 -18 -7 7 6 27 18 27 5 0 9 -4 9 -9z m120
-31 c0 -5 -7 -10 -15 -10 -8 0 -15 5 -15 10 0 6 7 10 15 10 8 0 15 -4 15 -10z"/>
<path d="M4100 6050 c0 -5 5 -10 10 -10 6 0 10 5 10 10 0 6 -4 10 -10 10 -5 0
-10 -4 -10 -10z"/>
<path d="M2384 5995 c1 -41 3 -44 24 -38 17 4 31 -2 53 -23 l29 -28 28 27 c15
15 38 27 49 27 30 0 40 20 18 37 -22 15 -39 17 -30 3 3 -5 0 -10 -8 -10 -8 0
-20 -7 -27 -15 -7 -8 -23 -15 -36 -15 -22 0 -22 1 -8 28 7 15 14 33 14 40 0
20 -25 14 -35 -10 -15 -32 -35 -35 -35 -4 0 19 -5 26 -18 26 -16 0 -19 -8 -18
-45z"/>
<path d="M2300 6004 c0 -9 -9 -18 -20 -21 -19 -5 -39 -48 -27 -59 3 -3 15 4
27 16 17 17 25 19 34 10 17 -18 -40 -63 -70 -56 -28 7 -33 -14 -9 -34 12 -10
19 -10 27 -2 7 7 20 12 29 12 9 0 31 12 47 27 l31 26 -25 32 c-13 18 -24 39
-24 48 0 10 -4 17 -10 17 -5 0 -10 -7 -10 -16z"/>
<path d="M4053 5985 c3 -47 27 -47 27 0 0 24 -5 35 -14 35 -10 0 -14 -10 -13
-35z"/>
<path d="M5155 6010 c-3 -5 -2 -18 4 -28 6 -11 6 -24 0 -35 -11 -20 9 -25 28
-6 7 7 18 1 37 -21 29 -35 58 -34 76 1 6 10 19 19 30 19 26 0 35 19 14 27 -10
3 -30 -1 -46 -10 -39 -22 -58 -21 -58 3 0 11 5 20 10 20 6 0 10 7 10 15 0 8
-4 15 -10 15 -5 0 -10 -6 -10 -14 0 -12 -20 -26 -36 -26 -3 0 -9 11 -14 25
-10 26 -24 32 -35 15z"/>
<path d="M3956 5981 c-3 -5 -2 -21 4 -36 15 -39 -4 -68 -39 -63 -22 3 -27 0
-26 -16 2 -20 25 -36 25 -17 0 6 11 11 24 11 14 0 39 12 56 27 27 22 29 28 16
35 -9 5 -16 15 -16 22 0 18 -37 50 -44 37z"/>
<path d="M4099 5974 c-11 -14 -11 -18 2 -28 8 -6 18 -19 22 -28 8 -23 30 -23
51 1 10 11 31 25 47 31 37 16 37 30 -1 30 -19 0 -33 -7 -40 -20 -16 -30 -50
-26 -50 5 0 29 -12 32 -31 9z"/>
<path d="M5060 5975 c0 -8 -9 -20 -20 -27 -11 -7 -20 -18 -20 -25 0 -16 5 -16
32 -2 28 15 33 5 13 -25 -18 -28 -44 -33 -63 -14 -9 9 -13 7 -18 -6 -4 -11 0
-24 10 -34 13 -14 20 -14 36 -4 11 6 28 12 39 12 11 0 29 12 40 27 20 24 20
28 6 47 -8 12 -20 31 -27 44 -13 25 -28 29 -28 7z"/>
<path d="M3920 5935 c0 -9 5 -15 11 -13 6 2 11 8 11 13 0 5 -5 11 -11 13 -6 2
-11 -4 -11 -13z"/>
<path d="M3802 5868 c7 -19 38 -22 38 -4 0 10 -9 16 -21 16 -12 0 -19 -5 -17
-12z"/>
<path d="M4910 5860 c0 -5 5 -10 10 -10 6 0 10 5 10 10 0 6 -4 10 -10 10 -5 0
-10 -4 -10 -10z"/>
<path d="M3424 5765 c-9 -22 1 -29 23 -17 10 6 31 8 47 5 22 -4 27 -2 24 8 -7
21 -86 25 -94 4z"/>
<path d="M3413 5685 c-3 -9 -3 -18 0 -21 9 -9 27 6 27 22 0 19 -19 18 -27 -1z"/>
<path d="M3480 5671 c0 -6 5 -13 10 -16 15 -9 12 -68 -6 -93 -20 -29 -42 -28
-56 3 -12 26 -38 34 -38 12 0 -7 7 -23 16 -35 22 -31 66 -29 99 6 22 23 26 34
22 71 -4 39 -18 60 -39 61 -5 0 -8 -4 -8 -9z"/>
<path d="M1643 5550 c-32 -13 -29 -32 4 -28 17 2 29 10 31 21 4 19 -2 20 -35
7z"/>
<path d="M1882 5518 c-24 -15 -31 -25 -27 -39 9 -26 -19 -25 -44 2 -26 28 -42
17 -34 -24 7 -40 12 -45 23 -27 8 12 10 10 10 -7 0 -14 6 -23 15 -23 8 0 15 9
15 20 0 11 4 20 8 20 17 0 52 -47 52 -68 0 -17 -6 -22 -27 -22 -16 0 -37 7
-47 15 -11 8 -25 15 -31 15 -16 0 -11 -73 4 -78 18 -6 71 18 116 52 50 38 55
45 55 79 0 17 5 27 15 27 8 0 15 7 15 15 0 8 -4 15 -10 15 -5 0 -10 -4 -10 -9
0 -14 -72 -22 -88 -9 -12 10 -11 15 8 30 33 27 19 40 -18 16z m58 -109 c0 -5
-7 -9 -15 -9 -8 0 -15 7 -15 15 0 9 6 12 15 9 8 -4 15 -10 15 -15z"/>
<path d="M1691 5476 c-16 -17 -21 -31 -16 -46 7 -23 50 -44 72 -36 17 7 17 26
-1 26 -7 0 -20 7 -27 16 -11 14 -10 19 8 34 22 17 21 30 -2 30 -6 0 -22 -11
-34 -24z"/>
<path d="M7725 5490 c-3 -5 3 -10 14 -10 12 0 21 5 21 10 0 6 -6 10 -14 10 -8
0 -18 -4 -21 -10z"/>
<path d="M3370 5411 c-8 -4 -25 -13 -37 -19 -13 -7 -33 -12 -45 -12 -54 -1
-97 -79 -63 -114 27 -27 37 -19 30 22 -6 37 -4 40 34 65 22 15 45 27 51 27 15
0 12 -16 -5 -30 -18 -15 -20 -47 -3 -52 7 -3 17 5 23 16 7 14 22 22 43 24 26
3 32 8 32 27 0 13 3 30 6 39 5 12 0 16 -22 15 -16 0 -36 -4 -44 -8z m40 -41
c0 -5 -7 -10 -15 -10 -8 0 -15 5 -15 10 0 6 7 10 15 10 8 0 15 -4 15 -10z"/>
<path d="M3477 5414 c-8 -9 2 -54 16 -72 7 -9 4 -17 -12 -28 l-21 -15 29 -30
c16 -16 37 -29 45 -29 20 0 20 1 1 36 -21 40 -19 66 3 62 12 -3 16 -12 15 -31
-1 -18 3 -27 13 -27 10 0 14 13 14 45 0 46 -13 58 -37 34 -6 -6 -16 -8 -22 -5
-19 12 -12 26 13 26 23 0 41 22 29 34 -8 8 -78 8 -86 0z"/>
<path d="M3605 5390 c4 -6 11 -8 16 -5 14 9 11 15 -7 15 -8 0 -12 -5 -9 -10z"/>
<path d="M1985 5331 c-3 -5 5 -17 17 -25 26 -18 38 -5 18 19 -14 17 -26 19
-35 6z"/>
<path d="M3700 5299 c0 -22 -5 -32 -20 -36 -11 -3 -20 -10 -20 -15 0 -11 49
-2 63 11 9 9 -3 71 -14 71 -5 0 -9 -14 -9 -31z"/>
<path d="M3390 5310 c0 -5 6 -10 14 -10 8 0 18 5 21 10 3 6 -3 10 -14 10 -12
0 -21 -4 -21 -10z"/>
<path d="M1600 5255 c0 -18 45 -49 60 -40 15 9 12 25 -4 25 -7 0 -19 7 -26 15
-16 19 -30 19 -30 0z"/>
<path d="M3275 5250 c3 -5 13 -10 21 -10 8 0 12 5 9 10 -3 6 -13 10 -21 10 -8
0 -12 -4 -9 -10z"/>
<path d="M3340 5190 c0 -5 5 -10 10 -10 6 0 10 5 10 10 0 6 -4 10 -10 10 -5 0
-10 -4 -10 -10z"/>
<path d="M7700 5192 c0 -14 23 -32 42 -32 22 0 24 26 2 34 -22 8 -44 7 -44 -2z"/>
<path d="M3440 5170 c-11 -7 -6 -10 20 -10 26 0 31 3 20 10 -8 5 -17 10 -20
10 -3 0 -12 -5 -20 -10z"/>
<path d="M3520 5170 c-13 -8 -12 -10 3 -10 9 0 20 0 24 -1 4 0 9 4 11 10 5 14
-18 14 -38 1z"/>
<path d="M3862 4998 c5 -37 88 -38 102 -2 9 24 1 28 -23 12 -16 -10 -23 -10
-33 0 -21 21 -50 15 -46 -10z"/>
<path d="M7240 5010 c0 -5 9 -10 21 -10 11 0 17 5 14 10 -3 6 -13 10 -21 10
-8 0 -14 -4 -14 -10z"/>
<path d="M6630 4981 c0 -31 57 -44 87 -19 20 16 4 29 -18 15 -17 -10 -22 -9
-33 6 -17 23 -36 22 -36 -2z"/>
<path d="M7150 4986 c0 -7 18 -32 39 -54 l40 -41 44 17 c50 19 60 38 17 35
-33 -3 -91 19 -110 41 -16 20 -30 21 -30 2z"/>
<path d="M6860 4920 c0 -5 5 -10 10 -10 6 0 10 5 10 10 0 6 -4 10 -10 10 -5 0
-10 -4 -10 -10z"/>
<path d="M4039 4918 c0 -2 -1 -20 -3 -41 -3 -35 -1 -38 18 -33 15 4 31 -3 49
-19 32 -30 48 -31 64 -6 7 11 25 21 40 23 18 2 29 10 31 22 4 16 0 18 -29 12
-19 -3 -39 -13 -45 -21 -15 -20 -44 -8 -44 17 0 17 -3 18 -15 8 -18 -15 -35
-5 -35 21 0 10 -7 19 -15 19 -8 0 -15 -1 -16 -2z"/>
<path d="M3943 4884 c-4 -11 -15 -25 -25 -32 -10 -7 -18 -20 -18 -28 0 -16 16
-19 25 -4 3 6 13 10 20 10 12 0 12 -5 4 -24 -14 -30 -56 -40 -69 -17 -8 14 -9
14 -15 -2 -4 -9 -2 -24 5 -32 14 -17 50 -20 50 -4 0 5 8 9 18 8 35 -3 52 1 52
15 0 7 6 19 14 25 13 11 12 15 -5 32 -10 10 -19 25 -19 33 0 7 -7 19 -15 26
-12 10 -16 9 -22 -6z"/>
<path d="M6805 4880 c-3 -6 1 -13 10 -16 19 -8 30 0 20 15 -8 14 -22 14 -30 1z"/>
<path d="M6877 4865 c-11 -15 -28 -25 -42 -25 -14 0 -25 -4 -25 -10 0 -5 11
-10 23 -10 13 0 32 -9 42 -20 22 -24 60 -26 69 -5 3 9 19 21 36 26 16 6 30 15
30 20 0 15 -57 10 -70 -6 -7 -8 -21 -15 -33 -15 -17 0 -19 5 -14 35 3 19 5 35
4 35 -1 0 -10 -12 -20 -25z"/>
<path d="M6710 4836 c0 -8 4 -17 9 -20 5 -4 6 -18 2 -34 -6 -22 -14 -28 -44
-30 -26 -2 -37 -8 -37 -19 0 -12 6 -14 28 -9 15 4 39 10 54 13 15 3 35 14 44
24 15 17 16 21 2 37 -8 9 -18 25 -21 35 -8 21 -37 23 -37 3z"/>
<path d="M6670 4810 c0 -5 4 -10 9 -10 6 0 13 5 16 10 3 6 -1 10 -9 10 -9 0
-16 -4 -16 -10z"/>
<path d="M7392 4779 c2 -6 8 -10 13 -10 5 0 11 4 13 10 2 6 -4 11 -13 11 -9 0
-15 -5 -13 -11z"/>
<path d="M3790 4765 c0 -8 7 -15 15 -15 8 0 15 7 15 15 0 8 -7 15 -15 15 -8 0
-15 -7 -15 -15z"/>
<path d="M7203 4753 c-4 -10 3 -24 21 -40 37 -32 74 -40 94 -19 15 14 13 16
-17 22 -18 4 -39 17 -48 30 -18 28 -41 31 -50 7z"/>
<path d="M6560 4741 c0 -12 6 -21 16 -21 9 0 14 7 12 17 -5 25 -28 28 -28 4z"/>
<path d="M7423 4703 c-14 -36 -14 -38 8 -56 14 -11 31 -16 43 -13 12 3 27 6
34 6 6 0 12 9 12 20 0 22 -19 27 -37 9 -20 -20 -34 0 -27 37 9 47 -13 45 -33
-3z"/>
<path d="M7520 4710 c0 -5 5 -10 10 -10 6 0 10 5 10 10 0 6 -4 10 -10 10 -5 0
-10 -4 -10 -10z"/>
<path d="M4857 4596 c-3 -8 -7 -138 -8 -288 -1 -246 0 -273 15 -276 14 -3 16
23 16 282 0 254 -6 327 -23 282z"/>
<path d="M2817 4534 c-13 -13 -7 -24 14 -24 11 0 19 5 17 12 -5 14 -22 21 -31
12z"/>
<path d="M2744 4468 c-9 -13 22 -38 49 -38 27 0 57 18 57 35 0 18 -5 19 -30 3
-15 -10 -22 -10 -32 0 -15 15 -35 15 -44 0z"/>
<path d="M5091 4440 c-13 -11 -29 -20 -37 -20 -42 0 -61 -151 -19 -159 11 -2
25 -11 31 -20 10 -13 17 -14 43 -4 18 6 33 7 37 2 8 -14 62 -11 71 5 4 8 17
15 28 17 16 3 21 13 23 51 3 39 0 49 -18 58 -13 7 -19 18 -16 28 6 22 -54 62
-92 62 -15 -1 -38 -10 -51 -20z m84 -40 c10 -11 14 -20 9 -20 -12 1 -44 25
-44 34 0 12 17 6 35 -14z m-75 -45 c0 -8 -4 -15 -10 -15 -5 0 -10 7 -10 15 0
8 5 15 10 15 6 0 10 -7 10 -15z m35 -75 c-3 -5 -14 -10 -23 -10 -15 0 -15 2
-2 10 20 13 33 13 25 0z"/>
<path d="M7727 4423 c-8 -7 11 -33 24 -33 5 0 9 9 9 20 0 19 -20 27 -33 13z"/>
<path d="M2960 4404 c0 -9 5 -14 12 -12 18 6 21 28 4 28 -9 0 -16 -7 -16 -16z"/>
<path d="M1795 4380 c3 -5 11 -10 16 -10 6 0 7 5 4 10 -3 6 -11 10 -16 10 -6
0 -7 -4 -4 -10z"/>
<path d="M2923 4340 c1 -35 4 -40 26 -40 14 0 35 -10 48 -22 23 -22 25 -22 51
-5 15 10 42 25 60 33 32 14 40 28 23 38 -12 8 -81 -22 -81 -34 0 -19 -42 -10
-47 10 -4 14 -11 19 -23 15 -13 -4 -19 1 -24 20 -11 42 -35 31 -33 -15z"/>
<path d="M3000 4364 c0 -8 5 -12 10 -9 6 3 10 10 10 16 0 5 -4 9 -10 9 -5 0
-10 -7 -10 -16z"/>
<path d="M1606 4345 c-9 -14 -23 -25 -31 -25 -24 0 -19 -51 5 -57 20 -5 28
-23 10 -23 -21 0 -9 -41 20 -67 17 -14 30 -31 30 -37 0 -18 42 -41 80 -43 19
-1 49 -4 66 -8 24 -5 37 -1 61 19 35 30 68 26 57 -6 -6 -19 -5 -19 20 -3 14
10 26 26 26 36 0 10 8 22 17 28 14 8 15 13 6 33 -6 12 -16 38 -23 56 -12 32
-33 42 -45 22 -4 -6 -1 -18 6 -26 17 -21 20 -81 4 -88 -17 -6 -55 4 -55 14 0
5 5 10 12 12 15 5 -19 58 -37 58 -7 0 -19 -13 -26 -29 -19 -43 -63 -47 -91 -8
-19 26 -22 27 -36 13 -15 -14 -13 -18 13 -46 36 -38 27 -49 -18 -21 -41 25
-52 47 -29 56 13 5 14 8 3 15 -8 4 -11 15 -8 23 3 8 -1 24 -10 36 -14 20 -13
24 2 41 17 19 15 50 -4 50 -5 0 -16 -11 -25 -25z"/>
<path d="M2823 4343 c4 -4 -5 -19 -20 -35 -30 -31 -24 -51 7 -23 18 16 20 16
26 1 11 -27 -16 -49 -53 -43 -37 6 -45 -11 -17 -34 12 -10 20 -10 35 -1 10 7
27 12 37 12 10 0 29 11 41 24 l23 25 -21 27 c-11 15 -21 33 -21 40 0 8 -10 14
-22 14 -12 0 -18 -3 -15 -7z"/>
<path d="M7150 4312 c0 -5 -11 -15 -25 -22 -30 -16 -34 -56 -6 -65 16 -5 19
-12 14 -38 -10 -63 71 -150 120 -131 9 3 25 1 36 -5 13 -7 22 -8 26 -1 4 7 13
7 25 0 16 -8 23 -6 37 10 21 24 49 26 61 4 7 -13 13 -14 31 -5 11 7 21 20 21
29 0 10 5 23 12 30 8 8 9 18 1 34 -6 13 -15 35 -22 51 -6 15 -17 27 -26 27
-19 0 -20 -24 -1 -39 9 -8 11 -22 7 -44 -6 -27 -12 -32 -39 -35 -31 -3 -43 10
-22 23 32 20 -17 63 -50 45 -15 -8 -19 -17 -14 -34 5 -21 3 -22 -28 -18 -18 3
-44 15 -57 28 -22 22 -41 24 -41 4 0 -5 12 -21 26 -37 29 -31 18 -41 -27 -23
-28 12 -29 15 -29 76 0 50 -3 64 -15 64 -8 0 -15 7 -15 15 0 9 7 18 15 21 8 4
15 15 15 25 0 10 -7 19 -15 19 -8 0 -15 -4 -15 -8z"/>
<path d="M1980 4265 c0 -18 5 -25 20 -25 22 0 26 20 8 38 -19 19 -28 14 -28
-13z"/>
<path d="M2687 4244 c-11 -11 -8 -44 3 -44 15 0 24 30 13 41 -5 5 -12 6 -16 3z"/>
<path d="M7517 4224 c-8 -8 1 -24 14 -24 5 0 9 7 9 15 0 15 -12 20 -23 9z"/>
<path d="M7662 4184 c1 -9 9 -19 16 -22 9 -3 13 2 10 14 -1 9 -9 19 -16 22 -9
3 -13 -2 -10 -14z"/>
<path d="M7752 4180 c0 -14 2 -19 5 -12 2 6 2 18 0 25 -3 6 -5 1 -5 -13z"/>
<path d="M1560 4159 c0 -20 21 -49 35 -49 25 0 27 20 3 40 -26 22 -38 25 -38
9z"/>
<path d="M7100 4105 c0 -24 24 -44 37 -31 8 7 -17 56 -29 56 -4 0 -8 -11 -8
-25z"/>
<path d="M2640 4060 c0 -19 15 -20 558 -22 306 -2 561 0 567 5 6 4 6 10 0 16
-6 5 -261 11 -567 14 -546 6 -558 5 -558 -13z"/>
<path d="M1280 3910 c0 -5 -11 -10 -23 -10 -13 0 -32 -9 -42 -20 -10 -11 -27
-20 -37 -20 -10 0 -21 -8 -24 -17 -10 -35 -39 -88 -51 -96 -20 -12 -15 -37 6
-37 14 0 18 -5 14 -20 -10 -39 11 -48 115 -47 53 0 102 4 109 9 7 5 14 5 18
-2 3 -5 17 -10 30 -10 13 0 27 5 30 10 5 8 11 7 21 -1 17 -14 44 -5 44 14 0 8
-11 35 -25 61 -14 26 -25 54 -25 62 0 9 -9 18 -20 21 -11 3 -20 13 -20 23 0 9
-12 26 -27 36 -14 10 -34 27 -45 37 -20 19 -48 23 -48 7z m80 -80 c0 -5 -4
-10 -10 -10 -5 0 -10 5 -10 10 0 6 5 10 10 10 6 0 10 -4 10 -10z m-120 -60 c0
-5 -4 -10 -10 -10 -5 0 -10 5 -10 10 0 6 5 10 10 10 6 0 10 -4 10 -10z m-40
-20 c0 -5 -4 -10 -10 -10 -5 0 -10 5 -10 10 0 6 5 10 10 10 6 0 10 -4 10 -10z
m80 -40 c0 -5 -4 -10 -10 -10 -5 0 -10 5 -10 10 0 6 5 10 10 10 6 0 10 -4 10
-10z m80 0 c0 -5 -4 -10 -10 -10 -5 0 -10 5 -10 10 0 6 5 10 10 10 6 0 10 -4
10 -10z"/>
<path d="M6130 3861 c0 -11 -4 -23 -10 -26 -5 -3 -10 -30 -10 -60 0 -38 -4
-54 -15 -59 -20 -7 -19 -36 0 -36 9 0 19 -8 22 -17 17 -44 46 -63 95 -63 32 0
50 5 54 14 3 8 18 16 35 20 29 5 29 7 29 71 0 36 -4 73 -9 83 -5 9 -12 25 -15
35 -4 11 -16 17 -35 17 -16 0 -33 5 -36 10 -3 6 -21 10 -40 10 -19 0 -37 5
-40 10 -10 17 -25 11 -25 -9z m70 -71 c0 -5 -4 -10 -10 -10 -5 0 -10 5 -10 10
0 6 5 10 10 10 6 0 10 -4 10 -10z m-7 -26 c20 -8 23 -24 3 -24 -8 0 -23 -3
-33 -6 -15 -5 -16 -4 -3 6 11 9 12 13 3 17 -7 2 -13 9 -13 15 0 5 6 7 13 4 6
-3 20 -9 30 -12z m67 6 c0 -5 8 -10 17 -10 9 0 14 -2 11 -5 -8 -8 -68 6 -68
16 0 5 9 9 20 9 11 0 20 -4 20 -10z m20 -97 c-1 -18 -19 -35 -29 -28 -9 5 -7
11 6 21 21 16 23 16 23 7z"/>
<path d="M7694 3839 c-10 -17 8 -28 39 -22 37 7 35 33 -2 33 -17 0 -33 -5 -37
-11z"/>
<path d="M7747 3763 c-11 -10 -8 -53 3 -53 6 0 10 14 10 30 0 31 -2 35 -13 23z"/>
<path d="M7682 3533 c2 -11 14 -19 31 -21 34 -4 35 11 2 26 -34 16 -37 15 -33
-5z"/>
<path d="M6594 3505 c-4 -10 -20 -15 -44 -15 -22 0 -41 -4 -44 -9 -8 -12 -10
-570 -2 -578 3 -3 126 -9 273 -12 l268 -6 -3 -805 c-2 -443 -7 -808 -11 -813
-4 -4 -245 -6 -537 -5 l-529 3 4 552 4 552 -24 5 c-13 3 -52 5 -86 3 -64 -2
-90 8 -60 24 9 6 17 21 17 34 0 13 5 27 11 30 7 5 5 13 -6 25 -9 10 -14 23
-11 29 10 15 -16 51 -36 51 -21 0 -24 -20 -6 -38 7 -7 13 -26 14 -43 1 -23 -4
-33 -21 -41 -13 -6 -31 -8 -39 -5 -20 8 -21 37 -1 37 8 0 15 2 15 5 0 10 -35
45 -46 45 -17 0 -47 -37 -39 -49 12 -20 -50 -12 -68 9 -17 21 -42 26 -51 12
-3 -5 6 -19 19 -30 45 -39 27 -56 -26 -25 -28 17 -29 20 -23 63 4 25 8 47 10
49 2 2 -3 13 -13 23 -15 17 -15 19 0 36 19 21 22 42 6 42 -5 0 -26 -12 -45
-27 -36 -29 -44 -57 -20 -66 11 -4 13 -16 9 -42 -5 -29 -2 -38 20 -55 14 -11
29 -29 32 -40 3 -10 15 -22 26 -25 44 -14 12 -22 -100 -24 -111 -2 -121 0
-131 19 -21 39 -38 24 -39 -35 0 -42 3 -55 14 -55 8 0 15 7 15 15 0 13 27 15
178 16 317 1 446 -2 458 -12 8 -7 11 -38 8 -97 -2 -48 -6 -284 -10 -524 l-6
-438 -47 -1 c-242 -5 -1001 9 -1011 18 -9 8 -10 297 -3 678 l8 380 32 3 c24 2
33 -1 38 -17 12 -39 25 -21 25 34 0 40 -4 55 -14 55 -7 0 -16 -9 -19 -19 -4
-15 -15 -20 -48 -23 l-44 -3 -6 -220 c-4 -121 -7 -368 -8 -548 l-1 -328 -573
2 c-316 0 -578 4 -584 7 -5 4 -12 15 -16 25 -3 9 -13 17 -22 17 -13 0 -15 -11
-13 -67 3 -71 21 -94 38 -49 10 26 43 36 55 16 8 -13 8 -486 0 -500 -11 -18
-47 -11 -52 10 -3 11 -14 20 -24 20 -16 0 -19 -8 -20 -60 -1 -33 -2 -66 -3
-72 -2 -22 31 -20 37 2 5 20 11 20 309 20 166 0 800 -5 1407 -10 1086 -9 1144
-11 1126 -40 -3 -5 -8 -121 -10 -259 -4 -199 -3 -252 7 -256 7 -2 298 -6 646
-9 l632 -4 0 34 0 34 -582 0 c-450 0 -589 3 -608 13 l-25 13 0 264 0 265 -240
6 c-132 4 -755 10 -1385 14 -791 5 -1147 10 -1152 18 -10 17 -8 480 3 493 6 8
28 11 57 8 26 -2 351 -6 722 -9 371 -3 1028 -8 1460 -12 432 -4 850 -8 930 -8
l145 0 3 598 2 598 35 -7 c44 -8 45 6 3 40 l-32 25 -1 206 c-1 148 2 208 11
215 7 7 103 9 250 8 l239 -3 0 -575 0 -575 83 -3 82 -3 0 36 c0 34 -1 35 -39
35 -22 0 -44 6 -51 15 -9 11 -10 148 -5 622 4 335 8 705 9 823 l1 215 -28 3
c-16 2 -29 -2 -31 -10 -3 -7 -7 -129 -9 -270 -3 -141 -8 -262 -12 -267 -7 -12
-450 -16 -479 -5 -19 7 -23 103 -4 122 9 9 9 17 -1 35 -14 25 -13 18 -9 240
l3 157 -52 0 c-43 0 -54 4 -63 21 -18 32 -35 17 -37 -34 -2 -54 13 -69 37 -38
11 15 25 22 41 19 l24 -3 -2 -170 c-2 -255 -4 -318 -10 -339 -5 -17 -17 -18
-255 -13 -138 3 -253 9 -256 12 -6 6 -7 140 -4 402 2 105 3 112 24 119 16 5
27 1 39 -15 28 -34 39 -25 39 29 0 38 -4 50 -15 50 -9 0 -18 -7 -21 -15z
m-836 -1102 c-2 -10 -13 -19 -26 -21 -24 -4 -25 -2 -16 22 9 23 46 21 42 -1z"/>
<path d="M7164 3315 c-9 -22 4 -35 36 -35 38 0 60 9 60 26 0 10 -8 12 -29 8
-16 -4 -32 -1 -35 5 -10 15 -26 14 -32 -4z"/>
<path d="M6731 3278 c-5 -13 -7 -26 -4 -30 8 -14 33 -9 33 6 0 8 3 21 6 30 4
11 1 16 -10 16 -9 0 -20 -10 -25 -22z"/>
<path d="M6827 3274 c12 -19 14 -30 6 -42 -5 -10 -22 -39 -38 -67 l-28 -50 32
30 c48 44 73 98 61 129 -6 16 -17 26 -30 26 -20 0 -20 -1 -3 -26z"/>
<path d="M7380 3250 c0 -5 7 -10 15 -10 8 0 15 5 15 10 0 6 -7 10 -15 10 -8 0
-15 -4 -15 -10z"/>
<path d="M7333 3209 c4 -13 7 -34 7 -47 0 -19 3 -21 17 -13 13 7 25 2 52 -21
l35 -31 22 27 c14 15 33 26 49 26 18 0 25 5 25 18 0 15 -6 18 -31 14 -17 -2
-33 -11 -36 -18 -7 -19 -53 -18 -53 0 0 8 5 18 10 21 13 8 13 45 0 45 -6 0
-16 -11 -22 -25 -14 -31 -20 -31 -33 -3 -6 13 -19 24 -29 26 -15 3 -18 0 -13
-19z"/>
<path d="M7234 3178 c-4 -13 -14 -28 -22 -34 -11 -8 -12 -13 -3 -18 6 -4 19
-2 27 5 21 18 29 3 14 -26 -11 -20 -20 -25 -43 -23 -33 3 -42 -8 -27 -32 8
-12 13 -13 30 -2 11 6 28 12 38 12 10 0 31 13 46 29 27 28 27 29 8 42 -10 8
-22 26 -26 42 -8 33 -32 36 -42 5z"/>
<path d="M6832 3095 c-12 -9 -36 -15 -55 -13 -23 2 -32 -1 -32 -12 0 -12 11
-15 49 -13 52 2 70 12 64 37 -3 15 -5 15 -26 1z"/>
<path d="M2869 2734 c-6 -8 -24 -14 -40 -14 l-29 0 3 -85 c4 -120 2 -118 212
-141 28 -4 56 -11 63 -17 14 -11 32 5 32 31 0 6 7 12 15 12 20 0 20 66 -1 130
-15 45 -21 52 -70 75 -61 29 -164 34 -185 9z m64 -88 c25 -19 21 -26 -8 -13
-14 7 -25 15 -25 20 0 11 13 8 33 -7z m-53 -56 c0 -5 -4 -10 -10 -10 -5 0 -10
5 -10 10 0 6 5 10 10 10 6 0 10 -4 10 -10z m120 -20 c0 -5 -4 -10 -10 -10 -5
0 -10 5 -10 10 0 6 5 10 10 10 6 0 10 -4 10 -10z"/>
<path d="M7131 2721 c-9 -6 -10 -11 -2 -15 15 -10 53 3 46 15 -8 11 -26 11
-44 0z"/>
<path d="M7381 2694 c-11 -8 -21 -22 -21 -30 0 -17 -47 -19 -52 -2 -3 7 -12 9
-23 4 -14 -5 -16 -9 -7 -18 7 -7 12 -20 12 -29 0 -22 50 -35 62 -17 6 10 14 6
33 -15 30 -34 31 -43 6 -57 -14 -7 -27 -6 -48 5 -40 21 -56 20 -43 -4 7 -13 7
-22 0 -26 -5 -3 -10 -10 -10 -16 0 -12 47 -12 55 1 4 6 10 8 15 5 14 -9 70 23
70 40 0 7 11 22 25 33 15 12 23 26 19 35 -3 10 3 21 15 29 25 15 27 28 6 28
-8 0 -15 -4 -15 -10 0 -14 -77 -13 -86 2 -4 6 2 19 14 29 28 22 4 34 -27 13z
m64 -104 c3 -5 -3 -10 -14 -10 -12 0 -21 5 -21 10 0 6 6 10 14 10 8 0 18 -4
21 -10z"/>
<path d="M7202 2654 c-38 -27 -22 -74 25 -74 27 0 29 7 7 32 -13 14 -14 21 -5
32 17 21 -2 28 -27 10z"/>
<path d="M5840 2560 c0 -13 7 -20 20 -20 23 0 26 10 8 28 -18 18 -28 15 -28
-8z"/>
<path d="M7495 2510 c-10 -16 9 -33 30 -28 16 3 15 5 -3 21 -14 13 -22 15 -27
7z"/>
<path d="M5420 2457 c0 -14 41 -57 53 -57 16 0 5 28 -18 48 -29 26 -35 27 -35
9z"/>
<path d="M3810 2228 c0 -13 15 -38 34 -56 l34 -33 47 18 c67 25 70 43 8 43
-35 0 -58 7 -86 25 l-37 26 0 -23z"/>
<path d="M5075 2206 c-12 -9 -16 -19 -11 -32 7 -18 8 -17 26 6 31 40 23 54
-15 26z"/>
<path d="M5137 2213 c-4 -3 0 -14 9 -24 15 -17 15 -21 -4 -59 -20 -41 -20 -42
-1 -61 10 -10 19 -27 19 -37 0 -25 -39 -65 -57 -58 -8 3 -17 6 -19 6 -2 0 -4
9 -4 20 0 13 -7 20 -20 20 -30 0 -25 -33 9 -53 56 -33 104 -12 116 50 5 31 3
39 -15 53 l-21 16 20 26 c21 27 26 55 13 73 -14 19 -39 35 -45 28z"/>
<path d="M2196 2145 c-3 -8 -14 -15 -25 -15 -10 0 -21 -7 -25 -15 -3 -8 -12
-15 -20 -15 -8 0 -19 -7 -24 -16 -12 -22 -3 -54 15 -54 11 0 13 -7 8 -30 -6
-25 -1 -39 27 -75 34 -45 53 -56 103 -61 100 -11 108 -10 136 13 32 27 39 28
39 8 0 -24 29 -29 50 -10 11 10 17 21 15 25 -3 4 2 13 10 20 11 9 12 17 4 32
-15 27 -7 53 15 53 23 0 29 14 16 35 -8 12 -11 12 -28 -3 -23 -21 -32 -22 -32
-2 0 9 -9 15 -25 15 -18 0 -25 -5 -25 -20 0 -11 6 -23 14 -26 10 -4 14 -18 12
-42 -2 -35 -4 -37 -39 -40 -40 -3 -45 2 -22 24 19 20 19 26 -3 52 l-19 21 -27
-27 c-14 -16 -23 -31 -19 -35 13 -14 -53 -6 -71 8 -42 32 -65 5 -26 -30 11
-10 17 -21 14 -26 -6 -11 -36 1 -51 20 -16 20 -17 88 -2 97 8 4 4 13 -12 25
-22 16 -22 19 -8 36 9 10 19 26 22 36 4 9 11 17 17 17 5 0 10 5 10 10 0 15
-17 12 -24 -5z"/>
<path d="M2335 2138 c4 -13 12 -25 17 -26 4 -2 15 -10 23 -19 13 -13 15 -11
15 11 0 18 -9 30 -31 41 -31 16 -31 16 -24 -7z"/>
<path d="M2500 2130 c0 -5 5 -10 10 -10 6 0 10 5 10 10 0 6 -4 10 -10 10 -5 0
-10 -4 -10 -10z"/>
<path d="M6582 2078 c-6 -6 -21 -16 -34 -22 -31 -15 -37 -56 -9 -63 21 -5 28
-27 12 -37 -11 -7 -2 -46 10 -46 5 0 18 -14 28 -31 26 -43 54 -54 142 -57 58
-2 79 1 89 13 16 19 50 20 50 0 0 -19 10 -19 37 0 25 18 40 72 24 88 -6 6 -11
19 -11 30 0 13 5 17 19 12 25 -8 51 22 30 36 -9 6 -18 4 -26 -7 -10 -14 -14
-14 -38 2 -33 22 -58 5 -33 -23 10 -12 14 -30 11 -55 -5 -36 -7 -38 -42 -38
-32 1 -34 2 -18 14 21 16 22 39 1 56 -22 19 -69 1 -69 -25 0 -14 -8 -21 -27
-23 -22 -3 -30 2 -40 22 -12 27 -32 34 -43 15 -4 -5 0 -18 9 -28 24 -26 20
-44 -6 -35 -49 14 -53 29 -32 105 3 9 -6 21 -22 29 l-25 14 25 19 c14 10 26
22 26 27 0 13 -27 19 -38 8z"/>
<path d="M2270 2055 c0 -8 7 -15 15 -15 8 0 15 4 15 9 0 5 -7 11 -15 15 -9 3
-15 0 -15 -9z"/>
<path d="M4040 2030 c0 -5 7 -10 15 -10 8 0 15 5 15 10 0 6 -7 10 -15 10 -8 0
-15 -4 -15 -10z"/>
<path d="M4124 2024 c-4 -10 -16 -26 -26 -35 -10 -9 -18 -23 -18 -31 0 -8 -5
-19 -10 -24 -7 -7 -2 -18 15 -34 21 -20 30 -22 53 -14 36 13 36 40 0 36 -39
-4 -42 12 -13 59 19 29 24 44 16 52 -7 7 -12 5 -17 -9z"/>
<path d="M3853 2005 c-10 -27 66 -80 102 -71 31 8 33 26 3 26 -32 1 -60 24
-52 44 5 12 0 16 -20 16 -15 0 -29 -7 -33 -15z"/>
<path d="M4000 1979 c0 -11 5 -17 10 -14 6 3 10 13 10 21 0 8 -4 14 -10 14 -5
0 -10 -9 -10 -21z"/>
<path d="M4160 1972 c0 -14 11 -21 26 -15 21 8 17 23 -6 23 -11 0 -20 -4 -20
-8z"/>
<path d="M2090 1927 c0 -16 32 -47 48 -47 17 0 14 11 -7 38 -21 25 -41 29 -41
9z"/>
<path d="M6530 1877 c0 -17 20 -37 37 -37 19 0 16 20 -4 36 -23 17 -33 17 -33
1z"/>
<path d="M2250 1751 c-35 -10 -10 -22 29 -15 17 4 28 10 25 15 -6 10 -18 10
-54 0z"/>
<path d="M2460 1730 c0 -5 7 -10 15 -10 8 0 15 5 15 10 0 6 -7 10 -15 10 -8 0
-15 -4 -15 -10z"/>
<path d="M600 1700 c0 -5 7 -10 15 -10 8 0 15 5 15 10 0 6 -7 10 -15 10 -8 0
-15 -4 -15 -10z"/>
<path d="M2172 1698 c-7 -7 -12 -18 -12 -25 0 -19 94 -17 110 2 19 23 4 31
-26 14 -23 -12 -27 -11 -39 4 -15 20 -17 21 -33 5z"/>
<path d="M483 1665 c-3 -9 -3 -18 0 -22 11 -10 57 7 57 22 0 20 -49 20 -57 0z"/>
<path d="M721 1634 c-18 -20 -20 -28 -10 -40 9 -11 8 -14 -4 -14 -9 0 -21 9
-27 20 -16 29 -110 26 -139 -4 -18 -19 -19 -26 -8 -49 9 -21 19 -27 45 -27 37
0 41 10 12 28 -24 15 -25 25 -5 46 22 21 39 11 59 -34 20 -45 30 -49 46 -20
15 27 21 25 47 -14 21 -32 21 -35 4 -50 -16 -14 -20 -13 -53 9 -21 14 -39 25
-41 25 -9 0 -2 -85 7 -92 5 -3 16 -2 25 2 9 5 33 17 54 26 21 9 42 25 48 35 5
11 16 19 23 19 8 0 16 16 20 40 4 27 11 40 22 40 9 0 14 6 11 13 -5 14 -55 11
-74 -5 -9 -7 -17 -7 -28 2 -21 17 -19 25 10 40 31 17 32 30 2 30 -13 0 -33
-12 -46 -26z m69 -106 c0 -6 -6 -5 -15 2 -8 7 -15 14 -15 16 0 2 7 1 15 -2 8
-4 15 -11 15 -16z"/>
<path d="M2390 1630 c0 -5 7 -10 15 -10 8 0 15 5 15 10 0 6 -7 10 -15 10 -8 0
-15 -4 -15 -10z"/>
<path d="M2460 1610 c0 -5 5 -10 10 -10 6 0 10 5 10 10 0 6 -4 10 -10 10 -5 0
-10 -4 -10 -10z"/>
<path d="M2340 1555 c0 -46 7 -54 28 -33 9 9 18 6 40 -15 33 -32 57 -34 72 -7
6 11 25 23 43 28 21 5 33 15 35 28 3 22 -24 52 -36 39 -4 -4 -1 -10 6 -12 23
-9 12 -23 -18 -23 -19 0 -30 -5 -30 -14 0 -16 -34 -31 -50 -21 -6 4 -5 17 5
35 18 35 19 40 2 40 -7 0 -18 -9 -25 -20 -7 -11 -17 -20 -22 -20 -6 0 -10 9
-10 20 0 13 -7 20 -20 20 -17 0 -20 -7 -20 -45z"/>
<path d="M2130 1570 c0 -5 5 -10 10 -10 6 0 10 5 10 10 0 6 -4 10 -10 10 -5 0
-10 -4 -10 -10z"/>
<path d="M2250 1571 c0 -20 -32 -42 -54 -35 -17 5 -19 4 -8 -7 6 -7 12 -21 12
-31 0 -24 17 -23 32 2 7 11 18 20 25 20 17 0 16 -6 -3 -35 -17 -27 -49 -33
-57 -12 -8 22 -30 -9 -22 -32 7 -23 34 -28 53 -9 10 10 17 10 32 0 11 -7 20
-8 20 -4 0 5 11 21 25 36 l24 26 -24 26 c-14 15 -25 35 -25 45 0 11 -7 19 -15
19 -8 0 -15 -4 -15 -9z"/>
<path d="M840 1445 c0 -15 38 -40 47 -31 7 7 -26 46 -39 46 -4 0 -8 -7 -8 -15z"/>
<path d="M2096 1451 c-3 -5 0 -11 8 -14 15 -6 26 1 26 15 0 11 -27 10 -34 -1z"/>
<path d="M2809 1118 c-11 -7 -11 -11 -1 -15 15 -6 17 -199 2 -208 -21 -13 -10
-35 18 -35 36 0 45 9 28 26 -13 12 -14 131 -1 205 5 30 -21 45 -46 27z"/>
<path d="M740 1111 c0 -5 -8 -11 -18 -13 -23 -6 -35 -68 -22 -104 9 -22 56
-51 67 -41 2 3 -8 18 -22 35 -14 16 -25 36 -25 44 0 25 24 67 45 77 19 9 19
10 -2 10 -13 1 -23 -3 -23 -8z"/>
<path d="M3420 1101 c0 -5 6 -13 13 -19 8 -7 12 -44 12 -116 l0 -106 28 0 c26
0 38 15 17 22 -6 2 -12 49 -15 106 -2 57 -7 107 -10 113 -8 11 -45 12 -45 0z"/>
<path d="M798 1094 c-4 -3 -2 -20 3 -37 13 -44 12 -53 -8 -73 -13 -13 -14 -19
-5 -22 16 -5 15 -43 -4 -67 -13 -17 -17 -18 -35 -6 -15 9 -24 10 -32 2 -20
-20 9 -35 60 -32 32 2 63 73 63 145 0 71 -20 113 -42 90z"/>
<path d="M2939 1063 c-13 -33 -16 -129 -5 -161 4 -12 21 -29 38 -38 30 -15 31
-15 60 13 26 26 29 36 29 98 1 96 0 105 -11 105 -5 0 -10 -22 -10 -50 0 -27
-5 -72 -11 -100 -10 -47 -13 -51 -37 -48 -23 3 -28 9 -34 48 -5 25 -3 69 2 99
12 66 12 61 0 61 -6 0 -15 -12 -21 -27z"/>
</g>
</svg>
