<?xml version="1.0" standalone="no"?>
<!DOCTYPE svg PUBLIC "-//W3C//DTD SVG 20010904//EN"
 "http://www.w3.org/TR/2001/REC-SVG-20010904/DTD/svg10.dtd">
<svg version="1.0" xmlns="http://www.w3.org/2000/svg"
 width="1000.000000pt" height="930.000000pt" viewBox="0 0 1000.000000 930.000000"
 preserveAspectRatio="xMidYMid meet">
<metadata>
Created by potrace 1.16, written by Peter Selinger 2001-2019
</metadata>
<g transform="translate(0.000000,930.000000) scale(0.100000,-0.100000)"
fill="#000000" stroke="none">
<path d="M534 8912 c-15 -9 -26 -2250 -11 -2259 5 -3 125 -6 267 -7 142 0 261
-4 265 -8 7 -7 7 -252 0 -1268 -3 -360 -5 -1187 -5 -1837 0 -651 -3 -1190 -6
-1198 -5 -13 -45 -15 -269 -15 -145 0 -266 -3 -268 -7 -11 -18 -12 -2232 -1
-2243 7 -7 355 -9 1130 -8 l1119 3 3 259 c1 171 6 264 13 273 10 11 383 13
2160 13 l2148 0 11 -21 c7 -11 9 -31 6 -42 -10 -41 -10 -467 0 -477 7 -7 402
-9 1125 -8 l1114 3 3 1137 2 1138 -257 2 -257 3 -7 27 c-9 33 -2 4274 6 4289
4 6 96 9 255 8 137 0 253 2 259 5 7 5 11 249 12 784 1 427 2 791 2 807 1 17 0
171 -1 343 l-2 312 -1125 0 c-743 0 -1125 -3 -1125 -10 0 -5 -16 -10 -35 -10
-19 0 -35 5 -35 10 0 6 -7 10 -15 10 -8 0 -15 -4 -15 -10 0 -5 -25 -10 -56
-10 -30 0 -64 -5 -75 -10 -13 -8 -25 -7 -40 1 -12 6 -51 12 -88 14 -36 2 -90
7 -119 10 -35 5 -58 3 -65 -4 -15 -15 -74 -14 -80 2 -3 9 -7 9 -18 1 -19 -15
-183 -26 -196 -13 -6 6 -19 6 -35 0 -32 -12 -95 -8 -111 8 -14 14 -94 15 -102
1 -3 -5 -24 -10 -46 -10 -21 0 -39 5 -39 10 0 14 -37 13 -42 -1 -4 -12 -146
-20 -168 -9 -8 4 -41 4 -73 1 -42 -5 -61 -4 -69 6 -14 17 -88 16 -112 -2 -20
-15 -42 -13 -83 7 -17 8 -26 8 -37 -1 -8 -7 -37 -13 -66 -13 -28 -1 -53 -5
-56 -10 -7 -11 -44 -10 -44 1 0 6 -30 8 -69 6 -50 -3 -73 0 -81 10 -14 17
-108 14 -120 -4 -8 -14 -35 -9 -78 12 -17 8 -25 8 -30 0 -7 -10 -101 -25 -147
-23 -127 5 -167 9 -178 18 -16 13 -97 12 -115 -1 -21 -17 -82 -17 -82 -1 0 16
-16 19 -25 4 -3 -5 -28 -10 -55 -10 -27 0 -61 -5 -75 -12 -18 -8 -32 -9 -43
-2 -9 6 -45 10 -79 9 -42 -2 -67 2 -74 11 -11 14 -99 9 -109 -7 -11 -16 -69
-13 -88 4 -18 16 -20 16 -37 -3 -11 -12 -22 -17 -29 -11 -6 5 -37 4 -74 -2
-43 -7 -66 -7 -73 0 -6 6 -37 8 -73 6 -47 -4 -64 -2 -74 10 -14 16 -88 13
-106 -4 -17 -16 -74 -10 -84 8 -6 10 -16 14 -26 10 -10 -4 -14 -11 -11 -17 6
-9 -18 -15 -40 -10 -5 1 -14 2 -20 1 -5 0 -68 -2 -138 -4 -100 -3 -130 0 -136
10 -6 12 -196 15 -1137 18 -621 3 -1134 1 -1140 -3z m2802 -70 c-55 -4 -69 4
-42 23 15 12 23 11 54 -3 l35 -17 -47 -3z m544 23 c0 -9 -9 -15 -25 -15 -24 0
-32 10 -18 23 12 13 43 7 43 -8z m362 -5 c10 0 21 -8 25 -17 13 -39 46 -63 85
-63 31 0 38 -3 38 -20 0 -11 5 -20 10 -20 6 0 10 -5 10 -10 0 -13 -96 -11
-127 3 -16 7 -40 6 -78 -2 -30 -7 -55 -14 -55 -15 0 -19 36 -66 50 -66 11 0
17 -7 16 -17 0 -10 8 -19 19 -21 11 -2 24 -10 28 -18 4 -8 19 -14 32 -14 14 0
25 -4 25 -9 0 -7 -137 -8 -180 -1 -3 0 3 5 13 11 9 5 17 16 17 24 0 16 -65 18
-97 2 -17 -7 -30 -7 -49 2 l-27 12 33 34 c26 27 31 38 22 47 -15 15 -16 48 0
48 6 0 26 -5 45 -12 32 -11 34 -10 68 28 38 42 41 54 23 72 -8 8 -8 15 2 27 9
11 16 13 24 5 5 -5 18 -10 28 -10z m188 16 c0 -2 3 -11 6 -20 5 -13 1 -13 -25
-3 -32 12 -32 27 0 27 10 0 19 -2 19 -4z m345 -6 c3 -5 18 -10 32 -10 19 0 24
-4 19 -17 -11 -27 32 -63 73 -63 25 0 40 -6 49 -20 7 -11 19 -20 27 -20 8 0
15 -5 15 -11 0 -9 -21 -10 -72 -5 -148 15 -218 10 -218 -15 0 -23 22 -49 41
-49 13 0 19 -6 17 -17 -2 -11 7 -19 28 -25 17 -4 37 -15 44 -23 7 -8 19 -15
27 -15 8 0 11 -5 8 -11 -4 -6 -22 -8 -44 -4 -21 3 -56 6 -79 7 -29 0 -42 5
-42 14 0 8 5 14 10 14 6 0 10 5 10 10 0 6 -9 10 -20 10 -11 0 -20 -5 -20 -12
0 -9 -3 -9 -12 0 -15 15 -48 16 -48 2 0 -14 -23 -12 -46 4 -18 14 -18 15 10
45 28 29 28 31 13 55 -21 31 -11 38 38 25 36 -10 39 -9 72 26 30 31 34 42 29
69 -4 18 -3 35 1 39 10 10 31 8 38 -3z m210 0 c4 -6 -5 -10 -19 -10 -14 0 -26
5 -26 10 0 6 9 10 19 10 11 0 23 -4 26 -10z m373 -7 c13 -3 21 -11 18 -18 -7
-20 47 -62 79 -62 25 0 64 -33 65 -55 0 -11 -33 -15 -56 -7 -64 23 -214 14
-214 -12 0 -23 22 -49 40 -49 13 0 20 -7 20 -20 0 -13 7 -20 19 -20 11 0 23
-4 26 -10 3 -5 13 -10 21 -10 18 0 49 -28 40 -37 -3 -4 -32 -2 -64 4 -32 6
-67 7 -79 2 -26 -9 -42 6 -24 24 6 6 11 15 11 19 0 12 -84 10 -97 -3 -8 -8
-17 -8 -32 0 -27 15 -26 20 5 54 24 26 25 30 11 51 -24 37 -7 50 37 29 l38
-18 35 39 c30 32 34 43 29 70 -7 38 1 50 29 41 11 -4 30 -9 43 -12z m182 8 c0
-5 -13 -11 -30 -13 -20 -3 -30 0 -30 9 0 8 12 13 30 13 17 0 30 -4 30 -9z
m325 -1 c3 -5 14 -10 24 -10 9 0 30 -18 47 -40 22 -30 36 -40 58 -40 29 0 66
-24 66 -42 0 -18 -45 -26 -67 -12 -27 17 -165 13 -188 -6 -12 -10 -12 -15 2
-36 8 -13 24 -24 35 -24 15 0 18 -5 13 -20 -5 -15 -2 -20 13 -20 32 0 92 -29
92 -45 0 -16 -40 -21 -54 -7 -8 7 -14 8 -80 11 -31 1 -37 4 -28 13 7 7 12 16
12 20 0 13 -88 9 -92 -4 -3 -9 -12 -9 -36 1 -18 7 -32 15 -32 17 0 1 11 15 25
30 25 27 34 64 15 64 -5 0 -10 9 -10 20 0 11 -7 20 -15 20 -8 0 -15 5 -15 10
0 18 13 15 86 -23 30 -16 31 -16 67 20 39 37 43 48 27 73 -5 9 -5 19 2 27 13
16 25 17 33 3z m215 0 c0 -5 -10 -10 -23 -10 -13 0 -28 -5 -35 -12 -9 -9 -12
-8 -12 4 0 9 6 19 13 21 22 9 57 7 57 -3z m378 -2 c18 0 23 -4 19 -18 -7 -26
37 -64 75 -66 31 -2 61 -29 55 -49 -5 -13 -55 -19 -70 -8 -30 22 -197 10 -197
-14 0 -16 25 -45 46 -53 13 -5 24 -16 24 -25 0 -8 8 -15 19 -15 10 0 24 -7 31
-15 7 -8 17 -12 22 -9 12 7 29 -16 22 -28 -7 -11 -44 -10 -44 1 0 5 -16 8 -37
6 -45 -3 -92 8 -75 19 25 15 10 26 -37 26 -27 0 -51 -5 -53 -11 -4 -11 -58 8
-58 21 0 3 13 19 30 35 28 27 29 30 14 46 -18 20 -13 49 9 49 7 0 22 -7 33
-15 27 -20 28 -20 68 22 32 34 35 42 29 77 -6 39 -6 39 23 32 16 -4 40 -8 52
-8z m182 -4 c0 -11 -5 -14 -16 -10 -9 3 -24 6 -35 6 -10 0 -19 5 -19 10 0 6
16 10 35 10 25 0 35 -4 35 -16z m353 4 c15 -7 27 -18 27 -24 0 -19 51 -59 72
-56 16 3 19 -1 16 -25 l-3 -28 -94 0 c-78 -1 -96 -4 -105 -18 -14 -22 3 -51
33 -55 15 -2 21 -9 17 -18 -3 -9 2 -17 12 -20 9 -3 26 -10 37 -14 11 -5 30
-12 43 -15 13 -4 21 -12 19 -18 -5 -15 -33 -21 -55 -11 -9 4 -42 8 -72 9 -68
3 -69 3 -47 16 9 5 17 14 17 18 0 11 -82 12 -95 1 -14 -12 -65 0 -65 15 0 6
14 24 30 38 33 30 37 45 15 53 -23 9 -18 34 11 44 32 12 37 12 29 1 -3 -6 3
-15 13 -20 15 -8 26 -3 55 27 37 38 46 65 27 77 -8 5 -7 11 1 21 14 17 27 18
62 2z m-3828 -26 c6 -9 22 -29 38 -45 22 -23 32 -27 57 -22 16 3 37 2 47 -4
17 -10 17 -10 1 -11 -10 0 -18 -4 -18 -10 0 -5 7 -10 15 -10 8 0 15 -4 15 -9
0 -17 -38 -22 -97 -12 -62 10 -143 9 -162 -3 -29 -18 -3 -66 36 -66 16 0 21
-4 17 -15 -4 -9 1 -18 12 -22 11 -4 24 -12 29 -19 6 -7 18 -14 28 -16 26 -4
21 -23 -6 -21 -12 1 -48 3 -79 4 -55 3 -70 10 -48 24 6 3 10 11 10 17 0 7 -22
9 -69 4 -98 -9 -108 -2 -67 42 31 33 33 38 20 56 -8 11 -14 24 -14 28 0 12 58
10 65 -2 11 -17 24 -11 65 31 45 47 47 51 23 74 -14 14 -14 18 -2 26 19 12 72
1 84 -19z m565 -15 c17 -35 30 -44 83 -52 21 -3 35 -10 32 -16 -4 -5 1 -12 9
-15 9 -3 16 -11 16 -17 0 -6 -23 -7 -67 -3 -78 9 -71 9 -141 0 -32 -4 -56 -12
-59 -21 -6 -16 24 -53 44 -53 8 0 11 -4 8 -10 -3 -5 7 -15 22 -22 15 -7 32
-18 36 -25 4 -7 19 -13 32 -13 14 0 25 -4 25 -10 0 -6 -34 -9 -85 -8 -82 2
-84 2 -79 24 5 19 1 22 -35 26 -23 2 -46 -1 -51 -6 -6 -6 -21 -6 -41 0 l-32 9
33 38 c30 35 31 39 16 56 -9 9 -16 21 -16 24 0 10 49 8 70 -3 15 -8 25 -1 59
35 37 40 40 47 29 65 -17 27 -1 38 44 32 25 -3 37 -11 48 -35z m-495 23 c4 -6
-5 -10 -20 -10 -15 0 -24 4 -20 10 3 6 12 10 20 10 8 0 17 -4 20 -10z m1925 0
c0 -5 -4 -10 -10 -10 -5 0 -10 5 -10 10 0 6 5 10 10 10 6 0 10 -4 10 -10z
m4135 -1 c6 -9 7 -1673 2 -1989 l-2 -115 -69 -3 -69 -3 7 33 c3 18 13 38 22
45 14 10 14 15 1 40 -8 15 -20 40 -26 56 -6 15 -15 27 -21 27 -19 0 -23 -30
-6 -49 41 -45 -4 -104 -54 -71 -12 8 -13 12 -1 19 10 7 11 13 2 30 -17 30 -41
26 -54 -9 -15 -39 -50 -40 -89 -3 -25 23 -28 24 -34 9 -5 -12 2 -26 20 -42 39
-37 33 -60 -8 -29 -11 8 -26 15 -33 15 -18 0 -16 -27 2 -34 8 -3 15 -12 15
-21 0 -18 -12 -19 -28 -3 -9 9 -15 9 -24 0 -9 -9 -156 -12 -600 -12 -462 0
-590 -3 -593 -12 -3 -7 -6 -150 -7 -318 l-3 -305 -23 -3 c-42 -6 -16 -27 36
-30 40 -2 52 0 52 11 0 8 -7 17 -15 21 -13 5 -15 47 -15 301 l0 295 478 1
c262 1 495 3 517 5 75 6 70 43 71 -533 1 -339 -2 -522 -8 -530 -8 -10 -127
-13 -534 -13 l-524 0 0 54 c0 41 4 55 17 60 23 9 5 22 -39 29 -44 7 -58 -7
-32 -32 21 -19 20 2 16 -549 -2 -196 -3 -204 -22 -209 -37 -10 -14 -28 38 -31
40 -2 52 0 52 11 0 8 -7 17 -15 21 -13 5 -15 49 -15 311 l0 305 529 0 529 0 4
-57 c1 -32 1 -272 -2 -533 l-5 -475 -527 -3 -528 -2 0 39 c0 27 6 43 16 49 27
15 6 32 -41 32 -39 0 -73 -19 -49 -27 37 -13 38 -24 35 -559 -1 -176 -2 -182
-22 -187 -38 -10 -15 -32 34 -33 51 -2 70 12 44 31 -15 11 -17 45 -17 319 l0
306 530 0 530 0 0 -535 0 -535 -372 -2 c-205 -1 -443 -2 -528 -2 l-155 -1 -3
38 c-2 26 2 45 13 57 20 22 10 26 -50 22 -47 -4 -59 -16 -25 -27 14 -5 20 -15
21 -38 0 -18 0 -176 -1 -351 0 -284 -2 -320 -17 -331 -24 -18 -7 -35 37 -35
44 0 61 17 37 35 -15 11 -17 44 -17 303 l0 291 513 3 c281 2 520 1 530 -1 16
-3 17 -23 17 -257 l0 -254 -269 0 c-207 0 -270 -3 -274 -12 -9 -28 4 -34 62
-30 53 4 60 2 71 -18 9 -18 14 -19 27 -9 15 13 94 13 103 0 3 -4 23 -8 45 -8
22 0 54 -2 70 -5 17 -3 40 -6 53 -7 15 -1 26 -10 33 -29 9 -24 12 -25 20 -9 6
9 21 17 35 17 l24 0 -2 -162 -3 -163 -35 0 c-19 1 -39 -4 -45 -11 -10 -11 -81
-24 -155 -27 -19 -1 -41 -8 -48 -14 -20 -19 -92 -17 -92 2 0 24 -20 17 -30
-11 -9 -24 -14 -25 -70 -23 -36 2 -65 -2 -72 -9 -9 -9 -83 -12 -260 -12 l-248
0 0 49 c0 31 5 53 15 61 23 19 8 30 -39 30 -52 0 -63 -9 -37 -30 15 -11 22
-30 25 -74 3 -33 10 -63 17 -67 6 -4 53 -5 103 -4 50 2 287 4 525 5 429 1 435
1 451 -20 15 -20 23 -20 273 -19 155 1 262 -2 268 -8 12 -12 8 -2108 -4 -2120
-5 -4 -281 -9 -613 -10 -670 -3 -631 -7 -598 62 14 30 15 41 5 57 -6 10 -9 23
-5 29 3 5 -2 21 -11 36 -15 22 -19 23 -31 11 -13 -13 -13 -19 3 -45 23 -40 7
-83 -31 -83 -26 0 -47 21 -28 28 17 5 15 37 -3 52 -21 18 -45 5 -51 -29 -9
-43 -40 -47 -74 -9 -16 17 -33 27 -39 24 -17 -11 -13 -27 11 -53 28 -30 19
-37 -20 -17 -30 15 -32 18 -32 73 0 31 -5 62 -12 69 -9 9 -9 15 0 24 16 16 15
48 0 48 -20 -1 -68 -47 -68 -65 0 -9 6 -18 14 -21 10 -4 13 -15 9 -39 -4 -26
1 -42 28 -79 19 -25 40 -45 47 -46 6 0 12 -5 12 -11 0 -7 -11 -8 -29 -4 -17 3
-32 2 -36 -4 -6 -11 -212 -8 -222 3 -3 3 0 13 8 22 19 23 16 117 -6 150 -15
24 -18 25 -33 11 -13 -14 -13 -19 -1 -39 8 -13 13 -38 11 -56 -3 -29 -6 -33
-30 -30 -27 3 -29 8 -18 38 3 8 -1 23 -9 33 -18 24 -53 14 -65 -19 -14 -36
-37 -40 -68 -12 -45 42 -72 16 -30 -29 28 -30 19 -37 -21 -17 -31 15 -31 17
-25 65 5 39 3 53 -10 68 -17 18 -17 21 0 46 17 25 16 26 -5 32 -32 8 -41 41
-41 154 0 76 -4 104 -15 115 -13 13 -15 89 -15 559 l0 543 -62 6 c-35 3 -99 5
-143 5 -44 -1 -166 -1 -271 0 -186 1 -192 2 -197 22 -9 33 -32 16 -35 -26 -4
-46 10 -64 34 -44 13 11 74 13 321 11 168 -1 310 -5 316 -9 11 -6 3 -1035 -8
-1053 -4 -6 -201 -10 -536 -10 l-529 0 2 533 3 532 40 3 c28 3 43 -1 52 -14
17 -24 23 -15 28 40 4 47 -8 60 -29 30 -10 -13 -56 -15 -356 -15 -190 0 -357
1 -371 1 -19 0 -28 6 -32 21 -10 37 -27 10 -27 -42 0 -50 12 -63 34 -35 14 19
6 18 339 17 l287 -1 -2 -532 -3 -533 -530 0 -530 0 0 524 c0 385 3 528 12 536
14 15 73 7 80 -11 3 -8 11 -14 19 -14 10 0 14 13 14 44 0 51 -15 67 -36 38
-13 -18 -23 -20 -105 -17 -72 3 -93 7 -103 21 -19 25 -36 8 -36 -36 0 -44 17
-61 35 -37 16 22 81 23 89 1 9 -24 7 -1042 -2 -1048 -11 -7 -1051 -10 -1058
-3 -8 8 -7 1044 1 1057 4 6 114 10 314 10 262 0 310 -2 321 -15 22 -26 30 -16
30 35 0 51 -8 61 -29 36 -9 -10 -88 -15 -378 -21 l-366 -7 -17 22 c-24 31 -37
19 -38 -34 -1 -53 14 -68 37 -37 13 17 25 22 52 19 l34 -3 0 -528 c0 -432 -2
-529 -13 -536 -8 -5 -246 -8 -530 -7 l-517 1 -3 525 c-2 485 -1 526 15 538 12
9 91 12 308 12 280 0 291 -1 308 -20 25 -30 37 -16 37 41 0 36 -4 49 -14 49
-8 0 -18 -9 -21 -20 -6 -19 -15 -20 -331 -20 -251 0 -326 -3 -329 -12 -2 -7
-6 -374 -9 -815 -2 -441 -7 -807 -11 -812 -7 -13 -104 -14 -123 -3 -13 9 -6
37 20 75 11 15 10 20 -6 32 -16 12 -17 17 -6 30 11 13 9 19 -10 35 -30 26 -48
12 -32 -25 15 -32 15 -72 2 -80 -19 -12 -50 6 -50 29 0 50 -42 60 -65 16 -18
-36 -46 -39 -74 -9 -12 14 -26 19 -37 15 -15 -6 -15 -8 1 -32 20 -30 17 -35
-14 -27 -29 7 -41 39 -34 92 4 27 2 41 -6 41 -15 0 -14 19 4 36 13 14 11 44
-4 44 -32 -2 -83 -100 -51 -100 6 0 11 -12 10 -27 -3 -45 -2 -48 46 -96 25
-26 44 -47 42 -48 -1 0 -67 -3 -144 -6 -96 -4 -144 -2 -148 6 -4 5 3 29 14 51
17 32 19 45 9 56 -6 7 -9 20 -6 28 6 15 -22 46 -41 46 -8 0 -10 -9 -7 -25 3
-14 7 -35 10 -48 6 -30 -8 -50 -31 -45 -13 2 -18 10 -16 26 7 49 -57 70 -68
22 -8 -34 -63 -41 -82 -11 -7 12 -21 21 -30 21 -23 0 -22 -9 2 -40 28 -35 25
-41 -12 -26 -35 15 -52 53 -42 93 4 13 1 30 -6 38 -10 12 -10 21 -1 42 15 33
9 39 -28 23 -37 -15 -43 -30 -25 -65 9 -18 11 -32 4 -45 -7 -14 -1 -27 31 -61
76 -82 72 -76 53 -83 -23 -9 -1146 -2 -1161 7 -11 7 -9 1002 2 1105 6 51 26
70 38 38 3 -8 17 -22 31 -31 20 -13 29 -14 47 -5 14 8 24 9 28 2 10 -17 88 -8
111 13 21 19 23 19 35 2 20 -27 41 -20 63 22 18 34 19 41 6 59 -8 11 -11 27
-8 35 7 18 -36 51 -49 38 -5 -5 -4 -18 3 -30 6 -12 10 -36 8 -54 -2 -27 -8
-33 -30 -35 -29 -3 -36 6 -17 25 16 16 -6 53 -31 53 -11 0 -29 -13 -42 -30
-25 -35 -53 -39 -68 -10 -11 21 -50 28 -50 8 0 -6 10 -22 22 -35 29 -31 16
-40 -28 -17 -35 19 -36 20 -29 68 4 36 2 53 -10 66 -14 15 -13 18 5 35 23 21
11 45 -22 45 -19 0 -20 6 -17 166 3 137 7 168 20 177 9 7 19 35 23 64 5 44 4
53 -11 62 -17 9 -16 11 5 34 23 25 20 37 -9 37 -14 0 -19 11 -24 53 -4 28 -5
72 -3 97 l3 45 264 3 c249 2 266 4 283 22 18 19 34 20 506 21 510 2 538 2 546
9 2 3 6 157 8 343 l3 338 -25 -3 c-17 -2 -23 -8 -20 -18 3 -8 6 -150 8 -316 2
-249 0 -303 -11 -313 -11 -8 -145 -11 -513 -9 l-499 3 -3 523 -2 522 44 0 c30
0 46 -5 50 -15 3 -8 12 -15 21 -15 11 0 15 11 15 43 0 55 -8 63 -36 36 -15
-14 -32 -19 -55 -17 l-34 3 0 535 0 535 510 0 510 0 2 -530 c1 -335 -1 -532
-8 -535 -5 -4 -130 -7 -278 -9 -231 -2 -270 0 -281 14 -24 29 -40 18 -40 -30
0 -48 13 -58 36 -27 11 15 37 17 251 20 131 2 256 -1 278 -6 39 -8 40 -9 39
-48 0 -21 -3 -50 -5 -64 -3 -21 0 -25 19 -25 l24 0 3 951 c2 523 5 955 6 960
4 25 -3 35 -23 32 -18 -2 -22 -9 -21 -28 7 -65 2 -615 -5 -622 -5 -5 -235 -7
-513 -6 l-504 3 -2 509 c-1 322 1 516 8 527 9 18 33 19 509 19 274 0 501 -4
504 -8 6 -10 9 -89 4 -117 -2 -15 3 -20 20 -20 l23 0 -1 404 c0 284 3 407 11
417 16 19 2 34 -32 34 -29 0 -41 -22 -19 -35 16 -10 11 -622 -5 -635 -8 -7
-188 -9 -516 -8 l-504 3 3 530 c2 402 6 531 15 537 7 4 233 8 502 8 369 0 494
-3 503 -12 15 -15 16 -80 1 -95 -16 -16 -4 -43 19 -43 25 0 44 21 32 35 -5 6
-10 40 -12 75 l-3 65 -632 3 c-348 1 -633 4 -633 7 0 3 4 13 9 23 32 62 34 73
23 84 -7 7 -12 24 -12 38 0 15 -9 35 -19 44 -18 17 -20 17 -30 -2 -5 -10 -6
-23 -2 -28 5 -5 12 -26 15 -46 6 -31 4 -37 -14 -43 -16 -5 -18 -10 -9 -26 12
-22 -3 -49 -27 -49 -21 0 -25 17 -7 35 13 14 14 21 5 36 -9 14 -9 25 -3 38 8
14 6 23 -9 36 -19 17 -21 17 -41 -1 -11 -10 -18 -26 -16 -36 7 -27 -32 -23
-73 7 -46 34 -65 16 -25 -25 l29 -30 -26 0 c-40 0 -61 31 -53 80 6 33 3 45
-11 62 -18 19 -18 20 -1 33 24 17 21 43 -5 47 -14 2 -25 13 -29 28 -12 42 -10
258 2 266 6 3 9 17 6 30 -6 32 16 31 33 -1 15 -28 48 -40 84 -31 14 3 28 2 31
-4 11 -18 71 -11 90 10 23 26 41 25 48 0 5 -18 8 -19 31 -9 14 7 26 18 26 26
0 7 6 22 12 33 10 16 10 24 0 40 -6 11 -12 28 -12 38 0 25 -18 41 -41 35 -23
-6 -24 -16 -3 -33 10 -9 14 -26 12 -49 -2 -29 -8 -37 -26 -39 -13 -2 -31 -1
-39 2 -14 6 -14 8 3 21 15 11 17 17 8 32 -22 36 -74 23 -74 -18 0 -28 -38 -24
-67 7 -23 25 -43 28 -51 6 -2 -6 8 -21 22 -33 47 -41 26 -54 -26 -17 -28 19
-30 24 -24 65 3 27 1 51 -6 63 -10 15 -9 23 7 40 16 18 17 23 5 30 -8 6 -22
10 -30 10 -9 0 -17 8 -18 18 -13 89 1 1259 16 1274 8 8 303 9 1051 6 572 -2
1043 -7 1046 -10 3 -3 6 -119 8 -259 l2 -254 819 -5 818 -5 12 -35 c10 -31 16
-35 48 -38 35 -3 37 -5 43 -45 4 -23 5 -113 3 -200 -3 -136 -1 -157 12 -157
13 0 15 12 12 72 -4 58 -1 74 12 83 14 11 15 14 1 25 -12 10 -15 42 -15 172 0
123 -3 159 -12 155 -8 -2 -13 -20 -13 -43 1 -35 -8 -53 -26 -54 -17 0 -45 38
-45 60 1 37 14 50 47 50 16 0 29 4 29 9 0 12 66 19 85 8 12 -7 15 -36 15 -177
0 -162 -1 -170 -21 -181 l-21 -11 21 -14 c17 -13 21 -26 21 -75 0 -33 -4 -59
-10 -59 -5 0 -10 -4 -10 -10 0 -5 14 -10 31 -10 25 0 29 3 21 13 -15 18 -15
399 0 432 8 19 8 28 -2 40 -7 8 -10 25 -6 40 5 21 1 29 -24 43 -32 18 -41 52
-14 52 25 0 76 -41 70 -56 -3 -8 4 -14 17 -16 22 -3 22 -4 25 -257 2 -168 -1
-258 -7 -264 -17 -17 -13 -27 13 -27 22 0 23 3 18 45 -3 34 0 50 12 64 15 16
15 19 1 31 -12 10 -15 35 -15 116 0 57 5 114 11 128 8 17 9 30 2 38 -5 7 -7
37 -5 66 4 59 18 72 58 54 20 -10 24 -19 24 -56 0 -28 -6 -51 -17 -61 -12 -13
-13 -19 -4 -24 8 -5 12 -46 12 -131 1 -105 -1 -124 -16 -132 -15 -9 -15 -11 1
-22 13 -10 16 -23 12 -64 l-5 -52 30 0 c25 0 28 2 17 15 -16 19 -15 227 1 257
8 14 8 23 0 31 -15 15 -14 113 1 140 6 12 12 33 12 46 1 19 9 26 44 37 l44 12
-7 -26 c-9 -35 -9 -32 0 -69 9 -39 25 -44 25 -9 0 51 7 52 306 54 154 0 656 2
1117 2 651 0 837 3 838 13 1 7 0 22 0 34 -1 11 3 24 8 28 6 3 11 16 11 27 0
21 2 20 30 -7 26 -25 38 -29 105 -32 65 -3 80 -1 102 17 32 25 43 25 43 0 0
-38 32 -20 59 33 16 31 16 38 5 48 -8 6 -11 21 -8 33 7 28 -30 66 -48 48 -9
-9 -9 -17 1 -35 7 -13 11 -39 9 -58 -3 -31 -5 -34 -33 -31 -40 5 -42 8 -19 33
19 21 19 21 -4 40 -19 15 -27 16 -43 6 -10 -6 -19 -21 -19 -33 0 -37 -45 -37
-80 -1 -25 25 -30 28 -36 14 -3 -9 4 -30 17 -48 19 -28 20 -32 5 -26 -10 4
-22 7 -27 7 -5 0 -16 11 -25 26 -13 19 -14 28 -5 37 16 16 14 44 -6 74 -16 24
-16 26 0 38 23 17 21 35 -3 35 -28 0 -40 37 -40 125 0 49 4 75 13 78 26 11
2096 7 2102 -4z m-4391 -24 c3 -9 0 -15 -9 -15 -8 0 -15 7 -15 15 0 8 4 15 9
15 5 0 11 -7 15 -15z m1306 6 c0 -14 -18 -23 -30 -16 -6 4 -8 11 -5 16 8 12
35 12 35 0z m-2395 -11 c3 -5 -1 -10 -9 -10 -9 0 -16 5 -16 10 0 6 4 10 9 10
6 0 13 -4 16 -10z m-865 -10 c0 -5 -7 -10 -15 -10 -8 0 -15 5 -15 10 0 6 7 10
15 10 8 0 15 -4 15 -10z m100 0 c0 -5 -16 -10 -35 -10 -19 0 -35 5 -35 10 0 6
16 10 35 10 19 0 35 -4 35 -10z m370 0 c0 -5 -4 -10 -9 -10 -6 0 -13 5 -16 10
-3 6 1 10 9 10 9 0 16 -4 16 -10z m-580 -40 c0 -5 -4 -10 -10 -10 -5 0 -10 5
-10 10 0 6 5 10 10 10 6 0 10 -4 10 -10z m580 0 c0 -5 -9 -10 -20 -10 -11 0
-20 5 -20 10 0 6 9 10 20 10 11 0 20 -4 20 -10z m1100 0 c0 -5 -4 -10 -10 -10
-5 0 -10 5 -10 10 0 6 5 10 10 10 6 0 10 -4 10 -10z m1050 0 c0 -5 -9 -10 -19
-10 -11 0 -23 5 -26 10 -4 6 5 10 19 10 14 0 26 -4 26 -10z m50 0 c0 -5 -4
-10 -10 -10 -5 0 -10 5 -10 10 0 6 5 10 10 10 6 0 10 -4 10 -10z m520 -40 c0
-5 -4 -10 -10 -10 -5 0 -10 5 -10 10 0 6 5 10 10 10 6 0 10 -4 10 -10z m-2740
-40 c0 -5 -7 -10 -15 -10 -8 0 -15 5 -15 10 0 6 7 10 15 10 8 0 15 -4 15 -10z
m60 0 c0 -5 -4 -10 -10 -10 -5 0 -10 5 -10 10 0 6 5 10 10 10 6 0 10 -4 10
-10z m200 0 c0 -5 -4 -10 -10 -10 -5 0 -10 5 -10 10 0 6 5 10 10 10 6 0 10 -4
10 -10z m815 0 c3 -5 -1 -10 -10 -10 -9 0 -13 5 -10 10 3 6 8 10 10 10 2 0 7
-4 10 -10z m70 0 c3 -5 -3 -10 -15 -10 -12 0 -18 5 -15 10 3 6 10 10 15 10 5
0 12 -4 15 -10z m540 0 c3 -5 -1 -10 -9 -10 -9 0 -16 5 -16 10 0 6 4 10 9 10
6 0 13 -4 16 -10z m320 0 c4 -6 -5 -10 -19 -10 -14 0 -26 5 -26 10 0 6 9 10
19 10 11 0 23 -4 26 -10z m-490 -40 c-3 -5 -13 -10 -21 -10 -8 0 -14 5 -14 10
0 6 9 10 21 10 11 0 17 -4 14 -10z m-1515 -40 c0 -5 -4 -10 -9 -10 -6 0 -13 5
-16 10 -3 6 1 10 9 10 9 0 16 -4 16 -10z m1140 0 c0 -5 -4 -10 -10 -10 -5 0
-10 5 -10 10 0 6 5 10 10 10 6 0 10 -4 10 -10z m460 0 c0 -5 -4 -10 -10 -10
-5 0 -10 5 -10 10 0 6 5 10 10 10 6 0 10 -4 10 -10z m1720 0 c0 -5 -4 -10 -10
-10 -5 0 -10 5 -10 10 0 6 5 10 10 10 6 0 10 -4 10 -10z m-142 -33 c2 -12 -3
-17 -17 -17 -12 0 -21 6 -21 13 0 31 32 34 38 4z m-2208 -8 c0 -5 -7 -9 -15
-9 -15 0 -20 12 -9 23 8 8 24 -1 24 -14z m550 0 c0 -5 -4 -9 -10 -9 -5 0 -10
7 -10 16 0 8 5 12 10 9 6 -3 10 -10 10 -16z m555 10 c10 -15 -1 -23 -20 -15
-9 3 -13 10 -10 16 8 13 22 13 30 -1z m553 -7 c3 -9 -2 -13 -14 -10 -9 1 -19
9 -22 16 -3 9 2 13 14 10 9 -1 19 -9 22 -16z m-2758 0 c0 -14 -11 -21 -26 -15
-21 8 -17 23 6 23 11 0 20 -4 20 -8z m155 -2 c4 -6 -5 -10 -19 -10 -14 0 -26
5 -26 10 0 6 9 10 19 10 11 0 23 -4 26 -10z m405 0 c0 -5 -9 -10 -21 -10 -11
0 -17 5 -14 10 3 6 13 10 21 10 8 0 14 -4 14 -10z m670 0 c0 -5 -4 -10 -10
-10 -5 0 -10 5 -10 10 0 6 5 10 10 10 6 0 10 -4 10 -10z m605 0 c3 -5 -1 -10
-9 -10 -9 0 -16 5 -16 10 0 6 4 10 9 10 6 0 13 -4 16 -10z m75 0 c0 -5 -4 -10
-10 -10 -5 0 -10 5 -10 10 0 6 5 10 10 10 6 0 10 -4 10 -10z m932 -64 c32 -36
34 -44 12 -53 -9 -3 -27 6 -45 23 -25 24 -32 27 -49 16 -11 -7 -26 -12 -34
-12 -8 0 -16 -7 -20 -15 -6 -17 -56 -21 -56 -5 0 6 12 15 26 20 20 8 25 15 21
31 -13 49 102 45 145 -5z m549 0 c16 -17 29 -37 29 -43 0 -14 -40 -19 -40 -5
0 4 -12 15 -26 25 -24 18 -27 18 -60 2 -18 -9 -34 -20 -34 -25 0 -6 -11 -10
-25 -10 -16 0 -25 6 -25 15 0 8 -4 15 -10 15 -5 0 -10 5 -10 11 0 8 5 8 15 -1
19 -15 45 3 45 31 0 12 9 19 28 21 51 6 85 -5 113 -36z m-3321 9 c8 -7 23 -15
33 -18 19 -7 24 -57 5 -57 -6 0 -26 12 -45 26 -31 23 -37 25 -63 14 -16 -7
-35 -18 -41 -26 -12 -15 -49 -19 -49 -6 0 4 9 14 20 22 11 8 20 20 20 27 0 37
81 49 120 18z m526 19 c29 -6 90 -75 77 -88 -12 -12 -30 -6 -57 19 -15 14 -32
25 -37 25 -17 0 -69 -30 -69 -40 0 -12 -47 -13 -54 -1 -3 5 2 11 12 13 10 3
26 22 36 42 18 38 32 42 92 30z m593 -25 c12 -16 21 -33 21 -39 0 -17 -32 -11
-55 10 l-22 21 -52 -27 c-49 -26 -83 -26 -51 -1 8 7 21 24 27 39 11 24 17 27
62 26 42 -1 53 -6 70 -29z m541 12 c0 -10 6 -21 14 -24 16 -6 28 -45 16 -52
-5 -3 -25 9 -44 26 -36 31 -36 31 -71 15 -19 -9 -35 -21 -35 -25 0 -5 -13 -11
-30 -13 -16 -3 -30 -2 -30 1 0 12 16 28 33 34 21 8 22 33 1 45 -10 5 13 9 65
10 73 2 81 0 81 -17z m280 9 c0 -5 -4 -10 -10 -10 -5 0 -10 5 -10 10 0 6 5 10
10 10 6 0 10 -4 10 -10z m280 -21 c16 -18 30 -38 30 -45 0 -23 -32 -16 -62 13
l-28 27 -50 -27 c-27 -15 -54 -27 -60 -27 -17 0 -11 25 10 38 11 7 20 21 20
32 0 18 7 20 55 20 48 0 58 -4 85 -31z m215 21 c-3 -5 -12 -10 -20 -10 -8 0
-17 5 -20 10 -4 6 5 10 20 10 15 0 24 -4 20 -10z m1005 0 c0 -5 -6 -10 -14
-10 -8 0 -18 5 -21 10 -3 6 3 10 14 10 12 0 21 -4 21 -10z m325 -10 c9 -27
-24 -69 -52 -67 -28 2 -29 9 -3 32 11 10 20 26 20 37 0 24 27 23 35 -2z
m-4293 -27 c34 -32 36 -53 6 -53 -27 1 -62 44 -54 66 8 20 16 18 48 -13z
m1998 -3 c0 -5 -9 -10 -21 -10 -11 0 -17 5 -14 10 3 6 13 10 21 10 8 0 14 -4
14 -10z m290 0 c0 -5 -4 -10 -9 -10 -6 0 -13 5 -16 10 -3 6 1 10 9 10 9 0 16
-4 16 -10z m80 0 c0 -5 -4 -10 -10 -10 -5 0 -10 5 -10 10 0 6 5 10 10 10 6 0
10 -4 10 -10z m80 0 c0 -5 -4 -10 -10 -10 -5 0 -10 5 -10 10 0 6 5 10 10 10 6
0 10 -4 10 -10z m40 0 c0 -5 -4 -10 -10 -10 -5 0 -10 5 -10 10 0 6 5 10 10 10
6 0 10 -4 10 -10z m1060 0 c0 -5 -4 -10 -10 -10 -5 0 -10 5 -10 10 0 6 5 10
10 10 6 0 10 -4 10 -10z m50 0 c0 -5 -7 -10 -15 -10 -8 0 -15 5 -15 10 0 6 7
10 15 10 8 0 15 -4 15 -10z m410 0 c0 -5 -4 -10 -10 -10 -5 0 -10 5 -10 10 0
6 5 10 10 10 6 0 10 -4 10 -10z m-1680 -45 c13 -14 34 -25 47 -25 25 0 30 -12
11 -28 -14 -11 -148 -11 -148 -1 0 4 7 12 15 19 9 7 14 19 11 26 -4 12 18 33
35 34 3 0 16 -11 29 -25z m565 -5 c11 -9 28 -20 39 -24 15 -5 16 -9 6 -21 -9
-11 -30 -14 -76 -12 -35 1 -64 3 -64 4 0 1 4 12 9 25 5 13 12 31 15 41 7 21
38 16 71 -13z m-2760 -10 c16 -16 38 -30 49 -30 21 -1 21 -1 2 -15 -22 -17
-62 -20 -71 -5 -3 5 -20 7 -37 3 -28 -6 -31 -4 -23 13 4 10 10 29 12 42 7 31
34 28 68 -8z m543 13 c15 -10 33 -23 40 -30 7 -7 19 -13 25 -13 7 0 6 -6 -3
-15 -12 -11 -31 -13 -87 -8 -73 6 -91 16 -53 28 15 5 19 12 14 31 -5 20 -2 24
15 24 12 0 34 -8 49 -17z m541 3 c6 -8 25 -19 41 -26 17 -7 30 -18 30 -25 0
-17 -46 -28 -68 -16 -9 5 -30 7 -45 4 -27 -5 -38 9 -16 23 6 3 8 17 5 30 -5
20 -3 24 18 24 13 0 29 -6 35 -14z m1811 4 c0 -5 -7 -10 -15 -10 -8 0 -15 5
-15 10 0 6 7 10 15 10 8 0 15 -4 15 -10z m410 -10 c14 -11 33 -20 43 -20 15 0
16 -3 6 -21 -9 -19 -16 -20 -52 -14 -23 4 -52 7 -64 7 -23 0 -31 22 -13 33 5
3 7 12 3 20 -8 23 47 19 77 -5z m555 0 c11 -12 31 -20 52 -20 18 0 33 -4 33
-10 0 -5 -6 -7 -14 -4 -7 3 -21 -2 -30 -12 -14 -13 -26 -15 -64 -8 -26 5 -55
7 -65 6 -17 -2 -17 -1 -2 14 9 9 13 24 10 35 -5 16 -1 19 28 19 21 0 41 -7 52
-20z m-1545 -30 c0 -5 -4 -10 -10 -10 -5 0 -10 5 -10 10 0 6 5 10 10 10 6 0
10 -4 10 -10z m80 0 c0 -5 -4 -10 -10 -10 -5 0 -10 5 -10 10 0 6 5 10 10 10 6
0 10 -4 10 -10z m120 0 c0 -5 -4 -10 -10 -10 -5 0 -10 5 -10 10 0 6 5 10 10
10 6 0 10 -4 10 -10z m80 0 c0 -5 -4 -10 -10 -10 -5 0 -10 5 -10 10 0 6 5 10
10 10 6 0 10 -4 10 -10z m1020 0 c0 -5 -4 -10 -10 -10 -5 0 -10 5 -10 10 0 6
5 10 10 10 6 0 10 -4 10 -10z m120 0 c0 -5 -4 -10 -10 -10 -5 0 -10 5 -10 10
0 6 5 10 10 10 6 0 10 -4 10 -10z m-6060 -1620 c0 -5 12 -20 26 -33 30 -28 21
-40 -21 -29 -22 6 -28 14 -30 40 -2 22 2 32 11 32 8 0 14 -4 14 -10z m8510 -2
c-1 -18 -25 -48 -38 -48 -21 0 -24 21 -6 41 19 21 44 25 44 7z m-1918 -6613
l18 -35 -25 0 c-22 0 -25 4 -25 35 0 44 10 44 32 0z m-5247 -4 c6 -10 -21 -41
-35 -41 -17 0 -20 19 -4 34 18 18 30 20 39 7z m5488 3 c11 -11 -5 -34 -24 -34
-22 0 -24 11 -7 28 13 13 22 15 31 6z m557 -9 c0 -19 -36 -39 -45 -25 -8 13
13 40 31 40 8 0 14 -7 14 -15z m-5500 -10 c0 -21 -28 -31 -43 -16 -9 9 -8 14
3 21 22 14 40 12 40 -5z"/>
<path d="M7728 8637 c-30 -24 -37 -64 -14 -73 12 -4 12 -11 4 -29 -8 -17 -7
-28 3 -42 52 -72 109 -119 126 -102 7 7 24 7 52 -1 43 -11 50 -9 89 28 7 6 18
12 23 12 5 0 9 5 9 11 0 6 -9 9 -20 6 -23 -6 -26 10 -6 32 13 14 12 19 -5 40
l-20 24 -25 -24 c-13 -12 -23 -28 -20 -34 2 -7 -3 -12 -12 -13 -35 -2 -61 9
-67 28 -3 11 -11 20 -16 20 -19 0 -21 -31 -4 -50 26 -29 15 -41 -22 -23 -32
15 -33 16 -27 68 4 34 3 55 -5 59 -14 9 -15 46 -1 46 6 0 10 9 10 20 0 26 -18
25 -52 -3z"/>
<path d="M2247 8632 c-33 -20 -43 -58 -22 -82 11 -12 13 -20 6 -25 -19 -11
-12 -40 19 -68 17 -16 30 -35 30 -43 0 -22 44 -34 124 -34 53 0 77 4 86 15 7
8 21 15 31 15 11 0 19 -7 19 -15 0 -16 18 -19 37 -7 31 20 38 124 10 160 -16
20 -47 15 -47 -8 0 -11 4 -20 10 -20 5 0 8 -17 7 -37 -2 -33 -5 -38 -29 -41
-16 -2 -28 1 -28 7 0 6 5 11 10 11 17 0 11 26 -11 46 -23 21 -47 12 -64 -24
-7 -15 -19 -22 -37 -22 -16 0 -28 3 -28 8 0 15 -42 34 -53 23 -12 -12 16 -48
48 -62 17 -6 15 -8 -10 -8 -16 0 -41 8 -55 18 -23 18 -24 22 -13 63 9 35 9 46
-3 59 -18 20 -18 35 1 43 19 7 20 32 2 39 -7 3 -25 -2 -40 -11z"/>
<path d="M1700 8630 c0 -5 -6 -10 -12 -10 -20 0 -35 -13 -42 -37 -5 -16 -2
-23 12 -27 14 -5 17 -14 14 -40 -3 -26 1 -37 18 -49 12 -9 28 -26 34 -39 17
-34 54 -48 132 -48 52 0 75 4 84 15 7 8 21 15 31 15 11 0 19 -7 19 -15 0 -18
1 -18 35 -5 14 5 25 16 24 22 -1 7 1 21 6 31 4 11 2 28 -5 42 -7 13 -9 28 -5
34 9 16 -13 41 -36 41 -19 0 -26 -24 -11 -34 5 -3 8 -22 8 -43 -2 -35 -4 -38
-34 -41 -33 -3 -44 11 -17 22 12 4 13 10 3 31 -15 34 -41 32 -71 -7 -24 -30
-27 -31 -56 -18 -17 7 -31 16 -31 21 0 13 -28 11 -36 -3 -4 -6 4 -21 19 -34
30 -26 33 -34 13 -34 -40 0 -88 74 -63 99 7 7 6 20 -3 41 -10 23 -10 34 -1 43
17 17 13 37 -9 37 -11 0 -20 -4 -20 -10z"/>
<path d="M7560 8561 c0 -12 6 -21 16 -21 9 0 14 7 12 17 -5 25 -28 28 -28 4z"/>
<path d="M8030 8566 c0 -7 6 -19 14 -25 16 -13 15 -56 -2 -88 -12 -22 -16 -63
-6 -63 16 0 44 23 44 37 0 9 8 22 17 28 17 13 17 14 -1 34 -11 12 -16 27 -12
37 7 19 -19 54 -41 54 -7 0 -13 -6 -13 -14z"/>
<path d="M8117 8573 c-13 -12 -7 -33 8 -33 8 0 15 9 15 20 0 20 -11 26 -23 13z"/>
<path d="M2620 8545 c0 -15 6 -25 14 -25 22 0 30 19 16 35 -18 22 -30 18 -30
-10z"/>
<path d="M2067 8553 c-13 -12 -7 -23 13 -23 11 0 20 7 20 15 0 15 -21 21 -33
8z"/>
<path d="M1645 8450 c-8 -13 22 -50 41 -50 24 0 21 15 -7 38 -18 14 -30 19
-34 12z"/>
<path d="M7700 8442 c0 -29 27 -39 48 -18 15 15 15 16 -4 16 -11 0 -25 5 -32
12 -9 9 -12 7 -12 -10z"/>
<path d="M2216 8415 c4 -8 15 -15 25 -15 10 0 19 7 19 15 0 9 -9 15 -25 15
-18 0 -23 -4 -19 -15z"/>
<path d="M8460 8363 c-36 -7 -47 -19 -55 -60 -3 -19 -17 -47 -31 -62 -25 -27
-33 -58 -11 -45 6 4 18 16 25 26 7 10 22 18 32 18 16 0 18 5 14 29 -5 26 -2
32 27 46 31 17 33 16 46 -1 22 -30 12 -58 -25 -69 -18 -5 -31 -14 -29 -20 7
-19 34 -16 70 7 33 21 36 26 31 58 -5 32 -45 82 -62 79 -4 -1 -18 -4 -32 -6z"/>
<path d="M1303 8343 c-15 -3 -23 -12 -23 -25 0 -18 4 -20 35 -15 56 9 85 -32
47 -66 -23 -21 -31 -21 -61 2 -25 19 -25 19 -63 -12 -30 -24 -38 -37 -38 -63
l0 -34 -43 6 c-60 8 -78 -13 -47 -54 l22 -30 -27 -48 c-23 -42 -25 -53 -16
-77 15 -39 35 -29 35 19 1 32 5 39 21 39 11 0 28 -14 40 -32 29 -47 42 -41 50
25 4 36 14 65 28 80 l20 22 -32 0 c-22 0 -31 4 -29 12 3 8 19 12 41 10 39 -4
44 3 23 30 -8 11 -20 15 -34 11 -44 -11 -36 58 9 72 12 4 26 2 32 -4 17 -17
52 -13 96 12 35 20 39 26 27 36 -8 7 -13 18 -10 25 3 7 -5 24 -16 39 -21 26
-37 30 -87 20z"/>
<path d="M4856 8252 c-2 -4 -1 -14 5 -22 12 -20 11 -77 -1 -85 -6 -3 -8 -16
-5 -28 4 -17 10 -85 15 -178 0 -8 38 -4 47 5 4 4 2 10 -5 15 -8 5 -13 50 -14
145 -3 118 -5 139 -20 147 -9 5 -19 5 -22 1z"/>
<path d="M4360 8048 c0 -95 -3 -428 -7 -740 -3 -366 -2 -568 4 -568 20 0 33
1463 13 1475 -6 4 -10 -55 -10 -167z"/>
<path d="M5120 8179 c0 -28 2 -31 13 -16 6 9 30 17 52 19 58 4 49 22 -12 26
l-53 3 0 -32z"/>
<path d="M7860 8197 c0 -2 6 -17 14 -33 11 -22 13 -47 7 -109 -4 -44 -10 -86
-12 -94 -5 -17 24 -26 48 -17 12 5 13 10 5 18 -7 7 -9 43 -5 109 6 104 -1 129
-38 129 -11 0 -19 -2 -19 -3z"/>
<path d="M8043 8193 c-18 -7 -16 -30 3 -37 14 -6 16 -19 11 -92 -2 -47 -10
-91 -16 -97 -19 -19 -12 -27 20 -27 24 0 30 3 25 16 -3 9 -6 64 -6 124 0 108
-5 124 -37 113z"/>
<path d="M1464 8177 c-9 -24 6 -44 18 -22 7 11 6 21 -1 28 -7 7 -12 6 -17 -6z"/>
<path d="M1680 8182 c0 -5 6 -22 14 -38 8 -16 17 -61 20 -100 6 -59 4 -72 -9
-77 -21 -9 -19 -24 6 -32 27 -9 47 9 31 28 -6 7 -12 60 -14 118 -3 99 -4 104
-25 107 -13 2 -23 -1 -23 -6z"/>
<path d="M1840 8170 c-17 -17 -20 -33 -20 -103 0 -70 3 -87 20 -105 28 -30 44
-28 24 3 -22 33 -17 201 6 215 10 7 11 10 3 10 -7 0 -22 -9 -33 -20z"/>
<path d="M1918 8086 c3 -57 -1 -102 -7 -115 -10 -17 -9 -21 4 -21 21 0 45 59
45 110 0 32 -31 120 -43 120 -1 0 0 -42 1 -94z"/>
<path d="M8400 8172 c0 -16 -33 -24 -41 -10 -6 9 -10 8 -15 -5 -7 -20 -27 -22
-53 -5 -40 25 -82 -24 -43 -50 28 -18 28 -31 0 -79 -35 -58 -34 -103 2 -103
15 0 17 6 13 39 -4 30 -2 39 12 45 20 7 61 -25 71 -56 8 -27 22 -22 17 6 -3
13 0 27 6 30 6 4 11 19 11 34 0 14 12 43 26 63 27 39 30 89 7 97 -7 2 -13 -1
-13 -6z m-5 -52 c7 -12 -12 -40 -26 -40 -10 0 -12 34 -2 43 9 10 21 9 28 -3z"/>
<path d="M8531 8156 c-10 -11 -8 -17 9 -29 15 -11 20 -21 16 -35 -4 -11 -2
-31 3 -46 12 -31 3 -88 -13 -83 -6 2 -10 11 -8 21 2 9 -4 16 -12 16 -8 0 -21
12 -28 27 -20 40 -35 39 -58 -6 -11 -23 -25 -41 -30 -41 -6 0 -10 -4 -10 -10
0 -5 12 -10 27 -10 14 0 41 -11 59 -25 37 -28 54 -32 54 -11 0 8 10 16 23 18
20 3 22 9 25 70 3 67 -16 149 -35 155 -6 2 -15 -3 -22 -11z"/>
<path d="M1385 8140 c-3 -5 1 -23 10 -39 8 -17 15 -39 15 -49 0 -11 6 -25 14
-31 21 -18 32 36 11 58 -8 10 -15 30 -15 44 0 27 -22 38 -35 17z"/>
<path d="M5115 8120 c-12 -19 5 -28 44 -23 34 5 39 3 44 -18 12 -42 7 -76 -11
-92 -26 -24 -49 -21 -56 8 -4 16 -11 22 -21 19 -26 -10 -16 -40 19 -59 l34
-19 37 28 c34 26 36 30 33 79 -3 44 -7 54 -28 63 -38 17 -88 25 -95 14z"/>
<path d="M1292 7996 c-18 -24 -32 -47 -32 -50 0 -3 14 -6 30 -6 17 0 39 -9 49
-19 22 -22 68 -40 57 -22 -4 6 4 15 19 21 30 11 25 31 -6 23 -15 -4 -22 0 -26
16 -3 11 -9 21 -14 21 -5 0 -9 8 -9 18 0 18 -18 42 -30 42 -4 0 -21 -20 -38
-44z"/>
<path d="M1560 7935 c0 -25 4 -35 13 -32 6 2 12 16 12 32 0 16 -6 30 -12 33
-9 2 -13 -8 -13 -33z"/>
<path d="M8700 7940 c0 -11 4 -20 9 -20 11 0 22 26 14 34 -12 12 -23 5 -23
-14z"/>
<path d="M4872 7878 c-16 -16 -15 -38 2 -38 8 0 21 -3 30 -6 11 -4 16 0 16 13
0 18 -17 43 -30 43 -3 0 -11 -5 -18 -12z"/>
<path d="M8400 7870 c0 -5 5 -10 10 -10 6 0 10 5 10 10 0 6 -4 10 -10 10 -5 0
-10 -4 -10 -10z"/>
<path d="M8830 7549 c-25 -21 -39 -69 -20 -69 5 0 10 -19 10 -42 1 -34 8 -51
35 -82 29 -32 42 -40 77 -42 24 -2 61 -6 83 -9 31 -3 44 0 62 17 21 20 56 19
51 -1 -4 -13 4 -15 30 -7 12 4 22 15 22 25 0 9 5 22 12 29 8 8 9 18 1 34 -6
13 -14 36 -19 52 -10 33 -22 40 -44 26 -12 -8 -12 -11 3 -28 34 -37 16 -92
-30 -92 -26 0 -27 3 -11 29 9 15 8 22 -5 35 -8 9 -21 16 -27 16 -17 0 -41 -27
-38 -42 5 -23 -51 -22 -71 1 -18 20 -51 29 -51 13 0 -4 11 -19 24 -34 29 -31
24 -41 -12 -25 -35 15 -43 26 -40 57 1 14 -2 44 -6 68 -5 29 -4 47 4 57 11 14
6 35 -8 35 -4 -1 -18 -10 -32 -21z"/>
<path d="M4907 7487 c-11 -28 -8 -747 3 -747 7 0 10 124 10 380 0 209 -2 380
-4 380 -2 0 -6 -6 -9 -13z"/>
<path d="M9211 7476 c-8 -10 -8 -16 2 -25 16 -13 27 -5 27 21 0 21 -13 23 -29
4z"/>
<path d="M967 7453 c-13 -12 -7 -23 13 -23 11 0 20 7 20 15 0 15 -21 21 -33 8z"/>
<path d="M8800 7346 c10 -28 40 -34 40 -8 0 13 -8 21 -24 24 -21 4 -23 2 -16
-16z"/>
<path d="M8823 7001 c-21 -18 -26 -52 -10 -79 4 -6 2 -20 -5 -31 -10 -17 -9
-24 12 -46 13 -14 28 -25 34 -25 15 0 18 79 5 113 -10 22 -9 31 5 46 35 39 2
58 -41 22z"/>
<path d="M9207 6933 c-4 -3 -7 -12 -7 -20 0 -15 26 -18 34 -4 7 11 -18 33 -27
24z"/>
<path d="M960 6901 c0 -12 6 -21 16 -21 9 0 14 7 12 17 -5 25 -28 28 -28 4z"/>
<path d="M8800 6795 c0 -8 9 -15 20 -15 24 0 27 15 4 24 -22 9 -24 8 -24 -9z"/>
<path d="M5459 6173 c-1 -5 -2 -126 -3 -270 -1 -160 -5 -266 -11 -272 -8 -8
-916 -18 -1027 -12 -16 1 -18 23 -20 274 l-3 272 -530 2 c-291 1 -547 -2 -569
-5 l-38 -7 -3 -562 c-3 -424 -1 -565 8 -570 7 -5 129 -8 272 -8 l260 0 3 -247
2 -248 -539 0 c-444 0 -541 -2 -550 -14 -8 -10 -11 -167 -10 -565 0 -508 4
-580 25 -558 2 2 6 242 9 533 2 291 4 537 5 547 0 16 25 17 389 17 l390 0 3
-22 c4 -29 24 -34 31 -8 5 18 12 21 49 18 36 -2 44 -7 46 -25 5 -32 20 -29 24
5 3 26 6 27 66 30 l62 3 -2 -243 -3 -243 -54 -3 c-30 -2 -59 2 -64 7 -18 18
-37 13 -37 -9 0 -19 -7 -20 -142 -21 -79 -1 -165 -2 -193 -3 l-50 -1 -3 -573
-2 -572 572 2 573 3 3 266 2 266 302 6 c377 9 711 9 732 1 14 -5 16 -39 16
-275 l0 -269 564 0 c441 0 567 3 573 13 4 6 8 265 8 574 0 460 -2 564 -13 568
-8 3 -130 5 -272 5 l-258 0 -5 33 c-4 24 0 36 14 49 32 28 23 38 -35 38 -59 0
-80 -15 -52 -36 10 -7 19 -27 19 -46 l2 -33 -255 0 -255 0 -3 34 c-3 25 2 37
17 48 30 20 17 33 -34 33 -52 0 -64 -13 -35 -37 22 -19 27 -71 8 -78 -20 -6
-1012 -15 -1037 -8 l-21 5 0 518 c0 425 2 520 14 529 9 8 157 10 532 9 l519
-3 0 -305 c0 -280 -1 -306 -18 -323 -25 -25 -13 -37 38 -37 52 0 67 16 36 39
-17 13 -22 25 -19 52 l3 34 250 0 249 0 7 -33 c5 -26 3 -36 -12 -45 -32 -20
-23 -37 20 -37 22 0 45 -2 53 -5 7 -3 20 -1 28 5 12 7 9 13 -13 30 l-28 22 2
289 c1 214 4 291 13 298 8 7 116 12 277 13 l264 3 0 70 c0 39 2 295 4 570 l3
500 -571 3 c-314 1 -572 -1 -572 -5z m1092 -64 c16 -30 7 -1005 -9 -1021 -7
-7 -105 -13 -274 -15 -172 -3 -265 -8 -269 -15 -4 -6 -7 -122 -6 -258 0 -135
-3 -251 -7 -258 -5 -9 -74 -12 -257 -12 l-249 0 0 269 0 269 -41 7 c-57 10
-1072 -5 -1083 -15 -10 -10 -10 -1096 0 -1112 5 -8 240 -9 820 -5 510 4 816 2
819 -3 4 -6 116 -10 275 -10 185 0 271 -3 276 -11 11 -18 9 -1018 -2 -1029
-12 -12 -1030 -18 -1041 -6 -4 4 -7 125 -8 269 l0 262 -255 2 c-140 2 -397 -1
-570 -5 l-315 -7 -3 -262 c-2 -237 -4 -263 -20 -271 -9 -6 -239 -9 -522 -8
l-505 1 -2 510 c-2 281 1 516 6 524 7 10 62 14 269 15 144 1 264 4 266 7 7 7
9 1129 2 1136 -2 3 -122 4 -265 4 -252 -2 -260 -1 -271 19 -7 14 -10 175 -8
527 l3 508 523 3 522 2 0 -275 0 -275 23 -4 c12 -3 270 -2 572 2 l550 7 3 270
c1 166 6 271 12 275 6 4 240 7 520 9 l509 2 12 -22z"/>
<path d="M7918 6021 c-32 -29 -33 -31 -33 -116 0 -79 2 -88 24 -104 19 -14 31
-17 54 -10 39 11 56 36 57 81 0 49 -8 68 -31 68 -16 0 -17 -4 -9 -26 19 -49
-10 -127 -40 -109 -37 23 -35 165 2 205 19 20 21 21 39 4 16 -14 22 -15 32 -5
9 10 8 15 -7 27 -29 21 -52 17 -88 -15z"/>
<path d="M1887 5374 c-11 -11 -8 -52 3 -59 6 -3 10 -24 10 -45 0 -30 -5 -42
-22 -51 l-22 -12 22 -8 c23 -9 29 -24 12 -34 -17 -10 -11 -25 9 -25 14 0 20 9
24 38 2 20 1 42 -2 47 -3 6 -6 41 -6 79 -1 64 -10 88 -28 70z"/>
<path d="M1836 5285 c-23 -35 -26 -80 -6 -80 10 0 14 8 12 27 -2 15 2 37 8 48
17 32 6 35 -14 5z"/>
<path d="M7895 4986 c-29 -21 -10 -37 23 -20 60 31 71 7 35 -73 -15 -31 -28
-79 -31 -105 -4 -44 -3 -48 17 -48 18 0 21 6 21 48 0 29 10 74 26 111 14 35
24 70 22 79 -4 20 -88 26 -113 8z"/>
<path d="M4580 4916 c-15 -17 -20 -31 -15 -43 7 -17 8 -17 18 1 7 11 20 28 30
38 20 22 21 28 4 28 -8 0 -24 -11 -37 -24z"/>
<path d="M4653 4933 c-10 -4 -9 -10 2 -26 22 -32 19 -51 -20 -101 -40 -52 -41
-56 -20 -56 8 0 15 5 15 10 0 6 8 18 18 28 32 32 52 66 52 87 -1 26 -31 64
-47 58z"/>
<path d="M4580 4705 c0 -23 3 -25 49 -25 51 0 84 21 64 41 -7 7 -21 4 -42 -8
-30 -17 -33 -17 -45 0 -18 24 -26 21 -26 -8z"/>
<path d="M3423 4443 c-20 -7 -15 -23 6 -23 10 0 21 7 25 15 5 15 -7 18 -31 8z"/>
<path d="M3333 4427 c-24 -11 -29 -22 -13 -32 5 -3 18 3 29 14 24 24 15 33
-16 18z"/>
<path d="M1861 4351 c-6 -10 -7 -21 -4 -25 9 -8 33 14 33 30 0 20 -18 17 -29
-5z"/>
<path d="M1942 4313 c-1 -26 -6 -49 -12 -51 -12 -4 -3 -22 11 -22 5 0 9 6 9
14 0 7 7 19 15 26 18 15 20 51 3 68 -20 20 -25 14 -26 -35z"/>
<path d="M3571 4341 c-12 -8 -12 -12 2 -26 13 -13 17 -36 17 -105 0 -49 -5
-92 -10 -95 -15 -9 -2 -25 19 -25 16 0 18 12 20 116 2 132 -8 160 -48 135z"/>
<path d="M5980 4291 c0 -22 5 -43 11 -46 17 -11 23 3 9 20 -10 12 -10 21 -2
40 10 21 9 25 -3 25 -11 0 -15 -11 -15 -39z"/>
<path d="M6060 4315 c0 -8 5 -15 10 -15 6 0 10 7 10 15 0 8 -4 15 -10 15 -5 0
-10 -7 -10 -15z"/>
<path d="M6050 4233 c0 -3 7 -14 16 -24 13 -14 13 -20 3 -38 -17 -25 -2 -42
16 -18 13 18 10 52 -8 75 -10 13 -27 16 -27 5z"/>
<path d="M1950 4201 c0 -10 -3 -33 -6 -51 -7 -31 -6 -32 15 -21 16 9 21 21 21
51 0 29 -4 40 -15 40 -8 0 -15 -8 -15 -19z"/>
<path d="M1842 4154 c2 -11 11 -20 22 -22 13 -3 17 1 14 14 -2 11 -11 20 -22
22 -13 3 -17 -1 -14 -14z"/>
<path d="M3317 4074 c-8 -8 1 -24 14 -24 5 0 9 7 9 15 0 15 -12 20 -23 9z"/>
<path d="M3420 4048 c0 -18 18 -34 28 -24 3 4 -2 14 -11 23 -16 16 -17 16 -17
1z"/>
<path d="M3530 4010 c0 -5 5 -10 10 -10 6 0 10 5 10 10 0 6 -4 10 -10 10 -5 0
-10 -4 -10 -10z"/>
<path d="M7883 3820 c-18 -7 -23 -17 -23 -48 0 -21 5 -43 12 -50 9 -9 9 -17
-1 -35 -21 -39 -10 -96 22 -115 26 -16 29 -16 65 3 31 17 37 26 40 58 4 47
-28 97 -63 97 -24 0 -55 23 -55 41 0 6 11 21 25 34 25 26 17 31 -22 15z m77
-145 c22 -24 22 -25 6 -60 -19 -40 -37 -44 -67 -14 -16 16 -20 28 -15 52 10
52 40 61 76 22z"/>
<path d="M7950 3801 c5 -11 10 -29 10 -40 0 -25 15 -28 24 -5 10 27 -4 64 -25
64 -16 0 -18 -3 -9 -19z"/>
<path d="M1334 3447 c-11 -25 -8 -47 7 -47 5 0 9 10 9 23 0 13 5 28 12 35 9 9
9 12 -2 12 -8 0 -20 -10 -26 -23z"/>
<path d="M1403 3365 c4 -9 7 -19 7 -21 0 -2 7 -4 15 -4 22 0 18 18 -7 31 -18
10 -20 9 -15 -6z"/>
<path d="M1405 3301 c-6 -11 9 -23 19 -14 9 9 7 23 -3 23 -6 0 -12 -4 -16 -9z"/>
<path d="M8396 2715 c-9 -13 -16 -37 -16 -52 0 -29 33 -93 48 -93 18 0 21 14
6 31 -10 12 -14 32 -12 65 3 44 6 49 28 52 21 2 28 -3 38 -32 11 -30 11 -40
-3 -66 -12 -24 -14 -35 -5 -45 12 -14 8 -27 -18 -57 -11 -14 -18 -15 -33 -5
-21 13 -34 5 -26 -18 11 -27 62 -18 91 16 23 27 26 39 26 108 0 68 -3 80 -23
99 -32 30 -80 29 -101 -3z"/>
<path d="M8660 2501 c0 -12 5 -21 10 -21 6 0 10 6 10 14 0 8 -4 18 -10 21 -5
3 -10 -3 -10 -14z"/>
<path d="M8803 2043 c-26 -17 -32 -63 -8 -63 16 0 12 -47 -8 -87 -12 -26 7
-73 30 -73 18 0 17 36 -2 44 -16 6 -21 36 -6 36 10 0 61 -57 61 -68 0 -4 12
-13 27 -19 20 -10 30 -10 40 -1 10 8 17 8 25 0 17 -17 38 -15 38 3 0 20 10 19
26 -2 12 -17 14 -17 36 5 29 26 44 28 56 6 14 -24 45 -3 60 41 11 27 11 39 2
50 -6 8 -9 19 -5 25 9 14 -23 50 -43 50 -10 0 -12 -6 -7 -22 24 -74 15 -106
-25 -93 -15 5 -19 12 -14 30 4 17 0 26 -15 35 -25 13 -39 6 -50 -23 -11 -30
-51 -30 -83 1 -25 23 -28 23 -34 8 -4 -11 2 -29 16 -48 29 -39 20 -45 -24 -16
-34 22 -37 26 -34 70 1 27 -4 53 -12 62 -11 14 -10 19 4 34 9 10 16 22 16 25
0 13 -45 6 -67 -10z"/>
<path d="M9200 1975 c0 -8 5 -15 10 -15 6 0 10 7 10 15 0 8 -4 15 -10 15 -5 0
-10 -7 -10 -15z"/>
<path d="M870 1957 c0 -7 5 -18 11 -24 6 -6 13 -24 15 -41 4 -24 0 -34 -14
-43 -17 -10 -18 -17 -9 -36 12 -27 27 -25 42 4 6 12 17 28 24 37 10 12 10 19
-2 37 -9 12 -13 28 -10 37 4 8 -2 21 -12 28 -24 18 -45 18 -45 1z"/>
<path d="M952 1958 c6 -18 28 -21 28 -4 0 9 -7 16 -16 16 -9 0 -14 -5 -12 -12z"/>
<path d="M789 1917 c-8 -7 -18 -20 -22 -29 -9 -24 -39 -23 -71 3 -40 32 -54
10 -20 -30 33 -40 27 -47 -20 -25 -48 24 -58 9 -18 -27 28 -25 35 -27 52 -17
15 10 22 10 32 0 18 -18 67 -14 99 9 35 24 37 37 7 48 l-22 8 22 12 c26 14 28
24 6 45 -18 19 -24 19 -45 3z"/>
<path d="M8820 1500 c-6 -11 -16 -19 -22 -17 -14 2 -22 -28 -14 -50 5 -13 9
-13 23 -2 15 12 16 12 9 -6 -21 -50 -19 -64 13 -91 17 -14 31 -32 31 -40 0
-23 42 -38 115 -40 58 -2 74 1 92 18 24 22 53 18 53 -7 0 -27 19 -16 45 25 27
42 30 60 16 76 -5 5 -11 20 -13 33 -3 26 -32 50 -45 38 -4 -4 -2 -17 5 -27 7
-11 12 -36 12 -55 0 -33 -2 -35 -35 -35 -39 0 -40 2 -23 29 9 15 9 23 -1 35
-8 9 -18 16 -24 16 -17 0 -46 -31 -41 -44 3 -9 -7 -13 -31 -14 -26 -1 -38 3
-42 16 -7 17 -22 32 -35 32 -16 0 -7 -48 12 -65 27 -24 25 -38 -2 -29 -44 13
-58 34 -58 86 0 26 -6 58 -12 69 -10 17 -10 23 0 26 17 6 15 43 -3 43 -8 0
-19 -9 -25 -20z"/>
<path d="M9200 1425 c0 -8 5 -15 10 -15 6 0 10 7 10 15 0 8 -4 15 -10 15 -5 0
-10 -7 -10 -15z"/>
<path d="M950 1415 c0 -8 5 -15 10 -15 6 0 10 7 10 15 0 8 -4 15 -10 15 -5 0
-10 -7 -10 -15z"/>
<path d="M8780 1316 c0 -31 26 -54 43 -37 9 10 8 15 -5 25 -10 7 -18 18 -18
25 0 6 -4 11 -10 11 -5 0 -10 -11 -10 -24z"/>
<path d="M7848 1243 c-22 -5 -23 -17 -2 -34 12 -10 15 -30 12 -103 -2 -50 -7
-99 -12 -108 -7 -15 -3 -18 24 -18 27 0 31 3 24 18 -5 9 -10 67 -12 127 -2 61
-6 113 -10 116 -4 3 -15 4 -24 2z"/>
<path d="M1597 1234 c-4 -4 0 -15 9 -25 14 -15 16 -34 11 -106 -3 -48 -8 -99
-12 -111 -7 -21 -5 -23 15 -20 23 3 23 5 24 133 1 124 0 130 -19 133 -12 2
-24 0 -28 -4z"/>
<path d="M7980 1225 c-7 -8 -9 -23 -5 -32 6 -16 8 -15 25 7 11 14 20 28 20 33
0 13 -27 8 -40 -8z"/>
<path d="M8064 1209 c5 -28 2 -42 -14 -62 l-21 -26 21 -21 c24 -24 26 -57 4
-88 -20 -29 -42 -28 -54 3 -11 29 -40 34 -40 6 0 -44 71 -64 113 -31 30 24 37
74 15 109 -9 15 -9 25 0 46 17 38 15 59 -9 81 l-22 19 7 -36z"/>
<path d="M1750 1198 c-25 -27 -25 -38 0 -38 13 0 20 7 20 19 0 25 11 32 38 24
47 -12 38 -68 -21 -130 -17 -18 -27 -36 -24 -40 12 -11 107 100 107 125 0 55
-80 82 -120 40z"/>
<path d="M8412 1208 c-7 -7 -12 -24 -12 -38 0 -16 -14 -43 -35 -67 -19 -23
-35 -52 -35 -65 0 -42 -14 -53 -49 -38 -17 7 -37 10 -46 6 -20 -7 -19 -45 2
-68 15 -17 15 -21 -4 -56 -32 -58 -36 -87 -14 -113 23 -28 28 -19 33 46 4 56
32 54 65 -5 32 -57 31 -56 46 -41 9 10 8 15 -6 26 -15 11 -16 17 -8 34 6 11
11 33 11 49 0 19 11 40 30 60 33 35 36 48 16 75 -14 18 -15 18 -24 0 -9 -14
-13 -15 -23 -6 -10 10 -9 20 4 48 18 38 46 46 67 20 16 -20 59 -19 67 1 3 8
16 19 28 24 20 8 22 13 15 49 -4 22 -13 47 -20 56 -15 18 -91 20 -108 3z m83
-68 c0 -32 -3 -35 -33 -38 -26 -3 -34 1 -41 20 -11 30 -4 46 22 51 43 9 52 3
52 -33z m-115 -185 c0 -19 -20 -29 -32 -17 -8 8 -7 16 2 26 14 17 30 12 30 -9z"/>
<path d="M1265 1190 c-9 -10 -15 -26 -11 -35 5 -14 9 -14 35 0 41 21 47 19 61
-15 10 -24 10 -33 0 -45 -18 -21 -54 -19 -75 5 -19 20 -19 20 -52 -12 -18 -17
-33 -39 -33 -47 0 -10 9 -7 28 12 33 32 39 33 64 10 17 -15 21 -15 63 6 49 24
61 36 45 46 -5 3 -10 19 -10 34 0 56 -77 83 -115 41z"/>
<path d="M8596 1051 c-8 -13 4 -42 15 -35 12 7 12 44 0 44 -6 0 -12 -4 -15 -9z"/>
<path d="M1440 1020 c0 -11 5 -20 10 -20 6 0 10 9 10 20 0 11 -4 20 -10 20 -5
0 -10 -9 -10 -20z"/>
<path d="M8520 1005 c-10 -13 -10 -19 4 -33 9 -10 16 -30 16 -44 0 -26 22 -53
33 -41 14 13 6 53 -12 65 -15 9 -18 19 -14 40 6 31 -7 37 -27 13z"/>
<path d="M1183 1000 c-2 -3 -25 -5 -50 -5 -56 0 -77 -23 -50 -53 22 -24 21
-42 -4 -94 -17 -35 -19 -48 -10 -71 16 -42 37 -29 33 20 -3 29 1 42 12 46 20
8 62 -27 70 -58 4 -14 11 -23 17 -20 5 4 7 15 4 25 -3 10 -1 21 5 25 5 3 10
23 10 43 0 24 10 51 26 75 33 49 26 74 -22 73 -19 -1 -38 -3 -41 -6z m46 -43
c12 -15 5 -27 -16 -27 -7 0 -13 9 -13 20 0 23 13 26 29 7z"/>
<path d="M1370 1000 c-12 -8 -13 -13 -2 -30 6 -11 12 -31 12 -45 0 -29 28 -45
41 -24 5 9 3 22 -6 36 -8 12 -15 34 -15 48 0 27 -6 30 -30 15z"/>
<path d="M1735 1000 c-8 -13 3 -30 21 -30 18 0 18 14 0 29 -10 8 -16 9 -21 1z"/>
<path d="M1805 993 c-27 -15 -28 -17 -10 -24 21 -7 56 9 56 26 1 16 -14 15
-46 -2z"/>
<path d="M8433 893 c-3 -10 -15 -30 -25 -45 -24 -35 -23 -46 5 -41 17 3 33 -4
55 -27 18 -17 36 -29 42 -25 21 13 10 71 -21 113 -34 46 -46 51 -56 25z"/>
<path d="M1287 893 c-4 -3 -7 -14 -7 -23 0 -9 -9 -25 -20 -35 -28 -25 -25 -32
13 -40 17 -4 44 -18 59 -32 14 -14 31 -23 36 -19 13 8 -9 85 -36 124 -23 32
-33 38 -45 25z"/>
<path d="M8556 822 c-4 -13 -5 -26 -2 -29 10 -11 18 4 14 29 l-4 23 -8 -23z"/>
<path d="M8690 800 c-15 -44 -9 -60 15 -40 16 13 21 80 7 80 -5 0 -15 -18 -22
-40z"/>
<path d="M1537 793 c-6 -33 5 -49 21 -30 12 14 6 57 -8 57 -4 0 -10 -12 -13
-27z"/>
<path d="M1390 795 c-10 -13 -9 -15 9 -15 11 0 21 4 21 9 0 18 -18 21 -30 6z"/>
<path d="M7547 333 c-13 -12 -7 -43 7 -43 19 0 28 14 20 34 -7 17 -16 20 -27
9z"/>
<path d="M2596 314 c-8 -21 -1 -28 19 -20 9 3 15 11 13 18 -7 19 -25 20 -32 2z"/>
<path d="M8100 310 c0 -11 4 -20 9 -20 11 0 22 26 14 34 -12 12 -23 5 -23 -14z"/>
<path d="M2050 304 c0 -17 22 -14 28 4 2 7 -3 12 -12 12 -9 0 -16 -7 -16 -16z"/>
<path d="M1630 208 c0 -19 21 -48 35 -48 24 0 17 34 -10 47 -15 6 -25 7 -25 1z"/>
<path d="M2190 191 c0 -14 28 -33 39 -27 16 10 1 36 -20 36 -10 0 -19 -4 -19
-9z"/>
<path d="M7680 192 c0 -10 22 -32 32 -32 4 0 8 9 8 20 0 13 -7 20 -20 20 -11
0 -20 -4 -20 -8z"/>
</g>
</svg>
