<?xml version="1.0" standalone="no"?>
<!DOCTYPE svg PUBLIC "-//W3C//DTD SVG 20010904//EN"
 "http://www.w3.org/TR/2001/REC-SVG-20010904/DTD/svg10.dtd">
<svg version="1.0" xmlns="http://www.w3.org/2000/svg"
 width="1040.000000pt" height="1068.000000pt" viewBox="0 0 1040.000000 1068.000000"
 preserveAspectRatio="xMidYMid meet">
<metadata>
Created by potrace 1.16, written by Peter Selinger 2001-2019
</metadata>
<g transform="translate(0.000000,1068.000000) scale(0.100000,-0.100000)"
fill="#000000" stroke="none">
<path d="M1500 10448 c0 -293 -12 -1236 -16 -1247 -4 -12 -102 -13 -649 -7
l-645 8 0 -21 c0 -20 4 -21 313 -23 l312 -3 -3 -880 c-2 -844 -6 -1082 -18
-1094 -3 -3 -144 -5 -314 -3 -299 2 -341 -2 -314 -28 9 -8 764 -17 2027 -25
330 -2 601 -6 604 -8 10 -11 -3 -1942 -14 -1960 -3 -4 -147 -7 -321 -6 -175 1
-322 1 -328 0 -7 -1 -13 -99 -17 -311 -3 -171 -9 -315 -13 -321 -4 -7 -110 -9
-323 -8 -174 2 -322 0 -329 -5 -9 -5 -12 -90 -13 -344 -1 -185 -4 -489 -8
-675 -4 -209 -2 -342 4 -348 5 -5 138 -9 321 -9 249 0 314 -3 323 -13 8 -10 9
-103 5 -325 -4 -217 -2 -312 6 -317 6 -3 160 -9 343 -12 287 -5 334 -4 344 9
9 11 13 98 15 329 l3 314 325 3 c178 1 328 6 332 10 4 4 8 149 9 322 1 173 5
323 10 332 8 15 56 16 662 11 l654 -6 6 22 c3 12 6 153 8 314 1 161 2 310 3
332 l1 40 -330 5 -330 5 0 320 0 320 -325 5 -325 5 4 1060 c2 583 5 1063 7
1067 2 3 4 119 4 256 1 226 2 251 17 257 10 3 144 6 298 5 154 -1 297 -1 317
-1 l38 1 2 333 3 332 310 0 310 0 -4 -645 c-2 -355 -6 -648 -8 -652 -2 -5
-148 -8 -323 -8 -230 0 -321 -3 -326 -12 -9 -14 -11 -84 -15 -425 -2 -150 -1
-275 2 -278 3 -3 294 -5 646 -5 703 0 653 4 653 -59 0 -39 -17 -51 -79 -53
-54 -1 -55 -2 -11 -5 25 -3 53 -12 63 -21 18 -16 20 -16 33 3 8 10 15 28 15
39 2 20 3 40 7 79 2 16 26 17 351 17 309 0 350 2 355 16 3 9 6 154 6 324 0
170 3 315 6 324 5 14 44 16 330 16 l324 0 1 248 c1 136 0 282 -1 325 -1 43 3
83 8 90 15 17 618 12 625 -6 7 -21 -15 -2622 -23 -2630 -4 -5 -152 -8 -328 -8
-176 1 -323 -2 -326 -7 -2 -4 -8 -145 -11 -313 -3 -167 -9 -307 -13 -311 -4
-4 -146 -8 -317 -9 -170 -1 -318 -6 -328 -11 -16 -8 -17 -35 -17 -353 l0 -344
128 -3 c70 -2 543 -5 1052 -7 509 -2 1052 -5 1208 -6 190 -1 285 2 290 9 4 6
12 155 17 331 l10 320 326 3 326 2 9 233 c5 127 9 432 9 677 l0 445 -654 3
c-487 1 -657 5 -662 14 -7 11 0 1289 7 1297 5 6 605 2 615 -5 6 -4 9 -124 8
-337 l-3 -332 347 -3 347 -2 1 192 c1 342 4 476 10 483 4 3 210 6 458 5 381 0
451 2 451 14 0 16 -75 27 -155 22 -95 -5 -85 -81 -85 674 l0 668 -502 7 c-277
3 -582 5 -678 3 l-175 -3 -5 -330 -5 -330 -307 -3 c-358 -3 -329 -13 -323 119
2 46 7 488 11 981 5 717 4 901 -6 913 -11 13 -230 15 -1987 15 -1086 0 -1979
2 -1984 6 -6 4 -8 121 -5 320 4 303 3 314 -15 314 -22 0 -20 27 -24 -418 -1
-139 1 -255 5 -257 3 -2 896 -5 1984 -6 1579 -2 1979 -5 1987 -16 11 -13 13
-480 4 -908 -2 -121 -7 -848 -10 -1615 -3 -767 -8 -1471 -11 -1565 -3 -93 -7
-258 -8 -365 -1 -107 -5 -201 -9 -207 -10 -16 -551 -19 -591 -3 l-26 10 0 222
c1 123 5 387 10 588 5 201 10 752 11 1225 0 473 4 1110 8 1415 4 305 5 561 3
568 -3 10 -477 12 -2346 10 l-2341 -3 -8 -930 c-4 -511 -11 -964 -15 -1005
l-7 -75 -955 3 c-525 1 -965 4 -978 7 l-24 6 6 472 c13 1110 19 1473 26 1486
6 11 116 13 664 12 533 -2 656 0 656 11 -2 170 8 637 14 646 5 9 162 12 662
12 360 0 654 3 654 8 0 4 1 156 3 337 2 288 0 330 -13 330 -13 0 -16 -44 -20
-315 l-5 -315 -660 -5 -660 -5 -6 -175 c-4 -96 -7 -243 -8 -327 -1 -105 -5
-154 -13 -159 -6 -4 -144 -7 -307 -6 -223 2 -297 5 -304 14 -5 8 -5 141 0 313
4 165 8 455 8 645 0 320 -1 345 -17 348 -16 3 -18 -5 -18 -60z m5968 -1313
c11 -4 12 -120 6 -647 -4 -431 -10 -645 -17 -650 -13 -8 -472 -10 -556 -2
l-63 7 3 322 c2 178 1 326 -2 329 -3 3 -606 8 -1341 11 -1168 4 -1337 3 -1348
-10 -8 -10 -11 -42 -9 -92 1 -43 2 -187 1 -320 l-2 -243 -329 0 c-267 0 -330
-3 -334 -14 -5 -13 -22 -1821 -22 -2391 l0 -320 330 -5 330 -5 0 -286 c0 -228
-3 -289 -14 -302 -12 -15 -67 -17 -601 -17 -323 0 -609 3 -635 6 l-47 7 6 700
c4 385 8 702 10 706 2 3 7 706 10 1561 4 855 9 1578 12 1607 4 36 11 53 22 55
26 5 4576 -2 4590 -7z m-670 -1314 c1 -355 -1 -648 -6 -653 -4 -4 -152 -8
-329 -9 -275 -1 -322 -3 -327 -16 -3 -8 -6 -146 -6 -308 0 -161 -3 -307 -6
-324 l-7 -31 -971 2 -971 3 -3 304 c-2 216 1 308 9 317 9 11 73 14 334 14
l322 0 6 338 c4 185 7 485 7 666 0 181 3 333 6 337 3 5 432 8 972 7 l967 -3 3
-644z m3327 -8 c-4 -357 -10 -652 -14 -656 -4 -4 -153 -9 -330 -10 l-323 -2
-5 -330 c-2 -188 -8 -334 -14 -341 -11 -13 -588 -8 -603 6 -4 4 -9 156 -10
337 l-1 328 -330 5 -330 5 -3 309 c-2 241 1 311 10 318 7 4 158 8 336 8 251 0
322 3 322 13 0 6 2 77 4 157 3 80 5 225 5 323 l1 177 646 0 647 0 -8 -647z
m-1345 -2376 c0 -177 0 -328 0 -334 0 -10 76 -13 328 -15 l327 -3 -3 -295 c-2
-162 -7 -299 -11 -303 -5 -5 -150 -8 -323 -7 -245 0 -317 -2 -325 -12 -6 -8
-13 -136 -16 -325 -2 -171 -8 -316 -12 -323 -8 -13 -1264 -3 -1279 10 -5 5 -5
138 0 322 6 212 6 317 -1 324 -7 8 -109 13 -327 17 -175 3 -321 8 -326 10 -4
3 -7 23 -6 44 1 21 2 94 3 163 1 69 4 185 8 258 l6 133 652 -2 c359 -1 658 2
664 5 8 5 11 108 11 331 0 205 4 325 10 327 5 2 147 2 315 0 l306 -3 -1 -322z
m661 311 c6 -75 -5 -606 -13 -615 -8 -10 -80 -13 -298 -13 -159 0 -295 3 -304
6 -14 5 -16 40 -16 283 0 152 3 293 6 314 l7 37 308 0 c240 0 309 -3 310 -12z
m-6663 -643 c13 -5 14 -42 9 -288 -4 -155 -9 -291 -12 -302 -12 -48 -7 -48
322 -48 169 1 326 1 348 2 22 0 177 -3 345 -7 l305 -7 2 -300 c1 -210 -2 -304
-10 -313 -9 -11 -70 -13 -328 -11 -175 2 -321 0 -326 -4 -4 -5 -10 -156 -13
-335 l-5 -327 -325 -5 -325 -5 -11 -325 c-6 -179 -12 -326 -13 -328 -2 -5
-605 9 -613 15 -5 2 -8 148 -8 324 0 175 -1 320 -2 321 -2 1 -149 4 -328 8
l-325 5 3 485 c4 698 7 792 26 805 10 8 106 10 318 8 240 -4 306 -2 320 9 14
11 17 50 23 313 3 165 9 303 13 307 4 3 18 8 32 10 41 5 562 -1 578 -7z m1985
-950 c-2 -165 -5 -306 -8 -312 -5 -16 -605 -19 -620 -4 -6 6 -7 74 -4 173 4
90 7 224 8 299 1 75 4 139 8 142 4 4 144 6 312 5 l306 -3 -2 -300z m2656 290
c11 -4 12 -55 7 -288 -3 -155 -6 -294 -6 -310 l0 -27 -642 2 -643 3 3 305 c2
237 6 307 16 315 13 10 1237 10 1265 0z"/>
<path d="M9486 10500 c-7 -24 -15 -1360 -8 -1360 10 -1 849 -1 890 0 22 0 32
5 32 15 0 13 -55 15 -439 15 -358 0 -441 2 -450 14 -8 10 -10 185 -6 657 3
407 2 649 -4 659 -9 13 -10 13 -15 0z"/>
<path d="M217 10464 c-4 -4 -7 -21 -6 -38 0 -29 1 -29 9 -8 5 12 15 22 22 23
7 0 24 2 38 2 14 1 27 7 30 12 6 11 -82 20 -93 9z"/>
<path d="M1272 10447 c-6 -6 -13 -24 -17 -40 -4 -15 -11 -27 -16 -27 -5 0 -15
-12 -21 -27 -7 -16 -19 -36 -27 -46 -13 -16 -13 -19 0 -33 21 -20 52 -8 38 14
-13 21 16 95 34 89 19 -6 20 -57 1 -78 -13 -15 -14 -22 -5 -33 7 -8 11 -25 9
-38 -2 -17 2 -23 17 -23 16 0 20 7 19 40 -1 22 -2 79 -3 128 -1 84 -7 101 -29
74z"/>
<path d="M205 10382 c-3 -3 -5 -11 -5 -19 0 -10 10 -12 39 -7 36 6 39 4 49
-25 24 -68 -43 -142 -68 -75 -6 14 -15 24 -22 22 -40 -14 4 -68 55 -68 39 0
67 25 69 61 4 57 -3 87 -19 94 -28 12 -92 23 -98 17z"/>
<path d="M2377 9602 c-19 -21 -23 -52 -7 -52 6 0 15 11 20 24 13 34 28 41 51
20 26 -24 24 -63 -7 -99 -35 -41 -9 -47 28 -6 30 33 36 76 18 112 -14 26 -80
26 -103 1z"/>
<path d="M2450 9400 c-8 -6 -32 -7 -53 -4 -34 5 -38 4 -35 -12 2 -15 14 -20
54 -22 52 -3 84 14 69 38 -8 12 -16 13 -35 0z"/>
<path d="M1700 8887 c0 -7 5 -18 11 -24 7 -7 10 -49 7 -117 -3 -101 -2 -106
17 -106 19 0 20 5 17 118 -2 64 -5 123 -7 130 -6 16 -45 16 -45 -1z"/>
<path d="M1492 8508 c-6 -8 -10 -88 -10 -193 -1 -99 -4 -243 -7 -320 -4 -89
-2 -145 4 -155 9 -13 58 -15 326 -17 173 -1 317 2 320 6 2 4 7 159 11 343 6
335 6 336 -15 343 -11 3 -29 2 -38 -4 -15 -9 -15 -10 -2 -11 24 0 41 -41 37
-87 -7 -70 -7 -69 -200 -68 -95 1 -177 -1 -183 -4 -5 -3 71 -8 170 -11 l180
-5 3 -62 c3 -55 1 -62 -18 -68 -15 -5 -19 -12 -14 -23 14 -34 16 -82 3 -98
-10 -12 -24 -15 -59 -10 -26 3 -62 3 -81 -1 -29 -7 -23 -9 41 -13 l75 -5 3
-47 c2 -27 -1 -48 -5 -48 -25 -1 -33 -17 -22 -48 20 -59 9 -62 -190 -62 -124
0 -181 4 -189 12 -15 15 -16 54 -2 63 17 10 11 21 -16 34 -24 11 -25 15 -19
59 5 38 3 51 -9 61 -19 16 -21 82 -4 99 8 8 75 12 228 14 l215 1 -230 9 c-126
4 -236 10 -242 13 -8 3 -13 23 -13 53 0 26 6 54 13 61 10 10 8 16 -10 28 -19
13 -23 25 -23 68 0 92 -21 85 274 87 176 1 237 4 186 8 -138 13 -476 11 -488
-2z"/>
<path d="M1640 8060 c0 -6 29 -10 66 -10 41 0 63 4 59 10 -3 6 -33 10 -66 10
-33 0 -59 -4 -59 -10z"/>
<path d="M1698 7933 c12 -2 32 -2 45 0 12 2 2 4 -23 4 -25 0 -35 -2 -22 -4z"/>
<path d="M1933 7933 c9 -2 23 -2 30 0 6 3 -1 5 -18 5 -16 0 -22 -2 -12 -5z"/>
<path d="M178 6503 c-23 -6 -23 -20 1 -32 11 -7 323 -11 857 -11 862 -1 1073
-5 1086 -18 11 -11 13 -194 4 -414 -7 -164 -11 -198 -24 -203 -8 -3 -152 -5
-318 -4 -166 1 -307 -2 -313 -5 -8 -5 -11 -106 -11 -319 0 -172 -4 -318 -8
-324 -6 -10 -88 -13 -333 -15 l-324 -3 -2 -130 c-1 -71 -7 -263 -13 -425 -6
-162 -13 -502 -15 -755 -3 -253 -8 -631 -12 -840 -4 -209 -7 -411 -8 -450 l0
-70 327 -5 c179 -3 329 -8 333 -12 4 -3 6 -153 5 -331 0 -179 3 -328 8 -331 5
-3 296 -6 648 -7 389 0 646 -5 657 -10 17 -9 18 -31 17 -330 -1 -177 1 -323 4
-327 4 -3 150 -8 326 -10 l320 -5 0 -558 c0 -490 2 -559 15 -559 13 0 15 45
15 348 0 191 5 450 10 576 7 151 7 232 0 236 -5 3 -152 7 -327 9 -175 1 -321
5 -326 8 -5 3 -7 146 -6 319 2 221 -1 318 -9 326 -8 8 -197 12 -644 15 -348 2
-643 6 -655 9 -23 4 -23 7 -23 142 0 75 5 220 10 321 7 131 6 189 -2 198 -8
10 -79 13 -336 13 l-325 0 7 653 c3 358 11 823 16 1032 5 209 10 498 11 643 1
184 5 264 13 269 6 4 153 6 328 4 300 -3 317 -2 326 16 6 11 11 143 12 328 0
230 4 311 13 317 7 5 152 7 322 6 171 -1 315 1 321 5 15 9 18 675 3 693 -8 10
-220 13 -981 14 -534 0 -974 2 -977 4 -3 1 -14 1 -23 -1z"/>
<path d="M10116 6452 c-2 -4 -7 -446 -11 -982 -4 -599 -10 -1001 -16 -1043 -6
-38 -9 -83 -6 -100 3 -18 2 -140 -1 -272 l-7 -240 -322 -5 c-177 -3 -324 -8
-328 -11 -6 -7 -12 -230 -14 -505 -1 -89 -5 -136 -14 -148 -12 -16 -48 -17
-545 -16 -292 0 -618 3 -724 5 -106 3 -758 6 -1448 7 l-1255 3 -6 -260 c-17
-719 -22 -1092 -13 -1097 5 -3 448 -9 984 -13 536 -3 983 -9 993 -11 16 -5 17
-28 17 -303 0 -251 -2 -301 -15 -311 -15 -12 -672 -11 -2580 6 -606 6 -722 4
-732 -7 -8 -10 -13 -146 -17 -454 -4 -242 -9 -497 -12 -568 l-6 -127 26 0 26
0 0 354 c0 480 6 736 18 748 10 10 1153 12 2477 2 451 -3 825 -2 831 3 8 6 13
197 18 648 10 934 16 1318 22 1334 4 12 151 13 955 8 523 -2 969 -2 990 0 34
5 39 9 44 37 3 17 6 166 8 331 l2 300 333 3 332 2 2 228 c1 125 3 274 3 332 1
58 4 231 8 385 4 154 10 597 13 985 3 388 10 709 14 714 4 4 60 7 124 7 110
-2 116 -1 116 19 0 19 -6 20 -139 20 -77 0 -142 -3 -145 -8z m-4038 -3651 c2
-237 -1 -306 -10 -313 -7 -4 -147 -8 -310 -8 -297 0 -297 0 -309 22 -9 17 -11
96 -6 305 3 156 9 288 12 293 4 7 114 9 313 8 l307 -3 3 -304z m1335 289 c5
-4 3 -191 -2 -416 -6 -225 -11 -509 -11 -631 0 -156 -3 -224 -11 -229 -14 -9
-1751 -6 -1867 2 l-83 7 1 301 c1 168 6 306 11 312 6 8 99 10 322 7 172 -2
318 0 325 5 10 7 15 80 19 328 4 216 10 321 17 326 14 10 1268 -2 1279 -12z"/>
<path d="M4820 6358 c0 -19 7 -43 15 -54 14 -18 16 -18 26 -1 7 12 24 18 57
19 46 1 46 1 7 5 -68 6 -85 12 -85 33 0 10 -4 22 -10 25 -6 4 -10 -8 -10 -27z"/>
<path d="M5093 6363 c-7 -2 -13 -14 -13 -25 0 -15 4 -18 18 -13 38 16 53 17
67 5 9 -8 12 -17 7 -24 -15 -19 -54 -153 -50 -172 2 -11 10 -19 18 -19 11 0
17 16 21 60 3 33 16 85 28 115 30 78 29 80 -31 79 -29 0 -59 -3 -65 -6z"/>
<path d="M5618 6269 c-18 -10 -25 -49 -9 -49 14 0 33 28 29 44 -2 11 -7 12
-20 5z"/>
<path d="M5406 6248 c-3 -13 -7 -32 -8 -43 -3 -16 -12 -21 -48 -23 -51 -4 -81
-22 -36 -22 64 0 88 -50 46 -95 -19 -20 -19 -55 -1 -55 14 0 41 64 41 96 0 19
6 45 14 57 8 12 14 41 14 65 -1 45 -14 57 -22 20z"/>
<path d="M5684 6220 c1 -33 -4 -54 -13 -59 -11 -7 -9 -14 8 -38 18 -24 20 -34
12 -55 -5 -14 -14 -29 -20 -32 -15 -10 -51 12 -51 29 0 8 -9 15 -20 15 -29 0
-24 -26 9 -50 33 -23 72 -20 104 8 21 19 22 65 1 87 -14 14 -14 20 -2 53 17
42 10 85 -13 90 -12 2 -15 -8 -15 -48z"/>
<path d="M4840 6195 c0 -11 24 -55 30 -55 4 0 13 7 20 16 11 13 10 16 -8 21
-12 3 -22 9 -22 14 0 5 -4 9 -10 9 -5 0 -10 -2 -10 -5z"/>
<path d="M4930 6170 c0 -5 7 -10 16 -10 8 0 12 5 9 10 -3 6 -10 10 -16 10 -5
0 -9 -4 -9 -10z"/>
<path d="M4880 6051 c0 -22 25 -39 38 -27 8 8 -10 38 -26 44 -7 2 -12 -6 -12
-17z"/>
<path d="M5350 5976 c0 -14 -8 -32 -17 -41 -20 -21 -25 -115 -6 -115 7 0 15
12 18 28 3 15 10 43 15 63 13 47 13 89 0 89 -5 0 -10 -11 -10 -24z"/>
<path d="M4900 5918 c0 -13 4 -30 9 -37 8 -12 12 -9 22 13 11 23 10 29 -2 37
-22 14 -29 11 -29 -13z"/>
<path d="M4915 5840 c-3 -5 1 -13 10 -16 22 -9 29 1 11 15 -10 8 -16 9 -21 1z"/>
<path d="M4087 2978 c-4 -95 -7 -239 -7 -320 0 -141 -1 -148 -22 -159 -15 -8
-102 -9 -323 -4 -250 6 -304 5 -311 -6 -9 -16 -9 -16 -14 -405 -1 -155 0 -286
4 -292 5 -8 208 -11 680 -12 l674 0 5 52 c4 44 10 593 12 1188 l0 125 -346 3
-346 3 -6 -173z m654 -508 c-2 -349 -5 -638 -8 -642 -2 -5 -289 -8 -637 -8
-541 0 -635 2 -646 14 -15 19 -12 594 3 614 8 10 80 12 329 11 176 0 322 2
325 5 3 2 7 144 10 313 2 169 6 314 8 321 4 10 71 12 312 10 l308 -3 -4 -635z"/>
<path d="M8078 2464 c-10 -15 -37 -1903 -30 -1996 l4 -48 182 -2 c99 -1 255
-2 346 -2 l165 -1 8 660 c4 363 10 666 12 673 3 9 144 12 660 12 l655 0 10 26
c12 31 14 661 2 668 -16 9 -2009 19 -2014 10z m1980 -343 c2 -220 -1 -307 -9
-318 -10 -11 -115 -14 -661 -13 -358 1 -652 -1 -655 -4 -3 -3 -8 -254 -9 -558
-5 -652 -8 -758 -26 -770 -17 -10 -590 -9 -608 2 -10 6 -12 78 -6 391 3 211 9
647 12 969 3 322 7 591 10 598 3 10 188 12 976 10 l973 -3 3 -304z"/>
<path d="M94 1176 c-4 -9 -3 -20 1 -24 3 -4 93 -8 198 -8 628 -5 1097 -17
1097 -28 4 -93 -2 -1051 -7 -1079 -5 -32 -3 -37 14 -37 19 0 20 11 27 273 16
599 18 878 6 892 -10 12 -104 14 -543 15 -293 0 -589 3 -659 6 -114 6 -128 5
-134 -10z"/>
<path d="M9394 1119 c-13 -20 -18 -1119 -5 -1119 16 0 20 87 25 588 3 266 8
488 12 493 4 7 168 9 490 5 476 -5 484 -5 484 14 0 18 -7 20 -72 20 -40 0
-265 3 -499 7 -360 5 -427 4 -435 -8z"/>
<path d="M9618 39 c-16 -11 -28 -25 -28 -30 0 -15 27 -10 34 6 7 19 30 19 46
0 17 -21 30 -19 30 5 0 18 -27 40 -47 40 -4 0 -20 -10 -35 -21z"/>
</g>
</svg>
