<?xml version="1.0" standalone="no"?>
<!DOCTYPE svg PUBLIC "-//W3C//DTD SVG 20010904//EN"
 "http://www.w3.org/TR/2001/REC-SVG-20010904/DTD/svg10.dtd">
<svg version="1.0" xmlns="http://www.w3.org/2000/svg"
 width="940.000000pt" height="924.000000pt" viewBox="0 0 940.000000 924.000000"
 preserveAspectRatio="xMidYMid meet">
<metadata>
Created by potrace 1.16, written by Peter Selinger 2001-2019
</metadata>
<g transform="translate(0.000000,924.000000) scale(0.100000,-0.100000)"
fill="#000000" stroke="none">
<path d="M0 9225 c0 -8 1 -16 3 -17 1 -1 189 -4 417 -7 l415 -6 5 -295 5 -295
45 -1 c25 0 720 -4 1545 -8 825 -4 1669 -9 1875 -11 206 -2 873 -7 1483 -11
l1107 -7 0 285 c0 232 3 288 14 297 10 9 155 10 567 5 305 -3 556 -8 559 -11
9 -8 11 -511 3 -823 l-8 -305 -295 -5 -295 -5 -3 -615 c-1 -338 -6 -718 -11
-845 -5 -126 -10 -646 -10 -1155 -1 -509 -6 -1035 -11 -1170 -5 -135 -10 -411
-11 -615 0 -203 -6 -651 -13 -995 -7 -344 -11 -630 -9 -635 2 -6 110 -11 291
-13 158 -2 291 -7 296 -12 10 -10 3 -1090 -7 -1107 -6 -10 -107 -13 -455 -12
-246 1 -499 4 -562 8 l-115 6 -2 287 c-1 158 -4 292 -7 297 -4 6 -54 9 -114 8
-59 0 -605 3 -1213 7 -657 5 -1108 5 -1112 0 -3 -5 -7 -156 -8 -334 l-4 -325
505 -8 c278 -4 683 -10 900 -15 l395 -7 -4 -291 c-3 -242 -1 -292 10 -296 13
-4 1442 -13 2164 -13 l300 0 3 295 c1 162 5 455 8 650 11 724 19 1485 16 1497
-3 10 -65 14 -256 15 -138 1 -269 2 -291 3 l-40 0 -1 455 c0 250 3 637 8 860
4 223 10 882 13 1465 3 583 10 1139 14 1235 5 96 10 290 10 430 1 198 4 257
15 265 8 7 107 7 290 1 158 -5 282 -4 287 1 6 6 12 1049 9 1806 l0 107 -33 0
-34 0 -6 -607 c-4 -335 -7 -746 -7 -915 0 -239 -3 -308 -12 -310 -7 0 -17 -2
-23 -3 -5 -2 -135 -3 -287 -4 l-277 -1 -4 -382 c-3 -211 -10 -878 -16 -1483
-6 -605 -12 -1181 -15 -1280 -3 -99 -7 -398 -11 -665 -3 -267 -8 -614 -11
-772 l-7 -288 299 -2 299 -3 0 -460 c0 -555 -16 -1817 -22 -1828 -5 -8 -1123
-1 -1928 12 l-380 6 0 290 0 290 -45 3 c-25 2 -304 6 -620 10 l-575 7 -2 255
c-2 140 1 261 6 268 7 11 90 14 452 13 593 -2 1292 -11 1302 -18 5 -3 8 -132
6 -287 -2 -154 0 -287 4 -293 6 -10 133 -13 545 -14 295 -1 572 -3 614 -4 73
-3 78 -2 82 18 5 23 21 856 21 1087 l0 135 -295 5 -295 5 2 660 c1 363 6 894
12 1180 6 286 13 957 17 1490 3 534 9 1056 13 1160 5 105 9 466 9 804 1 385 5
618 11 624 6 6 125 10 298 11 l288 1 3 623 2 622 -212 0 c-117 1 -399 3 -625
6 -344 5 -413 4 -413 -7 0 -8 0 -133 0 -279 0 -146 -4 -271 -8 -278 -11 -16
-454 -16 -2507 -2 -803 5 -1903 12 -2444 15 -542 3 -987 8 -990 11 -3 3 -5
134 -3 290 l2 284 -450 0 c-393 0 -450 -2 -450 -15z m4952 -7836 c20 -11 20
-16 13 -267 -4 -142 -9 -260 -12 -264 -5 -10 -505 -4 -521 6 -9 5 -10 72 -6
259 3 139 7 258 10 265 5 16 485 18 516 1z"/>
<path d="M1442 9209 l3 -34 545 -5 c300 -3 1048 -7 1662 -8 614 -1 1123 -4
1130 -6 7 -3 356 -7 776 -11 l762 -6 0 50 c0 51 0 51 -32 51 -17 0 -39 -6 -47
-14 -14 -13 -147 -14 -996 -5 -539 6 -1616 13 -2393 16 l-1413 5 3 -33z"/>
<path d="M937 8080 c-4 -16 -14 -20 -45 -20 -22 0 -44 -6 -50 -13 -8 -9 -11
-176 -12 -527 -1 -705 -3 -751 -29 -769 -36 -24 -25 -39 32 -43 72 -6 102 17
51 40 -20 10 -25 18 -22 40 l3 27 270 2 c218 2 272 -1 280 -12 11 -13 10 -514
0 -543 -4 -11 -57 -13 -273 -11 -147 1 -272 6 -278 11 -15 11 -7 42 17 64 31
28 23 34 -41 34 -62 0 -75 -11 -40 -32 17 -11 20 -24 20 -90 0 -67 -3 -80 -20
-90 -11 -7 -20 -21 -20 -30 0 -15 9 -18 55 -18 43 0 55 3 55 15 0 9 -7 18 -15
21 -22 9 -20 74 3 75 48 4 528 -4 535 -8 8 -5 0 -515 -8 -541 -4 -10 -63 -12
-271 -10 -242 3 -268 5 -278 21 -8 13 -8 21 2 35 34 47 22 63 -41 57 -50 -5
-58 -13 -29 -32 l22 -15 0 -339 c0 -258 3 -340 12 -345 7 -5 147 -10 312 -12
330 -5 316 -8 316 60 0 27 6 40 20 48 39 21 23 37 -35 38 -57 0 -71 -12 -39
-38 8 -8 14 -25 12 -39 l-3 -26 -279 0 -279 0 2 185 c2 102 4 226 5 275 l1 90
260 2 c143 1 268 -1 278 -3 22 -7 24 -62 2 -70 -8 -4 -15 -15 -15 -25 0 -16 8
-19 55 -19 47 0 55 3 55 19 0 10 -9 25 -20 32 -21 14 -21 17 -14 691 7 676 7
677 28 680 12 2 21 10 21 18 0 11 -14 16 -54 18 -68 4 -85 -10 -49 -41 22 -18
25 -26 17 -45 l-9 -24 -268 7 c-147 4 -270 9 -274 12 -5 2 -8 126 -8 274 0
236 2 270 16 276 8 3 135 2 282 -3 l267 -9 3 -27 c2 -19 -2 -28 -17 -33 -23
-7 -29 -34 -8 -36 27 -2 102 3 107 7 2 3 -9 15 -24 28 -22 17 -27 27 -22 44
10 30 58 30 78 0 22 -33 38 -14 38 47 0 64 -14 77 -44 40 -17 -21 -27 -26 -44
-21 l-22 7 2 277 3 277 275 0 275 0 0 -280 0 -280 -31 -3 c-25 -2 -33 1 -37
17 -3 12 -12 21 -21 21 -13 0 -16 -11 -16 -54 0 -61 14 -79 36 -47 13 18 25
21 89 21 68 0 76 -2 91 -24 25 -39 44 -22 44 39 0 64 -14 77 -44 40 -20 -25
-25 -26 -45 -15 l-23 12 7 271 c5 157 12 275 17 278 6 4 127 6 269 5 210 -1
261 -4 268 -15 8 -13 4 -522 -4 -548 -7 -22 -56 -16 -62 7 -10 39 -38 19 -41
-29 -4 -53 10 -72 36 -48 17 15 56 17 389 17 357 0 371 -1 388 -20 33 -36 45
-25 45 40 0 46 -3 60 -15 60 -8 0 -19 -9 -25 -21 -8 -14 -19 -19 -38 -17 l-26
3 3 275 c1 151 5 277 9 280 4 3 130 4 280 2 l272 -4 0 -256 c0 -142 -3 -267
-6 -279 -6 -22 -34 -35 -51 -24 -5 3 -12 14 -16 24 -4 11 -14 17 -24 15 -25
-5 -32 -105 -8 -114 10 -4 22 1 31 15 12 16 26 21 58 21 31 0 46 5 50 16 10
27 7 612 -4 619 -5 3 -161 7 -346 8 l-335 2 -19 25 c-27 36 -42 16 -38 -50 3
-59 18 -74 36 -35 9 19 19 25 42 25 l30 0 -2 -282 -3 -283 -279 0 -280 0 1
279 c1 224 3 280 14 287 21 13 28 11 54 -17 31 -34 43 -25 40 32 -4 55 -9 62
-33 41 -15 -14 -82 -15 -667 -11 -358 2 -664 4 -682 4 -23 0 -33 5 -38 21 -4
12 -14 19 -23 17 -23 -4 -28 -101 -7 -118 12 -10 17 -7 27 14 9 21 18 26 37
24 l26 -3 3 -276 2 -276 -72 -6 c-78 -6 -465 0 -486 8 -10 4 -12 58 -11 245 2
286 4 304 42 308 21 3 29 -2 37 -22 19 -51 50 -22 45 44 -2 25 -4 48 -4 53 -2
16 -39 6 -44 -13z"/>
<path d="M5544 8068 c-14 -21 -11 -111 4 -116 7 -2 16 5 19 17 4 16 13 21 38
21 l34 0 3 -210 c2 -116 1 -241 -2 -278 l-5 -67 -278 -3 -277 -2 2 281 3 282
28 3 c22 2 30 -3 38 -23 15 -39 38 -12 37 43 -1 51 -15 66 -35 38 -13 -18 -30
-18 -349 -15 -245 2 -339 0 -349 -9 -11 -9 -14 -67 -15 -320 l0 -308 47 -7
c31 -4 54 -14 64 -27 24 -31 38 -14 35 42 -3 62 -10 69 -40 41 -13 -13 -32
-21 -43 -19 -17 3 -18 19 -18 283 l0 280 255 2 c140 1 265 0 278 -4 l22 -5 0
-274 0 -274 -27 -6 c-21 -6 -31 -2 -48 20 -28 35 -45 18 -45 -45 0 -56 16 -71
40 -39 l17 23 379 -2 c375 -2 379 -2 397 -23 24 -29 37 -10 30 46 -7 53 -11
56 -32 28 -13 -18 -23 -22 -43 -17 -25 6 -27 11 -30 78 -2 40 -2 165 0 280 l3
207 267 0 c147 0 273 -4 280 -8 9 -7 12 -70 10 -283 l-3 -274 -24 -3 c-17 -3
-30 4 -42 20 -25 33 -41 13 -37 -47 3 -51 25 -73 35 -36 4 16 13 21 41 21 l35
0 -7 -452 c-3 -249 -9 -667 -12 -928 -5 -453 -7 -476 -25 -489 -38 -27 -23
-42 38 -39 62 3 78 18 38 36 -21 10 -26 18 -23 40 l3 27 265 1 c146 0 273 -3
283 -8 15 -8 17 -31 17 -266 0 -141 -4 -263 -8 -270 -7 -9 -70 -12 -283 -10
l-274 3 -3 28 c-2 18 2 29 12 33 9 3 16 15 16 25 0 16 -8 19 -50 19 -42 0 -50
-3 -50 -19 0 -10 9 -21 19 -24 16 -4 20 -15 23 -53 l3 -49 310 0 310 0 2 340
3 340 27 22 c15 12 25 24 23 27 -3 2 -30 6 -60 7 -45 3 -55 1 -58 -13 -2 -10
5 -19 18 -23 17 -5 20 -13 18 -38 l-3 -32 -269 -2 c-176 -2 -274 1 -282 8 -10
8 -12 70 -7 277 3 147 7 269 9 271 5 6 537 1 546 -5 4 -3 8 -18 8 -33 0 -20
-6 -30 -20 -34 -11 -3 -20 -12 -20 -21 0 -13 12 -16 60 -16 48 0 60 3 60 16 0
9 -9 18 -20 21 -18 5 -20 14 -20 78 0 82 6 105 26 105 8 0 14 9 14 20 0 18 -7
20 -55 20 -41 0 -55 -4 -55 -15 0 -7 7 -18 16 -23 10 -6 14 -19 12 -38 l-3
-29 -275 0 -275 0 1 278 c0 157 4 281 10 285 5 4 131 5 279 2 l270 -5 3 -27
c2 -19 -3 -30 -18 -38 -39 -21 -20 -44 37 -46 58 -3 74 13 42 42 -16 14 -19
31 -19 95 0 69 2 78 20 84 38 12 22 33 -27 37 -61 6 -84 -9 -53 -34 13 -11 20
-26 18 -40 l-3 -23 -275 0 -275 0 0 265 c0 146 2 271 4 278 2 9 65 12 272 12
255 0 269 -1 279 -19 16 -30 12 -41 -16 -51 -43 -17 -23 -35 44 -38 57 -3 62
-1 62 18 0 13 -7 20 -19 20 -15 0 -20 10 -25 58 -8 75 1 119 26 125 12 4 18
12 16 24 -2 14 -14 18 -56 20 -61 2 -80 -18 -43 -43 23 -17 28 -57 9 -70 -7
-5 -134 -7 -281 -4 l-268 5 1 275 c0 151 4 277 8 280 4 4 129 4 277 1 l270 -6
3 -33 c3 -27 -1 -35 -17 -39 -40 -10 -24 -33 24 -34 25 -1 51 -2 57 -3 21 -2
21 31 0 36 -15 4 -20 17 -24 57 -3 28 -8 54 -11 57 -3 4 -295 9 -647 12 l-642
5 -9 23 c-10 27 -13 29 -25 12z"/>
<path d="M0 8035 c0 -24 2 -25 68 -26 161 -3 155 -2 162 -29 9 -35 1 -1327
-10 -1670 -5 -157 -10 -573 -10 -925 0 -352 -2 -730 -5 -840 -2 -110 -7 -443
-11 -740 -3 -297 -7 -542 -9 -545 -2 -4 -5 -260 -6 -571 -1 -347 -5 -571 -11
-583 -9 -17 -18 -18 -89 -12 l-79 7 0 -35 0 -36 108 0 c59 0 112 4 117 8 6 4
10 80 10 192 0 360 15 1806 20 1890 3 47 7 487 10 979 3 491 7 896 9 900 3 4
6 468 7 1031 l2 1025 -141 3 -142 3 0 -26z"/>
<path d="M2952 7818 c-16 -16 -15 -39 3 -62 16 -21 22 -13 27 38 3 32 -11 43
-30 24z"/>
<path d="M6473 7813 c-15 -6 -18 -43 -3 -43 9 0 30 31 30 44 0 7 -10 7 -27 -1z"/>
<path d="M6540 7806 c0 -2 4 -16 9 -29 7 -18 5 -31 -9 -52 -18 -28 -18 -45 0
-45 15 0 42 67 38 97 -2 17 -10 29 -20 31 -10 2 -18 1 -18 -2z"/>
<path d="M2895 7719 c-10 -15 3 -25 16 -12 7 7 7 13 1 17 -6 3 -14 1 -17 -5z"/>
<path d="M2960 7704 c0 -12 -7 -27 -15 -34 -13 -10 -19 -9 -35 5 -15 14 -23
16 -32 7 -17 -17 -2 -44 21 -37 25 8 51 -19 44 -45 -4 -15 0 -20 15 -20 26 0
34 58 16 109 -9 25 -13 29 -14 15z"/>
<path d="M6560 7650 c0 -10 -5 -31 -12 -45 -14 -31 -54 -34 -63 -5 -7 23 -35
27 -35 6 0 -27 31 -47 68 -44 45 4 76 42 67 81 -8 31 -25 36 -25 7z"/>
<path d="M2029 6833 c-1 -5 -3 -116 -4 -248 -2 -132 -6 -416 -9 -632 -5 -254
-3 -393 3 -397 6 -4 139 -8 296 -10 172 -2 290 -7 296 -13 11 -11 12 -374 1
-438 l-7 -40 -290 -3 c-160 -1 -293 -6 -299 -12 -10 -10 -12 -137 -2 -147 12
-13 19 8 17 56 -1 32 4 52 13 60 16 14 106 7 116 -8 3 -5 2 -61 -2 -123 -8
-111 -2 -275 10 -263 3 3 9 87 13 187 5 133 10 182 20 189 17 10 70 0 90 -18
12 -10 23 -11 43 -3 20 7 36 6 63 -5 19 -8 60 -15 90 -15 96 0 93 5 93 -196 0
-102 -4 -183 -10 -195 -9 -16 -22 -19 -90 -19 -43 0 -82 -4 -85 -10 -8 -13
-72 -13 -80 1 -8 13 -30 6 -31 -9 -1 -7 -2 -17 -3 -23 0 -6 -22 -9 -53 -7 -48
3 -53 5 -57 28 -3 23 -4 23 -15 -10 l-11 -35 -71 1 -71 0 -8 -659 c-4 -363 -3
-663 2 -667 4 -5 293 -11 640 -15 535 -7 633 -6 637 6 3 8 7 137 10 288 3 151
9 278 14 283 4 4 253 7 553 6 l544 -3 0 -287 c0 -157 3 -289 7 -293 3 -4 295
-9 647 -12 l640 -5 5 24 c9 41 14 1268 6 1273 -5 3 -134 8 -287 11 -153 3
-284 8 -292 10 -12 4 -13 74 -6 482 5 262 8 505 6 540 l-2 62 301 0 c165 0
300 1 300 3 1 1 3 291 7 643 4 536 3 643 -8 650 -8 5 -301 10 -651 12 l-638 4
0 -295 c0 -269 -2 -295 -17 -301 -28 -11 -1056 -5 -1076 6 -18 9 -19 24 -12
289 6 218 5 282 -5 294 -11 13 -93 15 -651 15 -352 0 -640 -3 -640 -7z m1190
-98 c11 -4 12 -57 9 -300 -4 -222 -2 -298 7 -305 8 -7 238 -9 651 -8 l639 3 3
295 c1 162 6 298 11 303 9 9 236 9 856 2 l230 -3 -3 -533 c-2 -294 -6 -542 -9
-551 -4 -16 -29 -18 -296 -20 l-292 -3 -6 -435 c-4 -239 -10 -524 -13 -633 -5
-146 -4 -203 5 -213 9 -11 64 -14 300 -14 l289 0 -2 -545 c-2 -399 -6 -548
-15 -553 -6 -4 -252 -6 -547 -4 l-536 2 0 290 c0 237 -3 292 -14 296 -7 3
-299 6 -647 7 l-634 2 -5 -280 c-3 -154 -9 -286 -14 -294 -8 -12 -91 -13 -550
-7 -298 4 -545 11 -550 16 -9 9 10 1066 20 1082 3 5 121 8 294 7 159 -1 292 1
297 4 6 4 10 173 12 393 1 213 4 391 6 394 11 18 2 480 -10 499 -4 8 -99 11
-295 11 l-290 0 -6 26 c-12 47 10 1064 23 1072 12 8 1060 5 1082 -3z"/>
<path d="M3252 5632 c-13 -2 -25 -9 -27 -15 -2 -7 -7 -273 -10 -592 -4 -319
-8 -605 -9 -635 l-1 -55 650 0 650 0 8 355 c14 650 13 920 -3 930 -9 6 -225
10 -510 11 -272 0 -547 1 -610 2 -63 1 -125 1 -138 -1z m1161 -112 c11 -9 9
-522 -3 -830 -5 -135 -10 -246 -10 -247 0 -2 -245 -3 -544 -3 l-544 0 -5 23
c-8 33 9 1053 18 1067 6 9 128 10 544 5 295 -4 540 -11 544 -15z"/>
<path d="M2353 4873 c-7 -2 -13 -14 -13 -25 0 -16 4 -19 23 -14 12 4 32 8 45
10 28 4 36 11 27 25 -6 11 -59 14 -82 4z"/>
<path d="M2005 4853 c-34 -9 -45 -24 -45 -63 0 -41 11 -55 52 -65 15 -4 34
-15 43 -25 15 -17 15 -20 -1 -44 -22 -34 -8 -48 17 -17 36 45 13 101 -43 101
-16 0 -29 9 -39 26 -12 24 -12 28 10 45 15 12 31 17 47 13 29 -7 32 11 5 26
-11 5 -21 9 -23 9 -2 -1 -12 -4 -23 -6z"/>
<path d="M2346 4793 c-13 -14 -5 -33 14 -33 11 0 20 6 20 14 0 15 -24 28 -34
19z"/>
<path d="M2424 4760 c3 -14 8 -34 11 -45 7 -24 -29 -85 -50 -85 -8 0 -17 11
-21 25 -7 26 -44 36 -44 12 0 -24 36 -47 73 -47 71 0 104 92 51 141 l-27 24 7
-25z"/>
<path d="M1960 4649 c0 -11 9 -23 23 -28 28 -11 31 -8 18 17 -15 29 -41 36
-41 11z"/>
<path d="M807 4453 c-3 -5 -6 -62 -7 -128 -1 -66 -3 -183 -5 -260 -2 -77 -6
-435 -10 -795 -3 -360 -8 -665 -11 -677 -2 -12 -13 -25 -25 -28 -12 -4 -19
-14 -17 -23 2 -13 16 -18 57 -20 69 -4 86 11 47 41 -18 15 -27 30 -24 42 3 19
14 20 253 21 138 1 265 -1 283 -3 l32 -5 0 -238 c0 -131 -3 -252 -6 -269 l-7
-31 -272 0 c-240 0 -274 2 -279 16 -11 30 -6 53 15 59 38 12 14 30 -41 30 -58
0 -75 -15 -37 -32 20 -9 24 -19 24 -53 0 -25 6 -46 14 -51 8 -5 152 -9 320 -9
317 0 369 -4 369 -25 0 -17 30 -28 35 -12 2 6 6 34 7 62 3 41 0 50 -15 53 -12
2 -20 -3 -24 -16 -6 -26 -22 -32 -50 -21 -23 8 -23 8 -23 251 0 134 3 253 6
266 l6 22 274 0 c236 0 275 -2 280 -15 4 -9 2 -131 -2 -273 l-9 -257 -27 -3
c-22 -3 -30 2 -38 23 -6 15 -16 25 -23 22 -17 -5 -17 -119 1 -125 7 -2 16 5
19 17 5 19 12 21 90 21 77 0 85 -2 90 -20 3 -13 12 -20 22 -18 12 2 17 17 19
52 4 61 -10 78 -39 47 -12 -13 -30 -21 -42 -19 -22 3 -22 7 -27 223 -3 121 -3
243 0 270 l5 50 265 0 c146 0 273 -2 283 -4 16 -3 17 -24 17 -265 0 -190 -3
-265 -12 -274 -19 -19 -45 -14 -66 15 -27 37 -42 22 -42 -42 0 -61 15 -78 40
-45 l17 22 341 -1 c243 -1 342 1 347 9 4 7 9 142 12 302 4 312 2 325 -45 313
-33 -8 -59 2 -65 26 -3 12 -12 19 -19 17 -9 -3 -13 -24 -13 -63 0 -61 13 -80
30 -43 7 17 18 23 40 23 l30 0 0 -270 0 -270 -269 -3 c-190 -2 -273 1 -282 9
-19 16 -21 508 -2 527 19 19 56 14 70 -8 23 -37 38 -24 38 34 0 62 -15 79 -39
47 l-16 -22 -615 7 c-338 3 -621 7 -627 9 -7 3 -13 18 -13 34 0 21 6 32 21 36
36 12 14 30 -39 32 -58 2 -75 -11 -43 -33 25 -18 28 -49 5 -62 -17 -10 -535
-4 -546 7 -9 8 3 506 12 522 10 16 541 13 551 -3 9 -14 0 -45 -17 -59 -30 -25
-16 -39 40 -39 65 0 78 14 43 44 -23 19 -25 27 -24 91 2 62 5 71 25 80 34 15
20 30 -33 33 -59 4 -77 -10 -45 -36 16 -13 21 -24 16 -39 -9 -28 -29 -29 -321
-23 l-240 5 3 270 c2 148 5 271 7 273 2 2 119 3 259 3 151 -1 256 2 256 7 0
27 -36 32 -271 34 l-244 3 0 285 0 285 260 3 c143 1 270 0 283 -3 19 -5 22
-12 22 -50 0 -35 -4 -45 -20 -50 -11 -3 -20 -13 -20 -21 0 -10 14 -14 54 -14
30 0 57 4 60 8 3 5 -6 19 -20 31 -23 20 -25 29 -22 74 l3 52 -60 6 c-86 10
-563 10 -568 2z"/>
<path d="M6216 4404 c-3 -8 -6 -26 -6 -39 0 -13 -11 -37 -25 -53 -13 -16 -22
-32 -18 -36 3 -3 30 -6 60 -6 40 0 53 4 53 15 0 8 -5 15 -10 15 -16 0 -29 43
-18 63 8 15 31 17 266 17 141 0 263 -4 270 -8 9 -7 12 -71 10 -288 l-3 -279
-275 0 -275 0 -3 23 c-2 14 5 33 18 47 30 32 18 45 -40 45 -56 0 -74 -17 -42
-38 22 -14 22 -15 21 -381 -1 -201 -5 -478 -8 -616 l-6 -250 -32 -3 c-25 -2
-33 1 -38 18 -4 13 -13 20 -23 18 -14 -3 -17 -15 -17 -62 0 -66 17 -85 36 -42
9 19 20 26 41 26 15 0 28 -6 28 -12 5 -176 -3 -525 -12 -535 -12 -15 -181 -18
-410 -7 l-135 7 -7 76 c-3 42 -3 163 0 269 6 170 9 194 25 202 23 13 46 3 52
-22 11 -40 32 -13 35 45 2 46 0 57 -12 57 -8 0 -20 -9 -26 -20 -9 -17 -21 -20
-88 -20 -66 0 -79 3 -90 20 -7 11 -19 20 -28 20 -12 0 -14 -11 -12 -57 3 -61
23 -83 34 -38 5 22 11 26 38 23 l31 -3 2 -267 c2 -212 0 -268 -11 -277 -9 -8
-96 -11 -282 -9 l-269 3 -5 115 c-3 63 -3 187 0 275 l5 160 33 3 c24 2 34 -1
39 -15 18 -49 43 -31 43 32 0 43 -17 80 -27 57 -13 -33 -34 -41 -103 -40 -62
0 -73 3 -89 24 -28 36 -41 29 -42 -21 -1 -25 -2 -51 -3 -57 -2 -22 31 -20 37
2 4 17 12 21 39 18 l33 -3 0 -268 c0 -227 -2 -269 -15 -277 -9 -6 -117 -9
-273 -7 -206 3 -260 6 -267 17 -5 8 -7 102 -5 210 2 107 4 225 5 263 l0 67 34
0 c26 0 35 -5 39 -21 10 -37 32 -15 35 36 4 58 -11 79 -34 47 -15 -22 -16 -22
-359 -22 -189 0 -346 -4 -349 -8 -8 -13 -10 -598 -2 -611 4 -6 24 -11 45 -11
22 0 44 -6 51 -15 23 -28 38 -17 42 33 5 54 -7 79 -28 61 -8 -6 -14 -18 -14
-25 0 -17 -42 -18 -58 -2 -16 16 -17 524 -2 533 13 8 74 9 353 7 l207 -2 -2
-272 -3 -273 -32 -3 c-24 -2 -33 1 -38 17 -12 40 -33 23 -37 -30 -4 -58 13
-84 32 -49 l12 22 526 -6 c290 -3 726 -5 970 -6 l443 0 25 -27 c30 -32 40 -24
46 39 7 64 -23 94 -42 42 -7 -19 -16 -25 -33 -22 l-22 3 0 275 0 275 267 -1
c146 -1 271 -5 276 -8 16 -10 8 -536 -8 -546 -17 -11 -41 -2 -61 23 -24 29
-39 12 -39 -44 0 -51 15 -64 40 -34 7 8 34 15 63 17 l52 3 3 342 c2 334 3 342
23 348 11 4 19 14 17 22 -2 12 -17 17 -55 19 -60 3 -76 -11 -44 -36 15 -11 22
-25 19 -41 l-3 -24 -258 -3 c-178 -2 -264 1 -279 9 -21 11 -21 13 -14 272 4
143 9 264 12 269 7 11 497 10 528 -2 34 -12 33 -43 -1 -68 -38 -28 -22 -42 48
-42 51 0 59 3 59 19 0 10 -9 21 -20 24 -18 5 -20 14 -20 87 0 73 2 82 20 87
11 3 20 13 20 23 0 15 -9 18 -55 18 -64 -1 -78 -13 -45 -38 18 -14 21 -23 16
-45 l-7 -27 -272 5 c-150 3 -274 6 -276 6 -6 1 8 533 14 539 6 7 536 2 547 -4
17 -11 7 -45 -17 -56 -44 -20 -27 -43 32 -44 68 -1 86 10 54 34 l-23 19 1 294
c1 162 4 315 7 341 11 79 23 76 -320 78 -271 0 -304 -1 -310 -16z"/>
<path d="M1097 4243 c-31 -8 -57 -76 -57 -147 0 -60 2 -66 29 -85 36 -26 42
-26 74 -1 40 32 48 120 12 134 -13 4 -15 -5 -13 -55 3 -61 -6 -78 -42 -79 -23
0 -47 87 -31 112 7 11 9 28 6 39 -4 12 2 31 15 49 21 29 23 30 46 16 14 -10
25 -12 29 -6 15 25 -18 36 -68 23z"/>
<path d="M1360 3920 c-13 -9 -11 -14 13 -31 32 -25 34 -36 7 -64 -18 -20 -19
-23 -5 -35 21 -18 19 -46 -6 -64 -31 -21 -16 -34 41 -34 57 0 74 15 42 36 -32
21 -32 125 -1 158 12 12 18 27 14 33 -8 14 -85 14 -105 1z"/>
<path d="M3460 3547 c0 -14 20 -37 32 -37 4 0 8 11 8 25 0 18 -5 25 -20 25
-11 0 -20 -6 -20 -13z"/>
<path d="M3480 3384 c0 -16 -3 -39 -6 -51 -5 -16 -2 -23 9 -23 11 0 14 11 13
45 -3 50 -16 75 -16 29z"/>
<path d="M2246 2444 c-18 -18 -21 -66 -6 -95 6 -10 26 -25 45 -33 43 -18 56
-57 30 -86 -23 -25 -40 -25 -65 0 -14 14 -18 27 -14 50 6 25 4 29 -10 24 -24
-9 -21 -69 6 -94 64 -59 146 27 103 109 -14 28 -14 34 0 53 21 31 19 55 -6 68
-19 11 -20 10 -9 -10 17 -32 5 -70 -23 -70 -43 0 -63 44 -32 70 8 7 15 16 15
21 0 14 -17 11 -34 -7z"/>
<path d="M1636 2434 c-9 -24 -8 -25 34 -18 32 5 44 3 53 -11 12 -15 14 -15 26
-1 24 28 7 42 -52 44 -41 1 -57 -3 -61 -14z"/>
<path d="M5831 2378 c-10 -26 -6 -38 13 -38 8 0 16 14 18 30 5 36 -18 42 -31
8z"/>
<path d="M5927 2366 c5 -34 -10 -68 -72 -154 -39 -55 -22 -64 93 -53 11 1 18
51 7 51 -3 0 -19 -10 -35 -22 -24 -17 -32 -19 -44 -9 -14 11 -14 16 -1 40 8
14 30 41 49 60 38 36 48 85 24 109 -20 20 -27 13 -21 -22z"/>
<path d="M1713 2368 c-48 -67 -71 -160 -42 -166 13 -2 18 9 22 51 4 30 14 71
22 91 15 37 15 46 -2 24z"/>
<path d="M783 1479 c-7 -9 -14 -113 -18 -289 -4 -151 -12 -280 -17 -287 -7 -9
-98 -10 -379 -6 l-369 6 0 -31 0 -32 404 0 c223 0 407 4 410 8 3 5 8 134 11
288 3 153 10 283 15 288 9 9 1707 -11 1722 -20 10 -7 -3 -507 -14 -519 -6 -7
-214 -9 -599 -6 l-589 3 -2 -148 c-2 -82 -1 -171 0 -199 2 -27 0 -92 -4 -144
l-6 -93 -674 4 -674 4 0 -37 0 -36 168 -7 c211 -8 1247 -10 1260 -3 5 4 10
128 11 284 1 231 4 280 17 289 8 6 38 10 67 9 28 -2 417 -6 863 -10 727 -7
812 -6 826 8 13 14 15 59 16 331 1 173 -3 318 -7 320 -17 11 -284 15 -1196 21
-517 3 -1005 8 -1085 11 -116 5 -148 3 -157 -7z m2385 -322 c1 -159 -1 -255
-8 -267 -10 -19 -22 -20 -274 -20 -210 0 -266 3 -275 14 -15 18 -15 495 1 513
8 11 68 13 282 11 l271 -3 3 -248z"/>
</g>
</svg>
