<?xml version="1.0" standalone="no"?>
<!DOCTYPE svg PUBLIC "-//W3C//DTD SVG 20010904//EN"
 "http://www.w3.org/TR/2001/REC-SVG-20010904/DTD/svg10.dtd">
<svg version="1.0" xmlns="http://www.w3.org/2000/svg"
 width="580.000000pt" height="660.000000pt" viewBox="0 0 580.000000 660.000000"
 preserveAspectRatio="xMidYMid meet">
<metadata>
Created by potrace 1.16, written by Peter Selinger 2001-2019
</metadata>
<g transform="translate(0.000000,660.000000) scale(0.100000,-0.100000)"
fill="#000000" stroke="none">
<path d="M5345 6412 c-11 -2 -27 -10 -36 -18 -10 -9 -27 -12 -47 -8 -20 4 -38
2 -47 -6 -8 -7 -21 -10 -29 -7 -8 3 -19 0 -25 -7 -13 -15 -67 -9 -95 10 -14
10 -24 10 -39 2 -14 -7 -22 -7 -27 2 -6 9 -13 9 -31 0 -18 -10 -24 -10 -27 -1
-3 9 -10 8 -28 -4 -22 -14 -24 -14 -34 4 -12 24 -62 36 -89 22 -14 -8 -27 -8
-45 0 -22 10 -29 8 -56 -15 -37 -31 -50 -32 -76 -8 -24 22 -71 36 -79 23 -10
-17 -65 -40 -71 -30 -3 5 2 9 11 9 9 0 13 5 9 11 -4 8 -9 8 -17 0 -6 -6 -20
-11 -32 -11 -11 0 -33 -7 -49 -15 -35 -19 -54 -19 -88 -1 -30 16 -117 24 -136
12 -7 -4 -16 -5 -21 -1 -5 3 -12 1 -16 -5 -10 -16 -23 -12 -30 10 -6 18 -14
20 -83 17 -61 -2 -78 -6 -80 -19 -3 -13 -9 -14 -45 -5 -23 5 -46 14 -52 18
-15 14 -51 10 -66 -7 -8 -9 -25 -14 -46 -12 -20 1 -37 -3 -42 -11 -5 -8 -16
-11 -30 -6 -11 3 -26 3 -33 -1 -22 -14 -60 -13 -83 2 -30 20 -141 20 -173 0
-8 -4 -16 2 -22 18 -8 22 -14 25 -42 19 -18 -3 -39 -9 -47 -13 -8 -4 -22 -3
-32 3 -9 6 -24 7 -35 2 -32 -14 -98 -11 -111 5 -14 19 -69 2 -67 -22 1 -16
-31 -14 -42 3 -3 5 -16 6 -29 3 -12 -3 -26 -1 -30 6 -5 8 -10 8 -21 -1 -7 -6
-21 -9 -30 -5 -12 4 -14 1 -9 -14 4 -13 2 -20 -7 -21 -26 -2 -53 3 -62 12 -6
5 -24 9 -42 9 -18 0 -35 6 -37 13 -4 8 -8 8 -14 2 -18 -22 -50 -34 -62 -22 -8
8 -14 8 -23 -1 -18 -18 -27 -15 -38 14 -9 24 -14 26 -48 20 -42 -7 -57 -8 -92
-4 -20 2 -25 -1 -24 -19 l0 -22 -28 21 c-22 15 -32 17 -43 8 -10 -9 -19 -8
-37 2 -29 17 -50 17 -72 -1 -12 -10 -19 -11 -30 -2 -11 9 -19 9 -36 -1 -17
-11 -22 -11 -30 2 -9 13 -12 13 -23 0 -33 -39 -89 -51 -123 -25 -23 18 -95 20
-113 3 -10 -10 -15 -10 -18 -1 -3 9 -12 9 -29 2 -34 -12 -34 -12 -34 11 0 16
-7 20 -38 20 -21 0 -43 -5 -49 -11 -8 -8 -16 -7 -30 2 -11 7 -28 9 -37 6 -14
-6 -15 -11 -6 -28 11 -20 10 -20 -21 3 -22 16 -33 19 -36 11 -6 -18 -32 -16
-39 2 -4 9 -19 15 -40 15 -22 0 -37 -6 -40 -15 -7 -17 -40 -20 -49 -4 -5 7
-15 5 -32 -6 -13 -9 -31 -14 -39 -11 -8 3 -26 -1 -39 -10 -23 -15 -28 -15 -64
4 -36 19 -40 19 -61 5 -22 -16 -23 -15 -18 5 6 23 -15 32 -28 11 -4 -8 -9 -7
-16 2 -7 11 -11 11 -15 2 -2 -7 -13 -13 -24 -13 -10 0 -19 -4 -19 -10 0 -20
-18 -9 -24 15 -5 20 -13 25 -39 25 -18 0 -38 -5 -45 -12 -9 -9 -17 -8 -37 2
-32 17 -56 0 -35 -25 8 -10 9 -15 1 -15 -6 0 -11 3 -11 8 0 12 -49 30 -69 25
-10 -3 -22 0 -25 6 -10 16 -56 13 -62 -4 -6 -16 -49 -21 -58 -7 -8 14 -116 -9
-116 -25 0 -17 -51 -17 -75 1 -11 8 -25 12 -32 9 -7 -3 -20 0 -28 7 -10 8 -19
9 -27 3 -20 -15 -50 -24 -43 -13 9 15 -19 12 -41 -5 -26 -20 -32 -19 -36 8 -4
27 -49 35 -84 16 -19 -10 -26 -9 -39 1 -19 16 -47 6 -39 -15 4 -9 1 -28 -7
-41 -10 -20 -10 -32 -1 -56 8 -22 8 -35 0 -48 -10 -15 -6 -23 19 -49 18 -17
36 -31 42 -31 27 0 8 -19 -21 -22 -26 -2 -34 -8 -36 -27 -2 -13 2 -34 8 -46
10 -18 9 -27 -5 -49 -16 -24 -16 -28 -1 -51 10 -15 14 -34 11 -46 -5 -13 -1
-21 12 -25 10 -3 25 -9 34 -14 8 -4 22 -4 31 1 11 6 18 2 26 -16 7 -14 20 -25
31 -25 12 0 23 -11 30 -31 15 -44 15 -44 -22 -17 -17 13 -49 29 -70 37 -34 11
-41 11 -57 -4 -11 -10 -19 -29 -19 -44 0 -14 -3 -40 -6 -58 -5 -21 -2 -43 9
-65 11 -20 13 -34 6 -36 -14 -5 -13 -58 3 -83 9 -17 9 -23 0 -26 -7 -3 -13
-14 -13 -25 0 -17 4 -19 26 -14 22 6 25 4 19 -13 -4 -14 0 -23 15 -31 32 -17
24 -30 -20 -30 -39 0 -40 -1 -40 -33 0 -18 5 -38 12 -45 9 -9 9 -17 0 -34 -13
-25 -12 -44 3 -68 5 -8 8 -24 7 -35 -3 -26 42 -49 69 -34 16 8 21 5 29 -16 5
-14 21 -30 35 -35 15 -6 25 -17 25 -30 0 -24 -13 -26 -34 -5 -8 8 -20 15 -26
15 -6 0 -22 7 -36 17 -24 15 -26 15 -46 -5 -12 -11 -23 -33 -24 -49 -2 -15 -6
-44 -9 -64 -5 -26 -2 -40 9 -52 20 -20 20 -26 -1 -49 -15 -17 -15 -21 1 -54
16 -35 16 -37 -1 -56 -15 -17 -15 -21 -3 -29 8 -5 21 -7 29 -4 9 4 11 0 7 -10
-4 -11 3 -19 20 -25 31 -12 27 -34 -7 -37 -13 0 -30 -1 -36 -2 -16 -1 -17 -45
-2 -73 8 -14 8 -23 0 -31 -14 -14 -14 -64 0 -72 6 -4 7 -19 4 -36 -6 -26 -4
-29 22 -31 15 -1 38 -1 50 -1 13 1 24 -6 28 -17 3 -10 19 -23 35 -30 18 -8 30
-20 30 -31 0 -23 -25 -25 -34 -4 -3 8 -15 15 -26 15 -11 0 -29 5 -39 12 -25
16 -79 -16 -62 -36 8 -10 7 -21 -4 -42 -19 -37 -19 -64 1 -93 12 -17 13 -26 5
-34 -15 -15 -14 -62 2 -88 9 -17 9 -23 0 -26 -7 -3 -13 -14 -13 -25 0 -16 5
-19 24 -14 20 5 23 3 19 -18 -4 -18 1 -25 19 -31 20 -7 18 -8 -17 -14 -35 -5
-40 -10 -43 -35 -2 -16 2 -40 9 -53 11 -20 11 -26 0 -33 -10 -5 -11 -18 -7
-41 4 -19 7 -46 7 -61 0 -23 4 -28 24 -28 13 0 27 -5 30 -10 4 -7 13 -7 26 0
16 9 21 7 29 -14 5 -14 18 -26 32 -28 15 -2 24 -11 26 -25 4 -28 -7 -29 -50
-5 -53 30 -74 32 -98 10 -17 -16 -19 -23 -9 -34 9 -11 8 -22 -5 -48 -16 -35
-14 -59 11 -87 11 -14 11 -18 -2 -29 -18 -15 -20 -53 -3 -80 10 -16 10 -24 0
-40 -14 -23 -7 -44 12 -37 7 3 12 -3 12 -16 -1 -14 7 -23 24 -27 17 -4 21 -8
12 -14 -6 -4 -17 -4 -22 -1 -6 3 -19 3 -30 0 -25 -8 -27 -51 -4 -76 14 -16 14
-20 -2 -44 -15 -23 -16 -32 -6 -60 7 -18 10 -39 7 -47 -6 -16 53 -42 77 -33 9
4 19 -4 26 -20 7 -15 20 -25 32 -25 11 0 23 -8 26 -17 3 -10 10 -26 15 -36 17
-31 5 -29 -26 3 -16 17 -39 30 -51 30 -13 0 -26 5 -29 10 -10 16 -41 11 -60
-10 -15 -16 -16 -22 -5 -35 10 -12 10 -19 2 -27 -16 -16 -15 -101 1 -117 9
-11 9 -14 0 -18 -17 -6 -17 -80 0 -86 10 -3 10 -9 0 -26 -7 -11 -13 -28 -13
-36 0 -17 16 -20 25 -5 3 6 14 10 23 10 12 0 13 -3 4 -12 -18 -18 -15 -49 4
-46 10 2 19 -3 21 -9 3 -9 -8 -13 -36 -13 -40 0 -41 -1 -41 -33 0 -18 6 -39
12 -45 10 -10 10 -17 0 -32 -15 -24 -16 -67 -1 -76 6 -3 8 -17 5 -29 -5 -18
-1 -25 16 -31 13 -4 26 -12 30 -18 5 -8 11 -7 20 2 20 20 38 14 38 -13 0 -21
5 -25 30 -25 25 0 30 -4 30 -25 0 -28 -6 -31 -29 -12 -9 7 -33 19 -55 26 -32
11 -43 11 -63 0 -21 -11 -24 -18 -18 -45 3 -20 1 -35 -6 -39 -12 -8 -4 -67 13
-95 9 -14 8 -22 -5 -35 -22 -21 -22 -43 0 -67 14 -16 15 -23 5 -38 -19 -31
-15 -43 13 -36 23 6 25 4 19 -18 -5 -20 -2 -25 16 -28 34 -5 24 -23 -17 -28
-35 -5 -38 -7 -35 -35 2 -16 9 -36 15 -43 7 -9 7 -16 -1 -24 -15 -15 -16 -63
-2 -88 7 -13 7 -21 0 -25 -5 -3 -10 -10 -10 -14 0 -10 57 -25 85 -23 12 1 24
-7 30 -20 6 -13 20 -24 33 -26 16 -3 22 -10 22 -28 0 -15 -6 -24 -15 -24 -8 0
-15 7 -15 15 0 9 -9 15 -24 15 -14 0 -28 4 -31 10 -9 15 -37 12 -63 -6 -18
-12 -20 -19 -11 -35 8 -15 7 -24 -2 -35 -9 -11 -10 -65 -5 -222 3 -114 9 -306
13 -427 3 -135 10 -225 16 -234 11 -13 262 -12 875 4 135 3 156 -2 129 -33 -8
-9 -22 -36 -33 -59 -10 -24 -21 -43 -26 -43 -4 0 -8 -8 -8 -19 0 -10 -13 -35
-30 -56 -16 -20 -28 -41 -25 -45 6 -10 -25 -37 -59 -49 -19 -8 -26 -16 -22
-27 3 -8 -1 -17 -9 -20 -9 -4 -15 -19 -15 -35 0 -29 1 -29 56 -29 l57 0 -6 34
c-4 23 -1 39 8 46 8 6 15 21 17 32 5 38 28 33 28 -6 0 -23 6 -39 18 -45 16
-10 16 -12 -1 -25 -34 -26 -19 -36 57 -36 72 0 74 1 79 27 4 21 -1 33 -20 48
-21 19 -22 23 -9 35 19 15 19 20 6 40 -9 13 -11 13 -20 0 -9 -13 -11 -13 -19
0 -8 12 -13 12 -35 1 -42 -23 -78 9 -42 38 11 9 15 7 19 -11 4 -12 9 -19 13
-15 4 4 1 19 -6 33 -11 20 -12 29 -2 44 7 11 12 26 12 34 0 8 30 44 67 81 61
59 71 65 109 65 44 0 134 -32 134 -48 0 -5 11 -22 25 -38 14 -16 30 -45 35
-64 6 -19 17 -44 25 -54 8 -11 15 -30 15 -43 0 -13 7 -26 15 -29 12 -5 14 -21
12 -75 -3 -53 -1 -69 10 -69 10 0 13 22 13 94 0 52 -4 97 -9 100 -14 9 -51 90
-51 113 0 11 -14 32 -30 46 -31 28 -39 55 -18 62 7 2 423 6 923 9 501 4 947 9
991 12 61 5 83 3 89 -6 5 -8 2 -18 -6 -24 -16 -13 -33 -38 -51 -76 -7 -14 -18
-31 -25 -38 -7 -7 -13 -22 -13 -33 0 -10 -9 -24 -20 -31 -11 -7 -20 -23 -20
-35 0 -22 -42 -63 -64 -63 -16 0 -46 -69 -46 -103 0 -26 2 -27 56 -27 l57 0
-6 39 c-3 26 0 46 9 58 7 10 14 26 14 36 0 10 7 20 15 23 8 4 15 17 15 30 0
14 7 27 15 30 8 4 15 14 15 24 0 11 5 22 10 25 6 3 10 14 10 24 0 10 31 48 69
84 68 66 70 67 123 67 58 0 118 -23 118 -44 0 -7 14 -30 30 -51 17 -21 30 -46
30 -55 0 -10 9 -29 21 -44 11 -14 18 -30 14 -36 -3 -5 1 -23 10 -39 9 -19 15
-57 15 -101 0 -55 3 -70 15 -70 12 0 14 18 12 111 -2 93 -5 112 -20 120 -9 6
-17 18 -17 27 0 10 -5 23 -11 29 -6 6 -12 23 -13 38 -2 15 -16 37 -31 49 -17
14 -26 29 -24 41 4 18 14 20 119 22 171 4 159 -4 162 105 2 76 6 93 19 96 9 2
24 -4 32 -13 9 -8 26 -15 39 -15 13 -1 34 -7 48 -15 18 -10 59 -14 140 -14 81
0 122 4 140 14 14 8 42 14 62 15 22 0 45 7 56 18 9 9 28 24 42 33 24 16 24 16
13 105 -6 51 -7 96 -2 105 9 18 -17 49 -42 49 -20 0 -79 62 -79 82 0 8 -23 27
-51 42 -61 31 -59 31 -59 8 0 -23 30 -52 53 -52 9 0 22 -10 28 -22 18 -36 82
-98 101 -98 40 0 41 -157 3 -201 -30 -32 -65 -43 -94 -27 -19 10 -25 10 -28 1
-6 -18 -16 -16 -42 8 -21 20 -21 22 -4 34 20 15 18 19 -14 29 -19 6 -22 4 -16
-11 8 -21 3 -17 -66 46 -25 23 -54 41 -67 41 -28 0 -74 20 -74 32 0 4 23 6 50
4 28 -2 50 1 50 5 0 5 -17 24 -37 44 -21 19 -32 35 -25 35 6 0 21 -9 33 -21
11 -11 23 -18 26 -15 7 7 -62 76 -75 76 -5 0 -21 19 -36 42 -26 40 -28 59 -11
101 5 13 2 17 -14 17 -25 0 -51 -55 -51 -107 0 -59 -35 -96 -57 -60 -4 6 -10
241 -14 521 -5 354 -10 510 -18 515 -6 4 -46 6 -88 5 -280 -5 -644 -7 -648 -2
-3 2 -8 18 -11 35 -5 27 -3 31 26 41 22 8 31 17 28 29 -3 16 -15 18 -98 18
-91 0 -95 -1 -98 -22 -3 -19 1 -23 21 -23 14 0 30 -7 37 -15 18 -21 4 -64 -23
-69 -12 -3 -382 -7 -822 -8 -794 -3 -800 -3 -800 17 0 15 -7 20 -25 20 -22 0
-25 -4 -26 -45 -2 -75 7 -131 23 -137 15 -6 35 15 27 28 -12 20 -7 20 981 34
1205 16 1406 17 1420 5 13 -11 15 -62 15 -326 l0 -314 -40 0 c-27 0 -40 4 -40
14 0 20 -25 37 -43 30 -13 -5 -16 -21 -14 -92 2 -85 3 -87 27 -87 17 0 26 7
30 25 5 20 12 25 39 25 18 0 35 -4 38 -9 11 -17 18 -183 18 -411 l0 -230 -335
0 -335 0 -6 140 c-4 77 -9 220 -13 317 l-6 176 30 7 c40 9 70 -2 70 -26 0 -24
29 -37 41 -18 5 8 7 39 5 69 -3 30 -5 67 -5 83 -1 36 -36 38 -45 2 -7 -27 -18
-29 -141 -27 -27 1 -65 1 -83 1 -25 1 -35 7 -42 27 -7 16 -16 24 -28 22 -15
-3 -17 -16 -17 -93 0 -89 0 -90 25 -90 17 0 26 7 30 25 3 14 11 25 18 24 7 -1
23 -2 36 -2 23 -2 25 -7 30 -74 3 -40 9 -184 12 -320 l6 -247 -114 -3 c-62 -2
-219 -3 -348 -3 l-235 0 -6 297 c-3 164 -8 301 -12 304 -3 4 -2 15 4 25 7 14
21 19 49 19 36 0 40 -3 40 -24 0 -28 26 -42 46 -25 20 17 19 162 -1 179 -19
16 -45 -3 -45 -31 0 -18 -9 -19 -130 -19 -129 0 -131 0 -140 24 -5 13 -14 27
-21 32 -24 15 -34 -21 -29 -107 4 -75 7 -84 25 -84 12 0 25 11 33 28 10 21 20
27 46 27 l33 0 7 -77 c3 -43 9 -188 12 -322 6 -201 4 -245 -7 -252 -8 -5 -164
-9 -346 -9 l-333 0 -6 25 c-8 34 1 55 26 55 24 0 38 26 21 43 -15 15 -173 9
-183 -6 -9 -15 10 -37 33 -37 15 0 19 -8 19 -40 l0 -40 -242 0 c-134 0 -328
-2 -433 -5 -296 -7 -763 -7 -775 0 -13 8 -13 175 -1 175 5 0 30 -16 55 -35 26
-19 52 -35 59 -35 6 0 21 -7 31 -15 11 -8 32 -15 46 -15 14 0 35 -7 46 -15 31
-23 149 -20 190 6 19 11 38 17 44 14 6 -4 22 0 35 9 13 9 30 16 37 16 20 1
108 89 108 109 0 9 5 22 12 29 6 6 12 42 14 79 l3 68 -47 45 c-66 63 -138 110
-171 110 -15 0 -32 5 -38 11 -14 14 -185 6 -243 -12 -25 -8 -51 -19 -58 -26
-7 -7 -19 -13 -25 -13 -19 -1 -74 -53 -81 -77 -8 -25 -24 -30 -31 -10 -10 30
-11 208 -1 216 6 5 265 12 576 16 311 3 629 8 707 10 159 3 181 -3 169 -49 -4
-15 -17 -31 -31 -36 -36 -14 -34 -50 3 -51 62 -3 158 3 165 10 12 12 -4 41
-23 41 -47 0 -52 79 -5 81 14 1 31 2 37 3 7 1 19 -12 26 -27 8 -17 20 -27 30
-25 14 3 18 18 20 87 3 85 -7 115 -34 104 -8 -3 -14 -15 -14 -28 0 -19 -6 -23
-38 -26 -85 -9 -810 -10 -815 -3 -3 5 -6 151 -8 324 l-4 315 42 3 c37 3 42 0
45 -20 2 -17 10 -23 28 -23 25 0 25 1 25 83 1 45 -2 87 -6 93 -11 18 -44 5
-47 -19 -3 -19 -9 -22 -46 -22 l-43 0 -6 87 c-3 49 -6 387 -7 753 0 366 -5
755 -10 865 -5 110 -10 246 -10 302 0 89 2 104 18 112 11 6 149 10 335 11 297
0 317 -1 326 -18 6 -10 10 -152 12 -338 1 -175 6 -327 11 -336 10 -21 51 -24
67 -4 8 9 10 44 7 102 -3 49 -6 199 -7 333 -1 220 0 245 15 253 26 15 61 2 74
-27 13 -28 24 -31 41 -11 8 9 11 42 8 93 -3 71 -6 78 -25 81 -16 3 -25 -4 -32
-22 l-10 -26 -432 2 -433 3 -3 58 c-2 45 0 57 12 57 8 0 18 -4 21 -10 3 -5 15
-10 25 -10 10 0 31 -6 47 -14 69 -35 128 -45 231 -42 60 2 108 8 115 15 6 6
31 11 54 11 36 0 49 6 78 35 l35 34 0 116 0 115 -32 14 c-39 16 -78 51 -78 70
0 19 -40 52 -79 65 -42 14 -41 14 -41 -2 0 -16 42 -57 57 -57 7 0 24 -19 40
-42 16 -24 45 -51 66 -61 l37 -19 0 -85 c0 -82 -1 -86 -31 -114 -37 -34 -55
-36 -89 -8 -19 15 -22 22 -11 26 17 7 71 58 71 67 0 9 -54 -5 -62 -17 -9 -14
-66 -19 -73 -7 -4 7 -13 6 -26 -1 -17 -9 -25 -6 -47 17 -39 39 -70 57 -86 51
-8 -3 -20 0 -26 8 -9 11 -7 16 10 25 12 6 28 9 35 6 8 -3 25 4 40 16 20 15 29
17 40 8 10 -8 18 -8 34 2 12 7 21 18 21 23 0 12 -68 13 -86 2 -7 -4 -31 11
-55 33 -24 22 -49 40 -55 40 -12 0 -64 76 -64 95 0 7 9 24 21 39 18 22 28 26
75 26 31 0 69 -7 86 -16 40 -21 62 -4 33 26 -28 27 -152 32 -170 6 -7 -9 -19
-14 -26 -11 -8 3 -19 1 -25 -3 -16 -11 -44 -89 -44 -123 0 -20 -9 -37 -26 -53
-17 -14 -27 -33 -28 -51 -1 -16 -7 -30 -13 -33 -9 -2 -13 13 -14 55 -5 240 -5
273 7 277 6 2 338 8 736 12 l725 7 6 -24 c9 -38 13 -633 4 -646 -4 -6 -20 -10
-35 -8 -15 2 -30 4 -33 4 -4 1 -10 12 -13 26 -7 28 -15 31 -37 13 -13 -10 -15
-30 -11 -95 4 -78 5 -83 27 -83 16 0 25 7 29 26 6 22 11 25 43 22 33 -3 38 -7
44 -37 4 -19 8 -174 8 -345 1 -170 3 -311 4 -312 1 0 13 -4 27 -7 56 -13 55
-17 55 355 l0 343 335 7 c216 4 339 3 345 -3 6 -6 10 -75 11 -162 1 -84 5
-416 9 -738 l7 -586 -32 -6 c-23 -5 -31 -11 -28 -24 3 -15 17 -18 94 -21 77
-2 93 0 98 14 8 21 0 33 -30 44 l-24 9 -2 378 c-2 208 0 382 4 387 3 4 145 10
315 12 556 7 620 10 650 34 45 35 173 25 173 -14 0 -6 -5 -5 -12 2 -7 7 -39
12 -73 12 -75 0 -105 -24 -105 -83 0 -30 -8 -47 -42 -83 -33 -36 -42 -54 -43
-82 0 -31 -3 -37 -20 -35 -83 10 -115 7 -129 -12 -22 -29 -20 -41 14 -77 17
-17 30 -32 30 -33 0 -1 -14 -28 -31 -61 -34 -66 -33 -108 2 -139 18 -17 21
-18 36 -2 13 13 14 19 5 29 -7 7 -12 26 -12 44 0 63 56 49 106 -26 18 -28 34
-40 50 -40 33 0 38 15 9 28 -28 13 -33 37 -9 46 11 4 15 17 13 51 -3 37 2 50
24 73 15 15 27 33 27 38 0 24 22 32 51 17 33 -17 59 -11 59 12 0 11 -11 15
-40 15 -35 0 -42 4 -56 33 -9 17 -18 34 -20 36 -2 2 -15 -6 -30 -18 -33 -26
-41 -26 -54 -1 -9 17 -5 26 29 60 45 46 51 47 75 21 10 -11 32 -23 48 -26 25
-6 35 -2 62 24 22 22 42 31 64 31 22 0 32 5 32 15 0 8 -9 15 -19 15 -26 0 -34
15 -35 64 l-1 41 175 5 175 5 -3 357 c-4 339 -3 356 15 361 10 3 237 9 506 12
l487 7 0 45 c0 35 -5 48 -27 67 -28 24 -25 46 8 46 18 0 19 10 19 325 l0 326
-35 30 c-39 35 -38 49 6 49 l29 0 0 325 c-1 322 -1 325 -22 325 -16 0 -19 -5
-16 -25 4 -17 1 -25 -8 -25 -8 0 -14 -4 -14 -10 0 -5 -4 -10 -10 -10 -5 0 -10
7 -10 15 0 8 4 15 9 15 14 0 20 37 11 77 -10 42 1 56 37 46 23 -5 23 -4 23
105 0 79 -4 112 -12 115 -10 3 -10 9 0 26 17 29 17 371 0 371 -15 0 -77 -20
-101 -32 -20 -10 -37 -3 -37 16 0 28 -26 38 -69 25 -33 -10 -43 -9 -57 2 -14
11 -19 10 -33 -8 -10 -11 -31 -24 -49 -28 -26 -5 -36 -2 -54 17 -14 14 -31 22
-43 20z m-2645 -62 c0 -5 -4 -10 -10 -10 -5 0 -10 5 -10 10 0 6 5 10 10 10 6
0 10 -4 10 -10z m-580 -10 c0 -5 -4 -10 -10 -10 -5 0 -10 5 -10 10 0 6 5 10
10 10 6 0 10 -4 10 -10z m3447 -6 c2 -5 -6 -10 -17 -10 -20 0 -25 7 -13 20 9
8 26 3 30 -10z m-5187 -4 c0 -5 -4 -10 -10 -10 -5 0 -10 5 -10 10 0 6 5 10 10
10 6 0 10 -4 10 -10z m4400 0 c0 -5 -2 -10 -4 -10 -2 0 -12 -3 -22 -7 -16 -6
-17 -5 -4 10 17 19 30 22 30 7z m525 -10 c4 -6 15 -8 26 -5 14 5 19 2 19 -14
0 -10 17 -37 38 -58 32 -32 44 -38 78 -37 22 0 46 4 53 8 8 6 10 1 6 -17 -5
-19 -2 -25 15 -30 12 -3 19 -10 15 -16 -8 -14 -82 -14 -90 -1 -3 5 -20 10 -38
10 -92 2 -107 4 -107 17 0 20 -27 46 -35 33 -3 -5 -1 -10 4 -10 6 0 11 -5 11
-11 0 -20 -27 -37 -52 -32 -14 3 -29 0 -32 -6 -4 -6 -16 -11 -27 -11 -19 0
-19 -2 -5 -27 8 -16 17 -36 20 -46 3 -11 15 -21 26 -24 12 -3 27 -18 36 -34
12 -24 19 -28 44 -22 24 4 30 2 30 -12 0 -10 8 -23 17 -30 14 -11 10 -12 -30
-11 -36 2 -54 9 -75 29 -15 14 -49 37 -75 51 -44 22 -47 22 -42 5 5 -15 1 -19
-19 -19 -15 0 -35 -5 -45 -12 -22 -13 -49 -5 -58 17 -4 11 8 30 33 56 l39 40
-27 23 c-16 12 -28 25 -28 29 0 11 78 8 85 -3 15 -24 54 -9 94 38 42 48 52 87
29 110 -10 10 -10 15 2 22 20 13 57 13 65 0z m-2815 -34 c0 -4 -7 -3 -15 4 -8
7 -22 9 -31 6 -14 -5 -15 -4 -5 8 10 12 16 13 32 3 10 -6 19 -16 19 -21z
m1300 -5 c0 -8 19 -30 42 -50 32 -27 52 -36 82 -38 22 -1 42 -6 44 -12 2 -6
10 -18 18 -25 21 -22 18 -24 -28 -19 -24 2 -57 5 -75 6 -17 1 -35 6 -39 10 -4
4 -14 7 -23 7 -8 0 -25 9 -37 21 -25 23 -47 18 -37 -9 6 -14 4 -15 -9 -5 -12
11 -19 8 -38 -12 -13 -14 -29 -25 -36 -25 -7 0 -15 -4 -18 -9 -9 -14 34 -93
54 -98 9 -3 23 -16 29 -30 9 -20 17 -24 35 -19 31 8 44 -21 19 -40 -25 -19
-25 -19 -68 25 -21 21 -45 37 -52 34 -7 -3 -19 0 -27 6 -9 8 -22 8 -45 0 -17
-6 -38 -8 -47 -5 -12 4 -15 2 -11 -9 8 -20 -9 -28 -33 -15 -28 15 -25 33 10
73 35 41 37 52 10 69 -11 7 -20 19 -20 27 0 13 25 13 100 -4 20 -5 34 3 72 40
46 45 54 70 34 104 -5 7 -4 16 0 21 25 23 94 9 94 -19z m470 29 c0 -5 -4 -10
-10 -10 -5 0 -10 5 -10 10 0 6 5 10 10 10 6 0 10 -4 10 -10z m257 -1 c8 -8 17
-8 32 0 14 8 21 8 21 1 0 -5 -4 -10 -10 -10 -23 0 -7 -27 35 -60 34 -26 56
-35 87 -37 31 -1 47 -7 57 -22 7 -12 20 -21 27 -21 8 0 14 -4 14 -9 0 -15 -81
-18 -108 -4 -17 9 -28 10 -37 3 -9 -8 -15 -8 -20 0 -3 5 -18 10 -32 10 -15 0
-36 11 -49 25 -32 35 -63 19 -55 -29 1 -5 -5 -6 -13 -3 -8 3 -22 -1 -33 -8
-21 -17 -43 -19 -43 -6 0 6 14 25 31 43 40 43 51 72 39 104 -6 14 -10 27 -10
30 0 9 57 3 67 -7z m113 1 c0 -5 -4 -10 -10 -10 -5 0 -10 5 -10 10 0 6 5 10
10 10 6 0 10 -4 10 -10z m-2930 -15 c7 -9 8 -15 2 -15 -5 0 -12 7 -16 15 -3 8
-4 15 -2 15 2 0 9 -7 16 -15z m1318 2 c17 1 22 -3 18 -14 -4 -10 10 -31 41
-59 49 -45 63 -52 63 -33 0 7 7 8 18 4 9 -4 25 -7 34 -7 10 0 15 -5 12 -13 -3
-7 4 -19 15 -27 12 -8 18 -18 14 -21 -12 -13 -66 -7 -84 9 -13 12 -22 13 -36
5 -12 -6 -25 -6 -34 0 -7 5 -24 9 -36 9 -13 0 -23 5 -23 11 0 7 -8 18 -17 25
-15 10 -21 10 -35 -3 -10 -9 -18 -22 -18 -28 0 -7 -20 -19 -45 -26 -25 -7 -45
-16 -45 -19 1 -18 49 -87 67 -95 12 -5 27 -20 32 -33 10 -20 16 -22 41 -17 25
6 30 3 30 -13 0 -10 -11 -24 -24 -30 -20 -9 -29 -5 -71 29 -26 21 -53 39 -60
39 -7 0 -23 9 -37 20 l-25 19 5 -24 c3 -20 0 -25 -15 -25 -10 0 -25 6 -32 13
-11 10 -13 9 -8 -4 10 -28 -13 -40 -44 -23 -16 8 -29 19 -29 23 0 5 18 25 40
44 45 38 49 51 20 69 -11 7 -20 19 -20 26 0 14 27 13 91 -3 22 -6 33 1 72 42
47 48 57 81 37 113 -7 11 -4 17 13 21 12 4 29 4 37 1 8 -3 25 -5 38 -5z
m-2864 -12 c11 -8 15 -15 10 -15 -6 0 -16 6 -23 13 -11 10 -14 10 -18 0 -3 -7
-9 -13 -15 -13 -6 0 -6 6 2 15 15 18 20 18 44 0z m1278 6 c3 0 32 -27 63 -58
39 -39 65 -58 83 -59 64 -3 72 -5 69 -16 -1 -7 8 -14 21 -16 13 -2 21 -9 19
-15 -5 -15 -87 -18 -104 -5 -7 5 -21 7 -32 3 -10 -3 -22 -1 -26 5 -3 5 -13 10
-22 10 -8 0 -29 10 -45 22 -36 25 -65 14 -60 -22 2 -18 0 -20 -12 -11 -10 9
-16 8 -26 -4 -14 -17 -50 -20 -50 -5 0 6 18 28 40 49 43 40 49 64 25 97 -8 12
-12 23 -10 26 4 3 47 3 67 -1z m806 -2 c18 -1 20 -4 12 -15 -12 -14 -6 -34 11
-34 5 0 23 -15 39 -34 28 -31 33 -33 75 -28 37 4 45 2 45 -12 0 -9 12 -22 28
-28 l27 -12 -40 -6 c-22 -3 -48 -2 -58 3 -10 4 -41 10 -68 12 -30 3 -61 13
-76 25 -31 24 -46 25 -64 3 -8 -9 -33 -28 -57 -43 -38 -23 -41 -28 -28 -40 9
-7 16 -19 16 -28 0 -8 20 -35 45 -59 37 -35 50 -42 70 -37 31 8 34 -15 6 -40
-19 -17 -21 -17 -55 11 -20 15 -36 31 -36 35 0 3 -16 12 -35 18 -19 6 -42 21
-50 33 -18 26 -34 14 -17 -13 11 -18 9 -20 -17 -20 -16 0 -31 -6 -34 -14 -6
-14 -30 -15 -59 -2 -26 12 -23 19 25 65 l42 42 -27 24 c-16 13 -28 29 -28 35
0 15 62 12 84 -5 29 -22 36 -19 93 33 42 38 51 52 48 75 -2 15 -8 34 -14 41
-16 19 0 28 39 21 19 -3 45 -6 58 -6z m82 1 c0 -5 -4 -10 -10 -10 -5 0 -10 5
-10 10 0 6 5 10 10 10 6 0 10 -4 10 -10z m-1640 -10 c0 -6 11 -8 25 -4 20 5
24 3 19 -9 -8 -22 69 -102 91 -93 9 3 26 1 37 -5 16 -8 22 -8 29 2 4 7 12 10
16 5 4 -5 2 -11 -4 -13 -19 -7 -16 -21 7 -28 11 -3 20 -10 20 -15 0 -14 -60
-17 -86 -4 -13 7 -31 11 -39 7 -8 -3 -23 -2 -32 3 -10 4 -20 8 -23 9 -3 0 -15
4 -27 9 -14 4 -31 1 -47 -9 -14 -9 -30 -14 -35 -10 -6 3 -24 -1 -40 -10 -46
-23 -49 1 -7 44 36 37 50 91 26 106 -22 13 -8 25 30 25 22 0 40 -5 40 -10z
m160 0 c0 -5 -4 -10 -10 -10 -5 0 -10 5 -10 10 0 6 5 10 10 10 6 0 10 -4 10
-10z m600 -130 c0 -5 -4 -10 -10 -10 -5 0 -10 5 -10 10 0 6 5 10 10 10 6 0 10
-4 10 -10z m787 -5 c8 -9 12 -19 8 -23 -4 -4 -10 -1 -12 6 -3 6 -11 12 -19 12
-8 0 -14 5 -14 10 0 15 19 12 37 -5z m2100 1 c15 -8 35 -17 43 -19 9 -3 22
-17 30 -33 21 -44 41 -64 61 -64 11 0 16 -5 13 -13 -8 -21 33 -52 49 -38 16
13 27 5 27 -20 0 -22 -44 -33 -69 -17 -11 7 -25 22 -32 35 -8 15 -21 23 -38
23 -15 0 -31 8 -39 20 -7 11 -17 20 -23 20 -6 0 -8 -9 -4 -20 4 -14 2 -20 -9
-20 -8 0 -28 -8 -45 -17 -30 -17 -31 -17 -52 3 l-21 22 36 40 c41 45 41 45 20
67 -18 18 -12 45 10 45 8 0 27 -7 43 -14z m-3088 -20 c7 -8 25 -17 40 -21 21
-4 36 -19 55 -56 15 -27 33 -49 39 -49 7 0 21 -13 32 -30 13 -19 23 -26 29
-20 17 17 36 11 36 -10 0 -10 -9 -24 -20 -30 -16 -8 -26 -4 -60 30 -25 25 -50
40 -65 40 -14 0 -25 3 -25 8 0 10 -52 33 -59 26 -3 -3 1 -9 9 -14 8 -5 12 -11
10 -12 -24 -18 -62 -38 -72 -38 -7 0 -22 7 -32 15 -19 15 -19 16 17 53 42 43
46 62 17 80 -25 15 -26 29 -2 35 31 8 39 7 51 -7z m941 4 c0 -5 -4 -10 -9 -10
-6 0 -13 5 -16 10 -3 6 1 10 9 10 9 0 16 -4 16 -10z m-1687 -22 c12 -6 29 -14
37 -18 8 -4 20 -17 26 -29 6 -12 22 -33 34 -46 22 -23 24 -23 37 -7 12 15 13
14 8 -8 -7 -28 27 -71 40 -51 11 18 35 12 35 -8 0 -20 18 -31 51 -31 10 0 19
-4 19 -10 0 -15 -58 -12 -63 3 -3 9 -9 9 -27 -1 -21 -13 -26 -10 -66 28 -30
30 -48 41 -60 36 -11 -4 -25 1 -39 14 l-22 21 -6 -21 c-3 -12 -11 -18 -19 -15
-8 3 -21 -1 -28 -10 -15 -19 -39 -19 -64 0 -24 18 -16 39 28 67 42 27 46 49
11 68 -14 7 -25 17 -25 22 0 12 67 10 93 -4z m2007 -38 c0 -5 -4 -10 -10 -10
-5 0 -10 5 -10 10 0 6 5 10 10 10 6 0 10 -4 10 -10z m-2380 -120 c0 -5 -4 -10
-10 -10 -5 0 -10 5 -10 10 0 6 5 10 10 10 6 0 10 -4 10 -10z m60 0 c0 -5 -4
-10 -10 -10 -5 0 -10 5 -10 10 0 6 5 10 10 10 6 0 10 -4 10 -10z m3675 -19 c8
-14 -13 -24 -33 -16 -14 5 -14 7 -2 15 19 12 27 12 35 1z m93 -3 c-6 -18 -28
-21 -28 -4 0 9 7 16 16 16 9 0 14 -5 12 -12z m672 2 c0 -5 -13 -10 -30 -10
-16 0 -30 5 -30 10 0 6 14 10 30 10 17 0 30 -4 30 -10z m100 0 c0 -5 -7 -10
-15 -10 -8 0 -15 5 -15 10 0 6 7 10 15 10 8 0 15 -4 15 -10z m700 0 c0 -5 -6
-10 -14 -10 -8 0 -18 5 -21 10 -3 6 3 10 14 10 12 0 21 -4 21 -10z m72 -2 c-9
-9 -15 -9 -24 0 -9 9 -7 12 12 12 19 0 21 -3 12 -12z m-2399 -12 c-2 -3 -5 -6
-8 -6 -3 0 -14 0 -25 0 -11 0 -20 4 -20 9 0 5 12 8 28 7 15 -2 26 -6 25 -10z
m87 4 c0 -5 -7 -10 -16 -10 -8 0 -12 5 -9 10 3 6 10 10 16 10 5 0 9 -4 9 -10z
m-1640 -9 c0 -16 -19 -23 -40 -16 -30 10 -24 25 10 25 17 0 30 -4 30 -9z m88
-3 c-3 -7 -11 -13 -18 -13 -7 0 -15 6 -17 13 -3 7 4 12 17 12 13 0 20 -5 18
-12z m687 2 c-3 -5 -17 -10 -30 -10 -13 0 -27 5 -30 10 -4 6 8 10 30 10 22 0
34 -4 30 -10z m80 0 c3 -5 -1 -10 -9 -10 -9 0 -16 5 -16 10 0 6 4 10 9 10 6 0
13 -4 16 -10z m375 0 c0 -5 -4 -10 -10 -10 -5 0 -10 5 -10 10 0 6 5 10 10 10
6 0 10 -4 10 -10z m-2270 -10 c0 -5 -4 -10 -10 -10 -5 0 -10 5 -10 10 0 6 5
10 10 10 6 0 10 -4 10 -10z m364 -5 c-5 -12 -10 -13 -20 -4 -19 15 -18 19 6
19 13 0 18 -5 14 -15z m-704 -5 c0 -5 -7 -10 -15 -10 -8 0 -15 5 -15 10 0 6 7
10 15 10 8 0 15 -4 15 -10z m4665 -33 c6 -12 20 -23 33 -25 13 -2 22 -10 22
-21 0 -26 -11 -33 -29 -18 -9 7 -32 20 -52 29 -33 15 -39 15 -58 2 -12 -9 -37
-14 -57 -12 l-36 3 22 28 c28 36 48 43 103 39 33 -3 45 -9 52 -25z m781 7 c4
-17 13 -24 30 -24 17 0 24 -6 24 -19 0 -27 -21 -37 -35 -18 -7 10 -19 17 -28
17 -9 0 -19 5 -22 10 -3 6 -17 10 -30 10 -13 0 -27 -4 -30 -10 -10 -16 -65
-12 -65 4 0 28 46 52 99 53 46 1 52 -2 57 -23z m-1620 5 c3 -6 16 -8 29 -5 17
4 27 -1 39 -19 9 -14 23 -25 31 -25 9 0 15 -9 15 -21 0 -11 -3 -19 -7 -17 -5
2 -29 14 -56 27 -44 22 -48 22 -72 7 -16 -10 -34 -14 -51 -10 -20 5 -26 2 -31
-15 -3 -11 -12 -21 -19 -21 -26 0 -22 7 55 86 25 25 55 31 67 13z m-729 -10
c12 1 27 -8 33 -19 6 -11 17 -20 24 -20 8 0 19 -6 25 -14 21 -25 -6 -28 -51
-6 -50 24 -56 24 -97 4 -43 -21 -66 -13 -49 18 20 36 41 49 68 43 14 -4 35 -6
47 -6z m-2667 -15 c0 -8 -5 -12 -10 -9 -6 4 -8 11 -5 16 9 14 15 11 15 -7z
m320 4 c17 -11 22 -10 30 2 5 8 10 12 12 10 2 -3 8 -14 14 -25 6 -11 23 -26
37 -33 16 -8 24 -18 20 -27 -7 -20 -4 -21 -80 19 -30 15 -34 16 -57 1 -14 -9
-39 -15 -56 -13 l-32 3 38 38 c41 41 46 42 74 25z m760 2 c13 -7 21 -7 25 0
11 17 25 11 35 -15 5 -14 16 -25 24 -25 21 0 36 -23 25 -40 -6 -10 -11 -12
-16 -4 -5 6 -25 19 -46 29 -36 17 -41 17 -73 1 -19 -9 -46 -16 -59 -16 -16 0
-25 -6 -25 -15 0 -8 -7 -15 -15 -15 -22 0 -18 15 10 36 14 10 25 26 25 34 0 9
12 21 28 27 36 14 40 15 62 3z m788 -2 c8 -8 15 -8 27 2 14 11 17 10 22 -8 3
-12 15 -25 27 -28 12 -3 27 -18 33 -35 12 -31 3 -39 -17 -15 -6 8 -32 25 -56
37 -42 20 -46 20 -63 5 -16 -15 -81 -23 -81 -10 0 3 10 19 23 34 23 30 64 39
85 18z m-2158 -8 c0 -5 -4 -10 -10 -10 -5 0 -10 5 -10 10 0 6 5 10 10 10 6 0
10 -4 10 -10z m380 -50 c0 -5 -4 -10 -10 -10 -5 0 -10 5 -10 10 0 6 5 10 10
10 6 0 10 -4 10 -10z m3589 -50 c24 -22 49 -40 55 -40 6 0 16 -10 21 -22 7
-16 19 -23 37 -23 16 -1 33 -6 39 -12 9 -9 7 -11 -8 -7 -12 3 -24 1 -27 -5 -9
-14 -73 -14 -81 -1 -3 6 -20 10 -36 10 -25 0 -29 3 -25 18 5 13 -6 30 -34 56
-46 42 -49 53 -17 59 12 2 24 5 27 6 3 0 25 -17 49 -39z m631 24 c0 -8 -4 -12
-10 -9 -5 3 -10 10 -10 16 0 5 5 9 10 9 6 0 10 -7 10 -16z m160 -19 c27 -28
40 -35 59 -30 22 6 23 5 11 -11 -13 -14 -11 -19 13 -40 45 -39 19 -58 -38 -28
-17 9 -42 13 -58 10 -25 -5 -27 -4 -17 15 10 18 5 25 -34 61 -51 44 -51 58 -2
58 24 0 41 -9 66 -35z m-2315 -25 c40 -34 49 -39 62 -28 14 11 15 10 9 -9 -7
-21 14 -53 35 -53 5 0 9 -7 9 -15 0 -10 -10 -15 -34 -15 -18 0 -39 7 -46 15
-7 8 -21 15 -31 15 -11 0 -23 10 -28 23 -5 12 -23 35 -40 51 -68 65 -9 79 64
16z m771 8 c20 -18 52 -49 70 -68 41 -43 31 -62 -21 -37 -20 9 -45 17 -55 17
-12 0 -20 7 -20 16 0 10 -16 32 -35 51 -43 42 -44 53 -5 53 20 0 43 -11 66
-32z m-2346 5 c14 -9 31 -25 39 -36 9 -13 20 -17 38 -12 22 5 25 3 20 -14 -7
-28 27 -58 48 -41 12 10 17 9 30 -3 8 -9 15 -22 15 -29 -1 -8 -6 -6 -15 6 -14
18 -16 18 -33 3 -23 -21 -65 -22 -82 -2 -7 8 -21 15 -31 15 -10 0 -25 13 -33
29 -9 16 -29 40 -46 55 -17 14 -28 30 -25 36 10 15 48 12 75 -7z m779 -9 c40
-33 39 -44 -3 -44 -35 0 -86 35 -86 59 0 21 58 11 89 -15z m-1519 -19 c24 -25
40 -33 53 -29 15 5 18 2 13 -13 -4 -13 1 -26 14 -38 11 -10 20 -21 20 -25 0
-15 -42 -18 -68 -5 -15 8 -35 16 -44 19 -10 3 -18 15 -18 26 0 11 -7 23 -15
27 -16 5 -75 60 -75 69 0 2 19 4 43 4 36 0 49 -6 77 -35z m4450 5 c0 -5 -4
-10 -10 -10 -5 0 -10 5 -10 10 0 6 5 10 10 10 6 0 10 -4 10 -10z m-3984 -37
c-10 -10 -19 5 -10 18 6 11 8 11 12 0 2 -7 1 -15 -2 -18z m4824 9 c0 -10 -5
-23 -12 -30 -12 -12 -48 -17 -48 -7 0 3 7 17 16 30 19 29 44 33 44 7z m-780
-11 c0 -24 -25 -45 -45 -37 -14 5 -14 8 1 31 19 29 44 33 44 6z m60 4 c0 -8
-7 -15 -15 -15 -16 0 -20 12 -8 23 11 12 23 8 23 -8z m-3918 -22 c-9 -53 -52
-79 -52 -33 0 14 42 60 55 60 1 0 0 -12 -3 -27z m2318 8 c0 -26 -27 -48 -42
-33 -9 9 -7 17 7 32 23 25 35 26 35 1z m46 -7 c-4 -9 -9 -15 -11 -12 -3 3 -3
13 1 22 4 9 9 15 11 12 3 -3 3 -13 -1 -22z m716 3 c4 -19 0 -23 -24 -25 -30
-2 -37 15 -16 36 19 19 35 14 40 -11z m-1532 -5 c0 -10 5 -23 11 -29 7 -7 3
-9 -15 -6 -15 3 -26 1 -26 -6 0 -6 -4 -11 -10 -11 -14 0 -13 43 2 58 18 18 38
15 38 -6z m54 2 c9 -22 8 -24 -9 -24 -8 0 -15 9 -15 20 0 24 15 27 24 4z
m-2384 -19 c0 -21 -24 -45 -44 -45 -11 0 -6 22 12 45 22 31 32 31 32 0z m60 0
c0 -14 -8 -29 -20 -35 -20 -11 -30 3 -10 15 6 3 10 15 10 26 0 10 5 19 10 19
6 0 10 -11 10 -25z m777 -12 c-11 -10 -26 8 -20 23 5 15 7 14 15 -1 6 -9 7
-19 5 -22z m4063 27 c0 -5 -4 -10 -10 -10 -5 0 -10 5 -10 10 0 6 5 10 10 10 6
0 10 -4 10 -10z m-4348 -25 c0 -5 -5 -11 -11 -13 -6 -2 -11 4 -11 13 0 9 5 15
11 13 6 -2 11 -8 11 -13z m752 -9 c-7 -17 -34 -23 -34 -6 0 9 32 31 38 26 1
-2 0 -11 -4 -20z m297 -33 c3 -124 4 -128 19 -128 10 0 17 13 20 35 7 47 36
51 74 11 32 -33 28 -2 41 -363 7 -201 7 -206 -13 -217 -24 -13 -71 -14 -89 -3
-8 5 -13 46 -15 122 -3 111 -4 115 -25 118 -34 5 -28 20 10 24 26 2 31 7 28
23 -2 11 -6 61 -10 110 l-6 90 -29 -2 c-38 -3 -43 -9 -23 -31 23 -25 24 -144
2 -162 -9 -7 -14 -19 -11 -26 5 -12 -14 -24 -37 -24 -35 1 -38 15 -43 226 -4
115 -10 217 -15 226 -14 27 -12 28 56 28 l65 0 1 -57z m107 50 c-34 -71 -49
-79 -68 -42 -18 32 -5 49 36 49 19 0 34 -3 32 -7z m242 -75 c0 -46 3 -205 7
-354 4 -198 2 -273 -6 -278 -6 -4 -13 -1 -16 6 -2 7 -6 169 -8 361 -4 293 -3
347 9 347 11 0 14 -19 14 -82z m651 65 c13 -17 13 -17 -6 -3 -11 8 -22 16 -24
17 -2 2 0 3 6 3 6 0 17 -8 24 -17z m-2101 -3 c0 -5 -7 -10 -16 -10 -8 0 -12 5
-9 10 3 6 10 10 16 10 5 0 9 -4 9 -10z m957 -16 c10 -26 -17 -64 -46 -64 -36
0 -54 31 -35 59 18 25 72 29 81 5z m406 2 c7 -19 -33 -66 -57 -66 -17 0 -46
22 -46 36 0 35 91 62 103 30z m3397 -16 c-19 -13 -30 -13 -30 0 0 6 10 10 23
10 18 0 19 -2 7 -10z m-237 -7 c28 -4 37 -10 32 -21 -7 -20 72 -87 105 -88 59
-2 70 -5 70 -19 0 -9 7 -18 15 -21 35 -14 12 -26 -37 -20 -29 3 -63 6 -75 6
-30 1 -95 29 -109 48 -14 20 -37 6 -31 -19 4 -13 0 -19 -11 -19 -9 0 -35 -7
-58 -16 l-41 -15 19 -37 c23 -48 87 -109 117 -113 34 -5 37 -26 6 -41 -23 -10
-29 -8 -63 25 -21 20 -45 37 -53 37 -8 0 -20 5 -27 12 -9 9 -15 9 -24 0 -7 -7
-23 -12 -37 -12 -13 0 -32 -7 -42 -16 -14 -13 -20 -13 -38 -2 -29 18 -26 31
14 67 40 34 44 55 15 71 -47 25 -7 50 41 26 48 -24 58 -21 110 37 48 51 58 78
40 107 -19 28 -3 34 62 23z m-5133 -44 c0 -14 -11 -11 -32 8 -27 24 -22 36 7
17 14 -9 25 -20 25 -25z m3632 -21 c57 -55 70 -63 104 -63 29 0 46 -7 69 -29
l30 -28 -60 6 c-33 3 -72 5 -87 6 -15 0 -29 4 -33 10 -3 5 -16 10 -29 10 -13
0 -31 9 -41 20 -23 26 -29 25 -45 -5 -7 -14 -18 -25 -23 -25 -5 0 -22 -9 -37
-20 -26 -19 -27 -22 -17 -51 7 -18 27 -44 44 -58 18 -14 33 -32 33 -38 0 -13
11 -17 41 -14 13 2 37 -29 27 -33 -2 -1 -13 -6 -24 -13 -19 -10 -26 -7 -60 28
-21 21 -45 39 -54 39 -8 0 -28 12 -43 26 -27 25 -54 27 -29 2 17 -17 15 -25
-10 -31 -13 -4 -26 0 -33 10 -8 11 -14 12 -19 5 -3 -6 -2 -13 4 -17 5 -3 10
-11 10 -16 0 -17 -42 -6 -54 14 -9 15 -5 24 27 53 20 19 37 38 37 43 0 5 -12
18 -27 29 -34 25 -23 46 20 37 18 -4 36 -11 42 -16 13 -12 55 -11 55 1 0 6 15
24 34 41 37 32 55 84 37 102 -20 20 -12 37 18 37 21 0 44 -15 93 -62z m768 2
c42 -44 65 -60 82 -59 56 5 78 -1 78 -21 0 -14 7 -20 23 -21 12 -1 2 -5 -22
-10 -30 -6 -49 -5 -58 2 -7 6 -24 9 -38 7 -14 -3 -28 -1 -31 3 -3 5 -16 9 -29
9 -13 0 -36 11 -51 25 l-26 25 -46 -39 c-63 -54 -85 -43 -31 16 41 45 44 58
24 106 -6 14 -2 17 29 17 31 0 45 -8 96 -60z m-1524 -15 c50 -49 70 -63 79
-55 15 12 65 3 65 -11 0 -5 11 -15 25 -21 14 -6 25 -15 25 -20 0 -12 -98 -10
-105 3 -4 6 -19 7 -35 4 -16 -3 -31 -2 -35 4 -3 6 -14 11 -24 11 -10 0 -26 9
-36 20 -24 27 -39 25 -55 -5 -7 -14 -18 -25 -23 -25 -6 0 -19 -8 -29 -17 -14
-13 -21 -14 -30 -5 -9 9 -2 22 30 55 44 45 56 90 27 101 -27 10 -15 26 20 26
30 0 45 -10 101 -65z m-2353 32 c10 -1 15 -6 13 -13 -6 -16 79 -98 93 -90 16
10 81 -4 78 -17 -1 -6 8 -13 21 -15 12 -2 22 -7 22 -12 0 -22 -89 -20 -118 3
-10 8 -16 7 -22 -4 -7 -11 -12 -11 -22 -1 -6 6 -19 12 -28 12 -9 0 -25 9 -35
20 -32 35 -84 15 -68 -25 4 -13 3 -16 -6 -11 -11 7 -81 -19 -81 -30 0 -2 5
-14 12 -27 6 -12 14 -28 18 -36 12 -26 39 -38 50 -21 5 8 12 11 17 7 4 -5 1
-12 -6 -16 -10 -7 -11 -13 -1 -30 9 -18 17 -21 41 -16 25 6 29 4 29 -14 0 -15
8 -20 35 -23 20 -2 35 -7 35 -13 0 -16 -61 -12 -70 5 -7 12 -11 12 -24 1 -17
-15 -25 -11 -75 36 -13 13 -36 23 -51 23 -16 0 -30 7 -34 15 -8 23 -25 18 -19
-6 5 -18 2 -19 -23 -13 -16 4 -30 11 -32 16 -8 20 -22 6 -16 -17 7 -29 -2 -31
-34 -9 -30 21 -28 32 13 74 l35 36 -25 24 c-14 13 -25 27 -25 32 0 13 63 9 90
-6 23 -13 28 -12 75 32 61 56 73 84 51 116 -20 31 -13 36 32 24 20 -5 45 -10
55 -11z m745 7 c18 -8 32 -22 32 -30 0 -8 4 -14 9 -14 5 0 22 -13 38 -30 15
-16 33 -30 40 -30 18 0 27 20 14 33 -17 17 -13 29 10 25 27 -4 50 -38 32 -45
-7 -3 -13 -17 -13 -33 0 -27 -1 -28 -55 -25 -42 3 -63 10 -86 29 -17 14 -35
26 -42 26 -6 0 -25 -16 -43 -35 -19 -21 -41 -35 -55 -35 -21 0 -20 3 19 43 42
43 54 81 31 104 -14 14 -3 33 20 33 10 0 32 -7 49 -16z m-1328 -9 c0 -8 -4
-15 -10 -15 -5 0 -10 7 -10 15 0 8 5 15 10 15 6 0 10 -7 10 -15z m1628 -28 c3
-13 -4 -17 -27 -17 -30 0 -30 1 -14 20 20 23 36 21 41 -3z m406 8 c3 -9 -1
-18 -10 -22 -19 -7 -28 2 -21 22 8 19 23 19 31 0z m-1944 -25 c0 -5 -4 -10
-10 -10 -5 0 -10 5 -10 10 0 6 5 10 10 10 6 0 10 -4 10 -10z m1974 -62 c3 -29
6 -110 6 -181 0 -124 -1 -128 -23 -136 -13 -5 -39 -6 -58 -2 l-34 7 -3 161 -2
161 40 7 c25 4 40 12 40 21 0 8 6 14 14 14 9 0 15 -18 20 -52z m166 19 c13
-24 13 -30 0 -54 -9 -16 -23 -29 -33 -31 -15 -3 -17 5 -17 58 0 53 2 61 17 58
10 -2 24 -15 33 -31z m-605 -6 c2 -4 5 -121 6 -260 3 -273 4 -271 -51 -271
-49 0 -49 0 -51 266 -2 138 1 255 4 261 8 13 84 15 92 4z m2580 -31 c3 -5 15
-10 26 -10 21 0 58 -36 59 -56 0 -21 46 -55 65 -48 15 6 17 4 12 -11 -10 -24
8 -43 37 -38 34 7 41 -21 10 -42 -23 -15 -26 -15 -54 5 -17 12 -35 30 -41 42
-10 18 -17 19 -72 13 -34 -4 -66 -11 -71 -16 -15 -14 -52 -11 -66 6 -11 13 -7
21 23 49 41 38 47 65 17 84 -11 7 -20 17 -20 22 0 13 67 13 75 0z m-1518 -14
c15 -8 35 -17 44 -20 9 -2 23 -19 32 -38 9 -19 26 -43 37 -53 18 -16 23 -17
31 -5 8 12 9 11 5 -5 -3 -11 1 -28 9 -38 10 -15 18 -16 33 -8 22 12 32 6 32
-20 0 -12 -10 -21 -26 -25 -21 -5 -33 0 -63 30 -20 20 -47 36 -59 36 -13 0
-25 7 -28 15 -4 8 -12 15 -20 15 -8 0 -14 -7 -14 -15 0 -17 -35 -21 -45 -5
-11 18 -27 11 -22 -10 4 -16 0 -20 -18 -20 -12 0 -28 6 -34 14 -9 10 -3 21 29
50 22 20 40 40 40 45 0 5 -12 19 -26 30 -46 36 3 57 63 27z m-1557 -11 c7 -8
20 -15 29 -15 19 0 51 -34 51 -53 0 -23 92 -99 113 -93 12 3 21 -3 27 -20 8
-19 17 -24 45 -24 19 0 35 -4 35 -10 0 -13 -67 -13 -75 0 -3 6 -17 7 -30 4
-17 -4 -33 3 -63 30 -39 36 -65 45 -77 26 -3 -5 -10 -10 -16 -10 -17 0 -9 20
9 20 14 1 13 4 -7 20 -29 25 -44 26 -37 2 9 -27 -56 -59 -89 -44 -35 16 -31
35 15 75 l40 34 -24 28 c-14 16 -23 32 -20 37 9 14 61 9 74 -7z m160 5 c0 -5
-4 -10 -10 -10 -5 0 -10 5 -10 10 0 6 5 10 10 10 6 0 10 -4 10 -10z m-1260
-120 c0 -5 -4 -10 -10 -10 -5 0 -10 5 -10 10 0 6 5 10 10 10 6 0 10 -4 10 -10z
m120 0 c0 -5 -4 -10 -10 -10 -5 0 -10 5 -10 10 0 6 5 10 10 10 6 0 10 -4 10
-10z m-90 -60 c0 -5 -4 -10 -10 -10 -5 0 -10 5 -10 10 0 6 5 10 10 10 6 0 10
-4 10 -10z m3680 -20 c0 -5 -13 -10 -30 -10 -16 0 -30 5 -30 10 0 6 14 10 30
10 17 0 30 -4 30 -10z m90 0 c0 -5 -7 -10 -15 -10 -8 0 -15 5 -15 10 0 6 7 10
15 10 8 0 15 -4 15 -10z m680 0 c0 -5 -11 -10 -24 -10 -14 0 -28 5 -31 10 -4
6 7 10 24 10 17 0 31 -4 31 -10z m82 -2 c-9 -9 -15 -9 -24 0 -9 9 -7 12 12 12
19 0 21 -3 12 -12z m-3372 -8 c-8 -5 -19 -10 -25 -10 -5 0 -3 5 5 10 8 5 20
10 25 10 6 0 3 -5 -5 -10z m1755 0 c4 -6 -7 -10 -27 -9 -27 0 -30 2 -13 9 27
12 33 12 40 0z m85 0 c0 -5 -4 -10 -10 -10 -5 0 -10 5 -10 10 0 6 5 10 10 10
6 0 10 -4 10 -10z m-2322 -11 c-2 -6 -8 -10 -13 -10 -5 0 -11 4 -13 10 -2 6 4
11 13 11 9 0 15 -5 13 -11z m3934 -28 c11 6 18 2 26 -16 8 -17 20 -25 36 -25
17 0 25 -7 28 -25 6 -28 -12 -34 -32 -10 -7 8 -21 15 -31 15 -10 0 -21 5 -24
10 -3 6 -17 10 -30 10 -13 0 -27 -4 -30 -10 -3 -5 -24 -10 -46 -10 -28 0 -39
-4 -39 -15 0 -8 -7 -15 -16 -15 -12 0 -5 12 22 43 52 58 73 69 100 52 12 -8
26 -10 36 -4z m753 9 c4 -7 13 -7 26 0 16 9 21 7 27 -10 4 -12 19 -26 32 -33
13 -7 27 -24 31 -40 l7 -27 -26 18 c-53 35 -80 45 -109 37 -15 -3 -45 -9 -65
-12 -23 -3 -38 -11 -38 -19 0 -8 -4 -14 -10 -14 -16 0 -12 14 10 38 11 12 20
25 20 29 0 12 52 42 72 43 9 0 20 -5 23 -10z m-1537 -15 c12 -1 31 -10 42 -21
10 -10 26 -25 35 -32 8 -7 13 -18 9 -23 -4 -6 -13 -4 -23 5 -10 9 -20 13 -24
10 -3 -3 -16 1 -28 9 -19 14 -25 14 -50 1 -33 -16 -79 -19 -79 -3 0 19 64 70
80 63 8 -4 25 -8 38 -9z m-783 -5 c3 -6 17 -7 30 -4 20 5 27 1 34 -19 5 -13
19 -27 30 -30 12 -3 21 -12 21 -21 0 -19 -14 -21 -29 -3 -6 8 -28 19 -49 26
-33 11 -43 11 -63 -2 -14 -9 -32 -12 -43 -8 -17 6 -16 9 9 39 27 32 49 40 60
22z m-2291 -21 c17 14 36 7 36 -14 0 -7 9 -16 19 -20 25 -8 44 -31 36 -44 -4
-7 -14 -5 -30 5 -13 9 -28 16 -32 16 -4 0 -18 5 -30 11 -15 7 -27 7 -35 0 -7
-6 -35 -14 -61 -17 -46 -7 -48 -6 -38 12 10 19 50 50 81 63 8 4 20 0 27 -9 10
-12 15 -13 27 -3z m959 12 c4 -1 6 -47 5 -103 l-3 -103 -44 -3 c-24 -2 -48 1
-53 6 -10 10 -13 187 -3 202 5 8 41 8 98 1z m562 -1 c4 -7 13 -7 26 0 16 9 21
7 29 -15 7 -18 17 -25 35 -25 20 0 25 -5 25 -25 0 -28 -12 -32 -30 -10 -7 8
-21 15 -31 15 -10 0 -21 5 -24 10 -8 13 -48 13 -62 -1 -14 -14 -34 -3 -28 16
3 8 7 22 10 30 5 17 40 20 50 5z m-2095 -9 c0 -6 -4 -13 -10 -16 -5 -3 -10 1
-10 9 0 9 5 16 10 16 6 0 10 -4 10 -9z m170 -1 c0 -5 -4 -10 -10 -10 -5 0 -10
5 -10 10 0 6 5 10 10 10 6 0 10 -4 10 -10z m660 0 c0 -5 -4 -10 -10 -10 -5 0
-10 5 -10 10 0 6 5 10 10 10 6 0 10 -4 10 -10z m422 -24 c10 -15 -3 -36 -23
-36 -17 0 -18 3 -9 21 9 15 8 24 -2 37 -12 16 -11 16 7 2 11 -8 23 -19 27 -24z
m566 -22 c9 -3 12 -23 10 -71 l-3 -68 -55 0 -55 0 -3 69 c-2 46 1 72 9 77 11
7 66 3 97 -7z m2882 -60 c20 -19 44 -34 55 -34 10 0 15 -3 12 -7 -11 -10 24
-43 46 -43 16 0 17 -3 7 -15 -14 -17 -75 -20 -85 -5 -3 6 -15 10 -26 10 -12 0
-24 11 -32 28 -6 15 -28 42 -47 60 -29 27 -32 34 -20 42 22 14 50 3 90 -36z
m-3500 26 c0 -5 -4 -10 -10 -10 -5 0 -10 5 -10 10 0 6 5 10 10 10 6 0 10 -4
10 -10z m2723 -35 c26 -24 47 -48 47 -55 0 -6 14 -16 30 -21 37 -13 38 -25 4
-32 -31 -5 -114 28 -114 46 0 7 -18 30 -40 51 -43 42 -43 56 -2 56 18 -1 44
-16 75 -45z m-789 15 c18 -10 49 -37 69 -60 21 -22 42 -40 47 -40 6 0 10 -7
10 -15 0 -17 -50 -21 -65 -6 -6 5 -21 11 -35 13 -15 2 -26 11 -28 23 -2 11
-20 34 -39 52 -53 48 -23 73 41 33z m-747 -25 c44 -38 58 -42 67 -22 3 6 4 0
1 -14 -6 -33 16 -53 49 -45 14 3 28 0 35 -8 9 -11 7 -14 -11 -15 -13 0 -39 -3
-59 -6 -26 -5 -39 -2 -48 9 -8 9 -24 16 -37 16 -15 0 -24 6 -24 16 0 8 -18 32
-40 53 -22 20 -40 40 -40 44 0 4 15 7 33 7 24 0 45 -10 74 -35z m-1553 -10
c30 -23 52 -32 63 -28 16 6 16 4 -1 -15 -28 -32 -65 -27 -114 16 -23 20 -42
43 -42 50 0 23 49 12 94 -23z m-794 15 c0 -5 5 -10 11 -10 6 0 20 -11 30 -25
12 -14 26 -22 34 -18 10 3 15 -1 15 -12 0 -25 31 -45 52 -34 11 6 19 5 23 -2
4 -6 18 -8 34 -4 l26 6 -24 -17 c-19 -14 -25 -14 -32 -3 -6 11 -11 11 -21 1
-16 -16 -90 -16 -106 0 -10 10 -17 10 -32 0 -30 -18 -46 -15 -27 6 24 26 22
34 -18 72 -19 19 -35 38 -35 42 0 4 16 8 35 8 19 0 35 -4 35 -10z m5370 -50
c0 -17 -5 -30 -12 -31 -7 0 -32 -2 -55 -4 -46 -3 -54 7 -26 37 19 22 33 23 33
4 0 -27 20 -27 32 -2 15 35 28 33 28 -4z m-5645 11 c3 -5 1 -12 -5 -16 -5 -3
-10 1 -10 9 0 18 6 21 15 7z m3325 -27 c0 -8 -4 -14 -10 -14 -5 0 -10 9 -10
21 0 11 5 17 10 14 6 -3 10 -13 10 -21z m703 6 c-8 -29 -31 -46 -45 -32 -9 9
-7 17 7 32 23 26 45 26 38 0z m783 9 c8 -13 -32 -56 -42 -46 -9 9 12 57 25 57
5 0 13 -5 17 -11z m-2306 -18 c0 -11 -10 -27 -22 -36 -21 -14 -23 -14 -26 0
-4 17 24 55 40 55 4 0 8 -9 8 -19z m50 3 c0 -8 -5 -12 -10 -9 -6 4 -8 11 -5
16 9 14 15 11 15 -7z m714 0 c6 -15 -17 -43 -36 -44 -12 0 -9 35 4 48 16 16
25 15 32 -4z m-3084 -17 c0 -23 -34 -52 -50 -42 -16 10 -12 26 13 46 29 24 37
24 37 -4z m5146 5 c-7 -7 -20 -10 -29 -6 -27 10 -20 21 13 20 24 -1 27 -3 16
-14z m-5088 -13 c-2 -12 -13 -25 -24 -30 -20 -7 -21 -6 -11 22 13 34 40 40 35
8z m2812 1 c0 -5 -7 -7 -15 -4 -8 4 -15 8 -15 10 0 2 7 4 15 4 8 0 15 -4 15
-10z m-3025 -10 c3 -5 -1 -10 -10 -10 -9 0 -13 5 -10 10 3 6 8 10 10 10 2 0 7
-4 10 -10z m615 -15 c-7 -9 -15 -13 -19 -10 -3 3 1 10 9 15 21 14 24 12 10 -5z
m60 0 c-7 -9 -15 -13 -17 -11 -7 7 7 26 19 26 6 0 6 -6 -2 -15z m4740 -5 c0
-5 -7 -10 -16 -10 -8 0 -12 5 -9 10 3 6 10 10 16 10 5 0 9 -4 9 -10z m-253
-22 c18 -7 33 -17 33 -23 0 -6 20 -30 45 -54 34 -32 51 -42 67 -38 13 4 32 -2
49 -14 15 -10 32 -19 38 -19 6 0 11 -4 11 -9 0 -14 -50 -20 -84 -10 -17 5 -38
7 -46 4 -19 -6 -91 27 -110 49 -18 22 -22 20 -48 -18 -13 -19 -36 -40 -53 -46
-16 -7 -29 -15 -28 -19 2 -19 38 -67 57 -76 12 -5 22 -17 22 -26 0 -24 23 -39
49 -32 17 4 23 1 28 -16 4 -16 13 -21 39 -21 36 0 53 -14 28 -24 -25 -10 -42
-7 -58 9 -12 13 -20 14 -37 5 -19 -10 -26 -7 -59 29 -26 28 -44 39 -55 35 -10
-4 -27 4 -46 22 -16 15 -29 23 -29 16 0 -6 5 -14 10 -17 22 -14 9 -27 -20 -21
-23 4 -30 2 -30 -10 0 -23 -29 -28 -50 -9 -27 25 -25 34 18 78 l37 38 -22 19
c-13 10 -23 23 -23 29 0 17 66 13 80 -4 20 -24 33 -18 81 33 55 56 62 74 47
108 -10 21 -9 27 3 35 18 11 16 11 56 -3z m-1517 -33 c0 -6 18 -30 40 -54 31
-33 46 -42 62 -38 23 7 58 -8 71 -29 4 -8 15 -14 22 -14 8 0 15 -5 15 -11 0
-12 -38 -9 -149 11 -37 7 -66 8 -70 3 -3 -5 -26 -9 -51 -8 -25 1 -56 -6 -70
-14 -14 -8 -26 -16 -28 -16 -1 -1 5 -15 13 -32 16 -32 44 -62 59 -62 5 0 14
-10 20 -23 8 -15 21 -23 36 -23 34 0 41 -40 8 -48 -17 -5 -31 2 -58 28 -20 19
-44 35 -54 35 -10 0 -29 9 -43 20 -28 22 -55 28 -35 8 19 -19 14 -28 -13 -28
-14 0 -25 5 -25 10 0 6 -5 10 -11 10 -6 0 -8 -8 -4 -19 8 -27 -13 -36 -36 -15
-26 23 -25 29 16 71 l35 36 -25 27 c-14 14 -22 29 -18 33 12 13 60 7 73 -8 18
-22 26 -19 79 30 56 52 69 86 47 120 -15 23 -15 24 17 27 35 3 77 -11 77 -27z
m744 23 c11 -3 22 -11 24 -18 3 -8 24 -34 48 -58 38 -38 46 -42 64 -32 22 12
40 4 68 -30 7 -8 17 -15 22 -15 6 0 11 -4 13 -10 4 -17 -70 -17 -95 -1 -14 9
-29 12 -37 7 -7 -5 -26 -4 -42 3 -22 8 -34 7 -49 -2 -21 -13 -27 -3 -9 15 7 7
3 15 -15 26 -29 19 -44 6 -20 -18 15 -15 15 -16 -8 -10 -16 4 -32 -1 -50 -14
-14 -12 -33 -21 -42 -21 -21 0 -20 -7 7 -55 18 -30 29 -39 46 -38 12 2 20 0
18 -5 -3 -4 -1 -17 4 -30 7 -18 15 -23 36 -20 21 2 30 -3 38 -19 7 -17 18 -23
42 -23 18 0 33 -4 33 -10 0 -14 -57 -13 -66 1 -4 6 -19 9 -36 5 -25 -5 -36 0
-66 30 -34 34 -40 36 -108 38 -63 1 -70 -1 -66 -16 5 -22 -15 -23 -52 -5 l-26
14 45 49 45 48 -28 22 c-21 18 -24 25 -15 35 10 10 21 9 53 -4 50 -19 58 -17
115 40 33 32 45 52 45 73 0 16 -4 32 -10 35 -5 3 -10 11 -10 17 0 9 28 8 84
-4z m-4376 -10 c18 -18 14 -30 -6 -19 -13 7 -23 6 -30 -1 -7 -7 -12 -8 -12 -2
0 11 20 34 30 34 3 0 11 -5 18 -12z m2517 3 c3 -5 1 -12 -5 -16 -5 -3 -10 1
-10 9 0 18 6 21 15 7z m328 -3 c15 -7 27 -18 27 -23 0 -6 19 -29 43 -52 32
-31 50 -40 74 -40 18 0 41 -7 51 -16 10 -9 24 -17 30 -17 7 0 12 -6 12 -14 0
-11 -11 -14 -47 -10 -27 2 -60 5 -75 7 -14 1 -30 5 -34 10 -4 4 -16 7 -28 7
-11 0 -30 10 -42 21 -16 15 -29 19 -41 14 -17 -8 -17 -8 0 -12 30 -8 19 -20
-30 -34 -27 -7 -54 -15 -60 -17 -23 -6 -14 15 22 49 27 27 35 42 35 71 0 20
-5 40 -10 43 -16 10 -1 25 24 25 12 0 34 -6 49 -12z m-2703 -18 c0 -5 -4 -10
-10 -10 -5 0 -10 5 -10 10 0 6 5 10 10 10 6 0 10 -4 10 -10z m230 0 c0 -5 -4
-10 -10 -10 -5 0 -10 5 -10 10 0 6 5 10 10 10 6 0 10 -4 10 -10z m153 -2 c4
-10 7 -10 18 0 20 19 30 14 24 -10 -7 -34 55 -98 95 -98 25 0 30 -4 30 -23 0
-30 -10 -40 -27 -26 -9 9 -17 8 -27 0 -11 -9 -19 -9 -35 1 -17 10 -25 10 -41
0 -26 -16 -33 -15 -26 4 11 30 -6 35 -31 10 -14 -14 -30 -23 -36 -19 -8 5 -7
8 1 11 7 2 12 8 12 14 0 6 -8 4 -18 -5 -9 -8 -29 -20 -45 -26 -15 -6 -27 -16
-27 -23 0 -23 40 -80 60 -85 10 -3 21 -15 24 -28 7 -26 33 -40 50 -26 14 12
30 3 39 -21 4 -12 17 -18 37 -18 16 0 30 -4 30 -10 0 -14 -56 -12 -80 3 -17
10 -22 9 -29 -2 -7 -11 -17 -7 -50 19 -23 18 -41 37 -41 42 0 4 -11 8 -25 8
-14 0 -25 5 -25 10 0 6 -7 10 -15 10 -8 0 -15 -4 -15 -10 0 -5 -8 -10 -18 -10
-10 0 -28 -7 -40 -16 -26 -18 -70 -12 -78 10 -3 8 13 32 38 55 l43 41 -30 25
c-16 13 -26 27 -22 31 13 13 61 11 82 -3 29 -19 50 -16 64 11 7 13 26 34 42
45 22 17 29 30 29 56 0 18 -4 37 -10 40 -22 13 -8 25 29 25 22 0 41 -5 44 -12z
m-483 -58 c0 -5 -4 -10 -10 -10 -5 0 -10 5 -10 10 0 6 5 10 10 10 6 0 10 -4
10 -10z m240 0 c0 -5 -4 -10 -10 -10 -5 0 -10 5 -10 10 0 6 5 10 10 10 6 0 10
-4 10 -10z m60 0 c0 -5 -4 -10 -10 -10 -5 0 -10 5 -10 10 0 6 5 10 10 10 6 0
10 -4 10 -10z m4800 -50 c0 -5 -4 -10 -10 -10 -5 0 -10 5 -10 10 0 6 5 10 10
10 6 0 10 -4 10 -10z m-2475 -53 c27 -10 45 -25 55 -46 15 -30 60 -70 60 -54
1 4 7 -7 15 -26 13 -29 18 -32 41 -27 20 5 27 3 31 -14 4 -15 14 -20 39 -20
24 0 34 -5 34 -15 0 -12 -6 -14 -27 -8 -16 4 -43 8 -61 7 -25 0 -44 9 -75 38
-23 21 -50 38 -59 38 -9 0 -20 5 -23 10 -10 15 -35 12 -35 -5 0 -8 -5 -15 -11
-15 -6 0 -27 -8 -47 -17 -26 -12 -37 -14 -40 -5 -2 7 -10 12 -18 12 -26 0 -14
29 26 61 46 37 50 55 15 71 -26 12 -30 19 -18 32 9 9 44 3 98 -17z m-2629 -14
c-10 -10 -19 5 -10 18 6 11 8 11 12 0 2 -7 1 -15 -2 -18z m-76 -43 c0 -5 -4
-10 -10 -10 -5 0 -10 5 -10 10 0 6 5 10 10 10 6 0 10 -4 10 -10z m60 0 c0 -5
-4 -10 -10 -10 -5 0 -10 5 -10 10 0 6 5 10 10 10 6 0 10 -4 10 -10z m120 0 c0
-5 -4 -10 -10 -10 -5 0 -10 5 -10 10 0 6 5 10 10 10 6 0 10 -4 10 -10z m858
-48 c6 -18 -15 -14 -22 4 -4 10 -1 14 6 12 6 -2 14 -10 16 -16z m-124 -43 c11
-16 21 -20 40 -15 32 8 33 0 4 -24 -20 -16 -21 -22 -11 -39 9 -14 9 -22 2 -27
-6 -3 -8 -17 -4 -31 9 -38 -24 -26 -48 17 -10 19 -13 29 -6 23 7 -7 17 -13 21
-13 13 0 9 20 -7 37 -12 12 -19 12 -30 3 -20 -17 -35 -4 -35 30 0 41 19 48 45
17 11 -15 24 -27 28 -27 15 0 6 26 -13 40 -21 15 -26 30 -11 30 6 0 17 -10 25
-21z m4466 -29 c0 -5 -7 -10 -15 -10 -8 0 -15 5 -15 10 0 6 7 10 15 10 8 0 15
-4 15 -10z m-785 -10 c-3 -5 -10 -10 -16 -10 -5 0 -9 5 -9 10 0 6 7 10 16 10
8 0 12 -4 9 -10z m-1525 -10 c0 -5 -9 -10 -20 -10 -11 0 -20 5 -20 10 0 6 9
10 20 10 11 0 20 -4 20 -10z m670 0 c0 -5 -11 -10 -24 -10 -14 0 -28 5 -31 10
-4 6 7 10 24 10 17 0 31 -4 31 -10z m80 0 c0 -5 -4 -10 -9 -10 -6 0 -13 5 -16
10 -3 6 1 10 9 10 9 0 16 -4 16 -10z m853 -42 c18 1 27 -4 27 -14 0 -9 13 -21
29 -27 16 -6 32 -19 34 -29 6 -22 -6 -23 -38 -2 -14 9 -25 13 -25 10 0 -4 -11
1 -25 10 -22 14 -27 14 -56 0 -53 -27 -87 -19 -68 15 13 25 60 50 79 42 8 -3
27 -6 43 -5z m805 -11 c2 -8 16 -20 32 -27 16 -7 30 -21 32 -35 l5 -23 -55 30
c-55 29 -64 30 -129 10 -43 -14 -49 -1 -17 37 24 29 30 31 77 27 36 -3 53 -9
55 -19z m-2312 -19 c3 -10 16 -21 30 -24 15 -4 24 -13 24 -25 0 -23 0 -23 -36
-4 -39 20 -95 30 -103 18 -3 -6 -21 -14 -38 -18 -27 -5 -33 -3 -33 10 0 9 11
27 25 39 33 30 122 32 131 4z m761 6 c3 -8 16 -20 29 -25 13 -4 24 -15 24 -24
0 -19 -3 -19 -52 5 -46 22 -74 25 -83 10 -3 -5 -19 -10 -36 -10 -24 0 -29 4
-29 24 0 30 10 34 83 35 44 1 59 -3 64 -15z m-1532 -13 c3 -11 16 -23 28 -27
33 -10 51 -44 24 -44 -18 0 -94 38 -102 50 -8 13 13 40 31 40 7 0 15 -9 19
-19z m-2095 -1 c0 -5 -4 -10 -10 -10 -5 0 -10 5 -10 10 0 6 5 10 10 10 6 0 10
-4 10 -10z m430 -30 c0 -11 -7 -23 -15 -27 -21 -7 -25 -2 -18 25 7 28 33 29
33 2z m300 -2 c15 -14 19 -23 11 -26 -7 -2 -18 4 -26 14 -11 15 -16 17 -26 7
-16 -16 -29 -17 -29 -3 0 6 7 10 15 10 8 0 15 5 15 10 0 16 14 12 40 -12z
m150 12 c0 -5 -4 -10 -10 -10 -5 0 -10 -7 -10 -15 0 -21 7 -19 34 10 23 25 46
33 46 16 0 -5 -6 -11 -12 -14 -10 -3 -10 -9 -2 -24 11 -17 9 -19 -25 -18 -20
1 -44 6 -55 11 -16 10 -16 14 -5 32 14 23 39 30 39 12z m-80 -30 c0 -5 -4 -10
-10 -10 -5 0 -10 5 -10 10 0 6 5 10 10 10 6 0 10 -4 10 -10z m3833 -38 c35
-34 34 -42 -6 -42 -42 0 -102 55 -77 70 20 13 50 3 83 -28z m-2305 -28 c21
-19 45 -34 56 -34 16 0 17 -2 5 -16 -24 -29 -95 -13 -135 30 -37 39 -41 52
-21 59 23 9 59 -6 95 -39z m769 10 c24 -26 40 -35 54 -31 15 4 19 2 15 -9 -10
-27 5 -44 40 -44 44 0 43 -13 -1 -29 -31 -11 -43 -10 -85 5 -28 10 -50 24 -50
32 0 8 -18 31 -40 52 -22 21 -40 43 -40 49 0 6 16 11 36 11 29 0 44 -8 71 -36z
m733 26 c11 -6 31 -22 44 -35 14 -14 30 -25 36 -25 5 0 10 -5 10 -11 0 -6 10
-19 23 -30 19 -16 20 -20 7 -28 -16 -11 -58 -5 -74 10 -6 5 -18 9 -28 9 -10 0
-18 7 -18 17 0 10 -19 37 -42 60 l-42 43 33 0 c18 0 41 -5 51 -10z m-3822 -51
c26 -22 48 -36 50 -30 2 6 8 11 14 11 5 0 7 -9 3 -19 -4 -13 2 -25 20 -39 14
-11 25 -25 25 -31 0 -14 -77 -15 -85 -1 -8 13 -48 13 -62 -1 -8 -8 -17 -7 -32
3 -18 11 -23 11 -31 -1 -7 -13 -11 -13 -25 -1 -14 12 -18 12 -26 -1 -8 -12
-10 -12 -18 0 -6 9 -6 22 -1 31 11 20 39 45 41 36 1 -3 3 -10 4 -16 1 -5 3
-14 4 -20 2 -18 31 -11 31 8 0 10 6 24 12 30 9 9 10 15 2 20 -11 7 -34 45 -34
56 0 3 14 6 31 6 22 0 44 -12 77 -41z m52 31 c0 -5 -4 -10 -10 -10 -5 0 -10 5
-10 10 0 6 5 10 10 10 6 0 10 -4 10 -10z m2188 -52 c19 -19 14 -30 -8 -18 -11
6 -20 15 -20 20 0 14 14 12 28 -2z m-2548 -14 c0 -8 -5 -12 -10 -9 -6 4 -8 11
-5 16 9 14 15 11 15 -7z m60 6 c0 -5 -4 -10 -10 -10 -5 0 -10 5 -10 10 0 6 5
10 10 10 6 0 10 -4 10 -10z m60 0 c0 -5 -4 -10 -10 -10 -5 0 -10 5 -10 10 0 6
5 10 10 10 6 0 10 -4 10 -10z m3920 -12 c0 -11 -29 -37 -42 -38 -14 0 -9 23 8
41 17 19 34 17 34 -3z m-756 -5 c3 -10 8 -23 11 -29 6 -13 -48 -14 -61 -1 -7
7 23 47 36 47 4 0 10 -8 14 -17z m54 -6 c2 -10 -3 -17 -12 -17 -10 0 -16 9
-16 21 0 24 23 21 28 -4z m752 8 c0 -8 -4 -15 -10 -15 -5 0 -10 7 -10 15 0 8
5 15 10 15 6 0 10 -7 10 -15z m-336 -14 c3 -5 16 -7 29 -4 12 3 19 2 15 -2
-10 -10 -78 -15 -78 -6 0 19 25 28 34 12z m551 -2 c11 -17 0 -20 -21 -4 -17
13 -17 14 -2 15 9 0 20 -5 23 -11z m-650 -9 c8 -13 -5 -13 -25 0 -13 8 -13 10
2 10 9 0 20 -4 23 -10z m725 0 c0 -5 -4 -10 -10 -10 -5 0 -10 5 -10 10 0 6 5
10 10 10 6 0 10 -4 10 -10z m-4349 -23 c-13 -13 -26 -3 -16 12 3 6 11 8 17 5
6 -4 6 -10 -1 -17z m443 -19 c-3 -5 -14 -2 -25 8 -27 25 -23 37 6 18 14 -9 22
-20 19 -26z m-374 2 c0 -5 -4 -10 -10 -10 -5 0 -10 5 -10 10 0 6 5 10 10 10 6
0 10 -4 10 -10z m3547 -22 c18 -7 33 -17 33 -23 0 -6 20 -30 45 -54 32 -31 50
-41 64 -36 11 3 22 1 26 -5 4 -6 15 -8 26 -5 14 5 17 2 13 -9 -4 -10 2 -15 17
-18 12 -2 24 -9 27 -16 3 -11 -8 -13 -54 -8 -33 3 -70 6 -83 6 -13 0 -30 5
-37 11 -7 6 -18 8 -24 4 -5 -3 -21 6 -34 22 -26 30 -44 27 -28 -4 8 -15 6 -21
-14 -30 -14 -6 -26 -7 -30 -2 -4 7 -54 -11 -72 -26 -1 -1 5 -16 14 -33 16 -33
52 -64 64 -57 4 3 10 -9 14 -26 5 -27 9 -30 31 -25 21 5 27 2 35 -19 7 -19 17
-25 42 -26 31 0 32 -1 9 -10 -16 -6 -28 -6 -37 2 -8 6 -25 8 -38 5 -20 -5 -32
1 -59 29 -19 19 -43 35 -54 35 -12 0 -23 7 -27 15 -6 17 -36 21 -36 5 0 -6
-10 -15 -22 -20 -13 -6 -31 -16 -40 -22 -13 -10 -23 -10 -35 -2 -31 19 -27 45
12 80 l37 33 -27 27 c-21 21 -24 29 -13 35 18 12 29 11 62 -6 32 -17 66 -20
66 -5 0 5 18 26 40 46 31 29 40 45 40 69 0 18 -7 38 -15 45 -33 27 5 38 62 18z
m786 0 c9 -1 17 -9 17 -17 0 -20 78 -85 109 -91 17 -3 27 -13 29 -28 3 -19 -1
-22 -25 -20 -16 1 -34 -1 -40 -5 -6 -4 -14 -3 -18 3 -9 14 -48 13 -63 -2 -8
-8 -15 -9 -20 -3 -4 6 -17 16 -30 23 -20 11 -26 9 -50 -13 -15 -14 -32 -25
-39 -25 -16 0 -16 -8 -2 -49 11 -32 42 -57 58 -47 5 3 11 -8 15 -25 5 -28 9
-31 34 -26 22 5 30 1 37 -16 7 -16 20 -23 48 -25 20 -2 37 -7 37 -12 0 -15
-26 -18 -63 -5 -21 7 -40 9 -43 4 -10 -18 -31 -8 -70 31 -38 39 -67 50 -79 30
-10 -16 -25 -1 -19 18 4 10 3 13 -3 6 -14 -18 -45 -25 -59 -13 -11 9 -14 7
-14 -10 0 -23 -20 -27 -51 -11 -29 16 -23 35 23 73 l42 35 -29 26 c-24 23 -27
29 -15 36 20 13 23 13 71 -6 l40 -17 50 49 c39 38 49 55 49 81 0 17 -4 35 -10
38 -24 15 -8 27 28 21 20 -4 45 -7 55 -8z m-4380 -12 c17 -14 23 -36 9 -36 -4
0 -13 5 -20 12 -9 9 -15 9 -24 0 -16 -16 -28 -15 -28 3 0 7 8 19 18 24 22 13
23 13 45 -3z m519 -17 c16 -9 23 -8 29 2 9 14 11 10 13 -22 1 -9 18 -35 40
-59 33 -37 41 -41 57 -32 27 17 29 16 29 -22 0 -33 -1 -34 -37 -32 -60 5 -96
17 -122 43 -13 13 -26 21 -29 18 -3 -3 0 -11 6 -17 16 -16 15 -28 -3 -28 -8 0
-15 -7 -15 -16 0 -9 -6 -14 -12 -11 -7 2 -12 9 -11 15 3 12 -35 4 -43 -9 -3
-5 -14 -9 -25 -9 -10 0 -19 -2 -19 -5 0 -16 54 -88 68 -92 10 -2 25 -18 35
-35 14 -25 22 -29 42 -24 20 5 25 3 25 -12 0 -10 -10 -23 -23 -29 -19 -9 -29
-5 -67 28 -25 22 -52 39 -61 39 -8 0 -20 5 -27 12 -9 9 -15 9 -24 -3 -7 -9
-32 -22 -55 -29 -34 -10 -45 -11 -58 0 -22 18 -19 30 21 71 l36 37 -26 23
c-14 12 -26 26 -26 31 0 12 78 10 85 -2 13 -21 42 -8 93 41 52 51 59 73 31
104 -29 31 26 49 73 24z m-297 -48 c3 -5 1 -12 -5 -16 -5 -3 -10 1 -10 9 0 18
6 21 15 7z m425 -1 c0 -5 -4 -10 -10 -10 -5 0 -10 5 -10 10 0 6 5 10 10 10 6
0 10 -4 10 -10z m-660 -10 c0 -5 -4 -10 -10 -10 -5 0 -10 5 -10 10 0 6 5 10
10 10 6 0 10 -4 10 -10z m60 0 c0 -5 -4 -10 -10 -10 -5 0 -10 5 -10 10 0 6 5
10 10 10 6 0 10 -4 10 -10z m500 -100 c0 -5 -4 -10 -10 -10 -5 0 -10 5 -10 10
0 6 5 10 10 10 6 0 10 -4 10 -10z m-500 -10 c0 -5 -4 -10 -10 -10 -5 0 -10 5
-10 10 0 6 5 10 10 10 6 0 10 -4 10 -10z m150 -60 c0 -5 -4 -10 -10 -10 -5 0
-10 5 -10 10 0 6 5 10 10 10 6 0 10 -4 10 -10z m-230 -100 c0 -5 -7 -10 -16
-10 -8 0 -12 5 -9 10 3 6 10 10 16 10 5 0 9 -4 9 -10z m3813 -27 c-7 -2 -19
-2 -25 0 -7 3 -2 5 12 5 14 0 19 -2 13 -5z m-3793 -33 c0 -5 -4 -10 -10 -10
-5 0 -10 5 -10 10 0 6 5 10 10 10 6 0 10 -4 10 -10z m60 0 c0 -5 -4 -10 -10
-10 -5 0 -10 5 -10 10 0 6 5 10 10 10 6 0 10 -4 10 -10z m570 6 c0 -8 -51 -13
-56 -5 -3 5 9 9 25 9 17 0 31 -2 31 -4z m3205 -26 c3 -5 19 -7 35 -4 24 5 29
3 32 -17 2 -16 11 -25 26 -27 12 -2 22 -10 22 -18 0 -16 -13 -18 -38 -5 -64
32 -69 33 -100 17 -34 -17 -82 -21 -82 -7 0 5 14 23 31 40 30 31 62 40 74 21z
m707 -20 c23 -21 18 -35 -17 -42 -11 -2 -19 -11 -19 -20 1 -10 -5 -14 -17 -11
-18 5 -17 7 7 30 17 16 24 31 21 43 -6 25 -2 25 25 0z m-1399 -10 c3 -11 13
-20 24 -20 11 -1 24 -14 34 -35 19 -41 16 -43 -25 -12 -17 13 -39 26 -48 30
-25 9 -23 57 3 57 3 0 9 -9 12 -20z m-2440 -34 c7 -18 -1 -26 -25 -26 -20 0
-21 1 -12 24 8 20 30 21 37 2z m3027 -30 c14 -18 14 -19 -8 -7 -12 7 -20 17
-16 22 3 6 7 9 8 7 1 -2 8 -12 16 -22z m385 -27 c40 -36 38 -49 -9 -49 -31 0
-86 39 -86 60 0 31 53 25 95 -11z m-3482 4 c-7 -3 -13 -11 -13 -19 0 -8 -4
-14 -10 -14 -15 0 -12 11 7 32 9 10 19 15 22 12 3 -4 0 -9 -6 -11z m2726 -15
c38 -41 39 -48 1 -48 -38 0 -73 16 -88 41 -31 50 42 55 87 7z m-3078 -40 c37
-38 43 -40 54 -25 6 9 15 14 18 10 4 -3 2 -12 -4 -20 -18 -21 9 -46 41 -39 15
3 32 0 39 -7 18 -18 13 -29 -10 -22 -12 4 -32 2 -44 -5 -19 -10 -29 -9 -56 4
-17 9 -42 16 -54 16 -18 0 -21 4 -17 25 3 18 0 25 -12 25 -9 0 -16 5 -16 11 0
6 -11 20 -25 31 -34 27 -31 38 10 38 27 0 43 -9 76 -42z m389 32 c0 -5 -4 -10
-10 -10 -5 0 -10 5 -10 10 0 6 5 10 10 10 6 0 10 -4 10 -10z m-30 -50 c0 -5
-4 -10 -10 -10 -5 0 -10 5 -10 10 0 6 5 10 10 10 6 0 10 -4 10 -10z m-660 -10
c0 -5 -4 -10 -10 -10 -5 0 -10 5 -10 10 0 6 5 10 10 10 6 0 10 -4 10 -10z m60
0 c0 -5 -4 -10 -10 -10 -5 0 -10 5 -10 10 0 6 5 10 10 10 6 0 10 -4 10 -10z
m140 0 c0 -5 -4 -10 -10 -10 -5 0 -10 -9 -10 -20 0 -27 26 -26 33 1 6 22 27
18 27 -5 0 -24 -32 -41 -77 -42 -52 -2 -54 10 -11 53 34 33 48 40 48 23z m509
-61 c-25 -16 -32 -9 -13 12 12 13 20 16 22 9 3 -7 -2 -16 -9 -21z m-209 11 c0
-5 -4 -10 -10 -10 -5 0 -10 5 -10 10 0 6 5 10 10 10 6 0 10 -4 10 -10z m160 7
c0 -2 -10 -12 -21 -23 -22 -19 -22 -19 -8 4 12 19 29 30 29 19z m-80 -27 c0
-5 -4 -10 -10 -10 -5 0 -10 5 -10 10 0 6 5 10 10 10 6 0 10 -4 10 -10z m3656
-46 c13 -14 24 -29 24 -33 0 -13 -47 -41 -68 -41 -27 0 -72 38 -72 61 0 15 7
19 34 19 19 0 38 5 41 10 9 15 15 13 41 -16z m-4183 -1 c4 -3 5 -8 2 -13 -3
-6 -14 -4 -26 3 -16 10 -21 9 -29 -3 -5 -8 -10 -10 -10 -4 0 27 29 35 63 17z
m508 -9 c9 -11 15 -11 25 -3 11 9 14 7 14 -9 0 -12 18 -39 40 -62 32 -32 45
-39 64 -34 19 4 26 1 31 -16 9 -28 -12 -53 -33 -41 -10 6 -23 6 -34 0 -20 -11
-46 1 -90 40 -26 23 -29 24 -47 7 -12 -11 -17 -25 -13 -39 5 -19 3 -20 -10 -9
-13 10 -22 9 -49 -5 -19 -10 -35 -19 -37 -20 -10 -4 53 -86 69 -90 10 -3 21
-14 24 -24 6 -19 11 -21 55 -23 18 -1 26 -7 28 -24 3 -17 8 -21 25 -17 12 3
29 1 37 -5 13 -9 13 -11 0 -20 -22 -14 -46 -12 -60 5 -15 18 -37 20 -42 3 -3
-7 -22 5 -48 30 -24 23 -53 42 -63 42 -11 0 -26 8 -33 18 -12 16 -13 16 -20
-2 -4 -11 -2 -22 7 -28 11 -8 10 -9 -4 -4 -10 3 -32 6 -48 6 -19 0 -29 5 -29
15 0 8 -4 15 -10 15 -5 0 -10 -4 -10 -9 0 -6 5 -13 10 -16 16 -10 11 -25 -8
-25 -11 0 -27 9 -38 21 -18 20 -18 21 25 62 l43 41 -26 22 c-14 13 -26 26 -26
29 0 3 18 5 40 5 22 0 40 -4 40 -10 0 -23 44 -7 86 32 58 54 69 80 49 121 -8
16 -15 31 -15 33 0 9 72 -1 81 -12z m159 6 c0 -5 -4 -10 -10 -10 -5 0 -10 5
-10 10 0 6 5 10 10 10 6 0 10 -4 10 -10z m-460 -66 c0 -8 -5 -12 -10 -9 -6 4
-8 11 -5 16 9 14 15 11 15 -7z m120 7 c0 -6 -4 -13 -10 -16 -5 -3 -10 1 -10 9
0 9 5 16 10 16 6 0 10 -4 10 -9z m320 -1 c0 -5 -7 -10 -15 -10 -8 0 -15 5 -15
10 0 6 7 10 15 10 8 0 15 -4 15 -10z m-580 -60 c0 -5 -4 -10 -10 -10 -5 0 -10
5 -10 10 0 6 5 10 10 10 6 0 10 -4 10 -10z m300 0 c0 -5 -7 -10 -15 -10 -8 0
-15 5 -15 10 0 6 7 10 15 10 8 0 15 -4 15 -10z m-420 -110 c0 -5 -4 -10 -10
-10 -5 0 -10 5 -10 10 0 6 5 10 10 10 6 0 10 -4 10 -10z m60 0 c0 -5 -4 -10
-10 -10 -5 0 -10 5 -10 10 0 6 5 10 10 10 6 0 10 -4 10 -10z m4018 -27 c-4
-22 -38 -30 -38 -10 0 14 13 24 33 26 5 1 7 -7 5 -16z m-3928 -23 c0 -5 -4
-10 -10 -10 -5 0 -10 5 -10 10 0 6 5 10 10 10 6 0 10 -4 10 -10z m60 0 c0 -5
-4 -10 -10 -10 -5 0 -10 5 -10 10 0 6 5 10 10 10 6 0 10 -4 10 -10z m-150 -60
c0 -5 -4 -10 -10 -10 -5 0 -10 5 -10 10 0 6 5 10 10 10 6 0 10 -4 10 -10z m60
0 c0 -5 -4 -10 -10 -10 -5 0 -10 5 -10 10 0 6 5 10 10 10 6 0 10 -4 10 -10z
m580 0 c0 -5 -4 -10 -10 -10 -5 0 -10 5 -10 10 0 6 5 10 10 10 6 0 10 -4 10
-10z m-546 -61 c-3 -5 -10 -7 -15 -3 -5 3 -7 10 -3 15 3 5 10 7 15 3 5 -3 7
-10 3 -15z m226 5 c0 -8 -5 -12 -10 -9 -6 4 -8 11 -5 16 9 14 15 11 15 -7z
m354 -80 c9 -22 -1 -34 -30 -34 -26 0 -31 -9 -12 -28 6 -6 8 -15 3 -19 -4 -5
-10 -2 -12 5 -3 6 -13 12 -24 12 -27 0 -24 15 9 35 15 10 31 24 35 32 11 18
24 17 31 -3z m-524 -24 c0 -5 -4 -10 -10 -10 -5 0 -10 5 -10 10 0 6 5 10 10
10 6 0 10 -4 10 -10z m350 0 c0 -5 -4 -10 -10 -10 -5 0 -10 5 -10 10 0 6 5 10
10 10 6 0 10 -4 10 -10z m-248 -86 c29 -26 43 -33 51 -25 18 18 28 13 22 -12
-7 -25 13 -50 37 -47 22 3 58 -12 52 -22 -3 -5 -13 -6 -23 -3 -9 2 -31 1 -49
-4 -26 -8 -41 -5 -77 12 -25 12 -45 28 -45 35 0 7 -18 29 -40 49 -22 21 -40
41 -40 45 0 4 16 8 36 8 28 0 46 -9 76 -36z m108 26 c0 -5 -4 -10 -10 -10 -5
0 -10 5 -10 10 0 6 5 10 10 10 6 0 10 -4 10 -10z m80 -46 c0 -8 -5 -12 -10 -9
-6 4 -8 11 -5 16 9 14 15 11 15 -7z m60 -5 c0 -5 -4 -9 -10 -9 -5 0 -10 7 -10
16 0 8 5 12 10 9 6 -3 10 -10 10 -16z m180 12 c0 -6 -4 -13 -10 -16 -5 -3 -10
1 -10 9 0 9 5 16 10 16 6 0 10 -4 10 -9z m-610 -15 c0 -11 -19 -15 -25 -6 -3
5 1 10 9 10 9 0 16 -2 16 -4z m110 -42 c0 -14 -4 -23 -10 -19 -5 3 -10 15 -10
26 0 10 5 19 10 19 6 0 10 -12 10 -26z m-52 -7 c2 -10 -3 -17 -11 -17 -9 0
-17 -6 -20 -12 -4 -10 -7 -10 -18 -1 -10 10 -9 16 6 33 21 23 38 22 43 -3z
m518 -2 c31 23 39 17 14 -10 -16 -17 -27 -22 -35 -15 -7 6 -20 8 -29 4 -19 -7
-21 7 -4 24 10 10 15 10 24 -2 9 -14 13 -14 30 -1z m-135 -5 c10 -6 19 -15 19
-20 0 -15 -28 -12 -33 3 -3 9 -7 9 -19 -1 -10 -8 -19 -9 -22 -3 -4 5 2 14 11
20 22 13 21 13 44 1z m-471 -24 c0 -11 -19 -15 -25 -6 -3 5 1 10 9 10 9 0 16
-2 16 -4z m466 -47 c3 -6 15 -9 25 -6 13 4 19 0 19 -13 0 -10 18 -36 41 -59
33 -32 46 -40 65 -35 21 6 24 3 24 -25 l0 -31 -67 5 c-41 3 -71 1 -80 -6 -9
-9 -13 -9 -13 0 0 6 5 11 10 11 6 0 10 7 10 15 0 22 -15 18 -46 -10 -19 -17
-31 -22 -42 -16 -10 6 -25 3 -41 -7 -14 -9 -27 -17 -29 -18 -5 -3 21 -58 36
-76 12 -14 19 -15 35 -7 17 10 19 9 13 -6 -10 -26 21 -56 50 -49 19 5 24 2 24
-14 0 -17 7 -21 38 -24 25 -2 37 -8 37 -18 0 -17 -51 -15 -72 2 -9 7 -18 7
-28 -2 -17 -14 -39 0 -78 48 -11 13 -30 22 -47 22 -16 0 -31 6 -34 13 -3 8 -8
7 -16 -6 -6 -9 -15 -15 -21 -12 -5 4 -22 -2 -38 -11 -28 -16 -31 -16 -55 0
-14 9 -26 21 -26 25 0 5 18 25 40 44 47 40 49 53 15 69 -14 6 -24 16 -22 22 6
18 54 18 89 0 l32 -17 48 53 c37 41 48 62 48 86 0 18 -6 36 -12 41 -11 7 6 14
54 22 4 0 10 -4 14 -10z m-531 -58 c3 -5 1 -12 -5 -16 -5 -3 -10 1 -10 9 0 18
6 21 15 7z m65 -1 c0 -5 -4 -10 -10 -10 -5 0 -10 5 -10 10 0 6 5 10 10 10 6 0
10 -4 10 -10z m60 0 c0 -5 -4 -10 -10 -10 -5 0 -10 5 -10 10 0 6 5 10 10 10 6
0 10 -4 10 -10z m-90 -60 c0 -5 -4 -10 -10 -10 -5 0 -10 5 -10 10 0 6 5 10 10
10 6 0 10 -4 10 -10z m30 -60 c0 -5 -4 -10 -10 -10 -5 0 -10 5 -10 10 0 6 5
10 10 10 6 0 10 -4 10 -10z m-34 -57 c-10 -10 -19 5 -10 18 6 11 8 11 12 0 2
-7 1 -15 -2 -18z m439 17 c3 -5 -1 -10 -9 -10 -9 0 -16 5 -16 10 0 6 4 10 9
10 6 0 13 -4 16 -10z m55 -6 c0 -8 -4 -12 -10 -9 -5 3 -10 10 -10 16 0 5 5 9
10 9 6 0 10 -7 10 -16z m-520 -54 c0 -5 -4 -10 -10 -10 -5 0 -10 5 -10 10 0 6
5 10 10 10 6 0 10 -4 10 -10z m60 0 c0 -5 -4 -10 -10 -10 -5 0 -10 5 -10 10 0
6 5 10 10 10 6 0 10 -4 10 -10z m-30 -60 c0 -5 -4 -10 -10 -10 -5 0 -10 5 -10
10 0 6 5 10 10 10 6 0 10 -4 10 -10z m350 0 c0 -5 -4 -10 -10 -10 -5 0 -10 5
-10 10 0 6 5 10 10 10 6 0 10 -4 10 -10z m60 -20 c0 -5 -4 -10 -10 -10 -5 0
-10 5 -10 10 0 6 5 10 10 10 6 0 10 -4 10 -10z m260 -30 c0 -5 -4 -10 -10 -10
-5 0 -10 5 -10 10 0 6 5 10 10 10 6 0 10 -4 10 -10z m-140 -50 c0 -5 -4 -10
-10 -10 -5 0 -10 5 -10 10 0 6 5 10 10 10 6 0 10 -4 10 -10z m140 -45 c0 -20
-5 -25 -25 -25 -14 0 -25 5 -25 10 0 6 5 10 10 10 6 0 10 7 10 15 0 8 7 15 15
15 9 0 15 -9 15 -25z m-170 -15 c0 -5 -4 -10 -10 -10 -5 0 -10 5 -10 10 0 6 5
10 10 10 6 0 10 -4 10 -10z m110 -20 c0 -5 -4 -10 -10 -10 -5 0 -10 5 -10 10
0 6 5 10 10 10 6 0 10 -4 10 -10z m-357 -67 c31 -31 38 -34 52 -23 20 17 32 5
15 -15 -7 -9 -11 -17 -9 -18 2 -1 12 -9 22 -16 14 -11 20 -11 32 -1 13 11 18
10 30 -6 8 -10 15 -22 15 -26 0 -13 -18 -9 -23 5 -3 9 -10 7 -24 -6 -22 -19
-56 -18 -90 4 -13 7 -28 9 -39 4 -28 -12 -104 -14 -104 -3 0 6 -11 3 -24 -6
-16 -10 -27 -12 -31 -6 -7 12 3 50 14 50 4 0 17 9 28 20 18 16 25 17 47 7 17
-8 26 -20 26 -35 0 -15 5 -22 13 -20 25 9 17 37 -23 76 -22 23 -40 44 -40 47
0 3 17 5 39 5 31 0 45 -7 74 -37z m-303 -22 c0 -6 -4 -13 -10 -16 -5 -3 -10 1
-10 9 0 9 5 16 10 16 6 0 10 -4 10 -9z m60 0 c0 -6 -4 -13 -10 -16 -5 -3 -10
1 -10 9 0 9 5 16 10 16 6 0 10 -4 10 -9z m60 -1 c0 -5 -4 -10 -10 -10 -5 0
-10 5 -10 10 0 6 5 10 10 10 6 0 10 -4 10 -10z m415 -50 c13 11 18 10 30 -6
17 -23 19 -34 5 -34 -5 0 -10 4 -10 9 0 5 -18 8 -39 7 -43 -1 -57 6 -47 23 5
7 13 7 26 -1 14 -9 22 -9 35 2z m125 -6 c0 -8 -4 -12 -10 -9 -5 3 -10 10 -10
16 0 5 5 9 10 9 6 0 10 -7 10 -16z m60 8 c0 -14 -36 -43 -43 -35 -12 11 -8 23
8 23 8 0 15 5 15 10 0 6 5 10 10 10 6 0 10 -4 10 -8z m-690 -12 c0 -5 -4 -10
-10 -10 -5 0 -10 5 -10 10 0 6 5 10 10 10 6 0 10 -4 10 -10z m28 -85 c-3 -4
-16 0 -28 7 -18 10 -24 10 -27 1 -6 -17 -23 -16 -23 0 0 8 10 19 23 24 17 9
26 7 41 -8 11 -10 17 -21 14 -24z m173 2 c-13 -13 -26 -3 -16 12 3 6 11 8 17
5 6 -4 6 -10 -1 -17z m329 12 c0 -6 9 -8 20 -4 16 5 20 2 20 -16 0 -32 77
-104 95 -89 21 18 35 3 35 -36 0 -30 -2 -33 -18 -25 -9 5 -30 7 -45 4 -16 -3
-27 -1 -27 6 0 16 -36 13 -50 -4 -12 -14 -15 -14 -30 0 -16 14 -19 14 -32 1
-10 -9 -19 -11 -25 -5 -6 6 -21 3 -41 -7 -37 -18 -36 -15 -19 -45 24 -46 49
-74 54 -61 3 6 11 12 20 12 10 0 12 -6 8 -20 -9 -29 12 -51 42 -44 19 5 25 2
30 -15 4 -15 13 -21 34 -21 15 0 31 -5 34 -10 4 -7 -16 -9 -59 -7 -58 3 -69 7
-107 40 -23 20 -49 37 -58 37 -10 0 -27 9 -39 20 -19 18 -42 27 -42 16 0 -3
11 -17 25 -32 14 -15 22 -30 19 -33 -4 -3 -9 0 -11 7 -5 14 -63 17 -63 2 0
-15 -43 -12 -65 4 -19 13 -18 16 24 55 l44 42 -26 27 c-15 16 -27 31 -27 35 0
11 78 8 85 -3 12 -20 43 -9 88 33 40 36 47 48 47 80 0 24 -5 40 -15 43 -8 4
-12 10 -9 15 8 13 84 11 84 -2z m160 1 c0 -5 -4 -10 -10 -10 -5 0 -10 5 -10
10 0 6 5 10 10 10 6 0 10 -4 10 -10z m-680 -60 c0 -5 -7 -10 -15 -10 -8 0 -15
5 -15 10 0 6 7 10 15 10 8 0 15 -4 15 -10z m110 0 c0 -5 -7 -10 -16 -10 -8 0
-12 5 -9 10 3 6 10 10 16 10 5 0 9 -4 9 -10z m110 0 c0 -5 -4 -10 -10 -10 -5
0 -10 5 -10 10 0 6 5 10 10 10 6 0 10 -4 10 -10z m-200 -60 c0 -5 -4 -10 -10
-10 -5 0 -10 5 -10 10 0 6 5 10 10 10 6 0 10 -4 10 -10z m550 -100 c0 -5 -4
-10 -10 -10 -5 0 -10 5 -10 10 0 6 5 10 10 10 6 0 10 -4 10 -10z m-370 -10 c0
-5 -4 -10 -10 -10 -5 0 -10 5 -10 10 0 6 5 10 10 10 6 0 10 -4 10 -10z m-150
-50 c0 -5 -4 -10 -10 -10 -5 0 -10 5 -10 10 0 6 5 10 10 10 6 0 10 -4 10 -10z
m130 0 c0 -5 -7 -10 -15 -10 -8 0 -15 5 -15 10 0 6 7 10 15 10 8 0 15 -4 15
-10z m360 0 c0 -5 -4 -10 -10 -10 -5 0 -10 5 -10 10 0 6 5 10 10 10 6 0 10 -4
10 -10z m60 0 c0 -5 -4 -10 -10 -10 -5 0 -10 5 -10 10 0 6 5 10 10 10 6 0 10
-4 10 -10z m-340 -160 c0 -5 -4 -10 -10 -10 -5 0 -10 5 -10 10 0 6 5 10 10 10
6 0 10 -4 10 -10z m60 0 c0 -5 -4 -10 -10 -10 -5 0 -10 5 -10 10 0 6 5 10 10
10 6 0 10 -4 10 -10z m60 0 c0 -5 -4 -10 -10 -10 -5 0 -10 5 -10 10 0 6 5 10
10 10 6 0 10 -4 10 -10z m55 0 c3 -5 -1 -10 -9 -10 -9 0 -16 5 -16 10 0 6 4
10 9 10 6 0 13 -4 16 -10z m225 0 c0 -5 -4 -10 -10 -10 -5 0 -10 5 -10 10 0 6
5 10 10 10 6 0 10 -4 10 -10z m36 -25 c8 -20 -13 -45 -37 -45 -22 0 -24 -10
-6 -29 10 -11 9 -13 -6 -7 -10 3 -23 6 -28 6 -17 0 -9 17 24 53 36 40 45 44
53 22z m-406 -35 c0 -5 -4 -10 -10 -10 -5 0 -10 5 -10 10 0 6 5 10 10 10 6 0
10 -4 10 -10z m-25 -75 c25 -23 46 -33 57 -29 21 6 25 -20 6 -33 -36 -22 -73
-11 -120 35 -26 25 -44 50 -42 54 12 19 61 6 99 -27z m-265 15 c0 -5 -4 -10
-10 -10 -5 0 -10 5 -10 10 0 6 5 10 10 10 6 0 10 -4 10 -10z m465 -40 c3 -5
-1 -10 -10 -10 -9 0 -13 5 -10 10 3 6 8 10 10 10 2 0 7 -4 10 -10z m55 0 c0
-5 -4 -10 -10 -10 -5 0 -10 5 -10 10 0 6 5 10 10 10 6 0 10 -4 10 -10z m115 0
c3 -5 -1 -10 -9 -10 -9 0 -16 5 -16 10 0 6 4 10 9 10 6 0 13 -4 16 -10z m55 0
c0 -5 -4 -10 -10 -10 -5 0 -10 5 -10 10 0 6 5 10 10 10 6 0 10 -4 10 -10z
m-521 -21 c-22 -14 -33 -10 -19 6 7 8 17 12 22 9 6 -4 5 -10 -3 -15z m285
-254 c11 -8 35 -15 53 -15 18 0 33 -4 33 -8 0 -4 17 -19 39 -32 65 -42 98
-146 56 -180 -8 -6 -11 -18 -8 -26 3 -8 -3 -17 -13 -21 -11 -3 -35 -19 -54
-35 -19 -15 -46 -28 -61 -28 -15 0 -32 -7 -39 -15 -17 -21 -194 -19 -211 2 -6
7 -31 13 -54 13 -34 0 -51 7 -79 32 -21 18 -36 41 -36 54 0 12 -6 24 -14 27
-7 3 -17 23 -21 43 -6 32 -3 41 14 55 12 10 21 24 21 31 0 19 37 58 54 58 8 0
19 7 26 15 7 8 27 15 44 15 18 0 36 4 42 9 5 6 29 11 54 14 97 8 135 6 154 -8z
m3531 -159 c23 -25 22 -45 -1 -25 -10 8 -19 5 -35 -10 -13 -12 -26 -21 -30
-21 -10 0 -17 50 -8 56 5 3 9 0 9 -5 0 -6 9 -11 20 -11 23 0 26 10 8 28 -9 9
-9 12 1 12 8 0 24 -11 36 -24z m7 -70 c13 -10 15 -15 6 -24 -9 -9 -7 -15 8
-26 26 -19 10 -32 -21 -18 -22 10 -24 15 -15 31 15 30 12 40 -12 33 -14 -3
-19 -2 -14 6 9 15 27 15 48 -2z m88 -66 c0 -18 40 -32 56 -19 12 10 17 8 29
-7 14 -18 14 -18 15 4 0 28 11 28 37 -2 l21 -24 -103 2 c-57 0 -107 4 -111 8
-4 5 1 17 11 28 19 21 45 27 45 10z"/>
<path d="M1950 5990 c0 -5 5 -10 10 -10 6 0 10 5 10 10 0 6 -4 10 -10 10 -5 0
-10 -4 -10 -10z"/>
<path d="M1190 5990 c0 -5 7 -10 16 -10 8 0 12 5 9 10 -3 6 -10 10 -16 10 -5
0 -9 -4 -9 -10z"/>
<path d="M4280 5270 c0 -5 5 -10 10 -10 6 0 10 5 10 10 0 6 -4 10 -10 10 -5 0
-10 -4 -10 -10z"/>
<path d="M3760 4710 c0 -5 5 -10 10 -10 6 0 10 5 10 10 0 6 -4 10 -10 10 -5 0
-10 -4 -10 -10z"/>
<path d="M380 4165 c0 -28 12 -32 30 -10 14 16 6 35 -16 35 -8 0 -14 -10 -14
-25z"/>
<path d="M4560 3970 c0 -5 7 -10 16 -10 8 0 12 5 9 10 -3 6 -10 10 -16 10 -5
0 -9 -4 -9 -10z"/>
<path d="M692 2480 c-7 -11 -10 -20 -6 -20 7 0 34 27 34 34 0 13 -16 5 -28
-14z"/>
<path d="M535 2330 c3 -5 10 -10 16 -10 5 0 9 5 9 10 0 6 -7 10 -16 10 -8 0
-12 -4 -9 -10z"/>
<path d="M360 1959 c0 -24 23 -21 28 4 2 10 -3 17 -12 17 -10 0 -16 -9 -16
-21z"/>
<path d="M702 1748 c-17 -17 -15 -33 2 -19 11 9 19 9 35 -1 26 -16 42 -1 17
18 -24 17 -38 18 -54 2z"/>
<path d="M485 1571 c-3 -5 -1 -12 5 -16 5 -3 10 1 10 9 0 18 -6 21 -15 7z"/>
<path d="M567 918 c-72 -118 -85 -142 -81 -150 3 -5 18 -9 32 -8 46 3 52 1 49
-22 -2 -18 3 -23 23 -23 19 0 25 5 25 22 0 11 3 24 7 28 3 4 0 22 -8 41 -8 19
-14 36 -14 39 2 98 -6 116 -33 73z m-7 -97 c0 -28 -15 -49 -27 -38 -8 8 7 67
18 67 5 0 9 -13 9 -29z"/>
<path d="M662 858 c3 -22 18 -26 57 -12 21 7 -7 34 -36 34 -20 0 -24 -4 -21
-22z"/>
<path d="M410 842 c0 -23 -40 -62 -64 -62 -9 0 -14 -4 -11 -10 3 -5 14 -10 24
-10 19 0 61 -40 61 -58 0 -24 16 -11 28 21 15 41 16 84 2 92 -5 3 -10 15 -10
26 0 10 -7 19 -15 19 -8 0 -15 -8 -15 -18z"/>
<path d="M725 760 c-8 -25 1 -40 24 -40 28 0 46 26 31 45 -18 21 -48 19 -55
-5z"/>
<path d="M2620 6370 c0 -5 5 -10 10 -10 6 0 10 5 10 10 0 6 -4 10 -10 10 -5 0
-10 -4 -10 -10z"/>
<path d="M5758 4103 c-10 -2 -18 -9 -18 -14 0 -5 -10 -9 -23 -9 -29 0 -57 -58
-57 -116 0 -32 -7 -46 -30 -69 -16 -16 -30 -39 -30 -51 0 -13 -11 -44 -25 -70
-31 -59 -31 -79 3 -129 31 -44 76 -74 131 -86 20 -4 48 -11 64 -15 26 -6 27
-5 27 30 0 22 -5 36 -12 36 -10 0 -10 2 0 9 11 7 11 9 -2 14 -8 3 -18 1 -22
-4 -4 -7 -10 -7 -17 0 -6 6 -19 11 -29 11 -24 0 -34 26 -18 46 10 11 10 18 1
27 -9 9 -14 9 -21 -3 -7 -11 -12 -10 -29 11 -27 32 -27 71 0 87 18 12 24 11
37 -2 11 -10 12 -19 5 -28 -5 -7 -13 -20 -16 -29 -4 -13 -1 -16 14 -12 25 7
47 -22 41 -52 -5 -28 9 -38 42 -29 24 6 24 7 25 129 1 120 1 123 -21 128 -14
4 -29 20 -37 39 -31 71 -31 77 -4 98 14 11 34 20 44 20 12 0 19 7 19 20 0 20
-8 22 -42 13z m7 -313 c3 -5 -1 -10 -10 -10 -9 0 -13 5 -10 10 3 6 8 10 10 10
2 0 7 -4 10 -10z"/>
<path d="M2034 3953 c-49 -9 -74 -83 -31 -91 13 -3 17 3 17 26 0 34 20 46 46
28 24 -18 13 -52 -36 -113 -58 -73 -55 -86 20 -81 68 5 85 16 75 48 -6 20 -8
20 -25 5 -10 -9 -30 -15 -46 -13 l-27 3 32 34 c71 76 78 107 32 140 -16 12
-31 20 -33 20 -1 -1 -13 -4 -24 -6z"/>
<path d="M5778 3379 c-10 -6 -18 -18 -18 -28 0 -10 -9 -26 -20 -36 -11 -10
-20 -26 -20 -37 0 -10 -4 -18 -10 -18 -5 0 -10 -6 -10 -14 0 -8 -13 -30 -30
-48 -16 -18 -30 -40 -30 -49 0 -19 -27 -44 -57 -53 -13 -4 -23 -15 -23 -25 0
-10 -7 -24 -15 -31 -37 -30 -5 -159 52 -211 35 -31 107 -63 126 -56 9 3 17 -2
20 -14 3 -13 14 -19 31 -19 l26 0 0 200 0 200 -23 0 c-63 0 -93 -41 -67 -91 9
-15 6 -26 -11 -51 l-22 -31 23 -19 c21 -17 22 -22 11 -40 -10 -16 -10 -22 -1
-28 9 -6 9 -13 1 -29 -13 -24 -31 -28 -31 -7 0 7 -9 16 -20 19 -18 5 -20 14
-20 100 0 72 4 98 15 107 8 7 15 18 15 25 0 6 7 26 16 44 12 24 20 30 35 26
22 -7 24 -2 7 25 -10 15 -9 22 5 38 9 10 17 24 17 31 0 6 11 23 26 37 19 20
24 34 22 59 -3 29 -6 32 -20 24z"/>
<path d="M4540 3189 c0 -31 4 -48 10 -44 6 3 10 26 10 51 0 24 -4 44 -10 44
-5 0 -10 -23 -10 -51z"/>
<path d="M4428 3161 c-25 -24 -22 -38 7 -45 22 -6 25 -12 25 -49 0 -23 6 -51
13 -62 7 -11 12 -27 11 -35 -1 -8 -2 -27 -3 -42 -1 -23 -6 -28 -26 -28 -26 0
-33 14 -15 25 14 9 -7 35 -26 35 -8 0 -14 9 -14 19 0 20 -34 51 -55 51 -14 0
-65 -76 -65 -95 0 -8 -11 -15 -25 -17 -24 -3 -25 -4 -10 -26 13 -17 20 -20 35
-12 21 11 82 -10 115 -40 24 -22 76 -30 82 -12 3 7 -4 12 -16 12 -11 0 -23 5
-26 10 -10 16 24 24 41 10 26 -22 37 3 35 79 -1 39 3 76 9 83 41 49 50 63 47
72 -7 20 -27 17 -27 -3 0 -12 -6 -21 -13 -21 -24 0 -47 36 -47 73 0 42 -22 49
-52 18z"/>
<path d="M4594 3001 c19 -21 56 -29 56 -12 0 12 -8 16 -45 25 -29 7 -29 7 -11
-13z"/>
<path d="M4690 2915 c0 -14 -6 -34 -12 -45 -10 -16 -10 -23 3 -35 26 -26 43 4
35 60 -8 48 -26 62 -26 20z"/>
<path d="M4092 2828 c5 -15 48 -18 48 -3 0 6 -11 11 -26 13 -18 3 -25 0 -22
-10z"/>
<path d="M4610 2830 c0 -5 9 -10 20 -10 11 0 20 5 20 10 0 6 -9 10 -20 10 -11
0 -20 -4 -20 -10z"/>
<path d="M4138 2797 c-44 -26 -48 -37 -13 -37 14 0 25 5 25 10 0 6 18 10 41
10 33 0 40 3 35 16 -3 9 -6 18 -6 20 0 12 -50 0 -82 -19z"/>
<path d="M4540 2810 c-17 -10 -13 -17 15 -22 12 -2 21 3 23 15 4 18 -14 22
-38 7z"/>
<path d="M4234 2775 c-4 -9 -19 -15 -40 -15 -24 0 -34 -5 -34 -15 0 -10 11
-15 35 -15 24 0 35 5 35 15 0 23 285 22 294 -1 4 -10 16 -14 38 -12 46 4 49
28 3 28 -20 0 -43 7 -51 15 -12 12 -43 15 -145 15 -106 0 -131 -3 -135 -15z"/>
<path d="M4618 2768 c9 -9 15 -9 24 0 9 9 7 12 -12 12 -19 0 -21 -3 -12 -12z"/>
<path d="M4342 2732 c-68 -2 -92 -6 -89 -15 5 -17 234 -22 253 -6 21 17 9 26
-33 25 -21 0 -80 -2 -131 -4z"/>
<path d="M4343 2657 c-6 -6 -10 -20 -10 -29 0 -13 4 -15 18 -7 10 5 31 9 48 9
16 0 33 5 36 11 9 14 7 15 -41 23 -28 4 -45 2 -51 -7z"/>
<path d="M4330 2568 c0 -14 5 -17 24 -12 57 14 86 -40 45 -85 -25 -26 -41 -23
-49 9 -7 29 -28 38 -36 15 -10 -25 27 -56 66 -57 25 -1 39 6 57 26 30 35 29
57 -2 89 -33 32 -105 42 -105 15z"/>
<path d="M1262 2248 c-56 -71 -56 -164 2 -210 29 -24 53 -22 81 7 51 50 13
132 -56 118 -24 -5 -29 -2 -29 14 0 21 29 53 47 53 6 0 13 -7 17 -15 3 -8 12
-15 21 -15 18 0 20 31 3 48 -16 16 -73 15 -86 0z m62 -127 c14 -15 15 -23 5
-45 -15 -33 -38 -30 -58 6 -13 22 -13 29 -2 42 18 21 34 20 55 -3z"/>
<path d="M5753 1832 c-18 -37 -33 -71 -33 -75 0 -4 -11 -20 -25 -35 -14 -15
-28 -35 -31 -46 -9 -27 -36 -56 -54 -56 -24 0 -58 -87 -52 -133 2 -20 8 -40
13 -43 5 -3 9 -14 9 -24 0 -31 113 -120 152 -120 18 0 6 28 -27 62 -34 34 -35
39 -40 130 -5 78 -3 97 10 108 8 7 15 18 15 25 0 7 7 18 15 25 8 7 15 21 15
32 0 16 5 19 25 14 23 -6 24 -5 14 18 -9 19 -8 29 5 47 9 13 16 31 16 41 0 10
5 18 10 18 6 0 10 18 10 40 0 22 -3 40 -7 40 -5 0 -23 -30 -40 -68z"/>
<path d="M5753 1657 c-36 -12 -42 -36 -21 -82 10 -22 8 -29 -12 -49 l-22 -25
27 -25 c17 -16 24 -30 19 -38 -18 -28 -11 -77 13 -100 15 -14 21 -28 17 -40
-3 -12 0 -18 10 -18 13 0 15 28 14 195 0 107 -3 194 -6 194 -4 -1 -22 -7 -39
-12z"/>
<path d="M4298 1152 c-43 -2 -58 -7 -58 -17 0 -12 15 -15 63 -15 35 0 68 -5
74 -11 13 -13 33 -4 33 16 0 19 -47 30 -112 27z"/>
<path d="M5728 1101 c-10 -20 -18 -56 -18 -78 0 -29 -6 -46 -25 -63 -15 -14
-25 -35 -25 -51 0 -14 -7 -32 -15 -39 -8 -7 -15 -20 -15 -29 0 -9 -4 -21 -9
-26 -16 -17 -16 -61 0 -86 8 -13 18 -32 22 -42 8 -20 101 -67 135 -67 19 0 22
5 22 40 0 26 -4 40 -13 40 -7 0 -22 6 -33 14 -17 13 -17 18 -6 36 7 12 11 25
7 28 -3 4 -10 0 -15 -8 -7 -12 -12 -11 -32 5 -13 11 -24 20 -26 21 -2 1 -5 13
-7 27 -4 19 2 31 22 46 l26 21 22 -20 c12 -11 29 -20 38 -20 15 0 17 12 17 85
0 79 -2 86 -25 101 -30 20 -32 44 -5 67 26 22 25 37 -2 37 -17 0 -28 -11 -40
-39z"/>
<path d="M3607 1033 c-14 -13 -7 -63 8 -63 8 0 15 9 15 20 0 28 29 38 45 16
17 -22 8 -54 -16 -61 -22 -7 -25 -25 -4 -25 14 0 35 -29 35 -49 0 -5 -7 -17
-16 -26 -12 -12 -19 -13 -30 -4 -8 6 -14 18 -14 25 0 8 -9 14 -21 14 -35 0
-20 -42 23 -63 35 -17 38 -17 63 -1 34 22 42 59 21 95 -10 17 -13 30 -6 34 13
8 13 51 0 76 -8 14 -21 19 -54 19 -23 0 -46 -3 -49 -7z"/>
<path d="M1681 934 c-12 -15 -21 -39 -21 -55 0 -39 45 -89 80 -89 15 0 38 -8
51 -19 22 -18 22 -19 6 -45 -20 -30 -60 -35 -83 -11 -19 19 -44 20 -44 2 0
-27 45 -57 86 -57 54 0 84 31 84 87 0 33 -6 46 -26 62 -15 12 -40 21 -55 21
-30 0 -69 26 -69 45 0 16 44 55 62 55 8 0 23 -9 33 -20 10 -11 24 -20 31 -20
24 0 26 22 3 46 -33 36 -109 35 -138 -2z"/>
<path d="M4380 890 c0 -5 -7 -10 -15 -10 -8 0 -15 -4 -15 -9 0 -4 11 -6 25 -3
24 4 36 32 15 32 -5 0 -10 -4 -10 -10z"/>
<path d="M5777 813 c-13 -12 -7 -33 8 -33 8 0 15 9 15 20 0 20 -11 26 -23 13z"/>
<path d="M5782 761 c-10 -6 -10 -10 3 -21 13 -11 15 -9 15 9 0 24 0 24 -18 12z"/>
<path d="M4500 731 c0 -5 6 -11 13 -14 10 -4 10 -7 0 -18 -14 -14 -17 -39 -5
-39 10 1 65 80 55 80 -5 0 -15 -6 -22 -12 -11 -10 -14 -10 -18 0 -5 14 -23 16
-23 3z"/>
<path d="M5140 482 c-67 -32 -140 -108 -140 -147 0 -8 -4 -17 -10 -20 -5 -3
-10 -13 -10 -21 0 -8 -13 -29 -30 -47 -16 -18 -30 -37 -30 -43 0 -14 -40 -50
-65 -58 -24 -8 -55 -71 -55 -114 l0 -32 59 0 58 0 2 57 c0 31 5 61 11 67 5 5
10 18 10 27 0 9 7 22 15 29 8 7 15 21 15 32 0 10 7 21 15 24 8 4 15 14 15 24
0 10 7 23 15 30 8 7 15 18 15 24 0 6 29 41 65 76 64 63 67 65 118 65 62 0 125
-28 137 -61 5 -12 16 -27 25 -32 18 -9 54 -102 55 -137 0 -11 8 -27 18 -36 14
-12 17 -30 15 -102 -1 -69 2 -87 13 -87 20 0 18 224 -2 241 -8 6 -14 19 -14
29 0 10 -7 23 -15 30 -8 7 -15 25 -15 41 0 20 -9 35 -30 51 -16 12 -30 30 -30
40 0 10 -8 21 -17 24 -10 3 -26 10 -37 16 -22 12 -155 19 -176 10z"/>
<path d="M5739 365 c-14 -30 -19 -53 -14 -74 5 -24 1 -35 -24 -60 -17 -18 -31
-41 -31 -52 0 -10 -13 -45 -30 -76 -16 -31 -30 -66 -30 -79 0 -23 3 -24 66
-24 43 0 70 5 80 14 20 20 18 26 -8 26 -57 1 -76 57 -34 97 l24 23 25 -20 c14
-11 28 -20 31 -20 3 0 6 40 6 89 0 70 -3 90 -15 95 -8 3 -15 17 -15 31 0 14 7
28 15 31 20 8 19 30 -1 38 -23 9 -22 10 -45 -39z"/>
<path d="M2730 391 c0 -11 20 -17 85 -25 22 -2 52 -8 68 -11 28 -8 33 0 17 25
-11 18 -170 29 -170 11z"/>
<path d="M1940 375 c0 -12 14 -15 64 -15 36 0 68 -4 71 -10 3 -5 17 -10 30
-10 13 0 25 -6 28 -12 4 -10 7 -10 18 0 11 10 11 12 0 12 -7 0 -22 11 -33 25
-18 23 -26 25 -99 25 -64 0 -79 -3 -79 -15z"/>
<path d="M2660 355 c0 -9 -7 -27 -16 -40 -10 -15 -14 -35 -10 -52 5 -22 -1
-37 -29 -72 -19 -24 -35 -53 -35 -63 0 -11 -7 -26 -15 -34 -8 -9 -15 -24 -15
-35 0 -10 -4 -19 -10 -19 -5 0 -10 -9 -10 -20 0 -17 7 -20 53 -20 29 0 59 6
65 12 9 9 15 9 20 2 8 -12 202 -18 202 -6 0 13 -57 42 -84 42 -14 0 -26 4 -26
10 0 15 35 29 58 23 13 -3 22 -1 22 6 0 6 7 11 15 11 8 0 15 5 15 11 0 7 11 9
28 6 22 -4 31 -1 42 16 12 20 12 21 -3 8 -9 -7 -23 -11 -31 -8 -16 6 -66 -13
-66 -25 0 -5 -7 -8 -15 -8 -8 0 -15 6 -15 14 0 8 -11 23 -25 34 -29 23 -32 32
-10 32 8 0 15 -4 15 -10 0 -5 7 -10 16 -10 13 0 12 5 -7 24 -13 13 -33 25 -44
27 -11 3 -21 13 -24 24 -2 11 -12 26 -22 33 -23 16 -25 55 -4 72 22 18 18 30
-10 30 -16 0 -25 -6 -25 -15z m16 -260 c18 -28 44 -33 44 -10 0 8 5 15 10 15
18 0 10 -21 -19 -52 -25 -26 -32 -30 -45 -19 -11 9 -20 9 -34 2 -23 -12 -32
-5 -32 26 0 15 8 27 23 33 12 5 18 9 14 9 -11 1 2 21 13 21 5 0 17 -11 26 -25z"/>
<path d="M2660 50 c0 -5 7 -10 15 -10 8 0 15 5 15 10 0 6 -7 10 -15 10 -8 0
-15 -4 -15 -10z"/>
<path d="M1879 353 c-1 -5 -1 -11 -1 -15 1 -3 -5 -12 -13 -18 -9 -8 -15 -30
-15 -59 0 -38 -5 -52 -25 -71 -15 -14 -25 -35 -25 -51 0 -15 -6 -34 -13 -41
-15 -14 -47 -76 -47 -90 0 -4 75 -8 167 -8 164 0 166 0 149 19 -10 11 -32 21
-49 23 -38 4 -46 23 -16 39 17 9 24 9 27 0 6 -19 29 -12 51 15 17 21 22 23 39
13 16 -10 23 -10 37 5 10 9 14 20 10 24 -4 4 -10 1 -12 -6 -6 -15 -40 -16 -45
-1 -3 9 -9 9 -25 1 -18 -10 -25 -6 -54 27 -19 22 -45 41 -59 43 -17 2 -26 10
-28 25 -2 12 -10 27 -18 33 -19 17 -18 59 3 82 15 17 15 18 -10 18 -15 0 -28
-3 -28 -7z m10 -259 c16 -20 26 -25 46 -20 14 4 25 2 25 -4 0 -5 -5 -10 -11
-10 -7 0 -22 -11 -35 -25 -19 -21 -28 -24 -43 -15 -11 5 -27 7 -35 4 -22 -8
-22 38 0 71 21 31 28 31 53 -1z"/>
<path d="M3620 315 c0 -8 -4 -15 -10 -15 -20 0 -9 -27 16 -40 22 -12 27 -12
34 0 13 20 12 3 0 -21 -6 -10 -17 -19 -25 -19 -7 0 -16 -6 -19 -12 -5 -10 -7
-10 -12 0 -8 17 -34 15 -34 -3 0 -8 -6 -15 -14 -15 -8 0 -16 -7 -20 -15 -5
-13 -9 -13 -27 -3 -17 10 -23 10 -26 1 -3 -7 -13 -13 -23 -13 -31 0 -40 -48
-14 -75 15 -15 15 -18 -10 -44 -14 -15 -26 -30 -26 -34 0 -4 18 -7 39 -7 28 0
41 5 46 18 6 16 7 16 19 0 14 -19 96 -26 96 -9 0 5 -14 21 -31 36 -32 26 -32
48 -1 28 14 -8 23 -7 36 2 25 19 17 59 -11 63 -25 4 -31 -16 -11 -36 6 -6 9
-15 5 -18 -4 -4 -15 4 -26 17 -17 21 -17 26 -5 44 8 10 14 29 14 40 1 19 1 19
14 3 16 -22 26 -23 26 -3 0 19 19 19 40 0 15 -13 19 -12 40 10 23 25 23 25 3
25 -12 0 -23 -6 -26 -12 -2 -8 -8 -9 -13 -4 -5 5 -4 11 4 13 6 3 12 11 12 18
0 7 7 15 15 19 23 8 18 19 -24 49 -45 31 -51 33 -51 12z m-110 -195 c0 -5 -4
-10 -10 -10 -5 0 -10 5 -10 10 0 6 5 10 10 10 6 0 10 -4 10 -10z"/>
<path d="M5150 310 c0 -5 7 -10 16 -10 8 0 12 5 9 10 -3 6 -10 10 -16 10 -5 0
-9 -4 -9 -10z"/>
<path d="M2950 298 c0 -17 41 -58 58 -58 6 0 18 -13 27 -29 16 -31 73 -81 93
-81 13 0 27 -44 18 -58 -10 -16 6 -72 20 -72 10 0 13 18 11 72 -2 61 -5 74
-22 83 -43 21 -95 68 -95 84 0 25 -39 58 -77 66 -25 5 -33 3 -33 -7z"/>
<path d="M1280 269 c-14 -18 -26 -36 -28 -40 -2 -5 -8 -9 -14 -9 -11 0 -37
-29 -38 -42 0 -5 5 -8 10 -8 6 0 10 6 11 13 0 6 16 25 35 40 29 24 35 26 40
13 3 -9 13 -16 21 -16 19 0 48 -29 38 -38 -4 -4 -10 -1 -12 6 -7 18 -23 15
-44 -10 -22 -28 -24 -38 -4 -38 8 0 15 -4 15 -10 0 -5 -11 -10 -25 -10 -28 0
-34 -23 -11 -46 23 -22 34 -17 38 17 2 19 11 37 22 43 27 15 56 44 56 55 0 5
-6 12 -12 15 -9 3 -8 8 5 16 16 10 14 14 -18 46 -19 19 -41 34 -48 34 -6 0
-23 -14 -37 -31z m80 -29 c0 -5 -4 -10 -10 -10 -5 0 -10 5 -10 10 0 6 5 10 10
10 6 0 10 -4 10 -10z m-30 -90 c0 -5 -4 -10 -10 -10 -5 0 -10 5 -10 10 0 6 5
10 10 10 6 0 10 -4 10 -10z"/>
<path d="M2160 292 c0 -12 44 -52 57 -52 6 0 29 -25 52 -55 23 -31 52 -57 66
-61 23 -6 25 -11 25 -65 0 -50 3 -59 18 -59 15 0 17 9 15 67 -1 38 -2 71 -2
76 -1 4 -9 7 -19 7 -24 0 -92 68 -92 92 0 13 -14 26 -42 38 -45 21 -78 25 -78
12z"/>
<path d="M1220 270 c0 -5 5 -10 10 -10 6 0 10 5 10 10 0 6 -4 10 -10 10 -5 0
-10 -4 -10 -10z"/>
<path d="M5120 222 c0 -15 24 -32 44 -32 18 0 19 1 1 20 -18 20 -45 27 -45 12z"/>
<path d="M5095 200 c-4 -6 -16 -8 -27 -4 -33 10 -86 -24 -91 -60 -3 -21 1 -35
12 -43 14 -12 13 -16 -12 -38 -24 -21 -27 -28 -17 -40 10 -12 37 -15 118 -15
l106 0 -44 45 c-48 49 -39 63 11 15 25 -23 37 -28 60 -23 18 3 29 1 29 -6 0
-6 12 -11 26 -11 22 0 25 4 22 28 -2 20 -9 28 -28 30 -14 2 -29 8 -34 13 -13
12 -46 12 -46 -1 0 -15 -29 -12 -46 4 -21 22 -17 26 16 20 25 -6 30 -3 30 14
0 13 -9 22 -25 26 -15 4 -27 16 -31 31 -6 26 -18 32 -29 15z m21 -67 c-10 -10
-19 5 -10 18 6 11 8 11 12 0 2 -7 1 -15 -2 -18z m-56 -103 c0 -5 -4 -10 -10
-10 -5 0 -10 5 -10 10 0 6 5 10 10 10 6 0 10 -4 10 -10z"/>
<path d="M1255 180 c-3 -5 -2 -10 4 -10 5 0 13 5 16 10 3 6 2 10 -4 10 -5 0
-13 -4 -16 -10z"/>
<path d="M3635 150 c3 -5 11 -10 16 -10 6 0 7 5 4 10 -3 6 -11 10 -16 10 -6 0
-7 -4 -4 -10z"/>
<path d="M3685 150 c3 -5 11 -10 16 -10 6 0 7 5 4 10 -3 6 -11 10 -16 10 -6 0
-7 -4 -4 -10z"/>
<path d="M1353 125 c-24 -26 -11 -49 14 -24 8 8 13 8 18 0 3 -6 -1 -14 -9 -17
-20 -8 -21 -24 -1 -24 8 0 15 5 15 10 0 15 26 12 39 -4 10 -12 9 -20 -4 -40
-17 -25 -16 -26 3 -26 11 0 22 8 26 17 3 10 9 24 12 31 3 6 0 12 -6 12 -16 0
-40 26 -40 43 0 8 -8 17 -17 21 -10 3 -22 8 -28 11 -5 2 -16 -2 -22 -10z"/>
<path d="M5308 98 c12 -12 24 -19 28 -15 10 10 -16 37 -34 37 -13 0 -12 -4 6
-22z"/>
<path d="M3684 95 c-4 -8 -14 -15 -23 -15 -10 0 -25 -6 -35 -13 -14 -10 -15
-18 -7 -40 11 -28 36 -36 44 -14 4 9 7 9 18 -1 33 -31 90 6 85 55 -2 16 -9 28
-17 28 -9 0 -13 -9 -11 -27 3 -31 -4 -34 -32 -13 -16 12 -17 18 -8 27 7 7 12
16 12 20 0 14 -20 9 -26 -7z"/>
<path d="M3400 70 c0 -5 5 -10 10 -10 6 0 10 5 10 10 0 6 -4 10 -10 10 -5 0
-10 -4 -10 -10z"/>
<path d="M1080 50 c0 -5 7 -10 16 -10 8 0 12 5 9 10 -3 6 -10 10 -16 10 -5 0
-9 -4 -9 -10z"/>
<path d="M1303 41 c-37 -31 -28 -41 37 -41 53 0 60 2 60 20 0 11 5 20 10 20 6
0 10 5 10 10 0 6 -7 10 -15 10 -8 0 -15 -4 -15 -10 0 -5 -7 -10 -15 -10 -8 0
-15 5 -15 10 0 16 -33 11 -57 -9z"/>
<path d="M5320 34 c0 -11 29 -34 42 -34 7 0 19 9 26 20 7 11 8 20 3 20 -6 0
-13 -5 -16 -10 -4 -7 -12 -7 -25 0 -21 11 -30 13 -30 4z"/>
<path d="M3820 10 c0 -5 5 -10 10 -10 6 0 10 5 10 10 0 6 -4 10 -10 10 -5 0
-10 -4 -10 -10z"/>
</g>
</svg>
