<?xml version="1.0" standalone="no"?>
<!DOCTYPE svg PUBLIC "-//W3C//DTD SVG 20010904//EN"
 "http://www.w3.org/TR/2001/REC-SVG-20010904/DTD/svg10.dtd">
<svg version="1.0" xmlns="http://www.w3.org/2000/svg"
 width="590.000000pt" height="460.000000pt" viewBox="0 0 590.000000 460.000000"
 preserveAspectRatio="xMidYMid meet">
<metadata>
Created by potrace 1.16, written by Peter Selinger 2001-2019
</metadata>
<g transform="translate(0.000000,460.000000) scale(0.100000,-0.100000)"
fill="#000000" stroke="none">
<path d="M1063 2423 c4 -1198 7 -2233 7 -2300 l0 -123 71 0 70 0 -5 673 c-3
369 -5 1404 -6 2300 l0 1627 -71 0 -72 0 6 -2177z"/>
<path d="M1559 4584 c-15 -19 -21 -174 -7 -191 6 -7 18 -13 26 -13 20 0 72
-49 72 -67 0 -10 -12 -7 -42 10 -24 13 -49 22 -55 20 -16 -6 -17 -65 -2 -80 8
-8 8 -17 0 -31 -15 -28 -14 -69 2 -75 9 -3 9 -9 -2 -29 -11 -21 -11 -32 0 -61
9 -27 10 -50 3 -91 -6 -31 -7 -61 -3 -68 5 -7 6 -30 2 -50 -6 -42 8 -68 39
-68 10 0 21 -7 24 -15 4 -8 13 -15 20 -15 17 0 29 -24 19 -40 -4 -6 -22 3 -46
22 -33 27 -42 30 -49 18 -10 -16 -14 -39 -9 -55 1 -5 3 -35 3 -65 1 -49 3 -55
24 -58 27 -4 30 -22 3 -22 -11 0 -21 -9 -24 -21 -7 -26 2 -79 15 -96 6 -7 5
-19 -1 -31 -11 -22 -13 -46 -9 -137 3 -55 5 -60 26 -60 12 0 26 -5 30 -11 4
-6 15 -13 25 -17 19 -7 23 -32 6 -42 -6 -4 -21 2 -33 14 -39 37 -66 24 -60
-29 1 -14 3 -49 3 -77 1 -40 5 -53 16 -53 20 0 19 -5 -7 -40 -16 -22 -19 -32
-10 -43 8 -9 10 -54 7 -144 -5 -118 -4 -131 12 -138 10 -5 21 -8 24 -7 3 0 21
-13 39 -29 25 -24 30 -33 21 -42 -10 -9 -15 -8 -25 5 -7 10 -27 21 -44 24
l-31 6 2 -149 c2 -112 6 -155 17 -167 11 -14 11 -19 1 -25 -16 -11 -24 -180
-9 -198 6 -7 18 -13 27 -13 20 0 61 -40 61 -58 0 -7 -4 -12 -10 -12 -5 0 -10
4 -10 9 0 17 -57 40 -69 28 -15 -15 -14 -70 1 -85 9 -9 9 -15 0 -24 -18 -18
-16 -78 3 -78 14 0 14 -3 0 -24 -17 -25 -13 -88 6 -112 10 -12 6 -31 -14 -72
-8 -17 -8 -28 0 -42 9 -14 9 -26 0 -49 -9 -25 -8 -33 7 -50 10 -11 24 -17 30
-15 7 3 28 -12 46 -33 39 -44 26 -54 -26 -19 -48 32 -69 20 -60 -33 6 -39 6
-39 3 -91 -2 -31 1 -35 26 -38 30 -4 38 -22 8 -22 -37 0 -46 -26 -28 -78 16
-47 14 -95 -6 -119 -6 -9 -5 -18 3 -28 8 -9 10 -28 6 -50 -8 -41 7 -77 30 -68
9 3 24 -3 35 -16 11 -11 24 -21 29 -21 6 0 10 -9 10 -20 0 -23 -25 -27 -37 -6
-10 17 -51 38 -62 32 -7 -4 -7 -84 -1 -178 0 -5 9 -8 20 -8 11 0 20 -4 20 -10
0 -5 -6 -10 -14 -10 -8 0 -18 -5 -22 -12 -10 -17 -6 -89 7 -104 7 -9 7 -19 0
-32 -6 -11 -10 -58 -10 -106 1 -83 2 -86 25 -86 13 0 28 -9 34 -20 6 -11 17
-20 25 -20 15 0 31 -37 20 -48 -4 -4 -14 3 -24 14 -9 12 -32 25 -50 29 l-34 7
5 -57 c3 -31 10 -60 16 -64 23 -14 120 2 161 26 2 1 -4 9 -13 18 -44 45 20 48
73 5 20 -17 42 -35 48 -41 8 -5 94 -10 209 -10 163 0 199 3 214 16 9 8 22 15
28 15 8 0 10 9 6 25 -5 20 -2 25 14 25 10 0 30 -8 43 -18 13 -10 32 -21 42
-25 9 -3 17 -13 17 -22 0 -13 27 -15 204 -15 159 0 206 3 215 14 7 8 22 11 39
8 26 -5 26 -4 10 15 -42 47 2 60 58 17 19 -15 34 -22 35 -18 0 5 4 -1 9 -13 8
-20 17 -23 72 -23 206 -2 344 2 352 10 6 6 26 10 45 10 32 0 33 1 18 18 -10
10 -17 24 -17 30 0 20 56 14 75 -8 10 -11 26 -20 35 -20 10 0 20 -9 23 -20 5
-19 13 -20 204 -20 171 1 203 3 232 19 21 11 30 21 22 25 -6 4 -11 16 -11 28
0 17 4 19 27 13 15 -3 48 -24 74 -46 l47 -39 184 0 c134 0 189 4 203 13 11 7
32 13 47 12 22 -1 25 2 17 16 -5 10 -14 21 -19 24 -6 4 -8 11 -5 16 11 16 43
9 73 -16 17 -14 34 -25 40 -25 5 0 12 -9 15 -20 5 -19 14 -20 204 -20 156 0
203 3 219 14 12 9 30 12 49 9 30 -6 30 -6 11 15 -19 21 -16 52 5 52 15 0 97
-60 103 -76 4 -11 45 -14 203 -14 l199 0 27 31 c15 17 27 37 27 45 0 19 44 18
60 -1 24 -29 30 -14 30 85 0 77 -3 98 -13 94 -7 -2 -21 2 -31 9 -18 13 -18 15
12 42 37 32 38 40 15 63 -16 16 -16 17 0 20 15 3 17 18 17 103 l0 99 -391 0
c-215 0 -395 2 -400 5 -5 4 -9 123 -9 284 0 180 -4 281 -10 287 -6 6 -32 9
-59 6 -42 -4 -49 -1 -64 22 -27 41 -47 24 -47 -41 0 -76 29 -124 45 -74 8 25
41 36 60 21 12 -10 15 -55 15 -256 0 -167 -3 -245 -11 -250 -15 -9 -492 -10
-507 0 -9 5 -12 71 -12 256 0 216 2 249 16 254 18 7 50 -8 56 -26 2 -6 12 -9
21 -5 14 5 16 17 12 64 -2 32 -4 61 -5 66 0 15 -30 6 -40 -13 -8 -16 -21 -20
-60 -20 -27 0 -52 -5 -56 -11 -3 -6 -6 -131 -5 -277 0 -152 -3 -273 -9 -282
-8 -13 -79 -15 -525 -17 -298 -1 -527 2 -541 7 -23 9 -24 13 -24 109 0 55 -4
102 -9 105 -5 3 -5 26 0 53 9 48 2 873 -7 883 -10 10 -617 11 -627 1 -5 -5
-10 -237 -11 -583 l-1 -573 -42 -3 c-40 -3 -56 9 -33 23 13 8 13 52 1 60 -5 3
-11 -7 -13 -22 -4 -33 -24 -41 -31 -12 -3 12 -10 18 -17 14 -6 -4 -9 -12 -7
-18 2 -7 -6 -19 -18 -28 -16 -14 -41 -17 -113 -16 -51 0 -92 4 -92 9 0 4 43 8
95 8 104 0 115 7 68 47 l-26 23 26 0 c29 0 40 24 36 76 -4 53 1 73 23 94 17
16 19 23 10 32 -10 10 -15 10 -23 -2 -8 -13 -11 -12 -24 4 -8 11 -15 30 -15
43 0 29 -14 29 -35 1 -14 -21 -14 -24 1 -35 25 -18 47 -147 27 -166 -6 -6 -31
28 -58 78 -19 35 -43 30 -62 -14 -11 -26 -24 -41 -35 -41 -25 0 -24 50 2 92
16 27 26 33 55 33 40 0 52 18 15 23 -14 2 -35 16 -46 30 -19 23 -24 25 -39 12
-28 -23 -38 8 -14 42 23 31 41 35 59 13 17 -21 57 -19 88 5 18 15 34 19 54 15
34 -8 38 9 6 26 -30 15 -38 28 -38 59 0 38 -18 50 -71 50 -52 0 -68 -13 -73
-57 -2 -15 -4 -31 -5 -34 0 -3 -12 -19 -26 -35 -16 -18 -25 -41 -25 -62 l0
-34 -42 7 c-24 4 -45 11 -48 15 -3 5 -5 435 -5 957 l0 948 239 3 c132 1 243
-1 247 -5 5 -5 9 -133 10 -286 1 -183 5 -279 12 -284 18 -11 628 -9 635 2 4 6
7 282 7 615 l0 605 60 3 c63 3 93 18 75 36 -5 5 -10 36 -10 68 0 54 2 58 27
64 42 11 58 -7 58 -62 0 -61 -10 -84 -36 -84 -11 0 -18 -4 -15 -9 3 -5 80 -8
172 -8 131 0 168 -3 175 -14 5 -8 9 -138 10 -289 2 -298 3 -327 10 -334 2 -3
151 -6 329 -7 l325 -2 3 27 c2 17 11 28 25 31 28 6 449 13 465 7 9 -3 12 -84
12 -327 l0 -323 28 -3 c15 -2 160 -2 322 1 l295 5 0 875 0 875 118 3 117 3 0
34 c0 33 -2 35 -32 35 -39 0 -48 6 -71 43 -16 24 -16 28 -2 33 8 4 25 -1 38
-10 12 -9 32 -23 45 -32 l22 -16 0 122 c0 112 -1 122 -17 115 -41 -17 -53 -17
-59 0 -5 12 2 24 21 39 21 17 26 27 21 44 -7 22 -9 22 -257 22 -137 0 -249 -3
-249 -7 0 -15 40 -73 49 -73 5 0 12 -9 16 -19 3 -11 16 -21 28 -23 12 -2 23
-11 25 -20 6 -30 -45 -23 -73 11 -21 24 -32 28 -68 27 -24 0 -51 -7 -60 -14
-18 -15 -37 -8 -37 13 0 7 11 27 25 43 15 18 23 37 19 46 -5 14 -37 16 -264
16 -251 0 -258 -1 -253 -20 3 -10 20 -35 39 -54 19 -19 34 -40 34 -47 0 -7 9
-9 24 -5 33 8 45 -21 13 -33 -25 -10 -57 3 -57 23 0 8 -7 17 -16 20 -27 10
-93 7 -114 -6 -16 -11 -23 -10 -37 5 -17 17 -17 19 2 35 12 9 27 25 34 35 12
15 11 20 -5 32 -15 12 -66 14 -258 15 -213 0 -238 -2 -232 -16 3 -9 6 -19 6
-23 0 -3 14 -21 30 -39 17 -18 30 -38 30 -44 0 -5 7 -7 16 -4 16 6 44 -9 44
-24 0 -4 -11 -10 -24 -12 -18 -4 -34 4 -61 28 -39 38 -56 41 -108 19 -33 -14
-67 -12 -67 4 0 3 14 19 30 35 17 16 30 34 30 41 0 32 -24 35 -267 35 -134 0
-243 -3 -243 -6 0 -19 34 -74 46 -74 8 0 19 -11 24 -25 6 -15 17 -25 29 -25
25 0 38 -20 20 -31 -23 -15 -37 -10 -69 21 -33 32 -84 40 -119 18 -19 -12 -51
-5 -51 11 0 6 11 22 25 37 29 31 30 40 11 60 -12 11 -60 14 -255 14 l-241 0 0
-25 c0 -24 31 -65 49 -65 5 0 11 -9 14 -20 3 -12 14 -20 26 -20 24 0 28 -25 6
-34 -20 -7 -44 3 -55 24 -11 21 -72 30 -118 18 -18 -5 -42 -6 -54 -2 -20 6
-19 8 16 41 34 33 36 37 23 57 -14 20 -22 21 -255 24 l-240 2 6 -24 c10 -34
74 -106 95 -106 12 0 17 -6 15 -17 -5 -27 -31 -26 -62 2 -21 19 -37 25 -74 25
-26 0 -53 -4 -61 -9 -17 -11 -51 -2 -51 13 0 7 14 22 30 34 35 26 37 42 11 66
-16 14 -44 16 -242 14 l-224 -3 -3 -27 c-2 -20 4 -32 27 -49 17 -13 31 -31 31
-41 0 -13 8 -18 30 -18 32 0 40 -14 14 -24 -32 -12 -59 -6 -69 17 -9 19 -17
22 -60 20 -27 -1 -62 -5 -77 -8 -37 -9 -51 20 -22 44 31 25 37 51 18 72 -14
16 -32 19 -109 19 -72 0 -95 -4 -106 -16z m476 -154 c3 -5 -1 -10 -9 -10 -9 0
-16 5 -16 10 0 6 4 10 9 10 6 0 13 -4 16 -10z m1155 0 c0 -5 -4 -10 -10 -10
-5 0 -10 5 -10 10 0 6 5 10 10 10 6 0 10 -4 10 -10z m1288 -40 c28 -1 65 -38
58 -57 -4 -10 -10 -13 -14 -8 -4 6 -19 16 -33 24 -21 10 -31 10 -49 1 -12 -6
-29 -9 -37 -6 -14 6 -12 10 8 32 12 13 29 22 37 19 7 -3 21 -5 30 -5z m589 -3
c16 6 73 -37 73 -54 0 -15 -16 -17 -25 -3 -3 6 -20 17 -36 26 -28 14 -33 14
-56 -1 -27 -18 -56 -13 -47 8 7 20 46 36 64 27 8 -4 20 -5 27 -3z m625 -16
c42 -37 30 -51 -20 -23 -35 19 -39 20 -64 4 -23 -13 -30 -14 -40 -3 -11 10 -9
16 11 32 34 28 75 24 113 -10z m-3495 -8 c26 -18 36 -40 21 -49 -7 -4 -14 -2
-16 5 -7 22 -53 33 -84 20 -41 -17 -57 2 -27 30 26 24 64 21 106 -6z m571 0
c7 -7 18 -13 23 -13 5 0 9 -9 9 -20 0 -23 -15 -27 -23 -6 -7 17 -71 30 -94 18
-22 -11 -43 -5 -43 12 0 34 97 41 128 9z m599 -5 c34 -36 26 -43 -23 -19 -35
17 -42 18 -67 5 -29 -16 -47 -12 -47 10 0 18 38 34 78 33 21 -1 41 -10 59 -29z
m557 17 c3 -8 12 -15 20 -15 13 0 31 -28 22 -37 -2 -2 -20 5 -40 17 -28 15
-42 18 -56 10 -41 -22 -68 -2 -38 28 18 18 85 15 92 -3z m-1569 -101 c8 -13
22 -24 30 -24 8 0 15 -6 15 -14 0 -7 7 -19 15 -26 35 -29 9 -40 -38 -15 -15 8
-35 11 -43 8 -13 -5 -15 -1 -10 15 4 13 2 24 -7 29 -16 9 -29 41 -22 53 9 14
43 -1 60 -26z m575 6 c15 -16 31 -30 35 -30 12 0 34 -34 35 -52 0 -10 -4 -18
-10 -18 -46 0 -148 103 -119 121 22 14 29 11 59 -21z m588 7 c18 -14 15 -37
-6 -37 -10 0 -28 7 -40 16 -18 12 -20 19 -12 29 11 14 34 11 58 -8z m582 -7
c15 -16 32 -30 38 -30 5 0 12 -7 16 -15 3 -8 14 -15 25 -15 30 0 34 -17 6 -24
-33 -8 -105 11 -105 28 0 7 -9 25 -20 39 -41 52 -7 67 40 17z m570 5 c13 -14
29 -25 35 -25 6 0 21 -14 34 -30 19 -26 20 -31 6 -36 -25 -10 -71 15 -104 57
-46 56 -20 86 29 34z m610 -7 c22 -18 40 -38 40 -45 0 -6 6 -13 13 -16 8 -3 9
-8 2 -16 -14 -15 -78 5 -91 29 -5 10 -17 32 -27 49 -17 30 -17 31 3 31 12 0
39 -15 60 -32z m-3506 -3 c10 -14 27 -25 37 -25 11 0 19 -7 19 -15 0 -8 9 -19
20 -25 11 -6 18 -15 15 -21 -8 -12 -62 -12 -70 1 -3 6 -24 10 -46 10 -21 0
-39 5 -39 10 0 6 9 10 20 10 11 0 20 4 20 10 0 5 -9 14 -20 20 -11 6 -20 20
-20 30 0 29 41 26 64 -5z m2222 -72 c-11 -11 -19 6 -11 24 8 17 8 17 12 0 3
-10 2 -21 -1 -24z m1184 27 c0 -5 7 -10 15 -10 8 0 15 -4 15 -9 0 -5 -16 -9
-35 -8 -32 1 -45 14 -28 30 10 11 33 8 33 -3z m-2920 -21 c0 -11 -4 -17 -10
-14 -5 3 -10 13 -10 21 0 8 5 14 10 14 6 0 10 -9 10 -21z m580 7 c0 -14 -29
-31 -38 -22 -2 3 -2 12 1 21 8 19 37 20 37 1z m40 -1 c0 -8 -4 -15 -10 -15 -5
0 -10 7 -10 15 0 8 5 15 10 15 6 0 10 -7 10 -15z m1180 5 c0 -5 -7 -10 -16
-10 -8 0 -12 5 -9 10 3 6 10 10 16 10 5 0 9 -4 9 -10z m560 0 c0 -10 -26 -20
-51 -20 -19 0 -25 11 -13 23 8 8 64 5 64 -3z m-2940 -15 c0 -8 -4 -15 -10 -15
-5 0 -10 7 -10 15 0 8 5 15 10 15 6 0 10 -7 10 -15z m2120 -57 c0 -35 -5 -70
-10 -78 -7 -10 -10 9 -10 63 0 45 4 77 10 77 6 0 10 -27 10 -62z m-370 41 c0
-19 -21 -49 -34 -49 -8 0 -19 7 -26 15 -10 12 -10 18 0 30 14 17 60 20 60 4z
m108 -167 c3 -187 1 -192 -53 -178 l-25 6 0 169 c0 92 3 171 7 175 4 4 21 6
38 4 l30 -3 3 -173z m63 163 c-1 -15 -24 -12 -29 3 -3 9 2 13 12 10 10 -1 17
-7 17 -13z m139 3 c0 -16 -30 -48 -45 -48 -7 0 -18 7 -25 15 -10 12 -10 18 0
30 15 18 70 20 70 3z m1759 -59 c6 -20 55 -58 74 -59 12 0 17 -6 15 -17 -5
-26 -87 -19 -109 9 -16 20 -16 20 -65 -17 -27 -21 -49 -40 -48 -44 2 -23 26
-61 39 -61 9 0 20 -12 25 -26 7 -19 15 -24 29 -19 12 3 21 0 24 -10 4 -10 -2
-17 -19 -21 -21 -5 -32 0 -55 26 -32 34 -41 35 -136 15 -42 -9 -44 8 -6 47 24
25 26 31 15 49 -19 31 -5 40 33 22 19 -9 36 -15 38 -12 1 2 17 21 35 42 22 26
32 48 32 71 0 18 3 35 6 39 8 8 68 -19 73 -34z m-2370 20 c17 -6 31 -15 31
-20 0 -5 16 -25 35 -45 52 -52 44 -73 -23 -55 -30 9 -49 7 -86 -5 -26 -9 -50
-22 -53 -29 -7 -19 14 -53 36 -60 10 -3 21 -15 24 -25 3 -12 14 -20 25 -20 26
0 39 -19 21 -31 -22 -14 -34 -11 -63 16 -15 14 -32 25 -39 26 -34 3 -83 -4
-94 -13 -9 -7 -18 -7 -28 2 -21 18 -19 28 13 55 24 21 25 26 15 44 -19 31 -17
34 30 27 42 -6 46 -5 81 34 32 36 36 45 30 75 -7 38 -3 41 45 24z m1187 -3
c22 -40 52 -67 82 -76 42 -12 79 -37 69 -47 -9 -9 -159 15 -171 27 -5 5 -19 2
-34 -10 -26 -21 -52 -26 -52 -11 0 4 10 20 21 35 15 19 20 35 16 55 -3 16 -3
32 1 35 5 5 64 -2 68 -8z m587 -11 c17 -32 63 -65 89 -65 27 0 58 -22 58 -42
0 -11 -99 -3 -152 12 -19 6 -41 3 -68 -7 -51 -20 -64 -8 -25 23 25 20 29 30
29 65 -1 41 -1 41 29 35 17 -4 35 -13 40 -21z m-2905 -3 c9 -9 27 -30 40 -47
18 -23 30 -29 57 -27 25 2 37 -3 45 -17 15 -30 -3 -35 -76 -21 -44 8 -69 19
-79 33 -14 20 -15 20 -44 -11 -16 -18 -36 -32 -45 -32 -29 0 -17 -39 27 -85
24 -25 51 -45 60 -45 21 0 22 -14 2 -30 -13 -11 -21 -8 -48 18 -28 27 -41 32
-80 32 -26 0 -56 -5 -66 -12 -15 -9 -23 -9 -36 2 -14 12 -13 16 15 45 28 29
30 35 19 53 -18 29 -6 37 35 25 31 -10 38 -8 64 16 36 32 55 68 48 88 -14 35
31 46 62 15z m551 12 c17 -4 31 -12 31 -18 0 -22 55 -66 82 -66 29 0 56 -26
42 -40 -5 -5 -40 -4 -84 2 -73 11 -131 7 -159 -11 -12 -8 -12 -14 -2 -40 7
-17 21 -33 32 -36 10 -3 21 -14 24 -24 3 -11 15 -21 26 -24 12 -3 19 -12 17
-19 -8 -23 -37 -20 -61 6 -21 22 -33 26 -80 26 -35 0 -57 -5 -60 -12 -3 -10
-9 -8 -23 4 -17 17 -17 19 10 46 21 23 26 35 20 56 -7 28 -6 28 37 21 43 -6
45 -5 77 37 25 33 31 49 27 70 -7 30 -4 31 44 22z m1106 -254 c6 -184 5 -197
-13 -213 -15 -14 -24 -15 -50 -6 l-31 11 6 216 c3 132 9 222 16 230 8 11 16 7
38 -15 l28 -28 6 -195z m-235 220 c0 -5 -4 -10 -10 -10 -5 0 -10 5 -10 10 0 6
5 10 10 10 6 0 10 -4 10 -10z m460 -41 c22 -40 -22 -91 -44 -52 -12 21 -18 63
-11 81 6 17 40 -1 55 -29z m-117 -1 c3 -7 2 -43 -1 -79 -3 -44 -1 -69 7 -73 8
-5 11 14 11 66 0 51 3 68 10 58 13 -20 13 -220 0 -220 -5 0 -10 14 -10 31 0
17 -4 28 -10 24 -5 -3 -10 -22 -10 -41 0 -33 -1 -34 -39 -34 -36 0 -39 2 -44
33 -8 54 -2 216 8 226 6 5 21 11 35 14 14 2 28 5 32 6 3 0 8 -5 11 -11z m-335
-10 c8 -8 12 -66 12 -193 0 -185 -4 -205 -39 -205 -39 1 -42 13 -45 191 -5
209 -3 219 33 219 15 0 32 -5 39 -12z m736 -43 c20 -8 36 -22 36 -29 0 -21 73
-96 93 -96 21 0 22 -26 1 -34 -20 -8 -54 10 -54 29 0 7 -15 18 -34 25 -26 8
-43 8 -77 -4 -62 -22 -82 -2 -34 36 25 20 33 52 15 63 -15 9 -12 25 4 25 7 0
30 -7 50 -15z m572 4 c29 -8 44 -17 44 -28 1 -21 20 -45 43 -54 9 -3 17 -13
17 -22 0 -9 9 -15 24 -15 13 0 26 -6 29 -14 14 -35 -40 -35 -68 -1 -22 28 -68
34 -137 20 -31 -6 -38 -5 -38 8 0 9 12 25 27 37 23 18 25 24 15 40 -13 21 -16
40 -6 40 3 0 25 -5 50 -11z m-2539 -236 c24 -16 38 -43 22 -43 -5 0 -21 8 -35
17 -21 13 -30 14 -45 5 -10 -7 -28 -12 -38 -12 -11 0 -24 -7 -29 -16 -5 -9
-12 -12 -15 -7 -4 6 9 27 28 47 28 31 38 36 62 30 15 -4 38 -13 50 -21z m559
5 c28 -14 44 -28 44 -40 0 -23 -1 -23 -46 4 -29 17 -40 19 -55 10 -45 -28 -69
1 -26 31 29 21 32 21 83 -5z m1189 -9 c40 -35 44 -49 15 -49 -11 0 -20 7 -20
15 0 9 -10 15 -26 15 -20 0 -25 4 -20 16 3 9 6 20 6 25 0 14 7 11 45 -22z
m555 15 c22 -9 40 -22 40 -30 0 -18 -4 -18 -47 2 -25 13 -37 14 -46 5 -16 -16
-47 -14 -47 4 0 15 26 34 47 35 7 0 31 -7 53 -16z m592 3 c7 -7 21 -16 31 -20
19 -7 22 -22 7 -32 -5 -3 -10 -2 -10 2 0 16 -71 36 -83 24 -13 -13 -57 -15
-57 -2 0 32 86 53 112 28z m-1330 -66 c5 -55 1 -61 -36 -61 -36 0 -56 15 -56
43 0 37 19 57 54 57 32 0 34 -2 38 -39z m38 -11 c0 -22 -4 -40 -10 -40 -5 0
-10 18 -10 40 0 22 5 40 10 40 6 0 10 -18 10 -40z m-871 -21 c62 -52 91 -79
91 -83 0 -2 -8 -7 -17 -10 -18 -7 -93 23 -93 37 0 4 -12 18 -27 31 -17 15 -24
29 -20 39 9 24 25 21 66 -14z m1176 1 c15 -16 32 -27 37 -24 4 3 11 -3 15 -13
4 -10 11 -21 17 -25 8 -5 7 -11 -1 -19 -18 -18 -73 7 -111 52 -19 21 -31 43
-27 49 11 19 41 10 70 -20z m562 8 c28 -26 29 -38 4 -38 -26 0 -66 34 -57 48
11 18 27 15 53 -10z m601 -3 c17 -14 34 -25 40 -25 5 0 12 -9 15 -20 3 -11 12
-20 21 -20 9 0 16 -4 16 -10 0 -21 -100 -7 -100 14 0 6 -14 24 -30 40 -17 16
-30 33 -30 38 0 17 39 7 68 -17z m-3483 -15 c15 -16 31 -27 35 -25 4 2 12 -7
19 -22 10 -22 16 -25 47 -20 24 4 34 2 32 -5 -6 -16 -86 -19 -125 -5 -18 6
-33 18 -33 27 0 8 -11 24 -25 34 -14 10 -25 25 -25 32 0 25 45 15 75 -16z
m577 0 c49 -35 74 -68 62 -80 -10 -10 -84 11 -84 24 0 4 -11 21 -25 38 -47 56
-20 66 47 18z m1698 -45 c0 -8 -4 -15 -10 -15 -5 0 -10 7 -10 15 0 8 5 15 10
15 6 0 10 -7 10 -15z m1153 -6 c-5 -5 -22 -12 -36 -15 -20 -3 -27 0 -27 12 0
12 6 14 30 9 21 -5 30 -3 30 6 0 7 3 9 7 6 4 -4 2 -12 -4 -18z m-2370 -3 c3
-8 -2 -16 -14 -19 -11 -3 -19 0 -19 7 0 26 24 35 33 12z m37 -1 c0 -8 -4 -15
-10 -15 -5 0 -10 7 -10 15 0 8 5 15 10 15 6 0 10 -7 10 -15z m1140 0 c0 -8 -9
-15 -20 -15 -20 0 -26 11 -13 23 12 13 33 7 33 -8z m-2316 -10 c3 -10 -1 -15
-14 -15 -20 0 -33 13 -23 24 11 11 31 6 37 -9z m40 -1 c5 -14 4 -15 -9 -4 -17
14 -19 20 -6 20 5 0 12 -7 15 -16z m551 6 c3 -5 3 -10 -2 -10 -4 0 -18 -3 -30
-6 -17 -5 -23 -2 -23 10 0 18 45 23 55 6z m3145 0 c-20 -13 -40 -13 -40 0 0 6
12 10 28 10 21 0 24 -2 12 -10z m-855 -17 c16 -16 16 -17 -1 -30 -40 -29 -79
-6 -48 28 21 23 28 24 49 2z m103 9 c9 -7 12 -50 10 -183 l-3 -174 -35 0 c-30
0 -35 4 -38 25 -2 14 -8 29 -13 35 -5 5 -9 -23 -9 -72 0 -81 16 -124 22 -61 3
30 6 33 38 33 l35 0 0 -65 c0 -64 -1 -65 -28 -68 -32 -4 -60 15 -53 35 3 7 2
13 -3 13 -5 0 -11 -9 -14 -20 -6 -23 -52 -37 -71 -20 -12 9 -15 49 -15 196 l0
185 26 10 c31 11 62 -11 64 -45 1 -16 3 -14 10 9 5 17 8 59 7 94 -3 62 -2 65
22 72 34 10 33 10 48 1z m206 -30 c-6 -9 -22 -17 -35 -17 -34 0 -33 37 1 46
32 8 48 -6 34 -29z m66 -4 c0 -28 -3 -39 -10 -32 -9 9 -3 74 6 74 2 0 4 -19 4
-42z m-200 17 c0 -8 -6 -15 -14 -15 -17 0 -28 14 -19 24 12 12 33 6 33 -9z
m-459 -35 c5 0 27 -18 48 -40 27 -28 46 -39 62 -38 20 3 25 -2 27 -25 l3 -28
-48 7 c-104 16 -193 -3 -193 -40 0 -21 70 -89 93 -91 28 -2 30 -38 2 -43 -12
-3 -27 6 -41 23 -18 23 -30 28 -74 29 -28 1 -54 -2 -56 -6 -7 -12 -42 -10 -50
3 -3 6 6 23 20 38 28 29 33 50 14 69 -20 20 0 26 41 12 38 -12 39 -12 75 26
26 28 36 47 35 69 -2 45 0 48 17 41 9 -3 20 -6 25 -6z m1197 -11 c9 -25 56
-69 72 -69 24 0 36 -18 21 -33 -8 -8 -28 -8 -69 -1 -65 11 -144 -9 -150 -37
-4 -20 36 -71 49 -63 6 3 13 -3 16 -15 3 -12 13 -21 22 -21 9 0 22 -9 29 -20
11 -18 10 -20 -16 -20 -17 0 -38 10 -52 25 -19 21 -30 24 -69 21 -25 -3 -55
-7 -67 -11 -12 -4 -25 -1 -32 8 -9 11 -7 19 13 37 26 24 33 54 15 65 -26 16
-7 26 36 19 43 -6 47 -5 81 31 30 32 34 42 30 72 l-6 35 37 -7 c20 -4 39 -11
40 -16z m-3477 -34 c27 -29 52 -45 67 -45 13 0 32 -5 43 -10 22 -12 26 -40 6
-40 -30 0 -133 23 -144 31 -7 7 -12 6 -15 -2 -2 -7 -24 -17 -49 -23 -26 -7
-45 -17 -47 -27 -4 -20 79 -109 101 -109 21 0 22 -26 1 -34 -18 -7 -69 18 -77
37 -5 15 -43 15 -114 1 -47 -9 -56 20 -17 51 26 21 27 26 17 44 -7 11 -13 25
-13 31 0 13 33 13 47 -1 31 -31 113 46 113 108 0 48 28 43 81 -12z m537 39
c12 -4 22 -12 22 -18 0 -21 54 -62 98 -75 26 -7 42 -18 42 -28 0 -13 -9 -14
-57 -8 -88 12 -125 12 -161 2 -45 -12 -51 -2 -19 31 17 18 27 39 27 58 0 43 7
49 48 38z m624 -39 c22 -25 48 -45 59 -45 13 0 19 -7 19 -21 0 -20 -4 -21 -52
-16 -53 5 -165 -6 -176 -18 -11 -11 31 -75 50 -75 11 0 18 -7 18 -19 0 -13 10
-20 31 -25 38 -7 34 -30 -6 -34 -21 -3 -33 3 -50 24 -25 32 -74 38 -119 16
-25 -12 -30 -12 -44 2 -14 14 -13 18 11 40 28 26 35 50 17 61 -17 10 -11 25
10 25 11 0 29 -5 39 -12 17 -10 25 -6 61 33 34 36 41 50 38 77 -4 30 -2 32 25
32 22 0 39 -11 69 -45z m1610 5 c16 -22 18 -46 18 -223 1 -109 -2 -202 -5
-207 -9 -14 -62 -12 -71 2 -11 17 -13 421 -2 441 12 24 36 18 60 -13z m242
-22 c20 -28 20 -62 1 -78 -25 -20 -45 5 -45 56 0 50 18 59 44 22z m-112 -125
c4 -154 2 -163 -31 -163 -46 0 -51 15 -51 142 0 126 5 137 57 138 21 0 22 -4
25 -117z m39 60 c3 -274 1 -333 -10 -333 -4 0 -9 86 -9 190 -1 119 2 190 8
190 6 0 10 -21 11 -47z m-2530 -23 c8 0 24 -18 37 -40 12 -22 29 -40 36 -40 8
0 16 -9 19 -21 3 -12 10 -18 17 -14 12 7 40 -11 40 -26 0 -14 -58 -10 -67 4
-18 30 -61 49 -95 42 -18 -4 -39 -12 -45 -17 -16 -13 -43 -3 -43 15 0 7 11 24
25 37 29 27 31 42 9 61 -14 12 -14 14 3 20 10 4 25 1 34 -7 8 -8 22 -14 30
-14z m-236 -216 c14 -9 25 -23 25 -30 0 -17 -4 -17 -38 0 -17 8 -35 10 -47 5
-32 -12 -55 -10 -55 6 0 34 73 46 115 19z m587 -18 c24 -22 29 -31 18 -34 -7
-3 -16 0 -18 7 -2 6 -10 11 -18 11 -8 0 -23 6 -34 12 -15 10 -22 10 -32 0 -17
-17 -48 -15 -48 3 0 43 86 44 132 1z m1655 0 c-4 -9 -11 -16 -17 -16 -17 0
-24 31 -9 41 18 11 34 -5 26 -25z m659 7 c-10 -10 -19 5 -10 18 6 11 8 11 12
0 2 -7 1 -15 -2 -18z m-1148 1 c31 -15 44 -44 20 -44 -14 0 -58 40 -58 52 0
11 2 10 38 -8z m1644 1 c0 -5 -5 -11 -11 -13 -6 -2 -11 4 -11 13 0 9 5 15 11
13 6 -2 11 -8 11 -13z m-2332 -3 c0 -5 -9 -17 -20 -27 -23 -21 -26 -14 -8 15
13 20 28 27 28 12z m1646 -12 c10 0 14 -12 14 -40 0 -45 -14 -56 -55 -46 -21
5 -25 12 -25 45 0 39 12 53 38 45 8 -2 20 -4 28 -4z m234 -16 c0 -8 -4 -12
-10 -9 -5 3 -10 13 -10 21 0 8 5 12 10 9 6 -3 10 -13 10 -21z m-1057 -26 c27
-14 67 -50 67 -60 0 -14 -76 -8 -96 7 -10 8 -15 15 -10 15 5 0 3 7 -5 16 -10
13 -10 17 2 25 18 11 16 11 42 -3z m1187 -13 c13 -14 29 -25 36 -25 7 0 18 -9
24 -20 7 -13 21 -20 40 -20 17 0 30 -4 30 -9 0 -15 -61 -21 -122 -12 -62 8
-88 21 -45 21 34 0 34 10 2 40 -14 13 -25 29 -25 37 0 22 35 15 60 -12z
m-2905 -16 c39 -35 35 -56 -9 -45 -32 8 -56 32 -56 57 0 28 24 23 65 -12z
m574 4 c20 -16 39 -27 43 -26 4 2 9 -6 13 -16 3 -11 13 -22 21 -25 8 -3 12
-10 9 -16 -8 -13 -52 -13 -60 0 -3 6 -15 10 -26 10 -10 0 -19 7 -19 15 0 9 -7
18 -15 21 -8 4 -15 13 -15 20 0 8 -7 17 -15 20 -22 9 -18 24 7 24 11 0 37 -12
57 -27z m-1154 -3 c10 -11 26 -20 37 -20 10 0 18 -7 18 -15 0 -8 10 -20 22
-26 21 -11 21 -12 3 -25 -14 -11 -23 -11 -49 0 -17 7 -37 11 -44 9 -7 -3 -10
1 -7 9 3 8 -6 27 -20 44 -14 16 -25 32 -25 37 0 15 48 6 65 -13z m3401 -59
c-8 -13 -36 -15 -36 -3 0 4 5 13 12 20 14 14 34 0 24 -17z m-3446 -1 c0 -11
-6 -20 -14 -20 -9 0 -12 7 -9 20 3 11 9 20 14 20 5 0 9 -9 9 -20z m1140 -2 c0
-18 -9 -22 -45 -18 -26 3 -27 4 -19 23 9 23 64 20 64 -5z m-1180 -2 c0 -13
-29 -31 -37 -23 -2 2 -1 12 3 21 8 20 34 21 34 2z m1440 -6 c0 -5 -4 -10 -10
-10 -5 0 -10 5 -10 10 0 6 5 10 10 10 6 0 10 -4 10 -10z m101 -13 c-13 -13
-26 -3 -16 12 3 6 11 8 17 5 6 -4 6 -10 -1 -17z m2258 -49 c9 -26 65 -78 83
-78 13 0 18 -6 16 -17 -3 -14 -12 -17 -38 -16 -45 3 -45 3 -112 -3 -44 -5 -59
-10 -63 -24 -7 -22 21 -70 40 -70 7 0 15 -9 18 -20 3 -12 14 -20 26 -20 14 0
21 -6 21 -20 0 -34 -46 -30 -76 7 -17 20 -31 26 -64 26 -23 0 -46 -5 -53 -12
-17 -17 -35 -13 -42 10 -5 15 1 29 21 50 26 27 27 29 10 48 -23 26 -4 37 35
21 29 -12 32 -11 70 26 32 31 39 45 39 77 0 38 0 39 33 32 17 -4 34 -12 36
-17z m-2336 -5 c4 -2 7 -10 7 -17 0 -17 52 -63 76 -68 11 -2 19 -10 19 -18 0
-12 -17 -15 -95 -14 -98 2 -130 -6 -130 -32 0 -21 30 -64 45 -64 7 0 15 -9 18
-20 3 -12 14 -20 27 -20 20 0 49 -24 50 -40 0 -3 -18 -4 -40 -2 -30 3 -45 11
-57 28 -13 20 -23 24 -69 24 -32 0 -54 -4 -54 -11 0 -18 -45 -5 -48 14 -2 11
8 31 22 46 25 26 28 61 5 61 -5 0 -9 5 -9 10 0 6 9 10 19 10 11 0 23 -4 26
-10 13 -21 44 -9 80 31 30 33 36 47 32 69 -4 15 -3 31 1 34 6 6 58 -1 75 -11z
m-1134 -34 c18 -22 44 -44 58 -50 13 -5 23 -15 20 -22 -4 -14 -47 -17 -101 -5
-24 5 -43 5 -51 -2 -6 -5 -14 -7 -18 -4 -11 11 -47 -17 -47 -37 0 -29 18 -59
36 -59 8 0 20 -11 26 -25 8 -18 17 -24 30 -19 13 4 18 0 18 -14 0 -34 -31 -35
-65 -2 -34 33 -67 38 -121 18 -26 -9 -36 -9 -49 2 -14 12 -13 16 10 40 27 28
32 59 13 78 -19 19 -3 24 40 11 38 -11 41 -10 77 22 33 30 36 38 32 71 -5 37
-4 38 27 38 26 0 39 -8 65 -41z m3079 -327 c2 -7 -3 -12 -12 -12 -9 0 -16 7
-16 16 0 17 22 14 28 -4z m-3004 0 c6 -10 -3 -23 -29 -42 -16 -11 -17 -11 -7
0 6 8 12 22 12 32 0 18 15 25 24 10z m678 -8 c17 -6 32 -33 24 -42 -7 -6 -66
38 -66 50 0 5 6 7 13 4 6 -3 20 -9 29 -12z m478 1 c0 -19 -31 -56 -42 -49 -13
9 -9 24 7 24 8 0 15 9 15 20 0 11 5 20 10 20 6 0 10 -7 10 -15z m2340 5 c0 -5
-4 -10 -10 -10 -5 0 -10 5 -10 10 0 6 5 10 10 10 6 0 10 -4 10 -10z m-3806
-89 c11 -12 25 -21 33 -21 7 0 13 -9 13 -20 0 -14 7 -20 24 -20 13 0 29 -7 36
-15 11 -13 10 -14 -4 -9 -9 3 -23 1 -30 -6 -11 -9 -20 -9 -37 1 -21 11 -71 13
-131 5 -32 -4 -32 -3 -17 26 9 16 13 18 20 7 12 -20 21 -5 21 38 0 58 27 63
72 14z m1150 7 c25 -18 43 -37 42 -43 -4 -15 -45 -18 -61 -5 -8 7 -26 9 -40 6
-14 -4 -25 -2 -25 4 0 5 5 10 11 10 6 0 9 7 5 15 -6 18 2 45 15 45 5 0 29 -15
53 -32z m2333 12 c10 -11 25 -20 35 -20 27 0 22 -29 -6 -36 -25 -6 -86 19 -86
35 0 5 -3 16 -6 25 -9 24 42 21 63 -4z m-3677 -140 c0 -5 -4 -10 -10 -10 -5 0
-10 5 -10 10 0 6 5 10 10 10 6 0 10 -4 10 -10z m437 -50 c19 -21 43 -40 56
-42 14 -2 22 -10 22 -23 0 -16 -6 -19 -35 -17 -52 4 -131 2 -163 -4 -27 -6
-28 -4 -18 15 6 11 19 24 28 29 9 6 17 25 18 48 3 50 1 47 32 39 15 -3 42 -24
60 -45z m-179 -95 c17 -9 34 -24 37 -34 3 -10 19 -30 35 -45 17 -14 30 -31 30
-36 0 -6 9 -10 20 -10 24 0 27 -25 3 -34 -11 -4 -28 4 -49 25 -35 34 -32 33
-141 13 -29 -5 -33 -4 -33 15 0 11 11 28 25 37 28 19 32 36 10 54 -35 29 12
40 63 15z m262 -240 c0 -8 -4 -15 -10 -15 -5 0 -10 7 -10 15 0 8 5 15 10 15 6
0 10 -7 10 -15z m-325 -77 c15 -13 38 -33 50 -46 14 -13 29 -20 39 -16 9 3 16
3 16 -1 0 -13 -29 -35 -47 -35 -33 0 -106 62 -118 100 -9 28 25 27 60 -2z
m-88 -65 c4 -11 -26 -27 -35 -19 -2 3 -2 12 2 21 6 18 27 16 33 -2z m282 -59
c17 -4 31 -11 31 -17 0 -18 63 -77 82 -77 12 0 18 -7 18 -21 0 -20 -4 -20 -81
-16 -93 6 -139 -5 -139 -35 0 -30 19 -58 40 -58 12 0 20 -8 22 -22 2 -18 9
-23 31 -21 17 1 27 -3 27 -12 0 -7 6 -16 13 -18 6 -3 -10 -4 -37 -2 -35 2 -54
8 -65 23 -18 23 -79 28 -119 9 -18 -8 -26 -7 -38 5 -14 13 -12 18 12 48 22 26
25 35 16 50 -15 25 -5 31 40 24 35 -6 41 -3 74 32 31 34 35 43 30 77 -7 39 -5
40 43 31z m1289 -402 c2 -346 4 -404 17 -408 19 -8 19 -31 0 -41 -11 -7 -15
-35 -17 -123 l-3 -115 -247 0 c-151 0 -251 4 -257 10 -9 9 -14 430 -12 963 l1
122 258 -2 257 -3 3 -403z m-1158 18 c0 -11 -4 -20 -10 -20 -5 0 -10 9 -10 20
0 11 5 20 10 20 6 0 10 -9 10 -20z m-315 -80 c15 -16 32 -27 36 -24 4 2 10 -4
14 -15 3 -12 17 -21 32 -23 15 -2 28 -8 30 -14 5 -15 -76 -17 -93 -3 -9 8 -36
9 -79 4 -61 -6 -65 -5 -65 14 0 12 6 21 15 21 8 0 15 -7 15 -15 0 -8 7 -15 16
-15 14 0 16 8 10 50 -6 48 -6 50 17 50 13 0 36 -13 52 -30z m198 -67 c3 -5
-10 -9 -29 -10 -19 -1 -32 3 -29 8 7 11 52 12 58 2z m27 -79 c0 -16 52 -62 75
-66 11 -2 20 -10 20 -18 0 -12 -19 -15 -98 -16 -119 -2 -139 -13 -113 -63 9
-17 22 -31 30 -31 7 0 18 -12 24 -26 9 -19 17 -24 32 -19 12 4 20 2 20 -5 0
-6 11 -16 25 -22 35 -16 31 -28 -6 -18 -16 5 -37 6 -45 3 -8 -3 -26 8 -43 26
-26 28 -34 31 -73 27 -23 -3 -55 -8 -70 -12 -40 -9 -47 18 -14 56 24 30 25 32
10 56 -16 23 -15 24 5 24 12 0 30 -6 41 -12 17 -11 24 -8 56 22 49 48 57 65
43 91 -8 16 -8 23 0 29 15 9 81 -12 81 -26z m416 -1 c7 -27 -14 -53 -42 -53
-16 0 -44 28 -44 44 0 10 38 28 72 35 4 0 11 -11 14 -26z m-192 -337 c15 -13
26 -28 26 -33 0 -6 6 -16 14 -22 12 -10 19 -8 35 8 12 12 29 21 40 21 21 0 83
-39 88 -56 5 -15 -136 -24 -159 -10 -9 6 -21 7 -25 3 -4 -5 -2 -12 5 -16 10
-6 7 -12 -12 -24 -43 -28 -76 -17 -61 21 6 16 7 16 16 0 12 -22 33 -24 26 -3
-4 8 -2 17 3 20 17 11 11 25 -14 35 -28 10 -50 45 -42 66 8 21 32 17 60 -10z
m-129 -6 c8 -12 -34 -60 -52 -60 -19 0 -16 14 7 28 11 7 20 19 20 27 0 17 16
20 25 5z m195 -10 c0 -5 -4 -10 -10 -10 -5 0 -10 5 -10 10 0 6 5 10 10 10 6 0
10 -4 10 -10z m-516 -74 c13 -12 31 -26 40 -29 9 -4 16 -13 16 -21 0 -9 12
-18 28 -22 15 -3 32 -7 37 -8 6 -2 -10 -6 -34 -11 -29 -5 -51 -3 -67 5 -19 11
-26 11 -39 0 -12 -10 -18 -10 -30 0 -18 15 -20 47 -2 53 9 3 7 9 -5 24 -24 26
-23 33 7 33 14 0 37 -11 49 -24z m-81 -65 c3 -13 -1 -21 -14 -24 -24 -6 -34 9
-19 28 17 20 27 19 33 -4z m1425 -62 c17 -6 34 -18 37 -28 8 -26 60 -60 95
-63 30 -2 59 -32 46 -46 -3 -3 -45 1 -92 9 -47 9 -87 11 -90 7 -3 -5 -14 -8
-23 -6 -19 3 -71 -21 -71 -32 0 -15 42 -60 56 -60 8 0 14 -9 14 -20 0 -15 7
-20 25 -20 29 0 45 -28 24 -41 -23 -15 -38 -10 -65 20 -22 25 -33 29 -72 29
-26 0 -52 -5 -59 -10 -15 -12 -53 -1 -53 15 0 6 14 25 31 43 l31 32 -20 18
c-12 10 -19 21 -16 26 7 11 52 10 59 -2 12 -19 34 -10 70 27 31 32 35 42 31
68 -4 17 -3 34 1 38 8 9 4 9 41 -4z m615 0 c9 0 17 -8 17 -17 1 -33 44 -69 86
-70 49 -2 77 -32 43 -44 -12 -5 -45 -4 -74 1 -63 12 -155 5 -173 -13 -19 -19
10 -76 39 -76 11 0 18 -4 15 -9 -10 -16 6 -42 22 -36 8 3 21 -3 28 -12 22 -30
26 -29 -73 -24 -14 0 -23 4 -20 7 3 4 2 15 -4 25 -7 14 -21 19 -52 19 -23 0
-48 -4 -56 -9 -16 -10 -41 -4 -41 11 0 6 11 24 25 40 25 29 25 31 9 49 -27 30
-5 44 41 28 37 -14 37 -14 72 26 24 28 34 48 33 70 -3 46 -2 48 23 40 12 -4
30 -7 40 -6z m571 1 c14 -5 26 -16 26 -23 0 -22 38 -51 82 -62 52 -13 70 -38
46 -62 -16 -16 -19 -16 -36 0 -10 9 -26 17 -36 17 -9 0 -26 5 -37 10 -11 6
-25 7 -32 3 -6 -4 -30 -9 -52 -10 -57 -4 -71 -22 -50 -63 10 -19 22 -30 30
-26 9 3 15 -3 17 -17 2 -14 11 -23 26 -25 12 -2 22 -7 22 -12 0 -4 11 -11 25
-14 37 -9 32 -30 -6 -22 -17 3 -44 6 -59 6 -22 0 -29 6 -34 26 l-7 27 -85 -7
c-71 -6 -84 -5 -84 8 0 8 14 24 30 36 33 24 38 41 15 60 -26 22 -2 34 38 19
35 -12 37 -12 72 27 32 34 36 44 32 77 -6 41 6 47 57 27z m585 -2 c6 -7 22
-28 37 -45 19 -25 34 -33 57 -33 29 0 67 -23 67 -42 0 -11 -97 -10 -118 1 -21
11 -128 -3 -147 -19 -13 -10 -12 -16 0 -40 8 -16 23 -31 34 -35 10 -3 21 -15
24 -27 4 -13 11 -19 21 -15 8 3 20 0 26 -8 6 -8 21 -15 32 -17 12 -2 23 -9 26
-15 3 -9 -10 -12 -47 -10 -42 3 -57 9 -85 36 -28 27 -37 31 -53 22 -11 -5 -30
-7 -41 -4 -12 3 -28 1 -35 -5 -8 -7 -19 -6 -37 3 l-24 13 34 32 c30 28 32 34
21 52 -18 29 0 45 34 30 24 -11 31 -9 72 25 42 35 45 40 40 75 -5 36 -4 38 24
38 15 0 33 -6 38 -12z m602 -12 c15 -33 57 -61 101 -70 32 -6 57 -31 44 -43
-3 -3 -33 -1 -68 3 -35 5 -70 7 -78 6 -8 -1 -33 -3 -55 -5 -51 -4 -65 -13 -65
-41 0 -26 17 -46 41 -46 11 0 19 -9 21 -22 2 -12 12 -25 24 -28 30 -8 83 -49
63 -50 -9 0 -19 3 -22 7 -4 4 -32 6 -62 5 -42 -1 -55 3 -55 14 0 8 5 14 11 14
8 0 7 5 -2 16 -10 12 -24 14 -58 10 -106 -14 -117 -9 -76 34 25 26 28 33 17
50 -7 11 -12 24 -12 30 0 14 36 13 60 -2 18 -12 25 -9 57 26 31 32 37 46 36
78 -2 37 -1 38 33 38 27 0 37 -5 45 -24z m-3505 4 c13 -5 24 -15 24 -22 0 -25
43 -58 76 -58 23 0 37 -6 44 -19 16 -32 13 -34 -42 -26 -29 5 -80 7 -112 6
-100 -4 -120 -29 -67 -81 16 -16 31 -36 35 -46 3 -9 12 -14 20 -11 8 3 24 -5
37 -19 l22 -24 -41 0 c-34 0 -47 6 -69 30 -29 33 -49 36 -104 16 -19 -7 -40
-11 -47 -8 -19 6 -14 37 8 57 21 19 27 55 10 55 -5 0 -10 7 -10 15 0 17 45 21
55 5 11 -17 24 -11 65 30 41 41 46 55 31 80 -6 8 -8 17 -6 20 6 10 45 9 71 0z
m563 4 c20 -4 31 -13 31 -23 0 -26 41 -56 85 -61 29 -4 41 -10 43 -24 5 -24
-17 -37 -39 -25 -10 5 -27 9 -39 9 -12 0 -38 8 -57 17 -33 15 -36 15 -45 0 -5
-9 -19 -17 -31 -17 -12 0 -29 -4 -37 -10 -12 -8 -12 -13 3 -44 9 -20 21 -36
27 -36 6 0 15 -11 20 -24 6 -17 14 -23 28 -19 12 3 24 -4 34 -19 l15 -23 -58
0 c-48 0 -58 3 -54 15 9 31 -10 43 -61 38 -27 -3 -56 -8 -64 -12 -8 -3 -22 -2
-30 4 -12 8 -9 15 18 43 36 37 40 52 15 66 -14 8 -15 12 -6 22 9 9 17 8 37 -5
14 -9 28 -16 31 -16 3 0 24 18 47 40 36 36 40 45 35 75 -6 38 -3 40 52 29z
m1841 -214 c0 -5 -4 -10 -10 -10 -5 0 -10 5 -10 10 0 6 5 10 10 10 6 0 10 -4
10 -10z m-2194 -147 c18 -16 34 -34 34 -40 0 -17 -6 -16 -34 2 -36 24 -97 17
-123 -14 -15 -16 -26 -22 -32 -16 -15 16 42 76 81 85 18 4 34 8 36 9 2 1 19
-11 38 -26z m578 -14 c33 -31 29 -53 -4 -24 -19 17 -37 19 -100 13 -32 -4 -38
24 -8 38 34 16 79 5 112 -27z m592 6 c25 -23 32 -55 13 -55 -6 0 -13 9 -16 20
-6 21 -26 25 -92 21 -42 -3 -59 19 -28 36 30 16 94 5 123 -22z m589 -5 c34
-35 30 -60 -5 -32 -32 25 -69 33 -91 22 -22 -12 -49 -3 -49 16 0 40 105 35
145 -6z m564 14 c17 -14 31 -32 31 -40 0 -18 -2 -18 -45 7 -31 18 -39 20 -65
9 -44 -18 -66 3 -34 34 24 25 78 20 113 -10z m594 -3 c30 -29 35 -51 12 -51
-8 0 -15 4 -15 10 0 16 -60 42 -73 32 -7 -5 -22 -13 -34 -16 -18 -6 -23 -3
-23 11 0 30 20 43 64 41 29 -1 49 -9 69 -27z m592 -10 c14 -19 25 -36 25 -38
0 -8 -20 -2 -32 10 -29 27 -68 41 -80 29 -7 -7 -20 -12 -30 -12 -10 0 -21 -7
-24 -15 -6 -15 -34 -21 -34 -7 0 4 13 22 29 39 25 28 35 32 75 30 39 -2 49 -7
71 -36z m-1321 -36 c-4 -8 -8 -15 -10 -15 -2 0 -4 7 -4 15 0 8 4 15 10 15 5 0
7 -7 4 -15z m-584 -5 c0 -5 -4 -10 -10 -10 -5 0 -10 5 -10 10 0 6 5 10 10 10
6 0 10 -4 10 -10z"/>
<path d="M2530 3470 c0 -5 5 -10 10 -10 6 0 10 5 10 10 0 6 -4 10 -10 10 -5 0
-10 -4 -10 -10z"/>
<path d="M1740 2476 c0 -17 27 -29 35 -16 4 6 3 15 0 20 -9 15 -35 12 -35 -4z"/>
<path d="M1760 715 c0 -8 5 -15 10 -15 6 0 10 7 10 15 0 8 -4 15 -10 15 -5 0
-10 -7 -10 -15z"/>
<path d="M3538 3559 c-28 -16 -41 -48 -27 -65 16 -20 29 -18 29 5 0 49 30 68
50 32 13 -26 -7 -71 -32 -71 -28 0 -21 -17 12 -29 36 -12 41 -48 10 -76 -19
-17 -20 -17 -35 18 -10 25 -20 35 -30 31 -35 -14 0 -69 47 -76 49 -8 78 16 78
63 0 21 -5 41 -11 45 -7 4 -9 22 -4 50 5 35 2 47 -14 63 -23 23 -46 26 -73 10z"/>
<path d="M4689 2989 c-32 -34 -37 -60 -14 -79 21 -18 38 -2 31 30 -7 36 16 59
39 40 28 -23 18 -72 -21 -110 -20 -19 -42 -47 -50 -63 -18 -34 -9 -39 67 -35
54 3 54 3 57 38 3 33 3 34 -15 17 -20 -18 -63 -23 -63 -8 0 5 18 27 40 49 48
48 53 89 15 127 -32 33 -51 31 -86 -6z"/>
<path d="M2582 1473 c-9 -21 -25 -45 -34 -55 -9 -9 -24 -29 -34 -43 -15 -23
-15 -28 -3 -36 21 -13 33 -6 40 28 8 38 18 55 30 48 14 -9 11 -42 -7 -59 -10
-10 -11 -16 -4 -16 8 0 10 -11 6 -34 -6 -33 -6 -34 25 -27 29 6 32 10 33 41 0
66 -16 190 -25 190 -5 0 -17 -17 -27 -37z"/>
<path d="M4746 1135 c-16 -12 -17 -17 -6 -30 19 -23 13 -145 -7 -167 -14 -16
-14 -18 0 -24 28 -10 72 0 67 16 -2 8 -7 60 -10 114 -3 55 -9 101 -15 102 -5
2 -19 -3 -29 -11z"/>
<path d="M2540 1091 c0 -32 3 -39 16 -34 18 7 16 64 -3 71 -9 2 -13 -9 -13
-37z"/>
<path d="M2610 930 c0 -5 5 -10 10 -10 6 0 10 5 10 10 0 6 -4 10 -10 10 -5 0
-10 -4 -10 -10z"/>
<path d="M2654 863 c-3 -10 -10 -28 -14 -40 -10 -25 0 -36 24 -27 10 4 16 18
16 39 0 38 -17 56 -26 28z"/>
</g>
</svg>
