<?xml version="1.0" standalone="no"?>
<!DOCTYPE svg PUBLIC "-//W3C//DTD SVG 20010904//EN"
 "http://www.w3.org/TR/2001/REC-SVG-20010904/DTD/svg10.dtd">
<svg version="1.0" xmlns="http://www.w3.org/2000/svg"
 width="640.000000pt" height="540.000000pt" viewBox="0 0 640.000000 540.000000"
 preserveAspectRatio="xMidYMid meet">
<metadata>
Created by potrace 1.16, written by Peter Selinger 2001-2019
</metadata>
<g transform="translate(0.000000,540.000000) scale(0.100000,-0.100000)"
fill="#000000" stroke="none">
<path d="M444 2808 c3 -1426 5 -2641 5 -2700 l1 -108 50 0 50 0 2 463 c0 254
-1 1247 -3 2207 -2 960 -4 1967 -4 2238 l0 492 -53 0 -53 0 5 -2592z"/>
<path d="M3910 5146 c-25 -16 -46 -45 -69 -92 -18 -38 -41 -78 -51 -89 -10
-11 -23 -33 -29 -48 -7 -17 -23 -32 -39 -38 -32 -11 -62 -64 -61 -107 1 -40
49 -121 84 -140 17 -9 32 -20 33 -24 5 -12 30 -10 52 4 10 7 23 9 27 5 4 -5 1
-12 -7 -18 -29 -18 12 -29 113 -29 73 0 104 4 122 16 15 10 34 14 49 10 26 -6
76 26 76 50 0 22 -40 17 -60 -8 -16 -20 -22 -21 -39 -10 -11 6 -32 12 -46 12
-22 0 -25 4 -25 33 0 25 -6 37 -24 46 -13 7 -38 34 -56 58 -26 39 -31 53 -28
92 3 44 2 46 -25 49 -35 4 -86 -18 -93 -40 -3 -10 -3 -27 1 -37 3 -11 1 -28
-6 -39 -9 -14 -9 -27 -2 -48 6 -16 9 -44 8 -62 -2 -17 1 -32 6 -32 5 0 9 -4 9
-10 0 -5 -7 -10 -15 -10 -8 0 -15 6 -15 14 0 7 -9 16 -20 19 -18 5 -20 13 -20
84 1 53 6 88 18 110 9 18 34 65 55 105 21 40 59 94 85 121 43 44 50 47 97 47
28 0 62 -5 76 -12 31 -14 89 -97 89 -126 0 -11 5 -24 10 -27 6 -3 10 -17 10
-30 0 -13 5 -27 10 -30 6 -3 10 -44 10 -90 0 -82 12 -114 31 -84 16 25 -2 180
-27 238 -13 29 -24 61 -24 71 0 10 -7 24 -16 31 -9 7 -20 23 -25 36 -20 54
-182 73 -249 29z"/>
<path d="M1300 5122 c0 -7 -11 -12 -24 -12 -35 0 -41 -17 -9 -23 32 -6 62 18
44 36 -8 8 -11 8 -11 -1z"/>
<path d="M5205 5111 c-8 -14 8 -21 49 -19 20 1 42 -4 48 -10 14 -14 48 -16 48
-3 0 5 -6 13 -12 18 -18 14 -126 25 -133 14z"/>
<path d="M5134 5063 c-10 -16 -18 -44 -19 -64 -1 -24 -10 -47 -28 -68 -15 -18
-27 -39 -27 -47 0 -8 -11 -37 -25 -64 -31 -60 -31 -61 -1 -108 19 -31 38 -44
97 -67 62 -24 91 -30 173 -32 72 -1 107 2 127 13 16 8 29 18 29 23 0 15 -29
33 -40 26 -12 -8 -71 13 -82 29 -9 13 -40 -13 -31 -27 3 -6 1 -7 -6 -3 -6 4
-18 3 -26 -4 -9 -8 -15 -8 -20 0 -4 6 -15 8 -25 5 -20 -6 -110 51 -110 71 0 6
-9 23 -20 37 -16 20 -18 31 -10 51 11 29 40 35 59 12 9 -10 24 -13 49 -9 49 7
59 18 39 41 -9 10 -17 28 -17 39 0 12 -8 23 -20 26 -12 3 -20 14 -20 25 0 12
-5 24 -11 28 -7 4 -9 22 -4 50 7 51 -4 57 -31 17z"/>
<path d="M1180 5050 c-20 -16 -23 -22 -14 -37 17 -28 81 -29 110 -2 23 21 32
49 17 49 -4 0 -17 -10 -30 -22 -19 -18 -27 -20 -41 -11 -9 6 -16 18 -16 27 1
9 1 16 0 16 0 0 -12 -9 -26 -20z"/>
<path d="M5380 5018 c0 -16 30 -48 46 -49 5 0 26 -22 47 -50 20 -27 44 -49 52
-49 12 0 15 -16 15 -79 0 -74 -2 -81 -30 -111 -36 -38 -36 -40 -7 -39 12 0 32
13 45 30 22 27 23 37 20 119 l-4 90 -42 36 c-23 19 -42 41 -42 48 0 19 -41 54
-72 61 -21 5 -28 3 -28 -7z"/>
<path d="M1416 4985 c-3 -8 -3 -22 0 -30 8 -20 44 -19 44 1 0 11 -6 14 -20 9
-22 -7 -26 5 -8 23 8 8 8 12 1 12 -6 0 -13 -7 -17 -15z"/>
<path d="M5767 4983 c-20 -3 -27 -9 -25 -21 6 -34 88 -21 88 13 0 15 -9 16
-63 8z"/>
<path d="M6043 4937 c-13 -13 -23 -30 -23 -40 0 -19 -2 -20 -24 -11 -9 3 -16
12 -16 20 0 10 -16 12 -63 10 -50 -2 -68 -8 -88 -27 -24 -22 -25 -26 -12 -56
12 -30 17 -33 58 -33 25 0 45 2 45 5 0 3 -12 16 -27 29 -17 15 -24 29 -20 40
15 38 67 26 67 -16 0 -10 7 -21 15 -24 19 -8 20 -30 1 -37 -9 -4 -13 -20 -11
-54 1 -42 4 -48 23 -47 87 3 92 4 132 44 22 22 44 40 50 40 5 0 12 17 16 38 3
20 15 47 26 58 28 31 9 36 -53 14 -41 -15 -55 -17 -61 -7 -13 20 -9 35 11 42
11 3 25 12 31 20 22 26 -51 18 -77 -8z m14 -119 c13 -12 23 -32 23 -45 0 -19
-5 -23 -28 -23 -15 0 -38 7 -51 17 -20 14 -22 18 -9 27 8 6 17 19 21 29 8 22
16 22 44 -5z m58 12 c3 -5 -1 -10 -9 -10 -9 0 -16 5 -16 10 0 6 4 10 9 10 6 0
13 -4 16 -10z"/>
<path d="M1374 4926 c-4 -9 -4 -25 -1 -36 3 -11 1 -23 -4 -26 -5 -3 -9 -12 -9
-21 0 -12 7 -14 35 -9 29 6 38 3 63 -24 35 -36 42 -37 72 -5 12 13 38 29 56
35 30 10 34 16 34 45 0 35 -23 65 -35 45 -4 -6 -1 -17 5 -25 10 -12 9 -16 -4
-21 -9 -3 -23 -4 -31 0 -9 3 -15 0 -15 -9 0 -15 -29 -35 -50 -35 -12 0 -10 29
6 79 10 33 -15 24 -36 -13 -20 -38 -34 -38 -40 -1 -6 33 -36 47 -46 21z"/>
<path d="M1247 4870 c-20 -21 -37 -45 -37 -54 0 -21 6 -20 42 5 l30 22 -7 -24
c-9 -30 -24 -45 -52 -54 -17 -5 -23 -2 -23 10 0 10 -7 15 -17 13 -25 -5 -25
-19 -2 -57 l20 -33 24 22 c16 15 30 20 45 15 17 -5 29 1 56 30 37 41 42 55 19
55 -9 0 -19 8 -22 18 -4 9 -14 29 -23 43 l-15 27 -38 -38z"/>
<path d="M3944 4864 c3 -9 6 -18 6 -20 0 -2 7 -4 15 -4 8 0 15 9 15 20 0 14
-7 20 -21 20 -15 0 -19 -4 -15 -16z"/>
<path d="M1180 4860 c0 -5 4 -10 9 -10 6 0 13 5 16 10 3 6 -1 10 -9 10 -9 0
-16 -4 -16 -10z"/>
<path d="M4080 4865 c0 -5 -7 -19 -15 -29 -12 -16 -17 -17 -30 -6 -13 11 -20
11 -41 0 -33 -18 -29 -55 6 -56 26 -1 53 -9 80 -23 25 -13 40 12 31 51 -9 36
-30 80 -31 63z m20 -75 c0 -16 -4 -30 -9 -30 -10 0 -21 47 -13 55 13 13 22 3
22 -25z"/>
<path d="M5176 4808 c-21 -67 -7 -102 35 -91 14 4 25 0 31 -11 12 -22 41 -20
63 5 18 19 18 22 3 47 -9 15 -29 31 -45 36 -15 4 -36 12 -45 17 -24 12 -38 11
-42 -3z"/>
<path d="M1082 4753 c2 -10 10 -18 18 -18 8 0 16 8 18 18 2 12 -3 17 -18 17
-15 0 -20 -5 -18 -17z"/>
<path d="M1320 4730 c0 -5 5 -10 10 -10 6 0 10 5 10 10 0 6 -4 10 -10 10 -5 0
-10 -4 -10 -10z"/>
<path d="M4040 4730 c0 -5 7 -10 16 -10 8 0 12 5 9 10 -3 6 -10 10 -16 10 -5
0 -9 -4 -9 -10z"/>
<path d="M4096 4725 c-19 -14 -14 -35 9 -35 12 0 25 21 25 41 0 13 -12 11 -34
-6z"/>
<path d="M5350 4734 c0 -10 28 -34 39 -34 15 0 14 9 -3 26 -15 14 -36 19 -36
8z"/>
<path d="M6180 4715 c0 -18 37 -38 57 -31 14 6 14 9 -2 26 -21 23 -55 27 -55
5z"/>
<path d="M5730 4630 c0 -23 6 -33 26 -42 17 -8 31 -9 41 -2 22 14 21 29 -5 32
-12 2 -27 12 -32 23 -16 28 -30 23 -30 -11z"/>
<path d="M3223 4459 c9 -6 26 -7 37 -4 11 4 29 0 42 -9 24 -17 58 -21 58 -8 0
22 -29 32 -89 32 -50 -1 -62 -3 -48 -11z"/>
<path d="M4560 4462 c-50 -7 -44 -22 8 -22 31 0 63 -6 76 -16 17 -10 26 -12
31 -4 17 28 -46 51 -115 42z"/>
<path d="M1180 4450 c0 -5 5 -10 10 -10 6 0 10 5 10 10 0 6 -4 10 -10 10 -5 0
-10 -4 -10 -10z"/>
<path d="M1235 4430 c-3 -5 3 -10 15 -10 12 0 18 5 15 10 -3 6 -10 10 -15 10
-5 0 -12 -4 -15 -10z"/>
<path d="M3136 4408 c-9 -17 -16 -47 -16 -67 0 -25 -6 -40 -20 -49 -11 -7 -20
-22 -20 -35 -1 -12 -14 -44 -29 -72 l-29 -50 24 -46 c22 -45 77 -89 110 -89 9
0 25 -5 37 -12 36 -19 204 -22 249 -3 21 8 51 15 67 15 20 0 37 9 55 31 24 28
26 38 26 119 l0 88 -34 20 c-18 11 -44 38 -56 60 -16 28 -35 45 -61 55 -30 12
-39 12 -39 3 0 -15 32 -46 48 -46 6 0 13 -9 17 -20 3 -10 26 -37 51 -58 44
-39 44 -40 44 -107 0 -61 -3 -69 -30 -97 -22 -22 -35 -28 -48 -22 -9 5 -72 9
-139 9 -103 0 -123 3 -132 17 -9 14 -7 17 12 16 12 0 32 -5 45 -11 18 -9 25
-8 32 2 4 8 15 11 23 8 24 -9 15 39 -13 68 -16 17 -34 25 -57 25 -18 0 -33 5
-33 11 0 6 -8 9 -17 7 -21 -4 -35 -65 -22 -90 8 -14 6 -18 -10 -18 -12 0 -23
9 -27 23 -4 12 -15 28 -25 35 -26 18 -26 78 0 92 15 7 23 6 35 -5 16 -16 100
-25 112 -12 9 9 -32 94 -50 104 -25 15 -46 70 -40 102 9 43 -19 42 -40 -1z"/>
<path d="M4458 4397 c-10 -23 -18 -54 -18 -68 0 -14 -9 -34 -20 -44 -11 -10
-20 -28 -20 -40 0 -13 -7 -28 -15 -35 -8 -7 -15 -18 -15 -24 0 -6 -6 -23 -14
-37 -12 -24 -11 -31 8 -65 22 -39 93 -96 112 -90 5 2 21 -2 35 -10 34 -19 218
-19 264 0 18 8 43 12 54 9 14 -4 29 5 51 28 29 32 30 38 30 120 l0 86 -40 32
c-22 17 -47 46 -56 62 -18 36 -94 75 -94 49 0 -14 121 -136 143 -143 14 -5 17
-19 17 -80 0 -70 -1 -74 -35 -107 -34 -33 -35 -33 -55 -15 -15 13 -23 15 -33
6 -8 -6 -17 -8 -20 -5 -3 4 -29 7 -56 8 -59 2 -69 9 -47 31 9 9 16 24 16 33
-1 21 -45 54 -74 56 -25 1 -34 34 -12 42 20 8 21 28 2 43 -8 7 -12 20 -9 31 3
12 -2 22 -16 29 -32 18 -54 72 -41 105 13 36 13 36 -7 36 -12 0 -24 -15 -35
-43z m19 -197 c6 -21 28 -27 38 -10 3 6 10 10 16 10 5 0 9 -4 9 -10 0 -5 -6
-10 -14 -10 -17 0 -26 -21 -26 -60 0 -31 18 -50 50 -53 11 -1 29 -10 38 -21
15 -17 15 -19 1 -13 -9 3 -22 0 -28 -6 -8 -8 -15 -6 -27 11 -8 12 -22 22 -30
22 -8 0 -24 15 -35 34 -11 19 -26 37 -34 40 -18 7 -20 57 -3 74 18 18 39 14
45 -8z"/>
<path d="M5865 4430 c-3 -5 3 -10 15 -10 12 0 18 5 15 10 -3 6 -10 10 -15 10
-5 0 -12 -4 -15 -10z"/>
<path d="M1120 4408 c0 -40 23 -88 42 -88 10 0 18 -4 18 -10 0 -18 41 -33 64
-22 11 5 38 17 59 25 54 24 49 44 -10 42 -27 -1 -55 2 -63 5 -8 4 -32 15 -52
24 -21 8 -38 22 -38 31 0 8 -4 15 -10 15 -5 0 -10 -10 -10 -22z"/>
<path d="M5782 4368 c-19 -19 -14 -33 16 -44 38 -15 90 -6 102 17 13 24 -3 33
-29 17 -16 -10 -23 -9 -39 5 -22 20 -34 21 -50 5z"/>
<path d="M6051 4343 c-5 -10 -8 -31 -8 -46 3 -38 32 -36 46 4 9 28 9 30 -9 24
-11 -4 -20 -2 -20 3 0 6 5 12 12 14 9 3 9 6 1 11 -7 4 -16 0 -22 -10z"/>
<path d="M5985 4250 c-3 -5 -2 -17 3 -27 7 -11 6 -25 -1 -40 -13 -30 -6 -37
26 -22 24 11 30 9 59 -20 17 -17 38 -31 45 -31 7 0 28 14 46 30 19 17 44 30
56 30 21 0 29 24 11 35 -5 3 -7 12 -3 20 3 11 1 13 -10 10 -8 -4 -21 1 -30 9
-16 17 -37 21 -37 8 0 -4 10 -12 21 -17 29 -13 29 -29 2 -33 -13 -2 -23 -9
-23 -17 0 -18 -30 -28 -46 -14 -11 9 -10 16 6 39 25 36 25 50 0 50 -13 0 -24
-10 -30 -25 -5 -14 -16 -25 -24 -25 -7 0 -17 11 -20 25 -6 25 -39 35 -51 15z"/>
<path d="M1260 4210 c0 -5 5 -10 10 -10 6 0 10 5 10 10 0 6 -4 10 -10 10 -5 0
-10 -4 -10 -10z"/>
<path d="M5858 4180 c-21 -22 -38 -45 -38 -50 0 -6 -6 -10 -14 -10 -22 0 -27
-15 -16 -44 13 -34 36 -43 59 -22 14 13 24 14 44 7 14 -5 28 -7 32 -3 3 3 10
0 16 -8 7 -11 8 -7 3 14 -6 23 -2 33 17 48 17 14 20 21 11 25 -7 3 -17 10 -22
17 -5 6 -20 23 -32 38 l-23 27 -37 -39z m42 -25 c0 -10 -24 -55 -29 -55 -3 0
-16 -3 -28 -6 -35 -10 -29 21 7 36 17 7 30 16 30 21 0 5 5 9 10 9 6 0 10 -2
10 -5z"/>
<path d="M1416 4163 c-4 -9 -3 -20 2 -25 11 -11 36 17 27 32 -9 15 -22 12 -29
-7z"/>
<path d="M1507 4164 c-4 -4 -7 -15 -7 -24 0 -9 -11 -23 -25 -30 -18 -9 -23
-19 -19 -32 3 -10 1 -18 -5 -18 -18 0 -12 -46 7 -63 23 -21 76 -22 96 -1 33
33 9 69 -26 38 -19 -18 -20 -18 -34 1 -9 13 -11 22 -4 29 5 5 10 20 10 33 0
17 6 23 21 23 15 0 20 5 17 22 -3 22 -19 33 -31 22z"/>
<path d="M1185 4134 c-15 -15 -14 -18 6 -41 46 -48 107 -65 141 -39 23 17 13
26 -27 26 -37 0 -55 15 -55 47 0 18 -6 23 -24 23 -14 0 -32 -7 -41 -16z"/>
<path d="M1560 4079 c0 -24 23 -21 28 4 2 10 -3 17 -12 17 -10 0 -16 -9 -16
-21z"/>
<path d="M5702 4088 c-8 -8 -9 -15 -1 -25 18 -21 39 -15 39 12 0 27 -18 33
-38 13z"/>
<path d="M5864 3803 c4 -4 19 -9 33 -11 14 -2 39 -10 55 -18 26 -13 29 -13 35
2 3 9 0 20 -8 25 -17 10 -126 12 -115 2z"/>
<path d="M5776 3748 c-9 -17 -16 -44 -16 -61 0 -16 -11 -42 -25 -59 -14 -16
-25 -38 -25 -48 0 -10 -6 -31 -14 -47 -38 -76 -39 -79 -25 -119 15 -41 78 -94
113 -94 12 0 29 -7 40 -15 23 -18 218 -20 250 -3 11 6 37 13 56 15 23 2 44 13
63 33 26 29 27 35 27 129 0 94 -1 100 -22 107 -27 8 -54 38 -73 81 -8 20 -23
35 -39 39 -14 3 -30 12 -37 20 -11 14 -29 10 -29 -6 0 -13 42 -55 63 -63 9 -3
17 -12 17 -20 0 -15 45 -59 78 -76 19 -10 22 -19 22 -80 0 -63 -2 -70 -34
-107 -31 -35 -37 -38 -55 -26 -12 7 -55 13 -96 14 -41 0 -75 3 -75 5 0 3 7 11
15 19 21 21 19 39 -7 68 -25 28 -108 60 -121 47 -4 -4 -9 -31 -9 -60 -1 -40
-5 -51 -16 -46 -7 3 -16 5 -18 5 -2 0 -4 5 -4 11 0 6 -12 25 -26 42 -27 33
-27 68 2 97 14 13 17 12 34 -8 17 -20 22 -21 40 -10 16 10 22 10 28 1 7 -10
12 -10 27 1 19 14 19 15 1 34 -12 14 -16 28 -11 42 5 17 2 23 -15 27 -27 7
-62 74 -49 94 13 22 11 49 -5 49 -8 0 -22 -14 -30 -32z m104 -358 c13 -8 13
-12 -3 -27 -18 -17 -19 -17 -32 1 -23 31 1 48 35 26z"/>
<path d="M1250 3740 c-11 -7 -12 -12 -3 -21 8 -8 14 -6 22 10 12 22 5 27 -19
11z"/>
<path d="M1130 3717 c-8 -12 -18 -32 -22 -45 -6 -20 -4 -22 10 -17 9 4 32 11
50 17 23 6 32 15 32 30 0 14 -5 18 -15 14 -8 -3 -22 -9 -30 -12 -8 -3 -15 -2
-15 4 0 6 5 12 12 14 7 3 8 7 2 11 -5 3 -17 -4 -24 -16z"/>
<path d="M1408 3659 c-13 -17 -22 -41 -21 -52 1 -12 0 -16 -3 -9 -3 6 -12 12
-20 12 -8 0 -14 7 -14 15 0 12 -14 15 -65 15 -57 0 -67 -3 -89 -27 -26 -27
-27 -61 -4 -90 8 -10 62 -12 97 -4 3 1 -8 14 -23 30 -34 35 -32 66 4 66 18 0
26 -6 28 -21 2 -12 12 -30 23 -40 10 -9 19 -23 19 -30 0 -20 38 -4 44 19 5 21
5 21 26 2 30 -27 41 -50 34 -69 -9 -24 -51 -19 -82 9 -28 27 -60 29 -53 4 3
-8 5 -28 5 -46 1 -43 19 -60 48 -45 13 6 44 20 71 32 26 11 47 25 47 31 0 6
14 24 31 41 19 20 29 39 27 53 -2 14 6 30 20 42 l23 18 -25 24 c-14 14 -29 21
-33 17 -4 -4 -1 -11 7 -16 17 -11 16 -12 -33 -29 -29 -10 -41 -10 -52 -1 -18
15 -8 39 21 51 33 12 30 29 -6 29 -21 0 -36 -8 -52 -31z"/>
<path d="M1550 3433 c1 -23 46 -57 55 -43 9 15 -22 60 -40 60 -8 0 -15 -8 -15
-17z"/>
<path d="M1095 3343 c-8 -34 27 -65 59 -53 28 10 36 44 9 36 -15 -5 -23 0 -31
19 -15 32 -28 32 -37 -2z"/>
<path d="M1024 3249 c-17 -21 -29 -685 -14 -704 10 -12 112 -14 613 -15 331 0
791 -2 1022 -3 l420 -2 3 34 c2 18 0 37 -5 41 -4 5 -158 10 -341 12 -184 1
-339 6 -345 10 -10 6 -2 512 9 530 3 4 160 8 349 8 303 0 344 2 349 16 9 23 7
62 -3 68 -5 3 -467 9 -1027 12 -864 6 -1021 5 -1030 -7z m611 -346 c-4 -159
-11 -292 -15 -296 -4 -4 -34 -7 -66 -5 l-59 3 0 57 c0 31 -4 60 -8 64 -13 13
-27 -17 -27 -57 0 -29 -4 -38 -22 -43 -43 -11 -77 -6 -85 12 -4 9 -7 131 -5
270 l3 252 54 0 c53 0 55 -1 57 -27 1 -28 4 -57 7 -80 0 -7 8 -13 16 -13 12 0
15 14 15 68 0 38 3 72 7 75 3 4 35 7 71 7 l64 0 -7 -287z m662 240 c5 -10 8
-56 7 -103 0 -47 -2 -160 -2 -253 l-2 -167 -317 2 -318 3 -1 250 c0 138 1 258
3 268 4 16 27 17 313 17 285 0 310 -1 317 -17z m-982 -248 l0 -240 -45 0 -45
0 -2 229 c-2 160 1 234 9 243 7 9 26 13 47 11 l36 -3 0 -240z m-117 135 c1
-41 -1 -138 -5 -215 l-8 -140 -40 0 -40 0 -3 195 c-1 107 0 205 3 218 5 20 11
23 48 20 l42 -3 3 -75z"/>
<path d="M1453 3008 c-19 -24 -23 -65 -9 -77 17 -14 39 9 30 32 -7 19 10 30
36 22 31 -10 24 -48 -16 -97 -20 -23 -41 -46 -46 -49 -6 -4 -8 -15 -6 -25 3
-16 12 -19 63 -18 57 0 60 1 63 27 4 30 -17 37 -38 12 -15 -18 -40 -20 -40 -4
0 7 18 31 40 55 43 47 49 76 24 112 -17 25 -84 31 -101 10z"/>
<path d="M3916 3201 c-10 -10 -19 -36 -22 -57 -3 -28 -14 -48 -36 -68 -23 -21
-34 -41 -38 -70 -6 -43 -4 -43 -71 -29 -62 12 -89 -39 -48 -91 l21 -27 -26
-49 c-49 -89 -27 -150 54 -150 l35 0 -32 26 c-34 26 -46 75 -22 90 18 11 56
-16 76 -55 22 -44 30 -50 54 -44 23 6 24 11 2 35 -13 15 -14 23 -5 44 7 13 12
40 12 58 0 22 8 40 25 56 14 13 25 29 25 37 0 15 18 17 40 4 8 -6 19 -7 24 -3
6 3 0 9 -12 12 -13 3 -31 19 -40 35 -24 42 -35 48 -51 25 -16 -24 -46 -27 -37
-4 3 9 6 21 6 28 0 17 42 66 56 66 6 0 19 -9 29 -20 23 -25 55 -26 87 -1 13
11 37 23 52 27 l27 6 -20 20 c-13 11 -21 31 -21 52 0 45 -26 66 -82 66 -31 0
-50 -6 -62 -19z m110 -67 c7 -40 1 -50 -38 -59 -19 -5 -32 -1 -48 15 -29 29
-22 50 20 65 54 19 59 18 66 -21z m-148 -221 c-4 -22 -38 -30 -38 -10 0 14 13
24 33 26 5 1 7 -7 5 -16z"/>
<path d="M5870 3158 c-20 -14 -49 -52 -74 -98 -63 -116 -95 -160 -121 -170
-14 -5 -25 -16 -25 -24 0 -7 -7 -19 -15 -26 -22 -18 -18 -72 10 -127 26 -53
42 -70 93 -99 32 -18 34 -18 47 -1 13 18 14 17 17 -5 3 -23 5 -23 130 -23 135
0 168 10 138 40 -9 8 -26 16 -40 18 -21 3 -26 10 -28 40 -2 24 -10 41 -23 47
-10 6 -19 7 -19 3 -1 -9 -30 27 -30 36 0 14 61 9 67 -5 4 -11 9 -12 19 -3 20
16 17 32 -9 57 -30 29 -51 28 -75 -3 -19 -24 -20 -24 -37 -5 -15 17 -17 26 -8
55 6 19 9 44 6 55 -3 11 -1 20 4 20 5 0 10 13 10 30 0 33 -14 30 -28 -7 -6
-18 -15 -24 -32 -21 -12 2 -29 -4 -38 -13 -9 -9 -21 -18 -27 -20 -12 -5 -19
-149 -9 -194 9 -40 -6 -64 -30 -49 -15 9 -19 27 -21 95 -3 75 6 117 28 139 3
3 23 40 45 84 28 55 58 95 103 137 61 57 62 59 34 59 -16 0 -44 -10 -62 -22z"/>
<path d="M6030 3171 c0 -5 16 -21 35 -35 19 -15 35 -34 35 -42 0 -7 4 -14 9
-14 5 0 14 -15 21 -32 6 -18 16 -41 21 -50 5 -10 9 -29 9 -42 0 -14 5 -28 10
-31 6 -3 10 -46 10 -95 0 -49 4 -91 9 -94 40 -25 42 175 3 255 -12 25 -24 56
-27 69 -8 39 -86 120 -117 120 -10 0 -18 -4 -18 -9z"/>
<path d="M4306 3127 c-16 -12 -16 -14 -2 -26 22 -18 23 -133 1 -151 -26 -21
-17 -30 31 -30 40 0 45 2 38 18 -4 9 -10 57 -14 107 -5 95 -15 110 -54 82z"/>
<path d="M5908 3059 c-16 -9 -16 -11 3 -30 24 -24 24 -23 33 14 7 29 -5 35
-36 16z"/>
<path d="M4130 3001 c0 -30 4 -41 16 -41 11 0 14 9 12 37 -4 52 -28 56 -28 4z"/>
<path d="M5957 3021 c-4 -16 -1 -18 14 -13 22 8 25 26 6 30 -8 2 -17 -6 -20
-17z"/>
<path d="M4045 2970 c-15 -16 -16 -22 -5 -35 22 -27 46 -172 31 -194 -12 -19
-33 -3 -26 20 4 13 2 19 -8 19 -8 0 -24 16 -36 35 -20 35 -61 49 -61 22 0 -25
-31 -77 -46 -77 -8 0 -14 -8 -14 -19 0 -14 10 -19 46 -24 31 -3 54 -13 73 -31
31 -30 37 -31 74 -13 30 13 40 44 36 109 -1 24 1 53 5 66 5 15 1 30 -13 48
-12 15 -21 41 -21 60 0 39 -9 42 -35 14z"/>
<path d="M5970 2970 c0 -5 7 -10 15 -10 8 0 15 5 15 10 0 6 -7 10 -15 10 -8 0
-15 -4 -15 -10z"/>
<path d="M5920 2930 c0 -5 4 -10 9 -10 6 0 13 5 16 10 3 6 -1 10 -9 10 -9 0
-16 -4 -16 -10z"/>
<path d="M4130 2905 c0 -8 7 -15 15 -15 8 0 15 7 15 15 0 8 -7 15 -15 15 -8 0
-15 -7 -15 -15z"/>
<path d="M5914 2875 c-3 -8 -3 -19 1 -25 11 -18 25 -11 25 15 0 27 -17 34 -26
10z"/>
<path d="M4200 2810 c0 -5 5 -10 10 -10 6 0 10 5 10 10 0 6 -4 10 -10 10 -5 0
-10 -4 -10 -10z"/>
<path d="M4254 2753 c-19 -59 -28 -73 -46 -73 -10 0 -21 -6 -24 -13 -3 -8 -16
-12 -33 -9 -16 2 -32 -1 -35 -7 -5 -7 -49 -11 -121 -11 -103 0 -142 -8 -116
-24 17 -11 141 -13 147 -4 4 6 22 7 40 3 26 -4 36 -2 40 10 4 9 19 15 39 15
19 0 37 5 41 11 3 6 19 9 34 5 36 -7 60 19 60 67 0 39 -17 59 -26 30z"/>
<path d="M6054 2725 c-7 -17 4 -37 17 -30 12 8 12 45 -1 45 -6 0 -13 -7 -16
-15z"/>
<path d="M6105 2640 c-19 -37 -19 -40 3 -40 28 1 66 35 59 54 -10 26 -45 19
-62 -14z"/>
<path d="M3788 2647 c-30 -12 -38 -37 -13 -37 8 0 15 7 15 16 0 12 7 14 30 9
23 -5 30 -3 30 9 0 18 -22 19 -62 3z"/>
<path d="M4190 2625 c0 -8 7 -15 16 -15 14 0 14 3 4 15 -7 8 -14 15 -16 15 -2
0 -4 -7 -4 -15z"/>
<path d="M4132 2608 c6 -18 28 -21 28 -4 0 9 -7 16 -16 16 -9 0 -14 -5 -12
-12z"/>
<path d="M3930 2579 l-35 -6 35 -3 c88 -6 130 -4 130 5 0 11 -78 14 -130 4z"/>
<path d="M5929 2521 c-65 -9 -91 -30 -134 -108 -20 -37 -45 -77 -55 -88 -9
-11 -24 -33 -31 -50 -8 -16 -25 -35 -38 -41 -30 -15 -60 -78 -56 -118 6 -60
48 -116 118 -160 25 -15 28 -15 34 -1 3 10 -6 28 -27 50 l-32 33 6 86 c6 83
27 144 60 171 6 6 20 31 30 57 17 46 111 146 139 149 47 5 137 -24 137 -44 0
-5 11 -22 25 -39 14 -16 25 -40 25 -52 0 -13 3 -26 7 -30 22 -22 43 -108 43
-178 0 -42 4 -79 9 -82 15 -10 20 20 20 113 0 75 -4 98 -25 138 -13 26 -24 56
-24 67 0 10 -13 34 -30 53 -16 18 -30 37 -30 42 0 23 -101 42 -171 32z"/>
<path d="M4511 2476 c-10 -12 -3 -15 41 -19 29 -3 65 -8 81 -12 30 -8 36 5 13
28 -20 19 -120 22 -135 3z"/>
<path d="M4453 2458 c-24 -37 -33 -64 -33 -92 0 -22 -8 -40 -25 -56 -15 -14
-25 -35 -25 -51 0 -14 -7 -32 -15 -39 -8 -7 -15 -21 -15 -31 0 -10 -4 -21 -10
-24 -15 -9 -11 -56 9 -89 17 -29 94 -78 115 -74 6 1 21 -3 34 -10 21 -12 180
-11 277 2 17 2 35 4 42 5 6 0 25 13 42 27 31 26 31 26 31 130 0 91 -2 105 -17
111 -24 8 -73 54 -73 68 0 15 -38 48 -72 63 -25 10 -28 10 -28 -8 0 -12 13
-28 31 -39 17 -11 39 -33 50 -49 10 -17 31 -39 46 -49 39 -25 41 -28 41 -99 0
-59 -3 -67 -32 -95 -24 -23 -37 -29 -56 -24 -28 7 -64 9 -155 7 -95 -3 -104
-2 -109 6 -2 4 2 16 10 27 14 19 14 19 28 0 12 -16 19 -18 42 -10 16 6 30 18
32 28 5 24 -36 77 -59 77 -11 0 -28 6 -39 12 -28 17 -40 1 -42 -55 -2 -31 -7
-47 -15 -47 -7 0 -13 4 -13 10 0 5 -13 25 -30 43 -35 41 -38 67 -9 93 21 19
21 18 40 -4 15 -19 22 -21 38 -13 13 7 22 8 26 1 10 -16 23 -12 30 11 8 23
-17 81 -46 110 -25 25 -34 65 -20 95 16 36 -6 63 -26 32z"/>
<path d="M5880 2294 c0 -12 -7 -15 -26 -11 -28 5 -80 -19 -88 -40 -3 -7 0 -26
6 -43 8 -26 7 -34 -8 -51 -16 -18 -16 -22 -3 -52 9 -17 14 -48 13 -67 -1 -19
4 -45 12 -57 8 -12 14 -29 14 -38 0 -13 18 -15 114 -15 66 0 117 4 121 10 3 6
23 10 43 10 41 1 99 40 88 59 -12 19 -39 12 -61 -15 -19 -24 -21 -25 -50 -10
-17 9 -38 16 -47 16 -13 0 -18 8 -18 28 0 29 -20 54 -52 65 -10 4 -18 13 -18
20 0 8 -10 22 -21 33 -19 17 -21 27 -16 97 3 42 3 77 1 77 -2 0 -4 -7 -4 -16z"/>
<path d="M5900 2221 c0 -12 6 -21 16 -21 9 0 14 7 12 17 -5 25 -28 28 -28 4z"/>
<path d="M6010 2210 c0 -14 46 -90 54 -90 2 0 3 17 2 37 -1 29 -5 39 -21 42
-11 2 -23 8 -27 15 -5 7 -8 6 -8 -4z"/>
<path d="M5935 2174 c-31 -31 -19 -50 40 -61 63 -11 71 -1 33 40 -31 32 -54
39 -73 21z"/>
<path d="M6043 2065 c-3 -9 -3 -18 0 -22 10 -10 37 6 37 22 0 20 -29 20 -37 0z"/>
<path d="M4541 1853 c-36 -21 -81 -80 -81 -105 0 -6 -16 -33 -35 -59 -19 -27
-35 -53 -35 -57 0 -11 -44 -52 -56 -52 -5 0 -19 -18 -32 -41 -24 -42 -24 -68
0 -134 12 -33 56 -85 72 -85 5 0 18 -8 28 -17 14 -13 21 -14 30 -5 9 9 5 20
-20 45 -31 32 -32 33 -28 119 2 74 7 93 29 127 15 22 42 73 61 114 34 74 77
120 139 148 40 18 103 -10 150 -65 20 -25 37 -49 37 -55 0 -6 11 -45 25 -87
17 -51 25 -99 25 -145 0 -55 3 -69 15 -69 12 0 15 17 15 93 0 89 -14 155 -38
179 -7 7 -12 22 -12 34 0 12 -11 36 -25 52 -14 17 -25 34 -25 39 0 18 -68 42
-133 45 -57 3 -74 0 -106 -19z"/>
<path d="M1850 1830 c0 -11 0 -11 52 -14 20 -2 48 -10 63 -20 39 -26 62 -4 29
28 -18 18 -144 23 -144 6z"/>
<path d="M3840 1822 c0 -14 25 -22 48 -15 11 2 33 -2 50 -11 40 -21 44 -20 40
7 -3 20 -9 22 -70 25 -38 2 -68 -1 -68 -6z"/>
<path d="M1802 1807 c-22 -27 -42 -78 -42 -105 0 -16 -9 -37 -20 -47 -11 -10
-20 -26 -20 -36 0 -10 -11 -39 -25 -65 -14 -26 -25 -55 -25 -66 0 -30 38 -96
63 -109 12 -7 27 -18 32 -25 36 -44 361 -40 353 5 -2 9 -14 18 -28 20 -14 1
-27 7 -30 11 -3 5 -25 5 -49 0 -34 -6 -48 -4 -59 7 -13 12 -12 16 4 28 12 8
23 10 29 4 14 -14 35 -11 35 7 0 11 -6 14 -20 9 -14 -4 -22 -1 -27 12 -12 33
-48 63 -75 63 -16 0 -28 5 -28 10 0 6 -7 10 -15 10 -8 0 -15 5 -15 11 0 6 7 9
15 5 25 -9 45 4 45 30 0 13 -4 24 -10 24 -5 0 -10 8 -10 19 0 10 -7 24 -15 31
-28 23 -48 78 -41 114 7 36 -5 54 -22 33z m-1 -244 c19 -21 25 -37 23 -62 -2
-33 13 -81 26 -81 3 0 10 4 16 10 6 6 19 -1 38 -20 27 -29 24 -43 -3 -17 -10
9 -15 9 -18 0 -5 -15 -93 43 -93 62 0 7 -11 22 -25 33 -27 22 -32 51 -13 82
16 26 18 25 49 -7z"/>
<path d="M5834 1811 c-12 -13 -1 -22 21 -17 13 3 42 -1 65 -10 47 -19 61 -13
35 16 -14 15 -29 19 -67 18 -27 -1 -51 -4 -54 -7z"/>
<path d="M3773 1773 c-7 -15 -13 -41 -13 -57 0 -19 -13 -47 -30 -70 -17 -22
-30 -46 -30 -54 0 -8 -11 -37 -25 -64 -23 -45 -24 -53 -12 -72 8 -11 17 -33
20 -48 5 -18 20 -33 50 -47 24 -12 50 -21 58 -21 8 0 20 -5 25 -10 13 -13 225
-17 245 -4 8 4 34 11 58 14 35 4 50 12 72 40 27 34 27 37 22 128 -5 85 -8 94
-28 102 -24 9 -70 60 -79 87 -6 17 -58 53 -77 53 -19 0 -8 -26 25 -60 19 -19
55 -56 80 -82 l46 -48 0 -74 c0 -71 -1 -75 -31 -101 -20 -17 -38 -24 -48 -19
-9 4 -58 7 -108 8 -90 0 -115 8 -73 21 11 3 20 10 20 15 0 5 9 10 20 12 20 3
19 5 -10 44 -21 29 -40 44 -63 48 -68 14 -72 13 -75 -18 -6 -49 5 -73 37 -79
24 -5 28 -10 24 -27 -7 -25 -15 -25 -37 -1 -10 11 -27 21 -39 23 -12 2 -24 15
-30 33 -6 17 -18 36 -29 43 -24 17 -23 54 2 77 20 18 21 18 43 -2 27 -25 78
-24 107 2 25 23 25 31 0 38 -12 3 -20 14 -20 25 0 12 -9 23 -20 27 -28 9 -53
72 -45 113 7 40 -14 44 -32 5z"/>
<path d="M5760 1771 c0 -11 -4 -23 -10 -26 -5 -3 -10 -20 -10 -36 0 -33 -20
-79 -44 -98 -9 -8 -16 -22 -16 -32 0 -10 -11 -38 -25 -63 l-25 -44 22 -52 c16
-39 30 -56 59 -71 21 -10 46 -19 56 -19 10 0 27 -6 38 -13 24 -16 206 -15 248
2 16 6 42 11 59 11 20 0 39 9 58 30 25 27 27 35 28 118 l0 89 -43 37 c-25 20
-51 51 -60 69 -14 29 -81 74 -93 62 -11 -10 13 -47 38 -60 16 -8 35 -26 42
-39 7 -14 32 -39 56 -55 l42 -31 -4 -64 c-5 -86 -41 -137 -91 -126 -5 1 -19 3
-30 4 -12 1 -26 6 -33 10 -16 10 -15 29 1 23 8 -3 14 4 15 20 1 19 -2 24 -14
19 -9 -3 -22 -6 -30 -6 -9 0 -13 -4 -10 -9 4 -5 -2 -7 -12 -4 -10 2 -26 17
-35 32 -9 16 -31 34 -49 41 -18 6 -41 16 -51 21 -28 15 -46 -6 -49 -59 -3 -52
-15 -58 -38 -20 -8 14 -24 37 -34 52 -17 24 -17 30 -5 53 18 34 37 40 54 16
13 -18 40 -22 98 -14 12 2 8 28 -8 41 -8 7 -15 23 -15 35 0 13 -6 25 -14 28
-25 10 -46 67 -40 108 5 32 4 39 -10 39 -9 0 -16 -8 -16 -19z m96 -375 c8 -21
32 -27 54 -14 19 12 40 5 27 -9 -8 -8 -103 -7 -117 2 -13 8 -1 35 16 35 8 0
17 -6 20 -14z"/>
<path d="M2042 1738 c2 -12 14 -28 26 -34 13 -7 32 -25 42 -42 10 -16 35 -43
54 -58 36 -29 36 -30 36 -104 0 -72 -1 -75 -37 -112 -32 -33 -34 -38 -18 -44
13 -5 27 2 50 28 27 29 33 45 39 104 8 87 -2 124 -40 144 -16 9 -36 30 -45 48
-23 45 -37 59 -72 77 -39 19 -39 19 -35 -7z"/>
<path d="M4456 1605 c-15 -12 -17 -22 -12 -58 5 -35 4 -46 -9 -50 -19 -8 -19
-31 1 -48 12 -10 14 -25 10 -65 -4 -39 -1 -55 9 -64 8 -7 15 -21 15 -31 0 -24
20 -28 125 -24 162 6 235 29 235 76 0 27 -19 24 -52 -8 -23 -22 -31 -25 -50
-16 -13 6 -31 14 -40 17 -10 3 -18 13 -18 22 0 22 -37 68 -60 74 -31 8 -7 33
32 34 50 2 64 14 41 36 -43 39 -83 45 -83 12 0 -9 -5 -24 -10 -32 -9 -13 -13
-11 -30 10 -22 28 -27 86 -7 93 9 3 9 7 0 19 -16 19 -73 21 -97 3z"/>
<path d="M4577 1573 c-13 -12 -7 -33 8 -33 8 0 15 9 15 20 0 20 -11 26 -23 13z"/>
<path d="M4630 1451 c0 -5 5 -13 10 -16 6 -3 10 -2 10 4 0 5 -4 13 -10 16 -5
3 -10 2 -10 -4z"/>
<path d="M4720 1399 c0 -18 2 -19 15 -9 8 7 15 16 15 21 0 5 -7 9 -15 9 -9 0
-15 -9 -15 -21z"/>
<path d="M3210 1200 c-27 -14 -44 -37 -75 -97 -22 -43 -45 -82 -52 -86 -7 -4
-20 -23 -29 -42 -10 -21 -26 -38 -40 -41 -43 -11 -81 -137 -50 -164 9 -7 16
-18 16 -26 0 -19 65 -84 84 -84 9 0 16 -4 16 -10 0 -5 7 -10 15 -10 24 0 17
26 -15 58 -28 29 -30 35 -30 109 0 56 5 85 16 102 9 12 34 59 56 104 51 104
125 177 178 177 42 -1 113 -25 118 -40 2 -6 15 -24 28 -39 13 -16 24 -37 24
-47 0 -11 7 -28 15 -38 8 -11 15 -30 15 -42 0 -13 5 -26 10 -29 6 -3 10 -44
10 -91 0 -97 19 -117 21 -21 1 34 2 78 3 97 1 19 -8 56 -21 82 -13 26 -23 56
-23 66 0 11 -7 25 -16 32 -8 8 -21 28 -29 47 -9 22 -21 33 -34 33 -11 0 -23 5
-26 10 -11 17 -146 10 -185 -10z"/>
<path d="M2520 1160 c0 -5 17 -10 39 -10 22 0 44 -6 51 -15 7 -8 19 -15 26
-15 19 0 18 36 -2 44 -26 10 -114 7 -114 -4z"/>
<path d="M4494 1161 c-2 -2 -4 -10 -4 -17 0 -9 15 -13 50 -12 35 1 55 -4 70
-17 16 -14 23 -16 32 -7 9 9 6 17 -11 35 -18 20 -31 24 -77 23 -30 0 -57 -2
-60 -5z"/>
<path d="M2435 1104 c-8 -20 -15 -48 -15 -61 0 -14 -11 -38 -25 -55 -14 -16
-25 -37 -25 -46 0 -9 -12 -39 -26 -67 l-26 -50 21 -45 c21 -45 71 -81 131 -93
14 -3 41 -9 60 -14 30 -8 135 -3 249 11 20 2 46 17 67 37 l35 34 -3 100 c-2
71 -6 99 -15 98 -16 -3 -72 54 -84 84 -9 25 -69 57 -82 44 -12 -12 2 -37 29
-50 13 -6 27 -19 31 -28 7 -20 43 -56 79 -80 26 -17 31 -56 15 -126 -11 -46
-56 -92 -80 -81 -9 4 -46 8 -83 10 -37 1 -74 4 -84 8 -15 6 -15 8 0 31 9 13
16 29 16 34 0 18 -50 61 -71 61 -20 0 -49 21 -49 36 0 5 5 3 11 -3 9 -9 17 -8
34 3 21 14 22 17 9 42 -8 15 -14 32 -14 37 0 6 -16 26 -36 45 -33 32 -36 38
-30 77 7 55 -17 59 -39 7z m28 -206 c12 -13 20 -27 18 -33 -2 -5 -3 -31 -2
-57 2 -42 0 -48 -19 -48 -15 0 -20 6 -20 25 0 15 -9 31 -25 41 -29 19 -32 40
-9 72 19 28 28 28 57 0z m81 -135 c4 -9 1 -23 -7 -30 -11 -11 -16 -11 -32 2
-20 15 -20 15 -1 30 25 19 32 19 40 -2z"/>
<path d="M4419 1098 c-16 -38 -16 -39 -18 -73 0 -14 -10 -34 -21 -45 -11 -11
-20 -29 -20 -40 0 -11 -14 -42 -31 -70 l-31 -50 21 -45 c22 -46 26 -49 157
-107 21 -10 213 -5 291 7 26 5 51 17 67 34 24 25 27 35 27 117 1 114 1 114
-14 114 -16 0 -58 45 -77 84 -8 16 -26 33 -40 39 -14 6 -33 17 -43 26 -9 8
-20 12 -23 9 -10 -10 27 -70 46 -75 10 -3 30 -22 44 -43 14 -21 39 -44 56 -51
30 -14 30 -15 29 -86 -1 -66 -4 -76 -34 -110 -31 -36 -34 -37 -58 -24 -16 9
-41 12 -66 8 -23 -3 -44 -1 -47 4 -3 5 -10 7 -15 3 -16 -10 -122 -6 -128 5 -4
5 -19 14 -34 20 -15 6 -32 22 -37 37 -6 14 -20 34 -32 43 -26 21 -20 59 13 80
19 11 24 11 33 -1 14 -19 75 -31 91 -18 17 14 -6 104 -29 108 -23 5 -47 66
-39 102 8 42 -20 40 -38 -2z"/>
<path d="M3138 959 c-28 -16 -40 -46 -28 -68 7 -15 6 -27 -7 -49 -16 -28 -16
-31 0 -47 13 -12 16 -26 11 -51 -4 -23 -1 -42 9 -57 8 -13 17 -34 19 -48 3
-23 6 -24 97 -27 72 -2 104 1 137 15 24 10 44 21 44 24 0 8 -40 27 -64 31 -13
2 -20 12 -20 28 -2 26 -30 62 -59 73 -33 13 -16 25 41 29 31 2 61 1 67 -4 18
-15 25 -8 19 20 -4 15 -11 31 -15 36 -5 6 -9 23 -9 38 0 15 -4 28 -10 28 -5 0
-10 -11 -10 -24 0 -14 5 -28 10 -31 15 -9 12 -35 -3 -35 -8 0 -22 9 -32 20
-10 11 -25 20 -34 20 -9 0 -21 10 -26 23 -12 26 -38 29 -43 5 -2 -9 5 -19 17
-23 25 -8 25 -13 5 -40 -15 -19 -16 -19 -29 -2 -9 13 -12 36 -9 73 l5 54 -33
0 c-18 0 -41 -5 -50 -11z"/>
<path d="M3300 940 c0 -5 5 -10 10 -10 6 0 10 5 10 10 0 6 -4 10 -10 10 -5 0
-10 -4 -10 -10z"/>
<path d="M4467 863 c-4 -3 -7 -28 -7 -54 0 -50 11 -62 49 -52 14 3 23 0 27
-11 9 -23 27 -20 53 8 30 32 20 62 -27 83 -21 8 -45 19 -54 24 -21 11 -32 11
-41 2z"/>
<path d="M3383 764 c-8 -20 8 -36 26 -25 15 10 8 41 -9 41 -6 0 -13 -7 -17
-16z"/>
<path d="M3454 685 c-24 -24 -25 -45 -3 -45 16 0 61 49 54 60 -10 16 -24 12
-51 -15z"/>
<path d="M1203 503 c-23 -4 -30 -17 -14 -27 4 -3 16 3 26 14 10 11 16 19 14
19 -2 -1 -14 -4 -26 -6z"/>
<path d="M5163 498 c-2 -5 8 -8 24 -8 15 0 41 -7 57 -15 15 -8 32 -15 37 -15
13 0 11 28 -3 36 -16 10 -109 11 -115 2z"/>
<path d="M5873 502 c-18 -2 -33 -7 -33 -12 0 -4 15 -10 33 -12 17 -3 40 -8 50
-13 12 -5 17 -3 17 9 0 21 -28 32 -67 28z"/>
<path d="M5076 448 c-9 -17 -16 -48 -16 -68 0 -26 -7 -42 -25 -58 -14 -12 -25
-29 -25 -37 0 -9 -11 -38 -25 -65 -30 -60 -31 -65 -3 -116 17 -32 34 -47 70
-63 27 -12 55 -21 63 -21 7 0 17 -5 20 -10 8 -13 232 -13 240 0 3 6 22 10 40
10 24 0 45 9 70 31 l35 31 0 99 c0 87 -2 99 -17 99 -19 0 -83 66 -83 86 0 15
-61 64 -78 64 -7 0 -12 -7 -12 -16 0 -18 113 -135 148 -153 19 -10 22 -19 22
-77 0 -62 -2 -68 -34 -100 -33 -33 -59 -43 -70 -25 -3 5 -26 6 -51 3 -37 -4
-45 -2 -45 12 0 9 -4 16 -10 16 -5 0 -10 -7 -10 -15 0 -8 -5 -15 -10 -15 -17
0 -24 31 -12 51 9 15 7 24 -14 49 -16 18 -35 30 -50 30 -13 0 -33 5 -44 12
-26 17 -33 6 -34 -52 -1 -41 -4 -50 -18 -50 -10 0 -20 10 -24 24 -3 14 -14 32
-25 42 -23 21 -24 52 -3 82 15 22 17 23 36 5 26 -24 97 -28 105 -6 4 9 -1 21
-11 28 -9 7 -14 19 -11 28 4 8 -2 21 -12 28 -31 24 -54 85 -43 115 13 33 13
34 -4 34 -8 0 -22 -14 -30 -32z m108 -356 c9 -14 -12 -35 -28 -29 -23 9 -20
37 3 37 11 0 22 -4 25 -8z"/>
<path d="M5752 467 c-20 -25 -43 -78 -37 -87 7 -11 -13 -52 -31 -63 -7 -4 -16
-22 -19 -39 -7 -31 -11 -40 -35 -88 -13 -25 -13 -55 -1 -78 5 -9 12 -25 15
-34 6 -21 76 -58 109 -58 12 0 28 -5 34 -11 13 -13 238 -7 302 8 27 7 52 21
67 39 21 26 23 39 24 127 0 89 -2 97 -19 97 -10 0 -32 16 -48 36 -56 70 -82
94 -102 94 -30 0 -26 -28 7 -47 16 -9 36 -29 45 -45 9 -15 32 -38 52 -49 l35
-21 0 -73 c0 -70 -2 -75 -32 -104 -34 -32 -52 -38 -63 -21 -8 14 -158 13 -172
-1 -7 -7 -17 -8 -25 -3 -7 5 -23 7 -34 6 -22 -3 -39 21 -28 39 9 15 42 10 53
-8 8 -16 11 -16 45 2 20 11 36 23 36 27 0 18 -64 78 -84 78 -12 0 -27 5 -34
12 -8 8 -15 8 -26 -1 -11 -9 -13 -25 -9 -62 5 -41 3 -49 -11 -49 -9 0 -20 10
-25 22 -5 13 -18 32 -30 42 -27 24 -27 67 0 92 20 18 21 18 38 -5 13 -16 23
-21 32 -15 8 4 24 7 36 6 29 -4 37 13 19 39 -8 12 -12 27 -9 34 2 8 -4 18 -15
24 -27 14 -46 65 -39 106 6 37 -4 53 -21 32z"/>
<path d="M1118 446 c-35 -26 -8 -65 45 -66 17 0 38 10 52 25 43 42 29 61 -18
25 -32 -25 -34 -25 -49 4 -11 21 -15 23 -30 12z"/>
<path d="M2407 393 c-10 -3 -17 -12 -15 -21 3 -12 12 -16 33 -14 35 4 50 16
41 31 -7 11 -26 12 -59 4z"/>
<path d="M2720 371 c-14 -4 -34 -21 -45 -39 -20 -31 -48 -41 -60 -22 -3 6 -17
10 -31 10 -13 0 -24 -4 -24 -10 0 -5 5 -10 10 -10 6 0 10 -13 10 -30 0 -16 5
-30 11 -30 7 0 18 -8 25 -17 13 -17 15 -16 33 7 l20 25 25 -24 c35 -33 35 -71
1 -71 -14 0 -34 4 -45 10 -11 5 -29 14 -40 20 -29 15 -30 14 -24 -37 8 -59 14
-67 45 -54 13 5 35 12 49 15 39 8 119 86 126 123 3 17 12 34 20 37 18 7 18 46
0 46 -8 0 -17 -4 -20 -9 -9 -14 -77 -24 -89 -12 -8 8 -3 19 16 39 39 41 37 47
-13 33z"/>
<path d="M1377 363 c-13 -12 -7 -33 8 -33 20 0 19 -34 0 -50 -17 -14 -17 -15
-33 23 -18 41 -37 29 -36 -24 0 -41 2 -44 25 -41 17 1 34 -7 54 -28 36 -38 54
-38 90 -1 15 17 37 31 49 33 38 5 25 33 -16 34 -21 1 -38 -2 -38 -7 0 -9 -29
-39 -38 -39 -4 0 -13 4 -20 9 -12 7 -11 14 2 39 21 41 20 52 -4 52 -13 0 -20
7 -20 20 0 20 -11 26 -23 13z"/>
<path d="M1460 346 c0 -8 7 -16 15 -20 13 -4 14 -2 5 14 -13 23 -20 26 -20 6z"/>
<path d="M2467 294 c-14 -19 -16 -31 -9 -52 7 -23 15 -27 50 -30 31 -2 42 1
42 11 0 8 -7 18 -16 21 -13 5 -15 15 -11 41 5 31 3 35 -16 35 -12 0 -30 -12
-40 -26z"/>
<path d="M1191 261 c-19 -22 -38 -46 -43 -55 -14 -26 28 -20 46 6 20 28 31 17
19 -19 -7 -20 -17 -29 -38 -31 -15 -2 -31 2 -36 10 -14 22 -33 -6 -25 -37 9
-36 32 -42 61 -15 20 19 27 21 39 11 12 -10 20 -7 45 21 33 36 38 56 17 64 -8
3 -22 23 -30 45 -9 21 -17 39 -18 39 -2 -1 -18 -18 -37 -39z"/>
<path d="M1130 250 c0 -5 4 -10 9 -10 6 0 13 5 16 10 3 6 -1 10 -9 10 -9 0
-16 -4 -16 -10z"/>
<path d="M1025 160 c-7 -12 12 -40 27 -40 13 0 6 43 -9 47 -6 2 -14 -1 -18 -7z"/>
<path d="M2825 139 c-10 -15 36 -62 48 -50 13 13 2 37 -22 50 -14 8 -22 8 -26
0z"/>
<path d="M5980 95 c0 -9 9 -15 21 -15 18 0 19 2 9 15 -7 8 -16 15 -21 15 -5 0
-9 -7 -9 -15z"/>
<path d="M2375 50 c-3 -6 -3 -19 0 -30 8 -26 85 -30 85 -4 0 11 -6 15 -20 11
-13 -3 -24 1 -30 14 -12 21 -25 24 -35 9z"/>
</g>
</svg>
