<?xml version="1.0" standalone="no"?>
<!DOCTYPE svg PUBLIC "-//W3C//DTD SVG 20010904//EN"
 "http://www.w3.org/TR/2001/REC-SVG-20010904/DTD/svg10.dtd">
<svg version="1.0" xmlns="http://www.w3.org/2000/svg"
 width="720.000000pt" height="670.000000pt" viewBox="0 0 720.000000 670.000000"
 preserveAspectRatio="xMidYMid meet">
<metadata>
Created by potrace 1.16, written by Peter Selinger 2001-2019
</metadata>
<g transform="translate(0.000000,670.000000) scale(0.100000,-0.100000)"
fill="#000000" stroke="none">
<path d="M987 6622 c-18 -4 -19 -45 -13 -1300 6 -1261 13 -2338 21 -3042 2
-190 4 -780 4 -1312 l1 -968 66 0 66 0 -6 493 c-7 596 -14 2009 -22 4362 -3
968 -7 1761 -7 1761 -6 5 -96 9 -110 6z"/>
<path d="M7041 6601 c-7 -13 -9 -79 -5 -194 5 -119 3 -176 -4 -181 -20 -12
-1614 -28 -1625 -17 -24 24 -37 11 -37 -33 0 -52 13 -65 40 -41 19 17 20 17
30 -9 5 -15 9 -41 9 -59 -1 -18 -1 -135 0 -262 1 -126 2 -265 1 -309 l0 -78
-36 6 c-34 7 -35 6 -32 -21 2 -23 8 -28 31 -28 15 0 32 -7 37 -15 5 -8 9 -179
9 -381 1 -365 -2 -400 -32 -370 -22 22 -37 12 -37 -24 0 -40 0 -40 55 -21 l40
14 5 199 5 198 203 5 c144 4 210 2 225 -7 29 -15 37 -8 37 33 0 37 -10 43 -30
19 -29 -35 -35 -9 -40 190 -4 146 -8 199 -17 203 -10 3 -13 -41 -13 -196 0
-158 -3 -202 -14 -211 -9 -8 -66 -11 -182 -9 l-169 3 -8 120 c-4 66 -6 239 -5
385 l3 265 374 3 c206 1 378 -1 383 -6 5 -5 11 -173 14 -375 5 -331 4 -367
-10 -373 -9 -3 -23 -1 -31 6 -21 18 -35 3 -35 -37 0 -30 3 -34 18 -28 9 4 29
10 45 13 15 2 32 14 39 25 14 28 2 799 -14 808 -6 4 -38 6 -72 4 -157 -7 -694
-8 -704 -1 -17 10 -17 310 1 324 7 6 121 12 282 16 365 8 1253 12 1258 6 4 -5
17 -520 17 -692 l0 -88 75 0 75 0 0 31 c0 29 -2 31 -27 26 -33 -6 -63 8 -63
30 0 15 11 15 68 -2 17 -6 22 -3 22 10 0 10 -8 24 -17 31 -17 12 -17 13 -1 14
27 0 22 115 -7 155 -12 17 -25 38 -28 48 -7 18 -27 24 -27 7 0 -5 -5 -10 -10
-10 -7 0 -10 29 -8 78 3 75 4 77 28 76 14 0 35 -4 48 -8 19 -6 22 -4 22 19 0
20 -4 26 -15 22 -8 -4 -17 -2 -20 3 -4 6 3 10 14 10 16 0 21 6 21 29 0 16 -6
32 -12 35 -10 5 -10 7 0 12 19 9 14 33 -13 66 -14 16 -25 38 -25 49 0 21 -26
26 -33 7 -12 -34 -21 19 -19 106 l2 48 36 -6 c19 -4 42 -10 50 -13 9 -3 14 2
14 16 0 13 -6 21 -17 21 -10 0 -25 6 -34 13 -18 14 -59 77 -59 91 0 5 20 6 44
4 67 -8 75 3 38 53 -18 24 -32 51 -32 61 0 14 -5 17 -24 12 -24 -6 -25 -3 -28
42 -3 54 -28 72 -47 35z m104 -634 c1 -38 -9 -42 -29 -12 -22 34 -20 47 7 43
17 -2 22 -10 22 -31z m10 -398 c0 -43 -18 -42 -33 1 -11 31 -6 42 17 38 11 -2
16 -15 16 -39z"/>
<path d="M1607 6538 c-16 -10 -14 -10 73 -13 78 -3 116 2 105 13 -9 10 -163 9
-178 0z"/>
<path d="M1845 6540 c-4 -7 -2 -17 4 -23 13 -13 16 -356 4 -358 -5 0 -90 -3
-190 -5 l-183 -4 0 170 c0 107 -4 170 -10 170 -16 0 -13 -375 3 -387 6 -5 95
-8 200 -7 l187 2 1 -121 c1 -67 4 -153 8 -192 l6 -70 195 -5 195 -5 5 -195 5
-195 190 0 190 0 6 -135 c12 -260 11 -601 -2 -616 -9 -11 -65 -14 -304 -14
-160 0 -334 -3 -385 -7 l-93 -6 6 -2141 c4 -1178 10 -2165 13 -2194 7 -55 28
-78 45 -51 4 8 8 97 8 198 0 101 4 188 9 193 5 5 91 9 193 11 l184 2 5 218 c3
132 1 222 -4 228 -6 5 -91 9 -193 9 -170 0 -183 1 -193 19 -11 22 -12 241 -1
281 l7 25 189 5 190 5 3 193 c2 174 4 192 20 192 214 6 313 6 317 1 2 -4 5
-171 6 -372 1 -200 7 -372 12 -383 9 -18 22 -18 326 -12 610 12 1220 18 1240
11 20 -6 21 -14 23 -198 l3 -192 37 -3 c20 -2 42 -10 48 -18 23 -26 30 -14 30
48 0 59 -1 60 -18 45 -39 -35 -42 -24 -42 152 0 169 5 196 34 172 18 -15 26
-3 26 41 0 36 -12 49 -25 28 -9 -14 -55 -12 -60 3 -3 6 -6 181 -7 387 l-3 375
-110 3 c-60 2 -156 0 -213 -3 l-102 -7 2 -206 3 -207 188 0 c156 0 189 -3 197
-15 5 -8 10 -88 10 -176 l0 -162 -357 -8 c-197 -5 -542 -9 -768 -9 l-410 0 -5
380 c-3 221 -9 386 -15 395 -9 15 -17 309 -8 343 4 15 22 17 193 17 162 0 189
2 194 16 3 9 6 119 6 245 0 126 4 229 9 229 5 0 24 -6 43 -14 28 -12 106 -20
171 -17 10 1 17 9 17 21 0 17 -7 20 -44 20 -42 0 -45 1 -43 27 2 21 -5 30 -27
41 -27 14 -28 16 -11 28 16 12 16 15 -14 55 -18 26 -31 55 -31 73 -1 29 -1 30
-15 12 -8 -11 -15 -30 -15 -42 0 -12 -9 -32 -19 -45 l-19 -24 -7 26 c-3 14 -5
29 -4 35 1 5 1 37 0 72 l-1 62 -200 0 -200 0 0 174 c0 119 4 177 11 182 6 4
90 6 185 6 143 -1 176 1 189 14 12 13 15 46 15 189 0 118 4 176 11 181 6 4 91
9 188 11 97 2 182 6 189 8 10 4 12 132 10 617 l-3 613 -195 0 -195 0 -7 160
c-5 133 -4 163 8 176 13 14 15 75 14 390 -1 206 -1 384 -1 397 l1 22 303 0
c166 0 596 5 955 11 405 7 657 8 663 2 5 -5 12 -166 16 -361 5 -298 4 -352 -8
-356 -35 -11 -329 -13 -343 -2 -13 9 -16 43 -18 191 -2 141 -6 180 -16 180
-11 0 -13 -108 -12 -583 0 -320 3 -596 7 -612 l5 -30 227 0 c168 0 230 -3 239
-12 16 -16 32 5 32 39 0 29 -17 38 -38 20 -14 -12 -57 -16 -219 -19 -111 -1
-203 -1 -206 2 -2 3 -7 177 -10 388 -4 289 -2 385 7 388 15 6 404 9 436 3 19
-3 26 1 28 16 1 11 -2 27 -8 35 -8 13 -13 13 -31 2 -12 -8 -25 -10 -29 -5 -11
11 -20 712 -9 718 5 3 19 -1 33 -10 29 -19 33 -13 31 44 -1 48 -16 62 -39 38
-13 -12 -110 -16 -633 -21 -1025 -10 -1408 -17 -1416 -26 -5 -4 -8 -182 -7
-394 l1 -386 -168 2 -168 3 -3 388 c-2 360 -3 387 -20 387 -9 0 -189 0 -399 0
l-383 0 -2 192 -3 193 -32 3 c-17 2 -34 -2 -38 -8z m815 -800 l0 -360 -92 -2
c-205 -3 -230 -3 -234 4 -3 4 -5 83 -6 175 -1 227 3 215 -88 214 -41 -1 -123
-4 -181 -6 -81 -4 -109 -2 -118 8 -11 14 -26 301 -16 318 4 5 156 9 371 9
l364 0 0 -360z m402 -607 l3 -188 200 -5 200 -5 1 -515 c1 -283 -1 -545 -3
-581 l-6 -66 -172 -2 -173 -2 -6 88 c-3 48 -5 133 -4 189 1 55 -1 105 -5 111
-5 8 -166 10 -582 6 l-575 -6 0 155 c0 112 3 158 13 166 7 6 151 11 382 14
204 2 376 8 383 12 10 6 11 94 8 406 l-5 399 37 4 c20 2 97 4 169 5 l133 2 2
-187z m-9 -999 c15 -5 17 -26 17 -184 l0 -177 -31 -7 c-17 -3 -192 -6 -389 -6
-299 0 -359 -2 -370 -14 -8 -11 -11 -112 -9 -398 1 -211 4 -389 7 -395 3 -10
51 -13 192 -13 118 0 191 -4 195 -10 10 -16 16 -483 6 -499 -7 -10 -12 -8 -24
10 -20 27 -37 17 -19 -11 7 -11 12 -29 12 -40 0 -14 6 -20 18 -18 15 3 17 -7
20 -82 1 -47 -1 -90 -6 -97 -5 -9 -101 -12 -358 -14 -193 -1 -356 1 -362 5 -8
5 -12 280 -12 971 l0 965 107 0 c173 1 758 12 761 15 6 5 230 5 245 -1z m4
-408 c3 -3 7 -238 5 -298 l-2 -48 -190 0 c-185 0 -190 0 -201 -22 -9 -16 -10
-70 -5 -194 4 -120 3 -175 -4 -179 -6 -4 -85 -8 -176 -10 -165 -4 -165 -4
-174 19 -5 13 -9 179 -10 369 0 270 2 347 12 354 7 4 157 9 333 11 176 2 325
4 330 6 9 3 76 -4 82 -8z m8 -786 c8 -13 14 -726 6 -739 -5 -7 -67 -12 -182
-13 l-174 -3 -1 45 c-1 25 -3 194 -5 375 l-3 330 49 5 c95 10 304 10 310 0z
m118 -192 c-2 -5 -3 -23 -3 -40 l0 -33 -20 25 c-27 35 -26 62 3 58 12 -2 21
-6 20 -10z m-518 -611 c12 -19 15 -54 14 -168 -1 -79 -5 -151 -9 -160 -8 -13
-34 -15 -187 -14 -98 0 -184 -3 -190 -8 -10 -7 -13 -59 -13 -198 0 -189 0
-189 -22 -190 -13 -1 -85 -3 -160 -4 -119 -2 -138 0 -144 14 -3 9 -8 169 -10
357 -3 258 0 345 9 357 10 15 51 17 322 22 170 4 312 8 314 11 14 14 62 2 76
-19z m1613 -526 c2 -112 -1 -168 -9 -177 -9 -11 -49 -14 -179 -14 -165 0 -168
0 -174 23 -10 38 -7 297 4 318 10 18 21 19 183 17 l172 -3 3 -164z m-2004
-670 c9 -14 11 -309 2 -318 -4 -4 -79 -9 -167 -11 l-159 -3 -1 78 c-2 85 -1
230 0 251 1 9 40 12 160 12 88 0 162 -4 165 -9z"/>
<path d="M2850 4030 c-25 -35 -23 -65 5 -65 15 0 20 6 18 27 -2 32 24 46 45
24 24 -24 8 -60 -62 -138 -8 -9 -16 -25 -18 -35 -3 -16 5 -18 61 -18 68 0 91
15 77 50 -6 16 -8 17 -24 1 -17 -15 -72 -23 -72 -10 0 3 15 21 34 39 19 18 41
46 50 62 14 27 13 32 -4 61 -16 26 -26 32 -54 32 -27 0 -39 -7 -56 -30z"/>
<path d="M2724 4040 c-30 -12 -37 -25 -19 -40 11 -9 15 -33 15 -82 0 -61 -2
-71 -20 -75 -36 -9 -21 -21 30 -25 28 -1 55 -1 60 0 17 6 11 20 -10 27 -18 6
-20 15 -20 100 0 52 -3 96 -7 98 -5 3 -18 1 -29 -3z"/>
<path d="M2368 2843 c-22 -5 -22 -8 -2 -38 21 -32 11 -140 -14 -150 -22 -8 -4
-21 41 -29 40 -7 48 4 23 33 -10 12 -11 34 -5 95 10 99 8 103 -43 89z"/>
<path d="M2535 2838 c-29 -16 -29 -16 -14 -34 22 -27 13 -135 -13 -157 -25
-21 -24 -23 29 -30 50 -6 56 -2 39 27 -9 15 -11 43 -6 101 7 89 -1 112 -35 93z"/>
<path d="M2304 2548 c-35 -17 -58 -88 -34 -103 6 -3 10 0 10 8 0 32 89 77 154
77 29 0 35 14 10 24 -25 9 -117 6 -140 -6z"/>
<path d="M2472 2529 c3 -8 17 -13 33 -12 15 1 37 -4 49 -12 24 -17 46 -19 46
-5 0 13 -38 28 -92 36 -32 6 -40 4 -36 -7z"/>
<path d="M2324 2477 c-34 -38 -35 -43 -23 -116 14 -81 28 -99 64 -83 27 13 75
99 75 136 0 33 -46 86 -74 86 -12 0 -31 -10 -42 -23z"/>
<path d="M1460 6525 c0 -11 8 -13 33 -8 50 9 56 23 9 23 -30 0 -42 -4 -42 -15z"/>
<path d="M5211 6454 c-42 -53 -14 -124 49 -124 36 0 41 -27 11 -54 -19 -17
-20 -17 -31 3 -12 23 -35 28 -45 10 -12 -18 26 -49 60 -49 34 0 53 17 73 63
25 59 6 155 -33 171 -34 13 -64 5 -84 -20z m92 -50 c5 -29 -13 -47 -45 -42
-30 4 -38 57 -12 82 15 16 18 16 34 1 10 -9 20 -27 23 -41z"/>
<path d="M7146 6358 c-9 -34 -8 -38 12 -38 10 0 24 -6 31 -12 10 -11 12 -5 9
27 -2 32 -7 41 -24 43 -15 2 -23 -4 -28 -20z"/>
<path d="M5610 6104 c-26 -8 -53 -55 -55 -97 -3 -59 18 -101 61 -122 35 -16
37 -16 63 2 36 28 41 83 9 113 -18 17 -32 21 -59 17 -33 -4 -35 -3 -31 19 7
38 29 50 52 29 16 -15 23 -16 33 -6 27 27 -25 59 -73 45z m55 -136 c12 -30 12
-35 -6 -53 -15 -15 -23 -17 -36 -9 -29 18 -33 56 -9 76 29 24 35 23 51 -14z"/>
<path d="M5223 5694 c-14 -22 -15 -31 -5 -57 10 -25 9 -35 -3 -54 -20 -30 -19
-56 3 -75 49 -43 117 -28 128 29 5 25 2 39 -12 54 -15 17 -16 24 -6 39 15 25
15 63 0 78 -7 7 -29 12 -50 12 -29 0 -41 -6 -55 -26z m77 -9 c16 -19 3 -55
-20 -55 -26 0 -45 36 -29 56 15 18 33 18 49 -1z m4 -114 c19 -21 12 -50 -13
-52 -51 -4 -69 11 -53 46 14 30 42 32 66 6z"/>
<path d="M6047 5713 c-10 -10 -8 -53 2 -53 6 0 13 5 16 10 6 10 58 14 67 5 3
-3 -8 -33 -24 -66 -37 -75 -41 -114 -13 -114 16 0 21 11 30 66 6 36 21 83 33
103 12 21 20 42 17 47 -7 10 -118 13 -128 2z"/>
<path d="M7060 5013 c-4 -146 0 -825 5 -833 3 -5 35 -10 71 -10 61 0 64 1 64
24 0 22 -5 25 -42 28 -37 3 -44 7 -46 27 -3 21 -1 23 25 18 15 -3 36 -9 46
-12 28 -12 21 30 -9 45 -27 15 -54 57 -54 85 0 11 7 15 22 13 20 -3 23 -8 20
-40 -3 -33 -1 -38 17 -38 17 0 21 6 21 30 0 17 -5 30 -12 30 -9 0 -9 3 0 12
17 17 15 57 -3 64 -8 4 -15 18 -15 33 0 38 -16 59 -32 43 -23 -23 -28 -11 -24
66 4 82 3 82 59 67 18 -5 27 -3 27 5 0 15 -25 40 -42 40 -16 1 -51 68 -42 82
4 6 22 8 45 4 38 -6 39 -5 39 23 0 17 -4 33 -10 36 -5 3 -14 24 -20 45 -9 32
-15 39 -33 37 -14 -1 -22 3 -22 13 0 11 10 14 43 12 41 -2 42 -1 42 28 l0 30
-70 0 c-38 0 -70 -3 -70 -7z"/>
<path d="M7163 4764 c-7 -18 7 -46 25 -52 8 -2 12 9 12 32 0 38 -25 51 -37 20z"/>
<path d="M4575 4186 l-310 -11 0 -400 0 -400 228 -2 c158 -1 232 -5 242 -13
19 -16 35 -4 35 25 0 31 -14 39 -39 23 -11 -7 -22 -10 -24 -8 -3 3 -7 87 -10
188 -2 100 -7 185 -10 188 -21 21 -27 -21 -27 -190 l0 -183 -165 -7 c-102 -4
-172 -3 -184 3 -17 9 -18 31 -14 373 2 232 7 366 14 373 5 5 31 10 57 11 26 0
191 2 367 3 l320 3 3 -377 2 -377 -34 6 c-36 7 -51 -8 -40 -39 7 -17 40 -20
49 -4 4 6 13 8 19 6 38 -15 39 -1 39 406 0 217 -3 399 -7 405 -7 12 -108 12
-511 -2z"/>
<path d="M1560 4041 c-5 -11 -10 -28 -10 -38 0 -10 -12 -36 -25 -58 -44 -71
-28 -121 48 -153 29 -13 144 -16 171 -6 24 9 19 31 -9 38 -14 4 -25 11 -25 16
0 6 -6 10 -14 10 -8 0 -17 7 -20 15 -3 9 -20 22 -38 30 -27 11 -30 15 -15 20
23 9 22 19 -8 62 -16 25 -22 45 -19 60 8 29 -20 32 -36 4z m26 -152 c5 -31 13
-43 32 -50 18 -7 22 -13 15 -20 -24 -24 -106 72 -87 102 14 23 34 7 40 -32z"/>
<path d="M1726 4022 c-2 -4 17 -29 43 -55 56 -56 66 -105 30 -143 -12 -13 -16
-24 -10 -28 21 -14 51 36 51 86 0 43 -4 53 -40 89 -22 22 -40 45 -40 50 0 11
-27 12 -34 1z"/>
<path d="M7064 3807 c-2 -7 -5 -183 -7 -392 l-2 -380 -187 -5 c-102 -3 -189
-8 -193 -11 -3 -4 -6 -90 -5 -192 0 -119 -3 -188 -10 -192 -6 -4 -77 -6 -158
-6 -81 0 -166 -2 -189 -5 l-41 -6 1 -216 2 -217 195 -5 195 -5 3 -379 c1 -209
6 -384 11 -390 6 -7 70 -11 189 -10 99 1 184 -1 191 -5 16 -10 17 -299 1 -315
-7 -7 -83 -12 -233 -13 -122 -1 -644 -7 -1160 -14 -516 -6 -940 -9 -943 -6 -8
8 -11 338 -3 343 4 2 89 6 189 9 100 2 185 7 189 10 3 4 8 93 11 198 l5 192
390 10 390 10 0 400 0 400 -24 3 c-14 2 -34 10 -46 18 -26 17 -35 10 -35 -27
0 -34 13 -43 39 -27 11 7 24 9 28 4 11 -11 15 -727 4 -740 -7 -8 -123 -12
-379 -15 l-369 -3 -5 331 c-2 182 -2 350 1 373 l6 43 162 9 c125 7 166 6 178
-4 12 -10 15 -47 17 -194 4 -242 22 -243 26 -2 3 188 8 214 43 195 24 -12 39
-4 39 20 0 23 -23 44 -36 32 -5 -5 -109 -11 -231 -13 -123 -2 -225 -7 -228
-10 -3 -3 -6 -177 -5 -386 0 -356 -1 -382 -17 -391 -10 -5 -99 -10 -198 -11
-98 0 -181 -3 -183 -5 -3 -2 -4 -178 -3 -390 1 -212 -2 -385 -5 -385 -4 0 -16
7 -26 16 -16 15 -18 15 -24 1 -3 -8 -4 -28 -2 -44 3 -24 7 -28 30 -26 37 2 39
-10 36 -187 l-3 -145 -32 3 c-33 3 -33 3 -33 -43 0 -34 4 -47 17 -52 9 -4 19
-1 21 5 2 7 19 12 37 12 19 0 37 6 42 12 4 7 6 92 5 188 -1 96 2 181 7 189 14
21 496 32 1286 29 l640 -3 3 -385 c2 -307 6 -388 17 -399 21 -22 35 -3 35 48
0 56 5 64 33 50 22 -12 173 -15 208 -4 21 7 20 8 -14 20 -24 8 -52 10 -88 4
-53 -8 -69 -6 -69 12 0 6 14 9 32 7 42 -4 50 24 14 47 -33 22 -56 13 -56 -20
0 -33 -14 -32 -40 5 -34 47 -10 77 40 50 12 -7 21 -6 28 3 8 9 3 28 -16 69
-15 31 -30 57 -35 57 -4 1 -13 -11 -20 -27 -11 -24 -12 -16 -15 72 -3 110 3
126 43 108 40 -18 160 -16 176 4 19 23 -6 36 -53 28 -23 -3 -38 -2 -38 4 0 6
6 12 14 14 26 6 -17 46 -58 53 -32 6 -36 5 -36 -14 0 -11 11 -28 25 -37 33
-22 25 -30 -13 -13 -32 14 -68 70 -58 88 5 7 22 9 47 5 34 -6 39 -4 39 12 0
11 -9 30 -20 44 -11 14 -20 35 -20 48 0 31 -26 28 -39 -5 -9 -26 -10 -24 -8
17 2 41 4 45 27 43 98 -6 344 7 356 20 4 4 8 26 8 50 l1 42 38 -3 37 -3 0 56
c0 38 -3 54 -11 49 -6 -3 -9 -19 -5 -35 3 -16 1 -29 -4 -29 -13 0 -50 55 -50
75 0 14 6 17 35 12 l35 -6 0 40 c0 21 -4 39 -9 39 -5 0 -11 10 -13 23 -2 12
-10 22 -18 22 -8 0 -16 -10 -18 -22 -7 -49 -21 -19 -24 49 l-3 72 -187 -2
c-139 -1 -189 2 -196 11 -18 22 2 41 34 32 62 -15 120 -17 173 -5 91 21 82 30
-32 30 -82 0 -107 3 -107 13 0 9 10 12 30 9 25 -4 30 -1 30 16 0 11 -12 27
-26 37 -17 11 -24 23 -21 35 3 10 -4 32 -14 49 -11 18 -19 43 -19 57 0 36 -34
28 -38 -9 -2 -15 -6 -27 -10 -27 -4 0 -7 44 -7 98 l1 97 29 -4 c17 -3 64 -5
105 -5 65 -1 75 1 78 17 3 16 -2 19 -35 17 -64 -4 -68 -3 -48 19 17 19 16 21
-16 40 -46 29 -59 26 -59 -9 0 -23 5 -30 19 -30 21 0 35 -13 25 -23 -12 -11
-70 25 -87 55 -22 38 -13 52 28 45 52 -9 62 5 36 49 -13 21 -24 49 -25 61 -2
13 -6 23 -9 23 -4 0 -11 0 -17 0 -5 0 -10 -7 -10 -15 0 -8 -4 -15 -9 -15 -5 0
-8 20 -6 44 1 24 -1 49 -5 56 -5 8 -61 12 -193 13 -147 1 -188 5 -192 15 -9
23 6 34 34 27 98 -25 241 -3 241 37 0 5 -7 5 -17 0 -10 -5 -44 -10 -76 -10
-55 -1 -57 0 -52 21 9 34 -27 62 -73 58 -25 -2 -8 -45 23 -60 23 -12 26 -16
13 -19 -21 -4 -86 45 -94 72 -9 27 10 42 38 29 49 -21 63 10 28 62 -11 17 -20
40 -20 53 0 23 -14 30 -25 12 -12 -20 -26 -9 -23 18 2 21 8 26 23 24 108 -18
117 -18 133 -6 11 9 52 13 125 14 l107 0 0 50 c0 54 17 73 44 51 23 -19 140
-23 162 -6 15 11 16 17 6 23 -7 5 -10 16 -7 24 4 9 2 19 -4 23 -6 3 -14 -2
-18 -12 -9 -26 -23 -33 -66 -33 -45 0 -83 22 -102 61 -18 33 -10 63 14 53 36
-15 61 -16 61 -3 0 8 -12 40 -27 71 -21 43 -32 55 -45 52 -23 -7 -24 19 -2 37
12 10 20 10 35 1 23 -14 91 -16 105 -2 5 5 61 11 124 12 l115 3 5 50 c3 28 10
49 15 48 6 -1 23 -5 38 -8 23 -6 27 -4 27 13 0 13 -9 22 -24 26 -13 3 -34 21
-45 40 -23 37 -19 72 8 60 9 -3 26 -9 39 -11 19 -5 22 -1 22 25 0 16 -7 35
-15 42 -8 7 -15 25 -15 41 0 29 -21 52 -28 31 -2 -7 -10 -12 -18 -12 -12 0
-14 14 -12 73 3 78 6 80 66 62 35 -11 30 29 -7 44 -32 14 -55 49 -49 77 3 15
11 18 41 16 32 -3 37 -1 37 18 0 12 -9 33 -20 47 -11 14 -20 36 -20 49 0 13
-4 24 -10 24 -5 0 -10 -4 -10 -10 0 -5 -6 -10 -14 -10 -9 0 -12 7 -9 21 5 18
11 21 44 16 39 -5 39 -5 39 29 l0 34 -65 0 c-44 0 -67 -4 -71 -13z m-1989
-2192 l0 -180 -174 -3 c-101 -1 -177 1 -180 7 -4 5 -6 85 -6 177 l0 168 25 6
c13 3 94 6 180 5 l155 0 0 -180z m1699 3 c15 -47 15 -78 1 -78 -8 0 -15 5 -15
12 0 6 -7 19 -16 29 -9 10 -14 25 -11 34 8 18 36 20 41 3z"/>
<path d="M1555 3628 c-4 -18 -18 -52 -31 -76 -24 -42 -30 -87 -16 -108 25 -38
112 -61 192 -52 128 15 140 24 140 105 0 44 -3 56 -18 60 -10 2 -29 22 -42 44
-14 21 -33 39 -42 39 -27 0 -22 -12 27 -60 39 -38 45 -50 45 -85 0 -62 -14
-74 -81 -68 -47 4 -56 8 -52 23 3 10 -8 28 -26 45 -23 22 -28 32 -19 42 8 11
5 20 -15 41 -14 15 -29 39 -32 55 -9 36 -22 34 -30 -5z m35 -138 c3 -24 12
-38 28 -45 25 -11 29 -25 8 -25 -25 0 -76 56 -76 85 0 42 34 29 40 -15z"/>
<path d="M7160 3566 c0 -25 12 -46 26 -46 9 0 14 11 14 30 0 23 -4 30 -20 30
-11 0 -20 -6 -20 -14z"/>
<path d="M1660 3290 c0 -5 7 -10 16 -10 8 0 12 5 9 10 -3 6 -10 10 -16 10 -5
0 -9 -4 -9 -10z"/>
<path d="M1560 3254 c-6 -14 -10 -29 -10 -34 0 -5 -11 -31 -25 -58 -38 -75
-32 -104 30 -142 60 -37 238 -26 271 17 27 36 11 143 -22 143 -5 0 -18 14 -29
30 -11 16 -28 30 -37 30 -28 0 -22 -12 32 -59 43 -39 50 -50 50 -82 0 -50 -47
-99 -65 -69 -4 6 -16 10 -28 9 -49 -4 -58 0 -51 25 5 20 0 27 -25 41 -33 17
-37 25 -20 42 7 7 2 21 -21 46 -24 28 -29 41 -24 61 8 34 -13 35 -26 0z m16
-135 c1 -7 5 -22 9 -31 10 -24 -8 -23 -30 2 -10 11 -15 26 -11 35 7 19 28 15
32 -6z m62 -76 c5 -18 -23 -16 -39 3 -11 14 -10 15 11 12 13 -1 25 -9 28 -15z"/>
<path d="M7172 3178 c-17 -17 -15 -35 4 -42 23 -9 24 -8 24 24 0 32 -9 37 -28
18z"/>
<path d="M3776 2993 c-174 -2 -284 -7 -292 -14 -10 -8 -11 -96 -7 -407 3 -218
6 -398 7 -399 5 -5 160 -5 468 2 l346 8 5 31 c3 17 2 120 -1 228 -4 149 -2
201 7 212 24 28 -14 49 -48 27 -11 -7 -12 -13 -4 -23 13 -15 22 -426 10 -446
-6 -9 -95 -12 -383 -12 l-374 0 0 178 c0 97 -2 261 -3 364 -2 103 0 193 4 200
6 9 71 13 261 15 139 1 303 5 365 7 91 4 114 2 124 -10 9 -11 9 -18 1 -26 -19
-19 -14 -25 18 -30 34 -5 49 7 31 25 -6 6 -11 23 -11 38 0 15 -7 29 -16 33 -9
3 -64 5 -122 4 -59 -2 -233 -4 -386 -5z"/>
<path d="M3260 2910 c0 -5 5 -10 10 -10 6 0 10 5 10 10 0 6 -4 10 -10 10 -5 0
-10 -4 -10 -10z"/>
<path d="M6910 2902 c0 -7 50 -55 71 -68 5 -3 6 2 3 10 -3 9 -9 16 -13 16 -4
0 -13 11 -19 25 -11 23 -42 36 -42 17z"/>
<path d="M1640 2890 c0 -5 9 -10 20 -10 11 0 20 5 20 10 0 6 -9 10 -20 10 -11
0 -20 -4 -20 -10z"/>
<path d="M3763 2890 c-34 -14 -45 -46 -41 -121 4 -75 24 -109 65 -109 40 0 62
18 74 62 27 102 -27 196 -98 168z m51 -42 c25 -35 29 -79 11 -121 -12 -30 -20
-38 -38 -35 -19 3 -23 11 -27 60 -9 101 18 148 54 96z"/>
<path d="M1573 2869 c-7 -7 -13 -22 -13 -33 0 -10 -14 -49 -31 -85 -28 -59
-30 -68 -18 -90 15 -25 21 -29 79 -53 48 -19 203 -7 231 18 20 18 27 74 9 74
-5 0 -10 -9 -10 -20 0 -27 -40 -63 -55 -50 -7 6 -26 7 -44 4 -28 -6 -31 -4
-31 18 0 24 -27 58 -47 58 -5 0 -8 12 -6 28 3 17 -2 34 -15 48 -10 11 -23 37
-28 58 -7 30 -11 35 -21 25z m23 -161 c-3 -13 -6 -30 -6 -38 0 -11 -6 -9 -21
7 -26 25 -19 53 12 53 17 0 20 -4 15 -22z"/>
<path d="M3601 2871 c-11 -7 -11 -13 3 -32 10 -15 16 -44 16 -81 0 -47 -4 -60
-20 -70 -32 -20 -24 -28 30 -28 46 0 63 11 41 24 -5 4 -12 49 -16 101 -8 98
-15 110 -54 86z"/>
<path d="M3320 2851 c0 -5 9 -13 20 -16 11 -3 20 -13 20 -21 0 -8 5 -14 10
-14 12 0 12 2 0 34 -9 25 -50 38 -50 17z"/>
<path d="M1727 2843 c-4 -3 16 -28 43 -54 28 -26 50 -53 50 -58 0 -6 5 -11 10
-11 23 0 7 34 -39 81 -50 51 -53 53 -64 42z"/>
<path d="M6786 2782 c-12 -12 -5 -50 10 -56 33 -13 64 -7 64 13 0 10 -6 23
-12 28 -17 13 -55 22 -62 15z"/>
<path d="M3416 2743 c-4 -17 -6 -34 -4 -39 1 -5 -4 -20 -11 -32 -16 -30 -4
-44 15 -18 19 27 28 81 16 102 -8 15 -11 13 -16 -13z"/>
<path d="M6975 2700 c-3 -5 -2 -10 4 -10 5 0 13 5 16 10 3 6 2 10 -4 10 -5 0
-13 -4 -16 -10z"/>
<path d="M3295 2690 c-17 -7 -14 -9 13 -9 20 -1 31 3 27 9 -7 12 -13 12 -40 0z"/>
<path d="M1660 2490 c0 -5 7 -10 15 -10 8 0 15 5 15 10 0 6 -7 10 -15 10 -8 0
-15 -4 -15 -10z"/>
<path d="M6531 2483 c48 -60 62 -64 37 -8 -6 14 -20 25 -31 25 -17 0 -18 -2
-6 -17z"/>
<path d="M1572 2468 c-7 -7 -12 -20 -12 -30 0 -11 -8 -33 -17 -51 -38 -71 -42
-94 -21 -127 10 -17 34 -38 53 -46 39 -16 181 -19 190 -4 3 6 16 10 29 10 35
0 46 20 46 81 0 55 -2 59 -47 103 -30 29 -51 42 -57 36 -6 -6 7 -25 37 -51 44
-39 47 -45 47 -90 0 -61 -14 -69 -95 -60 -55 7 -57 10 -15 25 11 3 9 6 -7 11
-13 4 -23 11 -23 15 0 4 -14 13 -31 20 -21 9 -27 16 -20 23 17 17 13 42 -9 62
-12 11 -20 31 -20 52 0 35 -8 41 -28 21z m25 -170 c4 -46 -9 -49 -30 -6 -17
35 -14 51 10 46 10 -2 17 -17 20 -40z m43 -48 c0 -5 -4 -10 -10 -10 -5 0 -10
5 -10 10 0 6 5 10 10 10 6 0 10 -4 10 -10z"/>
<path d="M5739 2122 c-26 -32 -59 -81 -59 -88 0 -4 -8 -16 -17 -26 -21 -23 -6
-42 35 -43 22 0 27 -5 27 -25 0 -20 6 -26 26 -28 24 -3 27 1 32 35 2 21 0 42
-4 48 -5 5 -9 37 -9 71 0 68 -9 84 -31 56z m-9 -101 c0 -36 -19 -50 -36 -27
-10 15 -10 21 4 37 23 27 32 24 32 -10z"/>
<path d="M6923 2103 c9 -9 19 -14 23 -11 10 10 -6 28 -24 28 -15 0 -15 -1 1
-17z"/>
<path d="M6980 1910 c0 -5 4 -10 9 -10 6 0 13 5 16 10 3 6 -1 10 -9 10 -9 0
-16 -4 -16 -10z"/>
<path d="M6918 1734 c-11 -10 3 -34 19 -34 8 0 13 7 11 17 -3 18 -20 27 -30
17z"/>
<path d="M4843 1363 c-29 -4 -33 -8 -39 -48 -7 -53 -2 -64 30 -58 36 7 66 -13
66 -45 0 -50 -55 -76 -62 -29 -5 34 -33 28 -33 -8 0 -26 5 -31 38 -39 31 -8
42 -6 65 11 22 17 27 28 26 64 -1 52 -41 94 -80 85 -26 -7 -43 12 -23 25 8 5
28 9 46 9 17 0 35 5 39 11 7 12 -14 30 -31 27 -5 -1 -24 -3 -42 -5z"/>
<path d="M1670 1320 c0 -5 7 -10 16 -10 8 0 12 5 9 10 -3 6 -10 10 -16 10 -5
0 -9 -4 -9 -10z"/>
<path d="M4458 1307 c-16 -13 -22 -29 -19 -54 2 -24 22 -13 32 17 14 39 46 41
55 3 7 -25 -4 -40 -40 -58 -7 -3 -6 -7 3 -11 7 -4 22 -15 33 -26 17 -17 18
-22 5 -41 -21 -32 -45 -33 -53 -3 -7 28 -31 35 -40 12 -9 -24 14 -54 45 -61
30 -6 69 7 83 29 13 19 9 61 -8 85 -12 17 -13 26 -5 34 15 15 14 56 -3 73 -18
17 -65 18 -88 1z"/>
<path d="M1577 1303 c-4 -3 -7 -16 -7 -27 0 -12 -14 -48 -31 -81 -43 -80 -37
-108 29 -136 26 -12 80 -23 119 -26 63 -5 74 -3 79 12 5 12 1 23 -10 31 -11 7
-15 18 -11 25 6 9 1 10 -16 6 -32 -8 -79 32 -79 67 0 13 -11 38 -25 54 -14 17
-25 42 -25 56 0 25 -10 33 -23 19z m19 -179 l6 -39 -21 25 c-21 25 -27 51 -14
64 11 11 23 -9 29 -50z"/>
<path d="M1740 1270 c0 -6 20 -32 45 -57 42 -44 44 -50 38 -88 -3 -22 -10 -45
-14 -51 -13 -16 2 -26 18 -13 8 7 13 34 13 75 0 57 -3 65 -26 81 -14 9 -30 27
-35 40 -8 23 -39 33 -39 13z"/>
<path d="M6920 941 c0 -12 29 -35 36 -28 11 10 -5 37 -21 37 -8 0 -15 -4 -15
-9z"/>
<path d="M4474 908 c-16 -12 -32 -27 -36 -32 -10 -14 10 -46 29 -46 12 0 14 7
10 35 -5 32 -4 35 18 35 28 0 48 -30 38 -57 -3 -10 -26 -41 -50 -69 -60 -71
-58 -84 15 -84 32 0 63 5 70 12 15 15 16 48 2 48 -5 0 -10 -4 -10 -9 0 -14
-52 -23 -63 -12 -8 8 1 24 30 54 57 58 62 107 13 132 -36 19 -32 19 -66 -7z"/>
<path d="M6908 763 c6 -2 18 -2 25 0 6 3 1 5 -13 5 -14 0 -19 -2 -12 -5z"/>
<path d="M4487 539 c-18 -10 -18 -11 0 -31 26 -29 28 -133 2 -159 -27 -27 -25
-29 25 -29 49 0 64 11 41 30 -11 9 -15 35 -15 106 0 83 -2 94 -17 94 -10 0
-26 -5 -36 -11z"/>
<path d="M6920 540 c-9 -6 -6 -12 14 -25 29 -19 40 -17 30 8 -7 20 -27 27 -44
17z"/>
<path d="M1675 530 c-3 -5 1 -10 9 -10 9 0 16 5 16 10 0 6 -4 10 -9 10 -6 0
-13 -4 -16 -10z"/>
<path d="M1574 493 c-3 -16 -10 -39 -17 -53 -41 -94 -47 -138 -19 -162 33 -29
64 -40 136 -45 58 -5 74 -3 85 11 7 9 27 16 42 16 34 0 51 31 51 92 1 30 -7
45 -49 87 -52 53 -63 60 -63 39 0 -12 16 -30 79 -91 15 -14 17 -26 11 -58 -4
-22 -12 -44 -16 -49 -5 -5 -34 -5 -64 -2 -46 6 -55 10 -55 27 0 11 -10 24 -23
31 -33 16 -36 22 -22 39 10 12 7 22 -19 57 -17 23 -31 52 -31 65 0 32 -18 29
-26 -4z m31 -164 c0 -47 -9 -49 -30 -8 -19 36 -14 59 12 53 15 -4 19 -14 18
-45z m50 -57 c-7 -8 -35 7 -35 18 0 6 7 6 20 -2 10 -7 17 -14 15 -16z"/>
</g>
</svg>
