<svg xmlns="http://www.w3.org/2000/svg" width="760" height="560" viewBox="0 0 760 560" font-family="Noto Sans CJK TC" font-size="15">
  <rect width="100%" height="100%" fill="#fbf9f4"/>
  <!-- dark abyss region (right) -->
  <path d="M470 130 L640 130 L640 360 L560 360 L560 300 L480 300 L480 230 L470 230 Z"
        fill="#d9d4c8" stroke="#222" stroke-width="3"/>
  <!-- rocky scatter (light dots) suggesting open underworld -->
  <g fill="#cfcabb" stroke="none">
    <ellipse cx="120" cy="80" rx="12" ry="7"/><ellipse cx="190" cy="70" rx="12" ry="7"/>
    <ellipse cx="270" cy="80" rx="12" ry="7"/><ellipse cx="360" cy="70" rx="12" ry="7"/>
    <ellipse cx="560" cy="70" rx="12" ry="7"/><ellipse cx="650" cy="80" rx="12" ry="7"/>
    <ellipse cx="100" cy="430" rx="12" ry="7"/><ellipse cx="180" cy="470" rx="12" ry="7"/>
    <ellipse cx="260" cy="500" rx="12" ry="7"/><ellipse cx="360" cy="470" rx="12" ry="7"/>
    <ellipse cx="450" cy="490" rx="12" ry="7"/><ellipse cx="560" cy="470" rx="12" ry="7"/>
    <ellipse cx="650" cy="450" rx="12" ry="7"/><ellipse cx="700" cy="300" rx="12" ry="7"/>
    <ellipse cx="700" cy="200" rx="12" ry="7"/><ellipse cx="80" cy="200" rx="12" ry="7"/>
  </g>
  <!-- connecting paths between major nodes (schematic) -->
  <g stroke="#888" stroke-width="2" fill="none" stroke-dasharray="5 5">
    <line x1="220" y1="320" x2="320" y2="330"/>
    <line x1="320" y1="330" x2="480" y2="330"/>
    <line x1="180" y1="320" x2="180" y2="420"/>
    <line x1="180" y1="420" x2="300" y2="470"/>
    <line x1="555" y1="240" x2="555" y2="320"/>
    <line x1="555" y1="180" x2="555" y2="240"/>
    <line x1="600" y1="330" x2="660" y2="330"/>
    <line x1="320" y1="330" x2="360" y2="450"/>
    <line x1="360" y1="450" x2="450" y2="460"/>
  </g>
  <!-- a few wall fragments / structures -->
  <g stroke="#222" stroke-width="3" fill="none">
    <!-- structure near 15 (lower-left) -->
    <path d="M150 430 L150 380 L210 380 L210 410 L180 410 L180 430 Z"/>
    <!-- structure near 11 (mid-left) -->
    <rect x="240" y="290" width="60" height="50"/>
  </g>
  <g font-weight="bold">
    <circle cx="430" cy="500" r="12" fill="#c0392b"/><text x="430" y="500" fill="#fff" text-anchor="middle" dominant-baseline="central">1</text>
    <circle cx="510" cy="490" r="12" fill="#c0392b"/><text x="510" y="490" fill="#fff" text-anchor="middle" dominant-baseline="central">2</text>
    <circle cx="200" cy="455" r="12" fill="#c0392b"/><text x="200" y="455" fill="#fff" text-anchor="middle" dominant-baseline="central">3</text>
    <circle cx="490" cy="330" r="12" fill="#c0392b"/><text x="490" y="330" fill="#fff" text-anchor="middle" dominant-baseline="central">4</text>
    <circle cx="340" cy="230" r="12" fill="#c0392b"/><text x="340" y="230" fill="#fff" text-anchor="middle" dominant-baseline="central">5</text>
    <circle cx="555" cy="240" r="12" fill="#c0392b"/><text x="555" y="240" fill="#fff" text-anchor="middle" dominant-baseline="central">6</text>
    <circle cx="650" cy="330" r="12" fill="#c0392b"/><text x="650" y="330" fill="#fff" text-anchor="middle" dominant-baseline="central">7</text>
    <circle cx="360" cy="110" r="12" fill="#c0392b"/><text x="360" y="110" fill="#fff" text-anchor="middle" dominant-baseline="central">8</text>
    <circle cx="290" cy="350" r="12" fill="#c0392b"/><text x="290" y="350" fill="#fff" text-anchor="middle" dominant-baseline="central">9</text>
    <circle cx="190" cy="300" r="12" fill="#c0392b"/><text x="190" y="300" fill="#fff" text-anchor="middle" dominant-baseline="central">10</text>
    <circle cx="270" cy="315" r="12" fill="#c0392b"/><text x="270" y="315" fill="#fff" text-anchor="middle" dominant-baseline="central">11</text>
    <circle cx="540" cy="400" r="12" fill="#c0392b"/><text x="540" y="400" fill="#fff" text-anchor="middle" dominant-baseline="central">12</text>
    <circle cx="555" cy="160" r="12" fill="#c0392b"/><text x="555" y="160" fill="#fff" text-anchor="middle" dominant-baseline="central">13</text>
    <circle cx="640" cy="240" r="12" fill="#c0392b"/><text x="640" y="240" fill="#fff" text-anchor="middle" dominant-baseline="central">14</text>
    <circle cx="170" cy="400" r="12" fill="#c0392b"/><text x="170" y="400" fill="#fff" text-anchor="middle" dominant-baseline="central">15</text>
  </g>
  <text x="500" y="540" text-anchor="middle" font-size="22" font-family="Noto Sans CJK TC" font-weight="bold" fill="#222">Magan Underworld 瑪根地底世界</text>
</svg>
