<?xml version="1.0" standalone="no"?>
<!DOCTYPE svg PUBLIC "-//W3C//DTD SVG 20010904//EN"
 "http://www.w3.org/TR/2001/REC-SVG-20010904/DTD/svg10.dtd">
<svg version="1.0" xmlns="http://www.w3.org/2000/svg"
 width="764.000000pt" height="692.000000pt" viewBox="0 0 764.000000 692.000000"
 preserveAspectRatio="xMidYMid meet">
<metadata>
Created by potrace 1.16, written by Peter Selinger 2001-2019
</metadata>
<g transform="translate(0.000000,692.000000) scale(0.100000,-0.100000)"
fill="#000000" stroke="none">
<path d="M7020 6873 c-113 -2 -883 -7 -1712 -11 -1186 -6 -1509 -11 -1521 -20
-14 -12 -15 -117 -10 -915 3 -496 7 -904 9 -906 1 -1 227 -4 500 -5 l498 -1 6
-25 c4 -18 13 -25 30 -25 25 0 25 0 25 105 0 105 0 105 -25 105 -18 0 -26 -7
-30 -25 l-6 -25 -164 -6 c-249 -9 -728 -10 -733 -2 -3 5 -7 374 -9 821 -2 692
-1 814 11 821 8 5 314 10 680 12 850 3 927 2 940 -6 6 -3 11 -24 11 -46 0 -36
-3 -40 -31 -46 -25 -5 -30 -10 -27 -32 3 -25 5 -26 88 -29 110 -4 130 1 130
33 0 20 -6 27 -30 32 -28 5 -30 9 -30 48 0 28 5 45 14 48 8 3 311 6 673 6 362
1 701 4 754 7 53 4 122 3 153 -1 l58 -7 -1 -111 c0 -62 2 -430 5 -818 l5 -706
-173 -6 c-95 -4 -466 -10 -825 -14 l-651 -6 -7 44 c-3 24 -5 242 -3 484 l3
440 28 13 c18 9 27 21 27 38 0 24 -1 24 -98 24 -100 0 -122 -7 -122 -41 0 -10
13 -20 33 -25 23 -7 33 -16 35 -34 2 -14 8 -37 14 -53 8 -20 7 -31 -1 -41 -8
-10 -10 -123 -8 -407 2 -217 0 -404 -4 -416 -7 -19 -16 -23 -48 -23 -35 0 -40
3 -43 26 -3 31 -28 50 -51 41 -11 -4 -17 -28 -22 -91 -9 -108 -3 -136 31 -136
15 0 27 7 30 18 12 37 21 44 57 47 28 1 40 -3 48 -16 5 -11 8 -336 7 -861 l-3
-843 -107 -3 c-78 -2 -109 -6 -118 -17 -9 -11 -35 -15 -96 -15 -73 0 -85 -2
-94 -20 -9 -17 -21 -20 -79 -20 -49 0 -72 -4 -81 -15 -9 -11 -33 -15 -86 -15
-58 0 -75 -3 -83 -17 -6 -12 -23 -18 -54 -19 -25 -1 -50 -5 -57 -9 -8 -5 -10
-72 -6 -247 3 -132 9 -244 12 -250 4 -6 25 -8 50 -5 34 3 47 0 60 -14 13 -15
31 -19 81 -19 50 0 71 -5 90 -20 19 -15 41 -20 87 -20 35 0 67 -5 74 -12 8 -8
39 -11 89 -10 66 2 79 0 99 -19 21 -19 34 -22 119 -21 67 1 97 -2 100 -11 2
-7 7 -320 11 -697 11 -1016 11 -1000 -1 -1009 -5 -5 -397 -12 -870 -16 -473
-4 -863 -9 -867 -11 -6 -4 -5 -290 1 -726 l1 -48 45 0 45 0 0 334 c0 184 4
337 8 340 5 3 384 8 843 11 459 3 996 7 1194 10 198 3 583 5 855 5 l495 1 3
-351 2 -350 50 0 49 0 0 423 c0 232 0 428 0 435 1 6 9 12 20 12 28 0 47 26 31
45 -17 21 -192 22 -209 1 -17 -20 -3 -44 27 -48 22 -2 28 -9 30 -35 l3 -33
-253 -1 c-139 0 -508 -2 -820 -5 -359 -3 -569 -1 -572 5 -4 5 -9 369 -13 809
-5 682 -4 800 8 808 8 5 226 9 484 10 259 1 621 3 807 5 185 2 339 1 342 -2
12 -12 15 -953 4 -966 -6 -7 -19 -13 -29 -13 -26 0 -36 -40 -13 -57 10 -7 25
-11 32 -8 8 3 49 5 93 5 78 0 79 0 79 25 0 14 -4 26 -10 26 -52 7 -50 -16 -50
544 0 396 -3 526 -12 531 -14 9 -1080 7 -1499 -2 -181 -5 -288 -3 -292 3 -3 5
-9 183 -13 395 l-7 385 64 6 c35 3 254 6 486 7 l422 2 7 -26 c9 -36 30 -52 49
-36 11 9 15 34 15 100 0 49 -3 95 -6 104 -10 26 -43 19 -57 -11 -6 -16 -16
-31 -22 -35 -13 -10 -882 -10 -889 0 -10 16 -11 1601 -1 1610 6 6 335 11 825
13 l815 4 5 -803 c3 -442 2 -808 -1 -814 -3 -5 -26 -8 -50 -6 -40 3 -44 6 -47
31 -3 24 -8 28 -29 25 -25 -3 -26 -4 -28 -100 -2 -73 0 -100 11 -109 19 -15
44 -4 44 19 0 35 25 44 105 41 59 -3 78 0 85 11 6 9 8 280 4 705 -3 380 -5
1147 -6 1705 0 558 -3 1042 -6 1075 l-7 60 -65 0 c-36 1 -157 -1 -270 -2z
m-1485 -3625 c3 -13 4 -174 3 -358 l-3 -335 -82 -2 c-56 -1 -85 3 -92 11 -12
14 -28 664 -18 691 5 12 25 15 96 15 86 0 91 -1 96 -22z m-231 -26 c4 -7 10
-450 7 -589 l-1 -53 -75 0 -75 0 0 84 c0 49 -4 88 -11 91 -17 11 -22 -2 -21
-57 3 -77 -4 -83 -91 -80 l-37 2 2 292 3 293 38 2 c61 5 77 -9 77 -68 0 -43 3
-50 18 -47 14 3 16 13 14 48 -4 86 -1 90 78 90 38 0 71 -4 74 -8z m-356 -54
c9 -9 12 -82 12 -265 0 -234 -1 -253 -17 -254 -10 -1 -36 -2 -58 -3 l-40 -1
-5 185 c-3 102 -3 220 -1 262 l3 77 42 4 c22 2 43 4 47 5 3 1 10 -3 17 -10z
m-150 -253 c3 -241 2 -246 -56 -237 l-29 4 -7 209 c-8 240 -6 252 52 247 l37
-3 3 -220z"/>
<path d="M5143 3033 c-16 -6 -17 -39 -2 -48 14 -9 6 -110 -11 -129 -10 -13 -9
-17 3 -22 23 -8 52 -1 51 14 -1 6 -2 53 -2 102 -2 90 -5 97 -39 83z"/>
<path d="M1466 6827 c-647 -5 -1149 -13 -1163 -18 l-24 -9 5 -1073 c4 -589 7
-1378 7 -1752 1 -374 4 -685 6 -693 5 -10 93 -13 473 -11 257 1 473 5 480 9
15 9 14 -14 11 522 -1 211 -5 378 -11 393 l-10 26 -420 -2 c-231 -1 -422 0
-424 2 -10 10 -15 475 -18 1452 -1 806 1 1050 10 1056 7 4 405 8 885 10 857 2
1093 5 1433 17 140 5 173 3 185 -8 22 -22 28 -2488 7 -2506 -11 -9 -124 -12
-434 -14 l-419 -3 3 -460 c1 -253 4 -466 7 -472 3 -10 98 -13 429 -13 l426 0
5 -22 c3 -13 7 -204 9 -425 2 -221 7 -407 11 -413 7 -12 54 -13 72 -2 10 6 13
109 15 437 l3 428 155 3 c85 2 475 6 865 10 391 4 711 8 713 9 3 2 4 183 3
611 l-1 321 -867 2 c-478 1 -871 5 -874 9 -12 12 -19 626 -19 1619 -1 810 -3
953 -15 963 -10 8 -67 11 -197 8 -101 -1 -696 -7 -1322 -11z m3188 -2676 c7
-10 12 -739 5 -745 -8 -8 -2465 -35 -2501 -28 -15 4 -17 35 -20 333 -2 181 -1
351 0 379 l4 50 296 1 c164 1 446 5 627 8 508 11 1583 12 1589 2z m-3494 -391
c3 -236 1 -369 -5 -377 -7 -9 -104 -13 -377 -14 -202 0 -372 2 -377 6 -12 7
-16 737 -4 748 4 4 176 6 382 5 l376 -3 5 -365z"/>
<path d="M6996 6623 c-14 -7 -26 -22 -26 -32 0 -31 13 -32 37 -4 22 27 23 28
38 9 21 -28 19 -36 -15 -49 -37 -14 -37 -20 -5 -35 31 -14 41 -37 25 -57 -19
-22 -50 -19 -50 5 0 24 -26 38 -42 22 -15 -15 0 -50 25 -58 32 -10 76 -7 93 7
15 13 19 56 5 78 -5 7 -4 24 1 40 22 60 -29 104 -86 74z"/>
<path d="M1517 5432 c-25 -27 -22 -72 3 -72 16 0 20 7 20 30 0 23 5 30 19 30
10 0 24 -7 32 -16 10 -13 9 -21 -6 -47 -10 -18 -24 -36 -32 -40 -17 -10 -17
-27 0 -27 19 0 87 73 87 93 0 10 -11 29 -25 42 -29 30 -75 33 -98 7z"/>
<path d="M1502 5268 c-28 -28 -13 -38 58 -38 63 0 70 2 70 20 0 18 -5 20 -39
14 -24 -4 -41 -2 -45 5 -9 14 -29 14 -44 -1z"/>
<path d="M3807 2503 c-4 -3 -7 -192 -7 -418 0 -318 -3 -415 -12 -423 -8 -6
-305 -11 -823 -13 l-810 -4 -3 409 c-1 282 -6 413 -13 423 -13 15 -57 17 -77
4 -11 -7 -12 -219 -6 -1245 l7 -1236 49 0 48 0 0 771 c-1 424 2 774 5 777 3 3
174 7 380 10 307 3 376 1 379 -10 6 -18 15 -724 16 -1180 l0 -368 46 0 47 0
-7 774 c-3 426 -2 777 2 780 5 3 395 8 868 12 472 3 862 9 867 13 4 4 6 214 5
467 l-3 459 -476 3 c-261 1 -479 -1 -482 -5z m871 -457 c2 -264 -1 -373 -9
-382 -16 -20 -754 -21 -766 -1 -14 21 -16 726 -2 743 10 12 70 14 393 12 l381
-3 3 -369z"/>
<path d="M595 2480 l-290 -5 -1 -470 c-1 -608 2 -551 -34 -564 -31 -10 -38
-29 -18 -49 17 -17 179 -16 202 1 24 17 11 43 -25 51 -25 5 -29 10 -29 40 0
18 6 39 14 45 9 8 138 12 429 14 229 2 420 7 424 11 7 7 6 917 -1 924 -6 6
-390 7 -671 2z m569 -88 c3 -5 6 -174 7 -377 1 -284 -1 -369 -11 -375 -20 -12
-747 -13 -755 -1 -7 13 -8 738 0 751 7 11 752 13 759 2z"/>
<path d="M254 905 c-9 -23 2 -43 28 -47 19 -2 25 -12 31 -48 5 -25 8 -56 7
-70 -1 -14 -4 -186 -6 -382 l-4 -358 50 0 50 0 2 427 3 427 25 6 c18 4 25 13
25 30 0 25 -1 25 -103 28 -85 2 -103 0 -108 -13z"/>
</g>
</svg>
