<?xml version="1.0" standalone="no"?>
<!DOCTYPE svg PUBLIC "-//W3C//DTD SVG 20010904//EN"
 "http://www.w3.org/TR/2001/REC-SVG-20010904/DTD/svg10.dtd">
<svg version="1.0" xmlns="http://www.w3.org/2000/svg"
 width="1200.000000pt" height="1296.000000pt" viewBox="0 0 1200.000000 1296.000000"
 preserveAspectRatio="xMidYMid meet">
<metadata>
Created by potrace 1.16, written by Peter Selinger 2001-2019
</metadata>
<g transform="translate(0.000000,1296.000000) scale(0.100000,-0.100000)"
fill="#000000" stroke="none">
<path d="M5945 12949 c-60 -4 -699 -10 -1420 -14 -720 -4 -1332 -8 -1360 -9
-27 -2 -60 -9 -72 -16 -18 -12 -24 -12 -39 1 -23 19 -782 24 -2101 14 l-953
-7 0 -51 0 -50 3583 9 c1970 5 3877 9 4237 9 360 1 1448 3 2418 5 l1762 3 0
59 0 59 -2972 -3 c-1635 -1 -3022 -5 -3083 -9z"/>
<path d="M2330 12180 c-124 -3 -226 -7 -227 -8 -2 -1 -3 -103 -3 -226 0 -163
-3 -225 -12 -228 -21 -7 3 -28 32 -28 34 0 45 13 26 30 -12 9 -14 50 -13 218
l2 207 223 0 222 0 0 23 c0 12 -6 21 -12 20 -7 -1 -114 -5 -238 -8z"/>
<path d="M2793 12173 c-9 -22 9 -35 38 -29 33 6 29 20 34 -139 6 -198 4 -263
-9 -283 -11 -18 2 -32 29 -32 28 0 43 19 25 30 -11 7 -13 54 -12 210 1 111 5
206 8 212 6 9 721 5 730 -5 8 -7 9 -409 2 -414 -20 -12 -6 -33 22 -33 30 0 42
21 20 35 -6 4 -8 72 -5 183 2 97 4 189 5 205 l0 27 359 0 c260 0 362 -3 367
-11 4 -7 8 -166 10 -355 3 -367 0 -389 -43 -366 -24 13 -33 7 -33 -24 0 -22
25 -40 35 -25 9 15 3557 22 3588 7 15 -7 17 -3 17 29 0 32 -2 36 -17 29 -26
-13 -424 -17 -436 -5 -7 7 -5 16 6 29 24 27 21 32 -16 32 -42 0 -49 -7 -36
-33 8 -15 8 -22 -2 -28 -8 -5 -256 -9 -552 -9 l-538 0 7 35 c6 34 5 35 -23 35
-38 0 -45 -8 -32 -32 7 -13 7 -24 1 -30 -5 -5 -240 -11 -565 -15 l-557 -6 0
22 c0 11 5 21 10 21 6 0 10 7 10 15 0 10 -10 15 -34 15 -40 0 -53 -14 -35 -36
24 -29 -5 -35 -177 -32 l-169 3 -3 378 c-2 335 -4 378 -18 375 -13 -3 -15 -47
-14 -367 0 -200 3 -367 5 -371 3 -4 -2 -11 -11 -14 -23 -9 -317 -7 -331 2 -9
6 -12 103 -14 380 -1 346 -2 373 -19 382 -28 15 -1621 18 -1627 3z"/>
<path d="M0 12160 c0 -20 4 -20 673 -18 589 3 672 5 672 18 0 13 -83 15 -672
18 -669 2 -673 2 -673 -18z"/>
<path d="M5197 12167 c-16 -11 -18 -37 -18 -247 l-1 -235 23 0 c18 0 23 5 22
20 -5 36 -6 425 -2 429 9 9 1119 14 1125 5 3 -5 6 -100 6 -210 0 -150 -3 -203
-12 -209 -18 -11 -3 -30 25 -30 29 0 41 16 26 34 -7 9 -11 82 -10 213 l1 201
55 6 c70 8 815 8 951 -1 l102 -6 0 -201 c0 -135 -4 -206 -11 -213 -17 -17 -1
-33 32 -33 29 0 41 22 19 35 -6 4 -10 85 -10 209 0 203 0 204 23 210 31 9
1059 2 1078 -7 11 -5 14 -16 11 -33 -2 -14 0 -24 7 -24 6 0 11 10 11 21 0 20
3 21 55 15 44 -5 55 -3 55 8 0 17 -17 24 -110 42 -104 20 -3426 21 -3453 1z"/>
<path d="M1716 12153 c-3 -4 -4 -168 0 -365 6 -284 5 -360 -6 -373 -11 -13
-108 -15 -861 -15 -842 0 -849 0 -849 -20 0 -20 6 -20 678 -19 372 1 765 4
872 8 l195 6 3 393 c2 323 0 392 -11 392 -8 0 -17 -3 -21 -7z"/>
<path d="M8806 12142 c-3 -3 -6 -12 -6 -20 0 -12 12 -14 73 -8 115 10 108 23
106 -188 l-2 -181 29 -4 c25 -3 175 7 399 25 119 10 658 12 910 4 132 -5 501
-13 820 -19 319 -6 644 -14 723 -17 137 -6 142 -6 142 13 0 19 -9 20 -162 26
-90 3 -288 6 -440 6 -153 1 -405 6 -560 11 -699 24 -1330 20 -1692 -9 -66 -5
-125 -7 -132 -4 -10 4 -13 46 -11 186 l2 182 -97 2 c-53 1 -99 -1 -102 -5z"/>
<path d="M8627 11863 c-4 -104 -3 -215 2 -248 4 -33 7 -82 5 -110 -1 -27 2
-57 6 -65 5 -8 9 122 8 298 0 171 -3 312 -7 312 -5 0 -11 -84 -14 -187z"/>
<path d="M2084 11458 c-4 -6 -2 -14 4 -16 7 -2 12 -16 12 -32 0 -16 7 -30 16
-34 8 -3 451 -6 983 -6 532 0 982 -3 1000 -6 30 -6 32 -5 29 16 l-3 22 -222
-1 c-216 -2 -223 -1 -223 18 0 10 5 21 12 23 21 7 -2 28 -31 28 -37 0 -44 -10
-25 -31 9 -10 13 -23 9 -28 -8 -14 -713 -15 -735 -1 -12 8 -12 11 3 28 9 10
14 22 10 25 -9 10 -55 8 -72 -2 -11 -7 -9 -11 8 -21 18 -9 20 -14 11 -25 -10
-12 -76 -14 -366 -15 -325 0 -355 1 -361 17 -4 9 -1 19 5 21 7 2 12 10 12 18
0 18 -65 19 -76 2z"/>
<path d="M8190 11403 c0 -33 15 -46 38 -34 31 16 291 13 397 -6 108 -19 221
-20 410 -5 401 33 887 34 2613 5 321 -5 352 -4 352 11 0 10 -9 16 -22 17 -192
5 -1264 21 -1798 26 -678 6 -917 0 -1160 -27 -47 -6 -119 -12 -160 -14 -41 -3
-90 -8 -107 -12 -19 -3 -33 -2 -33 3 0 19 -74 34 -197 38 -70 3 -174 7 -230
10 -94 5 -103 4 -103 -12z"/>
<path d="M5887 11033 c-10 -10 -8 -51 3 -58 5 -3 18 -1 29 5 14 7 22 7 26 0 4
-6 7 -84 8 -173 l2 -162 -178 -3 -177 -2 2 167 3 168 35 0 c30 0 35 4 38 25
l3 25 -812 -3 c-553 -2 -817 -6 -825 -13 -10 -8 -13 -62 -12 -226 1 -176 -1
-216 -13 -224 -12 -8 -11 -12 5 -24 23 -17 26 -18 46 -5 12 7 13 13 3 28 -16
26 -17 408 -2 418 13 8 1107 6 1120 -1 11 -8 -1 -398 -13 -412 -15 -18 6 -40
34 -37 13 1 26 3 31 3 13 2 7 29 -8 35 -8 3 -12 12 -9 21 6 13 69 15 568 13
l561 -3 0 -185 c0 -102 -2 -205 -5 -230 -4 -39 -3 -45 15 -48 11 -1 27 2 35 7
12 8 12 13 -4 30 -10 11 -15 27 -12 38 9 27 10 714 2 740 -5 16 -2 24 11 30
27 14 374 9 400 -5 17 -9 22 -9 27 4 15 40 -3 79 -27 55 -15 -15 -873 -16
-882 -1 -7 12 -19 13 -28 3z m461 -52 c10 -1 13 -37 10 -173 l-3 -173 -165 -3
c-91 -1 -175 0 -187 3 -23 5 -23 7 -23 174 0 153 2 170 18 173 15 3 313 2 350
-1z m-774 -28 c11 -54 -2 -305 -16 -314 -15 -10 -281 -12 -315 -3 -23 6 -23 9
-23 175 l0 169 174 0 174 0 6 -27z"/>
<path d="M7046 11032 c-3 -3 -6 -15 -6 -26 0 -21 3 -21 215 -18 160 3 220 1
231 -8 12 -11 14 -90 14 -558 0 -379 -4 -550 -12 -559 -8 -10 -117 -13 -555
-13 l-545 0 7 29 c7 33 -5 45 -36 36 -17 -6 -19 -12 -14 -37 4 -16 8 -113 9
-215 1 -158 -1 -186 -15 -193 -8 -5 -259 -9 -556 -10 -417 0 -543 2 -549 12
-12 19 -7 789 6 802 22 22 10 36 -30 36 -40 0 -52 -14 -30 -36 11 -11 16 -407
5 -424 -10 -16 -1105 -6 -1115 10 -10 16 -7 400 3 426 6 15 4 23 -7 27 -29 11
-48 -3 -41 -32 3 -14 7 -207 9 -427 2 -221 6 -407 11 -413 6 -10 414 -12 1904
-11 1043 2 1913 5 1934 7 l37 6 0 783 c0 615 -3 785 -12 791 -7 4 -188 7 -403
5 -222 -1 -404 2 -422 7 -17 5 -34 7 -37 3z m837 -139 c6 -105 1 -1412 -5
-1419 -6 -6 -1480 -6 -1486 0 -8 9 -8 310 0 328 8 16 50 17 564 18 306 0 560
3 565 6 5 3 9 259 9 578 0 315 3 576 7 579 3 4 81 7 173 7 l167 0 6 -97z
m-2700 -1092 c4 -4 6 -81 5 -172 l-3 -164 -549 -3 c-303 -1 -554 2 -558 6 -5
5 -10 82 -11 171 -2 126 1 164 11 170 17 10 1094 3 1105 -8z"/>
<path d="M9535 11034 c-16 -2 -124 -8 -240 -14 -115 -6 -262 -15 -325 -21 -63
-6 -131 -12 -150 -13 -23 -1 -35 -7 -35 -16 0 -11 11 -14 45 -13 98 5 465 35
469 39 2 2 12 -1 22 -7 18 -9 19 -27 18 -337 0 -180 -3 -345 -7 -367 -8 -40
-17 -45 -54 -30 -15 6 -18 2 -18 -28 0 -41 12 -54 30 -32 15 18 91 20 108 3
16 -16 32 5 32 39 0 24 -22 43 -28 25 -2 -7 -13 -12 -24 -12 -20 0 -20 3 -14
367 4 281 8 368 18 375 7 4 172 8 366 8 274 0 354 -3 357 -13 3 -7 2 -174 -2
-372 l-8 -360 -204 -3 c-146 -2 -207 1 -212 9 -11 19 -29 0 -29 -32 0 -29 22
-41 35 -19 9 14 402 13 410 0 4 -6 1 -17 -5 -25 -6 -8 -9 -18 -6 -23 9 -14 42
-21 57 -11 11 6 10 12 -5 28 -17 19 -17 20 3 30 12 7 89 11 195 11 l176 0 2
188 3 187 430 0 c237 0 571 -3 743 -8 309 -7 312 -7 312 13 0 20 -6 20 -322
21 -178 0 -406 3 -508 7 -102 3 -297 6 -435 7 l-250 0 -5 -190 -5 -190 -170 0
-170 0 -2 210 c-2 116 0 282 5 370 l7 160 210 2 c116 1 388 -2 605 -7 1061
-24 1040 -24 1040 -8 0 12 -31 16 -187 22 -500 18 -2195 41 -2278 30z"/>
<path d="M2160 11023 c-53 -10 -50 17 -50 -632 1 -413 -2 -607 -10 -609 -5 -2
-10 -10 -10 -18 0 -9 11 -14 34 -14 40 0 52 12 31 30 -22 19 -22 408 0 416 8
4 22 1 30 -6 16 -13 18 -11 28 38 6 27 -16 40 -38 22 -8 -6 -19 -9 -25 -5 -7
4 -10 129 -10 372 l0 365 35 -6 c34 -7 35 -6 35 24 0 31 -2 31 -50 23z"/>
<path d="M2422 11000 c2 -19 8 -24 23 -20 33 7 399 6 418 -2 15 -7 17 -26 17
-206 0 -165 -3 -202 -15 -212 -21 -18 -9 -30 29 -30 41 0 50 9 32 29 -11 13
-15 59 -17 216 l-2 200 226 0 c172 0 228 3 232 13 14 37 8 37 -476 37 l-470 0
3 -25z"/>
<path d="M3582 10998 c2 -24 7 -32 18 -29 8 2 24 4 34 5 18 1 19 -13 21 -354
1 -195 -1 -361 -3 -368 -3 -8 -15 -10 -38 -6 -33 6 -34 5 -34 -24 0 -36 15
-49 36 -31 36 30 39 1 39 -364 l0 -352 -32 3 c-28 2 -34 -2 -39 -24 -7 -28 13
-51 30 -34 6 6 20 10 32 10 13 0 25 4 29 9 3 6 5 340 4 743 -1 403 -2 754 -2
780 1 45 -15 67 -37 53 -5 -3 -11 -1 -15 5 -3 5 -15 10 -26 10 -17 0 -20 -6
-17 -32z"/>
<path d="M8300 11022 l-25 -8 -3 -779 c-1 -433 2 -783 7 -788 4 -4 70 -11 145
-14 172 -6 192 -11 189 -46 -1 -18 4 -28 18 -32 26 -8 34 -1 24 22 -11 26 -7
380 4 401 8 16 26 18 133 20 68 1 210 7 317 12 126 7 198 7 206 0 19 -15 8
-390 -12 -412 -14 -16 -14 -18 0 -24 27 -10 63 0 57 16 -3 8 -5 110 -5 227 0
144 -4 216 -11 223 -9 9 -80 9 -274 1 -145 -6 -266 -8 -270 -6 -4 2 -22 -1
-41 -6 -27 -9 -43 -8 -70 3 l-34 15 0 164 0 164 43 1 c24 1 99 4 167 8 87 5
131 3 146 -5 28 -15 54 9 44 40 -7 22 -29 28 -40 11 -4 -6 -58 -10 -130 -10
-90 0 -125 -3 -128 -12 -3 -10 -9 -10 -26 0 -11 6 -32 12 -46 12 -14 0 -26 6
-27 13 0 6 -2 154 -4 327 -3 372 -2 350 -13 350 -6 0 -10 -268 -11 -657 -1
-362 -2 -687 -4 -723 l-2 -65 -154 3 c-85 2 -158 7 -163 11 -4 4 -6 344 -5
757 l3 749 154 -1 c121 0 156 -3 165 -15 14 -17 118 -19 123 -2 6 17 -23 29
-100 42 -85 15 -314 23 -347 13z"/>
<path d="M1370 11011 l-25 -7 -3 -574 c-2 -444 -5 -576 -15 -582 -6 -4 -308
-8 -669 -8 -570 0 -658 -2 -658 -15 0 -11 18 -15 83 -17 l82 -3 0 -360 0 -360
-30 0 c-27 0 -30 -3 -30 -30 1 -23 5 -29 18 -27 57 8 52 40 55 -356 3 -320 1
-363 -13 -368 -8 -4 -22 -1 -31 6 -20 17 -37 0 -32 -31 2 -20 9 -24 38 -24
l35 0 0 -360 0 -360 -87 -3 c-67 -2 -88 -6 -88 -17 0 -10 22 -14 93 -17 50 -2
98 1 105 6 11 8 13 213 11 1145 -2 625 0 1142 4 1149 6 9 133 12 577 12 370 0
571 4 575 10 6 10 7 720 2 1003 -2 81 1 141 7 147 13 13 333 13 341 1 3 -6 8
-518 12 -1140 5 -970 4 -1131 -9 -1136 -7 -3 -268 -9 -578 -13 l-565 -7 1
-580 c0 -319 2 -753 4 -965 l3 -385 -194 -5 -194 -5 -2 -260 c-2 -143 1 -413
5 -600 l7 -340 182 -3 c170 -2 183 -4 193 -22 7 -12 10 -79 8 -172 l-3 -153
-190 -6 c-104 -3 -191 -6 -193 -7 -1 -1 -2 -267 -2 -592 0 -548 2 -590 18
-599 9 -5 96 -9 192 -10 96 -1 178 -6 183 -10 4 -4 6 -81 5 -172 l-3 -164
-184 -3 c-116 -1 -189 -7 -198 -14 -18 -14 -7 -1159 11 -1170 6 -4 90 -7 188
-5 97 1 179 -1 182 -4 5 -5 11 -291 7 -336 -1 -10 -68 -13 -301 -13 -193 0
-300 -4 -300 -10 0 -5 1 -11 3 -12 1 0 151 -4 332 -8 182 -4 339 -9 350 -11
16 -3 20 1 20 26 0 28 -3 30 -35 30 l-35 0 0 165 c0 175 0 175 47 155 19 -8
32 22 22 49 -5 13 -12 16 -28 10 -21 -8 -415 -5 -428 3 -5 2 -8 251 -8 554 l0
549 208 0 c139 0 212 -4 219 -11 17 -17 33 -1 33 33 0 29 -1 30 -35 24 l-35
-7 -1 48 c-2 254 -1 285 9 295 8 8 15 8 27 -2 21 -17 38 -1 33 31 -2 19 -9 24
-28 22 -102 -7 -424 -3 -430 7 -4 6 -6 259 -6 563 l1 552 209 3 c133 1 213 -1
221 -8 16 -13 38 12 33 37 -2 13 -13 18 -38 18 l-35 0 0 165 0 165 30 0 c31 0
42 19 26 44 -6 9 -14 10 -27 3 -27 -14 -417 -4 -426 11 -9 14 -13 312 -10 732
1 165 2 324 2 353 l0 53 208 -4 c114 -2 217 -8 228 -11 26 -9 39 16 24 45 -9
16 -14 17 -31 8 -13 -7 -25 -7 -30 -2 -16 16 -21 1893 -6 1895 15 2 77 3 646
6 292 2 458 -1 464 -7 7 -7 6 -15 -1 -24 -15 -18 -5 -27 30 -27 28 0 37 17 19
36 -5 5 -12 515 -16 1194 -5 883 -10 1187 -18 1192 -15 10 -333 8 -367 -1z"/>
<path d="M0 10995 c0 -13 60 -15 473 -17 l472 -3 3 -367 2 -368 -27 -6 c-15
-4 -228 -4 -475 -1 -438 5 -448 5 -448 -14 0 -19 11 -19 493 -17 l492 3 0 385
c0 212 -3 393 -7 402 -7 16 -43 17 -493 18 -425 0 -485 -2 -485 -15z"/>
<path d="M2878 10313 c-20 -5 -23 -24 -7 -40 30 -30 -3 -35 -203 -31 -110 2
-202 6 -205 11 -2 4 -13 7 -24 7 -15 0 -19 -7 -19 -35 0 -28 4 -35 19 -35 11
0 23 5 26 10 10 16 390 13 403 -3 14 -17 16 -403 2 -412 -5 -3 -10 -13 -10
-21 0 -10 12 -14 40 -14 41 0 52 14 25 34 -20 15 -24 388 -4 412 11 14 37 15
204 10 104 -3 201 -7 215 -8 21 -2 25 1 25 21 l0 24 -222 -2 c-217 -2 -223 -2
-223 18 0 11 5 23 10 26 8 5 7 11 -1 21 -12 14 -20 15 -51 7z"/>
<path d="M10925 10251 c-3 -6 -19 -11 -36 -11 -16 0 -30 -1 -31 -2 -1 -2 -4
-86 -7 -188 l-6 -185 -354 -3 c-352 -2 -392 1 -363 30 22 22 14 40 -15 36 -21
-2 -28 -8 -26 -23 5 -55 5 -147 -1 -575 -15 -1054 -28 -1775 -33 -1783 -7 -11
-333 -5 -340 6 -3 5 0 14 6 20 6 6 11 19 11 30 0 14 -6 18 -27 15 -27 -3 -27
-3 -27 -88 0 -60 4 -85 12 -84 7 1 19 2 27 3 10 1 14 10 13 32 l-3 31 165 1
165 2 -1 -210 c0 -115 -2 -219 -5 -230 -3 -13 2 -20 15 -23 26 -6 42 13 27 32
-17 21 -11 400 6 417 10 10 117 12 465 11 249 -1 495 -5 547 -9 l93 -6 -6
-421 c-8 -502 -15 -699 -24 -708 -4 -3 -104 -2 -222 3 -118 5 -291 9 -385 8
-93 -1 -241 -1 -327 0 l-158 1 0 208 c0 139 4 212 11 219 18 18 2 32 -29 24
-23 -7 -27 -12 -24 -40 l3 -31 -168 2 -168 3 -2 200 c-1 164 1 204 14 224 18
28 6 44 -28 39 -18 -2 -23 -8 -20 -23 9 -48 11 -395 2 -419 -9 -22 -14 -24
-35 -17 -28 11 -36 6 -36 -25 0 -29 16 -39 37 -23 13 11 17 11 27 -3 11 -15
12 -57 8 -259 l-2 -76 -232 -7 c-643 -20 -784 -23 -791 -17 -4 4 -6 606 -5
1337 l3 1329 40 -3 c22 -1 47 0 55 4 13 4 12 8 -4 20 -11 8 -29 14 -41 14 -12
0 -30 7 -41 15 -16 12 -17 16 -5 24 19 13 6 41 -19 41 -19 0 -21 -4 -15 -32
l7 -31 -165 6 c-134 5 -167 4 -177 -8 -8 -10 -10 -459 -9 -1764 2 -963 6
-1756 9 -1761 9 -15 399 -30 475 -19 34 6 85 9 111 7 l49 -3 3 -377 2 -378
178 -2 177 -3 1 -357 c1 -310 -1 -359 -14 -370 -11 -10 -79 -13 -281 -12 -223
1 -267 -1 -276 -13 -7 -9 -23 -13 -40 -11 l-30 3 -1 188 c0 108 -5 192 -11
198 -5 5 -153 12 -354 17 l-344 7 -3 383 -2 382 -594 0 c-326 0 -607 3 -623 6
-25 5 -31 2 -35 -14 -8 -29 4 -42 37 -39 l30 2 3 -168 c2 -150 1 -168 -15
-174 -9 -4 -19 -1 -21 5 -7 21 -30 13 -34 -12 -7 -35 5 -48 34 -41 22 6 26 3
32 -26 11 -56 7 -374 -5 -386 -17 -17 -1 -33 33 -33 27 0 30 2 22 23 -11 30
-17 408 -7 418 12 12 705 23 720 12 10 -7 14 -94 15 -366 3 -370 0 -398 -36
-368 -21 18 -36 5 -36 -30 0 -29 2 -30 34 -24 32 7 33 6 38 -32 8 -57 2 -678
-6 -692 -5 -8 -13 -8 -27 -1 -25 14 -39 5 -39 -24 0 -31 9 -37 32 -25 13 7 24
7 30 1 15 -15 22 -701 7 -718 -9 -11 -75 -14 -363 -14 -193 0 -357 4 -365 9
-12 8 -12 12 -2 25 17 20 7 46 -17 46 -29 0 -43 -19 -29 -42 10 -15 9 -21 -3
-28 -16 -11 -698 -14 -724 -4 -9 3 -16 14 -16 24 0 26 -30 54 -43 41 -7 -7 -7
-18 1 -35 9 -20 8 -25 -4 -30 -9 -3 -171 -6 -360 -6 l-344 0 0 365 0 365 32
-2 c26 -2 34 1 36 17 3 30 -14 53 -30 37 -37 -37 -38 -25 -36 356 2 238 7 366
13 365 6 -1 18 -5 27 -8 13 -5 19 0 24 20 9 35 -7 51 -34 34 -12 -7 -23 -11
-26 -8 -8 8 -8 730 -1 738 4 3 165 6 358 6 l352 0 -1 -200 c-1 -110 -3 -209
-5 -220 -3 -15 1 -20 16 -20 19 0 20 8 25 220 l5 220 23 3 c13 2 30 -2 38 -9
21 -17 37 6 28 41 -8 33 -9 34 -36 17 -13 -9 -31 -12 -41 -8 -17 6 -19 21 -18
171 0 131 3 166 15 178 13 13 18 13 42 -3 22 -14 28 -15 35 -4 23 37 -3 77
-35 54 -15 -12 -187 -14 -999 -15 -539 0 -983 -2 -985 -4 -2 -2 -5 -95 -7
-205 -3 -189 -2 -202 16 -212 12 -6 150 -9 369 -7 211 1 354 -2 359 -8 13 -13
24 -2620 11 -2644 -10 -18 -25 -19 -303 -19 -160 1 -327 1 -369 0 l-78 -1 0
-380 c0 -209 -1 -381 -2 -382 -2 -1 -168 -5 -371 -8 -232 -3 -368 -9 -370 -15
-1 -6 124 -11 357 -13 245 -1 364 -6 373 -13 10 -9 13 -83 13 -369 0 -317 -2
-359 -16 -364 -9 -3 -170 -6 -359 -6 -189 0 -350 -3 -359 -6 -49 -19 32 -24
381 -24 l385 0 -5 765 c-5 692 -4 767 11 781 14 14 52 16 326 13 171 -2 1111
-2 2089 -1 1403 2 1779 5 1782 15 3 6 6 91 8 187 l2 175 148 3 c114 2 147 0
147 -10 1 -7 1 -125 1 -263 -1 -137 -1 -294 -1 -347 l0 -97 -27 -3 c-22 -2
-29 -9 -31 -31 -3 -26 -1 -28 25 -25 l28 3 2 -195 c2 -107 0 -269 -5 -360 l-7
-165 -145 -12 c-189 -15 -507 -17 -515 -2 -4 5 1 19 10 29 21 23 12 40 -21 40
-28 0 -42 -24 -25 -43 27 -34 -6 -37 -365 -37 -234 0 -355 4 -359 10 -4 6 -1
17 5 25 16 19 4 35 -26 35 -21 0 -24 -4 -22 -32 l3 -33 -362 -3 c-353 -2 -363
-2 -363 17 0 11 6 21 13 24 21 8 -8 29 -34 25 -19 -2 -24 -9 -24 -33 l0 -30
-372 -3 c-385 -2 -398 -1 -361 36 18 18 -5 36 -36 28 -23 -6 -24 -9 -14 -31 6
-14 8 -28 4 -32 -4 -4 -82 -9 -173 -10 -92 -1 -173 -5 -180 -7 -10 -4 -13 -79
-13 -373 0 -202 -4 -374 -8 -381 -7 -9 -90 -12 -372 -12 -200 0 -366 2 -369 5
-3 3 1 15 8 27 15 24 3 42 -25 36 -15 -3 -18 -11 -16 -36 l2 -32 -734 0 c-635
0 -735 2 -739 15 -4 8 -7 173 -8 366 -1 285 2 353 13 360 7 5 176 9 376 9 287
0 363 3 360 12 -4 10 -88 14 -368 16 -201 1 -368 6 -373 11 -4 4 -11 168 -14
363 -4 294 -3 357 8 364 8 5 177 7 376 5 344 -3 362 -2 370 15 10 20 8 393 -2
403 -3 3 -170 5 -370 6 -229 0 -368 4 -374 10 -6 6 -10 411 -12 1140 -1 622
-5 1213 -9 1315 -6 149 -5 187 5 196 9 7 97 9 262 8 136 -2 305 -1 376 3 l127
6 -2 206 -3 206 -780 0 -779 0 -3 -215 c-2 -118 -4 -226 -6 -240 -1 -19 3 -26
21 -28 25 -4 41 23 23 41 -16 16 -15 403 2 414 16 10 707 7 718 -4 6 -6 15
-652 10 -721 -1 -7 -13 -11 -33 -10 -29 3 -33 0 -33 -22 0 -21 4 -25 30 -24
17 0 33 -3 36 -8 5 -7 4 -681 0 -719 -1 -4 -16 -6 -34 -5 -28 1 -32 -2 -32
-24 0 -22 4 -25 32 -24 23 1 33 -3 36 -15 2 -9 4 -171 3 -361 -1 -370 1 -355
-49 -335 -16 7 -18 3 -15 -26 3 -30 6 -34 33 -34 l30 0 0 -360 0 -360 -32 3
c-29 3 -33 0 -33 -22 0 -31 14 -40 39 -26 11 5 22 6 25 1 8 -12 9 -718 1 -730
-4 -8 -12 -8 -24 -1 -22 11 -31 4 -31 -27 0 -19 5 -23 30 -23 17 0 30 -3 30
-7 4 -219 5 -701 2 -711 -2 -6 -17 -12 -33 -12 -24 0 -29 -4 -29 -24 0 -30 16
-42 35 -26 24 20 29 -10 31 -200 3 -304 3 -290 18 -290 11 0 16 15 18 52 l3
53 920 2 c616 1 924 -2 933 -9 6 -6 12 -30 12 -54 0 -32 4 -44 15 -44 11 0 15
12 15 49 0 61 -6 59 209 61 91 0 168 3 173 6 4 3 8 175 8 383 l0 378 158 6
c204 8 2464 9 2486 1 14 -6 16 -49 16 -445 0 -286 3 -439 10 -439 7 0 10 153
10 439 0 242 3 442 8 445 4 2 157 8 340 12 241 5 335 10 342 19 7 8 11 276 11
767 l1 756 42 12 c22 7 47 14 54 16 21 6 7 29 -14 25 -21 -4 -51 -5 -250 -15
-105 -5 -134 -4 -143 7 -8 10 -10 114 -9 368 l3 354 207 0 c182 0 207 2 211
16 5 18 59 18 958 4 l336 -5 6 48 c3 26 8 108 10 183 2 75 7 141 11 147 11 18
1079 0 1102 -18 11 -10 10 -139 -2 -279 l-6 -64 -363 5 c-211 3 -369 1 -379
-4 -14 -8 -16 -32 -16 -177 0 -136 -3 -171 -15 -181 -17 -14 -148 -14 -625 0
-173 5 -468 10 -655 11 -280 1 -340 -1 -340 -12 0 -19 168 -25 986 -33 l666
-7 7 178 c4 98 11 182 16 187 10 10 348 10 612 1 70 -3 129 -1 132 3 3 5 8 92
11 193 4 101 9 186 11 189 3 2 14 -2 26 -9 25 -16 41 -3 36 30 -3 21 -8 24
-36 21 l-33 -3 1 180 c1 99 -1 184 -4 189 -3 5 -87 12 -187 15 -100 4 -184 9
-187 12 -3 3 0 16 7 29 17 31 9 42 -26 40 -44 -2 -44 -3 -33 -23 5 -11 10 -27
10 -36 0 -15 -30 -16 -337 -14 -186 2 -348 5 -360 7 l-22 4 6 362 c3 228 9
366 16 374 8 10 83 13 351 11 241 -1 341 2 344 10 6 18 22 2 22 -21 0 -11 -7
-26 -17 -33 -22 -16 -8 -35 26 -35 37 0 44 10 25 31 -34 37 -11 42 182 36 172
-5 185 -4 194 13 6 10 10 97 10 194 0 177 7 211 36 172 17 -23 34 -12 34 22
l0 27 -242 -3 c-134 -2 -321 -1 -415 3 l-173 7 0 564 0 564 27 6 c31 8 876 -2
1238 -15 149 -5 254 -5 259 0 27 25 -25 30 -378 36 l-366 6 2 566 3 566 165 3
c91 2 258 -2 371 -8 214 -11 248 -8 228 16 -9 11 -43 14 -144 14 -73 0 -153 3
-179 6 l-46 7 6 34 c6 33 6 34 -22 31 -26 -3 -29 -6 -26 -35 l2 -33 -172 0
c-239 0 -544 12 -560 21 -9 6 -8 12 5 27 20 21 13 32 -19 32 -29 0 -39 -16
-23 -36 8 -10 9 -18 2 -25 -6 -6 -137 -9 -364 -7 l-354 3 3 365 c2 201 8 369
13 374 6 6 13 6 21 -2 23 -23 38 -13 38 23 0 36 -15 46 -37 24 -30 -30 -33 5
-33 344 0 188 3 353 7 365 5 21 10 23 39 17 33 -6 34 -5 34 30 0 39 -2 40 -30
23 -16 -10 -22 -10 -34 2 -13 13 -14 39 -6 180 5 91 9 247 10 348 l0 182 362
-2 363 -3 -4 -205 c-2 -126 -7 -207 -13 -211 -18 -11 2 -29 33 -29 28 0 41 22
20 35 -10 5 -4 405 5 415 3 2 14 -1 24 -8 28 -17 30 -16 30 23 0 33 -1 34 -30
29 l-30 -6 0 170 c0 172 7 207 35 169 13 -19 34 -23 36 -7 4 41 1 64 -8 67 -6
2 -14 -1 -18 -6z m-2360 -1208 l50 -8 0 -1354 0 -1354 25 -9 c16 -6 54 -5 104
1 44 6 253 14 465 17 212 3 409 9 436 13 l50 6 5 185 5 185 159 3 c104 2 163
-1 170 -8 7 -7 10 -69 8 -184 -3 -113 0 -176 6 -180 6 -4 87 -7 180 -7 93 0
175 -4 182 -9 11 -7 12 -93 6 -482 -3 -260 -9 -515 -13 -565 l-6 -93 -526 0
c-289 0 -532 4 -539 9 -11 6 -13 47 -12 183 1 151 -1 176 -15 182 -20 7 -573
-4 -600 -13 -15 -5 -391 11 -402 18 -7 3 -2 3469 5 3475 8 9 178 1 257 -11z
m703 -3505 c13 -13 17 -68 5 -67 -5 0 -19 14 -32 31 -20 24 -22 31 -10 39 18
12 23 11 37 -3z m-271 -15 c3 -10 17 -33 30 -51 14 -18 23 -35 20 -38 -6 -6
-87 83 -87 96 0 17 30 11 37 -7z m-7 -295 c0 -6 -7 -5 -15 2 -8 7 -15 17 -15
22 0 6 7 5 15 -2 8 -7 15 -17 15 -22z m2179 -86 c4 -7 4 -36 0 -65 -4 -28 -8
-103 -8 -165 l-1 -112 -177 2 -178 3 0 173 c0 119 4 175 11 180 21 13 344 -2
353 -16z m-3273 -566 c2 -319 7 -582 10 -585 2 -3 84 -5 180 -6 140 0 176 -3
183 -14 13 -20 9 -1857 -4 -1869 -6 -6 -654 -12 -1703 -14 -1456 -4 -1694 -2
-1704 10 -9 11 -13 340 -16 1345 -2 732 -6 1335 -8 1339 -3 4 -171 8 -374 8
-203 0 -371 3 -373 8 -3 4 -8 77 -12 163 -6 136 -5 157 9 172 15 15 98 16 944
14 l927 -2 1 -168 c1 -104 -2 -169 -8 -173 -6 -4 -166 -8 -357 -11 -190 -2
-356 -6 -369 -9 l-23 -5 4 -1163 c3 -641 8 -1170 12 -1176 6 -9 213 -11 889
-6 484 3 1006 6 1159 6 l277 0 0 1180 0 1180 -382 2 -383 3 -3 169 c-2 129 1
171 10 177 7 5 260 7 561 6 l549 -2 4 -579z m1664 574 c0 -5 -4 -10 -10 -10
-5 0 -10 5 -10 10 0 6 5 10 10 10 6 0 10 -4 10 -10z m380 0 c0 -5 -7 -10 -16
-10 -8 0 -12 5 -9 10 3 6 10 10 16 10 5 0 9 -4 9 -10z m260 0 c0 -5 -4 -10
-10 -10 -5 0 -10 5 -10 10 0 6 5 10 10 10 6 0 10 -4 10 -10z m170 0 c0 -5 -9
-10 -20 -10 -16 0 -20 -7 -20 -32 0 -18 7 -46 15 -62 37 -70 8 -61 -35 12 -19
31 -43 63 -52 70 -32 23 -19 32 47 32 37 0 65 -4 65 -10z m50 0 c0 -5 -7 -10
-16 -10 -8 0 -12 5 -9 10 3 6 10 10 16 10 5 0 9 -4 9 -10z m320 -2 c0 -4 -9
-8 -19 -8 -10 0 -21 -6 -24 -13 -6 -17 3 -66 14 -73 11 -6 12 -34 2 -34 -5 0
-19 17 -32 38 -39 59 -63 82 -85 82 -16 0 -17 3 -8 9 18 11 152 10 152 -1z
m-7081 -12 c8 -9 11 -65 9 -177 l-3 -164 -345 -3 c-190 -1 -355 0 -366 3 -20
4 -22 13 -29 160 -6 141 -5 158 10 176 17 18 34 19 365 19 284 0 350 -3 359
-14z m5339 -17 c7 -12 11 -23 9 -26 -8 -7 -47 21 -47 34 0 20 24 15 38 -8z
m1152 -31 c0 -17 -3 -18 -15 -8 -8 7 -15 21 -15 32 0 17 3 18 15 8 8 -7 15
-21 15 -32z m-747 11 c3 -13 1 -19 -6 -16 -15 5 -22 37 -9 37 5 0 12 -9 15
-21z m375 -7 c4 -27 -14 -29 -28 -3 -14 27 -13 33 8 29 9 -2 18 -13 20 -26z
m750 -1 c3 -16 -1 -22 -10 -19 -7 3 -15 15 -16 27 -3 16 1 22 10 19 7 -3 15
-15 16 -27z m-944 -23 c18 -35 20 -48 8 -48 -9 0 -42 54 -42 69 0 22 19 10 34
-21z m363 20 c5 -7 17 -30 26 -51 l17 -38 -21 14 c-20 15 -49 60 -49 78 0 13
16 11 27 -3z m-951 -189 c7 -12 -15 -31 -28 -23 -4 3 -8 12 -8 20 0 17 26 19
36 3z m1771 -56 c-2 -16 -4 -5 -4 22 0 28 2 40 4 28 2 -13 2 -35 0 -50z
m-1727 27 c0 -5 -4 -10 -10 -10 -5 0 -10 5 -10 10 0 6 5 10 10 10 6 0 10 -4
10 -10z m322 -142 l23 -33 -33 23 c-17 13 -32 28 -32 33 0 19 19 8 42 -23z
m45 -264 c-5 -5 -77 22 -89 34 -6 6 -8 18 -4 27 5 14 13 10 51 -21 25 -20 44
-38 42 -40z m-1440 -96 c30 -35 66 -98 55 -98 -6 0 -19 11 -30 25 -11 13 -31
29 -46 35 -24 9 -35 38 -19 53 11 11 18 8 40 -15z m1386 -18 c21 -34 13 -38
-22 -11 -13 10 -21 23 -17 30 11 18 20 13 39 -19z m-1098 -10 c19 -36 4 -40
-19 -5 -19 28 -20 35 -6 35 5 0 16 -13 25 -30z m135 -37 c0 -7 -4 -13 -9 -13
-11 0 -32 56 -23 64 7 7 31 -32 32 -51z m138 31 c2 -10 10 -36 19 -57 9 -20
13 -40 10 -44 -4 -3 -9 3 -13 13 -3 10 -14 36 -25 57 -10 22 -19 43 -19 49 0
18 25 2 28 -18z m-585 -147 c-9 -14 -23 4 -23 31 l1 27 13 -25 c8 -14 12 -28
9 -33z m1397 -78 c0 -5 -4 -9 -10 -9 -5 0 -10 7 -10 16 0 8 5 12 10 9 6 -3 10
-10 10 -16z m-1383 -26 c4 -9 1 -19 -5 -21 -7 -2 -12 -10 -12 -18 0 -8 -4 -14
-10 -14 -11 0 -14 53 -3 63 11 12 23 8 30 -10z m43 -48 c11 -13 8 -15 -14 -15
-25 0 -33 10 -19 23 10 11 19 8 33 -8z m1325 5 c3 -5 0 -18 -6 -29 -10 -15 -9
-24 4 -45 24 -36 21 -41 -7 -11 -27 29 -51 25 -43 -6 6 -24 -2 -24 -19 -1 -21
26 -17 40 16 57 17 9 30 22 30 30 0 17 16 20 25 5z m686 -47 c-9 -16 -10 -15
-11 8 0 14 3 29 8 33 12 12 14 -22 3 -41z m638 -8 c382 -4 497 -8 503 -17 4
-7 8 -86 8 -175 0 -187 5 -179 -103 -169 -34 3 -273 8 -532 12 -258 3 -473 9
-478 13 -4 4 -6 81 -5 171 l3 164 25 7 c14 3 39 5 55 3 17 -2 252 -6 524 -9z
m-1629 -46 c0 -11 -4 -17 -10 -14 -5 3 -10 13 -10 21 0 8 5 14 10 14 6 0 10
-9 10 -21z m180 -19 c0 -11 -4 -20 -10 -20 -5 0 -10 9 -10 20 0 11 5 20 10 20
6 0 10 -9 10 -20z m-362 -15 c17 -37 15 -41 -8 -12 -22 27 -25 37 -12 37 5 0
14 -11 20 -25z m1169 -32 c-3 -10 -5 -4 -5 12 0 17 2 24 5 18 2 -7 2 -21 0
-30z m-1657 -42 c0 -5 -9 -11 -20 -14 -13 -3 -20 0 -20 9 0 8 9 14 20 14 11 0
20 -4 20 -9z m1657 -118 c-2 -16 -4 -5 -4 22 0 28 2 40 4 28 2 -13 2 -35 0
-50z m-1648 -4 c45 -20 41 -42 -6 -33 -51 9 -53 11 -53 43 0 35 12 48 21 23 4
-11 21 -26 38 -33z m1648 -101 c-3 -7 -5 -2 -5 12 0 14 2 19 5 13 2 -7 2 -19
0 -25z m-1647 -79 c0 -4 -11 -6 -25 -5 -25 1 -42 27 -30 46 6 9 55 -27 55 -41z
m-4 -196 c18 -16 34 -34 34 -40 0 -15 -16 -17 -25 -3 -3 6 -17 10 -30 10 -25
0 -38 21 -29 45 8 20 9 19 50 -12z m1650 -10 c-11 -11 -19 6 -11 24 8 17 8 17
12 0 3 -10 2 -21 -1 -24z m-6 -53 c0 -9 -52 -20 -63 -13 -4 2 -5 7 -3 11 6 10
66 11 66 2z m-6331 -1224 c14 -16 21 -330 8 -343 -9 -8 -714 -6 -729 3 -13 8
-10 328 4 342 19 19 701 17 717 -2z"/>
<path d="M11316 10251 c-10 -15 -62 -20 -101 -10 -40 11 -55 3 -55 -34 0 -23
29 -34 41 -16 8 12 12 10 24 -6 13 -16 15 -46 11 -174 -3 -84 -8 -156 -11
-159 -2 -3 -16 0 -29 6 -29 13 -36 7 -36 -30 0 -21 5 -28 19 -28 11 0 23 4 26
10 6 10 46 8 99 -6 26 -6 27 -5 24 22 -3 28 -11 32 -48 23 -13 -3 -15 19 -16
159 -1 118 2 167 12 180 10 14 15 15 25 5 24 -23 39 -15 39 21 0 34 -13 55
-24 37z"/>
<path d="M11550 10210 c0 -28 4 -40 14 -40 8 0 16 5 18 12 2 6 12 9 21 5 15
-6 17 -26 17 -172 0 -139 -2 -167 -15 -171 -8 -4 -22 -1 -31 6 -20 17 -37 0
-32 -31 2 -20 9 -24 38 -24 l35 0 -4 -195 c-2 -107 -7 -203 -12 -212 -13 -24
-12 -25 17 -32 30 -8 57 10 36 23 -9 6 -12 56 -10 212 l3 204 178 3 c144 2
177 5 177 16 0 20 -33 24 -199 25 -80 1 -147 4 -150 7 -3 3 -6 90 -6 192 l0
187 -27 0 c-15 0 -33 6 -39 13 -22 21 -29 14 -29 -28z"/>
<path d="M2113 9532 c-20 -13 -4 -82 21 -92 12 -4 280 -8 596 -9 316 -1 590
-4 608 -7 32 -6 33 -5 30 22 -2 23 -7 28 -23 24 -32 -8 -398 -6 -419 3 -18 7
-18 8 0 28 16 17 16 22 4 29 -17 11 -32 12 -54 4 -12 -5 -13 -10 -4 -30 6 -13
9 -27 5 -30 -9 -10 -700 -11 -719 -2 -15 7 -16 12 -5 29 10 16 9 21 -3 29 -18
12 -22 12 -37 2z"/>
<path d="M9297 9154 c-3 -3 -1 -17 5 -30 6 -13 8 -27 4 -32 -4 -4 -87 -10
-184 -14 -285 -11 -362 -19 -362 -34 0 -11 33 -12 173 -8 94 3 185 10 201 15
16 5 69 9 117 9 86 0 89 1 89 23 0 12 7 31 15 41 8 10 12 23 9 27 -6 10 -58
12 -67 3z"/>
<path d="M10824 9145 c-4 -8 -1 -22 5 -29 8 -10 9 -16 2 -21 -18 -10 -395 -4
-409 8 -16 13 -35 -4 -30 -28 3 -15 25 -17 223 -18 l220 -2 -3 -275 c-1 -151
-5 -317 -9 -368 l-5 -93 -202 3 c-110 2 -208 5 -216 8 -11 4 -15 -3 -15 -25 0
-22 4 -29 15 -25 8 3 105 5 215 5 l200 0 3 -209 c1 -133 -1 -213 -8 -220 -21
-21 -10 -36 24 -36 41 0 52 12 31 33 -12 13 -15 43 -14 154 1 76 4 169 8 207
l6 68 205 -1 c123 -1 209 -6 217 -12 17 -15 33 -2 33 26 0 25 -22 39 -37 24
-15 -15 -421 0 -425 15 -2 6 -1 171 2 366 l5 355 155 0 c85 -1 251 -5 368 -9
l212 -9 0 -357 c0 -306 -2 -359 -15 -370 -12 -10 -18 -10 -30 0 -18 15 -35 5
-35 -21 0 -24 25 -35 43 -20 31 25 37 -9 37 -199 -1 -141 -4 -191 -15 -210
-22 -38 -18 -50 14 -50 32 0 51 18 32 30 -15 9 -14 385 1 413 9 17 21 18 189
11 177 -7 179 -7 179 14 0 20 -6 21 -179 24 -99 2 -183 7 -187 11 -9 9 -7 383
2 595 l7 132 178 0 c101 0 179 4 179 9 0 13 -55 20 -215 27 -77 3 -142 8 -145
10 -2 3 1 13 7 23 15 24 8 31 -29 31 -28 0 -29 -2 -23 -31 l7 -31 -361 4
c-251 2 -363 6 -371 14 -8 8 -9 14 -1 18 6 4 11 16 11 27 0 24 -48 27 -56 4z"/>
<path d="M5815 9080 l-1770 -5 -2 -388 c0 -214 2 -419 7 -455 l7 -67 2 80 c1
44 3 238 4 432 1 193 4 354 7 356 5 5 683 11 2802 23 991 5 997 5 1007 -15 8
-14 11 -526 11 -1728 0 -939 0 -1713 0 -1719 0 -7 -10 -14 -22 -17 -13 -3
-866 -9 -1895 -13 -1519 -5 -1876 -4 -1888 6 -20 17 -41 -1 -31 -26 6 -16 113
-17 1926 -11 1056 3 1924 8 1930 12 7 4 10 592 10 1769 l0 1764 -22 4 c-28 5
95 5 -2083 -2z"/>
<path d="M2124 7343 c4 -956 7 -1751 7 -1768 0 -16 5 -33 12 -37 6 -4 357 -8
780 -8 607 0 767 3 768 13 6 151 -1 3355 -8 3450 l-6 87 -780 0 -780 0 7
-1737z m1126 1701 c217 -3 398 -8 401 -12 4 -4 9 -785 10 -1737 l4 -1730 -739
0 c-477 0 -744 4 -752 10 -11 8 -14 231 -15 1195 -1 652 -7 1425 -12 1717 -8
421 -7 536 3 548 14 17 200 24 515 18 105 -2 368 -6 585 -9z"/>
<path d="M2511 8681 c-12 -8 -13 -124 -7 -757 4 -412 7 -1019 7 -1348 0 -423
3 -603 10 -613 16 -19 789 -19 789 0 6 822 -5 2701 -17 2720 -6 10 -765 9
-782 -2z m753 -30 c3 -4 6 -169 8 -366 l3 -360 -359 -3 c-252 -1 -363 1 -372
9 -11 9 -13 79 -11 362 l2 352 50 5 c79 8 674 9 679 1z m7 -792 c4 -13 7 -268
8 -565 1 -505 0 -542 -16 -548 -25 -10 -717 5 -723 15 -3 5 -7 254 -8 555 -2
415 0 550 9 561 11 12 65 14 368 10 l356 -4 6 -24z m-2 -1153 c8 -9 10 -116 9
-367 l-3 -354 -355 -2 c-195 -2 -360 1 -367 5 -19 12 -24 699 -6 718 20 20
706 20 722 0z"/>
<path d="M2788 7409 c-31 -23 -36 -44 -12 -53 21 -8 34 1 34 25 0 22 22 25 39
5 15 -17 5 -44 -20 -51 -22 -7 -26 -35 -5 -35 22 0 39 -28 32 -55 -9 -34 -42
-33 -50 1 -8 29 -39 30 -44 1 -8 -43 88 -65 121 -29 21 23 21 60 2 86 -10 13
-11 24 -5 37 16 29 11 57 -12 73 -29 21 -47 20 -80 -5z"/>
<path d="M2651 7404 c-15 -11 -19 -19 -12 -28 12 -14 17 -134 6 -158 -6 -16
-1 -18 34 -18 42 0 50 7 30 27 -6 6 -14 50 -16 97 -3 48 -9 89 -13 91 -4 2
-17 -3 -29 -11z"/>
<path d="M11444 8968 c-33 -15 -47 -51 -48 -119 -1 -55 2 -63 27 -85 36 -31
64 -30 93 2 43 46 27 176 -25 204 -23 12 -20 12 -47 -2z m45 -42 c7 -9 11 -41
9 -83 -3 -62 -5 -68 -25 -71 -27 -4 -43 28 -43 83 0 69 30 106 59 71z"/>
<path d="M11271 8949 l-24 -9 21 -23 c27 -29 32 -134 7 -143 -32 -13 -15 -31
30 -32 49 0 66 11 38 26 -18 10 -19 17 -21 130 -2 65 -6 69 -51 51z"/>
<path d="M9634 8718 c-14 -21 -15 -56 -4 -63 6 -4 19 0 29 9 38 35 41 9 40
-353 0 -321 -5 -409 -24 -453 -5 -12 -2 -20 9 -24 40 -15 41 -4 36 443 l-5
428 -21 0 c-12 1 -29 6 -37 13 -12 11 -17 10 -23 0z"/>
<path d="M9384 8711 c-5 -5 -101 -13 -213 -19 -152 -7 -206 -13 -212 -23 -5
-8 -9 -81 -9 -164 0 -82 -3 -246 -6 -363 -4 -117 -3 -224 0 -238 l7 -26 177 4
177 3 0 -167 c0 -91 -3 -169 -7 -173 -4 -4 -82 -11 -173 -15 -92 -4 -170 -12
-175 -16 -4 -5 -10 -186 -12 -401 -5 -355 -3 -393 11 -394 9 -1 113 -1 231 -1
l215 1 0 23 c0 19 -5 22 -25 19 -41 -6 -353 -16 -383 -13 l-29 4 5 346 c3 204
9 358 15 373 l10 26 139 2 c76 1 154 6 173 10 l35 7 0 203 0 203 -145 -2 c-80
-1 -158 -3 -175 -4 l-30 -1 0 365 0 365 185 12 c140 9 191 9 208 1 27 -14 43
1 35 33 -7 24 -17 31 -29 20z"/>
<path d="M5214 8680 c-21 -8 -21 -14 -20 -199 1 -135 5 -194 13 -202 9 -9 59
-12 181 -10 128 1 171 -1 179 -11 5 -7 9 -82 9 -173 l-1 -160 -185 -6 c-102
-3 -186 -6 -187 -7 -2 -1 -3 -85 -3 -186 0 -158 -2 -185 -16 -190 -9 -3 -87
-6 -174 -6 -116 0 -161 3 -167 13 -4 6 -8 90 -9 185 -1 96 -6 178 -11 183 -5
5 -93 8 -204 7 l-194 -3 -3 -394 c-1 -282 1 -398 9 -407 9 -11 80 -14 378 -14
272 0 370 -3 379 -12 8 -8 12 -65 12 -190 l0 -178 98 -1 c111 0 251 -8 270
-14 9 -3 12 -48 12 -177 0 -95 4 -178 8 -184 9 -15 42 -17 235 -15 l157 1 0
179 c0 149 3 181 15 191 11 10 63 13 185 14 92 1 171 -2 174 -5 3 -3 7 -171 8
-375 2 -238 6 -372 13 -376 13 -10 297 -9 350 0 l39 7 -3 177 c-1 97 1 178 6
181 5 3 89 7 187 9 98 2 180 7 183 11 3 4 4 86 3 181 -1 135 2 175 13 184 9 7
78 13 193 14 l179 3 0 205 0 205 -380 5 -380 5 -3 359 c-1 253 1 363 9 372 8
10 55 14 188 16 l176 3 3 199 c2 132 -1 203 -8 210 -11 11 -745 10 -762 -1 -5
-2 -8 -173 -8 -378 0 -360 -1 -375 -19 -385 -24 -12 -337 -14 -345 -1 -3 4 -8
261 -10 570 -3 309 -8 566 -11 572 -8 11 -732 11 -761 -1z m737 -41 c4 -7 8
-261 9 -563 0 -383 4 -554 11 -563 9 -10 56 -13 203 -13 105 0 196 4 203 8 11
7 14 48 16 187 0 22 -1 157 -3 300 -2 144 0 266 4 273 10 17 697 17 714 0 17
-17 17 -319 0 -336 -8 -8 -64 -12 -185 -12 l-173 0 -10 -24 c-10 -28 -6 -773
5 -784 4 -4 170 -6 370 -4 323 3 364 1 379 -13 13 -14 16 -42 16 -169 0 -115
-3 -156 -13 -165 -8 -6 -81 -12 -193 -13 l-179 -3 -3 -186 c-2 -184 -3 -187
-25 -193 -12 -3 -95 -6 -184 -6 -182 0 -180 1 -177 -75 1 -22 0 -75 -3 -117
-5 -74 -6 -77 -31 -80 -35 -4 -41 -28 -7 -28 24 0 26 -3 23 -37 l-3 -38 -155
0 -155 0 -3 33 c-3 27 1 35 17 39 25 6 26 16 6 33 -8 7 -15 18 -15 25 0 7 7
15 15 19 8 3 15 15 15 26 0 22 -15 27 -26 9 -20 -33 -26 28 -25 285 0 175 -4
278 -10 282 -10 6 -410 6 -416 0 -2 -2 -4 -82 -4 -179 0 -135 -3 -178 -13
-186 -9 -8 -67 -11 -177 -9 l-164 3 -3 188 -2 187 -173 0 c-94 0 -179 4 -187
9 -11 8 -14 41 -11 186 2 125 -1 180 -10 191 -10 12 -72 14 -384 14 -321 0
-374 2 -379 15 -7 19 -7 673 1 703 5 22 7 22 174 22 l169 0 2 -77 c1 -43 1
-124 0 -180 -1 -91 1 -104 18 -113 11 -6 98 -10 203 -10 146 0 187 3 196 14 8
10 11 67 11 181 -1 92 2 171 7 176 4 4 86 10 180 12 95 2 174 5 177 8 6 6 10
160 8 291 l-2 118 -182 2 -183 3 -3 164 c-1 92 2 168 7 175 15 17 701 13 712
-5z"/>
<path d="M5760 6659 c-23 -10 -24 -11 -7 -24 13 -9 19 -31 23 -76 4 -57 2 -65
-17 -80 -32 -24 -16 -38 34 -32 53 7 54 9 33 32 -13 14 -18 39 -19 102 -1 45
-6 84 -12 85 -5 1 -21 -2 -35 -7z"/>
<path d="M6455 6350 c-4 -6 32 -10 99 -10 58 0 109 0 113 -1 4 0 9 4 11 10 5
14 -214 15 -223 1z"/>
<path d="M6662 6304 c1 -9 9 -19 16 -22 9 -3 13 2 10 14 -1 9 -9 19 -16 22 -9
3 -13 -2 -10 -14z"/>
<path d="M6440 6289 c0 -11 5 -17 10 -14 6 3 10 13 10 21 0 8 -4 14 -10 14 -5
0 -10 -9 -10 -21z"/>
<path d="M6506 6279 c-28 -22 -35 -63 -12 -72 20 -8 36 15 29 42 -5 19 -2 22
17 19 13 -1 28 -11 34 -20 14 -22 -14 -78 -63 -123 -19 -18 -31 -37 -27 -44 8
-12 93 -15 120 -5 18 7 22 44 5 44 -6 0 -19 -5 -30 -11 -12 -6 -28 -8 -36 -5
-12 5 -5 18 32 57 42 44 46 54 41 82 -11 57 -62 74 -110 36z"/>
<path d="M6432 6248 c-7 -7 -12 -18 -12 -25 0 -18 29 -16 37 3 8 21 -10 37
-25 22z"/>
<path d="M6676 6243 c-11 -11 -6 -23 9 -23 8 0 15 4 15 9 0 13 -16 22 -24 14z"/>
<path d="M6677 6164 c-11 -11 3 -24 24 -24 12 0 19 5 17 13 -5 14 -31 21 -41
11z"/>
<path d="M1721 8371 c-10 -7 -11 -13 -1 -31 7 -13 8 -26 3 -31 -5 -5 -177 -10
-383 -11 l-375 -3 0 -775 0 -775 -32 3 c-31 3 -33 1 -33 -29 0 -29 2 -31 28
-25 15 4 77 9 137 11 61 3 144 7 186 9 64 4 79 2 90 -12 12 -14 14 -117 14
-577 l0 -560 -205 -5 c-119 -3 -210 -2 -218 4 -18 13 -33 -5 -26 -32 5 -17 13
-21 38 -19 l31 2 3 -168 2 -168 -32 3 c-31 3 -33 1 -33 -27 0 -22 4 -29 15
-26 8 3 107 8 220 12 152 6 206 5 212 -4 12 -19 10 -1115 -2 -1122 -10 -6
-385 -9 -425 -3 -15 2 -21 -3 -23 -25 -3 -27 -2 -28 35 -25 l38 3 2 -90 c2
-49 0 -127 -3 -173 l-6 -83 -31 3 c-29 3 -32 0 -29 -21 1 -14 3 -25 5 -26 1
-1 56 2 122 6 191 12 301 11 313 -4 12 -15 20 -1076 8 -1096 -6 -9 -63 -12
-224 -10 l-217 2 -3 -27 c-3 -24 -1 -26 30 -24 l33 3 0 -165 c0 -158 -1 -165
-20 -165 -40 0 -55 -23 -36 -54 8 -13 12 -13 26 -1 25 21 382 28 407 8 16 -12
18 -68 19 -798 1 -857 7 -1250 21 -1250 4 0 8 466 8 1035 0 1030 0 1034 -20
1045 -14 8 -71 9 -178 4 -205 -9 -192 -20 -192 174 0 81 4 153 9 160 6 11 48
14 180 15 114 0 177 4 188 12 14 11 15 66 7 595 l-9 583 -187 -2 -188 -2 -1
128 c-1 70 -2 148 -3 173 l-1 45 190 10 190 10 2 210 c2 116 -1 383 -5 595
l-7 385 -180 3 c-99 1 -184 7 -189 12 -13 13 -14 320 -1 328 5 4 91 9 190 12
l180 5 0 590 c0 325 -4 596 -9 603 -6 9 -56 12 -188 12 -134 0 -180 3 -183 13
-3 6 -6 347 -8 755 -3 536 -1 745 7 747 6 2 170 6 364 8 l353 5 9 -22 c4 -12
11 -755 15 -1651 3 -897 8 -1918 10 -2270 3 -352 5 -1448 5 -2435 1 -987 4
-1816 7 -1842 4 -31 10 -48 19 -48 11 0 14 31 14 163 0 507 -21 4062 -25 4272
-10 531 -5 3886 5 3906 6 11 8 24 5 29 -8 12 -45 13 -64 1z"/>
<path d="M4052 8025 c0 -16 2 -22 5 -12 2 9 2 23 0 30 -3 6 -5 -1 -5 -18z"/>
<path d="M4053 7860 c0 -30 2 -43 4 -27 2 15 2 39 0 55 -2 15 -4 2 -4 -28z"/>
<path d="M4057 7407 c-4 -10 -7 -40 -6 -65 l1 -47 9 45 c5 25 8 54 7 65 -3 19
-4 19 -11 2z"/>
<path d="M10217 7002 c-17 -19 -23 -62 -9 -62 14 0 32 23 32 42 0 24 27 23 40
-2 13 -24 -2 -60 -25 -60 -28 0 -25 -19 5 -35 36 -18 39 -47 8 -69 -32 -22
-38 -20 -38 14 0 23 -4 30 -20 30 -23 0 -28 -41 -7 -57 37 -30 116 -19 118 16
3 35 -4 66 -15 73 -8 6 -8 13 2 28 6 11 12 30 12 43 0 50 -70 76 -103 39z"/>
<path d="M4056 6638 c-9 -36 -7 -78 4 -78 6 0 10 23 10 50 0 54 -4 63 -14 28z"/>
<path d="M796 6595 c-28 -26 -33 -44 -14 -63 23 -23 39 -14 36 21 -2 26 1 33
18 35 27 4 47 -21 39 -49 -4 -11 -21 -38 -39 -58 -60 -68 -61 -71 -45 -82 16
-10 89 -12 113 -3 9 3 16 15 16 26 0 20 -9 21 -50 4 -8 -3 -22 -1 -30 4 -12 8
-9 14 18 36 39 31 64 76 55 101 -20 56 -72 69 -117 28z"/>
<path d="M650 6595 c-14 -8 -20 -14 -14 -15 17 0 26 -28 31 -97 3 -41 1 -63
-6 -63 -6 0 -11 -7 -11 -16 0 -11 8 -14 33 -12 26 2 31 7 29 23 -7 43 -9 73
-11 133 -1 67 -7 72 -51 47z"/>
<path d="M4054 5726 c-3 -19 -1 -48 4 -63 9 -24 11 -20 11 35 1 69 -5 80 -15
28z"/>
<path d="M6296 5185 c-8 -22 -8 -27 3 -44 8 -12 12 -13 26 -1 9 8 19 9 25 4
10 -11 17 -330 7 -340 -4 -4 -18 -2 -31 4 -29 13 -36 7 -36 -29 0 -33 15 -45
36 -28 10 8 33 10 75 5 l60 -6 -3 28 c-2 22 -8 27 -30 27 -14 0 -29 2 -32 6
-8 8 -9 301 0 322 4 12 12 16 23 12 31 -12 36 -10 39 23 3 26 0 32 -17 32 -11
0 -23 -5 -27 -11 -7 -11 -62 -8 -95 6 -10 4 -19 0 -23 -10z"/>
<path d="M11497 5193 c-9 -8 -9 -48 0 -56 3 -4 12 -2 19 4 36 29 37 6 30 -425
-3 -232 -6 -571 -7 -754 0 -280 -3 -334 -15 -339 -8 -3 -20 0 -28 6 -17 14
-26 4 -26 -30 0 -33 15 -45 35 -29 11 9 71 11 219 9 112 -2 208 0 212 4 18 18
-28 25 -199 32 l-179 8 6 241 c4 132 9 471 12 751 2 281 7 515 9 522 3 9 47
11 183 6 139 -5 181 -3 187 7 15 25 -23 30 -225 30 -126 0 -210 4 -216 10 -6
6 -13 7 -17 3z"/>
<path d="M8278 5179 c-3 -8 -4 -102 -2 -209 l3 -195 33 -7 c45 -9 303 -13 317
-4 15 9 16 402 1 411 -6 4 -86 9 -179 12 -138 5 -169 3 -173 -8z m315 -36 c4
-2 7 -80 7 -173 0 -126 -3 -169 -12 -171 -7 -2 -74 -2 -148 1 l-135 5 -1 160
c-1 88 3 168 8 178 9 17 20 18 141 12 73 -4 135 -9 140 -12z"/>
<path d="M3846 4709 c-26 -21 -35 -62 -16 -74 15 -9 12 -41 -5 -55 -39 -32 3
-93 59 -86 55 7 76 23 76 58 0 17 -7 39 -16 49 -12 14 -13 22 -4 39 15 29 4
57 -30 75 -36 19 -32 19 -64 -6z m62 -47 c4 -36 -15 -43 -42 -16 -19 19 -20
26 -4 42 21 21 43 9 46 -26z m8 -86 c25 -19 8 -50 -29 -54 -21 -3 -28 2 -33
23 -10 41 24 58 62 31z"/>
<path d="M10761 4481 c-10 -7 -11 -13 -2 -30 16 -29 17 -87 2 -105 -17 -20 -6
-36 24 -36 29 0 41 16 25 35 -11 13 -10 52 2 120 3 22 -27 32 -51 16z"/>
<path d="M2126 4453 c13 -45 15 -485 3 -500 -17 -19 -3 -43 25 -43 32 0 42 17
23 38 -11 13 -15 58 -16 214 -2 187 -1 197 18 207 21 12 373 8 402 -3 19 -8
42 16 34 35 -4 11 -47 14 -223 14 l-217 0 3 33 c3 30 1 32 -29 32 -30 0 -31
-2 -23 -27z"/>
<path d="M9086 4299 c-56 -87 -57 -99 -11 -99 31 0 35 -3 35 -25 0 -21 5 -25
31 -25 l32 0 -7 53 c-3 28 -6 78 -6 110 0 77 -16 74 -74 -14z m32 -41 c-2 -22
-9 -34 -20 -36 -21 -4 -24 19 -6 48 19 30 30 24 26 -12z"/>
<path d="M6734 4086 c-14 -11 -15 -16 -4 -35 6 -13 9 -25 6 -28 -8 -8 -709
-16 -728 -8 -11 5 -18 18 -18 35 0 30 -21 45 -38 28 -8 -8 -8 -17 0 -31 7 -14
7 -22 -2 -27 -13 -8 -381 -7 -415 0 -14 4 -21 -1 -23 -15 -4 -33 12 -49 36
-36 15 8 86 11 214 9 l193 -3 0 -365 0 -365 -218 -1 c-120 -1 -220 -4 -223 -7
-3 -3 -3 -15 1 -27 5 -17 12 -20 33 -16 50 11 362 15 387 6 l25 -10 0 -194 c0
-119 -4 -197 -10 -201 -15 -10 -12 -35 6 -42 9 -3 20 0 25 8 5 8 9 110 9 226
0 212 0 213 23 218 12 3 118 4 235 3 l213 -3 -3 25 c-2 17 -8 23 -18 20 -8 -3
-112 -5 -230 -5 l-215 0 -3 368 -2 367 372 -2 373 -3 0 -365 0 -365 -30 0
c-23 0 -30 -4 -30 -20 0 -16 7 -20 30 -20 l30 0 0 -222 c0 -236 2 -246 46
-223 17 10 18 13 5 33 -20 32 -23 389 -3 405 19 16 393 18 412 2 19 -16 35 -4
35 25 0 29 -16 41 -34 26 -9 -8 -79 -11 -217 -9 l-204 3 -3 359 c-1 200 2 364
7 369 9 9 398 11 423 2 19 -8 31 9 24 33 -5 16 -24 17 -231 14 -194 -3 -225
-1 -225 12 0 8 5 18 10 21 17 10 11 32 -10 38 -10 3 -27 -1 -36 -7z"/>
<path d="M6518 3820 c-53 -53 -27 -121 46 -123 38 -1 44 -11 22 -39 -18 -24
-33 -23 -47 3 -10 20 -12 20 -27 5 -16 -16 -15 -19 7 -37 32 -27 58 -24 92 10
26 26 29 37 29 89 0 101 -64 150 -122 92z m71 -24 c17 -31 10 -70 -12 -74 -39
-8 -59 36 -37 79 14 26 34 24 49 -5z"/>
<path d="M2124 3686 c-3 -8 -1 -23 5 -34 12 -22 10 -457 -2 -468 -4 -4 -7 -16
-7 -26 0 -13 8 -18 29 -18 33 0 49 16 32 33 -7 7 -11 78 -11 214 l0 202 201 3
c111 2 203 0 206 -4 2 -5 13 -8 24 -8 16 0 20 6 17 26 l-3 27 -220 1 c-190 1
-219 3 -216 16 9 37 5 45 -22 48 -17 2 -29 -2 -33 -12z"/>
<path d="M2125 2920 c-3 -5 -1 -18 5 -29 13 -25 14 -456 0 -481 -7 -13 -6 -21
5 -30 21 -18 51 -8 46 15 -10 44 -11 419 -2 424 13 8 391 5 417 -4 17 -5 23
-2 27 16 8 31 -9 52 -34 39 -11 -6 -96 -9 -211 -8 l-193 3 -3 33 c-3 26 -8 32
-27 32 -13 0 -27 -4 -30 -10z"/>
<path d="M8618 2859 c-15 -8 -18 -25 -18 -100 0 -58 4 -88 10 -84 6 3 10 35
10 71 0 65 0 65 35 80 43 17 47 44 8 44 -16 0 -36 -5 -45 -11z"/>
<path d="M8600 2594 c0 -27 4 -43 10 -39 6 3 10 24 10 46 0 21 -4 39 -10 39
-5 0 -10 -21 -10 -46z"/>
<path d="M8784 2499 c-10 -17 8 -27 51 -31 l40 -3 -1 -70 c-1 -38 -1 -479 -2
-980 0 -501 -1 -1018 -1 -1150 -1 -219 5 -282 25 -262 4 3 7 541 6 1194 0 654
2 1207 5 1230 l5 43 292 -5 c160 -3 584 -11 941 -18 358 -7 745 -11 860 -9
116 2 309 -2 430 -7 360 -17 450 -17 450 0 0 21 -131 25 -1140 38 -484 6 -963
16 -1065 21 -292 15 -888 21 -896 9z"/>
<path d="M8696 2338 c-24 -34 -2 -65 24 -33 19 22 60 19 60 -4 0 -11 -3 -21
-7 -23 -12 -5 -54 -129 -47 -139 11 -19 34 -8 40 19 12 57 38 138 50 157 19
29 5 40 -53 42 -43 2 -55 -2 -67 -19z"/>
<path d="M2135 2150 c-3 -5 -2 -18 3 -27 13 -26 13 -465 0 -480 -16 -19 -1
-43 26 -43 33 0 39 12 18 41 -14 20 -16 50 -15 211 1 103 4 192 8 198 9 15
390 13 415 -2 27 -17 45 2 36 37 -5 21 -10 25 -24 18 -25 -12 -413 -16 -425
-4 -7 7 -6 15 2 25 7 8 10 20 6 26 -8 13 -42 13 -50 0z"/>
<path d="M8706 1869 c-35 -41 -37 -132 -5 -173 26 -33 79 -36 110 -5 44 44 -3
135 -63 123 -23 -5 -28 -2 -28 14 0 10 9 27 19 36 18 16 20 16 34 -5 10 -13
22 -19 31 -16 22 9 20 34 -3 47 -35 18 -68 11 -95 -21z m81 -105 c8 -22 -5
-61 -24 -68 -32 -13 -59 54 -32 81 13 13 49 5 56 -13z"/>
<path d="M8325 1710 c-4 -6 -412 -10 -1153 -11 -631 0 -1257 -2 -1392 -3 -135
-1 -491 -3 -792 -4 l-548 -2 1 -567 c1 -313 5 -550 9 -528 5 22 8 267 9 544 0
401 3 506 13 512 18 12 1089 11 1107 0 10 -6 22 -5 35 2 30 17 734 16 745 -1
7 -12 7 -375 0 -422 -4 -27 15 -37 40 -21 12 8 13 14 3 36 -17 37 -17 399 1
413 14 12 696 16 714 4 13 -8 21 -397 9 -409 -15 -16 -4 -41 20 -46 30 -5 41
12 25 42 -7 12 -11 94 -11 214 l0 195 25 4 c39 8 678 10 698 3 15 -7 17 -26
17 -209 0 -135 -4 -206 -11 -213 -17 -17 -1 -33 32 -33 31 0 41 26 14 36 -23
9 -22 409 1 418 8 3 107 5 220 3 l204 -2 0 28 c0 27 -22 38 -35 17z"/>
<path d="M9605 1701 c-3 -11 -1 -38 5 -60 7 -28 7 -53 0 -83 -7 -29 -10 -271
-8 -727 l3 -684 40 -1 c742 -34 1462 -51 1480 -36 12 10 14 121 16 713 1 386
3 737 4 780 1 43 -2 80 -6 83 -4 2 -264 10 -576 16 -312 6 -654 13 -760 15
-184 4 -192 3 -198 -16z m920 -31 c270 -6 508 -10 530 -10 72 0 68 20 66 -362
-3 -547 -19 -1149 -30 -1161 -4 -4 -158 -3 -342 3 -183 5 -435 12 -559 15
-277 7 -542 24 -554 35 -14 14 -6 1466 9 1490 4 6 77 8 198 4 106 -2 413 -9
682 -14z"/>
<path d="M9991 1308 c-5 -13 -10 -194 -12 -403 l-4 -380 55 -6 c86 -11 699
-18 705 -9 8 13 18 355 11 383 l-6 27 -180 0 c-113 0 -180 -4 -180 -10 0 -13
-19 -11 160 -16 85 -3 161 -7 168 -9 10 -4 12 -44 10 -177 l-3 -173 -141 4
c-78 2 -238 6 -355 10 l-214 6 -3 362 -2 363 26 6 c15 4 182 5 371 2 261 -4
343 -3 343 6 0 9 -90 15 -332 24 -433 16 -407 17 -417 -10z"/>
<path d="M10457 817 c-9 -25 7 -33 56 -29 38 3 47 8 47 23 0 16 -8 19 -49 19
-32 0 -51 -5 -54 -13z"/>
<path d="M10454 745 c-9 -23 5 -35 36 -28 25 4 31 1 41 -20 10 -22 9 -31 -5
-52 -22 -33 -45 -32 -57 5 -12 33 -24 38 -33 14 -13 -34 3 -53 51 -60 41 -6
49 -4 66 17 21 27 19 92 -5 114 -21 20 -88 27 -94 10z"/>
<path d="M13 1533 c-9 -3 -13 -32 -13 -94 l0 -89 55 0 56 0 24 53 c32 67 31
80 -6 111 -29 25 -81 34 -116 19z"/>
<path d="M2137 1374 c-3 -4 -2 -15 4 -26 7 -13 10 -109 7 -274 l-3 -254 22 0
c33 0 38 18 13 45 -14 15 -19 28 -14 37 5 7 9 94 9 193 l0 180 225 1 225 2 0
23 c0 19 -5 23 -20 20 -29 -5 -79 -6 -264 -3 l-163 2 6 30 c5 26 3 30 -18 30
-12 0 -26 -3 -29 -6z"/>
<path d="M5577 1318 c-12 -6 -150 -10 -376 -10 -197 0 -364 -4 -372 -8 -12 -8
-13 -68 -11 -381 3 -300 1 -374 -10 -380 -21 -14 -332 -11 -346 3 -9 9 -13 8
-18 -5 -10 -28 0 -52 21 -49 11 1 98 4 194 7 96 2 178 8 182 12 5 5 10 180 11
388 l3 380 340 3 c187 1 350 0 363 -3 18 -4 22 -11 20 -37 -2 -25 1 -33 16
-36 30 -6 42 14 22 37 -11 12 -15 27 -11 40 9 31 -6 52 -28 39z"/>
<path d="M717 1104 c-4 -11 -12 -26 -18 -35 -10 -13 -8 -21 7 -42 27 -35 52
-49 104 -58 25 -4 52 -10 62 -14 18 -7 98 58 98 79 0 26 -51 60 -103 68 -134
21 -144 21 -150 2z"/>
<path d="M28 739 c-22 -16 -28 -29 -28 -58 l0 -38 53 -7 c86 -10 113 -7 141
15 14 11 26 24 26 29 0 5 -15 25 -34 44 -29 32 -39 36 -82 36 -33 -1 -58 -7
-76 -21z"/>
<path d="M6455 725 c-19 -14 -19 -16 -2 -29 27 -21 31 -122 6 -147 -16 -16
-17 -20 -5 -25 27 -11 71 0 66 16 -2 8 -7 55 -10 105 -5 97 -15 111 -55 80z"/>
<path d="M6615 725 c-19 -15 -19 -15 -1 -29 15 -13 18 -26 15 -93 l-4 -78 28
-3 c21 -3 27 1 27 17 0 11 -4 22 -9 26 -6 3 -9 42 -8 88 2 89 -8 104 -48 72z"/>
<path d="M2135 600 c-3 -5 -1 -19 5 -30 11 -20 11 -498 0 -530 -4 -11 4 -16
28 -18 23 -2 32 1 32 12 0 8 -4 18 -10 21 -6 4 -10 90 -10 224 l0 218 69 6
c93 8 333 -3 349 -16 18 -14 35 5 30 34 -2 17 -9 23 -23 21 -36 -5 -408 -1
-417 4 -4 3 -4 14 2 24 5 10 10 23 10 29 0 14 -57 14 -65 1z"/>
<path d="M7023 532 l-262 -2 -3 -198 c-2 -108 1 -203 6 -210 6 -9 95 -12 387
-12 359 0 379 1 388 19 10 18 10 385 0 395 -8 8 -225 11 -516 8z m495 -204 c2
-158 1 -168 -17 -178 -14 -7 -137 -9 -368 -8 l-348 3 -3 178 -2 177 367 -2
368 -3 3 -167z"/>
<path d="M5597 523 c-26 -26 5 -28 369 -25 236 2 380 0 386 -6 6 -6 11 -81 13
-167 2 -125 -1 -159 -12 -171 -12 -12 -75 -14 -372 -14 -264 0 -360 3 -369 12
-8 8 -12 55 -12 147 0 74 -3 132 -6 129 -8 -9 -9 -292 0 -306 5 -9 107 -12
397 -12 362 0 390 1 397 18 4 9 7 103 7 207 l0 190 -396 3 c-217 1 -398 -1
-402 -5z"/>
<path d="M4431 461 c-21 -13 -5 -41 24 -41 18 0 25 5 25 19 0 10 -7 22 -16 25
-19 7 -16 8 -33 -3z"/>
<path d="M815 350 c-108 -13 -140 -43 -92 -88 26 -25 88 -52 118 -52 12 0 43
10 69 22 47 22 66 51 54 83 -5 12 -69 46 -82 44 -4 -1 -34 -5 -67 -9z"/>
</g>
</svg>
