<?xml version="1.0" standalone="no"?>
<!DOCTYPE svg PUBLIC "-//W3C//DTD SVG 20010904//EN"
 "http://www.w3.org/TR/2001/REC-SVG-20010904/DTD/svg10.dtd">
<svg version="1.0" xmlns="http://www.w3.org/2000/svg"
 width="690.000000pt" height="796.000000pt" viewBox="0 0 690.000000 796.000000"
 preserveAspectRatio="xMidYMid meet">
<metadata>
Created by potrace 1.16, written by Peter Selinger 2001-2019
</metadata>
<g transform="translate(0.000000,796.000000) scale(0.100000,-0.100000)"
fill="#000000" stroke="none">
<path d="M0 7907 c0 -29 5 -58 12 -65 9 -9 9 -12 0 -12 -9 0 -12 -61 -12 -245
0 -157 4 -245 10 -245 6 0 10 -7 10 -15 0 -8 -4 -15 -10 -15 -16 0 -13 -507 3
-514 9 -5 9 -7 0 -12 -9 -4 -13 -32 -13 -86 l0 -80 67 6 c102 10 165 26 190
49 19 17 30 19 70 12 26 -4 64 -6 84 -6 22 1 41 -5 49 -14 12 -14 45 -16 256
-14 157 1 252 6 266 13 26 13 25 2 33 286 6 203 7 205 31 228 26 23 38 23 114
1 44 -13 315 -6 390 10 104 22 122 24 146 11 17 -9 31 -10 46 -4 13 6 57 9 99
9 71 -1 80 -4 119 -35 41 -32 42 -34 35 -79 -3 -25 -8 -110 -11 -188 l-5 -141
28 -31 c31 -34 1 -28 343 -63 58 -6 182 -11 275 -12 94 -1 177 -5 185 -9 14
-6 62 -9 396 -23 l142 -5 35 31 c34 30 48 36 110 47 35 7 77 66 77 108 0 17 6
37 13 43 6 7 17 59 24 115 19 160 24 181 59 210 28 24 39 26 108 25 45 0 82 4
89 11 6 6 44 11 87 11 58 0 82 5 105 20 17 11 37 20 46 20 28 0 69 65 76 118
4 37 0 60 -16 97 -11 26 -21 64 -21 84 0 20 -4 42 -9 49 -11 18 9 75 38 108
l22 25 152 -4 c96 -3 178 -11 222 -21 122 -30 155 -31 223 -2 45 19 79 26 127
26 37 0 75 5 87 11 11 6 48 15 82 20 68 9 142 -6 291 -63 71 -27 88 -29 170
-26 74 2 96 7 122 26 18 12 46 22 66 22 19 0 40 6 46 14 20 24 75 28 122 8 39
-16 58 -17 154 -10 61 5 128 9 150 11 l40 2 9 53 c8 45 6 56 -9 70 -13 13 -19
14 -22 5 -3 -7 -9 -13 -15 -13 -7 0 -7 4 -1 13 6 6 15 26 21 44 l11 32 -240 1
c-244 0 -275 -5 -204 -34 19 -8 35 -22 35 -30 0 -19 -5 -20 -30 -6 -26 14
-100 2 -100 -16 0 -8 -7 -14 -15 -14 -18 0 -20 16 -2 27 14 9 37 48 37 63 0 6
-88 10 -250 10 -137 0 -250 -4 -250 -8 0 -5 17 -17 39 -26 21 -10 44 -29 50
-42 13 -30 -3 -32 -39 -4 -27 21 -50 25 -65 11 -6 -4 -22 -11 -37 -15 -26 -6
-26 -6 -12 23 8 16 21 32 29 35 8 3 15 10 15 16 0 7 -170 10 -521 10 -490 0
-520 -1 -517 -17 2 -10 13 -19 26 -21 25 -4 72 -43 72 -61 0 -16 -8 -14 -41
10 -27 19 -34 20 -62 8 -18 -6 -38 -19 -44 -27 -25 -31 -25 -2 1 44 14 25 26
50 26 54 0 5 -117 9 -260 9 -190 1 -260 -2 -260 -10 0 -8 -4 -8 -13 -1 -18 15
-605 16 -623 1 -9 -7 -18 -7 -33 0 -26 14 -477 15 -486 1 -3 -5 -17 -10 -30
-10 -13 0 -27 5 -30 10 -4 6 -95 10 -240 10 -145 0 -236 -4 -240 -10 -3 -5
-19 -10 -36 -10 -16 0 -29 5 -29 10 0 6 -83 10 -229 10 -194 0 -230 -2 -235
-15 -3 -8 -12 -15 -20 -15 -8 0 -21 7 -30 15 -22 22 -488 23 -480 0 10 -25
-25 -30 -50 -6 -21 20 -31 21 -254 21 -200 0 -232 -2 -232 -15 0 -8 -9 -15
-20 -15 -11 0 -23 7 -26 15 -5 12 -31 15 -145 15 l-139 0 0 -53z m910 17 c0
-2 -7 -4 -15 -4 -8 0 -15 4 -15 10 0 5 7 7 15 4 8 -4 15 -8 15 -10z m530 6 c0
-5 -4 -10 -10 -10 -5 0 -10 5 -10 10 0 6 5 10 10 10 6 0 10 -4 10 -10z m3276
0 c42 -16 80 -58 66 -72 -9 -9 -17 -7 -33 11 -18 19 -27 21 -65 15 -40 -6 -44
-4 -44 14 0 12 8 26 18 31 22 13 25 13 58 1z m-1072 -7 c3 -4 16 -8 27 -10 35
-5 79 -73 48 -73 -6 0 -19 10 -29 22 -17 21 -21 22 -65 10 -26 -7 -50 -11 -52
-9 -5 6 46 67 56 67 4 0 11 -3 15 -7z m-484 -23 c26 -13 40 -27 40 -40 0 -25
-5 -25 -30 0 -21 21 -55 26 -65 10 -3 -5 -15 -10 -26 -10 -27 0 -25 38 4 50
31 13 33 12 77 -10z m-507 -23 c15 -12 27 -24 27 -29 0 -14 -21 -9 -51 13 -20
14 -34 18 -42 11 -17 -13 -56 -21 -62 -13 -2 4 3 18 11 30 13 18 21 21 52 15
20 -4 49 -16 65 -27z m-1633 8 c33 -17 41 -40 11 -30 -10 3 -31 0 -45 -6 -39
-18 -55 2 -25 30 27 25 23 25 59 6z m568 -18 c30 -28 28 -43 -4 -22 -19 12
-36 15 -65 10 -35 -6 -39 -5 -39 13 0 37 67 36 108 -1z m528 8 c13 -8 24 -25
24 -36 0 -20 -1 -20 -30 4 -24 21 -37 24 -70 20 -41 -6 -50 3 -27 26 15 15 69
8 103 -14z m-1589 -13 c10 -17 7 -18 -42 -17 -57 1 -71 7 -60 24 11 19 89 13
102 -7z m4894 -4 c22 -28 24 -51 4 -68 -21 -17 -41 -7 -53 29 -9 25 -8 34 4
46 20 20 22 19 45 -7z m-541 -3 c15 -18 5 -35 -21 -35 -14 0 -19 7 -19 25 0
28 21 33 40 10z m-522 -7 c20 -20 14 -40 -10 -36 -15 2 -24 11 -26 26 -4 24
16 30 36 10z m-1028 -44 c52 -49 63 -74 31 -74 -44 0 -123 82 -106 110 11 18
25 11 75 -36z m556 -12 c39 -39 43 -47 29 -55 -21 -11 -72 9 -86 34 -14 27
-38 24 -49 -6 -5 -14 -16 -25 -25 -25 -22 0 -18 31 5 37 14 4 20 14 20 33 0
54 42 46 106 -18z m-2127 -14 c37 -37 48 -54 39 -60 -7 -4 -17 -8 -21 -8 -16
0 -67 31 -67 41 0 6 -10 19 -22 29 -19 15 -20 20 -9 34 7 9 17 16 21 16 4 0
30 -23 59 -52z m499 27 c17 -14 35 -25 41 -25 6 0 11 -8 11 -18 0 -10 5 -23
12 -30 9 -9 7 -12 -11 -12 -43 0 -111 55 -111 90 0 27 23 25 58 -5z m558 -21
c33 -34 42 -50 34 -58 -7 -7 -16 -7 -30 2 -11 6 -29 12 -40 12 -11 0 -20 7
-20 15 0 8 -8 15 -18 15 -15 0 -18 6 -14 30 6 44 34 39 88 -16z m-1586 -14
c41 -36 52 -51 44 -60 -15 -15 -68 11 -106 52 -29 30 -33 40 -21 51 13 14 29
5 83 -43z m-1056 -6 c33 -32 44 -50 37 -57 -22 -22 -133 66 -116 93 12 19 30
10 79 -36z m526 1 c32 -33 41 -48 33 -56 -14 -14 -49 4 -85 45 -60 68 -14 78
52 11z m4000 5 c0 -5 -7 -10 -15 -10 -8 0 -15 5 -15 10 0 6 7 10 15 10 8 0 15
-4 15 -10z m-3049 -43 c-16 -16 -26 0 -10 19 9 11 15 12 17 4 2 -6 -1 -17 -7
-23z m532 2 c-17 -17 -37 -1 -22 17 8 10 15 12 23 4 7 -7 7 -13 -1 -21z m517
16 c-7 -9 -15 -13 -17 -11 -7 7 7 26 19 26 6 0 6 -6 -2 -15z m535 5 c-3 -5
-11 -10 -16 -10 -6 0 -7 5 -4 10 3 6 11 10 16 10 6 0 7 -4 4 -10z m-2113 -15
c0 -5 -5 -11 -11 -13 -6 -2 -11 4 -11 13 0 9 5 15 11 13 6 -2 11 -8 11 -13z
m2378 -32 c10 -3 32 -23 50 -44 17 -22 36 -37 41 -33 17 10 59 -5 59 -22 0
-18 -24 -29 -42 -18 -7 5 -31 10 -52 11 -21 2 -45 8 -53 14 -10 9 -20 9 -41
-2 -33 -16 -62 -39 -62 -50 0 -13 78 -87 100 -94 41 -13 11 -36 -37 -27 -11 2
-23 12 -26 22 -2 9 -18 24 -34 32 -27 14 -32 13 -57 -5 -26 -19 -56 -18 -56 2
0 6 9 19 21 30 17 15 20 26 14 52 -8 33 -3 35 46 15 25 -11 79 45 79 83 0 16
6 43 13 58 12 27 12 27 15 4 2 -13 12 -25 22 -28z m-3438 15 c-7 -7 -12 -8
-12 -2 0 14 12 26 19 19 2 -3 -1 -11 -7 -17z m538 12 c0 -5 -7 -10 -15 -10 -8
0 -15 5 -15 10 0 6 7 10 15 10 8 0 15 -4 15 -10z m3428 -19 c12 -11 20 -25 18
-33 -2 -7 -7 -25 -10 -40 -5 -21 -12 -28 -29 -28 -27 0 -67 -26 -67 -44 0 -15
56 -75 85 -92 10 -6 21 -16 23 -24 7 -20 -70 -5 -86 17 -13 18 -71 24 -107 11
-11 -4 -27 -3 -35 2 -12 8 -10 14 13 38 27 28 36 62 17 62 -5 0 -10 5 -10 10
0 6 13 10 29 10 17 0 33 -4 36 -10 9 -15 35 -12 35 3 0 7 9 23 20 35 13 14 20
35 20 62 0 45 12 50 48 21z m-1015 -56 c22 -27 36 -35 62 -35 31 0 55 -23 36
-34 -15 -10 -111 7 -122 20 -15 19 -45 18 -53 -1 -3 -8 -17 -20 -31 -25 -14
-5 -25 -17 -25 -27 1 -22 65 -93 85 -93 19 0 19 -16 0 -24 -18 -6 -45 2 -45
15 0 5 -14 18 -31 28 -30 19 -31 19 -70 -2 -30 -16 -42 -18 -51 -9 -9 9 -7 17
11 36 15 16 21 33 19 52 -3 28 -2 29 36 26 34 -4 43 0 68 29 16 18 28 42 27
53 -2 36 0 38 29 32 15 -4 40 -22 55 -41z m-1593 -9 c32 -34 52 -46 79 -48 26
-2 37 -8 39 -22 4 -16 -1 -18 -50 -11 -29 4 -63 13 -75 21 -24 15 -53 19 -53
6 0 -4 -16 -16 -35 -26 -19 -11 -35 -24 -35 -30 0 -14 69 -80 93 -89 27 -10
20 -27 -12 -27 -19 0 -34 8 -44 24 -20 30 -56 37 -98 19 -41 -17 -61 -3 -36
25 9 10 17 33 17 50 0 37 12 47 41 31 42 -22 102 38 92 94 -8 42 25 35 77 -17z
m542 -8 c25 -27 42 -38 53 -34 20 7 58 -11 50 -25 -9 -14 -111 -4 -138 14 -21
14 -28 14 -52 1 -36 -19 -39 -18 -21 8 9 12 16 38 16 56 0 32 2 34 27 27 15
-3 44 -25 65 -47z m519 16 c20 -20 52 -39 70 -43 21 -4 35 -14 37 -25 3 -16
-2 -17 -45 -11 -26 4 -63 14 -81 21 -26 10 -37 11 -52 2 -22 -14 -39 -3 -22
14 7 7 12 27 12 45 0 27 4 33 22 33 12 0 39 -16 59 -36z m-2116 -21 c19 -21
43 -37 65 -42 21 -4 36 -13 38 -24 3 -15 -2 -17 -40 -11 -24 3 -60 15 -82 26
-38 19 -39 19 -60 -1 -32 -30 -41 -26 -16 6 14 18 19 35 15 51 -13 54 31 51
80 -5z m535 1 c24 -26 48 -43 56 -40 20 8 44 -4 44 -21 0 -13 -10 -15 -57 -9
-31 4 -64 13 -73 21 -22 20 -37 19 -73 -7 l-32 -23 28 37 c21 27 26 42 21 62
-5 23 -3 26 18 26 16 0 39 -16 68 -46z m875 -64 c3 -5 15 -10 26 -10 11 0 19
-7 19 -17 0 -20 68 -93 87 -93 7 0 13 -7 13 -15 0 -24 -21 -18 -74 20 -54 38
-71 43 -80 20 -6 -16 -56 -21 -56 -6 0 5 7 16 15 25 8 8 15 31 15 50 0 35 20
50 35 26z m579 -17 c-6 -23 14 -49 70 -89 17 -12 26 -26 22 -32 -11 -18 -22
-15 -58 17 -43 37 -72 46 -88 26 -16 -19 -60 -20 -60 -1 0 7 7 19 16 27 11 9
14 22 9 45 l-6 33 50 -2 c46 -2 50 -4 45 -24z m-1629 3 c19 -8 35 -19 35 -24
0 -13 72 -88 95 -97 19 -8 19 -9 -3 -12 -14 -3 -34 5 -53 21 -45 38 -75 43
-104 16 -24 -22 -45 -20 -45 4 0 8 7 19 15 26 8 7 15 28 15 46 0 39 -1 39 45
20z m-511 -6 c14 -5 26 -17 26 -26 0 -20 65 -84 86 -84 19 0 18 -16 -2 -24
-18 -7 -25 -4 -76 37 l-37 29 -29 -21 c-52 -37 -77 -20 -41 28 12 16 19 36 16
44 -10 28 12 34 57 17z m2964 -183 c6 -5 12 -13 12 -18 0 -5 -11 -2 -25 7 -20
13 -31 14 -56 5 -32 -11 -49 -8 -49 10 0 27 72 25 118 -4z m532 8 c21 -19 27
-45 10 -45 -5 0 -19 9 -31 21 -17 17 -28 19 -65 13 -45 -6 -55 1 -31 25 17 17
92 8 117 -14z m-1059 -19 c22 -27 17 -32 -13 -12 -25 18 -58 21 -58 6 0 -5
-11 -10 -25 -10 -32 0 -33 27 -2 40 31 13 78 2 98 -24z m-1588 2 c9 -5 17 -16
17 -24 0 -12 -5 -14 -17 -8 -10 5 -39 8 -65 8 -39 -1 -48 2 -48 16 0 9 3 20 7
23 7 8 81 -2 106 -15z m512 8 c19 -8 35 -22 35 -30 0 -14 -4 -14 -35 1 -28 14
-39 14 -61 4 -36 -16 -59 3 -30 25 25 18 48 18 91 0z m544 -10 c32 -34 23 -53
-11 -26 -21 16 -35 19 -67 14 -32 -5 -41 -3 -41 8 0 23 10 28 55 28 31 0 47
-6 64 -24z m-1594 -6 c22 -25 14 -36 -14 -19 -16 11 -27 11 -54 1 -42 -15 -47
-15 -47 1 0 40 83 52 115 17z m3312 -30 c13 -19 8 -50 -7 -50 -20 0 -53 38
-47 53 9 23 39 21 54 -3z m-1019 -50 c42 -41 49 -54 34 -64 -13 -8 -82 27 -82
41 0 7 -5 13 -10 13 -13 0 -32 48 -24 61 7 13 31 -2 82 -51z m-545 7 c44 -41
61 -77 37 -77 -20 0 -68 29 -73 45 -4 8 -13 15 -22 15 -10 0 -15 10 -15 30 0
41 17 38 73 -13z m1071 -1 c47 -43 53 -66 17 -66 -29 0 -101 62 -101 87 0 36
29 28 84 -21z m-2154 8 c0 -9 -7 -14 -17 -12 -25 5 -28 28 -4 28 12 0 21 -6
21 -16z m-1021 -35 c40 -38 47 -59 25 -66 -15 -5 -104 75 -104 93 0 27 38 14
79 -27z m2551 -14 c0 -8 -9 -15 -20 -15 -20 0 -26 11 -13 23 12 13 33 7 33 -8z
m-520 -4 c0 -5 -7 -12 -16 -15 -22 -9 -24 -8 -24 9 0 8 9 15 20 15 11 0 20 -4
20 -9z m-2130 -21 c0 -5 -7 -10 -16 -10 -8 0 -12 5 -9 10 3 6 10 10 16 10 5 0
9 -4 9 -10z m3438 -30 c24 -15 32 -27 32 -48 0 -27 -15 -52 -32 -52 -4 0 -8 7
-8 15 0 19 -26 20 -37 1 -4 -7 -18 -18 -30 -25 -13 -6 -23 -21 -23 -32 0 -21
66 -89 88 -89 13 0 17 -29 5 -31 -5 0 -21 -2 -36 -4 -22 -3 -30 2 -39 21 -9
20 -18 24 -52 24 -23 0 -47 -4 -55 -9 -18 -11 -41 -3 -41 14 0 7 12 22 27 33
25 18 26 22 15 46 -10 23 -9 28 4 33 9 3 25 1 35 -5 14 -9 23 -7 46 11 38 29
43 37 43 73 0 49 10 53 58 24z m-1028 -47 c19 -18 44 -33 55 -33 32 0 63 -26
48 -41 -13 -13 -103 4 -139 28 -18 12 -23 11 -34 -2 -7 -8 -19 -15 -26 -15 -8
0 -19 -11 -25 -24 -13 -28 4 -57 58 -97 18 -13 33 -28 33 -32 0 -19 -34 -18
-61 2 -37 28 -89 37 -118 21 -17 -9 -26 -9 -37 1 -13 10 -11 16 11 39 18 19
25 36 23 56 -2 22 1 28 12 25 54 -14 60 -13 90 19 18 19 30 43 30 59 0 50 23
49 80 -6z m530 7 c27 -34 38 -40 62 -38 36 4 61 -23 40 -44 -9 -9 -15 -9 -24
0 -7 7 -29 12 -49 12 -21 0 -44 7 -53 15 -20 20 -39 19 -61 -5 -10 -11 -24
-20 -32 -20 -45 0 34 -110 90 -124 15 -3 27 -11 27 -16 0 -16 -76 -12 -91 6
-7 8 -25 22 -41 30 -25 13 -32 13 -64 -2 -48 -23 -65 -7 -35 35 15 21 20 38
15 55 -7 28 11 35 45 17 9 -5 22 -6 29 -2 24 14 62 75 62 98 0 39 43 30 80
-17z m-2664 7 c0 -1 8 -14 17 -29 20 -32 22 -68 4 -68 -7 0 -23 7 -35 16 -22
15 -25 15 -48 -7 -32 -30 -41 -18 -14 19 14 18 20 37 16 47 -9 26 3 37 33 30
14 -4 26 -7 27 -8z m436 -74 c4 -50 31 -52 38 -3 4 27 10 36 29 38 30 5 42
-14 35 -54 -3 -18 -1 -34 4 -38 13 -8 33 17 31 40 -5 46 0 55 29 52 l27 -3 3
-159 c1 -98 -1 -163 -8 -170 -6 -6 -4 -16 7 -28 23 -25 4 -68 -31 -68 -32 0
-43 33 -22 65 14 21 14 24 0 36 -9 8 -15 26 -13 48 3 65 -1 154 -7 148 -4 -4
-8 -48 -10 -99 -2 -51 -7 -115 -12 -143 -6 -44 -10 -50 -32 -50 -17 0 -29 8
-38 28 -15 32 -32 27 -32 -9 0 -20 -5 -24 -29 -24 -24 0 -30 5 -34 30 -8 39
-26 38 -34 -1 -5 -27 -9 -30 -37 -27 -31 3 -31 3 -34 68 -2 36 -1 120 3 188
l7 122 20 -25 c25 -33 38 -24 38 26 0 44 22 52 28 11 5 -30 32 -28 32 1 0 52
38 51 42 0z m-597 -33 c3 -5 17 -10 31 -10 17 0 24 -6 24 -19 0 -25 46 -80 77
-92 12 -5 23 -13 23 -19 0 -17 -30 -11 -63 13 -61 43 -78 49 -97 32 -17 -16
-60 -21 -60 -7 0 5 10 19 22 31 18 20 19 27 9 43 -6 10 -9 23 -6 28 8 13 32
13 40 0z m382 -62 c-8 -30 -45 -70 -60 -65 -24 8 -18 40 14 73 35 36 56 33 46
-8z m2018 -108 c3 -5 13 -10 22 -10 20 0 63 -39 63 -57 0 -20 -20 -16 -40 9
-16 20 -20 21 -56 9 -22 -7 -44 -14 -50 -17 -7 -3 -10 4 -6 22 3 15 13 29 23
31 11 3 19 9 19 14 0 12 17 11 25 -1z m584 -26 c17 -14 31 -33 31 -42 -1 -15
-2 -15 -13 -2 -22 27 -66 45 -79 32 -16 -16 -45 -15 -51 2 -16 42 66 49 112
10z m-377 -106 c-12 -12 -62 1 -69 18 -3 8 0 21 7 30 12 13 17 11 42 -13 16
-15 24 -31 20 -35z m529 26 c32 -33 33 -36 16 -48 -21 -16 -157 -21 -157 -6 0
5 9 10 21 10 40 0 59 18 52 50 -5 25 -2 30 14 30 10 0 35 -16 54 -36z"/>
<path d="M744 6978 c-12 -13 -26 -37 -33 -54 -22 -57 20 -154 67 -154 36 0 60
13 71 36 17 38 13 63 -14 90 -20 20 -32 24 -55 19 -32 -7 -38 2 -20 36 13 23
28 24 52 2 24 -22 49 -3 32 25 -17 27 -76 27 -100 0z m64 -110 c16 -16 15 -53
-2 -67 -27 -23 -55 8 -56 62 0 20 39 24 58 5z"/>
<path d="M6110 7610 c-11 -11 -20 -27 -20 -36 0 -8 -5 -12 -10 -9 -16 10 -60
-22 -60 -43 0 -9 18 -34 40 -55 35 -33 45 -37 74 -31 20 3 36 1 40 -5 16 -25
34 -8 51 44 22 71 14 125 -18 125 -12 0 -31 7 -41 15 -26 19 -32 19 -56 -5z"/>
<path d="M5538 7610 c-56 -17 -85 -47 -92 -95 -4 -25 -5 -54 -1 -64 8 -26 83
-62 126 -60 19 1 44 -2 56 -6 16 -5 23 -2 28 14 3 12 13 21 21 21 25 0 27 28
5 63 -15 25 -19 43 -14 70 3 23 1 42 -7 52 -14 16 -76 19 -122 5z"/>
<path d="M4310 7105 c-29 -30 -31 -36 -28 -95 l3 -63 65 -33 c63 -32 130 -44
130 -24 0 6 8 10 18 10 29 0 72 64 72 107 0 45 -14 63 -47 63 -13 0 -36 13
-51 29 -21 23 -38 30 -79 34 -48 4 -54 2 -83 -28z"/>
<path d="M5533 7133 c-7 -2 -13 -18 -13 -34 0 -24 -4 -29 -25 -29 -23 0 -25
-4 -25 -46 0 -37 5 -51 28 -74 24 -23 35 -27 76 -26 40 2 50 7 67 32 23 36 25
113 4 154 -14 26 -21 30 -58 29 -23 0 -48 -3 -54 -6z"/>
<path d="M5415 6495 c-47 -14 -56 -37 -27 -68 12 -12 25 -35 31 -50 6 -16 15
-26 21 -22 5 3 16 -8 25 -24 8 -17 24 -35 35 -41 28 -15 70 -1 80 26 5 13 14
24 20 24 16 0 12 86 -5 100 -8 7 -15 23 -15 36 0 17 -7 25 -22 28 -39 7 -101
3 -143 -9z"/>
<path d="M3053 6196 c-556 -6 -1014 -14 -1018 -17 -3 -4 -7 -119 -8 -255 l-2
-249 -214 -3 c-118 -1 -218 1 -222 5 -5 5 -9 113 -10 241 -1 154 -5 237 -13
247 -11 15 -268 18 -1001 11 -49 -1 -197 -2 -327 -4 l-238 -2 0 -37 0 -36 739
6 c616 5 742 3 751 -8 8 -9 11 -90 12 -249 0 -191 3 -238 15 -247 15 -13 562
-7 584 7 9 5 11 66 6 256 -5 193 -4 250 6 252 6 2 581 9 1275 16 958 9 1267 9
1275 1 9 -9 12 -217 12 -805 0 -746 -1 -795 -18 -813 -15 -17 -15 -22 -4 -32
15 -12 64 -10 86 3 10 6 9 12 -4 26 -9 10 -15 29 -13 42 l3 23 235 0 235 0 3
-489 c2 -438 4 -492 19 -508 15 -17 38 -18 280 -18 228 0 264 2 270 15 3 9 3
18 0 21 -3 3 -121 6 -264 7 l-258 2 -3 488 -2 487 280 0 c269 0 280 1 290 20
14 26 37 25 59 -2 24 -29 41 -15 41 32 0 68 -25 94 -45 48 -6 -13 -19 -23 -30
-23 -19 0 -20 8 -25 320 -3 176 -1 326 4 332 6 10 18 7 50 -11 55 -33 89 -37
94 -12 5 24 -23 46 -58 46 -35 0 -79 47 -87 92 -3 20 0 52 7 72 9 30 9 40 -1
53 -14 16 -14 61 0 76 12 12 414 17 428 5 7 -6 13 -30 13 -55 0 -58 -21 -66
-62 -24 -17 17 -49 36 -72 43 -22 6 -45 15 -50 20 -13 11 -103 10 -110 -1 -3
-5 -28 -14 -55 -21 -48 -11 -81 -34 -68 -47 9 -8 97 17 97 28 0 5 32 9 71 9
62 0 80 -4 130 -32 41 -23 62 -41 69 -62 17 -48 12 -70 -25 -113 -36 -42 -42
-58 -26 -67 17 -11 41 6 65 46 20 33 25 37 29 22 10 -36 7 -682 -3 -710 -8
-19 -8 -30 0 -38 15 -15 14 -473 -1 -482 -7 -4 -122 -8 -256 -9 -175 -1 -247
-5 -256 -14 -27 -27 18 -32 261 -28 172 2 245 0 252 -8 5 -6 10 -216 12 -498
3 -419 1 -489 -12 -497 -8 -5 -333 -8 -770 -7 l-755 2 -3 548 c-1 363 1 547 8
547 5 0 10 9 10 20 0 17 -7 20 -44 20 -53 0 -66 -14 -37 -41 21 -20 21 -23 21
-568 0 -482 2 -550 15 -561 13 -11 168 -12 784 -7 599 5 771 4 779 -6 14 -18
22 -707 23 -1949 l1 -1088 39 0 40 0 -1 1068 c-1 587 -5 1171 -10 1297 -5 127
-12 927 -15 1779 -3 852 -8 1553 -11 1557 -4 8 -557 2 -581 -6 -10 -3 -13
-121 -15 -522 l-3 -518 -479 -3 c-278 -2 -483 1 -488 6 -5 5 -10 332 -12 769
-1 417 -6 764 -10 771 -8 14 -156 14 -1683 -2z"/>
<path d="M4872 6018 c-7 -7 -12 -20 -12 -29 0 -10 -4 -21 -10 -24 -28 -17 4
-85 40 -85 7 0 21 -7 30 -15 14 -13 28 -14 66 -8 48 8 49 9 52 49 4 60 -26 94
-83 94 -29 0 -45 5 -49 15 -7 18 -18 19 -34 3z"/>
<path d="M2730 5673 c-85 -2 -159 -8 -164 -13 -5 -5 -8 -420 -7 -1032 1 -609
-3 -1029 -8 -1037 -8 -12 -128 -15 -764 -19 -482 -3 -756 -1 -760 5 -4 6 -7
468 -7 1029 -1 623 -5 1025 -11 1036 -9 17 -37 18 -418 18 -479 0 -591 -5
-591 -29 0 -14 46 -16 484 -13 l484 3 7 -1113 c3 -612 5 -1189 3 -1283 l-3
-170 -234 -3 c-129 -1 -238 1 -242 5 -9 10 -19 764 -19 1506 l0 577 -21 0 -22
0 5 -1055 c3 -581 8 -1058 11 -1061 9 -9 550 -5 559 4 4 4 9 118 10 252 l3
245 175 6 c96 4 451 7 788 8 481 1 612 4 614 14 1 6 2 476 2 1042 l1 1030 85
7 c131 10 897 15 914 6 13 -7 15 -195 16 -1548 l0 -1540 -22 -5 c-13 -3 -375
-9 -806 -13 -759 -7 -783 -6 -801 12 -31 30 -53 14 -45 -31 9 -50 19 -60 42
-40 23 21 186 26 1003 28 341 0 632 4 646 8 l26 7 -2 659 c-1 363 -4 930 -7
1260 -2 330 -4 745 -4 923 l0 322 -382 -2 c-211 -1 -453 -4 -538 -5z"/>
<path d="M5940 5511 c0 -12 6 -21 16 -21 9 0 14 7 12 17 -5 25 -28 28 -28 4z"/>
<path d="M6031 5506 c-16 -29 -11 -66 10 -79 11 -7 22 -3 42 16 l27 25 -29 31
c-16 17 -31 31 -33 31 -3 0 -10 -11 -17 -24z"/>
<path d="M4958 5488 c-34 -56 -39 -79 -23 -104 27 -42 118 -76 129 -49 3 8 17
15 31 15 33 0 65 17 65 33 0 18 -79 91 -119 111 -46 22 -66 20 -83 -6z"/>
<path d="M5892 5435 c-9 -20 -9 -30 0 -45 17 -27 36 -25 50 5 9 21 8 28 -7 45
-23 26 -29 25 -43 -5z"/>
<path d="M6120 5391 c0 -14 5 -19 15 -14 17 6 15 25 -3 31 -7 2 -12 -5 -12
-17z"/>
<path d="M6006 5321 c-16 -18 -13 -51 5 -51 5 0 15 11 21 25 13 28 19 30 36
13 18 -18 15 -39 -9 -64 l-21 -22 26 -17 c30 -20 33 -37 10 -59 -23 -23 -43
-19 -50 9 -4 14 -11 24 -18 22 -19 -6 -18 -42 3 -61 25 -23 86 -14 101 14 14
26 13 73 -2 88 -10 10 -10 17 0 32 6 11 12 28 12 38 0 47 -80 70 -114 33z"/>
<path d="M3094 5146 c-3 -9 -3 -471 0 -1027 3 -616 2 -1018 -4 -1029 -8 -15
-33 -18 -207 -23 -109 -4 -457 -7 -773 -8 -377 -1 -579 -4 -587 -11 -10 -8
-13 -73 -13 -263 l0 -252 -67 -6 c-38 -4 -377 -7 -755 -7 -680 0 -688 0 -688
-20 0 -19 8 -20 493 -22 l492 -3 5 -255 5 -255 274 -3 c151 -1 279 2 284 7 4
4 8 119 8 255 -1 269 1 275 55 246 29 -16 30 -15 37 32 4 24 1 42 -9 55 -14
17 -15 17 -30 -4 -9 -13 -25 -23 -34 -23 -24 0 -32 89 -28 315 l3 170 773 7
c425 3 779 9 787 12 13 5 15 140 13 1062 -2 835 -6 1058 -15 1061 -7 3 -16 -2
-19 -11z m-1615 -2673 c3 -2 -1 -9 -7 -15 -17 -17 -15 -28 7 -28 49 0 48 -57
-1 -67 -26 -5 -27 -7 -13 -23 8 -9 15 -21 15 -26 0 -15 -36 -33 -56 -28 -11 2
-26 0 -34 -6 -13 -9 -13 -12 3 -21 17 -10 17 -13 3 -34 -16 -25 -12 -35 15
-35 24 0 33 18 18 36 -16 19 -1 35 38 40 39 4 57 -9 48 -35 -4 -14 -15 -21
-31 -21 -25 0 -34 -25 -11 -33 9 -3 9 -9 -1 -26 -15 -26 -8 -41 18 -41 20 0
30 -17 22 -37 -6 -18 -67 -16 -81 1 -8 10 -9 16 -1 21 5 3 10 13 10 22 0 12
-8 14 -38 9 -34 -5 -40 -3 -50 18 -8 18 -7 27 6 39 14 15 14 17 -1 23 -10 3
-28 4 -42 2 -16 -4 -31 2 -42 14 -17 19 -17 20 2 34 10 8 34 14 52 14 32 0 46
21 23 35 -7 4 -7 12 0 25 14 26 13 30 -9 30 -25 0 -32 -12 -21 -30 14 -23 -17
-50 -50 -44 -33 7 -45 -8 -30 -36 9 -16 8 -22 -5 -26 -31 -12 -16 -34 23 -34
21 0 47 -6 57 -14 18 -13 18 -15 2 -39 l-17 -26 48 -3 c39 -3 47 -6 47 -23 0
-16 -8 -21 -40 -25 -35 -4 -40 -8 -40 -30 0 -22 -5 -25 -44 -28 -24 -2 -50 -1
-59 3 -23 9 15 34 52 35 28 0 28 1 13 24 -15 22 -15 25 -1 37 14 11 13 14 -5
21 -22 8 -51 1 -51 -12 0 -4 7 -10 15 -14 28 -10 4 -34 -41 -39 -52 -5 -61
-11 -46 -30 17 -21 4 -27 -55 -27 -39 0 -53 4 -53 14 0 16 21 26 57 26 22 0
24 3 19 26 -4 15 -2 32 5 40 9 11 8 15 -5 20 -9 3 -23 3 -32 0 -15 -6 -15 -8
0 -25 15 -17 15 -19 -4 -36 -30 -27 -47 -6 -48 60 0 30 4 57 8 60 5 3 5 17 -1
32 -6 17 -6 30 1 39 8 9 8 19 1 31 -5 11 -9 58 -8 106 l1 87 61 0 c71 0 82 -6
58 -32 -15 -17 -14 -18 16 -18 28 0 31 2 21 19 -15 28 -3 32 95 30 47 -1 88 0
91 4 6 6 95 -2 103 -10z m-21 -445 c22 -22 12 -29 -40 -26 -54 3 -67 18 -26
30 36 10 53 9 66 -4z"/>
<path d="M1307 2453 c-14 -13 -6 -23 18 -23 16 0 25 6 25 15 0 15 -31 21 -43
8z"/>
<path d="M1075 2440 c-4 -6 -2 -17 5 -24 6 -8 8 -26 4 -40 -5 -22 -3 -26 15
-26 23 0 26 7 12 29 -6 9 -5 21 2 33 10 15 9 21 -3 28 -19 13 -27 12 -35 0z"/>
<path d="M1390 2440 c-13 -8 -13 -11 2 -26 12 -12 14 -23 7 -40 -7 -20 -5 -24
11 -24 17 0 19 5 14 25 -4 15 -1 32 7 41 10 13 10 17 -2 25 -18 11 -20 11 -39
-1z"/>
<path d="M1230 2434 c0 -3 5 -14 11 -25 8 -16 7 -25 -6 -39 -15 -17 -15 -19 5
-25 31 -10 45 7 29 34 -11 16 -11 23 -1 33 19 19 14 28 -13 28 -14 0 -25 -3
-25 -6z"/>
<path d="M1140 2350 c0 -5 5 -10 11 -10 6 0 9 -12 7 -27 -2 -23 -8 -28 -28
-26 -14 1 -36 0 -49 -3 -22 -5 -22 -6 -7 -23 12 -13 15 -27 10 -45 -5 -22 -3
-26 15 -26 22 0 29 24 10 35 -18 12 22 45 54 45 26 0 28 3 23 24 -4 16 0 30 9
40 22 22 19 26 -20 26 -19 0 -35 -4 -35 -10z"/>
<path d="M1155 2200 c-4 -6 -1 -18 6 -26 9 -11 9 -18 1 -26 -20 -20 -14 -40
11 -36 18 2 21 8 19 35 -2 17 2 34 8 38 6 3 8 11 5 16 -8 12 -42 12 -50 -1z"/>
<path d="M5015 5029 c-20 -13 -40 -17 -61 -13 -43 8 -56 -12 -52 -82 l3 -58
51 -28 c45 -24 56 -26 83 -17 69 24 106 152 58 197 -28 26 -43 27 -82 1z"/>
<path d="M1209 4989 c-33 -36 -36 -55 -11 -89 9 -14 22 -38 27 -55 9 -25 17
-31 57 -38 58 -11 78 -5 78 24 0 13 7 31 16 41 16 16 16 22 -1 73 -17 54 -17
55 -55 55 -22 0 -42 5 -45 10 -11 18 -37 10 -66 -21z"/>
<path d="M3297 4952 c-25 -28 -23 -116 3 -142 11 -11 24 -20 29 -20 5 0 19
-16 32 -35 29 -43 47 -44 84 -5 23 24 30 41 33 88 4 51 1 62 -21 87 -19 22
-34 30 -63 31 -22 1 -48 5 -59 9 -14 4 -26 0 -38 -13z"/>
<path d="M6166 4684 c-14 -36 -3 -94 18 -94 6 0 19 12 29 26 17 23 18 27 3 43
-9 10 -16 23 -16 29 0 18 -27 14 -34 -4z"/>
<path d="M4897 4515 c-9 -8 -21 -15 -27 -15 -13 0 -33 -49 -26 -67 3 -7 15
-13 26 -13 19 0 21 4 15 29 -7 33 5 45 34 36 39 -12 34 -52 -11 -102 -11 -12
-18 -28 -16 -35 3 -9 19 1 47 29 36 36 42 47 39 78 -2 28 -10 41 -34 56 -29
18 -33 18 -47 4z"/>
<path d="M1192 4356 c-12 -24 -22 -51 -22 -61 0 -26 34 -68 73 -88 34 -18 35
-18 76 2 45 23 57 51 47 103 -8 38 -33 68 -57 68 -10 0 -21 5 -24 10 -3 6 -21
10 -39 10 -28 0 -35 -5 -54 -44z"/>
<path d="M4860 4325 c-7 -8 -10 -22 -6 -30 5 -13 16 -14 58 -9 55 6 87 29 68
48 -7 7 -14 6 -22 -2 -15 -15 -54 -16 -63 -2 -9 14 -21 12 -35 -5z"/>
<path d="M3918 4014 c-7 -9 -23 -26 -35 -38 -17 -17 -23 -36 -24 -79 -2 -65
11 -87 53 -87 16 0 39 -5 50 -11 15 -8 27 -8 47 2 25 12 33 14 58 17 7 1 19
25 27 53 14 45 14 54 1 80 -14 26 -55 59 -55 44 0 -4 -12 3 -26 14 -32 25 -78
27 -96 5z"/>
<path d="M3368 3878 c-7 -7 -30 -21 -50 -30 -41 -19 -46 -29 -23 -48 8 -7 15
-18 15 -25 0 -19 41 -109 54 -117 23 -16 47 -6 91 36 40 40 45 49 45 90 0 27
-5 48 -14 53 -7 4 -18 18 -25 31 -13 25 -70 31 -93 10z"/>
<path d="M745 3317 c-7 -18 -27 -47 -44 -65 -45 -46 -43 -52 22 -66 22 -5 27
-11 22 -26 -4 -13 0 -20 16 -25 36 -12 42 6 34 114 -6 78 -10 101 -22 101 -8
0 -20 -15 -28 -33z m5 -93 c-7 -7 -16 -14 -21 -14 -14 0 -11 48 4 53 18 6 31
-22 17 -39z"/>
<path d="M1740 2581 c-19 -36 -2 -77 41 -96 41 -19 50 -43 24 -65 -13 -10 -19
-10 -34 4 -26 24 -40 0 -15 -24 27 -25 81 -9 90 27 10 39 -7 77 -36 81 -14 2
-31 9 -37 14 -15 12 -17 58 -3 58 6 0 10 5 10 10 0 17 -29 11 -40 -9z"/>
<path d="M1800 2575 c7 -8 19 -15 26 -15 8 0 14 7 14 15 0 10 -10 15 -26 15
-22 0 -25 -2 -14 -15z"/>
<path d="M5410 2550 l-195 -5 0 -263 c0 -145 3 -269 7 -275 9 -15 537 -10 555
4 15 13 16 526 0 536 -13 8 -130 9 -367 3z m-34 -38 c7 -4 13 -16 15 -27 6
-29 34 -25 34 5 0 24 3 25 55 25 49 0 55 -2 60 -25 3 -14 14 -26 23 -28 13 -3
17 4 17 28 l0 31 58 -3 c51 -3 57 -5 60 -26 2 -13 14 -27 28 -32 38 -15 26
-70 -16 -70 -27 0 -14 -75 16 -89 33 -14 31 -47 -2 -55 -23 -6 -26 -11 -20
-38 3 -17 6 -36 6 -44 0 -7 9 -16 20 -19 19 -6 28 -39 13 -48 -5 -2 -25 -7
-45 -11 l-38 -7 0 41 c0 33 -3 41 -16 38 -11 -2 -18 -16 -20 -45 -4 -43 -4
-43 30 -43 38 0 57 -17 35 -31 -8 -5 -36 -9 -63 -9 -46 0 -48 1 -42 24 3 14 2
27 -3 30 -17 11 -41 -6 -41 -30 0 -21 -3 -23 -47 -20 -65 5 -63 4 -63 21 0 11
11 15 41 15 33 0 40 3 35 16 -3 9 -6 29 -6 45 0 20 -5 29 -16 29 -13 0 -15 -7
-11 -28 8 -38 -5 -54 -39 -51 -16 1 -40 1 -53 1 -23 -2 -24 -3 -6 -22 15 -17
16 -20 3 -25 -9 -4 -37 -5 -64 -3 -47 3 -49 4 -50 33 -3 98 -5 302 -5 373 l1
82 53 0 c28 0 57 -4 63 -8z"/>
<path d="M5304 2465 c-4 -9 -2 -21 5 -28 6 -6 11 -19 11 -29 0 -31 20 -20 22
12 0 17 1 36 2 42 2 19 -33 22 -40 3z"/>
<path d="M5475 2470 c-3 -6 -12 -7 -18 -3 -8 5 -8 2 1 -9 7 -9 10 -27 6 -47
-6 -27 -4 -31 15 -31 18 0 21 6 21 40 0 22 0 43 1 47 1 12 -19 15 -26 3z"/>
<path d="M5624 2467 c-11 -30 0 -82 19 -85 16 -3 18 3 15 44 -3 47 -22 70 -34
41z"/>
<path d="M5394 2392 c-6 -4 -10 -26 -11 -50 0 -35 3 -42 16 -40 20 4 34 85 16
92 -7 2 -16 1 -21 -2z"/>
<path d="M5552 2391 c-19 -11 -10 -85 11 -89 14 -3 17 4 17 42 0 47 -8 60 -28
47z"/>
<path d="M5461 2311 c-11 -7 -12 -13 -3 -23 6 -8 9 -23 6 -35 -4 -13 0 -22 11
-27 26 -10 31 -1 27 48 -4 46 -13 54 -41 37z"/>
<path d="M5618 2275 c-3 -37 0 -46 15 -51 26 -8 30 -1 30 48 0 36 -3 44 -20
46 -18 3 -21 -3 -25 -43z"/>
<path d="M5309 2303 c-7 -47 -2 -73 14 -73 13 0 17 9 17 40 0 29 -4 40 -15 40
-8 0 -16 -3 -16 -7z"/>
<path d="M5384 2218 c3 -13 6 -33 6 -45 0 -14 6 -23 15 -23 11 0 15 12 15 45
0 39 -3 45 -21 45 -17 0 -20 -4 -15 -22z"/>
<path d="M5546 2203 c12 -69 28 -67 37 5 3 28 1 32 -20 32 -22 0 -23 -3 -17
-37z"/>
<path d="M5310 2115 c0 -33 4 -45 15 -45 10 0 15 10 15 29 0 16 3 36 6 45 4
12 0 16 -15 16 -18 0 -21 -6 -21 -45z"/>
<path d="M4205 2540 l-40 -5 0 -270 0 -270 280 0 280 0 3 269 c2 209 -1 271
-10 278 -14 9 -446 8 -513 -2z m82 -42 c4 -7 6 -21 5 -30 -2 -12 3 -18 17 -18
15 0 19 6 18 28 -2 26 0 27 51 30 55 3 85 -10 76 -32 -3 -8 2 -16 10 -19 12
-5 16 1 16 24 l0 30 57 -3 c52 -3 59 -6 71 -30 7 -16 17 -28 22 -28 5 0 10 12
12 28 2 19 9 27 23 27 19 0 20 -6 18 -215 -2 -274 -1 -260 -17 -260 -8 0 -16
10 -18 23 -2 16 -10 22 -28 22 -20 0 -24 -4 -22 -22 3 -21 0 -23 -51 -23 -49
0 -54 2 -53 23 1 31 -48 32 -52 1 -6 -40 -112 -43 -112 -4 0 25 -16 33 -47 25
-24 -6 -25 -7 -7 -20 25 -18 7 -38 -32 -33 -32 3 -46 34 -18 40 11 2 17 15 19
41 2 36 -7 51 -30 52 -5 0 -11 12 -13 27 -3 22 2 30 22 37 19 8 23 15 19 31
-4 13 0 25 8 30 17 11 6 23 -24 25 -19 1 -22 7 -22 41 0 32 3 38 18 36 13 -2
17 4 17 26 0 19 6 32 17 36 15 6 15 8 3 16 -8 6 -25 10 -37 10 -22 0 -31 19
-16 33 11 12 71 8 80 -5z"/>
<path d="M4522 2463 c-10 -4 -10 -8 -1 -19 9 -11 9 -21 0 -40 -15 -34 -14 -36
11 -32 18 2 24 12 29 43 8 47 -4 62 -39 48z"/>
<path d="M4364 2444 c3 -9 6 -29 6 -45 0 -21 5 -29 18 -29 14 0 17 9 17 45 1
41 -2 45 -23 45 -18 0 -23 -4 -18 -16z"/>
<path d="M4299 2388 c-1 -1 -3 -24 -4 -50 -2 -40 0 -48 15 -48 14 0 17 8 15
47 -1 26 -7 49 -13 51 -7 2 -13 2 -13 0z"/>
<path d="M4449 2388 c0 -2 -2 -24 -4 -50 -2 -44 -1 -48 20 -48 21 0 23 4 20
48 -2 33 -8 48 -19 50 -9 2 -16 2 -17 0z"/>
<path d="M4595 2381 c-3 -6 -3 -17 2 -23 4 -7 8 -24 8 -38 0 -18 5 -25 19 -25
15 0 19 8 20 45 1 39 -2 45 -21 48 -11 2 -24 -2 -28 -7z"/>
<path d="M4365 2300 c-3 -5 -3 -16 2 -22 4 -7 6 -23 4 -35 -2 -18 3 -23 19
-23 19 0 21 4 15 29 -3 17 -2 32 5 36 5 3 8 11 5 16 -8 12 -42 12 -50 -1z"/>
<path d="M4510 2301 c0 -6 5 -13 11 -17 6 -3 9 -19 5 -35 -5 -24 -2 -29 14
-29 15 0 20 7 20 29 0 17 5 33 10 36 21 13 9 25 -25 25 -19 0 -35 -4 -35 -9z"/>
<path d="M4612 2232 c-9 -6 -10 -19 -5 -46 11 -50 26 -50 34 -1 9 53 1 66 -29
47z"/>
<path d="M4286 2222 c-2 -4 -1 -14 5 -22 5 -8 9 -25 9 -37 0 -13 5 -23 10 -23
6 0 10 13 10 29 0 17 5 33 10 36 6 4 8 11 5 16 -7 11 -42 12 -49 1z"/>
<path d="M4440 2216 c0 -8 4 -17 9 -20 5 -3 7 -15 4 -26 -4 -14 0 -20 11 -20
9 0 16 8 16 18 0 9 3 27 6 40 5 19 2 22 -20 22 -16 0 -26 -6 -26 -14z"/>
<path d="M4371 2150 c-10 -5 -10 -13 -3 -27 7 -12 7 -25 1 -34 -14 -22 -11
-29 15 -29 27 0 42 15 26 25 -6 4 -9 19 -5 35 6 29 -11 45 -34 30z"/>
<path d="M4529 2158 c-1 -2 -2 -24 -3 -50 -1 -42 1 -48 19 -48 18 0 20 6 20
47 -1 37 -5 49 -18 51 -9 2 -18 2 -18 0z"/>
<path d="M3230 2012 c-47 -1 -96 -4 -109 -7 l-23 -6 5 -258 c2 -143 8 -264 12
-271 10 -16 529 -7 550 10 20 17 15 518 -6 531 -13 8 -185 9 -429 1z m34 -38
c18 -7 21 -35 5 -51 -8 -8 -5 -13 10 -18 31 -10 42 2 29 31 -16 34 2 45 67 42
48 -3 50 -4 50 -33 0 -30 12 -48 27 -39 4 3 8 15 8 28 0 34 19 46 77 46 49 0
53 -2 59 -27 4 -16 15 -36 26 -46 22 -21 11 -52 -23 -62 -14 -5 -18 -12 -13
-23 3 -10 7 -25 9 -36 1 -10 9 -24 18 -31 23 -17 22 -51 -3 -58 -16 -4 -19
-12 -16 -47 2 -26 10 -46 20 -52 9 -5 16 -20 16 -33 0 -20 -7 -25 -35 -31 -19
-3 -35 -10 -35 -15 0 -18 -16 -8 -18 11 -1 11 -2 26 -3 33 -1 6 0 19 2 27 3 9
-5 16 -18 18 -24 4 -34 -23 -12 -30 9 -3 8 -11 -2 -28 -7 -14 -12 -28 -11 -32
3 -12 -16 -10 -23 2 -3 6 -17 10 -31 10 -13 0 -24 -4 -24 -10 0 -5 -8 -10 -17
-10 -13 0 -19 9 -20 34 -2 19 2 38 7 41 20 12 9 25 -20 25 -31 0 -37 -9 -19
-27 6 -6 8 -21 4 -33 -6 -19 -12 -21 -41 -17 -26 4 -39 1 -53 -14 -18 -20 -19
-20 -23 15 -2 20 0 42 4 50 11 19 -7 29 -38 22 -21 -6 -22 -9 -12 -26 10 -15
9 -24 -2 -45 l-14 -26 -14 26 c-7 15 -10 34 -6 43 4 9 6 22 4 27 -8 26 -5 352
3 363 10 12 74 17 101 6z"/>
<path d="M3187 1913 c-4 -3 0 -15 9 -25 13 -14 14 -21 5 -32 -17 -21 -3 -39
25 -33 30 5 52 -11 56 -41 2 -12 8 -21 13 -20 6 2 9 13 7 25 -1 12 2 24 8 28
22 13 8 25 -29 25 -43 0 -55 15 -45 56 5 20 3 24 -18 24 -14 0 -28 -3 -31 -7z"/>
<path d="M3347 1914 c-3 -4 -2 -15 4 -26 8 -15 7 -24 -6 -38 -20 -22 -5 -35
31 -26 21 6 23 9 14 26 -7 14 -8 26 0 39 5 11 10 22 10 25 0 8 -45 8 -53 0z"/>
<path d="M3500 1914 c0 -3 5 -14 10 -25 7 -13 7 -25 1 -38 -8 -14 -7 -20 3
-24 21 -8 26 2 26 50 0 36 -3 43 -20 43 -11 0 -20 -3 -20 -6z"/>
<path d="M3428 1843 c-21 -5 -22 -12 -3 -36 7 -11 11 -25 8 -33 -3 -8 1 -14
11 -14 10 0 16 9 16 24 0 14 5 28 10 31 11 7 -6 36 -19 34 -3 -1 -14 -3 -23
-6z"/>
<path d="M3213 1763 c-7 -3 -13 -20 -13 -39 0 -26 4 -34 18 -34 13 0 17 8 17
34 0 39 -4 45 -22 39z"/>
<path d="M3345 1760 c-4 -6 -2 -17 4 -23 5 -7 8 -23 4 -35 -4 -18 -1 -22 16
-22 18 0 20 5 18 42 -3 43 -26 64 -42 38z"/>
<path d="M3515 1762 c-6 -4 -10 -23 -9 -42 1 -27 5 -35 19 -35 14 0 18 8 19
39 1 39 -9 52 -29 38z"/>
<path d="M3276 1688 c-13 -8 -15 -13 -5 -24 6 -8 8 -25 5 -40 -6 -21 -4 -25
11 -22 12 2 17 11 15 25 -2 12 2 24 8 28 30 18 -2 51 -34 33z"/>
<path d="M3425 1681 c-3 -5 -1 -12 5 -16 5 -3 7 -20 3 -36 -5 -27 -3 -31 13
-27 14 2 18 10 16 30 -2 14 2 29 7 33 6 3 11 10 11 16 0 12 -47 12 -55 0z"/>
<path d="M2130 2000 l-75 -5 0 -270 0 -270 270 3 c171 1 273 6 280 13 13 13 8
510 -6 524 -11 11 -334 14 -469 5z m210 -54 c0 -33 -24 -44 -78 -37 -30 4 -57
13 -61 20 -6 9 -11 8 -20 -3 -17 -21 -5 -36 28 -36 34 0 55 -22 47 -48 -7 -22
13 -35 34 -22 11 7 11 11 0 25 -12 15 -11 19 10 36 29 22 45 23 89 8 17 -6 39
-8 49 -4 9 5 34 9 55 11 47 3 55 9 39 35 -10 16 -10 20 2 25 30 11 41 -2 42
-52 1 -27 -2 -57 -8 -67 -5 -11 -5 -24 1 -34 5 -10 6 -24 1 -33 -5 -9 -5 -22
0 -29 4 -8 4 -27 -1 -44 -5 -20 -5 -35 2 -43 6 -8 7 -23 3 -36 -4 -13 -8 -39
-8 -58 -1 -21 -6 -35 -13 -34 -7 1 -33 2 -57 3 -75 2 -68 61 7 61 26 0 29 2
23 26 -4 15 -2 32 5 41 17 20 -5 34 -41 26 -32 -6 -60 21 -42 39 20 20 14 40
-10 36 -17 -2 -23 -10 -24 -28 -2 -49 -4 -51 -31 -49 -56 4 -64 1 -51 -20 9
-15 9 -25 0 -45 -11 -24 -10 -26 14 -26 22 0 26 4 22 24 -7 37 5 48 60 52 57
4 78 -11 67 -47 -6 -18 -13 -20 -39 -16 -42 7 -65 -6 -48 -26 25 -30 4 -47
-59 -47 -64 0 -83 16 -58 46 18 22 -4 34 -49 27 -33 -6 -35 -5 -30 18 3 13 9
32 13 42 6 14 2 17 -29 17 -20 0 -36 -4 -36 -10 0 -5 5 -10 11 -10 6 0 9 -15
7 -37 -3 -37 -2 -38 30 -39 41 -1 56 -15 47 -44 -5 -16 -12 -20 -28 -16 -12 3
-35 6 -52 6 -42 0 -64 15 -47 32 18 18 15 38 -8 38 -12 0 -22 9 -26 24 -8 33
2 46 33 46 21 0 24 2 13 15 -7 8 -20 15 -29 15 -12 0 -10 5 9 20 l25 19 -28
10 c-19 8 -27 17 -27 35 0 31 30 42 67 24 22 -11 27 -19 25 -41 -3 -22 1 -27
17 -27 24 0 25 3 9 30 -10 15 -10 22 0 32 21 21 13 28 -29 26 -31 -2 -44 2
-53 15 -9 15 -7 21 14 37 l24 18 -34 9 c-26 7 -36 15 -38 33 -4 22 -2 23 56
18 32 -3 64 -3 70 1 18 11 122 0 122 -13z m153 7 c4 -3 0 -15 -10 -25 -31 -35
-141 -15 -118 22 7 11 117 14 128 3z m-35 -460 c-10 -2 -28 -2 -40 0 -13 2 -5
4 17 4 22 1 32 -1 23 -4z"/>
<path d="M2400 1845 c-7 -9 -29 -15 -51 -15 -41 0 -49 -9 -24 -30 9 -7 13 -21
10 -31 -7 -22 15 -35 41 -25 14 5 13 9 -7 25 l-23 18 32 17 c17 9 40 16 52 16
23 0 26 10 8 28 -16 16 -23 15 -38 -3z"/>
<path d="M2485 1830 c-3 -5 -2 -18 4 -28 6 -11 6 -24 0 -34 -7 -13 -4 -18 11
-23 28 -9 42 2 31 23 -5 10 -7 30 -4 45 4 22 2 27 -15 27 -12 0 -24 -4 -27
-10z"/>
<path d="M2254 1746 c-3 -8 -3 -20 1 -26 4 -6 1 -18 -6 -26 -10 -13 -10 -17 2
-25 29 -19 44 -6 44 41 0 35 -4 45 -18 48 -9 2 -20 -3 -23 -12z"/>
<path d="M92 1992 l-92 -3 0 -61 c0 -59 1 -60 25 -56 33 7 50 -14 36 -41 -13
-23 -2 -33 32 -31 46 4 63 -11 51 -45 -7 -17 -109 -22 -119 -5 -9 15 -25 12
-25 -5 0 -9 9 -15 25 -15 25 0 51 -32 40 -50 -3 -6 -19 -10 -36 -10 -25 0 -29
-4 -29 -26 0 -22 3 -24 14 -15 18 15 107 24 125 13 8 -6 11 -17 6 -31 -5 -17
-15 -21 -48 -22 -42 -1 -47 -1 -79 8 -12 4 -18 0 -18 -11 0 -10 9 -16 24 -16
13 0 29 -6 35 -14 18 -22 2 -46 -30 -46 -26 0 -29 -3 -29 -35 l0 -35 230 0
230 0 0 -244 c0 -134 3 -251 6 -260 5 -14 39 -16 280 -16 250 0 274 1 282 18
4 9 6 134 3 277 l-6 260 -255 3 c-188 2 -256 6 -262 15 -4 6 -8 120 -8 251 1
131 -2 242 -6 245 -6 6 -241 8 -402 3z m54 -57 c4 -8 1 -22 -6 -30 -17 -21 -6
-29 35 -27 37 3 48 -8 49 -47 1 -22 6 -27 33 -29 34 -3 62 -28 47 -41 -5 -5
-30 -11 -56 -14 -34 -5 -49 -3 -59 9 -9 11 -9 18 -1 26 25 25 13 38 -33 38
-48 0 -69 20 -46 43 23 23 12 37 -33 37 -51 0 -78 22 -49 39 29 17 113 14 119
-4z m159 5 c4 -7 12 -7 25 0 10 5 43 10 74 10 l55 0 -3 -57 c-1 -32 -5 -64
-10 -71 -4 -7 -3 -18 2 -25 12 -16 10 -119 -3 -124 -5 -1 -17 2 -25 7 -13 8
-13 13 -2 31 17 26 3 39 -43 39 -72 1 -68 42 5 54 42 7 48 14 28 34 -9 9 -9
15 0 24 22 22 13 38 -19 38 -17 0 -39 5 -50 11 -15 7 -24 7 -34 -1 -7 -6 -37
-10 -67 -8 -46 3 -53 6 -56 26 -3 21 0 22 57 22 33 0 63 -5 66 -10z m68 -79
c20 -20 -13 -41 -64 -41 -41 0 -49 3 -49 18 0 31 22 44 64 39 21 -3 43 -10 49
-16z m-149 -153 c16 -26 -6 -43 -52 -40 -52 4 -72 11 -72 27 0 36 103 46 124
13z m144 13 c8 -1 12 -10 10 -23 -3 -20 -9 -23 -53 -24 -51 -1 -79 11 -69 28
9 15 46 26 74 23 14 -2 31 -4 38 -4z m90 -90 c2 -12 -1 -28 -7 -34 -6 -8 -6
-18 -1 -27 22 -34 -5 -65 -35 -40 -11 9 -12 16 -2 31 18 29 -4 46 -39 30 -25
-11 -25 -13 -9 -25 9 -7 15 -21 13 -32 -3 -16 -12 -19 -56 -19 -64 0 -83 16
-56 46 13 15 25 18 46 14 30 -7 35 3 18 35 -13 23 -3 30 52 35 22 3 43 7 46
10 11 11 27 -2 30 -24z m-164 6 c17 -13 17 -14 1 -30 -9 -9 -32 -17 -51 -17
-38 0 -39 -2 -22 -29 19 -31 -5 -51 -62 -51 -58 0 -86 23 -55 46 10 8 26 14
34 14 23 1 48 23 43 38 -2 7 -1 19 2 27 7 19 85 20 110 2z m556 -236 c0 -29
-14 -36 -68 -36 -35 0 -56 5 -62 14 -7 12 -11 12 -23 2 -20 -16 -114 -24 -123
-10 -3 6 -18 7 -34 4 -28 -6 -46 11 -32 31 10 15 171 17 188 3 10 -8 18 -8 27
-1 13 11 92 20 115 13 6 -2 12 -11 12 -20z m135 18 c4 -5 4 -21 1 -34 -5 -19
-12 -23 -43 -22 -44 0 -63 12 -63 37 0 10 6 21 13 23 23 10 86 7 92 -4z m-4
-122 c-18 -18 -33 11 -19 37 11 20 11 20 21 -2 7 -16 7 -26 -2 -35z m-365 28
c10 -25 -19 -43 -66 -41 -44 2 -57 14 -46 41 8 21 104 21 112 0z m160 4 c13
-22 -24 -43 -73 -40 -53 3 -69 12 -60 35 5 12 21 16 66 16 33 0 63 -5 67 -11z
m160 -4 c11 -28 -13 -42 -66 -40 -55 2 -76 15 -67 39 9 22 125 23 133 1z
m-242 -76 c21 -19 -15 -37 -72 -36 -47 2 -57 5 -60 21 -2 10 1 22 8 26 14 9
112 1 124 -11z m291 -9 c0 -17 -5 -25 -17 -24 -10 0 -32 1 -48 2 -34 2 -51 29
-29 43 8 5 32 8 54 7 35 -3 40 -6 40 -28z m-447 -3 c2 -10 -3 -17 -12 -17 -10
0 -16 9 -16 21 0 24 23 21 28 -4z m317 13 c13 -20 -16 -39 -58 -38 -61 1 -77
7 -77 29 0 17 7 19 64 19 36 0 68 -5 71 -10z m-245 -75 c15 -9 12 -32 -6 -39
-9 -3 -33 -6 -54 -6 -40 0 -60 21 -40 45 10 12 80 12 100 0z m162 -3 c19 -19
-10 -42 -53 -42 -43 0 -59 -14 -32 -29 12 -6 35 -6 64 1 63 14 101 4 97 -25
-2 -18 -11 -23 -53 -28 -37 -5 -54 -2 -67 9 -16 14 -20 13 -37 -2 -15 -14 -23
-15 -44 -5 -21 10 -30 9 -43 -2 -14 -12 -14 -14 1 -25 32 -23 10 -44 -44 -44
-27 0 -53 5 -56 10 -11 18 15 40 46 40 30 0 38 17 17 38 -17 17 6 40 48 48 29
5 34 10 34 34 0 16 6 30 13 33 21 8 98 0 109 -11z m155 4 c11 -11 -6 -34 -29
-38 -67 -13 -125 16 -82 40 16 9 102 7 111 -2z m63 -11 c0 -8 -7 -15 -15 -15
-8 0 -15 7 -15 15 0 8 7 15 15 15 8 0 15 -7 15 -15z m-3 -88 c-7 -20 -78 -28
-96 -12 -22 22 -6 43 36 47 42 4 69 -12 60 -35z m-444 11 c6 -19 -3 -38 -18
-38 -18 0 -28 17 -21 35 7 18 33 20 39 3z m225 -72 c26 -16 -8 -36 -63 -36
-59 0 -90 20 -58 39 20 11 101 9 121 -3z m161 1 c18 -22 -8 -37 -66 -37 -40 0
-55 4 -60 16 -3 9 0 20 8 25 22 14 105 11 118 -4z m57 -2 c3 -8 3 -19 -1 -25
-10 -16 -35 7 -28 26 7 18 22 18 29 -1z"/>
<path d="M0 1800 c0 -23 10 -26 28 -8 18 18 15 28 -8 28 -13 0 -20 -7 -20 -20z"/>
<path d="M5230 1506 c-6 -6 -10 -113 -10 -257 l0 -246 -46 -7 c-26 -3 -134 -6
-240 -6 l-194 0 -1 148 c-1 81 -2 193 -3 250 -1 78 -5 105 -15 112 -17 10
-533 6 -550 -4 -13 -8 -9 -516 4 -536 5 -8 85 -11 255 -9 136 1 253 -2 259 -5
8 -5 11 -83 11 -249 0 -135 4 -249 10 -257 8 -13 48 -15 272 -13 235 2 264 4
275 19 9 13 12 79 11 261 0 134 1 245 3 248 3 2 118 5 256 7 138 2 255 7 259
11 12 12 5 520 -7 532 -13 13 -536 14 -549 1z m158 -49 c6 -7 10 -26 9 -42 -2
-26 1 -29 32 -31 39 -2 54 -20 39 -47 -7 -14 -17 -18 -38 -13 -30 5 -61 -16
-41 -28 6 -4 8 -20 4 -36 -5 -28 -3 -30 23 -30 34 0 58 -14 60 -32 0 -7 2 -21
2 -30 3 -33 22 -18 22 16 0 19 5 38 11 42 19 11 -11 23 -46 17 -27 -4 -33 -2
-38 18 -8 30 4 42 45 43 31 1 33 3 31 33 -2 17 2 35 7 38 22 14 8 24 -37 27
-44 3 -48 5 -51 30 -4 32 18 41 89 36 43 -3 44 -4 47 -40 4 -49 20 -49 24 -1
l3 37 53 4 c60 4 82 -8 82 -44 0 -13 5 -24 10 -24 6 0 10 11 10 25 0 14 3 25
8 25 4 0 5 -27 4 -60 -3 -52 -7 -61 -26 -66 -18 -4 -21 -12 -21 -45 0 -37 2
-40 22 -36 20 4 23 0 23 -30 0 -27 -5 -35 -27 -44 -20 -7 -23 -13 -15 -21 7
-7 12 -22 12 -35 0 -12 7 -26 16 -31 10 -6 14 -19 12 -38 -3 -27 -6 -29 -38
-26 -46 5 -58 17 -42 42 10 17 10 21 -3 26 -29 11 -45 -3 -39 -34 5 -25 2 -30
-18 -35 -67 -18 -116 1 -104 41 4 13 1 22 -8 25 -18 7 -28 -6 -20 -26 9 -25
-24 -47 -70 -47 -52 0 -76 21 -58 50 9 14 8 19 -4 24 -22 9 -37 -3 -31 -25 7
-25 -18 -58 -33 -43 -17 17 -20 106 -3 125 12 14 11 18 -2 29 -18 15 -19 32
-3 48 13 13 52 -3 43 -19 -10 -15 5 -49 22 -49 12 0 14 7 10 29 -3 16 -1 33 6
40 17 17 -9 30 -49 24 -26 -4 -33 -2 -39 16 -8 27 11 53 39 50 38 -3 41 1 43
46 1 41 0 45 -23 45 -28 0 -29 -3 -12 -30 10 -16 10 -23 -4 -36 -9 -9 -24 -14
-32 -11 -18 7 -21 38 -5 54 8 8 8 17 0 31 -19 36 -13 50 22 55 65 8 85 7 95
-6z m-1106 -8 c15 -8 19 -17 15 -39 -6 -25 -3 -29 27 -34 44 -8 61 -28 47 -54
-12 -23 4 -34 36 -26 25 7 58 -19 50 -39 -5 -13 -19 -16 -64 -14 l-58 2 2 31
c3 34 -15 49 -46 39 -10 -3 -26 1 -36 9 -19 14 -19 15 -2 33 20 22 14 33 -19
33 -27 0 -41 34 -24 55 15 18 43 19 72 4z m173 -26 c0 -37 8 -48 31 -39 13 5
15 9 6 18 -20 20 -14 47 11 54 13 3 41 4 63 2 34 -3 39 -6 42 -30 3 -26 1 -28
-36 -28 -47 0 -53 -5 -42 -34 12 -33 1 -42 -53 -48 -57 -7 -84 11 -67 43 15
28 4 39 -40 39 -34 0 -50 12 -50 36 0 12 49 23 90 21 43 -2 45 -3 45 -34z
m230 -33 l0 -65 -56 -3 c-47 -2 -58 0 -63 15 -9 22 18 43 54 43 34 0 42 8 28
30 -15 23 -3 52 19 48 15 -3 18 -14 18 -68z m-407 -105 c24 -7 29 -24 11 -42
-12 -12 4 -19 61 -25 25 -3 29 -18 19 -58 -3 -11 6 -16 38 -18 44 -3 62 -24
42 -49 -8 -9 -28 -13 -63 -11 l-51 3 1 39 c1 38 1 38 -32 33 -38 -6 -56 13
-51 55 1 17 -4 24 -21 26 -13 2 -26 10 -29 18 -7 19 16 45 36 40 9 -2 26 -7
39 -11z m331 1 c9 -11 10 -20 1 -36 -11 -21 1 -34 31 -29 49 6 50 3 48 -83 -1
-46 -1 -87 1 -93 7 -29 -2 -35 -59 -35 -46 0 -60 4 -65 17 -4 9 -2 21 4 27 17
17 11 26 -15 26 -22 0 -25 -4 -23 -32 l3 -33 -62 -3 c-61 -3 -63 -2 -63 22 0
21 5 25 38 28 34 3 37 5 35 32 -1 17 3 36 9 44 16 18 -7 32 -42 25 -17 -3 -31
1 -40 12 -13 15 -12 20 9 37 14 10 31 16 38 13 8 -3 27 -5 43 -5 32 0 45 -22
30 -51 -12 -21 -10 -22 45 -23 28 -1 30 -4 30 -39 0 -27 5 -39 17 -43 29 -9
38 4 26 36 -7 22 -7 34 1 44 15 18 -2 25 -45 19 -25 -4 -32 -1 -36 15 -3 10
-1 27 4 37 13 22 -6 36 -42 28 -17 -3 -31 1 -40 12 -12 15 -12 19 5 31 25 18
99 18 114 0z m79 -14 c2 -13 -3 -25 -13 -28 -23 -9 -38 10 -30 36 9 27 39 22
43 -8z m-394 -148 c3 -8 3 -26 0 -40 -6 -22 -4 -24 34 -24 32 0 42 -4 47 -20
10 -31 -2 -40 -54 -40 -56 0 -78 17 -62 48 12 23 5 32 -25 32 -21 0 -39 33
-28 52 10 15 81 9 88 -8z m1466 -3 c0 -6 -4 -13 -10 -16 -5 -3 -10 1 -10 9 0
9 5 16 10 16 6 0 10 -4 10 -9z m-915 -180 c3 -5 1 -13 -5 -16 -8 -5 -8 -11 0
-20 8 -10 8 -19 0 -35 -15 -28 -3 -43 30 -36 33 6 64 -21 50 -44 -12 -20 -3
-30 29 -30 36 0 59 -25 44 -48 -7 -11 -21 -16 -41 -14 -45 5 -55 -5 -36 -33
23 -35 10 -45 -57 -45 l-61 0 4 37 c3 35 1 38 -27 43 -24 4 -30 10 -30 30 0
21 5 26 31 28 29 3 30 5 28 45 -2 38 -5 43 -30 47 -23 4 -29 11 -29 30 0 20 6
26 26 28 17 2 29 11 32 23 5 20 31 26 42 10z m229 -6 c3 -8 12 -15 21 -15 9 0
18 7 21 15 4 11 20 15 53 14 40 -1 42 -2 16 -8 -27 -6 -30 -10 -27 -40 1 -18
-2 -39 -8 -46 -8 -9 -6 -14 5 -19 25 -9 47 5 41 26 -5 22 2 48 14 48 14 0 20
-31 11 -48 -6 -11 -6 -24 0 -35 15 -26 -6 -58 -34 -52 -32 8 -54 -9 -38 -29 7
-8 11 -25 9 -38 -2 -17 2 -23 17 -23 13 0 21 7 21 20 1 11 2 28 3 38 1 9 5 17
10 17 14 0 22 -30 12 -48 -5 -9 -5 -25 2 -39 14 -31 -6 -53 -49 -53 -34 0 -42
-8 -25 -25 5 -6 11 -23 13 -40 2 -24 8 -30 27 -30 15 0 28 -9 34 -23 14 -32
-1 -39 -60 -32 -49 5 -54 13 -38 53 6 14 2 17 -24 17 -34 0 -36 -2 -20 -31 17
-33 -4 -48 -64 -45 -41 1 -53 5 -55 20 -6 28 14 41 58 37 24 -1 40 2 40 8 0 6
-4 11 -9 11 -13 0 -21 27 -15 45 4 10 20 15 45 15 38 0 39 1 39 34 0 19 3 41
6 50 5 13 -1 16 -30 16 -40 0 -41 -2 -24 -29 19 -31 3 -51 -42 -51 -43 0 -45
-2 -30 -30 19 -35 2 -50 -55 -50 -59 0 -70 9 -61 45 5 21 10 23 40 18 34 -5
35 -5 38 33 3 35 6 39 33 42 50 5 57 9 46 30 -14 26 6 50 44 54 28 3 30 5 30
48 0 45 0 45 -35 45 -33 0 -35 2 -36 33 0 40 -15 56 -43 47 -25 -7 -27 -18 -7
-35 11 -8 12 -18 6 -36 -10 -24 -1 -30 38 -25 20 3 42 -19 42 -40 0 -11 -3
-19 -7 -20 -71 -8 -104 -5 -113 10 -5 10 -5 23 1 32 15 24 11 28 -33 31 l-43
3 -1 43 c-2 40 7 54 21 32 10 -16 65 -12 65 5 0 11 12 15 49 15 34 0 51 -4 55
-15z m-305 -141 c-16 -19 -29 -17 -29 4 0 26 11 34 27 21 10 -9 10 -15 2 -25z
m1 -164 c-12 -23 -4 -30 36 -30 24 0 34 -5 39 -21 10 -30 -6 -41 -56 -37 l-44
3 -1 60 c-1 70 4 85 22 60 9 -12 10 -23 4 -35z m455 -69 c-3 -12 -11 -21 -16
-21 -10 0 -12 43 -2 54 12 12 25 -11 18 -33z m-449 -80 c-11 -18 -36 -13 -36
7 0 10 3 22 7 26 10 10 37 -20 29 -33z m148 22 c10 -24 -17 -41 -57 -38 -18 2
-40 3 -49 4 -12 1 -18 9 -18 26 0 24 3 25 59 25 46 0 60 -4 65 -17z"/>
<path d="M5634 1373 c8 -40 -6 -57 -41 -50 -39 8 -58 -5 -45 -29 7 -13 7 -26
1 -37 -8 -13 -6 -19 5 -23 23 -9 34 3 28 32 -6 30 10 44 51 44 23 0 27 4 27
29 0 16 3 36 6 45 4 12 0 16 -16 16 -18 0 -21 -4 -16 -27z"/>
<path d="M5631 1241 c-11 -7 -12 -13 -3 -23 6 -8 9 -24 5 -36 -4 -18 -1 -22
17 -22 16 0 20 4 16 16 -3 9 -6 29 -6 45 0 31 -6 34 -29 20z"/>
<path d="M5385 1160 c-4 -6 -2 -17 5 -24 6 -8 8 -26 4 -41 -6 -23 -4 -26 12
-23 13 2 19 12 20 33 0 17 2 37 5 45 5 17 -36 27 -46 10z"/>
<path d="M5540 1160 c-12 -8 -12 -10 4 -16 14 -5 17 -14 12 -35 -5 -24 -2 -29
14 -29 16 0 19 5 14 24 -3 13 -1 27 5 30 6 4 11 14 11 22 0 16 -37 19 -60 4z"/>
<path d="M4832 773 c-10 -4 -9 -9 4 -25 15 -16 16 -23 6 -39 -10 -16 -10 -20
3 -25 28 -11 40 3 40 47 0 36 -4 44 -20 46 -11 1 -26 -1 -33 -4z"/>
<path d="M2655 970 l-70 -5 -3 -269 c-2 -194 1 -272 9 -283 10 -11 58 -14 260
-12 136 0 253 -2 258 -6 7 -4 11 -75 11 -201 0 -173 2 -194 16 -194 9 0 23 8
29 17 13 17 14 17 32 0 24 -21 30 -21 49 -2 20 19 88 19 108 0 18 -19 30 -19
46 -1 6 8 26 16 43 18 27 2 32 7 32 28 0 39 13 50 59 50 50 0 67 -15 55 -47
-7 -18 -13 -21 -48 -16 -44 6 -53 -6 -27 -33 19 -18 30 -18 46 1 17 20 80 20
80 0 0 -8 9 -15 20 -15 19 0 20 7 20 225 l0 225 -260 0 -260 0 -1 108 c-4 364
-6 404 -20 413 -14 10 -349 9 -484 -1z m62 -50 c3 -11 14 -20 24 -20 11 0 28
9 39 20 13 13 33 20 59 20 30 0 40 -4 44 -20 7 -27 43 -26 50 1 5 17 12 20 54
17 26 -2 46 -7 45 -12 -4 -10 17 -26 36 -26 6 0 12 7 12 15 0 30 18 14 25 -21
8 -44 -2 -56 -49 -57 -20 -1 -36 -2 -36 -3 0 -1 6 -14 14 -29 8 -15 12 -34 9
-41 -3 -9 2 -14 16 -14 17 0 21 6 21 30 0 17 5 30 10 30 16 0 24 -30 12 -42
-8 -8 -8 -17 -1 -30 18 -33 2 -58 -37 -58 -33 0 -45 -12 -23 -26 6 -3 9 -19 7
-35 -4 -23 -1 -29 14 -29 14 0 18 8 18 35 0 23 5 35 14 35 16 0 29 -27 20 -42
-11 -17 -12 -112 -1 -126 6 -8 5 -17 -3 -27 -18 -22 -33 -7 -26 26 5 28 4 29
-35 29 -44 0 -60 20 -41 51 17 27 15 29 -16 29 -35 0 -45 -9 -31 -26 6 -7 8
-22 4 -34 -5 -16 -15 -20 -54 -20 -57 0 -78 17 -62 49 13 24 0 35 -30 26 -14
-5 -18 -12 -14 -23 8 -19 9 -31 4 -52 -3 -11 6 -16 33 -18 27 -2 39 -9 43 -23
4 -11 4 -23 1 -27 -10 -10 -89 -11 -107 -1 -19 10 -15 49 5 49 6 0 3 5 -7 11
-10 6 -29 8 -42 5 -23 -6 -55 14 -55 34 0 16 37 30 76 30 31 0 35 2 24 14 -6
8 -10 30 -8 48 3 34 -15 47 -49 34 -14 -6 -14 -8 2 -25 26 -30 7 -55 -45 -56
-48 -1 -66 19 -51 58 5 13 6 29 3 34 -4 6 -7 53 -7 105 0 76 3 93 15 93 11 0
15 -10 14 -32 -2 -31 0 -33 30 -33 35 0 60 -28 46 -51 -5 -7 -25 -14 -46 -16
-44 -2 -49 -7 -39 -30 5 -10 7 -25 6 -35 -2 -20 15 -32 35 -24 11 4 12 10 5
23 -14 27 10 53 49 53 30 0 32 2 27 29 -8 37 8 51 59 51 47 0 66 -16 62 -51
-2 -18 2 -25 20 -27 20 -3 23 0 17 17 -12 40 3 61 43 61 l37 0 1 50 c0 46 -2
51 -20 48 -16 -2 -21 -10 -21 -35 -1 -41 -2 -41 -56 -44 -55 -3 -72 6 -65 35
6 26 -7 51 -23 42 -6 -4 -11 -20 -11 -36 0 -35 -10 -42 -66 -47 -34 -2 -45 1
-53 15 -6 10 -6 24 -1 32 13 22 1 32 -31 25 -21 -5 -29 -3 -29 8 0 21 10 27
48 27 25 0 35 -5 39 -20z m-61 -361 c10 -17 -13 -36 -27 -22 -12 12 -4 33 11
33 5 0 12 -5 16 -11z m382 -58 c8 -1 12 -10 10 -23 -3 -20 -10 -23 -61 -26
-46 -2 -58 0 -64 14 -12 31 25 43 115 35z m-313 -22 c10 -30 -4 -39 -52 -32
-63 8 -52 53 13 53 24 0 34 -5 39 -21z m865 -75 c23 -5 24 -7 7 -18 -25 -19
-21 -34 11 -38 21 -2 27 -8 27 -28 0 -15 -6 -25 -15 -26 -35 -2 -40 -5 -40
-18 0 -8 12 -19 28 -24 15 -6 20 -11 11 -11 -9 -1 -22 -8 -29 -16 -16 -19 -93
-20 -109 -1 -7 8 -9 25 -5 41 7 27 6 27 -30 23 -43 -5 -64 18 -47 51 13 24 5
31 -35 31 -31 0 -53 15 -40 27 3 3 28 8 54 11 53 5 73 -8 52 -33 -11 -13 -7
-15 19 -15 26 0 31 4 31 23 0 13 3 26 6 30 6 5 52 1 104 -9z m-312 -9 c1 -1 0
-9 -3 -16 -6 -17 -90 -18 -107 -1 -21 21 2 31 55 25 29 -3 53 -7 55 -8z m73
-51 c14 -13 16 -21 8 -35 -7 -15 -21 -19 -58 -19 -55 0 -78 17 -58 43 6 9 28
18 47 20 19 2 37 5 39 5 3 1 13 -5 22 -14z m-151 -9 c6 -8 9 -23 5 -35 -7 -21
-3 -23 48 -34 18 -4 27 -13 27 -26 0 -25 -6 -28 -65 -31 l-50 -3 -1 64 c0 36
1 68 3 73 6 11 19 8 33 -8z m222 -72 c21 -19 24 -42 6 -44 -7 -1 -26 -2 -43
-3 -16 -1 -37 -6 -46 -10 -12 -5 -18 -1 -21 18 -7 35 6 44 76 55 5 0 18 -6 28
-16z m-222 -88 c16 -19 3 -57 -18 -53 -18 3 -27 30 -18 54 7 18 20 18 36 -1z
m148 6 c8 -5 12 -17 10 -27 -4 -22 -73 -37 -100 -23 -26 14 -23 47 5 52 39 8
72 7 85 -2z m162 -6 c23 -28 5 -42 -53 -42 -46 0 -56 3 -60 18 -3 11 2 23 11
29 26 15 88 12 102 -5z m130 -9 c0 -27 -3 -30 -42 -40 -21 -5 -30 -2 -38 15
-16 28 4 49 46 49 29 0 34 -3 34 -24z m-377 -66 c20 0 23 -33 5 -47 -7 -4 -33
-8 -58 -8 -35 0 -45 4 -48 18 -7 37 6 50 46 43 20 -3 45 -6 55 -6z m173 -2 c3
-4 4 -18 1 -30 -6 -21 -12 -24 -61 -24 -49 -1 -55 1 -59 23 -3 14 1 27 11 32
18 10 97 9 108 -1z"/>
<path d="M2808 753 c-2 -5 -4 -26 -3 -48 0 -36 3 -40 25 -40 17 0 24 5 21 15
-6 22 -5 43 4 63 6 14 2 17 -18 17 -14 0 -27 -3 -29 -7z"/>
<path d="M2969 753 c0 -4 -2 -21 -2 -38 -2 -28 -5 -30 -43 -33 l-42 -3 3 -47
c3 -47 13 -59 41 -48 12 4 12 9 3 24 -19 30 -4 50 37 54 37 3 37 3 37 48 0 34
-4 46 -16 48 -10 2 -17 0 -18 -5z"/>
<path d="M3504 359 c-3 -6 0 -15 7 -20 11 -7 12 -12 2 -29 -20 -31 -16 -42 15
-38 23 3 27 8 27 35 0 17 3 35 7 39 4 4 5 11 2 15 -8 13 -52 11 -60 -2z"/>
<path d="M1633 962 c-72 -2 -103 -6 -104 -15 -4 -66 4 -534 10 -540 4 -4 129
-6 277 -5 l269 3 3 269 c1 181 -1 273 -8 280 -11 11 -220 14 -447 8z m2 -52
c4 -6 -7 -10 -24 -10 -17 0 -31 5 -31 10 0 6 11 10 24 10 14 0 28 -4 31 -10z
m145 0 c0 -5 -21 -10 -46 -10 -27 0 -43 4 -39 10 3 6 24 10 46 10 21 0 39 -4
39 -10z m160 -4 c0 -16 27 -29 41 -20 5 3 18 2 29 -1 22 -7 26 -35 8 -53 -15
-15 -72 -16 -99 -2 -20 11 -27 50 -9 50 6 0 10 5 10 10 0 6 -16 10 -36 10 -31
0 -35 -2 -24 -14 6 -8 10 -25 8 -38 -3 -21 -8 -23 -56 -23 -47 0 -53 2 -59 23
-7 29 9 42 55 42 22 0 32 5 32 15 0 11 12 15 50 15 36 0 50 -4 50 -14z m100 4
c0 -5 -11 -10 -25 -10 -14 0 -25 5 -25 10 0 6 11 10 25 10 14 0 25 -4 25 -10z
m-320 -37 c2 -2 -1 -17 -7 -33 -10 -28 -9 -31 12 -36 13 -3 28 -3 33 0 5 3 17
-3 26 -13 15 -16 15 -20 1 -31 -8 -7 -35 -13 -60 -14 -36 -1 -46 2 -51 17 -3
10 0 25 7 33 10 13 10 17 -2 25 -8 5 -23 7 -33 5 -40 -10 -80 42 -43 58 13 5
109 -3 117 -11z m-85 -99 c0 -27 -58 -27 -63 0 -2 10 2 22 9 26 19 12 54 -5
54 -26z m308 27 c11 -1 8 -39 -4 -47 -7 -4 -32 -7 -57 -8 -33 -1 -48 4 -56 17
-17 27 18 49 69 43 22 -2 43 -5 48 -5z m102 -21 c0 -16 -8 -29 -23 -36 -20
-10 -21 -12 -6 -18 12 -4 15 -15 12 -36 -3 -18 1 -35 9 -41 20 -17 16 -47 -7
-54 -30 -9 -50 12 -47 49 2 29 0 31 -32 31 -21 0 -38 6 -44 17 -14 22 -6 30
40 37 34 6 38 9 35 33 -2 17 3 30 15 37 28 16 48 9 48 -19z m-341 -56 c18 -7
22 -39 6 -49 -21 -13 -8 -25 28 -25 46 0 65 -15 51 -42 -7 -13 -21 -18 -49
-18 -28 0 -40 -4 -40 -14 0 -8 5 -18 10 -21 6 -3 10 -13 10 -21 0 -11 -15 -14
-65 -14 -52 0 -65 3 -65 15 0 9 12 20 28 26 50 20 55 25 57 50 1 13 4 31 6 39
3 11 -6 16 -33 18 -74 6 -72 62 2 62 21 0 45 -3 54 -6z m159 -38 l-3 -39 35 6
c41 7 60 -11 51 -49 -6 -21 -11 -25 -29 -19 -12 4 -37 9 -55 12 -36 6 -52 27
-34 45 18 18 -5 38 -37 32 -30 -6 -46 12 -34 41 4 12 18 15 57 13 l51 -3 -2
-39z m-225 -60 c4 -20 -13 -36 -41 -36 -20 0 -32 23 -23 46 8 22 60 15 64 -10z
m387 -87 c0 -21 -4 -24 -34 -21 -55 4 -66 -3 -48 -32 21 -32 5 -46 -54 -46
-50 0 -86 23 -59 40 24 15 3 40 -34 40 -19 0 -38 5 -41 10 -13 21 17 40 60 40
51 0 70 -17 49 -44 -18 -25 -9 -37 24 -30 35 9 35 9 21 33 -16 24 -10 31 33
40 50 11 83 -1 83 -30z m-387 -78 c-4 -22 -56 -27 -64 -7 -4 9 -1 23 6 31 15
18 62 -1 58 -24z m411 21 c13 -24 -4 -42 -36 -42 -28 0 -40 24 -23 45 17 21
47 19 59 -3z m-274 -2 c42 -16 15 -40 -46 -40 -53 0 -72 16 -44 37 22 16 54
17 90 3z"/>
<path d="M3904 829 c-3 -6 -20 -19 -36 -29 -29 -18 -38 -29 -73 -97 -16 -30
-15 -33 2 -51 10 -11 27 -31 38 -45 11 -14 28 -26 38 -27 11 0 21 -9 24 -20 3
-12 11 -19 17 -17 6 2 19 0 28 -4 18 -9 37 4 64 46 21 32 8 146 -17 152 -21 6
-43 37 -53 76 -7 28 -20 35 -32 16z"/>
<path d="M740 430 c-146 -3 -266 -7 -267 -8 -2 -1 -3 -96 -3 -212 l0 -210 233
0 c249 1 276 6 263 48 -8 23 11 39 26 24 6 -6 6 -16 0 -28 -13 -27 -4 -44 24
-44 l24 0 2 188 c0 103 0 198 -1 212 -2 23 -19 43 -31 38 -3 -1 -124 -5 -270
-8z m-125 -50 c12 -19 -14 -37 -50 -36 -42 2 -68 22 -45 36 20 13 87 13 95 0z
m161 -1 c11 -19 -13 -31 -63 -33 -43 -1 -48 1 -51 22 -3 20 0 22 52 22 30 0
58 -5 62 -11z m160 0 c11 -18 -9 -29 -63 -33 -40 -4 -53 -1 -57 11 -3 8 -4 19
0 24 8 13 111 11 120 -2z m54 -14 c0 -8 -4 -15 -9 -15 -13 0 -22 16 -14 24 11
11 23 6 23 -9z m-304 -49 c15 -12 17 -18 8 -33 -16 -27 -111 -27 -120 -1 -3
10 0 25 6 33 16 19 80 19 106 1z m160 0 c17 -13 17 -16 4 -30 -16 -16 -88 -24
-108 -12 -23 14 -14 44 16 49 54 8 68 7 88 -7z m137 5 c5 -1 7 -13 5 -28 -2
-23 -8 -27 -33 -28 -28 0 -30 -3 -27 -32 4 -38 -6 -45 -64 -47 -39 -2 -45 1
-51 22 -7 29 9 42 55 42 34 0 39 9 22 41 -9 16 -7 21 12 28 13 5 34 7 48 6 14
-2 29 -4 33 -4z m-445 -26 c-4 -33 -22 -33 -26 0 -2 18 1 25 13 25 12 0 15 -7
13 -25z m66 -51 c19 -7 21 -38 4 -51 -7 -6 -32 -8 -55 -5 -36 3 -43 8 -43 26
0 13 3 26 7 29 8 9 66 9 87 1z m165 -8 c17 -21 2 -46 -28 -46 -14 0 -36 -3
-48 -6 -27 -7 -51 29 -34 50 15 18 96 19 110 2z m221 -16 c0 -11 -4 -20 -9
-20 -14 0 -23 18 -16 30 10 17 25 11 25 -10z m1 -62 c26 -41 -57 -72 -94 -35
-17 17 -17 20 -3 36 17 18 85 17 97 -1z m-293 -16 c4 -25 -2 -28 -70 -37 -48
-6 -48 -6 -48 23 0 39 7 43 65 40 43 -3 50 -6 53 -26z m152 13 c17 -21 -4 -45
-39 -45 -32 0 -62 -19 -43 -27 19 -7 14 -41 -8 -53 -11 -6 -31 -8 -45 -4 -14
3 -31 1 -39 -5 -11 -9 -15 -6 -20 15 -9 36 9 54 55 54 37 0 38 1 27 25 -8 19
-8 28 2 40 17 20 93 20 110 0z m-310 -30 c0 -30 3 -35 23 -35 35 0 59 -22 55
-51 -2 -15 -9 -23 -18 -20 -8 3 -31 5 -50 5 -38 1 -49 20 -31 55 7 13 8 22 1
26 -16 10 -12 55 5 55 10 0 15 -11 15 -35z m380 -45 c16 -8 17 -14 7 -39 -9
-25 -14 -28 -29 -20 -11 6 -29 9 -41 7 -29 -3 -47 9 -47 32 0 10 6 21 13 23
21 9 78 7 97 -3z"/>
</g>
</svg>
