<?xml version="1.0" standalone="no"?>
<!DOCTYPE svg PUBLIC "-//W3C//DTD SVG 20010904//EN"
 "http://www.w3.org/TR/2001/REC-SVG-20010904/DTD/svg10.dtd">
<svg version="1.0" xmlns="http://www.w3.org/2000/svg"
 width="1240.000000pt" height="836.000000pt" viewBox="0 0 1240.000000 836.000000"
 preserveAspectRatio="xMidYMid meet">
<metadata>
Created by potrace 1.16, written by Peter Selinger 2001-2019
</metadata>
<g transform="translate(0.000000,836.000000) scale(0.100000,-0.100000)"
fill="#000000" stroke="none">
<path d="M11241 4180 l-2 -4180 59 0 59 0 7 718 c4 394 9 2275 12 4180 l5
3462 -69 0 -68 0 -3 -4180z"/>
<path d="M8867 7744 c-1 -1 -1925 -4 -4276 -7 -2680 -4 -4277 -9 -4283 -15
-11 -11 -15 -173 -22 -827 -3 -247 -2 -456 2 -462 7 -10 397 -13 1878 -15
l1869 -3 0 -940 0 -940 935 0 935 0 0 -575 0 -575 -262 -3 c-145 -1 -264 -1
-265 0 -1 2 -5 140 -8 308 l-5 305 -929 2 c-751 2 -931 4 -938 15 -9 13 -1
1808 8 1840 4 13 -3 21 -21 28 -41 16 -3177 14 -3193 -2 -9 -9 -12 -173 -12
-675 l0 -663 48 0 c26 -1 445 -3 931 -5 617 -3 886 -7 891 -15 4 -6 6 -57 5
-113 -1 -56 -2 -310 -3 -564 l-2 -463 -259 0 c-197 0 -262 3 -268 13 -4 6 -9
141 -10 300 -1 158 -5 292 -8 297 -4 6 -243 10 -666 10 l-659 0 0 -32 c-1 -18
-3 -265 -5 -548 -2 -283 -6 -697 -10 -920 -5 -325 -4 -408 7 -422 12 -16 59
-18 667 -18 486 -1 656 2 661 10 4 7 8 141 9 298 1 158 6 290 10 295 4 4 124
6 267 5 l259 -3 -1 -563 c0 -454 -3 -565 -13 -572 -8 -4 -426 -5 -930 -2 -793
4 -918 3 -928 -10 -9 -11 -12 -171 -10 -674 l2 -659 1550 -3 c1008 -1 1553 -6
1559 -12 5 -5 9 -29 7 -52 -1 -23 1 -59 4 -80 7 -37 8 -38 51 -38 l44 0 0 109
c0 83 3 110 14 114 7 3 555 6 1216 6 860 1 1208 5 1217 13 11 8 13 75 11 332
l-3 321 -319 3 c-334 2 -346 1 -345 -42 6 -131 -4 -563 -13 -573 -8 -10 -189
-13 -913 -13 l-903 0 -5 33 c-3 17 -2 428 2 912 l6 880 918 3 917 2 0 -304 c0
-268 2 -305 16 -310 23 -9 632 -7 638 2 2 4 7 289 11 634 6 570 5 627 -10 642
-12 12 -21 13 -35 6 -11 -6 -135 -10 -308 -10 -219 0 -292 -3 -300 -12 -6 -8
-11 -118 -12 -297 0 -188 -4 -289 -12 -298 -8 -11 -187 -13 -939 -13 l-929 0
0 -162 c-1 -384 -11 -1358 -16 -1526 l-6 -182 -1511 2 -1511 3 -8 31 c-4 17
-5 278 0 580 l7 549 931 -4 c586 -2 934 0 937 6 11 18 21 1299 10 1306 -5 3
-164 7 -354 9 l-344 3 -5 -295 c-3 -162 -9 -301 -14 -308 -7 -11 -110 -13
-577 -10 -313 3 -571 7 -574 10 -8 8 -6 573 1 593 5 13 38 15 218 16 154 0
204 3 184 11 l-28 10 0 274 0 274 25 6 c39 10 93 -4 106 -27 12 -23 6 -485 -7
-526 -5 -17 -2 -23 9 -23 9 0 18 12 21 28 6 35 3 579 -4 586 -3 3 -119 6 -258
7 -163 1 -255 5 -259 12 -3 6 -8 122 -9 258 -3 188 -1 250 9 256 21 13 1140 3
1149 -10 4 -7 8 -141 8 -298 0 -230 3 -289 14 -298 9 -8 110 -11 352 -9 l339
3 5 648 c3 357 2 656 -1 665 -6 16 -71 18 -930 20 -516 2 -928 7 -933 12 -11
11 -8 1142 3 1153 4 4 687 6 1517 5 l1509 -3 2 -928 c1 -511 4 -935 7 -944 5
-13 118 -14 933 -12 l928 2 3 -299 c2 -245 5 -301 16 -310 10 -7 108 -9 297
-7 250 3 284 1 300 -13 17 -15 21 -15 62 5 l44 21 2 617 c1 339 4 621 7 625 3
4 21 8 41 8 26 0 36 -5 40 -20 3 -13 14 -20 29 -20 23 0 24 3 24 65 0 59 -2
65 -20 65 -13 0 -24 -10 -30 -25 -11 -29 -44 -33 -76 -10 -17 12 -77 14 -342
14 -176 -1 -326 2 -331 6 -20 12 -13 71 11 87 12 8 18 19 15 25 -8 13 -88 26
-110 17 -23 -8 -21 -35 2 -41 24 -6 30 -19 24 -59 l-5 -31 -211 -5 c-117 -3
-373 -5 -570 -4 -306 1 -359 3 -368 16 -9 15 -2 1176 8 1193 9 15 53 6 63 -13
13 -25 37 -26 44 -2 4 14 2 78 -3 105 -3 15 -31 6 -41 -14 -8 -14 -19 -19 -38
-17 l-27 3 -2 299 c-1 293 -2 300 -23 316 -21 16 -21 21 -20 294 0 153 3 282
6 287 2 5 270 9 593 9 510 0 590 -2 601 -15 10 -11 11 -140 5 -597 -4 -321 -9
-586 -12 -590 -2 -5 -174 -8 -382 -8 l-379 0 -15 23 c-23 33 -51 12 -54 -39
-3 -74 20 -96 55 -54 16 18 33 19 388 21 203 2 376 -1 382 -5 9 -5 12 -99 12
-360 l0 -353 -26 -12 c-40 -18 -24 -36 38 -39 65 -3 94 16 59 40 -19 13 -33
79 -20 93 3 2 297 6 653 7 l648 2 18 -24 c26 -34 40 -17 40 51 0 51 -3 59 -19
59 -10 0 -21 -9 -24 -20 -4 -16 -14 -20 -49 -20 -23 0 -316 -1 -650 -2 -335
-1 -610 1 -613 4 -9 9 -6 1821 3 1830 5 5 417 7 918 6 l909 -3 1 -795 c0 -743
-4 -1022 -16 -1033 -3 -2 -20 -7 -38 -10 -28 -6 -34 -3 -42 18 -11 29 -46 34
-52 8 -2 -10 -1 -38 2 -63 4 -32 10 -46 23 -48 9 -2 17 0 17 5 1 36 -15 36
1011 40 546 2 995 6 998 9 6 6 7 129 10 1131 1 425 -1 778 -4 783 -4 7 -234
10 -683 10 -672 -1 -677 -1 -691 19 -30 45 -51 20 -51 -60 0 -42 3 -49 19 -49
11 0 23 9 26 20 6 20 15 20 675 20 l669 0 3 -32 c5 -50 -11 -1781 -17 -1796
-3 -10 -191 -12 -912 -10 l-908 3 2 430 c1 237 3 649 3 918 l0 487 44 0 c36 0
46 -4 51 -21 4 -12 14 -19 23 -17 13 3 18 17 20 66 3 56 1 62 -17 62 -11 0
-22 -9 -26 -19 -3 -10 -13 -21 -23 -23 -9 -2 -732 -3 -1607 -3 l-1590 0 -3 32
c-2 25 1 33 18 38 13 4 20 13 18 23 -4 24 -99 30 -117 8 -11 -13 -9 -17 12
-27 l24 -11 -4 -326 c-2 -180 -6 -337 -9 -350 l-4 -22 -593 2 -592 3 -6 48
c-4 43 -2 50 19 66 36 26 20 41 -43 41 -61 0 -78 -15 -46 -39 19 -14 22 -25
19 -67 l-3 -49 -589 -3 c-460 -2 -592 1 -604 10 -13 11 -14 56 -8 348 7 324 8
336 28 351 11 9 18 21 14 28 -9 14 -95 14 -116 1 -13 -9 -12 -13 7 -29 l23
-19 0 -334 c0 -246 -3 -337 -12 -346 -15 -15 -1124 -17 -1147 -3 -12 8 -13 75
-6 453 5 243 9 500 9 570 1 75 5 131 12 138 7 7 189 9 580 8 l569 -3 3 -33 c3
-27 -1 -35 -17 -39 -12 -3 -21 -14 -21 -24 0 -16 8 -19 49 -19 80 0 106 19 56
42 -25 11 -31 31 -19 62 6 14 68 16 600 16 555 0 594 -1 601 -17 5 -10 6 -157
3 -327 -5 -305 -6 -309 -28 -324 -37 -25 -27 -40 31 -44 28 -2 58 -2 65 0 19
7 14 39 -8 45 -19 5 -20 14 -20 324 0 235 3 322 12 331 9 9 157 12 605 12
l593 0 0 -36 c0 -28 -5 -37 -20 -41 -13 -3 -20 -12 -18 -22 2 -12 17 -17 57
-19 65 -4 87 11 53 37 -17 13 -23 25 -20 47 l3 29 320 6 c176 4 1431 7 2789 8
l2469 1 -6 -1342 c-6 -1135 -13 -1706 -21 -1715 -1 -1 -701 -5 -1556 -9 -1300
-5 -1558 -9 -1571 -20 -25 -23 -66 -17 -85 11 -29 45 -44 32 -44 -40 0 -58 2
-65 19 -65 13 0 21 8 23 23 3 25 31 33 69 19 l24 -10 -2 -563 c-2 -310 1 -593
5 -628 l7 -63 654 1 c360 0 658 4 663 9 4 4 9 143 10 307 l3 300 890 0 890 0
0 -565 0 -565 -59 2 c-36 1 -63 7 -67 15 -5 7 -9 126 -9 264 0 278 -1 273 64
277 63 4 51 17 -16 17 -72 0 -97 -14 -80 -47 5 -10 9 -123 8 -251 -1 -263 0
-258 -75 -246 -39 6 -41 9 -41 40 0 41 -14 44 -32 7 -8 -16 -22 -27 -36 -28
-48 -3 -51 10 -50 230 1 112 5 209 8 215 10 16 58 20 69 6 5 -6 11 -28 13 -49
5 -57 22 -45 28 20 5 55 6 58 35 63 17 3 26 8 20 11 -16 10 -74 8 -80 -2 -4
-5 -26 -9 -49 -9 -53 0 -99 -30 -78 -51 18 -19 17 -378 -2 -404 -12 -17 -11
-21 8 -36 11 -9 44 -19 71 -22 120 -14 184 -25 204 -37 12 -6 50 -10 84 -9
l62 3 2 -295 c2 -162 -1 -300 -5 -306 -10 -16 -1759 -20 -1775 -4 -5 5 -9 129
-8 305 l2 296 -664 0 c-597 0 -665 -2 -671 -16 -3 -9 -6 -306 -6 -660 0 -508
3 -644 13 -645 6 0 285 0 618 1 564 0 607 -1 613 -17 4 -9 6 -147 6 -306 -1
-159 1 -291 3 -294 9 -8 1311 -3 1320 6 4 4 9 142 10 307 l2 299 260 5 c143 3
265 2 270 -2 11 -7 11 -11 7 -673 -1 -268 -6 -466 -12 -475 -8 -13 -55 -15
-306 -17 -203 -2 -300 -6 -304 -14 -4 -6 -8 -67 -9 -135 l-2 -124 45 0 45 0 3
88 3 87 301 3 c238 2 304 5 313 16 8 9 10 199 9 677 l-3 663 -340 1 c-208 1
-345 -2 -352 -8 -10 -7 -13 -81 -13 -306 0 -218 -3 -300 -12 -309 -9 -9 -151
-12 -579 -12 l-567 0 -7 36 c-3 20 -6 156 -5 303 1 146 1 272 1 279 -1 9 -132
12 -621 12 l-620 0 -1 28 c-3 72 3 1107 6 1112 2 3 262 6 577 6 l573 -1 3
-295 c1 -162 6 -298 11 -303 11 -11 1933 -9 1943 1 4 4 9 437 10 962 l3 955
-56 5 c-31 3 -472 3 -980 0 l-924 -5 -3 -302 -2 -301 -48 -6 c-26 -3 -285 -4
-577 -3 l-530 2 -3 566 c-2 462 0 568 11 577 10 8 447 12 1559 12 1186 1 1549
4 1556 13 6 8 11 609 13 1602 l4 1589 -448 1 c-247 0 -449 -1 -450 -1z m-8166
-4451 c2 -48 2 -122 0 -306 -1 -197 -1 -195 -66 -183 -34 7 -35 8 -35 52 0 53
-19 56 -32 6 -8 -29 -12 -32 -48 -32 l-40 0 -1 48 c-2 225 1 396 8 402 33 30
90 8 80 -31 -5 -19 15 -44 26 -32 4 3 7 24 7 45 0 42 18 56 73 57 23 1 27 -3
28 -26z m-262 -32 c16 -10 21 -148 12 -306 l-6 -100 -28 -3 c-54 -6 -57 3 -57
207 0 132 4 191 12 199 14 14 47 15 67 3z m5460 -549 c12 -2 13 -87 8 -589 -4
-322 -8 -588 -10 -589 -2 -2 -131 -4 -288 -4 l-284 -1 -3 583 c-2 484 0 585
11 593 12 8 515 15 566 7z m-9 -1867 c10 -12 11 -77 8 -284 -3 -148 -8 -274
-12 -280 -5 -8 -91 -11 -286 -11 l-278 0 -7 93 c-11 142 1 478 17 488 7 5 133
9 279 9 226 0 268 -2 279 -15z"/>
<path d="M528 3135 c-9 -20 -9 -28 1 -38 10 -9 15 -8 25 6 13 17 56 23 69 10
4 -3 1 -16 -7 -28 -26 -40 -51 -134 -38 -147 20 -20 40 10 47 70 4 31 13 70
21 86 27 57 21 66 -46 66 -55 0 -61 -2 -72 -25z"/>
<path d="M2998 7563 c-7 -16 -27 -47 -46 -71 -39 -49 -36 -72 7 -72 25 0 30
-4 33 -27 2 -20 9 -29 25 -31 18 -3 24 4 33 37 8 30 8 47 0 62 -6 11 -11 39
-10 62 3 62 1 67 -15 67 -9 0 -21 -12 -27 -27z m2 -88 c0 -19 -20 -29 -32 -17
-8 8 -7 16 2 26 14 17 30 12 30 -9z"/>
<path d="M530 7548 c-48 -51 -4 -144 62 -131 25 5 29 3 27 -12 -7 -31 -35 -42
-57 -22 -18 16 -20 16 -33 1 -12 -14 -10 -19 10 -35 33 -27 58 -24 92 10 25
26 29 37 29 86 0 59 -19 109 -45 119 -32 12 -64 6 -85 -16z m84 -37 c20 -39 2
-67 -37 -57 -21 5 -27 12 -27 34 0 55 41 69 64 23z"/>
<path d="M1516 7518 c-24 -34 -20 -73 10 -97 15 -12 31 -21 36 -21 18 0 39
-30 36 -51 -5 -34 -33 -47 -56 -26 -23 21 -42 22 -42 2 0 -25 45 -48 80 -40
41 9 60 30 60 69 0 34 -25 66 -52 66 -16 0 -58 40 -58 57 0 5 9 18 20 28 18
16 20 16 47 -5 25 -19 28 -20 31 -5 7 33 -6 45 -52 45 -35 0 -48 -5 -60 -22z"/>
<path d="M4017 7522 c-24 -27 -22 -74 6 -100 13 -12 30 -22 38 -22 23 -1 49
-26 49 -46 0 -11 -10 -28 -22 -38 -21 -18 -22 -18 -39 3 -17 21 -49 29 -49 11
0 -18 44 -50 70 -50 45 0 70 26 70 74 0 48 -13 66 -50 66 -18 0 -31 9 -43 29
-16 28 -16 30 2 52 17 20 22 22 38 11 43 -29 67 -27 47 6 -16 26 -95 28 -117
4z"/>
<path d="M2761 6936 c-34 -37 -21 -116 20 -116 26 0 79 -37 79 -54 0 -7 -9
-21 -21 -32 -16 -15 -23 -16 -37 -6 -42 30 -58 28 -47 -7 5 -17 15 -21 50 -21
35 0 48 5 64 26 33 42 9 110 -36 101 -14 -3 -30 4 -44 19 -19 20 -21 27 -11
49 16 36 39 41 66 16 28 -26 36 -26 36 -2 0 46 -84 65 -119 27z"/>
<path d="M4296 6147 c-19 -25 -26 -46 -26 -78 0 -68 9 -85 50 -104 43 -19 69
-11 96 30 14 22 14 26 -3 55 -16 27 -23 31 -55 28 -49 -3 -56 6 -33 47 21 40
30 43 45 15 13 -25 40 -26 40 -2 0 27 -20 42 -56 42 -26 0 -39 -8 -58 -33z
m74 -101 c18 -22 9 -60 -16 -64 -23 -3 -47 37 -38 63 8 19 38 19 54 1z"/>
<path d="M6812 5580 c-25 -23 -30 -60 -8 -60 7 0 16 9 19 20 3 12 14 20 26 20
17 0 21 -6 21 -30 0 -23 -4 -30 -20 -30 -13 0 -20 -7 -20 -20 0 -13 7 -20 20
-20 25 0 40 -48 19 -61 -19 -12 -32 -6 -44 19 -5 12 -18 22 -28 22 -14 0 -18
-6 -15 -27 2 -21 12 -31 41 -42 35 -13 40 -13 65 6 30 22 40 57 22 78 -8 10
-10 30 -6 59 6 37 4 48 -13 65 -26 26 -51 27 -79 1z"/>
<path d="M5053 5003 c-7 -2 -13 -13 -13 -23 0 -17 6 -18 53 -13 59 6 80 19 57
33 -16 10 -76 12 -97 3z"/>
<path d="M5042 4919 c2 -14 9 -23 18 -21 51 11 83 -31 56 -73 -21 -32 -33 -31
-48 0 -6 14 -17 25 -25 25 -22 0 -27 -29 -8 -50 21 -23 81 -27 107 -7 14 11
23 50 19 82 -3 23 -32 48 -58 50 -16 2 -36 6 -46 10 -16 7 -18 4 -15 -16z"/>
<path d="M9117 3272 c-11 -12 -13 -22 -7 -28 7 -7 9 -77 8 -185 l-3 -174 -25
0 -25 0 0 188 c0 133 -3 187 -11 187 -21 0 -24 -28 -24 -200 0 -93 3 -175 6
-184 4 -11 19 -16 44 -16 22 0 42 -4 45 -10 3 -5 15 -10 26 -10 18 0 18 2 6
28 -11 21 -12 66 -8 207 6 173 7 180 28 191 13 6 20 14 16 17 -13 14 -60 7
-76 -11z"/>
<path d="M3708 3219 c-31 -18 -41 -47 -28 -80 11 -25 10 -32 -5 -49 -22 -25
-10 -60 30 -86 34 -22 80 -9 103 28 15 25 15 30 1 55 -10 18 -14 43 -12 69 4
35 1 44 -18 58 -27 18 -46 20 -71 5z m60 -52 c2 -18 -2 -29 -12 -33 -22 -9
-46 14 -46 43 0 21 4 24 28 21 21 -2 28 -9 30 -31z m-4 -83 c24 -9 19 -43 -9
-56 -28 -13 -55 3 -55 32 0 29 26 39 64 24z"/>
<path d="M6165 3220 c-30 -11 -52 -57 -38 -78 19 -31 38 -20 35 21 -3 41 -4
41 32 27 19 -7 26 -17 26 -36 0 -26 -14 -45 -79 -110 -35 -35 -22 -54 38 -54
65 0 81 7 81 37 0 20 -4 24 -17 18 -35 -15 -63 -17 -63 -6 0 6 18 27 40 47 31
28 40 44 40 69 0 48 -50 83 -95 65z"/>
<path d="M9381 3141 c-19 -14 -22 -23 -15 -42 12 -35 4 -132 -12 -150 -19 -21
-8 -29 43 -29 46 0 53 9 27 31 -14 11 -16 29 -12 107 3 51 2 94 -1 96 -4 3
-17 -4 -30 -13z"/>
<path d="M6531 886 c-8 -9 -15 -526 -12 -838 l1 -48 45 0 45 0 0 393 c0 215 4
398 9 405 6 10 64 13 257 13 137 0 255 0 261 0 10 -1 13 -74 15 -313 l3 -313
620 -5 620 -5 3 -87 3 -88 38 0 38 0 7 77 c9 108 8 181 -3 188 -6 3 -286 6
-623 8 l-613 2 -5 310 -5 310 -347 2 c-258 1 -350 -2 -357 -11z"/>
</g>
</svg>
