<?xml version="1.0" standalone="no"?>
<!DOCTYPE svg PUBLIC "-//W3C//DTD SVG 20010904//EN"
 "http://www.w3.org/TR/2001/REC-SVG-20010904/DTD/svg10.dtd">
<svg version="1.0" xmlns="http://www.w3.org/2000/svg"
 width="490.000000pt" height="500.000000pt" viewBox="0 0 490.000000 500.000000"
 preserveAspectRatio="xMidYMid meet">
<metadata>
Created by potrace 1.16, written by Peter Selinger 2001-2019
</metadata>
<g transform="translate(0.000000,500.000000) scale(0.100000,-0.100000)"
fill="#000000" stroke="none">
<path d="M992 4988 c-9 -11 -169 -15 -382 -9 -8 0 -51 -1 -95 -2 -44 -2 -96 0
-115 4 -51 12 -76 -15 -65 -68 5 -21 7 -42 6 -48 -7 -26 -5 -30 12 -29 13 2
16 -3 12 -17 -4 -13 -2 -19 9 -19 9 0 16 -4 16 -10 0 -5 -11 -10 -25 -10 l-25
0 3 -109 c1 -104 3 -110 23 -115 13 -4 29 -3 37 0 9 3 16 -3 20 -16 3 -12 15
-24 26 -27 12 -3 21 -9 21 -13 0 -5 3 -15 6 -24 8 -20 -21 -22 -33 -3 -6 11
-67 47 -78 47 -18 0 -31 -155 -15 -174 8 -10 7 -21 -2 -41 -9 -19 -9 -31 -1
-44 7 -12 8 -23 1 -35 -10 -18 -4 -31 15 -31 7 0 11 -8 9 -18 -2 -10 3 -17 13
-17 27 0 16 -18 -16 -25 -29 -6 -30 -9 -25 -39 4 -17 6 -39 6 -48 -1 -37 -1
-74 2 -103 3 -28 6 -30 46 -33 28 -2 42 -8 42 -18 0 -8 7 -14 16 -14 8 0 20
-13 25 -29 6 -17 18 -32 27 -34 9 -3 2 -5 -15 -6 -18 0 -33 3 -33 8 0 4 -18
20 -39 34 -46 31 -60 22 -67 -40 -8 -80 -5 -183 7 -205 6 -10 5 -19 -1 -23
-17 -11 -11 -35 10 -35 12 0 17 -5 14 -14 -3 -8 3 -16 16 -19 29 -7 18 -23
-21 -31 -28 -5 -31 -8 -24 -33 4 -16 8 -58 9 -95 1 -74 21 -102 63 -92 15 4
23 0 27 -14 4 -11 16 -22 26 -25 12 -3 20 -14 20 -25 0 -11 6 -22 13 -25 6 -2
0 -4 -15 -3 -15 0 -30 6 -32 13 -7 18 -78 45 -89 34 -15 -15 -20 -122 -6 -148
10 -18 10 -26 1 -35 -16 -16 -15 -51 0 -66 10 -10 10 -17 0 -32 -16 -26 -15
-30 8 -30 12 0 17 -5 14 -14 -3 -7 2 -16 10 -19 24 -10 19 -27 -8 -27 -28 0
-36 -15 -26 -50 3 -14 6 -55 5 -92 -1 -65 -1 -66 27 -72 15 -3 35 -3 43 0 10
4 15 0 15 -10 0 -9 7 -19 15 -23 9 -3 22 -18 31 -34 14 -27 13 -29 -6 -29 -11
0 -20 4 -20 10 0 5 -14 17 -31 26 -25 12 -37 14 -56 5 -19 -9 -22 -14 -14 -30
7 -12 7 -28 -2 -50 -8 -23 -9 -39 0 -60 8 -21 8 -32 0 -40 -8 -8 -8 -19 0 -40
6 -16 8 -41 6 -55 -4 -20 -1 -26 12 -26 12 0 15 -5 10 -20 -5 -16 -2 -20 14
-20 12 0 21 -4 21 -10 0 -5 -14 -10 -31 -10 l-30 0 4 -102 c5 -111 18 -135 65
-123 18 4 25 1 29 -15 3 -11 14 -20 24 -20 12 0 19 -7 19 -18 0 -10 6 -24 13
-31 10 -11 9 -13 -6 -7 -10 3 -23 6 -28 6 -5 0 -9 6 -9 13 0 20 -68 41 -85 27
-17 -14 -31 -126 -17 -143 5 -6 8 -45 7 -85 -3 -56 0 -75 11 -79 8 -3 14 -14
14 -24 0 -10 7 -19 15 -19 8 0 15 -5 15 -11 0 -7 -10 -9 -25 -5 -20 5 -26 2
-31 -18 -3 -13 0 -34 6 -46 9 -16 9 -25 1 -33 -14 -14 -14 -54 -1 -62 5 -3 7
-19 3 -35 -6 -31 4 -36 59 -32 10 1 22 -7 28 -18 6 -11 17 -20 24 -20 8 0 16
-8 20 -17 3 -10 9 -24 12 -30 4 -8 -2 -13 -16 -13 -12 0 -24 8 -26 18 -5 16
-46 42 -67 42 -5 0 -15 -7 -24 -15 -12 -13 -13 -18 -2 -31 9 -11 9 -18 1 -26
-14 -14 -16 -84 -3 -92 5 -4 5 -19 -2 -36 -9 -23 -9 -35 1 -50 10 -16 10 -24
0 -41 -11 -17 -10 -22 4 -30 10 -6 18 -17 18 -24 0 -8 9 -15 20 -15 30 0 24
-18 -6 -22 -33 -4 -50 -28 -39 -54 4 -11 9 -50 10 -88 1 -63 3 -70 25 -78 12
-5 31 -6 41 -3 14 5 19 1 19 -13 0 -11 9 -22 20 -25 19 -5 48 -52 38 -62 -10
-10 -38 7 -38 24 0 10 -13 20 -34 27 -41 13 -66 -1 -66 -37 0 -78 2 -114 6
-121 3 -5 1 -14 -4 -21 -13 -16 -9 -52 8 -72 10 -12 10 -19 2 -27 -7 -7 -12
-21 -12 -32 0 -16 3 -17 12 -8 18 18 30 14 23 -8 -5 -14 -2 -20 9 -20 28 0 17
-17 -14 -23 -32 -7 -39 -31 -20 -67 8 -14 7 -25 -2 -40 -10 -15 -10 -27 -1
-50 7 -17 7 -32 2 -36 -5 -3 -9 -8 -9 -12 0 -11 70 -30 76 -21 10 16 23 9 26
-13 2 -13 9 -22 17 -20 7 1 15 -7 18 -18 5 -20 12 -20 304 -20 165 1 299 4
299 9 0 9 -58 25 -75 21 -54 -15 -85 -16 -85 -4 0 7 6 15 13 18 9 5 9 7 0 12
-29 13 -9 20 57 20 51 0 70 -4 70 -13 0 -8 11 -18 25 -23 14 -5 28 -17 31 -25
5 -13 36 -15 201 -15 l196 0 23 26 c13 14 24 32 24 40 0 14 27 19 80 14 14 -1
40 -19 61 -41 l36 -39 194 0 c190 0 194 0 209 23 8 12 17 31 20 41 5 16 16 20
61 22 51 2 59 -1 92 -31 20 -19 37 -39 37 -44 0 -7 66 -11 198 -11 l198 0 23
31 c12 17 20 37 17 45 -6 14 0 16 92 19 29 1 42 -3 42 -12 0 -7 11 -18 24 -24
14 -7 27 -21 30 -34 6 -22 8 -22 211 -24 115 -1 205 2 205 7 0 5 11 22 25 37
19 23 22 32 13 43 -10 11 0 13 58 11 64 -3 72 -6 102 -37 17 -18 32 -40 32
-48 0 -16 13 -18 57 -5 18 5 35 6 38 1 2 -4 68 -8 144 -9 l140 -2 25 38 c15
21 26 45 26 53 0 12 13 16 60 17 46 0 60 -3 60 -13 0 -8 11 -19 25 -24 19 -7
25 -17 25 -40 0 -25 4 -30 24 -30 14 0 28 5 31 10 8 13 52 13 60 0 4 -6 97
-10 246 -10 l239 0 0 29 c0 24 -5 30 -30 35 -49 9 -119 -4 -131 -25 -5 -11
-17 -19 -26 -19 -14 0 -13 3 4 22 12 13 23 34 25 48 3 24 6 25 71 26 59 1 67
-2 67 -18 0 -10 4 -18 9 -18 6 0 10 99 10 250 l0 250 -107 0 c-86 0 -112 3
-132 18 -29 20 -128 31 -343 38 -148 5 -148 5 -179 -21 -58 -49 -79 -55 -189
-51 -57 1 -124 8 -149 14 -25 6 -70 16 -100 23 -92 20 -137 48 -114 72 3 3 25
-2 48 -12 111 -50 117 -51 209 -51 65 1 98 5 111 15 11 8 34 15 51 15 24 0 39
8 58 31 21 26 25 39 23 87 -2 32 -4 76 -4 100 -1 27 -7 42 -15 42 -18 0 -63
49 -72 78 -11 36 -95 71 -95 39 0 -16 27 -41 53 -50 9 -4 17 -12 17 -20 0 -15
47 -61 72 -70 33 -12 29 -143 -6 -180 -20 -21 -29 -23 -89 -21 -37 2 -72 6
-76 9 -5 3 -11 0 -13 -7 -3 -8 -23 -11 -58 -9 -40 2 -61 9 -87 29 -18 15 -33
33 -33 40 0 17 17 15 24 -3 3 -8 18 -15 34 -15 15 0 33 -5 39 -11 17 -17 61
-2 68 22 9 28 -15 52 -72 74 -46 18 -47 18 -64 -4 -20 -25 -29 -27 -29 -5 0 8
-5 12 -10 9 -6 -4 -8 -15 -5 -26 8 -25 -11 -24 -25 2 -26 47 12 99 48 66 24
-22 82 -13 89 15 3 10 10 18 17 19 6 1 0 4 -14 8 -16 5 -24 14 -23 26 1 11 -7
25 -18 33 -30 21 -51 70 -44 103 4 18 2 29 -4 29 -16 0 -41 -55 -41 -89 0 -17
-11 -42 -25 -59 -14 -17 -25 -38 -25 -49 0 -27 -23 -73 -35 -70 -5 2 -10 32
-11 68 -1 50 -8 77 -33 124 -34 63 -67 105 -85 105 -6 0 -33 11 -60 25 -27 14
-57 25 -67 25 -10 0 -21 4 -24 10 -4 6 -66 10 -154 10 -107 0 -151 4 -159 13
-14 17 -20 111 -27 407 -3 140 -8 265 -11 278 -4 18 1 25 26 34 21 7 29 15 26
25 -3 8 -6 17 -6 19 0 2 -36 4 -80 4 -73 0 -80 -2 -80 -19 0 -12 12 -26 28
-33 17 -9 26 -20 24 -32 -2 -9 2 -24 9 -32 7 -9 8 -19 2 -27 -5 -7 -6 -130 -2
-307 3 -162 4 -298 0 -301 -3 -4 -158 -9 -344 -12 l-338 -6 -10 25 c-13 35
-42 28 -49 -11 l-5 -30 -145 -5 c-80 -3 -153 -2 -162 2 -9 4 -18 20 -20 35 -4
38 -35 43 -48 9 -16 -43 -70 -31 -70 14 0 5 12 21 28 35 23 21 25 27 12 35 -8
5 -31 10 -50 10 -19 0 -40 4 -47 8 -8 5 -13 56 -14 170 -1 90 1 165 4 168 3 3
23 6 44 6 60 0 85 30 38 48 -26 10 -34 43 -14 56 9 5 10 77 5 273 -4 146 -10
283 -13 303 -5 34 -3 39 21 48 18 6 231 10 592 10 l564 0 0 -30 c0 -23 -5 -30
-19 -30 -23 0 -37 -30 -19 -42 15 -9 119 -11 142 -2 24 9 19 29 -9 42 -22 10
-25 18 -25 66 0 31 -5 58 -12 64 -9 7 -169 7 -503 2 -269 -5 -559 -9 -644 -10
l-154 0 6 -310 c3 -170 2 -312 -3 -315 -17 -10 -522 -7 -533 4 -6 6 -9 41 -8
81 2 59 -2 77 -20 108 -39 64 -53 276 -20 316 8 10 11 47 9 118 l-3 103 30 -3
c17 -2 37 -10 46 -18 8 -8 27 -14 42 -14 14 0 29 -4 32 -10 8 -13 212 -13 220
0 3 6 22 10 42 10 26 0 42 8 64 31 27 29 29 36 29 114 0 101 -3 109 -46 136
-19 11 -41 35 -49 52 -9 19 -29 38 -47 46 -18 7 -39 21 -45 29 -7 9 -16 12
-20 8 -4 -4 -3 -10 2 -14 6 -4 18 -20 27 -37 9 -16 26 -31 37 -33 11 -2 23
-11 26 -22 7 -23 45 -64 68 -73 14 -5 17 -20 17 -85 0 -70 -3 -81 -24 -101
-18 -17 -29 -20 -43 -13 -10 5 -43 6 -74 3 -68 -8 -101 -7 -117 3 -7 4 -20 2
-28 -5 -12 -10 -19 -8 -37 8 -12 11 -30 23 -39 26 -10 4 -18 12 -18 19 0 6
-15 27 -32 45 -31 32 -32 35 -18 60 18 32 40 41 40 17 0 -9 3 -14 7 -11 3 4
12 2 19 -4 7 -6 19 -7 25 -3 7 4 34 8 61 8 45 2 67 14 68 38 0 4 -19 8 -42 10
-38 3 -43 6 -46 29 -2 17 -11 29 -23 32 -10 3 -19 12 -19 21 0 9 -4 16 -10 16
-16 0 -12 48 6 75 13 20 25 25 60 25 23 0 46 -4 49 -10 3 -5 18 -10 32 -10
l26 0 -23 25 c-21 23 -29 25 -79 20 -31 -3 -57 -10 -59 -15 -2 -6 -12 -10 -22
-10 -22 0 -63 -79 -54 -104 4 -11 -2 -29 -16 -48 -12 -16 -23 -35 -24 -41 -9
-42 -20 -74 -31 -87 -6 -8 -15 -23 -18 -33 -13 -35 -24 -8 -20 50 12 204 22
324 31 368 13 60 32 117 43 129 14 15 11 60 -7 94 -8 18 -12 37 -8 43 4 7 10
39 14 73 4 33 13 75 20 92 12 27 11 34 -9 60 -25 34 -37 104 -33 187 3 64 20
81 51 53 10 -9 27 -16 39 -16 11 0 24 -4 27 -10 3 -6 52 -10 110 -10 58 0 107
4 110 10 3 6 21 10 40 10 21 0 44 9 62 24 25 21 28 32 34 107 6 89 -4 149 -25
149 -15 0 -47 35 -65 71 -13 26 -74 63 -85 52 -14 -14 -4 -33 29 -53 19 -12
35 -27 35 -34 0 -15 62 -76 78 -76 11 0 19 -92 12 -140 -3 -26 -58 -74 -73
-63 -13 11 -107 10 -124 0 -6 -4 -24 -3 -40 2 -17 5 -42 7 -56 4 -19 -4 -29 1
-39 16 -7 12 -20 21 -29 21 -19 0 -46 53 -30 58 22 7 10 22 -14 16 -20 -5 -25
-2 -31 21 -5 22 -2 31 17 46 23 17 25 17 46 -3 18 -17 25 -18 37 -9 11 9 15 9
18 0 5 -14 48 5 48 21 0 6 5 10 11 10 6 0 8 -9 4 -21 -6 -18 -5 -19 14 -7 12
7 21 18 21 25 0 18 10 16 26 -4 13 -17 13 -17 14 0 0 9 -6 18 -12 18 -7 1 -20
3 -28 4 -8 0 -32 5 -53 9 -31 7 -37 12 -31 28 4 14 0 21 -14 24 -27 8 -55 70
-46 107 4 20 2 32 -7 38 -7 4 -10 11 -6 16 4 4 17 1 29 -6 23 -14 137 -33 150
-25 17 11 -15 34 -46 35 -17 0 -40 4 -51 8 -12 5 33 10 111 13 72 3 140 11
152 17 11 6 63 11 114 11 67 0 100 4 114 15 10 8 38 15 61 15 23 0 45 5 48 10
10 17 241 13 274 -5 63 -32 119 -45 198 -45 45 0 85 -4 88 -10 3 -5 21 -10 38
-10 18 0 42 -7 54 -15 30 -21 282 -21 309 0 11 8 33 15 49 15 17 0 55 9 85 21
30 12 99 30 154 42 83 17 104 18 130 8 72 -29 165 -41 318 -41 94 0 159 4 163
10 3 6 15 10 27 10 11 0 32 6 46 14 63 32 252 51 267 26 3 -5 33 -10 65 -10
32 0 61 -4 64 -9 11 -16 139 -33 211 -27 39 3 122 9 185 14 64 5 124 14 135
20 20 10 107 28 193 39 l42 5 0 289 0 289 -61 0 c-50 0 -60 -3 -55 -15 4 -10
-1 -15 -14 -15 -13 0 -18 5 -13 16 5 14 -123 15 -1316 13 -727 -2 -1324 -6
-1326 -10 -7 -11 -238 -8 -252 3 -7 6 -21 7 -30 3 -28 -12 -162 -15 -168 -5
-8 13 -62 13 -67 1 -5 -15 -555 -15 -564 0 -8 13 -30 11 -42 -3z m1892 -14
c26 -10 19 -32 -9 -30 -14 0 -25 2 -25 3 0 5 13 33 15 33 2 0 10 -3 19 -6z
m653 -10 c2 -7 -6 -11 -22 -10 -25 1 -31 7 -18 20 10 10 36 3 40 -10z m613 8
c0 -4 -9 -8 -19 -8 -11 0 -17 4 -15 8 3 4 12 8 20 8 8 0 14 -4 14 -8z m414 -1
c3 -5 15 -7 25 -4 16 4 19 1 14 -15 -3 -14 5 -30 27 -50 26 -25 38 -30 71 -27
33 3 39 1 39 -15 0 -10 6 -21 13 -23 22 -10 -16 -27 -43 -19 -14 3 -36 6 -50
5 -14 -1 -30 3 -37 9 -7 5 -18 6 -25 2 -7 -5 -31 -9 -53 -10 -53 -1 -85 -12
-85 -30 0 -8 5 -14 10 -14 6 0 10 -9 10 -20 0 -13 9 -22 25 -26 14 -4 24 -9
21 -12 -11 -10 15 -41 36 -44 13 -2 24 -10 26 -19 2 -13 -7 -18 -40 -21 -24
-3 -54 -2 -67 2 -21 5 -22 7 -7 19 27 23 9 28 -84 24 -49 -2 -90 1 -90 5 0 5
16 26 36 46 34 35 35 38 20 61 -20 31 -8 39 45 30 38 -7 43 -5 75 31 34 39 41
67 25 94 -6 8 -7 18 -5 22 7 11 62 10 68 -1z m-2294 -22 c0 -5 -11 -9 -25 -9
-26 0 -34 15 -12 23 16 5 37 -3 37 -14z m1053 4 c16 -3 27 -12 27 -22 0 -21
57 -66 85 -67 50 -3 55 -5 55 -24 0 -12 7 -20 18 -21 9 0 4 -5 -13 -10 -33
-10 -87 -4 -123 14 -18 8 -25 8 -30 -1 -4 -6 -16 -11 -27 -11 -37 0 -106 -8
-110 -13 -10 -9 36 -89 50 -86 7 2 14 -1 15 -7 3 -21 24 -36 43 -31 13 3 21
-1 24 -15 5 -18 10 -21 42 -23 8 -1 16 -7 19 -14 3 -10 -3 -11 -25 -5 -15 4
-61 7 -100 7 -72 0 -73 0 -53 18 11 11 18 23 15 28 -5 9 -87 6 -121 -5 -13 -4
-25 -2 -29 5 -5 8 -11 8 -21 -1 -32 -26 -25 3 10 41 39 44 44 61 21 80 -8 7
-15 16 -15 21 0 12 67 11 75 -1 10 -17 22 -12 65 30 39 38 42 44 36 79 -6 42
0 55 23 46 9 -4 28 -9 44 -12z m635 5 c6 -1 12 -7 12 -14 0 -21 63 -74 89 -74
21 0 71 -40 71 -57 0 -5 -38 -2 -140 13 -44 6 -109 -6 -140 -25 -12 -9 -12
-14 3 -45 15 -32 26 -41 50 -37 4 0 7 -8 7 -19 0 -16 7 -20 30 -20 23 0 30 -4
30 -20 0 -24 -8 -28 -73 -33 -52 -4 -65 4 -42 23 25 21 0 38 -50 36 -25 -1
-48 -5 -51 -9 -4 -4 -22 -7 -41 -7 -34 0 -48 25 -20 36 8 3 24 19 36 35 21 28
21 32 7 48 -9 10 -16 21 -16 24 0 12 66 7 78 -5 10 -10 20 -5 47 27 40 47 52
81 37 105 -15 24 -3 33 33 26 16 -4 36 -7 43 -8z m-3548 -27 c0 -3 -11 -7 -25
-7 -26 -2 -35 21 -12 29 12 4 37 -10 37 -22z m627 12 c2 -6 -7 -10 -21 -9 -18
1 -22 4 -14 14 12 14 30 12 35 -5z m613 7 c0 -5 -9 -10 -21 -10 -11 0 -17 5
-14 10 3 6 13 10 21 10 8 0 14 -4 14 -10z m430 -24 c0 -22 65 -76 91 -76 25 0
87 -46 76 -57 -9 -8 -48 -7 -97 4 -58 12 -160 5 -185 -13 -18 -13 -18 -16 -2
-49 9 -19 23 -35 31 -35 8 0 18 -9 21 -20 4 -14 15 -20 35 -20 19 0 29 -6 33
-20 3 -12 14 -20 26 -20 12 0 21 -4 21 -10 0 -12 -73 -14 -84 -2 -4 4 -22 7
-39 7 -28 0 -32 3 -29 23 2 19 -2 23 -20 21 -13 -1 -36 1 -52 6 -18 5 -31 4
-35 -4 -8 -12 -71 -4 -71 9 0 5 14 20 30 33 34 29 36 38 14 72 -15 23 -15 24
11 31 15 4 31 2 38 -5 20 -20 45 -12 68 22 13 17 27 35 32 38 6 4 7 23 4 43
-4 26 -2 38 10 45 18 9 73 -8 73 -23z m605 22 c14 -6 25 -16 25 -23 0 -6 14
-24 31 -41 23 -22 40 -29 72 -29 27 -1 41 -5 40 -13 -2 -6 7 -17 20 -24 21
-12 20 -12 -18 -19 -22 -4 -45 -3 -51 2 -5 4 -20 5 -33 2 -14 -3 -26 -1 -31 7
-5 8 -13 9 -26 2 -11 -5 -39 -8 -64 -6 -28 2 -52 -2 -63 -10 -17 -13 -17 -17
-3 -51 9 -20 25 -39 36 -42 10 -3 22 -14 25 -24 4 -12 16 -19 30 -19 14 0 29
-9 35 -20 8 -15 17 -19 31 -15 10 4 19 2 19 -3 0 -5 -43 -9 -95 -8 -88 1 -116
9 -80 22 17 7 20 30 4 40 -6 3 -16 1 -21 -4 -6 -6 -24 -8 -39 -5 -16 3 -35 0
-43 -6 -11 -9 -20 -10 -35 -1 -27 14 -26 22 4 58 25 30 33 62 15 62 -13 0 -13
27 0 35 6 4 24 -1 42 -9 38 -20 58 -20 58 -3 0 8 9 25 21 38 30 34 41 67 29
89 -8 15 -6 19 13 23 12 2 23 5 24 6 1 0 14 -4 28 -11z m415 2 c0 -5 -4 -10
-10 -10 -5 0 -10 5 -10 10 0 6 5 10 10 10 6 0 10 -4 10 -10z m350 0 c0 -5 -4
-10 -9 -10 -6 0 -13 5 -16 10 -3 6 1 10 9 10 9 0 16 -4 16 -10z m-1992 -12 c8
-1 18 -13 23 -26 15 -38 56 -72 89 -72 20 0 31 -6 35 -20 3 -11 13 -20 21 -20
8 0 14 -5 14 -11 0 -7 -13 -9 -37 -5 -21 4 -49 7 -63 7 -14 1 -31 5 -37 11 -9
7 -17 7 -27 -1 -10 -8 -16 -9 -21 -1 -4 7 -12 7 -26 0 -11 -6 -23 -8 -28 -5
-10 6 -61 -14 -61 -24 2 -22 38 -76 50 -76 8 0 18 -9 21 -20 4 -14 13 -19 28
-17 16 1 24 -4 28 -18 4 -14 14 -20 34 -20 16 0 29 -4 29 -10 0 -14 -103 -13
-135 2 -16 7 -25 19 -25 35 0 19 -3 22 -17 15 -10 -5 -33 -7 -51 -5 -18 3 -38
0 -46 -6 -15 -12 -76 -4 -76 11 0 5 16 22 35 39 37 33 45 63 20 73 -8 3 -15
10 -15 17 0 7 18 9 58 5 l57 -6 32 44 c29 39 32 49 23 72 -12 32 2 48 35 38
11 -3 26 -6 33 -6z m-898 -8 c0 -5 -4 -10 -10 -10 -5 0 -10 5 -10 10 0 6 5 10
10 10 6 0 10 -4 10 -10z m268 -2 c9 -9 12 -9 12 1 0 7 4 10 10 6 5 -3 7 -11 4
-18 -2 -7 10 -27 27 -45 26 -27 39 -32 76 -32 40 0 44 -2 38 -20 -5 -14 -2
-20 9 -20 9 0 16 -5 16 -10 0 -12 -129 -10 -136 2 -8 13 -42 9 -47 -4 -3 -10
-7 -10 -19 0 -12 9 -18 10 -23 2 -4 -6 -15 -8 -25 -5 -22 7 -60 -10 -60 -26 0
-6 10 -24 21 -41 15 -20 27 -28 41 -25 14 4 18 1 13 -12 -6 -19 18 -46 33 -37
5 3 16 -4 25 -15 9 -10 26 -19 36 -19 11 0 23 -4 26 -10 4 -6 -6 -10 -24 -10
-16 0 -33 5 -36 10 -3 6 -16 8 -28 5 -37 -9 -98 -12 -102 -4 -3 4 2 12 10 19
8 7 15 19 15 26 0 17 -22 18 -38 2 -8 -8 -15 -8 -24 -1 -8 6 -21 7 -33 2 -21
-8 -105 -12 -105 -4 0 2 18 23 40 45 43 44 48 61 25 80 -28 23 -1 35 43 21 39
-13 40 -13 76 25 33 35 36 44 33 82 -4 41 -4 42 27 42 18 0 37 -5 44 -12z
m132 2 c0 -5 -4 -10 -10 -10 -5 0 -10 5 -10 10 0 6 5 10 10 10 6 0 10 -4 10
-10z m2470 -20 c0 -5 -4 -10 -10 -10 -5 0 -10 5 -10 10 0 6 5 10 10 10 6 0 10
-4 10 -10z m50 0 c0 -5 -4 -10 -10 -10 -5 0 -10 5 -10 10 0 6 5 10 10 10 6 0
10 -4 10 -10z m-2455 -20 c3 -5 -1 -10 -10 -10 -9 0 -13 5 -10 10 3 6 8 10 10
10 2 0 7 -4 10 -10z m715 0 c0 -5 -4 -10 -10 -10 -5 0 -10 5 -10 10 0 6 5 10
10 10 6 0 10 -4 10 -10z m-1340 -10 c0 -5 -4 -10 -10 -10 -5 0 -10 5 -10 10 0
6 5 10 10 10 6 0 10 -4 10 -10z m2540 -70 c0 -5 -4 -10 -10 -10 -5 0 -10 5
-10 10 0 6 5 10 10 10 6 0 10 -4 10 -10z m-1820 -20 c0 -5 -4 -10 -10 -10 -5
0 -10 5 -10 10 0 6 5 10 10 10 6 0 10 -4 10 -10z m980 -40 c0 -5 -4 -10 -10
-10 -5 0 -10 5 -10 10 0 6 5 10 10 10 6 0 10 -4 10 -10z m40 0 c0 -5 -4 -10
-10 -10 -5 0 -10 5 -10 10 0 6 5 10 10 10 6 0 10 -4 10 -10z m600 -40 c0 -5
-4 -10 -10 -10 -5 0 -10 5 -10 10 0 6 5 10 10 10 6 0 10 -4 10 -10z m-2340
-20 c0 -5 -4 -10 -10 -10 -5 0 -10 5 -10 10 0 6 5 10 10 10 6 0 10 -4 10 -10z
m120 -40 c0 -5 -4 -10 -10 -10 -5 0 -10 5 -10 10 0 6 5 10 10 10 6 0 10 -4 10
-10z m2951 -23 c-1 -12 -15 -9 -19 4 -3 6 1 10 8 8 6 -3 11 -8 11 -12z m559 3
c0 -5 -9 -10 -20 -10 -11 0 -20 5 -20 10 0 6 9 10 20 10 11 0 20 -4 20 -10z
m610 0 c0 -5 -6 -10 -14 -10 -8 0 -18 5 -21 10 -3 6 3 10 14 10 12 0 21 -4 21
-10z m-2430 -20 c0 -5 -9 -10 -20 -10 -11 0 -20 5 -20 10 0 6 9 10 20 10 11 0
20 -4 20 -10z m2608 -47 c17 -17 32 -34 32 -37 0 -11 -29 -6 -62 9 -29 14 -38
14 -73 2 -26 -9 -40 -20 -39 -31 1 -9 -6 -16 -17 -16 -28 0 -32 17 -9 40 11
11 20 29 20 39 0 43 101 38 148 -6z m-639 -4 c7 -11 19 -19 25 -19 10 0 39
-50 33 -56 -9 -9 -46 11 -50 26 -6 25 -52 36 -81 21 -12 -7 -26 -11 -32 -10
-23 4 -36 -2 -30 -16 3 -8 1 -15 -4 -15 -13 0 -13 37 0 45 6 3 10 15 10 25 0
34 104 33 129 -1z m-1944 11 c4 -6 15 -8 25 -5 13 4 24 -2 36 -20 9 -14 23
-25 30 -25 8 0 14 -6 14 -14 0 -8 3 -21 6 -29 4 -12 0 -14 -15 -10 -12 3 -21
9 -21 13 0 4 -17 17 -38 28 -33 17 -41 18 -57 6 -10 -8 -27 -14 -37 -14 -10 0
-18 -7 -18 -15 0 -8 -9 -15 -20 -15 -11 0 -20 7 -20 15 0 8 9 20 20 27 11 7
20 20 20 28 0 9 12 21 28 27 36 15 40 15 47 3z m685 -12 c0 -11 8 -18 20 -18
11 0 23 -8 26 -17 3 -10 10 -26 15 -35 8 -16 4 -18 -28 -18 -28 0 -34 3 -23
10 8 5 12 11 10 12 -46 35 -63 40 -106 28 -27 -8 -46 -20 -49 -31 -4 -11 -15
-19 -26 -19 -24 0 -24 11 1 43 11 14 20 33 20 42 0 12 6 15 19 10 11 -3 22 -2
25 3 3 5 26 8 51 8 36 -1 45 -5 45 -18z m637 3 c3 -11 13 -21 22 -24 23 -6 35
-47 15 -47 -8 0 -17 7 -20 15 -8 21 -73 40 -87 26 -6 -6 -24 -11 -39 -11 -17
0 -28 -5 -28 -14 0 -8 -7 -17 -16 -20 -28 -11 -28 3 -1 28 15 14 27 34 27 46
0 18 6 20 61 20 51 0 62 -3 66 -19z m-2497 -22 c0 -10 9 -20 19 -24 29 -9 32
-39 5 -52 -21 -9 -24 -8 -24 7 0 25 -45 53 -67 42 -10 -5 -37 -18 -60 -29 -52
-26 -61 -19 -23 19 16 16 27 34 24 41 -3 10 12 13 61 13 55 0 65 -2 65 -17z
m617 1 c3 -11 14 -20 24 -20 13 0 19 -7 19 -24 0 -13 6 -27 13 -30 6 -3 1 -3
-13 0 -14 4 -26 11 -28 15 -2 5 -19 16 -38 25 -26 13 -38 14 -47 5 -6 -6 -21
-11 -34 -11 -16 0 -23 -6 -23 -19 0 -14 -6 -19 -20 -18 -26 2 -26 21 0 45 13
12 18 25 14 35 -5 15 3 17 61 17 58 0 68 -3 72 -20z m2677 -67 c14 -15 23 -30
20 -35 -6 -10 -75 -10 -90 0 -9 5 -11 40 -5 60 1 1 12 2 26 2 13 0 35 -12 49
-27z m-650 11 c18 -7 21 -30 6 -39 -6 -4 -22 1 -36 10 -37 24 -14 46 30 29z
m-1229 -34 c16 -17 35 -28 42 -26 15 6 46 -51 32 -60 -17 -10 -80 6 -86 22 -3
8 -19 14 -39 14 -29 0 -34 3 -34 24 0 13 -3 31 -6 40 -5 13 1 16 28 16 25 0
42 -8 63 -30z m600 20 c-3 -5 -17 -10 -31 -10 -13 0 -24 5 -24 10 0 6 14 10
31 10 17 0 28 -4 24 -10z m-1838 -22 c13 -12 23 -27 23 -35 0 -15 -46 -18 -55
-3 -4 6 -15 8 -26 5 -16 -5 -19 -1 -19 24 0 27 4 31 27 31 15 0 37 -10 50 -22z
m-614 -18 c16 -17 33 -28 37 -25 5 3 10 -5 12 -17 3 -22 8 -23 82 -23 55 0 81
-4 83 -12 4 -12 -55 -19 -110 -13 -10 1 -25 -4 -33 -10 -11 -10 -22 -9 -50 5
-34 16 -36 16 -49 -2 -10 -12 -14 -13 -15 -5 0 8 -9 12 -22 11 -13 -2 -28 0
-35 4 -6 4 -14 3 -18 -3 -3 -5 -10 -10 -16 -10 -17 0 -9 33 16 66 14 18 25 37
24 41 -3 19 3 23 34 23 23 0 40 -9 60 -30z m2937 0 c0 -5 -4 -10 -10 -10 -5 0
-10 5 -10 10 0 6 5 10 10 10 6 0 10 -4 10 -10z m-2555 -70 c0 -11 -15 -16 -64
-18 -48 -2 -62 0 -58 10 2 7 14 12 26 10 13 -1 30 2 39 8 24 14 57 8 57 -10z
m-590 -60 c0 -22 -29 -18 -33 3 -3 14 1 18 15 15 10 -2 18 -10 18 -18z m414
-6 c21 -4 31 -12 31 -24 0 -10 18 -34 40 -53 22 -19 40 -39 40 -45 0 -15 -36
-25 -60 -17 -11 3 -20 2 -20 -3 0 -10 -61 -9 -77 1 -14 9 -63 -15 -63 -30 0
-6 5 -15 10 -18 6 -3 10 -14 10 -24 0 -10 11 -24 25 -31 13 -7 27 -22 31 -33
5 -15 12 -18 35 -13 24 5 29 2 29 -14 0 -15 7 -20 25 -20 14 0 25 -4 25 -9 0
-16 -20 -23 -33 -13 -18 14 -97 22 -97 10 0 -6 -6 -5 -15 2 -12 10 -18 10 -32
-1 -12 -10 -10 -4 5 18 15 21 19 34 11 38 -6 4 -15 3 -21 -3 -6 -6 -25 -8 -43
-5 -18 3 -42 0 -53 -6 -14 -8 -23 -8 -27 -1 -4 6 -15 8 -26 5 -27 -9 -24 1 11
38 39 42 46 65 24 81 -9 7 -14 18 -10 24 9 15 53 16 61 2 13 -21 42 -8 77 34
33 38 36 48 29 74 -13 43 -5 48 58 36z m261 -89 c-7 -9 -9 -26 -5 -45 5 -24 3
-35 -12 -45 -28 -22 -33 -18 -33 29 0 34 5 47 23 59 28 20 43 21 27 2z m-510
-105 c0 -5 -4 -10 -10 -10 -5 0 -10 5 -10 10 0 6 5 10 10 10 6 0 10 -4 10 -10z
m345 -270 c-3 -5 -10 -10 -16 -10 -5 0 -9 5 -9 10 0 6 7 10 16 10 8 0 12 -4 9
-10z m-505 -20 c0 -5 -4 -10 -10 -10 -5 0 -10 5 -10 10 0 6 5 10 10 10 6 0 10
-4 10 -10z m212 -27 c31 -30 41 -35 48 -24 6 11 9 7 12 -15 l3 -29 72 0 c103
0 117 -21 16 -23 -43 -1 -89 -2 -103 -1 -14 1 -48 2 -75 3 -50 1 -51 1 -47 28
4 29 22 39 22 13 0 -8 7 -15 15 -15 21 0 19 12 -6 33 -20 18 -22 18 -40 1 -11
-10 -17 -24 -14 -33 6 -16 -11 -31 -37 -31 -27 0 -21 25 12 53 19 16 30 35 30
51 0 41 45 35 92 -11z m308 -73 c0 -5 -9 -10 -20 -10 -11 0 -20 5 -20 10 0 6
9 10 20 10 11 0 20 -4 20 -10z m-522 -42 c-2 -6 -10 -14 -16 -16 -7 -2 -10 2
-6 12 7 18 28 22 22 4z m422 -18 c0 -5 7 -10 15 -10 8 0 15 -6 15 -14 0 -21
75 -77 94 -70 12 5 16 0 16 -21 0 -21 -4 -25 -19 -20 -11 3 -22 1 -26 -5 -4
-7 -12 -7 -25 0 -14 8 -25 7 -40 -2 -17 -11 -22 -10 -31 2 -8 11 -12 12 -16 3
-9 -23 -25 -14 -18 10 l7 22 -17 -22 c-9 -13 -22 -23 -29 -23 -6 0 -17 -5 -24
-12 -9 -9 -8 -16 5 -30 9 -10 13 -18 8 -18 -4 0 11 -18 33 -40 24 -24 46 -38
55 -35 22 9 32 -27 10 -39 -27 -15 -113 -14 -113 1 0 7 5 13 10 13 6 0 10 7
10 16 0 13 -7 15 -30 11 -17 -4 -30 -2 -30 3 0 13 -37 13 -45 0 -5 -9 -85 -11
-85 -2 0 4 23 31 50 57 21 22 23 28 12 45 -16 25 -15 50 1 50 6 0 25 -7 41
-15 29 -16 31 -15 70 24 33 33 40 47 42 83 0 24 2 44 3 46 4 7 51 0 51 -8z
m-140 -50 c0 -5 -4 -10 -10 -10 -5 0 -10 5 -10 10 0 6 5 10 10 10 6 0 10 -4
10 -10z m-180 -190 c0 -5 -4 -10 -10 -10 -5 0 -10 5 -10 10 0 6 5 10 10 10 6
0 10 -4 10 -10z m300 0 c0 -5 -4 -10 -10 -10 -5 0 -10 5 -10 10 0 6 5 10 10
10 6 0 10 -4 10 -10z m-260 -100 c0 -5 -4 -10 -10 -10 -5 0 -10 5 -10 10 0 6
5 10 10 10 6 0 10 -4 10 -10z m365 0 c-3 -5 -12 -10 -20 -10 -8 0 -17 5 -20
10 -4 6 5 10 20 10 15 0 24 -4 20 -10z m-345 -40 c0 -5 -4 -10 -10 -10 -5 0
-10 5 -10 10 0 6 5 10 10 10 6 0 10 -4 10 -10z m240 0 c0 -5 -4 -10 -10 -10
-5 0 -10 5 -10 10 0 6 5 10 10 10 6 0 10 -4 10 -10z m124 -65 c-16 -25 -34
-33 -34 -16 0 7 37 38 48 40 1 1 -5 -10 -14 -24z m-309 -55 c16 -16 35 -30 42
-30 7 0 13 -9 13 -19 0 -17 8 -19 77 -20 84 -1 129 -20 53 -22 -47 -2 -71 -4
-80 -8 -23 -10 -56 -8 -82 5 -17 9 -33 12 -37 7 -9 -12 -121 -11 -121 2 0 6
14 28 32 49 21 25 28 41 20 44 -24 8 -11 22 21 22 24 0 41 -8 62 -30z m-201
-126 c9 -3 16 -10 16 -16 0 -14 -43 -5 -48 10 -4 13 7 15 32 6z m206 -14 c0
-5 -4 -10 -10 -10 -5 0 -10 5 -10 10 0 6 5 10 10 10 6 0 10 -4 10 -10z m209 4
c17 -4 31 -12 31 -19 0 -7 9 -24 20 -38 28 -35 25 -63 -7 -79 -30 -14 -73 -13
-73 3 0 6 -10 3 -22 -5 -12 -9 -30 -16 -40 -16 -10 0 -18 -2 -18 -5 0 -16 42
-85 51 -85 6 0 20 -11 31 -25 14 -18 26 -24 39 -20 10 4 19 2 19 -4 0 -5 2
-16 5 -24 5 -11 -8 -14 -64 -14 l-69 0 15 23 c14 22 14 24 -2 30 -9 4 -21 2
-27 -4 -8 -8 -17 -8 -30 -1 -13 7 -23 7 -32 0 -6 -5 -31 -9 -54 -8 -46 1 -47
-2 18 70 l25 28 -24 18 c-30 23 -17 31 46 28 44 -2 53 1 76 28 33 37 43 72 28
96 -6 10 -11 21 -11 24 0 7 31 6 69 -1z m-369 -244 c0 -5 -4 -10 -10 -10 -5 0
-10 5 -10 10 0 6 5 10 10 10 6 0 10 -4 10 -10z m800 -20 c0 -5 -4 -10 -10 -10
-5 0 -10 5 -10 10 0 6 5 10 10 10 6 0 10 -4 10 -10z m-660 -160 c0 -5 -4 -10
-10 -10 -5 0 -10 5 -10 10 0 6 5 10 10 10 6 0 10 -4 10 -10z m23 -70 c19 -16
39 -30 43 -30 5 0 14 -10 19 -22 9 -21 17 -23 82 -23 46 0 69 -3 62 -10 -9 -9
-64 -15 -144 -15 -22 1 -75 0 -117 0 -51 0 -78 4 -78 11 0 6 14 27 30 46 17
19 28 38 25 44 -4 5 -3 14 0 19 11 19 44 10 78 -20z m-183 -30 c0 -5 -4 -10
-10 -10 -5 0 -10 5 -10 10 0 6 5 10 10 10 6 0 10 -4 10 -10z m480 -55 c0 -8
-4 -15 -10 -15 -5 0 -10 7 -10 15 0 8 5 15 10 15 6 0 10 -7 10 -15z m-493 -50
c8 -9 12 -19 9 -23 -4 -3 -11 0 -15 7 -5 7 -14 11 -20 7 -7 -5 -9 -1 -5 8 8
20 12 20 31 1z m421 -11 c21 -4 29 -11 25 -20 -3 -8 0 -14 6 -14 5 0 15 -9 21
-21 15 -26 -13 -74 -37 -64 -9 3 -20 0 -25 -7 -6 -10 -10 -10 -17 1 -8 12 -12
12 -26 -2 -9 -10 -25 -17 -36 -17 -20 0 -27 -34 -9 -45 6 -3 10 -15 10 -25 0
-13 9 -22 25 -26 14 -3 23 -10 20 -14 -8 -13 21 -31 39 -24 19 7 34 -22 18
-38 -12 -12 -122 -19 -122 -8 0 4 7 13 15 20 23 19 18 33 -12 27 -15 -3 -37 0
-50 6 -19 8 -26 7 -37 -8 -12 -16 -16 -17 -29 -6 -12 9 -21 10 -36 1 -33 -17
-25 0 21 47 40 41 41 42 25 67 -10 14 -17 28 -17 31 0 10 50 5 70 -7 18 -12
25 -8 60 28 41 43 59 87 41 98 -17 11 -13 26 8 26 10 0 32 -3 49 -6z m-328
-144 c0 -5 -4 -10 -10 -10 -5 0 -10 5 -10 10 0 6 5 10 10 10 6 0 10 -4 10 -10z
m395 -180 c3 -5 -3 -10 -14 -10 -12 0 -21 5 -21 10 0 6 6 10 14 10 8 0 18 -4
21 -10z m14 -141 c-19 -12 -24 -2 -8 17 9 11 14 13 17 4 3 -7 -2 -16 -9 -21z
m-289 -29 c17 -16 37 -30 44 -30 8 0 16 -10 19 -21 5 -17 11 -20 31 -15 14 3
27 2 30 -3 3 -4 23 -5 45 -1 36 6 61 -2 61 -20 0 -3 -28 -5 -62 -4 -35 0 -72
-4 -82 -9 -14 -7 -29 -5 -53 8 -22 12 -37 15 -45 8 -7 -5 -39 -10 -70 -12 -68
-3 -73 8 -28 57 17 18 30 42 30 53 0 30 44 24 80 -11z m350 -70 c0 -18 -24
-28 -42 -17 -15 10 -20 9 -28 -3 -5 -8 -12 -11 -15 -8 -13 13 20 34 52 34 18
-1 33 -3 33 -6z m-547 -58 c16 -18 16 -19 -13 -19 -30 0 -42 21 -17 30 6 3 12
6 13 6 0 1 8 -7 17 -17z m410 -12 c15 -7 27 -17 27 -21 0 -18 74 -80 94 -77
15 2 22 -3 24 -19 3 -23 2 -23 -100 -21 -57 1 -113 -2 -125 -6 -31 -11 -30 6
3 41 19 20 25 36 23 63 -3 36 6 63 19 57 4 -2 19 -9 35 -17z m240 8 c12 -10
17 -31 18 -83 3 -101 -4 -117 -49 -113 l-37 3 -3 97 c-2 86 -1 97 15 101 31 8
39 7 56 -5z m368 -293 c4 -165 7 -338 8 -385 1 -47 2 -90 2 -97 -1 -7 -19 -13
-43 -15 -31 -2 -44 -8 -46 -20 -3 -15 4 -18 36 -18 22 0 44 -6 50 -13 7 -7 12
-69 13 -147 l1 -135 -43 0 -43 0 3 48 c5 90 -20 141 -37 75 -7 -28 -12 -32
-42 -33 -27 0 -35 4 -38 20 -8 40 -22 39 -24 0 0 -22 0 -47 0 -55 4 -44 -8
-60 -45 -60 -20 0 -52 5 -70 12 -27 10 -38 10 -53 0 -23 -14 -50 -16 -50 -4 0
25 102 43 115 21 13 -20 29 -2 31 34 3 40 -14 61 -23 28 -11 -41 -92 -42 -103
-1 -7 24 -5 25 32 22 66 -7 68 0 68 184 l0 164 56 0 57 0 -4 158 -4 157 36 3
36 3 12 -57 c6 -32 11 -109 11 -172 0 -77 3 -113 11 -110 14 5 12 347 -2 364
-6 8 -21 9 -45 4 -19 -4 -44 -6 -55 -3 -12 3 -25 0 -29 -7 -4 -7 -6 -75 -3
-151 l6 -139 -24 -8 c-30 -11 -56 -5 -65 16 -4 10 -9 150 -12 314 l-4 296 23
4 c13 2 85 3 159 3 l135 0 6 -300z m105 281 c3 -13 4 -38 2 -57 -3 -32 -5 -34
-43 -34 l-40 0 -3 44 c-5 61 2 71 42 71 29 0 37 -4 42 -24z m54 4 c0 -5 -4
-10 -10 -10 -5 0 -10 5 -10 10 0 6 5 10 10 10 6 0 10 -4 10 -10z m-1040 -50
c0 -5 -4 -10 -10 -10 -5 0 -10 5 -10 10 0 6 5 10 10 10 6 0 10 -4 10 -10z
m963 -79 l24 -10 7 -273 c3 -150 7 -320 9 -378 l2 -105 -42 -3 -41 -3 -6 258
c-3 142 -9 311 -12 376 -7 142 1 160 59 138z m-839 -17 c21 -3 36 -12 36 -20
0 -8 5 -14 10 -14 6 0 10 -6 10 -12 0 -21 87 -99 103 -92 9 3 16 -3 20 -15 3
-15 13 -21 31 -21 14 0 26 -4 26 -10 0 -11 -43 -14 -53 -3 -4 4 -32 5 -63 4
l-56 -3 7 31 c6 27 4 31 -13 31 -11 0 -22 -5 -24 -11 -3 -9 -10 -8 -25 1 -12
8 -28 10 -39 5 -24 -10 -84 -12 -84 -2 0 4 8 15 18 25 56 59 57 60 38 81 -19
21 -13 46 9 37 8 -3 30 -8 49 -12z m-244 -44 c0 -5 -4 -10 -10 -10 -5 0 -10 5
-10 10 0 6 5 10 10 10 6 0 10 -4 10 -10z m100 0 c0 -5 -4 -10 -10 -10 -5 0
-10 5 -10 10 0 6 5 10 10 10 6 0 10 -4 10 -10z m562 -175 c3 -77 6 -241 5
-365 l-2 -225 -42 -3 c-42 -3 -43 -3 -45 30 -1 18 -1 61 0 96 2 57 -4 73 -21
55 -4 -3 -53 -7 -109 -8 -104 -2 -148 -10 -148 -26 0 -5 5 -9 10 -9 6 0 10 -7
10 -15 0 -8 12 -29 28 -45 15 -17 33 -37 40 -46 11 -12 17 -13 28 -3 12 10 16
8 21 -9 4 -16 13 -22 34 -22 29 0 48 -15 27 -23 -7 -2 -25 -1 -39 3 -14 4 -53
6 -87 4 -62 -5 -75 3 -47 26 24 20 18 33 -12 27 -15 -3 -38 -1 -51 4 -19 7
-27 6 -38 -8 -11 -16 -16 -16 -35 -5 -18 11 -23 12 -30 1 -4 -8 -11 -10 -15
-6 -4 4 9 24 29 45 40 41 46 62 22 82 -8 7 -15 16 -15 21 0 13 57 11 81 -3 18
-12 24 -8 60 32 37 42 54 100 29 100 -5 0 -10 5 -10 10 0 6 17 10 38 10 32 0
43 -7 81 -49 38 -45 47 -50 82 -48 l38 1 -6 58 c-4 39 -2 62 6 72 8 9 10 27 6
45 -4 17 -8 59 -10 93 -2 35 -7 100 -10 145 -3 46 -3 88 0 93 4 6 26 10 48 8
l42 -3 7 -140z m-122 -47 c0 -11 -8 -22 -19 -25 -11 -3 -22 -11 -25 -19 -3 -8
-13 -14 -23 -14 -14 0 -12 5 10 28 15 15 27 36 27 45 0 10 5 14 15 11 8 -4 15
-15 15 -26z m-351 -83 c21 -19 42 -35 47 -35 5 0 15 -9 22 -20 7 -11 21 -20
31 -20 24 0 51 -10 51 -19 0 -12 -103 -11 -132 1 -15 7 -28 21 -28 30 0 10 -5
18 -11 18 -7 0 -9 -10 -7 -25 6 -28 -9 -35 -69 -33 -40 2 -41 11 -8 54 14 18
25 42 25 52 0 18 11 29 32 31 5 1 25 -15 47 -34z m979 -170 c0 -48 -2 -54 -8
-30 -4 17 -8 64 -8 105 0 68 1 71 9 30 4 -25 7 -72 7 -105z m-628 96 c0 -14
-22 -26 -48 -26 -29 -1 -23 17 9 26 35 10 39 10 39 0z m-160 -21 c0 -5 -4 -10
-10 -10 -5 0 -10 5 -10 10 0 6 5 10 10 10 6 0 10 -4 10 -10z m1398 -47 l3 -42
-43 -6 c-46 -6 -112 -2 -139 9 -10 4 -23 0 -33 -10 -28 -27 -3 -34 109 -33
l99 2 9 -33 c5 -21 4 -37 -2 -43 -6 -6 -57 -12 -113 -13 -86 -1 -104 -5 -106
-18 -2 -9 1 -16 7 -16 12 0 15 -76 3 -84 -7 -4 -133 -7 -284 -7 l-68 0 0 45 0
46 80 0 c82 0 96 8 58 34 -12 8 -23 29 -25 46 -2 25 2 32 23 40 46 18 16 32
-60 28 l-71 -3 -3 48 c-3 46 -3 47 27 47 24 0 31 -4 31 -20 0 -14 7 -20 21
-20 12 0 23 8 26 20 5 19 14 20 122 20 78 0 121 -4 129 -12 9 -9 15 -9 24 0
19 19 55 14 61 -8 7 -26 37 -26 44 -1 5 20 25 30 53 27 10 -1 16 -15 18 -43z
m80 18 c3 -8 -1 -12 -9 -9 -7 2 -15 10 -17 17 -3 8 1 12 9 9 7 -2 15 -10 17
-17z m431 -8 c13 3 17 0 14 -12 -2 -9 10 -30 29 -48 25 -24 43 -33 76 -34 32
-2 41 -7 37 -17 -3 -8 3 -16 15 -19 11 -3 20 -9 20 -15 0 -8 -119 -5 -137 4
-21 11 -183 -4 -183 -18 0 -21 39 -76 57 -80 13 -4 21 -10 18 -14 -7 -11 32
-43 44 -35 6 3 14 -1 17 -9 4 -10 18 -16 36 -16 19 0 28 -4 25 -12 -3 -9 -18
-11 -48 -8 -24 2 -65 5 -92 5 -37 0 -44 2 -32 11 8 6 15 19 15 28 0 18 -21 21
-37 5 -8 -8 -16 -7 -30 2 -13 8 -27 9 -39 4 -23 -11 -84 -13 -84 -3 0 4 14 23
30 41 29 34 40 77 20 77 -5 0 -10 7 -10 15 0 18 29 19 66 3 24 -11 29 -9 65
30 38 40 51 83 29 97 -5 3 -10 10 -10 15 0 12 43 18 57 7 7 -5 21 -7 32 -4z
m-2294 -3 c3 -5 -1 -10 -9 -10 -9 0 -16 5 -16 10 0 6 4 10 9 10 6 0 13 -4 16
-10z m2525 -40 c0 -5 -4 -10 -10 -10 -5 0 -10 5 -10 10 0 6 5 10 10 10 6 0 10
-4 10 -10z m375 -54 c34 -27 31 -35 -11 -37 -39 -2 -84 -19 -84 -32 0 -5 19
-34 42 -64 35 -46 45 -53 66 -48 18 4 25 1 29 -15 3 -11 14 -20 24 -20 11 0
19 -5 19 -10 0 -10 -29 -8 -97 6 -12 2 -23 0 -25 -6 -2 -6 -15 -6 -32 -2 l-30
8 24 17 c29 20 15 46 -16 29 -22 -11 -84 -4 -84 9 0 5 -5 9 -12 9 -9 0 -9 -3
0 -12 21 -21 13 -29 -25 -22 -21 4 -40 8 -42 10 -2 2 15 23 37 46 l41 42 -19
21 c-30 32 -25 38 31 32 47 -6 52 -4 87 28 20 19 39 35 42 35 3 0 19 -11 35
-24z m-1597 -38 c-3 -42 -4 -43 -38 -43 -34 0 -35 1 -38 43 l-3 42 41 0 41 0
-3 -42z m-1218 -28 c0 -5 -4 -10 -10 -10 -5 0 -10 5 -10 10 0 6 5 10 10 10 6
0 10 -4 10 -10z m1087 -22 c-3 -7 -5 -2 -5 12 0 14 2 19 5 13 2 -7 2 -19 0
-25z m-607 -18 c0 -5 -4 -10 -10 -10 -5 0 -10 5 -10 10 0 6 5 10 10 10 6 0 10
-4 10 -10z m1226 -35 c3 -14 4 -32 0 -40 -6 -17 -26 -21 -26 -5 0 6 -18 10
-40 10 -29 0 -40 -4 -40 -15 0 -15 16 -20 58 -16 16 1 22 -4 22 -19 0 -29 -62
-28 -90 2 -11 12 -23 18 -27 15 -13 -14 -43 27 -43 60 l0 33 90 0 c87 0 90 -1
96 -25z m114 -5 c0 -5 -4 -10 -10 -10 -5 0 -10 5 -10 10 0 6 5 10 10 10 6 0
10 -4 10 -10z m-775 -81 c8 -12 13 -138 7 -156 -2 -8 -21 -13 -46 -13 l-42 0
1 78 c0 42 4 83 8 90 10 15 63 16 72 1z m1305 -10 c0 -6 -4 -7 -10 -4 -5 3
-10 11 -10 16 0 6 5 7 10 4 6 -3 10 -11 10 -16z m-796 2 c18 -7 23 -15 19 -29
-5 -21 18 -44 25 -24 9 28 102 6 102 -24 0 -5 -5 -3 -12 4 -14 14 -80 16 -93
3 -14 -13 -204 -16 -216 -4 -6 6 -9 23 -7 39 3 27 6 29 58 35 90 9 98 9 124 0z
m-214 -41 c0 -45 12 -41 -135 -44 l-60 -1 -3 43 -3 42 100 0 101 0 0 -40z
m460 -20 c0 -10 10 -25 23 -31 25 -14 37 -28 37 -47 0 -10 -8 -8 -27 6 -16 10
-36 22 -46 25 -24 9 -32 34 -17 52 17 21 30 19 30 -5z m280 10 c0 -5 -4 -10
-10 -10 -5 0 -10 5 -10 10 0 6 5 10 10 10 6 0 10 -4 10 -10z m358 -13 c2 -9
10 -17 18 -17 11 0 34 -36 34 -53 0 -1 -11 -3 -25 -3 -15 -1 -25 3 -25 12 0 7
-12 21 -26 30 -24 16 -27 16 -54 1 -15 -9 -35 -17 -44 -17 -9 0 -16 -7 -16
-15 0 -8 -9 -15 -20 -15 -25 0 -25 8 -1 34 11 12 21 28 23 36 4 20 32 28 88
25 33 -1 46 -6 48 -18z m-1338 -24 c0 -26 -3 -34 -11 -26 -9 9 -3 63 7 63 2 0
4 -17 4 -37z m-1060 17 c0 -5 -4 -10 -10 -10 -5 0 -10 5 -10 10 0 6 5 10 10
10 6 0 10 -4 10 -10z m428 -2 c21 -21 13 -42 -23 -67 -46 -31 -54 -22 -16 20
23 25 28 36 19 46 -13 16 4 17 20 1z m357 -58 c0 -22 -4 -25 -40 -25 -36 0
-40 3 -43 28 -3 27 -2 28 40 25 38 -3 43 -6 43 -28z m2085 5 c-7 -9 -15 -13
-19 -10 -3 3 1 10 9 15 21 14 24 12 10 -5z m-1212 -7 c-3 -7 -10 -13 -16 -12
-7 1 -129 2 -273 3 -170 0 -258 4 -254 11 10 16 548 13 543 -2z m924 -28 c17
-16 36 -30 42 -30 6 0 16 -10 21 -22 9 -21 17 -23 84 -23 43 0 76 -4 78 -10 2
-7 -21 -10 -62 -9 -36 1 -67 -2 -70 -6 -6 -9 -64 0 -71 11 -6 11 -44 12 -44 1
0 -11 -108 -14 -115 -3 -3 6 9 27 27 47 18 21 32 46 30 56 -5 30 43 23 80 -12z
m-611 -30 l50 -50 74 0 c98 0 110 -19 13 -22 -40 -1 -89 -1 -108 0 -19 0 -70
2 -112 3 -43 0 -78 4 -78 9 0 4 14 21 30 38 17 18 30 41 30 52 0 38 46 25 101
-30z m-1865 -12 l56 -53 69 -1 c38 0 74 -5 80 -11 8 -8 -6 -11 -52 -11 -35 0
-72 -3 -82 -7 -10 -4 -35 -3 -55 2 -50 14 -102 15 -102 1 0 -7 -4 -7 -14 1 -7
6 -20 9 -29 5 -27 -10 -28 14 -1 45 14 17 27 38 28 47 2 15 23 34 38 34 5 0
33 -24 64 -52z m1538 6 c12 -30 6 -42 -24 -49 -21 -5 -37 -1 -54 12 -31 22
-32 27 -3 41 33 16 74 14 81 -4z m516 6 c0 -5 -4 -10 -10 -10 -5 0 -10 5 -10
10 0 6 5 10 10 10 6 0 10 -4 10 -10z m-2300 -20 c0 -5 -4 -10 -10 -10 -5 0
-10 5 -10 10 0 6 5 10 10 10 6 0 10 -4 10 -10z m300 0 c0 -5 -4 -10 -10 -10
-5 0 -10 5 -10 10 0 6 5 10 10 10 6 0 10 -4 10 -10z m860 0 c-38 -12 -538 -12
-545 0 -4 7 92 10 282 9 160 -1 277 -5 263 -9z m1293 -40 c5 -4 -14 -8 -42 -8
-47 -2 -61 5 -45 21 7 7 76 -3 87 -13z m637 10 c12 -5 -47 -16 -67 -12 -40 7
-25 20 20 17 23 -1 44 -3 47 -5z m-2530 -32 c0 -6 -7 -7 -16 -4 -9 3 -20 6
-25 6 -6 0 -8 4 -5 9 8 12 46 2 46 -11z m690 7 c-7 -9 -15 -13 -17 -11 -7 7 7
26 19 26 6 0 6 -6 -2 -15z m-535 -4 c2 -5 -4 -16 -15 -26 -17 -15 -24 -16 -45
-7 -39 18 -32 40 15 40 22 0 42 -3 45 -7z m3061 -19 c-9 -9 -37 8 -31 18 5 8
11 7 21 -1 8 -6 12 -14 10 -17z m-1890 -6 c20 -21 17 -28 -8 -20 -29 8 -31 10
-23 23 8 14 14 14 31 -3z m634 -1 c11 -13 10 -14 -4 -9 -9 3 -22 1 -30 -5 -7
-6 -16 -8 -19 -4 -6 6 21 32 34 33 4 0 12 -7 19 -15z m640 5 c0 -5 -9 -10 -20
-10 -11 0 -20 5 -20 10 0 6 9 10 20 10 11 0 20 -4 20 -10z m720 0 c0 -5 -4
-10 -10 -10 -5 0 -10 5 -10 10 0 6 5 10 10 10 6 0 10 -4 10 -10z m190 0 c0 -5
-4 -10 -10 -10 -5 0 -10 5 -10 10 0 6 5 10 10 10 6 0 10 -4 10 -10z m157 -43
c47 -48 55 -53 87 -49 31 4 36 1 36 -17 0 -12 6 -21 14 -21 8 0 18 -5 21 -11
7 -10 -79 -8 -175 4 -42 5 -121 -13 -127 -30 -7 -18 27 -63 48 -63 13 0 18 -6
16 -22 -2 -18 4 -24 26 -26 15 -2 32 -12 37 -23 6 -10 20 -19 30 -19 22 0 27
-15 9 -26 -6 -3 -16 -1 -22 5 -6 6 -42 11 -79 11 -39 0 -68 4 -68 10 0 6 5 10
10 10 6 0 10 7 10 15 0 11 -9 15 -28 13 -15 -1 -33 2 -40 6 -7 4 -18 3 -25 -2
-13 -11 -87 -12 -87 -2 0 4 17 26 37 49 l37 43 -23 17 c-20 15 -21 19 -7 30
12 10 22 10 50 0 33 -12 38 -11 62 12 14 13 34 36 44 50 17 23 17 28 4 53 -19
37 -19 36 19 36 26 0 43 -10 84 -53z m-1275 30 c10 -1 17 -6 16 -12 -1 -5 14
-27 33 -47 27 -29 43 -38 69 -38 22 0 40 -8 57 -26 13 -14 22 -29 18 -32 -3
-3 -42 -1 -88 5 -77 10 -103 10 -184 -3 -28 -4 -33 -9 -33 -32 0 -32 16 -52
42 -52 11 0 23 -11 28 -26 8 -19 15 -24 29 -19 14 4 23 0 31 -15 6 -11 21 -20
35 -20 13 0 27 -4 30 -10 4 -6 -31 -9 -94 -9 -56 1 -101 5 -101 9 0 4 7 13 15
20 9 7 13 16 9 19 -9 9 -97 10 -114 1 -9 -5 -31 -5 -50 -1 l-34 7 37 41 c41
45 44 55 22 73 -8 7 -15 16 -15 21 0 13 44 11 73 -2 22 -10 29 -7 66 32 39 41
41 47 36 88 -5 43 -5 43 23 37 15 -4 35 -8 44 -9z m-2924 -9 c17 -17 15 -33
-3 -18 -8 6 -19 9 -25 5 -11 -7 -14 8 -3 18 9 10 17 9 31 -5z m1067 -26 c0 -5
15 -25 33 -46 29 -34 36 -36 73 -32 38 5 41 3 36 -16 -4 -14 0 -22 14 -25 10
-3 16 -9 13 -14 -7 -13 -61 -11 -70 2 -3 6 -15 8 -27 5 -11 -3 -29 0 -39 5
-13 7 -23 7 -32 0 -9 -7 -22 -8 -37 -2 -17 6 -32 4 -51 -7 -20 -12 -31 -13
-39 -5 -8 8 -1 22 25 51 40 44 43 57 20 84 -16 16 -15 18 7 26 23 9 74 -9 74
-26z m577 27 c13 -6 38 -31 56 -55 25 -34 39 -44 56 -42 12 1 34 -5 49 -15 14
-9 31 -17 37 -17 5 0 10 -7 10 -16 0 -14 -8 -16 -62 -9 -174 20 -238 12 -238
-29 0 -27 26 -66 44 -66 8 0 16 -9 19 -20 3 -13 14 -20 30 -20 16 0 26 -7 30
-20 3 -14 14 -20 31 -20 14 0 26 -4 26 -9 0 -9 -160 -5 -169 4 -2 3 2 11 9 20
7 9 10 19 6 23 -14 13 -104 11 -116 -3 -8 -10 -16 -10 -35 -1 -31 14 -31 25 0
55 26 24 33 55 15 66 -29 18 10 41 41 25 30 -16 62 -2 92 41 24 34 28 45 22
79 -7 44 3 50 47 29z m368 1 c0 -5 -4 -10 -10 -10 -5 0 -10 5 -10 10 0 6 5 10
10 10 6 0 10 -4 10 -10z m268 4 c18 -4 29 -11 26 -18 -6 -15 62 -81 84 -82 46
-3 52 -5 52 -19 0 -9 9 -15 25 -15 14 0 25 -5 25 -11 0 -9 -21 -10 -77 -4 -43
4 -85 7 -93 6 -8 0 -41 -2 -72 -4 -71 -3 -87 -16 -67 -54 17 -34 30 -44 47
-38 9 3 11 -1 8 -13 -6 -19 -6 -19 87 -62 47 -22 54 -40 15 -40 -12 0 -22 8
-25 20 -4 14 -9 17 -17 11 -14 -12 -126 -22 -126 -11 0 4 7 13 15 20 8 7 15
19 15 26 0 17 -22 18 -38 2 -8 -8 -15 -8 -27 2 -12 10 -21 10 -38 3 -26 -13
-97 -15 -97 -3 0 5 14 18 30 30 44 31 55 57 36 79 -9 10 -16 23 -16 29 0 15
46 16 55 2 13 -21 44 -8 84 35 40 43 52 77 31 90 -16 10 -11 25 9 25 10 0 32
-3 49 -6z m-1068 -14 c0 -5 -4 -10 -10 -10 -5 0 -10 5 -10 10 0 6 5 10 10 10
6 0 10 -4 10 -10z m314 -15 c-14 -14 -36 -25 -50 -25 -21 0 -23 2 -12 20 11
17 25 22 75 29 7 0 1 -10 -13 -24z m2062 -15 c24 -22 51 -40 59 -40 19 0 75
-40 75 -53 0 -5 -26 -6 -62 -1 -56 7 -101 8 -174 5 -11 -1 -28 -7 -38 -14 -17
-13 -17 -15 -1 -46 9 -18 25 -35 35 -38 10 -3 20 -13 23 -24 3 -11 14 -19 26
-19 11 0 25 -9 31 -20 7 -13 21 -20 42 -20 17 0 28 -3 24 -7 -9 -10 -196 -11
-196 -2 0 4 7 12 15 19 9 7 14 18 12 23 -4 14 -89 18 -104 5 -13 -10 -73 -2
-73 10 0 4 16 24 36 45 l36 37 -23 19 c-40 33 -1 56 45 26 22 -15 56 -12 56 5
0 5 14 22 30 38 20 21 30 40 30 61 0 27 4 31 26 31 17 0 42 -14 70 -40z
m-3476 20 c0 -5 -4 -10 -10 -10 -5 0 -10 5 -10 10 0 6 5 10 10 10 6 0 10 -4
10 -10z m308 4 c12 -4 22 -12 22 -18 0 -7 16 -27 35 -46 25 -24 44 -34 67 -34
23 1 35 -5 40 -18 4 -10 17 -18 28 -18 11 0 20 -4 20 -9 0 -10 -127 -8 -151 3
-9 4 -35 2 -60 -3 -32 -7 -45 -7 -51 2 -5 9 -10 9 -20 -1 -13 -13 -48 -17 -48
-4 0 5 14 21 31 38 27 26 30 34 26 72 -4 38 -2 42 17 42 11 0 31 -3 44 -6z
m112 -44 c0 -5 -4 -10 -10 -10 -5 0 -10 5 -10 10 0 6 5 10 10 10 6 0 10 -4 10
-10z m1440 -40 c0 -5 -4 -10 -10 -10 -5 0 -10 5 -10 10 0 6 5 10 10 10 6 0 10
-4 10 -10z m-1880 -60 c0 -5 -4 -10 -10 -10 -5 0 -10 5 -10 10 0 6 5 10 10 10
6 0 10 -4 10 -10z m165 0 c3 -5 15 -10 25 -10 11 0 28 -16 42 -42 18 -32 30
-42 46 -41 15 2 20 -2 15 -12 -8 -22 14 -43 41 -38 17 4 25 0 29 -16 3 -13 13
-21 26 -21 12 0 21 -4 21 -8 0 -5 -43 -8 -95 -8 -52 1 -95 5 -95 9 0 5 7 15
15 23 8 9 15 20 15 25 0 13 -24 11 -38 -3 -10 -10 -17 -10 -33 0 -14 9 -25 10
-32 3 -16 -13 -87 -10 -87 4 0 6 16 27 36 48 l37 38 -22 23 c-11 12 -18 26
-14 29 10 11 61 8 68 -3z m630 0 c3 -5 14 -10 24 -10 10 0 24 -12 32 -27 22
-43 84 -103 108 -103 12 0 21 -6 21 -15 0 -10 10 -15 30 -15 17 0 30 -5 30
-11 0 -11 -165 -7 -177 5 -4 3 -1 12 5 18 22 22 12 27 -45 23 -87 -7 -133 -6
-133 5 0 3 16 21 35 40 39 37 43 51 20 70 -8 7 -15 16 -15 21 0 12 57 11 65
-1z m-235 -140 c0 -5 -4 -10 -10 -10 -5 0 -10 5 -10 10 0 6 5 10 10 10 6 0 10
-4 10 -10z m3660 -16 c0 -9 -5 -14 -12 -12 -18 6 -21 28 -4 28 9 0 16 -7 16
-16z m-1540 -4 c0 -5 -4 -10 -10 -10 -5 0 -10 5 -10 10 0 6 5 10 10 10 6 0 10
-4 10 -10z m310 0 c0 -5 -9 -10 -20 -10 -11 0 -20 5 -20 10 0 6 9 10 20 10 11
0 20 -4 20 -10z m-650 -10 c0 -5 -4 -10 -10 -10 -5 0 -10 5 -10 10 0 6 5 10
10 10 6 0 10 -4 10 -10z m-1860 -15 c0 -8 -4 -15 -9 -15 -13 0 -22 16 -14 24
11 11 23 6 23 -9z m620 5 c0 -5 -4 -10 -10 -10 -5 0 -10 5 -10 10 0 6 5 10 10
10 6 0 10 -4 10 -10z m620 0 c0 -5 -7 -10 -15 -10 -8 0 -15 5 -15 10 0 6 7 10
15 10 8 0 15 -4 15 -10z m-1720 -15 c0 -8 -4 -15 -10 -15 -5 0 -10 7 -10 15 0
8 5 15 10 15 6 0 10 -7 10 -15z m120 -45 c0 -5 -4 -10 -10 -10 -5 0 -10 5 -10
10 0 6 5 10 10 10 6 0 10 -4 10 -10z"/>
<path d="M526 4381 c-4 -7 -5 -15 -2 -18 9 -9 19 4 14 18 -4 11 -6 11 -12 0z"/>
<path d="M540 3090 c0 -5 5 -10 10 -10 6 0 10 5 10 10 0 6 -4 10 -10 10 -5 0
-10 -4 -10 -10z"/>
<path d="M560 2460 c0 -11 5 -20 10 -20 6 0 10 9 10 20 0 11 -4 20 -10 20 -5
0 -10 -9 -10 -20z"/>
<path d="M600 2455 c0 -9 5 -15 11 -13 6 2 11 8 11 13 0 5 -5 11 -11 13 -6 2
-11 -4 -11 -13z"/>
<path d="M575 1831 c-6 -11 9 -23 19 -14 9 9 7 23 -3 23 -6 0 -12 -4 -16 -9z"/>
<path d="M1287 1695 c-9 -9 -24 -29 -34 -45 -9 -17 -21 -30 -25 -30 -4 0 -8
-9 -8 -19 0 -11 -4 -21 -10 -23 -5 -1 -11 -14 -12 -28 -3 -22 1 -25 35 -28 37
-3 49 -16 25 -25 -21 -9 13 -28 42 -25 23 3 25 7 23 48 -2 25 -4 75 -5 112 -3
75 -9 86 -31 63z m-7 -103 c0 -35 -6 -41 -31 -35 -23 6 -24 21 -2 45 23 26 33
22 33 -10z"/>
<path d="M1253 1043 c-13 -5 -19 -94 -7 -106 3 -3 17 -2 30 3 45 17 74 -48 38
-84 -23 -23 -43 -20 -50 9 -8 31 -34 33 -34 3 0 -37 14 -49 58 -51 56 -2 84
31 76 88 -8 52 -19 64 -65 71 -50 8 -51 31 -1 39 54 9 64 14 57 25 -6 10 -80
13 -102 3z"/>
<path d="M592 1198 c-14 -14 -16 -38 -4 -38 12 0 32 23 32 37 0 16 -12 17 -28
1z"/>
<path d="M1895 1060 c-9 -10 -15 -26 -12 -35 9 -22 37 -19 37 5 0 29 30 38 46
15 20 -27 18 -34 -16 -53 -32 -18 -39 -32 -17 -32 21 0 49 -36 45 -57 -2 -11
-14 -19 -31 -21 -22 -3 -27 1 -27 18 0 16 -5 21 -22 18 -32 -4 -29 -36 4 -61
62 -47 154 37 102 94 -12 13 -13 22 -5 38 15 28 14 57 -5 75 -22 22 -77 20
-99 -4z"/>
<path d="M3100 560 c0 -5 5 -10 10 -10 6 0 10 5 10 10 0 6 -4 10 -10 10 -5 0
-10 -4 -10 -10z"/>
<path d="M2460 550 c0 -11 5 -20 10 -20 6 0 10 9 10 20 0 11 -4 20 -10 20 -5
0 -10 -9 -10 -20z"/>
<path d="M2500 554 c0 -9 5 -14 12 -12 18 6 21 28 4 28 -9 0 -16 -7 -16 -16z"/>
<path d="M600 535 c0 -8 5 -15 10 -15 6 0 10 7 10 15 0 8 -4 15 -10 15 -5 0
-10 -7 -10 -15z"/>
<path d="M2740 370 c0 -5 5 -10 10 -10 6 0 10 5 10 10 0 6 -4 10 -10 10 -5 0
-10 -4 -10 -10z"/>
<path d="M4287 4313 c-12 -12 -7 -35 6 -30 7 2 39 1 71 -5 32 -5 61 -7 63 -4
3 2 -5 14 -16 25 -16 16 -34 21 -69 21 -27 0 -52 -3 -55 -7z"/>
<path d="M3667 4303 c-17 -16 -4 -23 42 -23 28 0 53 -4 56 -10 3 -5 17 -10 31
-10 24 0 24 1 8 25 -14 22 -24 25 -73 25 -32 0 -61 -3 -64 -7z"/>
<path d="M1792 4282 c-29 -9 -8 -22 37 -22 28 0 53 -4 56 -10 9 -15 35 -12 35
4 0 8 -5 18 -12 22 -13 8 -97 13 -116 6z"/>
<path d="M4845 4250 c-10 -21 -15 -48 -13 -58 3 -12 -4 -31 -18 -48 -13 -16
-23 -38 -24 -49 0 -11 -11 -44 -25 -74 l-25 -54 21 -44 c16 -33 32 -49 63 -62
76 -35 76 -35 76 9 0 30 -5 40 -20 45 -11 3 -20 12 -20 19 0 7 -10 21 -21 32
-35 31 -42 62 -20 90 l19 24 25 -20 c14 -11 28 -20 31 -20 11 0 6 149 -5 156
-7 4 -9 23 -5 50 7 57 -14 60 -39 4z"/>
<path d="M3606 4248 c-9 -17 -16 -43 -16 -58 0 -15 -9 -38 -20 -52 -10 -14
-21 -36 -24 -50 -2 -14 -10 -36 -17 -49 -26 -50 -29 -59 -29 -84 0 -55 74
-125 131 -125 10 0 21 -4 24 -10 4 -6 55 -10 120 -10 65 0 116 4 120 10 3 6
24 10 45 10 31 0 43 6 59 29 37 52 25 68 -20 25 -21 -20 -32 -24 -51 -18 -12
4 -27 7 -33 5 -5 -2 -53 -4 -104 -6 -78 -3 -100 0 -120 14 -15 10 -34 21 -43
24 -10 4 -18 12 -18 19 0 7 -12 24 -25 37 -30 27 -32 61 -7 84 23 21 28 21 50
-1 26 -26 84 -18 96 14 5 14 -1 24 -49 77 -45 49 -51 78 -30 130 13 32 -23 19
-39 -15z"/>
<path d="M4220 4261 c0 -11 -4 -23 -10 -26 -5 -3 -10 -22 -10 -40 0 -19 -9
-49 -20 -67 -11 -18 -20 -41 -20 -51 0 -9 -4 -26 -10 -37 -5 -11 -14 -29 -20
-40 -14 -28 -11 -60 9 -94 17 -30 20 -33 86 -61 22 -10 48 -22 57 -26 28 -14
159 -10 221 6 32 8 66 15 76 15 21 0 71 50 71 71 0 30 -14 29 -47 -3 l-34 -33
-129 -1 c-77 -1 -127 3 -124 8 3 5 0 8 -7 7 -22 -5 -79 30 -79 47 0 9 -11 25
-25 36 -30 24 -33 63 -5 78 33 18 38 10 57 -97 3 -18 10 -34 17 -34 6 -1 18
-3 26 -4 8 0 28 -5 43 -9 21 -6 33 -4 47 9 11 10 20 22 20 27 0 17 -53 58 -76
58 -12 0 -26 5 -29 10 -4 7 -12 7 -25 0 -25 -13 -30 -13 -30 4 0 17 30 29 52
21 8 -3 25 6 38 20 13 14 20 26 17 26 -4 1 -10 2 -14 3 -18 3 -33 18 -33 33 0
8 -14 31 -31 51 -27 30 -30 40 -25 74 6 33 4 38 -14 38 -13 0 -20 -7 -20 -19z"/>
<path d="M1715 4224 c-8 -20 -15 -51 -15 -69 0 -19 -8 -39 -20 -50 -11 -10
-20 -31 -20 -46 0 -16 -9 -44 -20 -64 -25 -45 -25 -61 1 -110 21 -39 75 -75
113 -75 9 0 19 -7 22 -15 5 -13 23 -15 103 -12 54 3 107 9 118 16 12 6 35 11
50 11 20 0 40 11 61 33 l33 34 -3 99 c-3 94 -4 99 -26 102 -14 2 -38 25 -63
58 -37 51 -74 78 -91 68 -13 -8 4 -35 33 -50 16 -8 29 -21 29 -30 0 -17 33
-53 73 -78 26 -16 27 -19 23 -84 -5 -58 -9 -70 -34 -93 -26 -24 -35 -26 -72
-19 -23 4 -56 4 -74 0 -57 -14 -129 -6 -168 18 -21 13 -38 29 -38 35 0 7 -11
24 -25 39 -28 31 -31 55 -11 84 14 19 15 19 46 -5 23 -16 35 -20 39 -12 4 6
14 9 22 7 16 -6 65 31 55 41 -4 4 -11 2 -15 -5 -6 -10 -12 -7 -24 12 -10 14
-17 32 -17 39 0 8 -10 21 -22 29 -19 13 -22 24 -22 71 0 67 -18 76 -41 21z"/>
<path d="M4462 4218 c2 -13 15 -29 31 -36 16 -8 31 -21 34 -30 8 -22 48 -63
75 -76 12 -6 25 -22 28 -36 6 -22 7 -20 11 13 5 36 3 40 -33 60 -21 12 -45 36
-53 54 -8 17 -31 40 -51 52 -44 26 -46 26 -42 -1z"/>
<path d="M3840 4210 c0 -12 12 -26 30 -35 17 -9 36 -27 42 -40 6 -13 30 -38
54 -55 36 -26 43 -35 38 -55 -3 -12 -1 -26 6 -30 8 -5 10 8 8 46 -3 47 -6 54
-33 69 -16 9 -37 31 -46 50 -9 18 -31 41 -50 51 -44 23 -49 23 -49 -1z"/>
<path d="M3740 4044 c0 -8 5 -12 10 -9 6 3 10 10 10 16 0 5 -4 9 -10 9 -5 0
-10 -7 -10 -16z"/>
<path d="M3652 4001 c-10 -6 -11 -18 -3 -50 11 -51 17 -59 33 -43 9 9 17 7 36
-11 l24 -22 23 29 c19 24 21 33 13 52 -15 31 -99 62 -126 45z"/>
<path d="M1151 3981 c-10 -7 -11 -18 -4 -47 7 -32 14 -40 35 -42 15 -2 32 -10
38 -18 18 -20 33 -17 60 11 l24 25 -28 29 c-15 16 -38 31 -49 34 -12 3 -31 8
-42 11 -11 4 -26 2 -34 -3z"/>
<path d="M1763 3943 c2 -44 4 -48 28 -48 14 0 33 -6 42 -13 15 -13 25 -11 65
16 31 21 -30 74 -100 86 l-37 7 2 -48z"/>
<path d="M3875 3940 c-8 -13 25 -13 45 0 12 8 9 10 -12 10 -15 0 -30 -4 -33
-10z"/>
<path d="M1332 3908 c3 -7 20 -14 39 -16 40 -4 30 12 -14 22 -21 5 -28 3 -25
-6z"/>
<path d="M4645 3754 c-19 -14 -19 -16 -2 -28 23 -18 25 -153 2 -162 -31 -12
-13 -24 35 -24 51 0 60 6 38 28 -8 8 -15 51 -18 105 -5 99 -15 112 -55 81z"/>
<path d="M4344 3715 c-9 -14 -17 -38 -18 -55 -1 -17 -13 -42 -31 -60 -22 -23
-30 -41 -30 -68 l0 -37 -48 3 c-49 4 -97 -16 -97 -40 0 -7 14 -26 31 -44 27
-28 29 -33 15 -46 -27 -28 -45 -85 -36 -117 9 -33 86 -115 100 -106 5 3 -3 18
-19 33 -40 38 -52 132 -17 132 18 0 76 -57 76 -74 0 -11 10 -16 30 -16 35 0
38 10 10 28 -32 19 -24 34 9 17 17 -8 36 -12 43 -10 8 3 34 -8 59 -25 43 -29
89 -40 89 -20 0 6 -4 10 -10 10 -5 0 -10 5 -10 10 0 6 11 10 25 10 22 0 25 4
24 38 0 34 -1 35 -11 15 -6 -13 -20 -23 -31 -23 -15 0 -18 5 -13 24 5 20 2 25
-16 28 -14 2 -24 12 -28 28 -4 17 -14 26 -30 28 -21 2 -28 -4 -42 -38 -22 -50
-53 -55 -63 -9 -6 25 -2 36 18 57 39 42 48 67 37 96 -10 26 -34 35 -45 16 -14
-22 -35 -10 -35 20 0 20 5 30 15 30 8 0 19 9 25 20 6 11 16 20 23 20 7 0 20
-9 30 -20 22 -26 41 -25 81 5 18 14 43 25 54 25 28 0 29 17 2 25 -14 4 -20 15
-20 36 0 16 -7 41 -16 54 -14 21 -24 25 -65 25 -41 0 -51 -4 -65 -25z m108
-60 c10 -21 8 -28 -8 -40 -26 -20 -51 -18 -74 5 -27 27 -25 36 8 48 44 17 62
13 74 -13z m-132 -213 c0 -11 -22 -32 -32 -32 -5 0 -4 9 2 20 11 20 30 28 30
12z"/>
<path d="M3713 3663 c-49 -6 -40 -23 11 -23 25 0 48 -4 51 -10 10 -16 45 -12
45 5 0 9 -6 17 -12 19 -28 9 -65 12 -95 9z"/>
<path d="M4860 3625 c0 -14 -5 -25 -10 -25 -7 0 -8 -13 -4 -35 5 -28 1 -40
-20 -66 -14 -17 -26 -36 -26 -43 0 -7 -11 -34 -25 -60 -26 -50 -32 -81 -15
-91 6 -3 10 -13 10 -21 0 -22 41 -61 72 -68 14 -3 33 -9 42 -12 26 -10 22 58
-5 74 -12 7 -18 16 -15 19 3 4 -5 21 -19 39 -29 37 -30 51 -10 78 12 16 18 17
27 8 7 -7 18 -12 25 -12 16 0 18 135 2 177 -7 19 -7 29 0 31 19 6 12 32 -9 32
-15 0 -20 -7 -20 -25z"/>
<path d="M1785 3630 c-3 -5 -14 -10 -24 -10 -20 0 -41 -50 -41 -101 0 -23 -8
-42 -25 -58 -14 -13 -25 -31 -25 -42 0 -10 -11 -38 -25 -63 -29 -51 -31 -69
-11 -86 8 -6 16 -21 18 -33 3 -22 76 -67 108 -67 9 0 21 -5 27 -11 12 -12 197
-7 261 8 84 20 109 74 95 204 -5 50 -10 62 -28 69 -24 9 -61 51 -70 79 -6 20
-72 54 -80 42 -9 -16 6 -41 34 -55 14 -8 40 -32 56 -55 17 -22 37 -43 46 -46
13 -4 18 -22 21 -78 4 -70 3 -73 -26 -101 -24 -23 -34 -26 -48 -17 -9 6 -19 7
-22 2 -3 -4 -28 -7 -56 -5 -29 1 -50 -2 -50 -8 0 -6 -6 -5 -15 2 -12 10 -18
10 -29 1 -11 -9 -16 -9 -21 -1 -4 7 -17 9 -30 6 -15 -4 -25 -1 -29 9 -3 9 -17
20 -31 25 -14 5 -25 15 -25 21 0 6 -11 25 -26 41 -28 34 -28 65 -2 82 13 8 23
8 38 -2 12 -7 26 -10 32 -6 5 4 14 0 19 -7 8 -11 14 -9 33 13 13 15 27 24 30
21 3 -4 6 -1 6 5 0 6 -12 12 -27 14 -24 2 -28 7 -26 31 1 21 -3 27 -18 27 -12
0 -19 7 -19 19 0 11 -4 23 -10 26 -14 9 -12 57 4 78 16 20 95 24 126 5 22 -14
35 -6 27 17 -5 11 -22 15 -71 15 -36 0 -68 -4 -71 -10z"/>
<path d="M3613 3603 c-7 -15 -13 -43 -13 -63 0 -26 -7 -43 -25 -60 -14 -13
-25 -32 -25 -42 0 -11 -9 -41 -21 -68 l-21 -49 22 -45 c25 -53 65 -81 145
-101 63 -17 214 -12 226 7 4 6 17 8 30 5 28 -7 71 14 93 47 11 18 16 48 16
106 l0 81 -45 41 c-25 23 -51 53 -58 66 -7 14 -21 30 -32 36 -11 6 -23 15 -27
21 -11 15 -30 -9 -22 -28 3 -9 19 -22 34 -29 18 -8 30 -22 34 -40 5 -24 44
-59 79 -71 4 -1 10 -34 14 -73 l6 -71 -38 -28 c-31 -24 -40 -27 -56 -17 -11 7
-24 10 -29 7 -5 -3 -50 -7 -101 -10 -80 -4 -95 -2 -119 15 -16 11 -33 20 -39
20 -5 0 -18 16 -27 35 -9 19 -20 35 -25 35 -16 0 -10 67 7 81 14 11 19 10 35
-9 14 -18 22 -21 36 -14 10 6 31 8 46 5 22 -4 26 -2 21 11 -7 19 21 23 30 4 5
-10 7 -10 12 0 3 6 15 12 25 12 12 0 17 4 13 11 -3 6 -16 8 -27 5 -12 -3 -26
-1 -33 5 -8 7 -14 7 -18 0 -11 -18 -36 0 -36 25 0 14 -7 27 -15 30 -8 4 -23
22 -32 41 -13 28 -14 41 -6 64 10 25 9 29 -5 29 -10 0 -23 -12 -29 -27z"/>
<path d="M4567 3574 c-4 -4 -7 -27 -7 -51 0 -56 24 -54 28 2 3 37 -8 62 -21
49z"/>
<path d="M4474 3495 c-17 -25 -17 -28 -1 -37 11 -5 17 -21 17 -42 0 -20 8 -40
19 -50 19 -17 20 -17 30 3 15 27 14 46 -3 61 -8 6 -16 28 -18 47 -4 45 -21 52
-44 18z"/>
<path d="M4382 3448 c7 -20 48 -23 48 -4 0 11 -9 16 -26 16 -16 0 -24 -5 -22
-12z"/>
<path d="M4560 3440 c0 -19 11 -26 23 -14 8 8 -3 34 -14 34 -5 0 -9 -9 -9 -20z"/>
<path d="M3655 3358 c-8 -23 2 -72 16 -79 43 -20 83 -28 100 -19 9 6 24 7 32
5 7 -3 20 1 27 10 10 12 10 15 -4 15 -10 0 -28 13 -42 29 -25 30 -33 34 -92
46 -22 5 -33 3 -37 -7z"/>
<path d="M4620 3355 c0 -16 16 -20 24 -6 3 5 -1 11 -9 15 -9 3 -15 0 -15 -9z"/>
<path d="M1777 3343 c-14 -4 -16 -11 -11 -41 7 -39 18 -52 47 -52 9 0 26 -5
37 -12 16 -10 23 -9 44 11 22 21 24 26 12 43 -28 39 -86 62 -129 51z"/>
<path d="M4682 3291 c2 -7 7 -12 11 -12 12 1 9 15 -3 20 -7 2 -11 -2 -8 -8z"/>
<path d="M1995 3280 c-3 -5 1 -10 9 -10 9 0 16 5 16 10 0 6 -4 10 -9 10 -6 0
-13 -4 -16 -10z"/>
<path d="M3860 3280 c0 -5 5 -10 10 -10 6 0 10 5 10 10 0 6 -4 10 -10 10 -5 0
-10 -4 -10 -10z"/>
<path d="M4672 3248 c-18 -18 -15 -28 8 -28 13 0 20 7 20 20 0 23 -10 26 -28
8z"/>
<path d="M4615 3210 c-3 -5 -19 -10 -36 -10 -16 0 -29 -4 -29 -10 0 -5 14 -10
30 -10 17 0 30 5 30 10 0 6 9 10 20 10 11 0 20 5 20 10 0 6 -6 10 -14 10 -8 0
-18 -4 -21 -10z"/>
<path d="M4263 3193 c-21 -7 -15 -33 7 -33 11 0 20 6 20 14 0 18 -11 25 -27
19z"/>
<path d="M4325 3170 c-15 -24 9 -31 88 -27 45 3 91 9 102 13 18 8 17 9 -10 15
-48 11 -173 10 -180 -1z"/>
<path d="M4617 3174 c-13 -13 -7 -24 14 -24 11 0 19 5 17 12 -5 14 -22 21 -31
12z"/>
<path d="M4555 3144 c-17 -13 -17 -14 13 -14 18 0 32 4 32 9 0 16 -26 19 -45
5z"/>
<path d="M4257 3143 c-14 -13 -6 -23 17 -23 30 0 42 15 20 24 -20 8 -29 8 -37
-1z"/>
<path d="M4362 3123 c-23 -2 -40 -8 -37 -14 8 -12 202 -12 210 1 4 6 -7 10
-27 10 -18 0 -49 2 -68 4 -19 2 -54 1 -78 -1z"/>
<path d="M4303 3025 c-8 -21 -7 -22 70 -28 68 -5 83 3 55 31 -18 18 -117 16
-125 -3z"/>
<path d="M3713 3023 c-47 -6 -40 -23 9 -23 23 0 56 -5 75 -12 36 -13 54 -5 32
16 -16 16 -70 24 -116 19z"/>
<path d="M4252 3002 c-7 -5 -10 -15 -7 -24 3 -8 -1 -21 -10 -28 -8 -7 -15 -25
-15 -40 0 -15 -9 -39 -20 -53 -11 -14 -20 -35 -20 -46 0 -12 -5 -31 -12 -44
-24 -48 -28 -57 -28 -77 0 -35 39 -100 59 -100 10 0 24 -6 30 -14 17 -20 64
-28 171 -29 145 0 199 10 237 46 l33 31 -3 94 c-2 76 -6 96 -20 103 -25 15
-60 50 -86 87 -17 24 -30 32 -52 32 -38 0 -39 -26 -1 -43 15 -6 51 -36 80 -65
l52 -54 0 -67 c0 -57 -3 -71 -23 -89 -21 -19 -34 -21 -152 -21 -113 0 -136 2
-172 21 -27 13 -43 28 -43 39 0 10 -9 21 -20 24 -24 7 -37 51 -23 74 12 18 53
28 53 12 0 -6 18 -11 40 -11 28 0 45 6 60 23 20 20 20 22 3 25 -39 7 -46 12
-34 26 12 15 5 26 -18 26 -24 0 -57 87 -43 111 21 33 13 49 -16 31z"/>
<path d="M4865 2970 c-10 -21 -15 -48 -12 -60 4 -14 -4 -30 -23 -51 -16 -16
-27 -35 -24 -43 3 -8 -7 -40 -22 -71 -23 -46 -26 -60 -16 -73 7 -9 15 -24 19
-32 14 -30 72 -70 104 -70 5 0 9 18 9 40 0 22 -4 40 -10 40 -5 0 -10 5 -10 11
0 7 -11 22 -25 35 -42 39 -24 105 25 89 19 -6 20 -3 20 109 0 64 -4 116 -8
116 -5 0 -17 -18 -27 -40z"/>
<path d="M3625 2964 c-8 -20 -15 -49 -15 -64 0 -15 -11 -39 -25 -54 -14 -15
-25 -38 -25 -51 0 -14 -9 -40 -20 -60 -25 -44 -25 -56 0 -102 20 -38 69 -72
105 -73 12 0 25 -4 31 -10 14 -14 217 -14 242 -1 12 6 34 11 50 11 42 0 72 37
71 86 -1 21 -4 30 -6 19 -2 -11 -12 -31 -23 -45 -20 -27 -19 -27 -209 -30 -76
-1 -96 2 -103 15 -5 8 -17 15 -26 15 -20 0 -92 86 -92 110 0 9 9 25 20 35 19
17 23 18 48 3 15 -8 33 -13 40 -11 6 3 12 0 12 -6 0 -8 7 -7 20 1 24 15 26 46
5 54 -8 4 -15 16 -15 29 0 13 -7 26 -15 29 -24 9 -45 66 -34 94 13 33 11 42
-6 42 -8 0 -22 -16 -30 -36z"/>
<path d="M3860 2926 c0 -18 19 -33 53 -41 17 -5 27 -14 27 -25 0 -10 19 -35
43 -55 23 -20 45 -44 49 -53 4 -11 7 -4 7 19 1 32 -4 40 -40 63 -22 15 -45 40
-50 55 -14 40 -89 71 -89 37z"/>
<path d="M4294 2732 c-6 -4 -11 -25 -10 -47 1 -35 4 -40 26 -43 14 -2 35 -8
47 -14 17 -9 28 -7 48 6 14 9 25 22 25 29 0 19 -41 54 -70 59 -14 3 -32 8 -40
12 -8 3 -20 2 -26 -2z"/>
<path d="M3668 2724 c-2 -5 -4 -25 -3 -44 2 -30 5 -35 30 -38 16 -2 38 -10 51
-19 21 -13 24 -13 44 7 27 27 19 50 -22 73 -40 21 -94 32 -100 21z"/>
<path d="M1182 2707 c-20 -9 -23 -15 -17 -46 9 -48 12 -51 45 -51 16 0 35 -7
44 -15 13 -14 18 -13 41 9 l27 25 -29 35 c-16 20 -37 36 -48 36 -12 0 -25 4
-30 9 -6 5 -20 4 -33 -2z"/>
<path d="M4886 2701 c-4 -7 -5 -15 -2 -18 9 -9 19 4 14 18 -4 11 -6 11 -12 0z"/>
<path d="M1411 2646 c-11 -12 -8 -14 13 -12 28 3 36 19 13 24 -8 2 -19 -4 -26
-12z"/>
<path d="M2673 2214 c-25 -13 -33 -23 -33 -44 0 -24 15 -40 36 -40 3 0 4 14 2
32 -2 25 1 33 15 36 23 5 47 -15 47 -39 0 -11 -18 -39 -40 -63 -22 -24 -40
-48 -40 -55 0 -6 -4 -11 -10 -11 -5 0 -10 -9 -10 -20 0 -18 7 -20 64 -20 56 0
66 3 71 20 10 33 -3 42 -35 24 -15 -10 -35 -14 -45 -10 -15 5 -9 15 34 61 57
60 62 85 26 120 -28 29 -39 30 -82 9z"/>
<path d="M4325 1750 c-4 -6 13 -10 44 -10 27 0 53 -4 56 -10 3 -5 15 -10 27
-10 14 0 18 5 14 16 -3 9 -6 18 -6 20 0 9 -129 3 -135 -6z"/>
<path d="M4265 1710 c-8 -16 -15 -45 -15 -64 0 -24 -8 -43 -25 -60 -14 -14
-25 -36 -25 -49 0 -12 -4 -27 -8 -32 -5 -6 -15 -30 -22 -53 -11 -34 -11 -48
-2 -63 7 -10 12 -25 12 -33 0 -16 77 -63 119 -73 14 -3 31 -10 38 -15 6 -5 51
-7 100 -5 189 9 252 43 254 135 2 121 -1 135 -37 168 -19 18 -41 35 -50 38 -8
3 -12 10 -9 16 8 13 -43 60 -66 60 -34 0 -23 -39 15 -55 21 -9 36 -23 40 -38
3 -15 20 -31 41 -41 l35 -17 0 -81 c0 -73 -2 -83 -24 -103 -23 -21 -33 -23
-152 -22 -149 0 -167 7 -228 87 -34 45 -38 54 -27 76 13 29 40 42 51 24 10
-16 68 -21 93 -8 18 9 18 11 -2 32 -12 12 -21 30 -21 39 0 9 -9 21 -20 27 -27
14 -47 84 -31 104 13 15 7 36 -9 36 -5 0 -16 -13 -25 -30z"/>
<path d="M2 828 c-2 -822 -2 -828 18 -828 19 0 20 7 20 263 0 312 -18 1091
-29 1267 -5 77 -8 -194 -9 -702z"/>
<path d="M4300 1453 c0 -5 4 -15 10 -23 5 -9 5 -19 -1 -26 -11 -14 15 -39 31
-29 6 4 22 -1 36 -10 23 -15 27 -15 50 0 32 21 30 38 -7 69 -23 19 -42 26 -75
26 -24 0 -44 -3 -44 -7z"/>
<path d="M3735 1110 c-4 -6 -5 -13 -2 -16 6 -7 129 -26 134 -21 10 10 -31 37
-55 37 -15 0 -37 3 -48 6 -12 3 -25 1 -29 -6z"/>
<path d="M4873 953 c-21 -21 -27 -36 -24 -56 1 -5 -6 -23 -15 -40 -41 -78 -41
-80 -18 -125 16 -33 49 -62 71 -62 22 0 17 97 -7 127 -25 32 -25 38 1 64 16
16 19 30 17 67 l-3 47 -22 -22z"/>
<path d="M4164 50 c-23 -10 -44 -25 -47 -34 -6 -14 4 -16 73 -16 70 0 80 2 80
18 0 14 -48 54 -62 51 -1 0 -21 -9 -44 -19z"/>
<path d="M3543 47 c-31 -8 -43 -16 -43 -29 0 -16 10 -18 86 -18 64 0 85 3 82
13 -4 11 -66 47 -78 45 -3 -1 -24 -6 -47 -11z"/>
<path d="M2911 36 c-62 -22 -50 -36 33 -36 74 0 89 7 63 28 -21 18 -61 21 -96
8z"/>
<path d="M1695 30 c-3 -5 -19 -10 -36 -10 -16 0 -29 -4 -29 -10 0 -6 32 -10
75 -10 43 0 75 4 75 10 0 6 -9 10 -19 10 -11 0 -23 4 -26 10 -8 13 -32 13 -40
0z"/>
<path d="M2295 30 c-4 -6 -10 -8 -15 -5 -11 7 -40 -5 -40 -16 0 -5 34 -9 75
-9 78 0 93 9 50 28 -32 15 -62 15 -70 2z"/>
<path d="M440 15 c-11 -13 -7 -15 24 -15 37 0 48 13 20 24 -23 9 -30 8 -44 -9z"/>
</g>
</svg>
