<?xml version="1.0" standalone="no"?>
<!DOCTYPE svg PUBLIC "-//W3C//DTD SVG 20010904//EN"
 "http://www.w3.org/TR/2001/REC-SVG-20010904/DTD/svg10.dtd">
<svg version="1.0" xmlns="http://www.w3.org/2000/svg"
 width="820.000000pt" height="810.000000pt" viewBox="0 0 820.000000 810.000000"
 preserveAspectRatio="xMidYMid meet">
<metadata>
Created by potrace 1.16, written by Peter Selinger 2001-2019
</metadata>
<g transform="translate(0.000000,810.000000) scale(0.100000,-0.100000)"
fill="#000000" stroke="none">
<path d="M7914 7958 c3 -79 6 -222 6 -318 -2 -440 0 -795 7 -1580 4 -465 7
-928 7 -1030 -1 -102 -4 -675 -7 -1275 -13 -2592 -17 -3147 -22 -3442 l-6
-313 106 0 107 0 -8 108 c-14 185 -9 929 6 957 10 19 10 60 1 207 -14 234 -14
421 0 435 12 12 7 99 -10 218 -6 39 -14 112 -17 163 -4 50 -10 92 -15 92 -5 0
-9 36 -9 80 0 47 4 80 10 80 7 0 9 190 5 563 -2 309 -4 810 -4 1113 1 391 -2
554 -10 558 -14 9 -15 166 -1 166 6 0 10 85 10 235 0 207 -2 235 -16 243 -15
9 -16 43 -9 403 10 493 9 461 8 1084 0 286 0 574 0 640 1 66 -3 167 -7 225
-11 137 -12 278 -1 418 l8 112 -73 0 -73 0 7 -142z"/>
<path d="M6345 7320 c-456 -4 -922 -10 -1035 -14 -113 -3 -1053 -9 -2090 -12
-1037 -3 -1961 -7 -2055 -9 -93 -2 -394 -4 -667 -4 l-498 -1 0 -51 0 -52 1383
7 c760 4 1393 7 1407 8 14 0 673 0 1465 1 792 0 1758 1 2148 1 620 1 708 -1
712 -14 2 -8 7 -1135 11 -2505 3 -1369 7 -2704 9 -2965 1 -261 3 -753 4 -1092
l1 -618 56 0 57 0 -8 3503 c-8 3065 -10 3760 -14 3815 -1 7 -13 11 -28 10 -16
-1 -401 -5 -858 -8z"/>
<path d="M3986 6851 c-11 -12 -25 -16 -41 -13 -27 5 -59 -14 -49 -29 3 -5 13
-9 22 -9 9 0 23 -13 30 -30 18 -41 4 -64 -43 -67 -38 -2 -65 -17 -65 -37 0
-12 51 -61 82 -77 10 -6 16 -14 13 -20 -12 -18 -62 -9 -89 16 -31 28 -38 30
-66 13 -29 -19 -48 3 -31 36 7 13 10 33 6 45 -10 33 3 44 31 26 22 -14 26 -14
48 0 30 20 38 38 41 93 3 51 -11 61 -50 36 -22 -14 -30 -15 -50 -4 -15 8 -39
10 -68 6 -28 -4 -48 -3 -52 4 -11 17 -90 12 -107 -7 -24 -29 -41 -130 -42
-248 0 -95 3 -117 23 -160 21 -45 23 -59 18 -144 -4 -51 -11 -99 -16 -105 -5
-6 -15 -30 -21 -53 -11 -35 -10 -50 2 -90 36 -111 50 -194 43 -241 -15 -103
-8 -293 12 -313 6 -6 84 -9 194 -8 289 2 274 1 274 25 0 11 6 28 13 37 16 18
10 184 -8 234 -13 35 -9 154 9 273 7 43 10 142 8 235 -5 175 -8 210 -24 240
-6 11 -14 47 -18 80 -6 56 -3 78 30 222 5 20 -16 53 -34 53 -4 0 -15 -8 -25
-19z m-345 -343 c19 -21 24 -38 13 -38 -16 0 -74 43 -68 51 9 16 36 10 55 -13z
m126 -68 c17 0 56 -49 50 -64 -5 -12 -11 -12 -39 -2 -18 6 -39 15 -46 20 -8 5
-18 4 -25 -3 -12 -12 -47 -15 -47 -3 0 4 9 13 20 20 11 7 20 18 20 25 0 7 5
18 12 25 9 9 15 8 28 -3 9 -8 21 -15 27 -15z m126 -57 c-7 -2 -21 -2 -30 0
-10 3 -4 5 12 5 17 0 24 -2 18 -5z m40 -48 c15 -13 27 -29 27 -34 0 -6 7 -14
17 -19 10 -6 14 -16 10 -26 -8 -20 -45 -13 -64 12 -12 14 -15 14 -33 -6 -12
-12 -27 -22 -35 -22 -26 0 -16 -38 18 -69 17 -17 40 -31 50 -31 11 0 17 -5 14
-12 -7 -21 -69 -12 -87 12 -15 20 -19 21 -59 9 -54 -16 -70 -3 -41 34 17 22
19 30 10 48 -15 26 -5 37 20 21 11 -7 28 -12 37 -12 20 0 68 64 59 79 -8 13 4
41 18 41 6 0 23 -12 39 -25z m-288 -275 c10 -11 16 -22 13 -25 -8 -8 -78 24
-78 35 0 18 46 11 65 -10z m110 -60 c10 -11 24 -20 32 -20 7 0 13 -7 13 -15 0
-7 8 -18 18 -24 16 -9 16 -10 0 -16 -21 -8 -78 15 -78 32 0 21 -21 15 -27 -7
-3 -11 -14 -20 -24 -20 -23 0 -25 16 -2 28 9 5 17 20 19 33 3 31 2 29 17 29 8
0 22 -9 32 -20z m189 -132 c9 -17 16 -37 16 -44 0 -19 -19 -27 -34 -15 -15 13
-74 -12 -83 -36 -7 -18 65 -93 90 -93 9 0 17 -4 17 -10 0 -5 -20 -10 -45 -10
-38 0 -45 3 -45 19 0 28 -76 41 -94 16 -10 -15 -14 -15 -24 -2 -10 11 -8 19 7
39 13 16 18 33 14 48 -6 21 -4 22 28 16 44 -8 89 29 89 74 0 25 4 30 24 30 18
0 29 -9 40 -32z m-296 -260 c21 -21 15 -40 -10 -32 -30 9 -32 10 -25 29 8 18
19 19 35 3z m124 -69 c37 -26 24 -43 -25 -34 -22 4 -37 14 -40 25 -9 37 20 40
65 9z"/>
<path d="M2880 6801 c0 -44 12 -58 29 -37 14 17 3 76 -15 76 -10 0 -14 -13
-14 -39z"/>
<path d="M2882 6648 c4 -40 38 -54 38 -16 0 24 -16 48 -33 48 -4 0 -7 -15 -5
-32z"/>
<path d="M2866 6562 c-2 -4 -6 -34 -7 -67 -3 -49 -1 -60 13 -63 25 -5 37 27
31 80 -5 42 -25 69 -37 50z"/>
<path d="M1520 6343 c0 -45 8 -57 25 -43 15 13 5 72 -13 78 -8 2 -12 -9 -12
-35z"/>
<path d="M2337 6363 c-11 -10 -8 -43 3 -43 15 0 24 30 13 41 -5 5 -12 6 -16 2z"/>
<path d="M3330 6344 c-6 -14 -10 -30 -10 -35 0 -5 -4 -9 -10 -9 -5 0 -17 -12
-26 -26 -14 -20 -15 -27 -5 -34 9 -5 3 -15 -23 -35 -44 -33 -45 -45 -6 -68 31
-19 37 -31 20 -42 -5 -3 -10 -17 -10 -31 0 -28 24 -33 39 -7 15 28 21 11 11
-32 -10 -43 0 -65 30 -65 28 0 34 87 9 119 -21 26 -25 57 -9 63 16 5 15 79 -1
116 -14 33 -13 35 15 57 25 20 28 26 17 39 -19 23 -30 20 -41 -10z"/>
<path d="M6422 6314 c3 -17 21 -21 26 -6 1 5 -4 12 -13 16 -11 4 -15 1 -13
-10z"/>
<path d="M74 6307 c-7 -20 3 -37 21 -37 23 0 26 16 5 35 -18 16 -20 16 -26 2z"/>
<path d="M2472 6288 c-25 -40 -38 -88 -25 -88 16 0 65 102 55 112 -6 6 -18 -4
-30 -24z"/>
<path d="M5960 6311 c0 -5 6 -14 14 -20 16 -13 32 2 21 19 -8 12 -35 13 -35 1z"/>
<path d="M2356 6303 c-11 -11 -6 -40 9 -53 13 -11 15 -8 15 18 0 31 -11 47
-24 35z"/>
<path d="M177 6278 c-13 -9 -18 -24 -15 -42 5 -48 27 -52 86 -16 28 18 52 37
52 42 0 17 -29 19 -52 4 -30 -22 -46 -20 -50 5 -3 18 -5 18 -21 7z"/>
<path d="M6610 6280 c0 -5 7 -10 15 -10 8 0 15 5 15 10 0 6 -7 10 -15 10 -8 0
-15 -4 -15 -10z"/>
<path d="M6056 6261 c-9 -13 3 -39 20 -45 20 -8 29 20 14 39 -14 17 -26 19
-34 6z"/>
<path d="M6512 6243 c5 -26 38 -29 38 -4 0 15 -6 21 -21 21 -14 0 -19 -5 -17
-17z"/>
<path d="M1524 6216 c-8 -22 -1 -59 13 -64 17 -5 27 22 19 53 -7 28 -24 33
-32 11z"/>
<path d="M18 6208 c9 -9 15 -9 24 0 9 9 7 12 -12 12 -19 0 -21 -3 -12 -12z"/>
<path d="M2338 6205 c-12 -12 4 -35 25 -35 11 0 28 -7 38 -16 10 -9 23 -13 28
-9 13 7 15 42 3 49 -16 10 -87 18 -94 11z"/>
<path d="M2520 6190 c0 -5 5 -10 10 -10 6 0 10 5 10 10 0 6 -4 10 -10 10 -5 0
-10 -4 -10 -10z"/>
<path d="M6360 6180 c-12 -7 -12 -12 -2 -22 9 -9 15 -9 24 0 8 8 9 15 2 22 -5
5 -15 6 -24 0z"/>
<path d="M17 6165 c-22 -16 -23 -49 -1 -41 9 3 20 6 24 6 5 0 14 9 19 19 8 15
7 20 -8 24 -9 2 -25 -1 -34 -8z"/>
<path d="M123 6160 c-4 -14 -14 -20 -34 -20 -19 0 -29 -5 -29 -15 0 -13 9 -15
48 -10 39 6 51 3 69 -14 12 -12 29 -21 37 -21 31 0 23 -18 -22 -52 -26 -20
-57 -39 -69 -42 -13 -4 -23 -11 -23 -16 0 -16 18 -20 45 -10 17 7 41 6 72 0
41 -10 48 -9 69 11 27 26 31 47 9 55 -8 4 -15 18 -15 33 0 15 -10 38 -22 51
-12 12 -22 32 -23 44 -2 21 -35 37 -35 17 0 -14 -37 -14 -45 -1 -10 16 -27 11
-32 -10z"/>
<path d="M5895 6171 c-3 -5 -1 -12 5 -16 12 -7 30 2 30 16 0 12 -27 12 -35 0z"/>
<path d="M6022 6168 c-20 -20 -14 -36 13 -30 16 3 25 11 25 23 0 21 -20 25
-38 7z"/>
<path d="M6478 6166 c-25 -18 -23 -23 14 -30 17 -3 40 -14 51 -24 10 -9 21
-16 23 -14 2 1 12 -8 21 -20 14 -18 14 -20 2 -11 -13 11 -20 8 -40 -13 -13
-14 -44 -35 -69 -46 -39 -19 -42 -22 -22 -26 13 -2 30 2 37 8 11 9 26 9 64 0
46 -11 52 -10 72 9 13 11 19 26 16 35 -8 20 -26 21 -33 1 -8 -19 -24 -20 -24
-1 0 7 9 16 21 19 17 4 19 10 13 29 -14 46 -35 68 -65 68 -17 0 -32 6 -35 15
-7 18 -23 19 -46 1z"/>
<path d="M300 6145 c0 -8 5 -15 10 -15 6 0 10 7 10 15 0 8 -4 15 -10 15 -5 0
-10 -7 -10 -15z"/>
<path d="M5960 6140 c0 -11 5 -20 10 -20 6 0 10 9 10 20 0 11 -4 20 -10 20 -5
0 -10 -9 -10 -20z"/>
<path d="M6410 6151 c0 -6 5 -13 10 -16 6 -3 10 1 10 9 0 9 -4 16 -10 16 -5 0
-10 -4 -10 -9z"/>
<path d="M2514 6136 c-8 -21 3 -36 27 -36 25 0 25 26 -1 40 -16 9 -22 8 -26
-4z"/>
<path d="M6080 6140 c-12 -8 -11 -12 8 -30 16 -16 21 -28 16 -43 -8 -25 -32
-46 -54 -47 -16 -1 -50 -23 -50 -34 0 -10 38 -7 45 4 9 14 46 12 78 -5 27 -14
30 -13 53 12 17 18 21 30 14 37 -5 5 -10 21 -10 35 0 28 -45 81 -69 81 -9 0
-23 -5 -31 -10z m68 -72 c15 -15 16 -48 2 -48 -5 0 -10 11 -10 24 0 13 -6 27
-12 29 -7 3 -8 6 -2 6 5 1 15 -4 22 -11z"/>
<path d="M1498 6055 c-1 -25 -2 -53 -2 -62 -1 -13 7 -18 24 -18 20 0 26 6 28
29 6 52 -7 96 -28 96 -17 0 -20 -8 -22 -45z"/>
<path d="M2398 6038 c-5 -66 1 -79 34 -70 24 6 34 30 19 45 -6 6 -11 28 -11
49 0 31 -4 38 -19 38 -16 0 -19 -10 -23 -62z"/>
<path d="M6503 5920 c8 -37 -8 -48 -31 -22 -18 21 -97 38 -106 23 -11 -18 5
-37 45 -54 23 -10 50 -15 61 -11 13 4 24 1 29 -7 12 -20 11 -23 -12 -37 -17
-11 -25 -11 -46 3 -14 9 -36 15 -49 12 -13 -2 -29 2 -35 9 -17 20 -39 17 -39
-5 0 -14 -5 -18 -18 -14 -15 4 -18 -2 -18 -34 1 -21 8 -47 16 -59 15 -21 80
-41 80 -25 0 5 3 16 6 24 3 9 -2 17 -13 21 -26 8 -24 44 3 50 26 7 52 -1 76
-22 13 -11 21 -12 30 -4 7 6 27 12 43 14 26 3 31 -1 33 -22 3 -20 1 -23 -9
-12 -7 6 -23 12 -36 12 -18 0 -23 -6 -23 -26 0 -16 -4 -23 -11 -18 -6 3 -15 0
-20 -7 -4 -7 -12 -10 -16 -5 -4 5 -2 11 5 13 18 7 15 33 -4 33 -8 0 -23 -7
-32 -16 -15 -15 -14 -20 2 -67 l18 -51 -26 -21 c-39 -31 -33 -44 15 -38 36 5
44 2 61 -18 28 -35 40 -69 29 -83 -11 -14 5 -60 19 -51 5 3 10 31 10 60 0 47
-4 59 -31 90 -18 20 -28 39 -24 43 3 4 15 -3 25 -15 31 -39 54 -27 25 11 -8
11 -15 30 -15 43 0 20 -5 23 -35 23 -19 0 -35 5 -35 10 0 6 9 10 20 10 11 0
23 6 26 14 3 8 13 12 25 9 13 -4 28 2 41 16 11 12 26 20 34 17 9 -4 19 4 26
22 11 26 12 26 15 5 6 -30 12 -29 46 6 30 32 35 51 12 51 -8 0 -15 -4 -15 -10
0 -18 -29 -10 -55 15 -14 14 -25 36 -25 49 0 25 -23 51 -38 42 -5 -3 -17 3
-27 14 -26 29 -38 25 -32 -10z m85 -87 c6 -19 -25 -16 -32 3 -4 11 -1 14 11
12 9 -2 18 -9 21 -15z"/>
<path d="M1971 5927 c-6 -8 -9 -22 -5 -31 8 -20 0 -20 -29 -2 -31 20 -93 30
-102 17 -12 -21 5 -51 30 -51 13 0 27 -4 30 -10 3 -5 19 -10 34 -10 29 0 57
-21 44 -33 -12 -13 -61 -7 -73 9 -8 8 -25 14 -39 13 -14 -1 -34 2 -44 6 -27
11 -61 -30 -63 -76 -2 -34 2 -40 37 -63 21 -14 48 -26 59 -26 13 0 24 -10 30
-26 15 -39 12 -53 -15 -66 -39 -18 -33 -42 9 -34 27 5 40 2 64 -19 34 -28 68
-34 58 -10 -4 11 3 19 19 25 30 11 32 23 6 41 -11 8 -22 24 -26 37 -6 20 -3
22 28 22 34 0 64 20 50 33 -3 4 -17 7 -30 7 -13 0 -23 4 -23 9 0 19 34 35 71
34 33 -2 42 3 65 33 26 34 26 36 9 52 -13 13 -19 14 -22 5 -3 -7 -13 -13 -24
-13 -20 0 -43 30 -53 70 -4 20 -32 45 -77 68 -3 1 -11 -4 -18 -11z m89 -97 c0
-5 -7 -10 -16 -10 -8 0 -12 5 -9 10 3 6 10 10 16 10 5 0 9 -4 9 -10z m-152
-70 c3 -18 -38 -46 -47 -33 -3 5 -14 13 -25 16 -15 6 -16 10 -5 23 16 19 73
15 77 -6z m112 0 c0 -5 -4 -10 -10 -10 -5 0 -10 5 -10 10 0 6 5 10 10 10 6 0
10 -4 10 -10z m-20 -87 c0 -7 -5 -13 -11 -13 -13 0 -59 47 -59 60 0 14 69 -33
70 -47z m-24 -120 c-10 -10 -19 5 -10 18 6 11 8 11 12 0 2 -7 1 -15 -2 -18z"/>
<path d="M4690 5916 c0 -14 5 -37 11 -53 11 -28 11 -28 20 -5 11 29 0 82 -17
82 -8 0 -14 -10 -14 -24z"/>
<path d="M605 5921 c-13 -12 -65 -16 -88 -6 -24 10 -50 -15 -41 -39 9 -22 44
-36 95 -36 32 0 39 -4 39 -19 0 -29 -29 -34 -66 -12 -19 11 -41 18 -49 15 -8
-4 -22 0 -31 7 -14 11 -18 11 -28 -2 -6 -9 -22 -21 -35 -28 -16 -9 -20 -15
-12 -21 8 -4 10 -17 5 -34 -8 -34 6 -51 64 -76 84 -37 103 -69 55 -92 -15 -7
-29 -21 -31 -31 -3 -16 1 -18 40 -12 38 6 46 3 67 -19 31 -33 45 -33 59 -1 6
14 18 25 27 25 23 0 18 16 -10 34 -16 10 -25 26 -25 41 0 22 4 25 35 25 20 0
35 5 35 11 0 8 -16 10 -50 6 -45 -5 -50 -4 -50 14 0 17 3 18 20 9 15 -8 24 -6
40 10 11 11 28 20 38 21 40 3 48 5 71 21 13 9 20 21 17 26 -3 5 4 12 15 15 34
9 11 30 -26 24 -25 -4 -38 0 -53 16 -11 12 -17 27 -15 34 7 18 -27 63 -48 63
-10 0 -21 5 -24 10 -8 12 -28 13 -40 1z m5 -31 c0 -5 -4 -10 -9 -10 -6 0 -13
5 -16 10 -3 6 1 10 9 10 9 0 16 -4 16 -10z m-64 -131 c3 -6 1 -16 -5 -22 -12
-12 -61 6 -61 23 0 13 57 13 66 -1z"/>
<path d="M1074 5907 c-9 -25 0 -62 17 -65 12 -2 16 5 15 34 -2 39 -21 58 -32
31z"/>
<path d="M5506 5913 c-12 -12 -6 -33 9 -33 8 0 15 6 15 14 0 17 -14 28 -24 19z"/>
<path d="M4150 5856 c0 -7 7 -19 15 -26 12 -10 16 -9 21 3 3 9 3 21 -1 27 -9
15 -35 12 -35 -4z"/>
<path d="M740 5846 c0 -13 20 -26 41 -26 15 0 10 27 -7 34 -24 9 -34 7 -34 -8z"/>
<path d="M5520 5846 c0 -16 28 -42 36 -33 8 7 -14 47 -26 47 -6 0 -10 -6 -10
-14z"/>
<path d="M5643 5837 c-12 -12 -23 -33 -25 -47 -3 -23 -8 -25 -56 -28 -36 -2
-52 -7 -49 -15 2 -7 13 -13 25 -15 11 -2 26 -10 32 -18 17 -20 40 -17 40 5 0
10 7 24 15 31 8 7 15 20 15 30 0 9 9 29 20 43 33 42 21 52 -17 14z"/>
<path d="M2112 5838 c6 -18 28 -21 28 -4 0 9 -7 16 -16 16 -9 0 -14 -5 -12
-12z"/>
<path d="M4345 5831 c-8 -15 3 -31 21 -31 9 0 14 7 12 17 -4 20 -24 28 -33 14z"/>
<path d="M4240 5802 c0 -21 18 -42 37 -42 19 0 16 31 -4 46 -24 18 -33 17 -33
-4z"/>
<path d="M1145 5770 c-4 -6 -3 -16 3 -22 6 -6 12 -6 17 2 4 6 3 16 -3 22 -6 6
-12 6 -17 -2z"/>
<path d="M4700 5745 c0 -25 4 -35 13 -32 6 2 12 16 12 32 0 16 -6 30 -12 33
-9 2 -13 -8 -13 -33z"/>
<path d="M1078 5758 c-7 -21 4 -59 16 -55 17 6 19 42 2 56 -11 9 -15 9 -18 -1z"/>
<path d="M4091 5721 c-16 -10 -6 -31 15 -31 8 0 14 9 14 20 0 22 -7 25 -29 11z"/>
<path d="M4206 5705 c-18 -27 -42 -33 -49 -12 -2 6 -8 9 -12 5 -17 -16 9 -30
49 -25 35 5 46 1 73 -22 l33 -27 -33 -30 c-17 -17 -44 -36 -59 -44 -38 -19
-35 -34 5 -26 47 10 87 8 103 -5 11 -9 20 -5 43 20 24 25 26 33 15 42 -8 6
-14 23 -14 36 0 36 -47 89 -75 85 -13 -2 -25 3 -28 12 -9 24 -33 19 -51 -9z"/>
<path d="M5685 5690 c-8 -13 13 -40 31 -40 21 0 17 28 -5 40 -14 7 -22 7 -26
0z"/>
<path d="M6540 5670 c0 -5 14 -10 30 -10 17 0 30 5 30 10 0 6 -13 10 -30 10
-16 0 -30 -4 -30 -10z"/>
<path d="M1063 5648 c-6 -7 -13 -39 -17 -70 l-6 -58 28 0 c29 0 29 0 25 57 -5
68 -14 91 -30 71z"/>
<path d="M4676 5648 c-3 -7 -7 -37 -11 -65 -5 -48 -4 -53 14 -53 29 0 52 11
45 22 -4 5 -7 31 -8 56 -1 36 -5 48 -19 50 -9 2 -19 -2 -21 -10z"/>
<path d="M5579 5633 c-1 -32 -6 -72 -11 -93 -2 -7 5 -16 15 -18 24 -5 50 17
38 32 -5 6 -12 31 -15 56 -2 25 -5 46 -5 48 -1 1 -5 2 -11 2 -5 0 -11 -12 -11
-27z"/>
<path d="M2887 5483 c-4 -3 -7 -26 -7 -50 0 -37 3 -44 18 -41 13 3 16 12 14
43 -4 42 -13 60 -25 48z"/>
<path d="M970 5419 c0 -29 18 -59 35 -59 19 0 19 14 0 50 -18 35 -35 39 -35 9z"/>
<path d="M5062 5399 c1 -13 8 -23 13 -21 15 3 12 35 -3 40 -9 3 -13 -3 -10
-19z"/>
<path d="M4191 5359 c-23 -9 -23 -10 -6 -28 14 -16 16 -35 14 -98 -3 -68 -2
-78 14 -81 30 -6 51 6 39 21 -6 7 -13 53 -15 102 -1 49 -7 90 -12 91 -6 2 -21
-2 -34 -7z"/>
<path d="M1175 5350 c-3 -5 3 -10 14 -10 12 0 21 5 21 10 0 6 -6 10 -14 10 -8
0 -18 -4 -21 -10z"/>
<path d="M3395 5349 c-4 -5 0 -18 9 -28 11 -12 16 -37 16 -83 0 -57 -3 -68
-22 -81 -22 -15 -22 -16 25 -16 44 -1 60 10 37 24 -6 3 -10 48 -10 101 0 93 0
94 -24 94 -14 0 -28 -5 -31 -11z"/>
<path d="M5146 5351 c-3 -5 3 -20 13 -32 18 -22 20 -22 26 -6 11 27 -25 62
-39 38z"/>
<path d="M1077 5343 c-13 -12 -7 -41 9 -47 26 -10 34 -7 34 12 0 28 -28 51
-43 35z"/>
<path d="M943 5323 c-17 -6 -16 -23 1 -23 8 0 16 7 20 15 6 15 1 17 -21 8z"/>
<path d="M2887 5313 c-4 -3 -7 -22 -7 -40 0 -27 4 -34 18 -31 21 4 28 50 9 66
-8 7 -17 9 -20 5z"/>
<path d="M6517 5313 c-11 -10 -8 -41 4 -49 17 -10 32 12 24 35 -6 21 -16 26
-28 14z"/>
<path d="M928 5259 c-26 -15 -22 -39 6 -39 16 0 26 7 29 21 3 12 10 18 16 15
5 -4 12 -2 16 4 8 13 -44 13 -67 -1z"/>
<path d="M1032 5250 c-7 -11 -21 -20 -32 -20 -14 0 -20 -7 -20 -21 0 -13 4
-18 12 -13 24 15 87 4 112 -20 l26 -23 -21 -27 c-11 -14 -34 -33 -50 -41 -40
-21 -38 -39 4 -31 18 3 48 1 66 -5 30 -11 35 -9 59 15 21 20 24 28 14 38 -7 7
-12 23 -12 36 0 31 -50 92 -75 92 -11 0 -26 9 -33 20 -7 11 -18 20 -25 20 -7
0 -18 -9 -25 -20z"/>
<path d="M4984 5259 c-7 -12 15 -31 28 -23 4 3 8 12 8 20 0 17 -26 19 -36 3z"/>
<path d="M5120 5255 c0 -8 -4 -15 -10 -15 -5 0 -10 -4 -10 -10 0 -5 13 -10 30
-10 19 0 34 -7 42 -20 7 -11 20 -20 29 -20 9 0 22 -6 28 -13 16 -20 18 -59 4
-64 -9 -3 -13 6 -13 26 0 36 -10 39 -30 10 -8 -11 -32 -29 -52 -40 -21 -11
-38 -23 -38 -27 0 -4 36 -7 79 -7 93 0 107 11 95 78 -8 48 -53 97 -89 97 -13
0 -25 7 -29 15 -3 8 -12 15 -21 15 -8 0 -15 -7 -15 -15z"/>
<path d="M1200 5230 c0 -5 5 -10 10 -10 6 0 10 5 10 10 0 6 -4 10 -10 10 -5 0
-10 -4 -10 -10z"/>
<path d="M6497 5203 c-4 -3 -7 -23 -7 -44 0 -21 -4 -41 -10 -44 -14 -9 -12
-43 3 -48 34 -11 47 5 47 58 0 72 -12 100 -33 78z"/>
<path d="M2866 5189 c-2 -8 -6 -32 -9 -54 -3 -22 -6 -47 -8 -55 -3 -10 5 -16
24 -18 29 -4 31 2 27 78 -2 39 -26 74 -34 49z"/>
<path d="M3564 5031 c-2 -2 -4 -23 -4 -45 -1 -23 -10 -57 -20 -76 -46 -84 -60
-124 -66 -192 -4 -51 -2 -82 7 -103 7 -16 17 -84 21 -150 4 -66 10 -142 14
-169 5 -39 2 -57 -16 -92 -13 -27 -28 -44 -39 -44 -9 0 -22 -5 -28 -11 -8 -8
-61 -11 -165 -10 -167 2 -258 16 -258 41 -1 59 -59 140 -101 140 -11 0 -22 7
-25 15 -8 20 -27 19 -47 -3 -24 -26 -21 -32 12 -32 18 0 40 -11 60 -29 l31
-29 -29 -25 c-17 -14 -48 -33 -70 -43 -22 -11 -41 -22 -41 -26 0 -12 54 -10
66 2 11 11 64 -8 64 -22 0 -8 -50 -12 -103 -8 -33 2 -113 -35 -121 -56 -3 -8
-17 -19 -30 -24 -41 -15 -59 -71 -56 -176 l2 -91 -35 -22 c-19 -11 -48 -24
-66 -27 -17 -4 -34 -11 -37 -15 -3 -5 -31 -9 -63 -9 -38 0 -63 -5 -70 -14 -6
-8 -34 -24 -62 -35 -31 -14 -53 -31 -59 -45 -5 -13 -14 -27 -19 -31 -6 -3 -11
-21 -11 -39 0 -19 -7 -39 -15 -46 -10 -9 -15 -32 -15 -77 0 -35 -4 -72 -10
-82 -15 -28 -23 -474 -10 -556 16 -103 18 -156 8 -192 -11 -38 -34 -50 -43
-22 -4 10 -15 19 -25 19 -10 0 -22 5 -26 11 -3 6 -15 9 -25 6 -12 -3 -19 0
-19 9 0 8 9 14 20 14 11 0 20 5 20 10 0 6 9 10 20 10 11 0 20 4 20 10 0 6 -24
8 -62 4 l-63 -5 24 21 c20 17 22 23 11 30 -35 22 -65 -67 -34 -101 10 -11 23
-18 30 -15 6 2 22 -3 35 -12 13 -9 25 -16 27 -14 9 8 32 -1 32 -12 0 -8 10
-16 23 -18 18 -3 22 -10 25 -48 3 -47 -16 -88 -36 -76 -6 3 -16 22 -22 42 -17
50 -66 102 -82 86 -16 -16 -28 -15 -28 2 0 23 -39 26 -54 4 -15 -21 -36 -17
-36 8 0 8 -7 14 -16 14 -11 0 -14 -8 -12 -27 3 -26 6 -28 53 -29 51 0 105 -25
105 -48 0 -18 -38 -49 -93 -77 -27 -13 -53 -31 -58 -40 -4 -9 -28 -28 -51 -42
-81 -47 -81 -47 -104 -252 -6 -54 -23 -80 -57 -88 -40 -10 -97 -33 -109 -45
-7 -7 -22 -12 -33 -12 -12 0 -43 -7 -69 -16 -35 -12 -53 -26 -71 -54 -13 -21
-28 -40 -33 -41 -7 -3 -48 -59 -74 -103 -28 -48 -32 -117 -13 -242 4 -26 3
-44 -4 -48 -14 -9 -14 -49 0 -63 8 -8 7 -23 -6 -57 -10 -25 -21 -46 -26 -46
-4 0 -11 16 -15 35 -3 19 -10 38 -15 40 -14 9 -31 -35 -24 -64 4 -19 1 -34 -9
-44 -10 -10 -13 -26 -9 -50 6 -40 -6 -52 -43 -43 -17 5 -24 13 -24 29 0 37
-40 67 -88 67 -38 0 -42 -2 -50 -32 l-9 -33 -11 27 c-20 49 21 113 57 91 9 -6
32 -14 51 -18 19 -4 49 -16 66 -26 17 -10 34 -19 37 -19 4 0 6 28 5 63 0 35 4
73 11 85 9 17 8 30 -9 66 -25 51 -53 80 -72 73 -9 -4 -6 -8 9 -12 17 -6 22
-16 25 -53 2 -26 2 -68 0 -94 -4 -44 -7 -48 -30 -48 -14 0 -45 11 -69 25 l-43
26 -2 67 c-2 89 -2 84 6 110 12 36 -15 27 -64 -23 l-45 -46 -3 -115 c-3 -105
-2 -118 17 -137 14 -15 21 -39 23 -77 l3 -55 41 -3 c32 -2 43 -8 47 -23 7 -25
33 -25 47 1 7 14 21 20 45 20 19 0 46 5 61 12 24 11 28 10 53 -20 14 -18 34
-32 43 -32 9 0 19 -4 22 -8 2 -4 6 -55 8 -112 3 -96 1 -108 -19 -137 -27 -37
-29 -73 -7 -168 25 -110 27 -134 14 -150 -11 -14 -15 -14 -29 -1 -9 9 -30 14
-46 13 -25 -2 -30 2 -35 28 -5 29 -7 30 -65 31 -33 1 -67 5 -76 8 -10 4 -20 2
-24 -4 -5 -7 -11 -8 -19 -1 -19 16 -61 -16 -45 -35 15 -18 4 -44 -18 -44 -52
-1 -92 -92 -58 -130 10 -11 37 -25 59 -32 73 -21 96 -71 45 -98 -10 -6 -19
-17 -19 -25 0 -12 8 -14 37 -9 32 5 42 2 62 -20 28 -29 67 -36 57 -10 -4 10 3
23 16 35 l23 19 -23 19 c-27 24 -20 49 16 53 31 4 43 28 13 28 -14 0 -21 6
-21 20 0 17 7 20 49 20 34 0 51 4 55 15 10 26 23 17 40 -28 17 -45 22 -157 7
-172 -5 -6 -11 -31 -14 -57 l-5 -48 173 0 c144 0 174 2 179 15 7 19 30 19 50
0 20 -21 76 -19 92 3 7 9 14 26 14 37 0 12 4 25 9 30 10 12 41 132 41 162 0
23 -27 118 -41 145 -13 25 -11 162 2 175 8 8 12 60 12 153 -1 77 3 143 8 146
5 3 9 62 9 131 0 106 -3 133 -20 168 l-20 41 29 60 c16 32 47 78 68 101 38 43
63 53 166 69 29 4 51 17 83 50 63 65 88 123 94 218 l5 80 70 47 c74 50 141 78
240 99 81 18 106 32 141 77 l29 38 -1 190 c0 145 -5 209 -19 270 -10 44 -17
99 -17 123 0 23 1 52 1 65 1 12 1 72 0 132 0 61 4 130 10 155 6 25 11 62 11
83 0 59 23 93 92 135 22 13 51 22 77 22 23 0 58 9 79 20 150 83 157 88 184
137 16 29 27 64 27 88 1 34 7 47 39 76 20 19 52 45 70 58 35 24 45 24 415 22
37 0 79 4 92 9 33 13 55 3 55 -25 0 -27 25 -52 35 -35 4 6 4 22 1 36 -4 13 -2
24 4 24 5 0 16 13 25 30 8 16 35 52 60 80 25 28 52 65 61 83 9 17 20 34 24 37
8 5 15 32 33 125 17 86 16 425 -2 500 -8 35 -16 135 -18 241 -4 171 -3 181 17
199 14 13 20 31 20 62 0 23 -3 43 -7 44 -34 3 -465 3 -469 0z m374 -93 l-3
-53 -42 -3 c-44 -3 -67 -20 -58 -43 3 -8 24 -27 45 -44 45 -32 47 -48 7 -53
-18 -2 -29 3 -37 17 -9 18 -20 21 -78 21 -55 1 -64 3 -51 13 24 18 39 51 33
74 -7 27 12 38 32 19 19 -20 24 -20 49 2 39 34 47 49 36 70 -13 25 -5 32 36
32 l34 0 -3 -52z m-353 -228 c3 -5 15 -10 25 -10 25 0 54 -40 39 -55 -7 -7
-17 -2 -31 18 -19 26 -22 27 -44 12 -13 -8 -25 -15 -27 -15 -7 0 -15 49 -9 55
9 9 41 6 47 -5z m170 -84 c33 -21 60 -65 47 -78 -11 -11 -62 14 -62 30 0 24
-31 25 -56 2 -13 -13 -24 -18 -24 -12 0 7 4 12 8 12 5 0 16 16 25 36 10 19 21
34 25 32 4 -2 21 -12 37 -22z m191 -142 c21 -43 11 -58 -33 -49 -26 5 -40 2
-54 -11 -24 -22 -25 -72 -1 -81 22 -9 67 -51 61 -57 -8 -8 -59 8 -56 17 1 5
-15 15 -35 22 -31 10 -41 10 -58 -2 -17 -12 -24 -12 -36 -2 -13 10 -12 15 7
35 13 14 19 29 15 39 -10 26 2 35 30 23 24 -11 29 -9 61 26 21 22 32 43 29 53
-18 46 48 34 70 -13z m-313 -255 c21 -24 14 -38 -11 -23 -18 12 -29 44 -15 44
5 0 17 -9 26 -21z m127 -62 c32 -30 52 -65 41 -72 -14 -8 -58 11 -64 29 -4 9
-13 16 -22 16 -9 0 -15 9 -15 25 0 32 26 33 60 2z m-75 -57 c-3 -5 -10 -10
-16 -10 -5 0 -9 5 -9 10 0 6 7 10 16 10 8 0 12 -4 9 -10z m200 0 c3 -5 -1 -10
-10 -10 -9 0 -13 5 -10 10 3 6 8 10 10 10 2 0 7 -4 10 -10z m-406 -69 c23 -26
46 -41 66 -43 19 -2 31 -9 33 -21 3 -15 -4 -17 -58 -15 -35 1 -66 8 -72 15 -9
11 -15 11 -34 -2 -29 -19 -34 -19 -34 0 0 9 7 18 16 22 10 4 15 17 14 37 -3
44 -2 46 16 46 9 0 33 -18 53 -39z m452 23 c10 -6 21 -73 14 -84 -4 -6 -16 -5
-32 3 -23 13 -28 11 -51 -12 -15 -14 -25 -32 -24 -40 5 -19 57 -71 72 -71 18
0 6 -25 -14 -28 -10 -2 -27 6 -38 18 -18 20 -28 22 -74 17 -61 -6 -74 3 -43
32 16 15 19 26 14 49 -7 34 12 55 27 28 5 -9 15 -16 22 -16 22 0 68 56 66 81
-1 13 -2 27 -1 32 1 6 45 0 62 -9z m-906 -27 c11 -17 29 -33 40 -35 31 -5 65
-24 59 -34 -8 -12 -116 0 -125 14 -11 18 -79 -21 -79 -45 0 -19 54 -77 71 -77
5 0 9 -7 9 -15 0 -22 -36 -18 -59 6 -21 22 -58 28 -98 14 -19 -6 -23 -4 -23
13 0 11 6 22 12 24 7 3 11 18 10 38 -2 32 -2 32 30 26 26 -5 37 -1 60 21 15
15 28 34 28 43 0 18 19 40 35 40 5 -1 19 -15 30 -33z m314 -73 c18 -9 35 -24
39 -33 3 -9 23 -32 44 -51 36 -34 49 -60 29 -60 -24 0 -61 21 -61 34 0 21 -37
30 -71 16 -16 -7 -36 -9 -45 -6 -15 6 -14 9 6 31 16 17 21 31 16 48 -3 13 -3
27 1 31 8 8 5 9 42 -10z m-294 -134 c3 -5 -1 -10 -9 -10 -9 0 -16 5 -16 10 0
6 4 10 9 10 6 0 13 -4 16 -10z m109 -41 c24 -11 42 -37 32 -46 -3 -3 -15 2
-27 11 -16 11 -34 14 -62 9 -38 -6 -39 -5 -28 16 13 23 46 27 85 10z m476 -11
c35 -33 22 -52 -16 -23 -12 9 -31 12 -51 9 -25 -5 -33 -3 -33 8 0 8 3 18 7 22
13 12 74 2 93 -16z m-906 -14 c20 -8 21 -24 2 -24 -8 0 -16 7 -20 15 -6 17 -4
18 18 9z m136 -70 c33 -35 40 -48 30 -54 -13 -8 -26 -1 -89 48 -15 13 -22 25
-18 36 10 27 31 18 77 -30z m434 24 c5 -9 7 -20 3 -24 -11 -11 -57 14 -57 31
0 21 39 16 54 -7z m444 5 c2 -8 -5 -13 -17 -13 -21 0 -35 13 -24 24 10 10 36
3 41 -11z m-1101 -59 c-9 -9 -28 6 -21 18 4 6 10 6 17 -1 6 -6 8 -13 4 -17z
m141 0 c-9 -9 -21 -13 -27 -9 -16 10 -3 25 22 25 20 0 20 -1 5 -16z m383 6
c22 -12 25 -30 6 -30 -8 0 -22 -9 -32 -20 -28 -31 -53 -26 -51 10 2 45 35 62
77 40z m-588 -89 c21 -31 34 -40 59 -43 21 -2 33 -8 33 -18 0 -9 -8 -14 -20
-12 -11 2 -33 4 -48 6 -15 2 -33 8 -39 14 -15 15 -48 16 -48 2 0 -5 -7 -10
-15 -10 -19 0 -19 14 0 30 11 9 14 22 10 42 -6 25 -4 28 18 28 17 0 32 -11 50
-39z m451 2 c20 -21 36 -41 36 -46 0 -15 -32 -19 -55 -7 -22 12 -28 10 -60
-14 -35 -27 -35 -27 -18 -51 10 -13 30 -31 46 -40 34 -20 36 -45 2 -45 -14 0
-25 5 -25 10 0 6 -14 19 -32 30 -30 18 -33 18 -60 2 -22 -12 -30 -14 -40 -4
-9 9 -6 17 12 37 18 19 21 28 12 37 -22 22 -13 31 24 25 31 -5 41 -2 65 21 20
18 27 33 23 46 -5 16 9 35 27 36 4 0 23 -17 43 -37z m-566 -81 c14 -36 33 -60
62 -80 42 -28 47 -37 23 -46 -11 -5 -23 -1 -33 11 -9 10 -31 26 -50 36 -34 18
-35 18 -51 -2 -11 -13 -24 -19 -33 -15 -20 8 -20 9 0 39 11 16 14 34 10 51 -7
26 -6 26 31 19 21 -4 39 -10 41 -13z m230 -173 c2 -5 10 -9 18 -9 8 0 14 -4
14 -10 0 -13 -17 -13 -25 0 -4 6 -23 7 -46 4 -43 -7 -47 -3 -23 21 16 16 55
12 62 -6z m-420 -17 c2 -7 -3 -12 -12 -12 -9 0 -16 7 -16 16 0 17 22 14 28 -4z
m138 -68 c48 -39 55 -54 24 -54 -20 0 -100 65 -100 81 0 19 35 7 76 -27z m158
-107 c15 -19 26 -39 26 -45 0 -15 -39 -26 -53 -14 -8 7 -20 6 -37 -3 -40 -23
-46 -17 -16 14 21 22 26 34 20 55 -9 39 28 35 60 -7z m-126 -82 c17 -9 33 -24
36 -33 3 -9 22 -28 41 -41 19 -13 35 -27 35 -32 0 -19 -19 -16 -61 11 -41 25
-48 26 -75 15 -48 -20 -77 6 -35 32 13 8 17 19 14 37 -6 30 2 32 45 11z m-178
-170 c7 -9 10 -18 6 -22 -8 -9 -56 14 -56 27 0 15 36 12 50 -5z m145 -77 c24
-18 43 -37 41 -43 -5 -15 -59 -8 -72 10 -6 8 -16 15 -22 15 -10 0 -22 22 -22
41 0 18 32 8 75 -23z m143 -90 c17 -17 15 -58 -2 -58 -20 0 -85 -42 -86 -55 0
-21 34 -58 67 -71 18 -8 31 -19 28 -24 -9 -15 -55 -12 -61 4 -10 25 -59 36
-83 19 -12 -8 -29 -12 -37 -9 -12 5 -11 10 7 35 17 23 19 33 10 49 -13 24 4
41 22 23 19 -19 43 -12 70 21 19 22 25 38 21 55 -5 18 -2 23 13 23 10 0 24 -5
31 -12z m-287 -284 c12 -14 11 -16 -5 -13 -11 2 -21 10 -24 17 -5 17 13 15 29
-4z m147 -73 c43 -39 53 -61 29 -61 -21 0 -77 30 -77 41 0 5 -7 9 -15 9 -15 0
-21 31 -8 43 13 14 29 6 71 -32z m138 -87 c27 -18 58 -69 50 -83 -3 -5 -23 -4
-44 2 -32 9 -41 7 -60 -9 -27 -23 -29 -60 -3 -69 11 -3 22 -12 25 -21 3 -8 17
-19 31 -24 35 -13 31 -30 -6 -30 -19 0 -43 10 -61 25 -31 26 -53 31 -77 16
-33 -21 -55 15 -25 40 10 8 13 21 9 36 -5 21 -2 23 32 23 45 0 83 32 83 70 0
24 7 40 17 40 2 0 15 -7 29 -16z m-426 -29 c19 -19 44 -35 56 -35 23 0 48 -22
38 -33 -10 -10 -98 4 -114 19 -13 11 -20 10 -45 -6 -52 -34 -52 -47 -1 -92 25
-23 46 -45 46 -49 0 -18 -52 -8 -69 12 -18 22 -62 29 -93 15 -26 -12 -35 20
-13 44 10 11 14 26 10 38 -7 26 9 36 34 22 32 -17 77 32 80 88 2 23 37 12 71
-23z m138 -248 c21 -17 13 -27 -17 -21 -16 3 -39 1 -51 -6 -17 -9 -25 -9 -34
0 -8 9 -6 16 11 29 23 19 66 18 91 -2z m-448 -12 c7 -9 10 -18 7 -22 -8 -7
-37 15 -37 28 0 14 16 11 30 -6z m139 -75 c23 -23 41 -43 41 -45 0 -3 -11 -5
-25 -5 -30 0 -101 63 -90 79 12 20 33 11 74 -29z m-219 -30 c0 -12 -28 -25
-36 -17 -9 9 6 27 22 27 8 0 14 -5 14 -10z m130 -5 c0 -8 -4 -15 -10 -15 -5 0
-10 7 -10 15 0 8 5 15 10 15 6 0 10 -7 10 -15z m220 -5 c0 -5 -9 -10 -20 -10
-11 0 -20 5 -20 10 0 6 9 10 20 10 11 0 20 -4 20 -10z m30 -80 c10 -24 10 -33
0 -45 -9 -11 -16 -12 -26 -4 -9 8 -21 5 -43 -12 -35 -26 -41 -58 -11 -66 10
-3 22 -14 25 -24 4 -10 13 -19 21 -19 18 0 15 -31 -3 -37 -6 -2 -27 10 -45 27
-22 22 -38 29 -53 25 -80 -23 -90 -17 -54 29 16 21 18 30 9 40 -15 19 2 28 35
20 36 -9 75 28 75 72 0 55 46 51 70 -6z m-450 0 c25 -27 45 -40 63 -40 28 0
45 -16 31 -30 -10 -10 -103 7 -121 22 -8 7 -23 1 -48 -17 -19 -15 -35 -31 -35
-35 0 -11 55 -66 74 -73 20 -8 21 -37 1 -37 -8 0 -23 8 -33 18 -27 27 -85 49
-90 34 -4 -12 -52 -18 -52 -7 0 4 7 20 16 36 11 22 12 34 5 43 -16 19 -2 27
34 20 41 -7 90 35 81 70 -12 50 26 48 74 -4z m124 -246 c34 -13 16 -29 -29
-26 -25 2 -45 8 -45 12 0 17 45 25 74 14z m-430 -19 c10 -7 15 -18 12 -24 -9
-14 -56 8 -56 26 0 17 20 16 44 -2z m134 -72 c17 -13 32 -33 32 -44 0 -25 -9
-24 -50 6 -39 29 -54 51 -45 65 7 11 15 8 63 -27z m-92 -50 c-10 -10 -19 5
-10 18 6 11 8 11 12 0 2 -7 1 -15 -2 -18z m362 14 c9 -10 7 -19 -4 -35 -21
-30 -34 -28 -34 6 0 42 17 54 38 29z m-130 -43 c12 -4 22 -11 22 -17 0 -6 12
-23 26 -38 16 -17 24 -34 20 -44 -5 -14 -10 -13 -46 5 l-41 21 -29 -30 c-35
-35 -37 -46 -10 -63 11 -7 20 -19 20 -26 0 -7 12 -18 28 -24 20 -8 23 -12 11
-15 -9 -2 -34 7 -54 21 -42 29 -66 32 -95 14 -27 -17 -37 -2 -15 22 12 13 15
27 11 45 -6 25 -5 26 23 20 26 -5 36 -1 65 28 26 27 33 40 29 61 -6 27 -2 29
35 20z m-397 -226 c2 -54 -2 -82 -13 -93 -7 -7 -9 -3 -5 14 3 13 -1 33 -9 47
-18 26 -10 64 12 64 9 0 14 -11 15 -32z m109 -78 c0 -5 -4 -10 -10 -10 -5 0
-10 5 -10 10 0 6 5 10 10 10 6 0 10 -4 10 -10z m171 -92 c23 -32 12 -42 -29
-27 -35 12 -66 53 -58 75 5 13 10 13 37 -3 17 -10 40 -30 50 -45z m111 -56
c22 -9 79 -82 72 -93 -9 -15 -51 -10 -64 6 -12 14 -17 12 -47 -17 -18 -17 -33
-36 -33 -40 0 -12 51 -56 73 -63 9 -4 17 -13 17 -21 0 -22 -37 -17 -60 9 -18
18 -31 22 -81 20 l-59 -1 21 29 c12 17 18 37 14 48 -8 25 9 35 34 19 18 -11
24 -9 51 17 24 23 30 36 26 56 -7 37 2 45 36 31z m-281 -297 c-1 -15 -24 -12
-29 3 -3 9 2 13 12 10 10 -1 17 -7 17 -13z m168 -99 c20 -33 10 -41 -28 -22
-35 19 -66 60 -56 76 9 15 63 -20 84 -54z m153 -95 c13 -26 15 -38 6 -48 -9
-11 -14 -11 -28 2 -18 16 -40 20 -40 7 0 -5 -11 -14 -25 -20 -14 -6 -25 -18
-25 -25 0 -17 59 -81 85 -92 18 -8 17 -9 -8 -13 -19 -2 -37 5 -59 23 -32 27
-40 28 -107 9 l-25 -7 22 30 c12 17 22 43 22 57 0 26 13 35 25 16 19 -30 85
23 85 68 0 46 48 41 72 -7z m-698 -8 c4 -5 22 -8 39 -8 21 0 33 -5 35 -16 5
-26 -28 -32 -53 -9 -12 11 -24 17 -28 14 -9 -9 -28 6 -22 17 7 11 19 12 29 2z
m14 -84 c4 -24 -30 -34 -45 -13 -7 9 -10 21 -7 26 9 15 49 5 52 -13z m97 -80
c10 -15 -1 -23 -20 -15 -9 3 -13 10 -10 16 8 13 22 13 30 -1z m275 -84 c0 -8
-7 -15 -15 -15 -8 0 -15 7 -15 15 0 8 7 15 15 15 8 0 15 -7 15 -15z m138 -71
c50 -42 54 -59 12 -50 -47 9 -106 86 -67 86 7 0 32 -16 55 -36z"/>
<path d="M6056 5005 c-6 -17 2 -45 14 -45 15 0 22 19 15 40 -8 24 -21 26 -29
5z"/>
<path d="M63 4958 c2 -7 10 -13 17 -13 7 0 15 6 18 13 2 7 -5 12 -18 12 -13 0
-20 -5 -17 -12z"/>
<path d="M6014 4929 c-10 -11 -18 -35 -19 -52 0 -18 -5 -31 -11 -30 -18 3 -47
-34 -40 -52 3 -8 17 -20 31 -25 29 -11 31 -18 9 -34 -26 -19 -7 -46 27 -39 28
5 41 -9 19 -22 -5 -3 -10 -22 -10 -41 0 -31 3 -35 23 -32 14 2 22 10 23 23 0
11 4 31 8 43 6 18 3 27 -13 38 -22 16 -29 68 -11 79 14 9 12 79 -2 93 -10 10
-10 17 0 32 26 42 0 57 -34 19z"/>
<path d="M1890 4925 c0 -8 7 -15 15 -15 9 0 12 6 9 15 -4 8 -10 15 -15 15 -5
0 -9 -7 -9 -15z"/>
<path d="M82 4898 c5 -32 28 -35 28 -4 0 17 -5 26 -16 26 -10 0 -14 -7 -12
-22z"/>
<path d="M186 4870 c-30 -55 -29 -54 -55 -41 -24 14 -61 2 -61 -18 0 -17 57
-51 85 -51 15 0 45 53 45 80 0 9 9 25 20 35 23 21 26 45 7 45 -8 0 -26 -22
-41 -50z"/>
<path d="M1970 4860 c0 -15 7 -20 25 -20 27 0 32 9 13 28 -18 18 -38 14 -38
-8z"/>
<path d="M1816 4798 c-25 -14 -2 -40 29 -32 15 4 26 0 32 -10 7 -13 15 -14 46
-5 33 9 40 7 71 -17 32 -26 34 -29 21 -53 -12 -24 -52 -50 -99 -65 -34 -11
-10 -17 73 -18 69 -1 85 2 101 18 17 17 18 24 8 59 -14 50 -55 95 -85 95 -13
0 -26 7 -29 15 -8 21 -26 19 -54 -7 -16 -15 -25 -18 -28 -10 -2 7 -12 12 -23
12 -10 0 -19 4 -19 9 0 14 -25 20 -44 9z"/>
<path d="M240 4746 c0 -22 29 -41 42 -28 8 8 8 15 -2 27 -16 19 -40 20 -40 1z"/>
<path d="M135 4708 c-3 -7 -6 -38 -8 -68 -1 -42 1 -55 13 -57 30 -6 37 11 32
75 -3 44 -8 62 -19 62 -7 0 -16 -6 -18 -12z"/>
<path d="M6502 4543 c2 -21 8 -38 13 -38 6 0 11 17 13 38 3 29 0 37 -13 37
-13 0 -16 -8 -13 -37z"/>
<path d="M5140 4540 c0 -33 -11 -38 -30 -15 -7 8 -24 15 -39 15 -15 0 -32 5
-38 11 -15 15 -33 3 -33 -22 0 -22 33 -39 95 -48 26 -4 41 -12 43 -23 5 -24
-34 -33 -63 -14 -13 9 -33 16 -45 16 -11 0 -20 5 -20 10 0 18 -48 11 -52 -7
-2 -10 -12 -18 -23 -18 -16 0 -19 -8 -20 -44 -1 -55 19 -78 66 -77 27 1 35 5
37 24 2 15 -2 22 -12 22 -25 0 -19 29 8 41 17 8 29 8 45 0 27 -15 27 -38 1
-46 -11 -3 -21 -14 -21 -23 -2 -31 3 -57 12 -60 16 -6 10 -52 -8 -59 -34 -12
-44 -25 -32 -39 8 -10 16 -11 29 -4 23 12 47 4 81 -27 34 -31 49 -13 20 23
-21 27 -28 54 -13 54 4 0 12 -10 17 -22 6 -13 18 -24 28 -26 21 -4 22 11 2 32
-8 8 -15 26 -15 40 0 18 -6 25 -22 28 -19 2 -22 8 -20 31 3 19 -1 27 -12 27
-9 0 -16 4 -16 9 0 21 17 18 39 -5 25 -26 51 -25 82 2 8 8 30 15 47 17 30 4
92 50 92 69 0 13 -35 9 -49 -4 -10 -11 -16 -9 -31 10 -19 23 -40 29 -40 12 0
-5 -7 -10 -15 -10 -8 0 -15 7 -15 15 0 8 7 15 15 15 9 0 15 9 15 23 0 31 -10
43 -42 51 -16 3 -28 11 -28 16 0 6 -4 10 -10 10 -5 0 -10 -13 -10 -30z m55
-151 c4 -6 5 -13 2 -15 -8 -8 -77 7 -77 17 0 13 67 11 75 -2z"/>
<path d="M614 4536 c-9 -23 0 -79 13 -84 18 -5 26 22 19 63 -7 36 -22 46 -32
21z"/>
<path d="M1510 4520 c-6 -11 -9 -24 -6 -29 3 -4 -8 -22 -25 -39 -20 -21 -29
-37 -25 -49 4 -14 -3 -24 -24 -36 -37 -22 -38 -41 -5 -72 21 -18 24 -29 19
-50 -7 -26 -5 -28 21 -21 l28 7 -6 -44 c-7 -47 9 -75 36 -64 16 6 14 110 -2
115 -13 4 -15 58 -2 66 13 9 10 95 -4 106 -10 8 -9 18 5 46 10 19 24 41 30 49
6 8 9 19 5 25 -10 17 -33 12 -45 -10z"/>
<path d="M2780 4488 c0 -14 7 -28 15 -31 24 -10 29 14 6 36 l-21 21 0 -26z"/>
<path d="M2874 4425 c-7 -18 12 -45 32 -45 17 0 18 14 4 41 -13 23 -28 25 -36
4z"/>
<path d="M6507 4404 c-10 -10 -9 -52 2 -58 13 -8 33 20 29 40 -3 19 -20 28
-31 18z"/>
<path d="M617 4384 c-11 -11 -8 -49 5 -62 21 -21 29 -13 26 25 -3 35 -17 51
-31 37z"/>
<path d="M2713 4334 c-7 -20 17 -37 34 -23 15 13 6 39 -13 39 -8 0 -17 -7 -21
-16z"/>
<path d="M2777 4323 c-13 -12 -7 -23 13 -23 13 0 18 5 14 15 -7 16 -17 19 -27
8z"/>
<path d="M5180 4290 c0 -5 5 -10 10 -10 6 0 10 5 10 10 0 6 -4 10 -10 10 -5 0
-10 -4 -10 -10z"/>
<path d="M6486 4278 c-2 -7 -7 -37 -11 -66 -6 -52 -5 -53 17 -50 21 3 23 8 23
62 0 39 -4 61 -12 63 -7 3 -15 -1 -17 -9z"/>
<path d="M585 4260 c-4 -6 -4 -24 0 -40 3 -16 2 -38 -4 -48 -13 -24 7 -46 36
-40 14 2 19 14 21 51 1 26 -2 57 -8 67 -12 22 -35 26 -45 10z"/>
<path d="M4234 4106 c-9 -23 0 -79 14 -84 8 -2 12 11 12 47 0 48 -14 68 -26
37z"/>
<path d="M153 4093 c-7 -2 -13 -13 -13 -23 0 -19 -1 -19 -33 0 -65 38 -135 -4
-74 -44 12 -8 41 -19 65 -25 24 -5 46 -12 49 -14 9 -10 -8 -27 -28 -27 -19 0
-27 3 -87 34 l-32 17 0 -47 c0 -37 3 -45 12 -36 16 16 40 15 63 -2 16 -12 17
-16 6 -30 -17 -20 -51 -21 -51 -1 0 8 -7 15 -15 15 -11 0 -15 -12 -15 -46 0
-35 3 -45 14 -41 8 3 24 -5 36 -18 28 -30 20 -61 -20 -69 -19 -3 -30 -12 -30
-22 0 -14 7 -16 45 -11 38 6 48 3 75 -19 28 -24 69 -27 55 -4 -3 5 5 14 19 20
32 12 32 15 1 52 -33 39 -32 46 12 50 42 3 59 28 19 28 -16 0 -26 6 -26 15 0
19 31 35 67 35 20 0 40 11 62 34 38 39 34 61 -10 52 -30 -6 -40 7 -14 18 22 8
18 36 -5 36 -11 0 -20 -7 -20 -15 0 -8 -7 -15 -15 -15 -9 0 -15 9 -15 23 0 41
-12 66 -34 72 -39 12 -51 13 -63 8z m7 -263 c0 -5 -4 -10 -10 -10 -5 0 -10 5
-10 10 0 6 5 10 10 10 6 0 10 -4 10 -10z"/>
<path d="M4600 4031 c0 -6 5 -13 10 -16 6 -3 10 1 10 9 0 9 -4 16 -10 16 -5 0
-10 -4 -10 -9z"/>
<path d="M5960 4030 c0 -5 5 -10 10 -10 6 0 10 5 10 10 0 6 -4 10 -10 10 -5 0
-10 -4 -10 -10z"/>
<path d="M4792 3999 c2 -6 8 -10 13 -10 5 0 11 4 13 10 2 6 -4 11 -13 11 -9 0
-15 -5 -13 -11z"/>
<path d="M6050 3970 c0 -11 7 -23 15 -27 21 -8 28 1 20 26 -8 27 -35 27 -35 1z"/>
<path d="M4686 3971 c-3 -4 3 -16 13 -25 21 -19 37 -7 27 19 -6 16 -32 20 -40
6z"/>
<path d="M4237 3954 c-11 -11 -8 -62 4 -70 11 -7 29 12 29 32 0 17 -25 46 -33
38z"/>
<path d="M4652 3889 c-7 -12 -12 -22 -10 -23 2 -2 29 -16 61 -32 31 -15 57
-31 57 -34 0 -11 -97 -80 -114 -80 -9 0 -16 -4 -16 -8 0 -5 36 -8 80 -8 61 1
85 6 101 19 16 14 18 21 9 32 -6 8 -13 26 -15 41 -4 37 -39 64 -82 64 -26 0
-34 4 -30 14 5 13 -10 36 -23 36 -3 0 -11 -9 -18 -21z"/>
<path d="M6017 3892 c-23 -25 -21 -32 6 -32 13 0 32 -9 41 -19 10 -11 28 -22
42 -25 13 -4 24 -13 24 -22 0 -8 -5 -12 -11 -9 -6 4 -20 -2 -32 -13 -12 -11
-37 -27 -54 -36 -34 -17 -48 -45 -15 -30 25 11 102 13 102 3 0 -5 8 -9 18 -9
23 0 49 57 33 73 -6 6 -11 21 -11 33 0 27 -44 64 -76 64 -14 0 -25 8 -29 20
-8 25 -17 25 -38 2z"/>
<path d="M4524 3889 c-9 -16 18 -30 33 -17 7 6 10 14 7 19 -7 13 -31 11 -40
-2z"/>
<path d="M5886 3891 c-3 -5 0 -11 8 -14 15 -6 26 1 26 15 0 11 -27 10 -34 -1z"/>
<path d="M4820 3870 c0 -5 5 -10 10 -10 6 0 10 5 10 10 0 6 -4 10 -10 10 -5 0
-10 -4 -10 -10z"/>
<path d="M5942 3869 c2 -6 8 -10 13 -10 5 0 11 4 13 10 2 6 -4 11 -13 11 -9 0
-15 -5 -13 -11z"/>
<path d="M4217 3823 c-2 -4 -8 -34 -11 -65 -7 -58 -7 -58 19 -58 33 0 40 20
29 78 -8 42 -26 64 -37 45z"/>
<path d="M5140 3626 c0 -50 16 -70 26 -32 8 33 2 69 -13 74 -9 2 -13 -10 -13
-42z"/>
<path d="M6395 3631 c-3 -5 2 -16 10 -24 8 -9 15 -27 15 -41 0 -32 17 -42 25
-15 4 13 1 27 -9 38 -9 10 -16 25 -16 34 0 18 -15 23 -25 8z"/>
<path d="M1055 3620 c-3 -5 -4 -14 -1 -19 3 -5 -10 -26 -29 -47 -20 -21 -33
-45 -30 -52 3 -8 -6 -23 -20 -34 -26 -20 -33 -52 -15 -63 6 -4 8 -15 5 -24 -5
-16 20 -81 31 -81 2 0 13 5 24 12 10 7 23 9 27 4 4 -4 0 -12 -9 -17 -13 -7
-16 -17 -11 -42 3 -18 11 -35 17 -39 6 -4 12 -30 13 -57 1 -28 4 -55 8 -61 10
-16 34 7 29 28 -26 106 -32 399 -10 443 8 17 12 37 9 45 -6 16 -29 19 -38 4z"/>
<path d="M1872 3574 c1 -9 9 -19 16 -22 9 -3 13 2 10 14 -1 9 -9 19 -16 22 -9
3 -13 -2 -10 -14z"/>
<path d="M6542 3565 c-12 -14 -22 -33 -22 -43 0 -31 -20 -42 -67 -35 -36 5
-43 3 -43 -11 0 -9 5 -17 10 -17 6 -1 14 -2 20 -3 5 0 15 -7 22 -13 24 -25 39
-12 74 63 39 81 40 99 6 59z"/>
<path d="M1976 3541 c-23 -25 -17 -55 12 -59 20 -3 22 1 22 37 0 45 -8 51 -34
22z"/>
<path d="M2064 3525 c-11 -23 -11 -24 12 -8 13 8 21 19 18 24 -9 15 -18 10
-30 -16z"/>
<path d="M3786 3474 c-9 -33 18 -70 29 -42 9 23 2 61 -11 65 -7 2 -15 -8 -18
-23z"/>
<path d="M5140 3471 c0 -38 16 -48 30 -20 14 25 6 49 -15 49 -10 0 -15 -10
-15 -29z"/>
<path d="M2005 3441 c-8 -35 -20 -40 -28 -11 -7 29 -57 28 -57 -1 0 -14 -5
-19 -17 -17 -10 2 -17 11 -17 21 1 13 -6 17 -36 17 -43 0 -67 -19 -48 -38 7
-7 20 -12 29 -12 10 0 21 -5 24 -11 4 -5 30 -9 58 -7 37 1 60 -3 80 -16 15
-10 27 -20 27 -23 0 -13 -43 -63 -54 -63 -8 0 -31 -7 -52 -16 -33 -14 -36 -17
-20 -26 11 -6 27 -6 45 0 19 7 44 7 74 0 39 -8 50 -7 71 9 29 21 32 35 11 53
-8 7 -15 23 -15 35 0 13 -11 37 -25 53 -29 35 -31 42 -9 42 24 0 12 34 -13 38
-17 2 -23 -3 -28 -27z"/>
<path d="M2087 3458 c4 -7 8 -22 8 -33 0 -11 7 -20 15 -20 9 0 14 7 12 20 -4
23 -20 45 -34 45 -5 0 -6 -6 -1 -12z"/>
<path d="M6590 3401 c0 -11 5 -23 11 -27 14 -8 29 14 22 33 -8 20 -33 16 -33
-6z"/>
<path d="M3760 3337 c0 -24 -5 -48 -12 -55 -20 -20 13 -47 40 -33 16 9 19 18
15 58 -6 64 -10 73 -28 73 -11 0 -15 -11 -15 -43z"/>
<path d="M5120 3344 c0 -19 -5 -45 -11 -56 -15 -29 2 -45 34 -31 24 11 26 29
11 101 -8 37 -34 27 -34 -14z"/>
<path d="M6477 3373 c-4 -3 -7 -23 -7 -43 0 -20 -5 -41 -12 -48 -15 -15 -7
-22 28 -25 24 -2 28 1 26 18 -2 11 -6 39 -9 63 -5 40 -12 50 -26 35z"/>
<path d="M3770 3185 c0 -31 -13 -32 -32 -3 -14 21 -17 21 -33 8 -14 -11 -19
-12 -22 -2 -3 6 -10 12 -17 12 -19 0 -35 -21 -29 -37 8 -20 82 -56 100 -49 16
7 43 -10 43 -25 0 -12 -63 -12 -75 0 -6 5 -23 11 -40 12 -16 2 -36 7 -43 13
-9 6 -22 0 -43 -20 -24 -23 -29 -36 -27 -64 2 -29 9 -38 38 -52 19 -9 46 -17
58 -18 24 0 61 -35 62 -58 0 -7 -16 -22 -35 -33 -42 -25 -37 -39 14 -39 23 0
44 -6 51 -16 8 -8 21 -19 31 -25 15 -7 21 -3 34 25 15 32 15 36 0 60 -10 15
-14 33 -10 46 5 17 2 20 -19 20 -29 0 -33 11 -11 30 11 9 18 10 28 1 11 -8 18
-6 32 9 12 13 31 20 56 20 30 0 44 7 68 33 36 37 36 40 15 58 -13 11 -17 11
-25 -3 -7 -13 -15 -13 -56 -3 -53 13 -70 35 -28 35 22 0 26 3 20 18 -4 9 -10
25 -12 35 -3 10 -15 17 -29 17 -12 0 -26 5 -29 10 -12 20 -35 10 -35 -15z
m-67 -140 c18 -13 18 -14 -3 -25 -12 -6 -29 -8 -38 -4 -9 4 -20 6 -24 6 -14
-3 -8 11 10 24 22 17 32 17 55 -1z m117 -5 c0 -5 -4 -10 -10 -10 -5 0 -10 5
-10 10 0 6 5 10 10 10 6 0 10 -4 10 -10z m-74 -48 c-8 -9 -19 -13 -22 -9 -10
9 16 38 28 31 6 -4 4 -13 -6 -22z m34 -148 c0 -8 -4 -12 -10 -9 -5 3 -10 10
-10 16 0 5 5 9 10 9 6 0 10 -7 10 -16z"/>
<path d="M5455 3200 c-18 -30 31 -70 86 -70 14 0 33 -7 40 -16 11 -14 11 -18
-4 -29 -19 -13 -57 -9 -57 6 0 5 -14 9 -31 9 -17 0 -39 5 -50 11 -29 15 -73
-22 -76 -66 -2 -36 18 -56 70 -69 23 -5 27 -3 27 14 0 11 -7 23 -15 26 -21 9
-19 27 6 42 17 11 27 11 50 2 28 -12 41 -40 18 -40 -6 0 -17 -7 -26 -16 -14
-14 -14 -18 2 -48 22 -41 14 -86 -15 -86 -13 0 -20 -7 -20 -20 0 -18 5 -20 38
-14 30 5 41 2 56 -15 11 -12 25 -21 33 -21 18 0 17 25 -2 40 -8 7 -15 18 -15
25 0 7 7 18 15 25 23 19 19 48 -7 52 -17 2 -22 9 -20 26 3 23 -13 31 -21 10
-4 -9 -6 -7 -6 3 -1 25 45 69 74 69 14 0 25 -4 25 -10 0 -5 -11 -10 -24 -10
-29 0 -39 -12 -30 -34 7 -19 50 -21 61 -3 12 20 75 40 83 26 5 -7 19 1 41 20
26 24 31 33 21 43 -9 9 -15 9 -24 0 -17 -17 -22 -15 -56 13 -25 21 -31 23 -36
9 -3 -8 -10 -12 -16 -9 -16 10 -12 22 10 28 24 6 27 42 4 64 -12 12 -18 13
-23 4 -6 -9 -11 -8 -21 4 -19 22 -43 19 -37 -5 7 -25 -7 -34 -23 -15 -7 8 -25
15 -41 15 -15 0 -31 5 -34 10 -8 13 -22 13 -30 0z"/>
<path d="M147 3193 c-4 -3 -7 -17 -7 -30 0 -30 -17 -29 -32 2 -8 18 -19 25
-40 25 -48 0 -68 -16 -68 -57 0 -30 2 -34 15 -23 10 9 19 9 27 2 7 -5 32 -13
56 -17 26 -4 42 -12 42 -21 0 -18 -34 -18 -71 2 -38 19 -69 10 -69 -21 0 -21
3 -23 34 -18 43 7 58 -13 27 -38 -20 -17 -25 -17 -38 -4 -21 21 -23 19 -23
-19 0 -25 5 -35 19 -39 10 -2 27 -17 37 -32 l18 -27 -35 -29 c-41 -33 -32 -54
18 -40 24 7 35 6 44 -5 29 -35 50 -37 76 -10 13 14 29 26 36 26 7 0 -1 12 -16
25 -35 31 -35 71 1 68 28 -4 65 14 57 27 -3 5 -19 7 -35 3 -17 -3 -30 -1 -30
5 0 18 29 34 76 43 76 14 114 83 46 85 -41 0 -69 24 -29 24 15 0 27 5 27 10 0
6 -14 9 -32 8 -28 -3 -33 1 -41 30 -8 24 -16 32 -33 32 -12 0 -26 5 -29 10 -7
12 -19 13 -28 3z"/>
<path d="M494 3166 c-3 -8 2 -26 11 -40 10 -14 14 -33 10 -45 -8 -26 13 -37
33 -18 13 14 14 20 2 44 -7 15 -12 38 -11 51 2 16 -3 22 -19 22 -11 0 -23 -6
-26 -14z"/>
<path d="M2760 3173 c0 -20 26 -73 38 -78 22 -8 27 2 15 28 -6 12 -14 30 -17
40 -5 16 -36 25 -36 10z"/>
<path d="M4140 3132 c0 -13 7 -25 15 -29 26 -9 28 4 6 28 l-21 23 0 -22z"/>
<path d="M2880 3121 c-6 -12 -7 -21 -3 -21 4 0 2 -5 -5 -12 -17 -17 -15 -48 3
-48 9 0 18 -7 21 -15 13 -33 23 -12 21 47 -2 65 -17 85 -37 49z"/>
<path d="M6412 3128 c6 -18 28 -21 28 -4 0 9 -7 16 -16 16 -9 0 -14 -5 -12
-12z"/>
<path d="M643 3095 c-12 -14 -23 -35 -25 -47 -4 -32 -36 -35 -47 -6 -6 13 -10
17 -10 11 -1 -7 -8 -13 -16 -13 -14 0 -35 -29 -35 -49 0 -5 12 -11 28 -13 15
-2 26 -8 24 -16 -3 -18 26 -26 43 -12 8 7 15 21 15 31 0 11 4 19 9 19 5 0 12
13 16 29 3 16 13 35 21 42 15 12 20 49 7 49 -5 0 -18 -12 -30 -25z"/>
<path d="M6600 3100 c0 -5 5 -10 10 -10 6 0 10 5 10 10 0 6 -4 10 -10 10 -5 0
-10 -4 -10 -10z"/>
<path d="M2965 3090 c-4 -6 5 -10 20 -10 15 0 24 4 20 10 -3 6 -12 10 -20 10
-8 0 -17 -4 -20 -10z"/>
<path d="M6500 3071 c0 -22 25 -39 38 -27 8 8 -10 38 -26 44 -7 2 -12 -6 -12
-17z"/>
<path d="M4220 3072 c0 -5 9 -17 20 -27 23 -21 47 -8 37 19 -7 16 -57 23 -57
8z"/>
<path d="M2714 3049 c-3 -6 -1 -16 5 -22 8 -8 6 -16 -6 -29 -13 -14 -13 -20
-3 -33 17 -21 23 -19 43 14 16 28 16 30 1 39 -11 6 -13 11 -5 16 6 4 11 11 11
17 0 13 -37 11 -46 -2z"/>
<path d="M1060 3006 c0 -38 14 -55 24 -30 11 29 6 64 -9 64 -10 0 -15 -10 -15
-34z"/>
<path d="M680 3006 c0 -17 27 -29 35 -16 4 6 3 15 0 20 -9 15 -35 12 -35 -4z"/>
<path d="M2834 3002 c-7 -4 -14 -16 -17 -27 -5 -19 -5 -19 -12 3 -10 29 -19
28 -33 -3 -15 -31 1 -40 52 -31 33 6 106 -18 106 -35 0 -17 -43 -57 -79 -74
-23 -10 -41 -21 -41 -25 0 -11 153 -6 173 6 42 25 -14 164 -67 164 -12 0 -30
7 -40 15 -22 17 -26 18 -42 7z"/>
<path d="M4077 3003 c-11 -10 -8 -20 8 -27 10 -4 15 1 15 14 0 20 -11 26 -23
13z"/>
<path d="M6347 3004 c-13 -13 -7 -24 14 -24 11 0 19 5 17 12 -5 14 -22 21 -31
12z"/>
<path d="M6477 3003 c-13 -12 -7 -33 8 -33 8 0 15 9 15 20 0 20 -11 26 -23 13z"/>
<path d="M4186 2984 c-8 -22 -9 -21 22 -27 33 -7 72 -39 72 -60 0 -17 -45 -57
-65 -57 -7 0 -18 -6 -24 -13 -9 -11 3 -14 69 -15 69 -1 81 2 90 18 27 50 -36
156 -85 144 -15 -4 -24 0 -28 10 -8 21 -43 21 -51 0z"/>
<path d="M4365 2991 c-3 -5 -1 -12 5 -16 5 -3 10 1 10 9 0 18 -6 21 -15 7z"/>
<path d="M6400 2975 c0 -8 5 -15 10 -15 6 0 10 7 10 15 0 8 -4 15 -10 15 -5 0
-10 -7 -10 -15z"/>
<path d="M4136 2965 c4 -8 10 -15 15 -15 5 0 9 7 9 15 0 8 -7 15 -15 15 -9 0
-12 -6 -9 -15z"/>
<path d="M6520 2965 c0 -8 18 -24 40 -35 33 -17 40 -26 40 -50 0 -16 -4 -32
-10 -35 -6 -4 -10 8 -10 29 0 41 -13 46 -35 13 -8 -13 -30 -29 -50 -36 -39
-14 -51 -48 -12 -35 24 8 85 7 99 -2 5 -3 18 2 29 12 42 37 -6 152 -63 153
-18 1 -28 -4 -28 -14z"/>
<path d="M680 2945 c0 -19 32 -36 50 -25 11 7 11 11 1 24 -17 20 -51 21 -51 1z"/>
<path d="M3820 2945 c0 -17 9 -19 28 -6 11 7 10 10 -3 15 -23 9 -25 8 -25 -9z"/>
<path d="M5650 2950 c0 -5 7 -10 15 -10 8 0 15 5 15 10 0 6 -7 10 -15 10 -8 0
-15 -4 -15 -10z"/>
<path d="M1045 2918 c-3 -12 -8 -36 -17 -93 -2 -16 3 -20 25 -20 15 0 27 3 27
8 0 4 0 32 0 62 0 43 -3 55 -15 55 -9 0 -17 -6 -20 -12z"/>
<path d="M572 2859 c-6 -34 -9 -66 -6 -70 8 -14 38 -11 60 6 18 14 18 16 2 26
-13 7 -18 23 -18 54 0 69 -24 58 -38 -16z"/>
<path d="M5596 2855 c3 -8 17 -14 30 -13 30 3 31 14 2 22 -34 9 -38 7 -32 -9z"/>
<path d="M4682 2738 c2 -12 11 -24 21 -26 14 -3 18 1 15 20 -2 12 -11 24 -21
26 -14 3 -18 -1 -15 -20z"/>
<path d="M1880 2691 c0 -12 5 -21 10 -21 6 0 10 6 10 14 0 8 -4 18 -10 21 -5
3 -10 -3 -10 -14z"/>
<path d="M4641 2674 c-13 -15 -21 -34 -18 -45 4 -13 -4 -26 -24 -40 -36 -25
-37 -43 -4 -65 21 -14 25 -22 20 -45 -6 -27 15 -55 23 -31 2 7 8 12 13 12 6 0
7 -20 3 -49 -5 -43 -4 -50 14 -60 15 -8 23 -7 30 2 14 17 12 78 -3 97 -17 20
-28 87 -15 92 9 3 12 40 8 98 -1 14 0 31 3 39 7 26 -26 22 -50 -5z"/>
<path d="M1820 2605 c0 -8 5 -15 10 -15 6 0 10 7 10 15 0 8 -4 15 -10 15 -5 0
-10 -7 -10 -15z"/>
<path d="M1803 2544 c-6 -16 15 -37 29 -28 4 3 8 14 8 25 0 23 -28 26 -37 3z"/>
<path d="M6496 2320 c-3 -8 -6 -23 -8 -33 -3 -17 -4 -17 -28 0 -14 10 -35 16
-46 15 -12 -2 -25 2 -29 7 -11 19 -25 12 -25 -14 0 -16 7 -28 18 -31 9 -3 26
-10 37 -15 11 -5 31 -8 45 -7 19 2 26 -2 28 -17 1 -11 -2 -26 -7 -34 -7 -11
-14 -10 -39 8 -17 11 -43 21 -59 21 -16 0 -35 6 -42 13 -10 10 -16 8 -28 -10
-9 -13 -22 -23 -30 -23 -10 0 -13 -6 -9 -16 4 -9 1 -23 -5 -31 -14 -16 -8 -23
44 -52 46 -26 43 -26 50 1 4 15 0 26 -13 35 -38 27 -1 58 56 47 24 -4 34 -12
34 -25 0 -12 7 -19 20 -19 11 0 20 7 20 15 0 10 10 15 30 15 20 0 30 -5 30
-15 0 -18 -17 -20 -22 -3 -6 17 -38 -14 -38 -36 0 -26 48 -19 96 14 24 16 44
25 44 20 0 -19 35 -9 53 15 24 33 13 50 -18 29 -22 -15 -25 -14 -37 5 -14 23
-34 27 -41 9 -3 -10 -10 -8 -25 6 -24 21 -20 36 9 36 31 0 21 44 -11 48 -13 2
-30 11 -36 20 -11 15 -13 15 -18 2z"/>
<path d="M3320 2282 c0 -43 8 -56 25 -42 15 13 7 80 -11 80 -10 0 -14 -12 -14
-38z"/>
<path d="M604 2297 c-10 -27 0 -72 16 -72 11 0 15 11 15 39 0 40 -20 61 -31
33z"/>
<path d="M1057 2293 c-4 -3 -7 -14 -7 -23 0 -9 -16 -35 -35 -57 -19 -23 -33
-48 -30 -55 3 -8 -3 -23 -15 -33 -24 -22 -25 -42 -3 -67 15 -17 15 -18 0 -18
-10 0 -17 -4 -17 -10 0 -5 4 -10 10 -10 5 0 13 -12 16 -26 5 -21 11 -25 31
-19 24 6 25 4 19 -29 -7 -36 14 -71 38 -63 19 6 27 96 10 122 -10 16 -12 30
-5 51 5 16 12 48 15 71 5 33 3 44 -11 52 -16 9 -16 11 -2 28 22 25 30 64 17
80 -12 14 -21 16 -31 6z"/>
<path d="M4120 2281 c0 -5 7 -14 15 -21 9 -7 13 -21 10 -31 -6 -18 9 -34 24
-25 13 9 -19 86 -36 86 -7 0 -13 -4 -13 -9z"/>
<path d="M4252 2191 c-30 -48 -32 -49 -66 -41 -36 8 -53 -1 -41 -20 3 -5 11
-10 17 -10 7 0 22 -10 35 -22 27 -25 30 -23 64 52 13 30 27 57 32 58 10 5 9
32 -2 32 -5 0 -23 -22 -39 -49z"/>
<path d="M606 2145 c-9 -23 -8 -63 2 -69 18 -11 33 12 30 44 -3 36 -22 51 -32
25z"/>
<path d="M695 2151 c-3 -5 -1 -12 5 -16 5 -3 10 1 10 9 0 18 -6 21 -15 7z"/>
<path d="M3324 2146 c-9 -23 0 -51 16 -51 10 0 15 10 15 29 0 32 -21 47 -31
22z"/>
<path d="M6400 2120 c-11 -21 -3 -71 14 -82 15 -10 -12 -55 -36 -61 -37 -10
-14 -32 29 -29 28 2 44 -1 50 -11 4 -8 18 -19 31 -26 18 -10 22 -9 22 4 0 8
-9 23 -20 32 -23 20 -27 45 -5 37 8 -4 15 -12 15 -20 0 -15 35 -19 44 -6 3 5
-6 15 -19 22 -18 10 -24 21 -23 39 3 23 0 26 -24 23 -21 -2 -29 4 -41 28 -9
17 -11 32 -6 36 14 9 10 34 -6 34 -8 0 -19 -9 -25 -20z"/>
<path d="M1106 2102 c-9 -15 4 -42 20 -42 18 0 18 11 1 35 -9 11 -16 14 -21 7z"/>
<path d="M6440 2095 c0 -8 7 -15 15 -15 8 0 15 7 15 15 0 8 -7 15 -15 15 -8 0
-15 -7 -15 -15z"/>
<path d="M4308 2074 c-12 -11 4 -34 24 -34 13 0 18 6 16 17 -3 18 -29 29 -40
17z"/>
<path d="M3307 2043 c-2 -4 -8 -33 -11 -64 -6 -46 -4 -58 8 -62 28 -11 47 20
40 66 -6 42 -27 76 -37 60z"/>
<path d="M587 2033 c-4 -3 -7 -23 -7 -43 0 -20 -5 -41 -11 -47 -19 -19 -2 -43
30 -43 l30 0 -5 58 c-7 79 -15 97 -37 75z"/>
<path d="M4198 1998 c-3 -24 -8 -51 -12 -60 -11 -25 25 -42 50 -23 16 12 17
17 7 34 -7 12 -13 37 -13 56 0 53 -27 46 -32 -7z"/>
<path d="M5580 1840 c0 -11 2 -20 4 -20 2 0 11 -3 20 -6 12 -5 16 0 16 20 0
19 -5 26 -20 26 -13 0 -20 -7 -20 -20z"/>
<path d="M500 1801 c0 -30 11 -51 26 -51 17 0 18 11 2 45 -13 30 -28 33 -28 6z"/>
<path d="M970 1793 c-26 -34 -23 -67 8 -71 23 -3 32 21 12 33 -18 11 -11 24
16 31 28 7 44 -7 44 -40 0 -10 -25 -47 -55 -81 -45 -51 -52 -65 -41 -74 19
-16 126 -3 133 16 7 18 -12 39 -21 24 -8 -13 -66 -15 -66 -3 0 4 18 25 39 45
22 21 43 51 46 69 6 27 3 36 -19 55 -36 31 -70 29 -96 -4z"/>
<path d="M6400 1802 c0 -5 7 -16 16 -23 14 -12 16 -11 13 5 -4 20 -29 35 -29
18z"/>
<path d="M627 1789 c-9 -6 -17 -17 -17 -24 0 -8 -5 -15 -11 -15 -6 0 -9 -12
-7 -27 2 -19 12 -32 31 -41 40 -19 51 -6 26 30 -20 28 -21 31 -6 40 18 9 23
33 9 42 -4 2 -15 0 -25 -5z"/>
<path d="M5552 1775 c-11 -14 -18 -33 -15 -43 3 -11 -7 -25 -26 -40 -38 -28
-39 -49 -5 -64 25 -12 26 -17 13 -68 -3 -11 3 -14 23 -12 27 3 28 2 21 -44 -6
-44 3 -63 30 -64 11 0 9 108 -2 115 -6 3 -8 54 -6 120 2 63 0 117 -5 120 -5 3
-17 -6 -28 -20z"/>
<path d="M703 1753 c-18 -6 -16 -33 1 -33 19 0 31 19 20 30 -5 4 -15 5 -21 3z"/>
<path d="M6500 1731 c0 -12 6 -21 16 -21 9 0 14 7 12 17 -5 25 -28 28 -28 4z"/>
<path d="M6340 1650 c0 -13 5 -20 13 -17 6 2 12 10 12 17 0 7 -6 15 -12 18 -8
2 -13 -5 -13 -18z"/>
<path d="M6467 1652 c-22 -24 -21 -32 3 -32 23 0 38 26 23 41 -6 6 -16 3 -26
-9z"/>
<path d="M656 1645 c9 -22 -26 -32 -38 -12 -12 23 -45 21 -58 -2 -14 -27 -13
-29 18 -36 15 -3 40 -17 57 -30 l29 -24 -22 -24 c-12 -13 -42 -34 -67 -46 -25
-12 -45 -25 -45 -28 0 -3 26 -3 58 0 31 3 66 2 77 -2 40 -17 100 43 65 64 -5
3 -10 16 -10 27 0 12 -12 36 -26 55 -17 22 -23 40 -19 53 4 14 2 20 -9 20 -10
0 -13 -6 -10 -15z"/>
<path d="M442 1642 c-13 -9 -6 -42 8 -42 12 0 40 29 40 41 0 11 -30 12 -48 1z"/>
<path d="M6400 1636 c0 -9 5 -16 10 -16 6 0 10 4 10 9 0 6 -4 13 -10 16 -5 3
-10 -1 -10 -9z"/>
<path d="M6532 1628 c-16 -16 -15 -29 4 -43 15 -11 15 -14 0 -44 -11 -21 -27
-34 -46 -38 -38 -7 -60 -31 -40 -43 9 -5 20 -5 27 2 8 6 35 9 66 5 46 -4 54
-2 69 18 15 20 15 26 2 66 -14 40 -49 89 -64 89 -3 0 -11 -5 -18 -12z m68
-109 c0 -5 -7 -9 -15 -9 -9 0 -12 6 -9 15 6 15 24 11 24 -6z"/>
<path d="M740 1614 c0 -8 5 -12 10 -9 6 3 10 10 10 16 0 5 -4 9 -10 9 -5 0
-10 -7 -10 -16z"/>
<path d="M510 1610 c0 -6 7 -10 15 -10 8 0 15 2 15 4 0 2 -7 6 -15 10 -8 3
-15 1 -15 -4z"/>
<path d="M6497 1416 c-8 -20 3 -86 14 -86 5 0 9 23 9 50 0 48 -12 66 -23 36z"/>
<path d="M2856 1409 c-2 -8 -6 -20 -8 -27 -3 -10 -9 -9 -24 5 -13 11 -37 18
-60 18 -32 0 -39 -3 -39 -20 0 -22 72 -68 94 -60 22 8 44 -15 30 -31 -15 -18
-34 -18 -62 0 -41 26 -95 29 -125 7 -24 -17 -27 -25 -24 -60 3 -33 10 -44 39
-61 19 -11 45 -20 57 -20 17 0 27 -9 36 -30 15 -37 8 -57 -26 -70 -14 -6 -24
-16 -21 -23 4 -13 31 -14 58 -3 10 4 27 -4 48 -25 l33 -31 28 34 c28 32 29 33
10 47 -13 9 -20 25 -20 46 0 18 -7 38 -15 45 -23 19 -18 33 9 26 18 -4 29 -1
39 14 8 12 20 18 30 15 8 -4 18 -1 22 5 5 8 10 8 20 0 10 -8 20 -3 44 22 41
44 41 61 -1 53 -35 -7 -42 2 -80 93 -7 17 -20 32 -28 32 -8 0 -25 3 -37 6 -15
4 -24 1 -27 -7z m84 -109 c0 -5 -4 -10 -10 -10 -5 0 -10 5 -10 10 0 6 5 10 10
10 6 0 10 -4 10 -10z m-159 -49 l24 -19 -26 -10 c-53 -21 -106 11 -61 37 25
15 37 13 63 -8z"/>
<path d="M4120 1381 c0 -6 5 -13 10 -16 6 -3 10 1 10 9 0 9 -4 16 -10 16 -5 0
-10 -4 -10 -9z"/>
<path d="M5040 1352 c0 -5 7 -16 16 -23 14 -12 16 -11 13 5 -4 20 -29 35 -29
18z"/>
<path d="M4150 1329 c-12 -22 -7 -49 9 -49 14 0 22 31 11 45 -5 6 -7 15 -3 18
3 4 3 7 0 7 -3 0 -11 -9 -17 -21z"/>
<path d="M4264 1317 c-11 -17 -24 -44 -27 -59 -6 -24 -10 -26 -42 -21 -19 3
-41 3 -49 0 -20 -8 -9 -37 13 -37 9 0 27 -7 39 -16 25 -18 42 -11 42 17 0 10
5 19 10 19 6 0 10 11 10 25 0 14 9 35 20 47 19 21 28 58 13 58 -5 0 -17 -15
-29 -33z"/>
<path d="M5240 1311 c0 -6 5 -13 10 -16 6 -3 10 1 10 9 0 9 -4 16 -10 16 -5 0
-10 -4 -10 -9z"/>
<path d="M5130 1276 c0 -22 29 -41 42 -28 8 8 8 15 -2 27 -16 19 -40 20 -40 1z"/>
<path d="M6500 1225 c0 -19 4 -35 9 -35 13 0 23 34 15 54 -11 28 -24 18 -24
-19z"/>
<path d="M4983 1195 c-3 -9 -3 -18 0 -21 9 -9 27 6 27 22 0 19 -19 18 -27 -1z"/>
<path d="M5101 1201 c-18 -11 -7 -41 15 -41 9 0 27 -9 41 -20 14 -11 32 -20
39 -20 8 0 14 -7 14 -16 0 -8 -4 -13 -9 -10 -5 3 -23 -8 -41 -24 -18 -17 -38
-30 -45 -30 -7 0 -19 -7 -26 -17 -13 -15 -11 -16 21 -11 20 4 56 2 80 -2 39
-8 47 -6 62 11 12 14 15 30 11 52 -13 69 -46 107 -93 107 -11 0 -23 7 -26 15
-7 17 -22 19 -43 6z"/>
<path d="M4307 1166 c-8 -19 9 -40 27 -33 21 8 20 24 -3 36 -14 8 -20 7 -24
-3z"/>
<path d="M5040 1170 c0 -5 5 -10 10 -10 6 0 10 5 10 10 0 6 -4 10 -10 10 -5 0
-10 -4 -10 -10z"/>
<path d="M2903 1148 c2 -7 12 -13 22 -13 10 0 20 6 23 13 2 7 -6 12 -23 12
-17 0 -25 -5 -22 -12z"/>
<path d="M6483 1142 c-6 -4 -14 -35 -18 -70 l-7 -64 28 4 c28 3 29 6 32 59 3
56 -11 86 -35 71z"/>
<path d="M4199 1113 c0 -16 -2 -47 -5 -69 -5 -35 -3 -42 15 -47 26 -6 49 19
33 35 -7 7 -12 34 -12 60 0 36 -4 48 -15 48 -10 0 -15 -10 -16 -27z"/>
<path d="M4680 936 c0 -19 4 -37 9 -40 11 -7 23 37 15 58 -11 28 -24 17 -24
-18z"/>
<path d="M5907 963 c-4 -3 -7 -14 -7 -24 0 -22 75 -62 101 -54 19 6 44 -19 34
-36 -4 -6 -20 -9 -39 -5 -80 14 -102 19 -115 29 -10 9 -16 7 -26 -6 -7 -9 -17
-17 -22 -17 -6 0 -13 -19 -16 -42 -7 -48 9 -72 54 -83 22 -5 27 -2 32 17 5 15
1 27 -10 36 -16 11 -16 14 3 32 17 18 23 19 47 8 32 -16 33 -21 7 -56 -19 -26
-20 -30 -5 -71 19 -56 20 -53 -15 -73 -44 -25 -39 -42 10 -35 36 5 44 2 69
-25 28 -30 58 -31 47 -2 -3 8 -2 14 2 14 4 0 13 4 20 8 10 7 7 20 -15 61 -15
29 -33 55 -40 58 -8 3 -11 13 -8 24 7 22 -14 26 -34 7 -11 -11 -13 -10 -7 5 3
10 6 25 6 33 0 21 31 17 37 -5 2 -10 16 -24 29 -32 22 -11 26 -10 40 9 8 12
20 22 26 22 6 0 20 7 30 17 17 15 18 15 18 0 0 -10 6 -17 13 -17 13 0 67 63
67 79 0 17 -21 13 -36 -6 -13 -17 -15 -17 -33 5 -20 23 -51 30 -51 10 0 -6 -9
-3 -21 8 l-21 19 24 5 c35 9 32 54 -4 58 -14 2 -32 10 -38 18 -20 24 -32 16
-25 -16 8 -36 -6 -39 -36 -9 -12 12 -27 18 -36 15 -9 -4 -23 0 -33 9 -9 8 -20
12 -23 8z m173 -169 c0 -11 -5 -14 -16 -10 -9 3 -22 6 -30 6 -9 0 -12 5 -9 10
10 17 55 12 55 -6z m-40 -195 c0 -11 -4 -17 -10 -14 -5 3 -10 13 -10 21 0 8 5
14 10 14 6 0 10 -9 10 -21z"/>
<path d="M147 944 c-13 -13 -7 -61 8 -74 12 -10 16 -9 21 3 14 37 -8 91 -29
71z"/>
<path d="M494 919 c-3 -6 -1 -16 5 -22 6 -6 11 -23 11 -39 0 -17 7 -31 20 -38
17 -9 20 -8 20 10 0 11 -6 38 -12 60 -13 39 -30 51 -44 29z"/>
<path d="M660 912 c0 -14 11 -21 26 -15 21 8 17 23 -6 23 -11 0 -20 -4 -20 -8z"/>
<path d="M3232 884 c4 -21 22 -23 26 -1 2 10 -3 17 -13 17 -10 0 -15 -6 -13
-16z"/>
<path d="M638 849 c-16 -18 -28 -41 -28 -51 0 -23 -27 -35 -43 -19 -14 14 -54
15 -62 1 -9 -15 14 -50 33 -50 10 0 23 -5 29 -11 26 -26 73 23 73 75 0 11 7
27 16 37 9 10 14 25 12 35 -2 13 -9 10 -30 -17z"/>
<path d="M3320 823 c0 -20 18 -43 33 -43 4 0 7 12 5 27 -4 32 -38 46 -38 16z"/>
<path d="M4680 775 c0 -25 4 -35 13 -32 6 2 12 16 12 32 0 16 -6 30 -12 33 -9
2 -13 -8 -13 -33z"/>
<path d="M144 776 c-9 -23 0 -51 16 -51 10 0 16 12 18 33 2 24 -1 32 -13 32
-8 0 -18 -6 -21 -14z"/>
<path d="M686 772 c-3 -6 -3 -17 0 -26 3 -9 0 -23 -7 -32 -10 -13 -9 -19 10
-37 29 -29 42 -10 29 47 -10 45 -22 63 -32 48z"/>
<path d="M3290 741 c-10 -19 -10 -25 1 -32 8 -5 19 -7 26 -5 6 3 19 -4 29 -15
9 -10 23 -19 31 -19 20 0 16 -7 -26 -50 -22 -22 -49 -40 -60 -40 -12 0 -21 -6
-21 -14 0 -11 14 -13 58 -11 31 1 63 -2 70 -8 9 -7 20 -2 39 17 23 23 25 29
15 52 -7 14 -12 33 -12 43 0 22 -52 61 -83 61 -14 0 -31 9 -39 22 l-15 22 -13
-23z m130 -126 c0 -8 -4 -15 -10 -15 -5 0 -10 7 -10 15 0 8 5 15 10 15 6 0 10
-7 10 -15z"/>
<path d="M3157 744 c-10 -11 3 -24 24 -24 10 0 19 7 19 15 0 15 -31 21 -43 9z"/>
<path d="M3220 725 c0 -8 5 -15 10 -15 6 0 10 7 10 15 0 8 -4 15 -10 15 -5 0
-10 -7 -10 -15z"/>
<path d="M127 673 c-3 -5 -6 -35 -8 -68 -4 -52 -2 -60 15 -63 24 -5 36 14 36
61 0 54 -27 97 -43 70z"/>
<path d="M575 654 c-4 -16 -9 -40 -10 -54 -1 -14 -6 -33 -10 -42 -9 -23 13
-32 49 -19 23 9 25 14 16 30 -5 11 -10 33 -10 48 0 16 -6 37 -14 48 -12 17
-14 16 -21 -11z"/>
<path d="M4660 646 c0 -19 -4 -38 -10 -41 -30 -18 2 -61 35 -48 24 9 17 116
-7 121 -14 3 -18 -4 -18 -32z"/>
<path d="M4216 483 l7 -36 -32 22 c-18 13 -28 27 -24 34 5 9 3 9 -8 0 -8 -7
-28 -11 -45 -10 -25 2 -29 -2 -29 -23 0 -26 23 -37 80 -39 17 -1 37 -6 45 -11
13 -8 13 -12 -3 -27 -13 -14 -21 -15 -35 -7 -9 6 -40 16 -69 23 -45 11 -55 10
-77 -4 -59 -39 -16 -141 56 -133 23 2 31 -3 43 -26 21 -41 19 -61 -10 -74 -40
-19 -32 -41 16 -40 28 0 47 -6 63 -21 26 -24 46 -27 46 -7 0 7 10 21 23 30
l22 16 -22 16 c-13 9 -23 27 -23 40 0 13 -9 28 -20 34 -11 6 -20 17 -20 25 0
22 33 18 48 -5 12 -20 62 -28 62 -10 0 6 -11 10 -25 10 -33 0 -32 15 3 37 15
10 31 23 35 30 10 17 34 17 40 1 6 -18 57 30 57 54 0 21 -4 22 -29 6 -15 -9
-23 -7 -44 8 -15 10 -27 28 -27 40 0 22 -32 58 -43 48 -3 -3 -10 4 -17 15 -6
12 -20 21 -31 21 -18 0 -19 -4 -13 -37z m84 -68 c0 -8 -4 -15 -10 -15 -5 0
-10 7 -10 15 0 8 5 15 10 15 6 0 10 -7 10 -15z m-140 -71 c0 -6 -11 -19 -25
-28 -23 -15 -26 -15 -46 5 -19 19 -19 22 -4 39 14 15 21 16 46 7 16 -6 29 -17
29 -23z m118 -2 c3 -9 -2 -13 -14 -10 -9 1 -19 9 -22 16 -3 9 2 13 14 10 9 -1
19 -9 22 -16z m-84 -37 c3 -9 0 -15 -9 -15 -8 0 -15 7 -15 15 0 8 4 15 9 15 5
0 11 -7 15 -15z m26 -145 c0 -5 -4 -10 -10 -10 -5 0 -10 5 -10 10 0 6 5 10 10
10 6 0 10 -4 10 -10z"/>
<path d="M3775 480 c-4 -11 -20 -35 -35 -52 -21 -22 -28 -38 -24 -54 4 -17 -1
-26 -25 -40 -43 -25 -38 -58 12 -77 19 -7 22 -22 7 -32 -15 -9 -12 -45 3 -45
7 0 18 5 24 11 9 9 11 -1 10 -37 -2 -45 0 -49 22 -49 20 0 24 5 26 40 2 25 -3
47 -12 57 -12 13 -14 27 -7 55 4 21 7 71 7 111 -2 57 1 72 12 72 16 0 19 18 9
44 -8 22 -21 20 -29 -4z"/>
<path d="M5502 431 c4 -13 18 -16 19 -4 0 4 -5 9 -11 12 -7 2 -11 -2 -8 -8z"/>
<path d="M5585 381 c-8 -15 3 -31 21 -31 9 0 14 7 12 17 -4 20 -24 28 -33 14z"/>
<path d="M5434 295 c-7 -17 4 -37 17 -30 12 8 12 45 -1 45 -6 0 -13 -7 -16
-15z"/>
<path d="M5552 289 c-17 -27 -2 -44 23 -25 11 8 16 19 12 30 -9 22 -20 20 -35
-5z"/>
<path d="M5484 278 c-4 -5 -1 -14 7 -18 14 -9 29 -4 29 10 0 13 -29 20 -36 8z"/>
<path d="M5613 273 c-14 -5 -18 -33 -5 -33 4 0 16 -7 26 -15 19 -14 18 -16
-20 -50 -21 -19 -47 -35 -56 -35 -12 0 -18 -8 -18 -21 0 -16 4 -19 18 -14 33
15 70 17 90 6 17 -9 26 -7 48 12 26 22 26 25 13 63 -14 41 -56 95 -73 93 -6 0
-17 -3 -23 -6z m67 -102 c0 -6 -4 -13 -10 -16 -5 -3 -10 1 -10 9 0 9 5 16 10
16 6 0 10 -4 10 -9z"/>
<path d="M2404 67 c-3 -9 -3 -20 0 -26 12 -20 -16 -23 -30 -3 -11 16 -24 20
-56 18 -39 -2 -43 -5 -46 -29 l-3 -27 115 0 c89 0 116 3 116 13 0 15 -36 57
-50 57 -4 0 -15 3 -24 6 -9 4 -18 0 -22 -9z"/>
<path d="M2757 34 c-9 -10 4 -34 19 -34 8 0 14 9 14 20 0 19 -19 27 -33 14z"/>
</g>
</svg>
