<?xml version="1.0" standalone="no"?>
<!DOCTYPE svg PUBLIC "-//W3C//DTD SVG 20010904//EN"
 "http://www.w3.org/TR/2001/REC-SVG-20010904/DTD/svg10.dtd">
<svg version="1.0" xmlns="http://www.w3.org/2000/svg"
 width="580.000000pt" height="776.000000pt" viewBox="0 0 580.000000 776.000000"
 preserveAspectRatio="xMidYMid meet">
<metadata>
Created by potrace 1.16, written by Peter Selinger 2001-2019
</metadata>
<g transform="translate(0.000000,776.000000) scale(0.100000,-0.100000)"
fill="#000000" stroke="none">
<path d="M0 7447 l0 -64 903 -6 c496 -4 1801 -10 2900 -14 l1997 -6 0 66 0 67
-532 0 c-656 0 -2688 8 -4165 15 l-1103 6 0 -64z"/>
<path d="M4096 6853 c-2 -2 -1960 -15 -2016 -14 -19 1 -2039 2 -2062 1 -17 0
-18 -52 -18 -950 0 -909 1 -950 18 -950 17 0 82 -58 82 -73 0 -16 -22 -5 -60
29 l-40 36 0 -201 c0 -185 1 -201 18 -201 9 -1 30 -12 47 -25 23 -19 27 -27
17 -37 -9 -9 -18 -5 -40 20 -16 18 -32 32 -35 32 -4 0 -7 -178 -7 -395 0 -327
2 -395 14 -395 16 0 66 -38 66 -51 0 -15 -14 -10 -42 16 -15 14 -30 25 -33 25
-3 0 -5 -83 -5 -185 0 -125 3 -185 11 -185 15 0 73 -60 65 -67 -3 -4 -16 3
-29 14 -48 43 -47 46 -47 -154 l0 -188 32 -16 c34 -17 56 -44 45 -55 -4 -4
-23 8 -42 26 l-35 34 0 -202 c0 -173 2 -201 15 -196 14 6 65 -40 65 -57 0 -14
-16 -10 -30 7 -8 8 -22 20 -32 25 -17 9 -18 1 -18 -181 0 -177 1 -190 18 -190
20 0 62 -39 62 -58 0 -19 -15 -14 -40 13 -13 14 -27 25 -32 25 -4 0 -8 -83 -8
-185 0 -147 3 -185 13 -185 19 0 60 -46 55 -62 -3 -8 -13 -4 -32 15 -15 15
-29 27 -31 27 -3 0 -5 -80 -5 -179 l0 -179 25 -16 c32 -21 32 -40 0 -34 -23 5
-25 2 -25 -33 l0 -39 125 0 125 0 1 -177 c1 -98 1 -271 1 -386 0 -173 2 -210
15 -222 13 -14 90 -15 621 -15 413 1 610 5 619 12 10 8 13 57 13 194 0 117 4
185 10 189 19 12 694 15 707 3 10 -8 13 -59 13 -198 0 -141 3 -189 13 -192 6
-2 110 -4 230 -3 174 1 220 -1 224 -12 8 -21 32 -15 39 11 3 13 4 37 2 52 -3
26 -7 29 -38 29 l-35 0 -1 378 c-1 207 -5 384 -8 393 -5 14 -70 15 -587 13
-361 -1 -584 2 -590 8 -6 6 -8 78 -7 174 l3 164 385 3 c249 1 388 6 395 13 6
6 10 147 10 409 0 324 -3 401 -13 405 -8 3 -110 5 -227 5 -132 0 -216 4 -220
10 -14 22 -43 10 -47 -20 -5 -35 10 -54 32 -40 8 6 111 10 228 10 l212 0 0
-362 c0 -200 -4 -369 -8 -376 -7 -9 -89 -12 -378 -10 l-369 3 3 370 c2 204 5
371 7 373 2 2 13 -3 24 -10 26 -16 39 -2 37 40 -1 28 -13 32 -49 17 -17 -7
-18 49 -17 1363 2 1205 4 1371 17 1376 8 3 281 6 607 6 428 0 595 -3 603 -11
21 -21 45 -2 41 33 -3 34 -13 38 -50 23 -17 -7 -18 15 -18 368 l0 376 35 -6
c35 -6 35 -5 35 31 0 39 -22 58 -43 37 -6 -6 -21 -11 -33 -11 -12 0 -26 -6
-31 -12 -6 -8 -9 -157 -7 -389 1 -206 -1 -381 -5 -387 -6 -10 -224 -13 -957
-13 -522 -1 -966 -3 -987 -6 -30 -4 -38 -10 -43 -31 -3 -15 -9 -34 -14 -43
-12 -22 -3 -29 38 -29 32 0 34 2 28 27 -5 17 -3 29 6 34 7 5 176 9 376 9 l362
0 1 -22 c3 -46 -2 -341 -5 -347 -2 -3 -171 -5 -375 -3 -348 2 -371 4 -371 20
0 10 5 23 12 30 15 15 7 22 -29 27 -45 6 -56 -6 -38 -41 8 -16 15 -37 15 -46
0 -10 6 -18 13 -18 6 0 178 0 381 0 263 0 373 -3 383 -11 11 -10 13 -132 8
-768 -4 -416 -8 -762 -10 -768 -3 -10 -94 -13 -392 -15 l-388 -3 -3 -25 c-2
-14 -8 -29 -13 -34 -21 -22 -8 -36 32 -36 35 0 40 3 34 18 -3 9 -7 22 -8 27
-1 6 129 11 371 13 l372 2 1 -57 c3 -143 0 -286 -6 -291 -4 -4 -168 -7 -366
-8 -296 -1 -361 1 -371 13 -8 10 -8 17 0 25 24 24 13 38 -28 38 -33 0 -40 -3
-40 -19 0 -11 5 -23 10 -26 6 -3 10 -17 10 -30 0 -14 7 -26 18 -29 9 -2 185
-4 390 -3 206 1 376 -1 379 -6 2 -4 4 -356 3 -781 0 -594 2 -776 11 -782 7 -4
273 -7 590 -6 539 1 579 0 586 -16 5 -9 6 -181 3 -382 l-5 -365 -140 -3 c-77
-1 -150 0 -162 3 -22 5 -23 8 -25 198 l-3 192 -260 0 c-143 0 -334 -2 -425 -5
l-165 -5 -5 -190 -5 -190 -560 0 -560 0 -2 558 -2 557 32 0 c190 -2 746 8 755
14 9 5 12 108 12 421 0 402 -1 414 -20 420 -10 3 -158 5 -327 4 -169 -1 -338
-1 -375 0 l-68 1 0 549 c0 418 3 552 12 557 7 4 180 8 385 9 211 1 377 6 382
11 10 11 22 832 12 838 -4 3 -176 6 -381 7 -206 1 -383 3 -393 6 -16 4 -17 36
-13 569 2 311 5 567 7 569 3 2 443 5 978 6 536 1 981 4 991 6 16 4 17 33 14
388 -3 310 -1 385 10 394 14 12 1098 12 1110 0 3 -3 7 -178 8 -390 l3 -384
980 -2 c539 -1 986 -2 993 -2 10 -1 13 -112 12 -566 -1 -311 -5 -567 -9 -569
-4 -3 -180 -8 -391 -11 -211 -3 -384 -6 -385 -8 -2 -1 -4 -191 -6 -422 l-4
-420 393 -3 c215 -1 392 -6 393 -10 6 -96 3 -1090 -4 -1099 -7 -10 -97 -13
-388 -13 l-379 0 -9 -23 c-4 -12 -8 -202 -7 -422 l1 -400 390 0 390 0 5 -560
c3 -308 2 -564 -1 -568 -4 -5 -254 -11 -556 -14 -454 -4 -552 -3 -559 8 -4 7
-10 97 -13 199 l-6 185 -75 5 c-41 3 -231 3 -422 2 l-348 -4 0 -194 c0 -192 0
-194 -22 -199 -13 -3 -93 -4 -178 -3 l-155 3 0 380 0 380 585 5 584 5 7 34 c4
19 8 352 10 740 3 818 3 788 9 794 3 3 176 7 384 11 209 3 381 8 384 11 11 10
31 79 26 87 -6 10 -58 11 -67 1 -4 -3 -2 -12 4 -19 6 -8 9 -21 5 -29 -5 -13
-51 -15 -373 -13 l-368 3 0 175 0 175 365 2 c201 1 371 -2 379 -6 11 -7 11
-12 0 -29 -18 -28 -1 -45 35 -36 26 6 35 27 16 39 -5 3 -10 19 -10 36 0 16 -6
30 -12 31 -7 1 -184 3 -393 3 l-380 0 2 770 2 770 378 5 c208 3 386 9 396 14
10 5 17 19 17 37 0 16 5 29 10 29 15 0 12 27 -3 33 -21 8 -67 -4 -67 -17 0 -7
5 -17 12 -24 29 -29 -11 -32 -376 -30 l-368 3 2 174 c0 96 3 178 6 183 3 4
169 8 370 8 322 0 365 -2 371 -16 3 -8 1 -20 -6 -27 -20 -20 -12 -28 27 -25
27 2 36 7 33 18 -2 8 -7 29 -10 45 l-7 30 -988 5 -989 5 -1 385 c-1 212 -5
391 -9 398 -5 6 -21 12 -36 12 -15 0 -32 5 -38 11 -18 18 -33 1 -33 -37 0 -37
25 -58 40 -34 4 7 15 10 24 7 13 -5 15 -50 16 -372 0 -323 -2 -366 -16 -372
-8 -3 -20 -1 -27 6 -23 23 -37 12 -37 -29 0 -33 3 -40 19 -40 11 0 21 4 23 9
2 4 276 11 610 14 l608 6 6 -25 c3 -13 4 -142 0 -287 -3 -144 -6 -752 -6
-1351 0 -1032 -1 -1088 -17 -1081 -39 16 -48 11 -51 -29 -3 -33 -1 -38 15 -34
51 15 48 41 50 -354 1 -286 -2 -369 -12 -378 -8 -7 -132 -9 -376 -8 l-364 3
-3 364 c-2 260 1 368 9 377 9 11 55 14 215 14 124 0 205 -4 209 -10 12 -19 33
-10 38 18 3 16 0 33 -8 41 -13 13 -17 13 -32 -1 -15 -14 -52 -16 -233 -17
-174 -1 -217 -4 -226 -16 -12 -15 -20 -751 -9 -786 6 -18 22 -19 395 -19 344
0 389 -2 394 -16 8 -21 8 -229 0 -288 l-7 -46 -506 -1 c-278 -1 -544 -4 -591
-7 l-85 -7 -2 -390 c-1 -214 -2 -394 -3 -399 0 -4 -11 -1 -24 7 -33 22 -46 5
-39 -55 6 -52 10 -55 39 -33 15 12 62 14 244 15 124 0 230 4 237 8 8 5 11 65
12 196 0 104 3 191 6 195 4 3 161 7 351 9 263 3 348 1 359 -8 12 -10 15 -46
15 -201 0 -173 1 -189 18 -190 89 -7 1219 5 1229 13 9 7 11 152 7 615 -3 333
-7 610 -10 615 -3 4 -181 8 -395 8 l-390 0 3 363 3 362 384 3 c267 1 388 6
398 14 11 9 13 116 11 617 l-3 606 -384 3 c-271 1 -388 6 -398 14 -12 9 -13
69 -8 357 4 204 10 350 16 356 6 6 153 11 387 13 207 2 380 7 385 11 4 4 10
270 13 592 4 369 10 589 16 597 8 8 49 12 144 12 l135 0 -3 156 -3 155 -30 17
c-16 9 -31 17 -31 17 -1 0 -5 10 -8 23 -6 17 -3 22 12 22 11 0 25 -7 32 -15 7
-8 16 -15 21 -15 5 0 9 78 9 173 l0 173 -27 16 c-16 8 -34 13 -42 10 -11 -3
-12 1 -8 19 4 13 7 27 7 32 0 14 24 7 47 -15 l23 -21 0 182 c0 100 -4 180 -9
177 -14 -9 -60 18 -65 37 -7 28 22 32 50 7 l24 -23 0 39 0 39 -850 0 c-468 1
-852 0 -854 -2z m-708 -63 c17 -16 40 -30 51 -30 12 0 21 -5 21 -11 0 -11 -17
-10 -97 7 -25 5 -33 11 -33 28 0 45 18 46 58 6z m390 9 c9 -12 31 -30 47 -41
l30 -20 -29 7 c-15 3 -41 8 -56 12 -19 3 -29 13 -33 29 -7 40 13 46 41 13z
m417 -9 c16 -16 37 -30 46 -30 10 0 21 -5 25 -12 5 -8 0 -9 -17 -4 -13 4 -44
12 -69 18 -55 13 -53 12 -45 37 9 29 26 26 60 -9z m400 0 c21 -16 44 -30 51
-30 8 0 14 -4 14 -10 0 -14 -20 -12 -70 5 -32 11 -46 12 -56 4 -17 -14 -18 -1
-4 35 12 33 19 33 65 -4z m391 3 c29 -32 26 -36 -19 -28 -48 9 -58 50 -14 54
4 1 19 -11 33 -26z m399 -3 l29 -30 -30 1 c-48 1 -63 11 -53 37 11 29 20 28
54 -8z m-5170 -10 c11 -10 30 -21 43 -25 37 -11 25 -27 -15 -19 -62 11 -99 44
-77 67 8 7 21 1 49 -23z m1184 0 c35 -33 28 -45 -18 -27 -29 10 -40 34 -24 50
9 10 9 10 42 -23z m800 5 c28 -30 21 -42 -17 -29 -16 6 -28 18 -30 32 -4 30
17 28 47 -3z m394 -1 c11 -14 17 -28 14 -30 -9 -10 -67 26 -67 41 0 24 33 17
53 -11z m401 0 c10 -14 27 -29 39 -35 19 -8 18 -9 -8 -5 -55 8 -85 24 -85 46
0 29 34 26 54 -6z m-2383 -10 l24 -27 -30 7 c-36 9 -50 20 -41 35 11 17 20 13
47 -15z m391 9 c23 -21 23 -33 0 -33 -21 0 -42 18 -42 37 0 18 20 16 42 -4z
m784 6 c3 -6 20 -19 38 -30 26 -16 28 -19 10 -19 -27 0 -94 27 -94 38 0 22 34
30 46 11z m3101 -68 c3 -9 20 -31 36 -48 37 -40 28 -43 -19 -7 -33 25 -35 26
-60 9 -32 -20 -44 -12 -20 14 10 11 15 25 11 30 -3 6 -4 15 -1 20 9 14 47 1
53 -18z m-1612 1 c46 -38 46 -47 2 -48 -41 -1 -42 0 -43 32 -1 38 11 42 41 16z
m2018 -18 c21 -28 16 -44 -8 -24 -13 10 -19 10 -33 -4 -20 -17 -42 -21 -42 -8
0 5 7 23 15 39 18 36 40 35 68 -3z m397 5 l22 -30 -35 6 c-21 4 -37 3 -41 -4
-4 -6 -13 -11 -20 -11 -21 0 15 69 36 70 9 0 26 -14 38 -31z m-5596 11 c30
-11 34 -35 9 -43 -10 -2 -27 -8 -37 -12 -16 -7 -17 -5 -9 10 6 10 8 26 6 36
-6 22 -4 23 31 9z m2407 -27 c6 -17 4 -20 -12 -16 -10 3 -25 0 -33 -6 -9 -8
-16 -8 -20 -2 -4 5 -2 12 4 16 5 3 10 15 10 25 0 16 4 18 22 11 12 -4 25 -17
29 -28z m397 9 c19 -24 14 -33 -13 -26 -15 4 -32 1 -40 -6 -14 -11 -14 -10 -5
14 5 15 7 32 4 38 -10 16 39 -2 54 -20z m796 -1 c15 -27 14 -28 -10 -23 -13 2
-31 -1 -39 -8 -9 -7 -19 -9 -23 -5 -4 4 -1 10 6 12 6 3 12 16 12 29 0 35 35
32 54 -5z m393 17 c6 -7 13 -21 16 -31 6 -15 4 -16 -13 -7 -14 7 -26 8 -39 0
-29 -15 -30 -13 -18 20 12 31 37 39 54 18z m404 -10 c7 -13 17 -26 23 -30 6
-4 7 -10 3 -14 -3 -4 -13 -1 -22 6 -8 7 -25 10 -38 8 -21 -4 -24 -1 -23 24 1
22 6 28 23 28 13 0 27 -9 34 -22z m-3983 -8 c1 -9 -10 -20 -29 -27 -26 -10
-30 -10 -25 3 3 9 6 22 6 31 0 19 44 13 48 -7z m398 3 c20 -26 17 -30 -19 -31
-29 -1 -33 2 -31 21 1 12 3 23 3 25 3 9 36 -1 47 -15z m398 1 c15 -14 21 -34
12 -34 -20 0 -56 22 -56 35 0 20 24 19 44 -1z m397 -12 c7 -19 5 -21 -21 -19
-34 2 -34 2 -19 28 13 24 29 21 40 -9z m403 3 c17 -25 17 -26 -9 -19 -15 4
-32 1 -42 -7 -15 -12 -16 -12 -10 4 4 10 7 25 7 33 0 23 37 16 54 -11z m856
-56 c0 -6 -4 -7 -10 -4 -5 3 -10 11 -10 16 0 6 5 7 10 4 6 -3 10 -11 10 -16z
m2390 11 c0 -5 -4 -10 -9 -10 -6 0 -13 5 -16 10 -3 6 1 10 9 10 9 0 16 -4 16
-10z m-1590 -10 c0 -5 -7 -7 -15 -4 -8 4 -15 8 -15 10 0 2 7 4 15 4 8 0 15 -4
15 -10z m-1070 -61 c0 -5 -7 -9 -15 -9 -15 0 -20 12 -9 23 8 8 24 -1 24 -14z
m420 0 c0 -5 -14 -9 -31 -9 -26 0 -29 3 -20 14 12 14 51 10 51 -5z m784 12 c3
-5 -8 -14 -24 -20 -31 -10 -39 -4 -18 17 14 14 35 16 42 3z m426 -19 c3 -2 -7
-1 -23 3 -17 5 -33 2 -42 -5 -11 -9 -15 -9 -15 -1 0 18 43 30 60 18 8 -6 17
-13 20 -15z m375 16 c25 -11 34 -28 15 -28 -5 0 -10 5 -10 11 0 8 -11 9 -31 5
-27 -5 -30 -4 -19 9 15 18 13 18 45 3z m409 -3 c11 -8 16 -18 12 -22 -4 -4
-11 -1 -15 6 -6 9 -18 11 -40 6 -29 -6 -40 2 -24 18 11 12 47 7 67 -8z m400 0
c11 -8 17 -18 13 -21 -4 -4 -13 -1 -21 5 -9 8 -27 10 -46 6 -28 -6 -39 3 -23
18 11 12 57 7 77 -8z m-4828 -22 c-10 -10 -19 5 -10 18 6 11 8 11 12 0 2 -7 1
-15 -2 -18z m1219 17 c4 -6 -6 -10 -22 -10 -22 0 -25 2 -13 10 19 12 27 12 35
0z m1580 0 c-3 -5 -13 -10 -21 -10 -8 0 -12 5 -9 10 3 6 13 10 21 10 8 0 12
-4 9 -10z m-1982 -7 c-7 -2 -19 -2 -25 0 -7 3 -2 5 12 5 14 0 19 -2 13 -5z
m939 -50 c22 -20 23 -33 3 -33 -12 0 -35 28 -35 44 0 11 13 6 32 -11z m403 -3
c14 -16 15 -20 4 -20 -16 0 -39 19 -39 32 0 14 16 9 35 -12z m405 -12 c0 -12
-24 -10 -38 4 -20 20 -13 28 13 16 14 -6 25 -15 25 -20z m400 1 c35 -29 44
-49 20 -49 -11 0 -70 59 -70 71 0 15 9 11 50 -22z m415 -16 c14 -21 14 -23 0
-23 -16 0 -65 46 -65 61 0 15 49 -13 65 -38z m373 30 c10 -10 24 -26 31 -35
11 -15 11 -18 -2 -18 -15 0 -77 52 -77 65 0 12 32 4 48 -12z m402 -5 c26 -19
41 -48 24 -48 -15 0 -43 22 -58 45 -20 31 -5 32 34 3z m406 -5 c23 -22 26 -28
12 -31 -14 -3 -68 40 -68 53 0 14 31 2 56 -22z m384 11 c9 -3 21 -14 28 -25
18 -28 -6 -25 -40 5 -29 24 -37 42 -15 32 6 -3 19 -9 27 -12z m-5532 -42 c8
-7 12 -16 8 -19 -10 -10 -61 32 -65 53 -3 18 -2 18 20 -1 13 -11 30 -26 37
-33z m372 20 c17 -16 27 -31 23 -35 -7 -8 -63 41 -63 55 0 13 7 10 40 -20z
m795 -2 c16 -16 24 -30 18 -30 -14 0 -63 39 -63 51 0 17 16 9 45 -21z m409 -9
c14 -15 15 -21 6 -21 -15 0 -60 39 -60 52 0 12 31 -6 54 -31z m387 9 c18 -16
30 -32 28 -35 -7 -6 -78 46 -79 58 0 15 20 6 51 -23z m-1188 -4 c14 -13 23
-26 20 -29 -7 -8 -50 21 -57 39 -8 21 8 17 37 -10z m1321 -81 c10 -14 28 -31
42 -37 27 -13 32 -28 8 -28 -33 0 -82 31 -87 55 -8 42 13 47 37 10z m1605 -10
c17 -19 38 -35 46 -35 7 0 17 -4 20 -10 7 -11 -47 -3 -87 13 -33 14 -47 67
-18 67 4 0 21 -16 39 -35z m394 5 c14 -16 38 -32 53 -34 37 -7 52 -23 30 -32
-10 -4 -22 -2 -29 5 -6 6 -19 11 -29 11 -32 0 -66 22 -71 46 -8 44 12 45 46 4z
m387 22 c0 -17 39 -54 67 -62 28 -8 28 -8 -8 -9 -52 -1 -99 25 -99 55 0 17 5
24 20 24 11 0 20 -4 20 -8z m409 -21 c12 -16 34 -31 51 -34 16 -4 30 -11 30
-17 0 -14 -81 0 -98 17 -7 7 -17 13 -22 13 -9 0 -20 37 -12 44 12 13 32 4 51
-23z m407 -1 c11 -17 30 -32 46 -35 15 -4 28 -11 28 -16 0 -10 -29 -6 -92 13
-26 7 -37 17 -41 34 -2 13 -2 26 1 29 14 14 43 2 58 -25z m-5182 -5 c13 -14
38 -30 55 -36 31 -11 42 -29 17 -29 -7 0 -36 10 -65 21 -41 18 -51 26 -51 45
0 31 15 30 44 -1z m409 -10 c22 -19 47 -35 54 -35 7 0 13 -4 13 -10 0 -5 -4
-10 -9 -10 -6 0 -13 5 -16 10 -3 6 -15 10 -25 10 -37 0 -70 22 -70 47 0 30 4
29 53 -12z m384 18 c9 -24 44 -52 66 -53 9 0 17 -5 17 -11 0 -13 -39 -5 -86
17 -38 18 -54 64 -22 64 10 0 22 -8 25 -17z m394 -7 c11 -14 35 -30 54 -36 19
-6 35 -16 35 -21 0 -12 -27 -12 -35 1 -3 6 -15 10 -25 10 -37 0 -70 22 -70 47
0 30 17 29 41 -1z m406 -6 c13 -16 33 -30 42 -30 21 0 32 -10 26 -20 -4 -6
-108 24 -122 34 -6 5 11 46 19 46 5 0 21 -13 35 -30z m3100 -54 c-22 -17 -12
-43 28 -74 14 -11 25 -23 25 -28 0 -4 -10 2 -22 14 -28 25 -73 38 -82 23 -4
-6 -17 -11 -28 -11 -20 0 -20 1 -5 18 10 10 17 28 17 39 0 16 5 19 24 16 13
-3 27 0 30 6 4 6 13 11 19 11 7 0 4 -7 -6 -14z m813 -50 c31 -33 39 -46 27
-46 -9 0 -17 4 -17 9 0 5 -14 14 -30 21 -24 10 -37 10 -57 1 -33 -15 -41 -7
-18 19 9 10 15 26 12 34 -3 8 -3 17 0 20 9 9 35 -9 83 -58z m-5570 -9 l33 -38
-39 15 c-21 9 -48 14 -59 13 -13 -1 -19 3 -16 13 2 8 3 25 3 38 -2 21 0 22 22
10 12 -7 38 -30 56 -51z m374 17 l18 -26 -32 7 c-24 5 -35 3 -45 -12 -13 -17
-14 -17 -15 0 0 9 5 17 10 17 6 0 10 14 10 30 0 27 2 29 19 21 10 -6 26 -22
35 -37z m4751 40 c8 -4 22 -19 31 -35 13 -25 13 -29 0 -29 -8 0 -18 5 -21 11
-5 7 -15 5 -32 -6 -33 -22 -39 -13 -19 30 19 38 17 38 41 29z m-4367 -23 c45
-50 60 -80 23 -47 -14 13 -28 16 -50 11 -20 -4 -31 -3 -31 4 0 6 5 11 10 11 6
0 10 9 10 20 0 25 15 26 38 1z m1197 -7 c32 -34 32 -47 0 -32 -19 8 -28 8 -40
-2 -19 -15 -34 -5 -17 12 7 7 12 20 12 30 0 25 17 22 45 -8z m1608 -8 c35 -45
34 -50 -4 -30 -23 11 -34 13 -42 5 -6 -6 -17 -11 -24 -11 -18 0 -16 27 2 34 8
3 12 12 9 21 -12 29 31 16 59 -19z m385 22 c19 -19 14 -38 -9 -38 -11 0 -30
-5 -41 -11 -19 -10 -20 -9 -15 12 4 13 7 30 7 37 0 15 42 16 58 0z m411 -19
c28 -37 24 -42 -17 -27 -28 11 -33 10 -45 -6 -11 -15 -16 -16 -22 -6 -5 8 -2
16 9 22 9 5 16 18 16 28 0 31 33 24 59 -11z m-3189 -9 l21 -29 -31 11 c-23 8
-35 7 -43 -1 -19 -19 -31 -12 -14 7 10 10 17 24 17 30 0 22 29 12 50 -18z
m392 13 c19 -17 24 -43 9 -43 -6 0 -13 5 -17 11 -3 6 -17 8 -29 5 -21 -5 -22
-4 -12 19 14 29 24 31 49 8z m2463 -63 c3 -5 2 -10 -4 -10 -5 0 -13 5 -16 10
-3 6 -2 10 4 10 5 0 13 -4 16 -10z m1319 -46 c26 -10 18 -24 -14 -24 -29 0
-38 9 -23 23 8 9 17 9 37 1z m-5169 -14 c4 -6 -5 -10 -20 -10 -15 0 -24 4 -20
10 3 6 12 10 20 10 8 0 17 -4 20 -10z m389 1 c3 -5 -1 -12 -10 -15 -27 -11
-37 -7 -24 9 14 17 26 19 34 6z m1178 -13 c-6 -6 -15 -8 -19 -4 -4 4 -1 11 7
16 19 12 27 3 12 -12z m2003 12 c3 -5 -3 -10 -15 -10 -12 0 -18 5 -15 10 3 6
10 10 15 10 5 0 12 -4 15 -10z m415 0 c0 -5 -14 -10 -31 -10 -17 0 -28 4 -24
10 3 6 17 10 31 10 13 0 24 -4 24 -10z m395 0 c4 -6 -7 -10 -24 -10 -17 0 -31
5 -31 10 0 6 11 10 24 10 14 0 28 -4 31 -10z m395 0 c0 -5 -11 -10 -25 -10
-14 0 -25 5 -25 10 0 6 11 10 25 10 14 0 25 -4 25 -10z m-3595 -10 c-28 -12
-37 -12 -30 0 3 6 16 10 28 9 21 0 21 -1 2 -9z m3745 -63 c34 -31 34 -32 11
-35 -17 -3 -31 5 -47 25 -44 53 -18 61 36 10z m393 8 c30 -27 35 -45 12 -45
-15 0 -64 47 -65 63 0 14 26 6 53 -18z m-1976 -28 c12 -14 19 -28 16 -30 -9
-10 -53 16 -58 35 -4 10 -11 18 -16 18 -6 0 -7 5 -4 10 8 13 34 -1 62 -33z
m374 22 c32 -23 38 -39 13 -39 -15 0 -53 37 -54 53 0 12 10 8 41 -14z m399 -1
c31 -23 38 -38 18 -38 -14 0 -58 40 -58 52 0 13 8 10 40 -14z m405 0 c30 -26
32 -38 7 -38 -10 0 -28 14 -40 30 -18 24 -19 30 -7 30 8 0 26 -10 40 -22z
m-4772 -16 c15 -16 24 -32 20 -35 -7 -8 -63 41 -63 55 0 15 16 8 43 -20z m793
3 c15 -14 24 -28 20 -32 -4 -4 -21 7 -39 25 -37 38 -21 44 19 7z m797 -3 c9
-8 17 -19 17 -23 0 -15 -29 3 -45 28 -18 27 -7 25 28 -5z m387 11 c23 -20 27
-45 5 -37 -8 4 -15 12 -15 20 0 7 -8 18 -17 23 -10 6 -12 11 -6 11 7 0 22 -8
33 -17z m-1570 -23 c0 -14 -14 -12 -28 2 -19 19 -14 30 8 18 11 -6 20 -15 20
-20z m794 4 c3 -8 2 -14 -2 -14 -10 0 -32 22 -32 32 0 12 28 -2 34 -18z m2528
-90 c10 -12 29 -25 43 -28 37 -9 31 -27 -7 -19 -50 9 -88 32 -88 52 0 37 20
35 52 -5z m793 7 c15 -17 37 -31 48 -33 11 -2 22 -9 25 -16 3 -9 -4 -11 -25
-6 -70 15 -113 49 -97 75 9 15 19 11 49 -20z m403 -1 c15 -19 31 -30 47 -30
14 0 25 -4 25 -10 0 -15 -47 -12 -82 6 -29 15 -32 15 -43 0 -13 -17 -35 -22
-35 -7 0 5 7 11 15 15 8 3 15 17 15 31 0 35 31 33 58 -5z m397 0 c16 -16 37
-30 47 -30 10 0 18 -4 18 -10 0 -14 -9 -13 -69 7 -42 13 -51 20 -51 40 0 31
20 29 55 -7z m-5174 -4 c11 -14 28 -28 39 -31 11 -4 20 -10 20 -14 0 -10 -59
-1 -66 10 -3 5 -14 9 -25 9 -14 0 -19 7 -19 25 0 33 26 33 51 1z m403 -9 c23
-19 48 -37 56 -40 8 -4 -3 -4 -25 0 -50 8 -85 30 -85 54 0 26 7 24 54 -14z
m389 7 c11 -15 34 -33 51 -40 l31 -15 -35 7 c-19 3 -39 10 -44 15 -6 5 -18 9
-28 9 -13 0 -18 8 -18 25 0 32 17 32 43 -1z m398 0 c13 -14 34 -30 47 -35 12
-5 22 -13 22 -19 0 -13 -27 -13 -35 0 -3 6 -14 10 -23 10 -28 1 -66 35 -59 54
9 22 20 20 48 -10z m402 -9 c31 -39 26 -43 -21 -19 -36 17 -46 30 -37 44 11
18 30 10 58 -25z m411 0 c39 -34 39 -35 13 -35 -14 0 -29 5 -32 10 -3 6 -15
10 -26 10 -14 0 -19 7 -19 25 0 34 17 31 64 -10z m1978 10 c11 -14 28 -25 38
-25 9 0 23 -7 30 -15 17 -20 2 -20 -72 2 -41 12 -57 22 -53 31 3 8 5 18 5 23
0 18 33 8 52 -16z m-2322 -55 c0 -5 -4 -10 -9 -10 -6 0 -13 5 -16 10 -3 6 1
10 9 10 9 0 16 -4 16 -10z m2997 -3 c12 -7 30 -24 42 -38 l20 -26 -60 0 c-32
0 -59 2 -59 4 0 3 7 11 15 20 9 9 13 23 10 34 -7 22 1 23 32 6z m403 -2 c17
-9 30 -21 30 -27 0 -7 12 -22 28 -34 15 -12 24 -25 20 -29 -4 -4 -22 5 -39 20
-21 17 -41 25 -55 22 -19 -3 -22 0 -21 30 1 38 -1 37 37 18z m440 -35 c27 -28
50 -53 50 -55 0 -12 -24 -3 -55 20 -24 19 -40 24 -59 19 -26 -6 -37 8 -16 21
6 4 8 15 5 26 -11 35 22 21 75 -31z m-2010 7 c8 -12 25 -33 38 -46 13 -13 20
-26 17 -29 -3 -4 -9 -2 -13 4 -4 5 -20 19 -35 31 -27 21 -30 21 -53 6 -28 -18
-43 -11 -24 12 7 8 10 24 7 36 -5 18 -2 20 21 14 15 -3 34 -16 42 -28z m374
23 c14 -5 26 -15 26 -21 0 -7 7 -21 17 -31 9 -10 11 -18 5 -18 -6 0 -14 5 -18
11 -4 7 -22 9 -47 6 -29 -4 -36 -2 -28 6 6 6 11 21 11 34 0 26 0 26 34 13z
m417 -12 c7 -13 19 -28 28 -35 23 -16 7 -27 -19 -13 -12 6 -33 9 -47 5 -21 -5
-24 -3 -19 10 3 9 6 25 6 36 0 27 36 25 51 -3z m-4390 2 c10 -6 19 -17 19 -25
0 -8 14 -22 30 -32 30 -17 39 -33 20 -33 -5 0 -10 4 -10 9 0 17 -63 40 -83 29
-23 -12 -35 -2 -19 14 7 7 12 20 12 30 0 21 4 22 31 8z m426 -33 c26 -35 22
-48 -6 -23 -13 12 -27 15 -45 10 -29 -7 -30 -6 -17 30 13 32 38 26 68 -17z
m375 26 c10 -9 18 -22 18 -28 0 -7 7 -16 16 -19 9 -4 14 -9 11 -12 -3 -3 -17
2 -31 11 -14 10 -35 15 -46 12 -14 -3 -18 -1 -13 6 4 7 6 20 5 30 -4 22 16 22
40 0z m393 9 c12 -8 45 -58 45 -68 0 -4 -9 1 -19 10 -15 13 -28 16 -53 11 -27
-6 -31 -5 -20 6 6 7 12 21 12 31 0 18 17 23 35 10z m403 -4 c22 -22 14 -43
-19 -45 -24 -2 -30 1 -25 13 3 9 6 22 6 30 0 17 22 18 38 2z m407 -15 c32 -35
32 -45 -1 -32 -15 5 -35 7 -45 4 -11 -4 -19 -2 -19 4 0 6 5 11 11 11 6 0 8 9
4 20 -9 30 19 26 50 -7z m-725 -63 c0 -5 -4 -10 -10 -10 -5 0 -10 5 -10 10 0
6 5 10 10 10 6 0 10 -4 10 -10z m3580 0 c0 -5 -4 -10 -9 -10 -6 0 -13 5 -16
10 -3 6 1 10 9 10 9 0 16 -4 16 -10z m-662 -58 c2 -8 -8 -12 -27 -12 -33 0
-42 16 -13 23 23 6 35 3 40 -11z m767 -3 c-8 -12 -35 -12 -35 0 0 11 22 20 33
14 4 -2 5 -9 2 -14z m400 11 c3 -5 -1 -10 -9 -10 -9 0 -16 5 -16 10 0 6 4 10
9 10 6 0 13 -4 16 -10z m-4755 -10 c0 -5 -12 -10 -26 -10 -14 0 -23 4 -19 10
3 6 15 10 26 10 10 0 19 -4 19 -10z m795 0 c4 -6 -5 -10 -19 -10 -14 0 -26 5
-26 10 0 6 9 10 19 10 11 0 23 -4 26 -10z m390 0 c4 -6 -5 -10 -20 -10 -15 0
-24 4 -20 10 3 6 12 10 20 10 8 0 17 -4 20 -10z m2010 0 c4 -6 -8 -10 -30 -10
-22 0 -34 4 -30 10 3 6 17 10 30 10 13 0 27 -4 30 -10z m800 0 c8 -13 -15 -13
-35 0 -12 8 -11 10 7 10 12 0 25 -4 28 -10z m915 -55 c13 -14 18 -25 11 -25
-19 0 -61 31 -55 41 9 14 19 11 44 -16z m-1596 0 c22 -17 17 -29 -7 -19 -16 6
-32 34 -19 34 4 0 16 -7 26 -15z m417 -11 c9 -11 8 -14 -8 -14 -19 0 -43 17
-43 31 0 11 38 -2 51 -17z m377 14 c19 -19 14 -30 -8 -18 -11 6 -20 15 -20 20
0 14 14 12 28 -2z m407 -8 c15 -16 15 -20 3 -20 -8 0 -23 9 -33 20 -15 16 -15
20 -3 20 8 0 23 -9 33 -20z m-5135 -41 c15 -27 12 -29 -17 -14 -28 15 -43 32
-43 53 0 16 47 -14 60 -39z m360 36 c7 -9 10 -18 7 -22 -8 -7 -37 15 -37 28 0
14 16 11 30 -6z m398 -8 c2 -12 -1 -15 -12 -11 -19 7 -22 38 -3 32 6 -3 13
-12 15 -21z m401 9 c9 -10 9 -16 1 -21 -12 -7 -40 11 -40 26 0 14 26 10 39 -5z
m395 -2 c4 -11 1 -14 -11 -12 -9 2 -18 9 -21 16 -6 18 25 15 32 -4z m391 5
c10 -14 1 -21 -19 -13 -9 3 -13 10 -10 15 7 12 21 11 29 -2z m1595 -4 c21 -25
1 -31 -22 -7 -18 18 -19 22 -6 22 8 0 21 -7 28 -15z m-3410 -125 c42 -42 34
-53 -20 -25 -21 11 -30 23 -30 40 0 14 2 25 5 25 3 0 23 -18 45 -40z m-116
-56 c9 -3 16 -14 16 -24 0 -10 7 -20 15 -24 8 -3 15 -10 15 -16 0 -6 -11 -5
-28 4 -26 13 -31 13 -44 -1 -21 -20 -44 -8 -26 14 7 9 12 24 10 35 -3 19 13
23 42 12z m-41 -229 c30 -28 31 -31 18 -39 -10 -7 -61 38 -61 54 0 16 13 12
43 -15z m146 -102 c15 -16 35 -33 46 -40 18 -11 17 -12 -12 -12 -17 -1 -35 4
-38 9 -3 6 -15 10 -26 10 -14 0 -19 7 -19 30 0 37 14 38 49 3z m-89 -94 c0 -6
17 -27 37 -45 23 -21 31 -34 22 -34 -9 0 -24 9 -35 21 -15 17 -26 20 -58 15
-34 -6 -38 -5 -31 11 5 10 8 30 7 46 -1 27 -1 27 28 12 17 -9 30 -20 30 -26z
m87 -309 c9 -16 23 -30 30 -30 14 0 28 -19 19 -27 -3 -3 -27 2 -54 12 -44 16
-48 20 -44 46 6 37 26 37 49 -1z m-83 -103 c3 -13 17 -29 31 -37 14 -7 25 -17
25 -22 0 -15 -19 -8 -39 13 -16 18 -26 20 -62 14 -39 -7 -42 -6 -30 8 7 9 12
26 11 39 -3 36 -2 37 29 22 16 -8 32 -25 35 -37z m86 -312 c13 -14 31 -25 41
-25 9 0 22 -7 29 -15 16 -20 5 -19 -60 5 -30 11 -56 20 -57 20 -2 0 -3 9 -3
20 0 27 22 25 50 -5z m409 -5 c24 -17 48 -30 53 -30 4 0 8 -5 8 -11 0 -13 -40
-5 -83 16 -15 8 -35 11 -44 8 -9 -4 -14 -2 -11 3 3 5 8 17 11 27 8 23 15 22
66 -13z m395 0 c31 -23 36 -31 23 -36 -23 -8 -88 33 -80 52 7 19 12 18 57 -16z
m-898 -86 c12 -30 12 -31 -12 -26 -13 2 -31 -1 -39 -8 -17 -14 -20 -3 -6 19 6
9 6 22 0 34 -9 16 -7 18 17 15 20 -2 31 -12 40 -34z m388 11 c23 -35 20 -40
-24 -41 -39 -1 -51 8 -30 21 6 4 8 15 5 26 -9 29 29 25 49 -6z m381 17 c6 -4
21 -22 34 -39 23 -34 16 -42 -20 -22 -15 8 -24 7 -35 -2 -20 -17 -24 -9 -17
34 5 36 17 45 38 29z m-600 -152 c3 -5 -1 -10 -10 -10 -9 0 -13 5 -10 10 3 6
8 10 10 10 2 0 7 -4 10 -10z m415 0 c-20 -13 -40 -13 -40 0 0 6 12 10 28 10
21 0 24 -2 12 -10z m-642 -81 c32 -32 36 -46 9 -36 -18 7 -62 67 -50 67 5 0
24 -14 41 -31z m396 1 c30 -31 31 -45 2 -34 -17 7 -52 64 -39 64 5 0 21 -14
37 -30z m400 -9 c16 -17 23 -31 17 -35 -12 -8 -51 32 -51 51 0 18 3 17 34 -16z
m-651 -100 c31 -33 23 -47 -16 -28 -25 12 -41 40 -29 51 10 10 16 7 45 -23z
m394 7 c28 -26 31 -54 6 -43 -10 4 -26 10 -35 12 -20 6 -25 53 -6 53 6 0 22
-10 35 -22z m403 -10 c34 -37 33 -43 -6 -28 -30 12 -44 26 -44 48 0 21 20 13
50 -20z m-895 -74 c29 -31 32 -49 8 -39 -10 4 -25 9 -35 12 -16 5 -30 37 -20
47 11 11 23 6 47 -20z m399 -8 c33 -44 33 -51 0 -29 -22 14 -29 14 -46 4 -18
-11 -20 -11 -14 4 3 9 6 25 6 36 0 30 25 23 54 -15z m409 -7 c26 -30 30 -56 5
-31 -15 15 -51 15 -66 0 -14 -14 -16 1 -6 40 9 31 35 28 67 -9z m-228 -119
c-3 -5 -11 -10 -16 -10 -6 0 -7 5 -4 10 3 6 11 10 16 10 6 0 7 -4 4 -10z
m-405 -4 c0 -11 -19 -15 -25 -6 -3 5 1 10 9 10 9 0 16 -2 16 -4z m160 -61 c10
-12 10 -15 -3 -15 -8 0 -20 7 -27 15 -10 12 -10 15 3 15 8 0 20 -7 27 -15z
m391 4 c11 -5 17 -14 14 -20 -7 -11 -45 7 -45 21 0 13 7 13 31 -1z m-617 -123
c39 -37 33 -59 -9 -32 -13 9 -31 16 -39 16 -9 0 -13 9 -12 25 2 34 16 31 60
-9z m-106 -86 c9 -16 20 -30 25 -30 4 0 7 -5 7 -11 0 -6 -9 -3 -22 5 -12 9
-31 13 -45 10 -24 -6 -30 7 -17 40 10 25 33 19 52 -14z m105 -306 c27 -32 28
-34 9 -34 -12 0 -24 5 -27 10 -3 6 -15 10 -26 10 -14 0 -19 7 -19 25 0 36 29
31 63 -11z m-107 -54 c8 0 14 -10 14 -24 0 -13 6 -26 13 -29 6 -2 9 -7 6 -11
-4 -4 -18 -1 -33 5 -20 10 -29 10 -38 1 -20 -20 -29 -14 -22 16 10 49 14 54
30 48 9 -3 22 -6 30 -6z m74 -90 c0 -5 -4 -10 -9 -10 -6 0 -13 5 -16 10 -3 6
1 10 9 10 9 0 16 -4 16 -10z m29 -245 c38 -41 34 -54 -10 -38 -17 7 -38 9 -46
6 -13 -5 -15 -2 -10 11 4 10 7 26 7 37 0 29 22 23 59 -16z m-98 -87 c16 -18
29 -36 29 -40 0 -11 -18 -10 -25 2 -8 14 -48 13 -63 -2 -16 -16 -25 -4 -13 19
5 10 12 26 15 36 8 25 23 21 57 -15z m69 -68 c0 -5 -4 -10 -10 -10 -5 0 -10 5
-10 10 0 6 5 10 10 10 6 0 10 -4 10 -10z m16 -235 c9 -13 31 -30 50 -37 19 -6
34 -16 34 -20 0 -11 -28 -10 -35 2 -3 6 -17 10 -31 10 -31 0 -69 34 -61 54 9
23 24 20 43 -9z m403 -4 c11 -11 32 -27 48 -35 l28 -15 -32 -1 c-17 0 -34 4
-38 9 -3 5 -19 12 -35 16 -33 7 -33 7 -24 29 8 22 30 20 53 -3z m411 -7 c40
-26 44 -44 12 -44 -10 0 -28 7 -40 16 -12 8 -27 12 -32 9 -11 -7 -13 6 -4 29
8 22 18 20 64 -10z m-508 -77 c9 -12 27 -34 39 -50 l21 -27 -36 21 c-26 15
-44 19 -67 14 -29 -7 -30 -6 -19 15 6 12 10 31 7 41 -4 16 -2 19 16 14 12 -4
30 -16 39 -28z m371 21 c22 -11 29 -19 68 -71 l21 -28 -37 21 c-32 18 -42 20
-67 9 -35 -14 -47 -5 -25 19 10 11 14 26 10 40 -6 25 -1 27 30 10z m-766 -15
c3 -10 13 -26 21 -36 20 -23 9 -32 -20 -16 -12 7 -32 12 -44 10 -18 -2 -20 2
-16 29 3 24 9 30 28 30 14 0 27 -7 31 -17z m202 -137 c-12 -10 -60 -16 -54 -6
3 5 18 10 32 10 15 0 24 -2 22 -4z m407 -11 c18 -14 17 -14 -8 -4 -21 9 -31 9
-43 -1 -17 -14 -31 -8 -20 9 9 16 48 13 71 -4z m-274 -62 c29 -28 35 -43 18
-43 -12 0 -59 50 -60 63 0 14 14 7 42 -20z m384 15 c35 -30 44 -40 44 -49 0
-17 -21 -9 -45 17 -34 37 -33 60 1 32z m-626 -128 c12 -16 28 -30 35 -30 8 0
17 -5 21 -11 9 -15 -53 -1 -83 18 -25 17 -31 53 -9 53 8 0 24 -13 36 -30z
m401 4 c13 -14 34 -30 47 -35 13 -5 20 -13 17 -19 -4 -6 -12 -6 -23 0 -9 5
-28 11 -42 14 -38 8 -64 31 -57 50 9 23 30 20 58 -10z m409 -6 c42 -35 49 -48
25 -48 -33 0 -85 35 -85 58 0 30 14 28 60 -10z m-103 -93 c51 -49 52 -53 5
-29 -23 11 -36 12 -51 5 -30 -16 -33 -14 -26 22 8 34 13 47 20 47 3 0 26 -20
52 -45z m-798 6 c26 -37 26 -45 1 -31 -14 7 -26 8 -39 0 -33 -17 -39 -12 -27
25 13 43 37 45 65 6z m388 12 c4 -10 14 -23 22 -30 13 -10 7 -12 -31 -10 -45
2 -48 4 -48 30 0 22 4 27 25 27 15 0 28 -7 32 -17z m-327 -73 c0 -5 -4 -10 -9
-10 -6 0 -13 5 -16 10 -3 6 1 10 9 10 9 0 16 -4 16 -10z m115 -60 c-3 -5 -13
-10 -21 -10 -8 0 -12 5 -9 10 3 6 13 10 21 10 8 0 12 -4 9 -10z m400 0 c-3 -5
-10 -10 -16 -10 -5 0 -9 5 -9 10 0 6 7 10 16 10 8 0 12 -4 9 -10z m-261 -56
c9 -3 16 -13 16 -20 0 -12 -4 -12 -20 -4 -11 6 -20 15 -20 20 0 12 3 12 24 4z
m406 -9 c7 -9 10 -18 7 -22 -8 -7 -37 15 -37 28 0 14 16 11 30 -6z m-631 -117
c36 -41 31 -52 -14 -31 -25 12 -35 23 -35 40 0 32 15 29 49 -9z m-107 -70 c8
-7 28 -30 43 -51 l28 -38 -37 22 c-30 17 -42 20 -61 11 -31 -14 -34 -9 -21 33
12 37 23 43 48 23z"/>
<path d="M4865 5211 c-13 -5 -20 -19 -22 -42 -1 -19 -3 -43 -5 -54 -3 -17 3
-20 32 -20 46 0 60 -10 60 -44 0 -48 -55 -74 -62 -29 -2 13 -11 24 -20 26 -23
4 -25 -40 -2 -62 22 -23 80 -20 104 4 47 47 7 140 -60 140 -19 0 -30 5 -30 14
0 21 19 30 57 28 23 -2 35 2 39 13 4 9 5 17 3 19 -10 9 -76 14 -94 7z"/>
<path d="M4514 5195 c-31 -21 -49 -96 -38 -153 7 -39 15 -50 42 -63 37 -19 61
-16 91 12 30 28 26 65 -9 100 -23 23 -35 28 -55 23 -20 -5 -25 -3 -25 13 0 10
7 29 16 42 l17 23 22 -28 c23 -29 45 -26 45 6 0 37 -67 53 -106 25z m65 -137
c11 -29 -4 -58 -29 -58 -21 0 -37 38 -26 65 9 23 45 18 55 -7z"/>
<path d="M1245 5164 c-33 -36 -31 -77 4 -82 22 -3 23 -1 18 26 -8 38 14 62 38
42 23 -19 18 -62 -10 -92 -14 -15 -25 -31 -25 -35 0 -4 -12 -17 -27 -29 -41
-32 -26 -54 37 -54 60 0 90 13 90 40 0 26 -15 33 -30 15 -13 -16 -55 -20 -64
-7 -3 5 8 19 25 31 33 25 69 77 69 101 -1 25 -37 60 -69 66 -24 5 -35 1 -56
-22z"/>
<path d="M3463 4892 c-8 -5 -13 -65 -15 -199 -2 -105 -5 -194 -8 -196 -10 -11
-1130 -11 -1140 -1 -5 5 -11 92 -12 199 l-3 190 -212 3 -213 2 -2 -172 c-1
-95 -2 -189 -3 -208 -1 -60 0 -60 201 -60 100 0 185 -4 188 -8 8 -13 9 -1119
1 -1132 -4 -6 -73 -10 -189 -10 -154 0 -186 -3 -196 -16 -10 -11 -13 -57 -11
-177 1 -89 4 -176 7 -194 l6 -32 182 -3 c99 -2 195 -1 211 2 l30 6 3 164 c1
91 3 176 5 190 l2 25 242 1 c133 1 247 5 252 9 24 14 8 24 -46 27 l-58 3 1
245 c1 135 2 300 2 368 l2 124 235 -4 c214 -3 235 -2 235 14 0 9 3 23 6 32 9
23 -23 32 -45 12 -15 -14 -49 -16 -239 -16 -121 0 -223 -4 -226 -8 -2 -4 -6
-88 -7 -185 -2 -125 -6 -180 -14 -187 -8 -7 -76 -9 -176 -8 l-164 3 -3 369
c-1 204 1 373 5 377 5 4 265 8 578 10 l570 4 0 -182 c0 -100 -4 -185 -8 -190
-5 -4 -17 3 -27 17 -24 32 -43 17 -38 -31 3 -31 6 -34 33 -32 16 1 32 -2 35
-7 3 -5 5 -170 4 -367 l-2 -358 -263 -5 c-353 -7 -355 -24 -2 -28 l261 -2 7
-125 c4 -68 4 -144 1 -168 -4 -24 -2 -56 3 -71 l11 -26 207 2 208 3 3 208 c2
161 0 207 -10 209 -7 1 -96 2 -198 3 l-185 0 0 575 0 575 195 5 195 5 5 80 c3
44 3 141 0 215 l-5 135 -200 2 c-110 2 -205 -1 -212 -5z m-1217 -44 c10 -16 4
-352 -6 -358 -5 -3 -82 -5 -171 -4 -158 2 -163 3 -171 24 -5 12 -7 92 -7 177
2 129 5 155 18 163 24 14 328 13 337 -2z m1592 -170 l-3 -183 -175 0 -175 0
-1 90 c-1 50 1 132 4 183 l5 92 174 0 173 0 -2 -182z m-1210 -1010 c7 -7 12
-25 12 -40 0 -24 -5 -30 -30 -35 l-31 -6 21 -19 c24 -22 26 -51 5 -68 -11 -9
-12 -16 -2 -31 10 -17 9 -22 -6 -31 -14 -7 -17 -17 -12 -35 3 -14 1 -31 -5
-38 -6 -8 -10 -24 -8 -37 3 -23 1 -23 -101 -26 -124 -3 -136 0 -121 28 9 16 8
25 0 36 -7 7 -10 23 -7 34 3 10 -1 24 -9 31 -19 15 -18 49 1 49 8 0 15 5 15
10 0 6 -7 10 -15 10 -9 0 -20 10 -24 23 -7 17 -4 26 12 39 l22 17 -28 10 c-21
8 -27 17 -27 39 0 15 5 33 12 40 17 17 309 17 326 0z m1196 -394 c14 -5 16
-31 16 -179 l0 -172 -97 -6 c-150 -10 -238 -8 -251 5 -8 8 -12 62 -12 179 l0
166 157 2 c86 1 159 4 162 6 6 6 6 6 25 -1z m-1581 -13 c4 -1 6 -79 5 -173
l-3 -173 -175 0 -175 0 0 170 0 170 75 6 c60 4 238 4 273 0z"/>
<path d="M2442 3619 c-24 -9 -62 -64 -62 -90 0 -9 9 -28 21 -43 15 -19 30 -26
56 -26 28 0 34 -3 29 -16 -3 -9 -6 -20 -6 -25 0 -14 -22 -10 -42 8 -14 13 -21
14 -31 4 -18 -18 5 -45 42 -49 62 -6 107 65 96 150 -10 69 -52 105 -103 87z
m47 -50 c19 -54 15 -69 -19 -69 -42 0 -54 28 -30 68 25 40 35 40 49 1z"/>
<path d="M2830 3309 c0 -28 -4 -59 -10 -69 -7 -13 -6 -21 5 -30 20 -17 60 -9
59 13 0 9 -1 44 -2 77 -2 57 -3 60 -27 60 -23 0 -25 -3 -25 -51z"/>
<path d="M4827 3213 c-10 -9 -8 -51 2 -57 5 -3 14 1 21 9 12 15 51 21 62 9 3
-3 -2 -22 -12 -42 -28 -60 -44 -132 -33 -143 18 -18 41 19 49 78 3 32 15 76
25 97 11 22 19 43 19 48 0 10 -124 11 -133 1z"/>
<path d="M782 3190 c-15 -12 -22 -28 -20 -42 4 -30 31 -29 38 1 8 34 28 37 41
7 13 -28 -1 -56 -27 -56 -23 0 -16 -18 14 -32 31 -15 40 -49 18 -67 -21 -17
-46 -7 -46 19 0 13 -7 20 -20 20 -26 0 -27 -40 -2 -63 60 -54 164 40 107 97
-12 11 -13 21 -5 42 27 69 -42 121 -98 74z"/>
<path d="M1293 3163 c-48 -92 -55 -103 -64 -103 -5 0 -9 -9 -9 -20 0 -17 7
-20 40 -20 35 0 39 -3 37 -22 -2 -19 3 -24 32 -26 31 -3 33 -1 28 19 -3 13 -1
29 5 36 7 9 7 17 -2 28 -7 8 -15 44 -18 80 -6 76 -20 84 -49 28z m17 -89 c0
-19 -19 -27 -35 -14 -11 9 -12 16 -2 30 8 14 15 16 24 8 7 -6 13 -16 13 -24z"/>
<path d="M2825 3110 c-3 -5 -1 -19 5 -30 16 -30 2 -160 -17 -160 -32 0 -4 -25
32 -28 43 -4 66 11 47 30 -8 8 -12 46 -12 105 0 92 0 93 -24 93 -14 0 -28 -4
-31 -10z"/>
<path d="M2839 1523 c-9 -2 -25 -19 -35 -38 -16 -29 -16 -37 -5 -59 12 -22 12
-29 -3 -50 -22 -34 -20 -48 7 -74 31 -30 89 -30 117 0 24 26 25 46 4 76 -13
19 -14 28 -4 52 9 23 9 34 -4 58 -8 16 -23 32 -31 36 -17 6 -20 6 -46 -1z m46
-43 c14 -44 -15 -76 -43 -48 -23 23 -7 68 24 68 7 0 16 -9 19 -20z m5 -115
c15 -18 -1 -65 -21 -65 -16 0 -49 30 -49 45 0 32 48 46 70 20z"/>
<path d="M2895 358 c-21 -19 -26 -34 -31 -88 -4 -54 -2 -70 14 -96 40 -63 118
-45 135 30 13 53 0 120 -28 150 -30 32 -56 33 -90 4z m70 -38 c28 -55 12 -150
-27 -158 -21 -4 -31 31 -32 103 -1 86 28 114 59 55z"/>
<path d="M2735 350 c-3 -5 1 -20 9 -32 22 -31 22 -141 1 -158 -20 -16 -3 -30
37 -30 31 0 45 17 29 33 -6 6 -11 49 -11 104 l0 93 -29 0 c-17 0 -33 -4 -36
-10z"/>
</g>
</svg>
