<?xml version="1.0" standalone="no"?>
<!DOCTYPE svg PUBLIC "-//W3C//DTD SVG 20010904//EN"
 "http://www.w3.org/TR/2001/REC-SVG-20010904/DTD/svg10.dtd">
<svg version="1.0" xmlns="http://www.w3.org/2000/svg"
 width="764.000000pt" height="692.000000pt" viewBox="0 0 764.000000 692.000000"
 preserveAspectRatio="xMidYMid meet">
<metadata>
Created by potrace 1.16, written by Peter Selinger 2001-2019
</metadata>
<g transform="translate(0.000000,692.000000) scale(0.100000,-0.100000)"
fill="#000000" stroke="none">
<path d="M3429 6916 c-2 -2 -285 -7 -629 -11 -344 -3 -787 -10 -985 -15 -198
-5 -565 -10 -815 -11 -250 -1 -527 -4 -615 -8 l-160 -6 0 -155 c0 -257 17
-2318 20 -2415 2 -49 6 -691 10 -1425 4 -786 11 -1342 17 -1353 8 -16 23 -17
171 -12 89 3 425 7 747 10 574 5 912 12 938 21 9 2 12 20 10 56 l-3 53 -655
-2 c-360 -1 -748 -5 -861 -8 -161 -4 -208 -3 -217 7 -7 9 -12 280 -17 819 l-7
806 38 6 c22 4 239 7 484 7 424 0 1179 16 1188 25 3 2 6 20 9 39 5 49 -11 54
-142 51 -312 -9 -628 -15 -1077 -21 l-498 -7 -2 174 c-3 213 -3 232 -6 913 -2
411 0 551 9 556 13 8 402 17 1164 26 275 3 508 8 518 10 19 6 25 68 8 79 -6 3
-387 1 -847 -5 -705 -9 -839 -9 -851 3 -11 11 -15 157 -20 814 l-6 800 74 7
c41 3 396 10 789 16 393 5 921 12 1173 16 l457 7 0 -51 c0 -48 -2 -51 -27 -54
-24 -3 -28 -8 -28 -33 l0 -30 100 4 c55 1 103 5 108 8 4 2 7 15 7 29 0 19 -5
24 -24 24 -32 0 -38 11 -30 58 l6 40 112 6 c147 8 1352 25 2586 36 547 5 1119
12 1270 15 151 4 280 3 286 -2 16 -11 23 -291 29 -1141 8 -1192 17 -2269 20
-2417 2 -77 6 -747 10 -1490 7 -1269 10 -1589 13 -1727 l2 -58 60 0 61 0 -2
608 c-1 334 -5 974 -9 1422 -5 448 -11 1132 -14 1520 -3 388 -11 1214 -17
1835 -6 622 -11 1221 -12 1333 l-1 202 -1956 0 c-1076 0 -1959 -2 -1961 -4z"/>
<path d="M2803 6556 c-51 -54 -14 -159 60 -169 48 -7 77 -32 77 -67 0 -58 -72
-81 -108 -35 -23 29 -52 33 -52 8 0 -9 12 -30 27 -45 22 -23 35 -28 74 -28 40
0 51 4 73 31 56 66 20 169 -59 169 -40 0 -74 30 -74 65 -1 24 28 62 49 66 20
4 70 -30 70 -48 0 -19 34 -12 38 8 1 8 -7 27 -18 42 -19 24 -28 27 -78 27 -47
0 -61 -5 -79 -24z"/>
<path d="M3281 6421 c-37 -36 -41 -44 -41 -89 0 -43 4 -53 40 -90 l39 -42 81
0 81 0 54 58 c61 64 70 101 34 146 -19 25 -25 26 -103 25 -63 -2 -89 2 -107
15 -13 9 -27 16 -30 16 -4 0 -26 -18 -48 -39z m79 -111 c0 -5 -4 -10 -10 -10
-5 0 -10 5 -10 10 0 6 5 10 10 10 6 0 10 -4 10 -10z m98 -27 c-2 -14 -13 -18
-42 -18 -70 0 -54 31 17 34 22 1 28 -3 25 -16z"/>
<path d="M650 6342 c-22 -24 -40 -54 -40 -66 0 -43 52 -93 80 -76 11 7 12 11
0 24 -17 22 -4 33 20 18 11 -7 42 -12 69 -12 28 0 52 -4 55 -9 11 -18 -24 -34
-64 -28 -25 3 -43 0 -50 -7 -16 -20 -1 -26 70 -26 58 0 70 3 90 25 13 14 29
25 37 25 17 0 53 36 53 53 0 10 -46 61 -102 112 -13 12 -37 15 -98 14 l-81 -2
-39 -45z"/>
<path d="M2872 6188 c-15 -4 -34 -5 -43 -3 -16 5 -49 -18 -49 -34 0 -13 24
-31 41 -31 10 0 20 -8 23 -17 10 -36 16 -200 9 -253 -7 -47 -11 -55 -33 -60
-18 -4 -25 -13 -25 -30 0 -25 1 -25 101 -28 81 -2 104 0 114 13 18 22 5 45
-30 51 l-30 7 0 158 c0 151 1 159 20 159 21 0 44 34 36 55 -5 15 -93 24 -134
13z"/>
<path d="M4431 6049 c-437 -6 -688 -12 -696 -19 -9 -8 -11 -106 -7 -434 5
-413 4 -424 -15 -434 -24 -13 -730 -19 -742 -6 -5 5 -12 23 -15 40 -7 33 4 49
39 56 12 2 20 11 20 23 0 25 -47 32 -150 25 -62 -4 -70 -7 -70 -25 0 -14 8
-21 28 -23 16 -2 30 -9 32 -15 2 -7 6 -222 8 -480 3 -351 1 -470 -8 -477 -8
-6 -339 -14 -865 -20 -470 -5 -858 -14 -863 -19 -5 -5 -7 -24 -5 -42 l3 -34
240 0 c132 0 524 2 870 5 l630 5 1 -30 c1 -16 5 -384 9 -817 l8 -788 -94 0
c-52 0 -330 -4 -619 -10 -289 -5 -639 -11 -778 -13 -270 -3 -274 -4 -264 -53
7 -35 26 -41 132 -39 386 8 962 16 1260 18 l355 2 5 -95 c3 -52 5 -421 5 -820
l0 -725 -428 -6 c-317 -4 -431 -9 -436 -18 -8 -13 -4 -669 5 -738 l5 -43 59 0
59 0 -2 348 -2 347 345 6 c190 4 761 12 1270 18 1733 21 2435 31 2580 39 l145
7 3 30 c6 45 -18 56 -108 50 -41 -3 -547 -9 -1125 -15 -577 -6 -1317 -15
-1643 -21 -452 -9 -596 -9 -605 0 -19 19 -24 338 -32 1836 -4 759 -8 1421 -10
1470 -6 171 -10 924 -5 929 3 2 154 7 335 11 397 7 512 12 526 21 8 4 10 130
7 425 -2 313 0 421 9 430 8 8 116 14 365 20 475 11 1259 12 1268 2 10 -10 19
-748 10 -763 -4 -6 -24 -10 -46 -8 -31 2 -39 7 -44 28 -5 20 -12 25 -35 25
l-30 0 0 -105 0 -105 30 0 c23 0 30 5 35 25 5 22 11 25 50 25 l45 0 5 -425 c3
-234 7 -426 8 -427 1 -2 195 -3 431 -3 399 0 429 -1 436 -17 8 -18 21 -2492
14 -2494 -2 -1 -276 -5 -609 -9 -1447 -20 -1897 -23 -1902 -14 -8 13 -32 2493
-25 2501 4 3 197 8 429 10 259 3 427 8 433 14 6 6 10 166 10 437 l0 427 40 0
c33 0 40 -4 45 -24 8 -33 34 -49 54 -32 23 19 23 206 0 215 -23 9 -52 -10 -56
-36 -3 -21 -9 -23 -83 -26 -43 -2 -85 -8 -93 -15 -12 -10 -14 -78 -11 -430 3
-334 1 -419 -9 -426 -7 -4 -200 -11 -428 -14 -229 -4 -421 -10 -426 -14 -8 -4
-9 -78 -4 -232 3 -124 7 -651 7 -1171 1 -520 4 -1021 8 -1115 l6 -170 125 0
c660 0 2571 32 2583 44 9 9 11 751 2 1366 -3 204 -7 581 -10 839 -2 258 -7
471 -10 474 -3 3 -198 4 -434 3 l-428 -3 -6 99 c-4 54 -7 438 -7 853 0 415 -3
765 -6 778 l-6 22 -227 -2 c-124 -1 -534 -5 -910 -9z"/>
<path d="M5022 5277 c-17 -18 -22 -36 -22 -74 0 -44 4 -55 27 -73 17 -13 35
-19 49 -16 29 8 84 -37 84 -68 0 -25 -38 -66 -61 -66 -9 0 -30 13 -49 30 -25
22 -36 27 -46 19 -10 -8 -11 -16 -3 -30 18 -34 54 -50 105 -47 42 3 51 7 70
36 17 25 21 42 17 70 -10 61 -29 82 -75 82 -30 0 -44 6 -63 28 -30 33 -30 36
-3 72 27 37 61 39 90 5 25 -29 48 -33 48 -7 0 59 -123 87 -168 39z"/>
<path d="M5103 4708 c-9 -10 -26 -18 -37 -18 -12 0 -29 -9 -39 -20 -12 -14
-24 -19 -40 -14 -27 6 -87 -37 -87 -63 0 -20 80 -93 101 -93 9 0 22 -7 29 -15
10 -12 36 -15 115 -15 l103 0 56 58 c68 70 74 105 25 146 -17 14 -39 26 -49
26 -10 0 -20 5 -22 11 -2 5 -34 11 -71 12 -54 2 -72 -2 -84 -15z m157 -123 c0
-8 -4 -15 -10 -15 -5 0 -10 7 -10 15 0 8 5 15 10 15 6 0 10 -7 10 -15z m-200
-27 c14 -1 25 -9 25 -17 0 -24 -22 -23 -49 2 -26 24 -37 49 -13 29 6 -5 23
-12 37 -14z m100 -18 c0 -5 -4 -10 -10 -10 -5 0 -10 5 -10 10 0 6 5 10 10 10
6 0 10 -4 10 -10z"/>
<path d="M3964 4007 c-25 -22 -27 -29 -25 -88 1 -35 4 -66 7 -68 3 -3 14 0 24
7 25 16 30 15 30 -3 0 -8 -4 -15 -10 -15 -5 0 -10 -7 -10 -15 0 -8 7 -15 15
-15 8 0 15 7 15 15 0 9 9 15 25 15 16 0 25 -6 25 -15 0 -9 -9 -15 -24 -15 -36
0 -44 -35 -15 -66 33 -35 66 -31 111 15 27 28 38 48 38 70 0 16 7 36 15 45 34
34 -5 126 -53 126 -11 0 -25 7 -32 15 -21 25 -103 20 -136 -8z"/>
<path d="M5813 3866 c-13 -13 -23 -35 -23 -49 0 -34 36 -77 65 -77 13 0 26 -4
29 -9 14 -23 104 -55 158 -57 53 -2 60 0 83 28 46 55 21 158 -40 158 -12 0
-28 7 -35 15 -10 12 -36 15 -114 15 -93 0 -103 -2 -123 -24z m137 -81 c7 -9
29 -15 51 -15 21 0 40 -4 44 -9 8 -14 -30 -32 -52 -25 -52 17 -103 46 -98 54
9 15 41 12 55 -5z"/>
<path d="M5203 3853 c-56 -3 -85 -8 -93 -18 -7 -8 -22 -15 -34 -15 -12 0 -35
-13 -50 -29 -24 -24 -26 -32 -17 -50 7 -12 16 -21 20 -21 5 0 29 -20 54 -45
26 -25 54 -45 65 -45 10 0 31 -13 47 -30 26 -28 34 -30 96 -30 61 0 70 3 88
26 18 22 21 39 19 105 l-1 79 -43 40 c-24 22 -49 39 -56 38 -7 -1 -50 -4 -95
-5z m105 -191 c3 -17 -3 -22 -33 -28 -27 -5 -41 -2 -53 10 -15 15 -14 16 10
16 14 0 31 7 38 15 17 20 34 14 38 -13z"/>
<path d="M4830 3430 l-195 -5 -1 -410 c0 -225 2 -441 4 -479 l4 -69 476 6
c263 4 478 7 479 7 1 0 5 41 9 90 6 84 8 91 33 103 15 7 26 21 26 32 0 25 -42
32 -145 25 -66 -4 -75 -7 -78 -26 -2 -14 6 -24 29 -35 23 -9 34 -22 36 -39 7
-58 10 -57 -382 -64 -284 -5 -364 -4 -378 6 -15 12 -17 49 -23 379 -4 301 -3
368 8 377 10 8 124 11 378 12 201 1 371 1 378 0 8 0 12 -17 12 -49 0 -46 -1
-49 -31 -55 -25 -5 -30 -10 -27 -28 3 -22 7 -23 110 -26 101 -3 107 -2 113 19
8 25 -1 36 -35 41 -24 3 -25 6 -30 98 l-5 95 -285 0 c-157 1 -373 -2 -480 -5z"/>
<path d="M5297 3289 c-17 -10 -17 -12 -3 -28 9 -10 17 -41 18 -75 3 -48 0 -61
-14 -70 -34 -21 -21 -36 32 -36 51 0 64 12 35 34 -10 8 -15 36 -17 96 -4 90
-12 102 -51 79z"/>
<path d="M4984 3155 c-10 -8 -33 -15 -50 -15 -18 0 -39 -8 -49 -20 -10 -11
-25 -20 -33 -20 -19 0 -62 -41 -62 -61 0 -8 -7 -24 -15 -35 -19 -25 -19 -123
0 -148 8 -11 15 -27 15 -36 0 -20 71 -90 91 -90 8 0 24 -7 35 -15 10 -8 30
-15 43 -15 13 0 39 -10 58 -21 32 -20 45 -21 139 -16 77 3 110 9 123 21 10 9
24 16 32 16 8 1 40 25 72 55 l57 54 0 94 c0 70 -4 98 -14 106 -9 8 -41 11 -85
10 -46 -2 -75 1 -83 9 -7 7 -25 12 -41 12 -39 0 -34 34 6 38 24 3 28 7 25 30
-3 24 -8 27 -42 30 -22 2 -49 10 -60 18 -28 19 -136 19 -162 -1z m54 -127 c-3
-8 -27 -14 -61 -16 -48 -3 -56 -1 -51 13 8 20 118 22 112 3z m-167 -154 c23
-25 28 -26 105 -21 83 5 112 -2 100 -22 -4 -7 -39 -11 -85 -11 -78 0 -79 0
-122 40 -24 22 -39 40 -33 40 6 0 21 -12 35 -26z m529 1 c0 -9 -9 -15 -25 -15
-24 0 -32 10 -18 23 12 13 43 7 43 -8z m-101 -54 c22 -14 3 -31 -36 -31 -20 0
-44 -6 -52 -14 -12 -11 -48 -15 -128 -17 -106 -2 -135 2 -120 18 4 3 51 8 104
11 60 2 104 9 113 17 24 21 96 31 119 16z m-94 -111 c-3 -5 -24 -10 -46 -10
-21 0 -39 5 -39 10 0 6 21 10 46 10 27 0 43 -4 39 -10z"/>
<path d="M5545 3143 c-50 -7 -75 -39 -75 -95 0 -61 31 -98 83 -98 36 0 77 -33
77 -63 0 -21 -39 -57 -61 -57 -9 0 -27 11 -40 25 -13 13 -32 25 -41 25 -27 0
-22 -33 11 -64 26 -25 33 -26 80 -20 41 5 56 13 71 34 45 63 11 150 -59 150
-28 0 -45 7 -65 26 -33 34 -33 44 2 77 35 34 49 34 83 1 29 -27 59 -27 59 0 0
19 -57 66 -78 65 -9 -1 -30 -4 -47 -6z"/>
<path d="M4204 3078 c-12 -10 -29 -18 -38 -18 -9 0 -19 -6 -22 -14 -3 -8 -28
-16 -62 -20 -55 -7 -102 -34 -102 -61 0 -18 54 -65 76 -65 10 0 28 -7 38 -15
11 -8 30 -15 42 -15 12 0 38 -7 57 -15 20 -8 66 -15 102 -15 54 0 67 3 77 20
7 11 20 20 29 20 9 0 28 11 43 23 40 34 29 77 -34 141 -48 49 -49 49 -116 50
-50 1 -73 -3 -90 -16z m-28 -127 c5 -6 34 -11 64 -13 52 -3 55 -5 58 -30 3
-25 0 -28 -28 -28 -19 0 -33 6 -37 16 -4 11 -13 14 -30 10 -31 -8 -63 9 -63
34 0 21 19 27 36 11z"/>
<path d="M1635 3030 c-16 -16 -39 -30 -51 -30 -13 0 -42 -22 -78 -60 -57 -62
-64 -74 -46 -85 6 -4 16 -21 24 -39 23 -56 40 -66 115 -66 49 0 72 4 81 15 7
8 20 15 29 15 23 0 61 28 61 46 0 18 -49 19 -64 0 -13 -16 -115 -29 -135 -17
-28 18 1 31 66 31 62 0 68 2 93 32 29 35 50 31 50 -9 0 -22 3 -24 25 -19 14 4
41 23 60 44 49 53 47 88 -7 135 -41 36 -45 37 -118 37 -72 0 -78 -2 -105 -30z"/>
<path d="M5885 2980 c-60 -4 -86 -10 -102 -25 -28 -24 -29 -41 -3 -57 11 -7
20 -19 20 -26 0 -19 49 -89 68 -98 9 -3 60 -6 112 -5 115 3 140 19 146 94 4
43 2 47 -43 86 -39 33 -55 40 -83 38 -20 -1 -72 -4 -115 -7z m50 -130 c3 -5
27 -10 53 -10 26 0 53 -4 61 -9 29 -18 -2 -31 -73 -31 -67 0 -75 2 -90 25 -9
13 -16 27 -16 30 0 9 59 5 65 -5z"/>
<path d="M4136 2269 c-31 -36 -31 -42 -6 -94 11 -22 19 -51 20 -64 0 -13 10
-34 23 -47 21 -22 29 -24 143 -24 110 0 124 2 155 23 30 20 34 28 37 74 3 46
0 53 -28 77 -20 17 -43 26 -65 26 -20 0 -35 6 -39 15 -4 11 -23 15 -79 15 -54
0 -78 4 -87 15 -19 23 -46 18 -74 -16z m84 -118 c0 -6 19 -11 43 -13 58 -4 49
-22 -14 -26 -55 -3 -75 7 -66 32 7 17 37 22 37 7z"/>
<path d="M5932 2183 c-17 -12 -26 -13 -34 -5 -19 19 -47 14 -73 -14 -33 -36
-35 -122 -4 -165 19 -27 25 -29 90 -29 69 0 70 0 110 42 44 46 57 84 37 108
-20 24 -88 80 -96 79 -4 0 -17 -7 -30 -16z m-7 -133 c7 -12 -39 -24 -60 -16
-8 3 -15 10 -15 16 0 13 67 13 75 0z"/>
<path d="M4937 2014 c-29 -27 -44 -34 -62 -30 -17 4 -33 -2 -54 -20 -38 -32
-39 -43 -2 -78 23 -23 39 -29 73 -29 24 0 53 -7 66 -15 18 -12 48 -15 121 -14
92 2 97 3 118 29 16 19 23 41 23 69 0 34 -7 48 -40 82 l-39 42 -83 0 c-81 -1
-84 -1 -121 -36z m243 -56 c0 -40 -38 -68 -91 -68 -49 0 -72 15 -48 31 8 5 25
9 39 9 14 0 39 11 55 25 37 30 45 31 45 3z m-279 -28 c10 -6 19 -15 19 -20 0
-17 -25 -11 -38 10 -14 22 -9 25 19 10z"/>
<path d="M4030 1980 c-23 -23 -26 -53 -6 -69 18 -15 37 7 30 36 -8 28 23 39
47 17 16 -15 17 -19 5 -43 -8 -14 -23 -35 -35 -45 -12 -11 -21 -24 -21 -30 0
-7 -10 -20 -21 -30 -28 -23 -14 -37 45 -43 50 -6 76 7 76 38 0 22 -12 24 -39
7 -10 -6 -27 -8 -37 -4 -15 6 -11 13 30 51 44 40 47 46 41 77 -4 18 -12 39
-17 46 -16 19 -75 15 -98 -8z"/>
</g>
</svg>
