<?xml version="1.0" standalone="no"?>
<!DOCTYPE svg PUBLIC "-//W3C//DTD SVG 20010904//EN"
 "http://www.w3.org/TR/2001/REC-SVG-20010904/DTD/svg10.dtd">
<svg version="1.0" xmlns="http://www.w3.org/2000/svg"
 width="720.000000pt" height="784.000000pt" viewBox="0 0 720.000000 784.000000"
 preserveAspectRatio="xMidYMid meet">
<metadata>
Created by potrace 1.16, written by Peter Selinger 2001-2019
</metadata>
<g transform="translate(0.000000,784.000000) scale(0.100000,-0.100000)"
fill="#000000" stroke="none">
<path d="M3980 7569 c-855 -3 -2034 -4 -2620 -2 -586 2 -1131 0 -1212 -3
l-148 -7 0 -59 0 -58 3113 0 c1711 1 3331 4 3600 7 l487 6 0 65 0 64 -832 -3
c-458 -2 -1533 -7 -2388 -10z"/>
<path d="M6477 7014 c-3 -4 -6 -106 -7 -227 0 -121 -1 -222 -3 -223 -12 -13
-3162 -30 -3170 -17 -4 5 -8 108 -9 227 l-3 217 -24 6 c-13 3 -233 4 -487 1
-342 -4 -468 -9 -479 -18 -12 -10 -13 -50 -9 -253 2 -133 6 -341 9 -462 2
-121 4 -226 4 -232 1 -10 53 -13 226 -13 l225 0 2 -67 c4 -208 2 -343 -7 -352
-6 -6 -181 -11 -460 -13 l-450 -3 -5 -225 -5 -225 -70 -1 c-38 0 -72 -2 -75
-4 -3 -1 -178 -4 -389 -6 -211 -2 -386 -5 -388 -7 -6 -7 -1 -4273 6 -4487 l6
-205 1395 0 1395 0 3 -212 2 -213 25 0 25 0 0 253 c0 140 -3 349 -7 466 -6
208 -7 212 -27 209 -20 -3 -21 -8 -24 -225 l-2 -223 -48 -1 c-26 0 -115 -2
-199 -5 -83 -3 -154 -1 -157 4 -2 4 -6 206 -7 448 -1 241 -4 445 -7 453 -4 11
-122 12 -693 10 -378 -2 -690 -1 -692 1 -8 8 -17 667 -18 1282 -1 457 -3 559
-14 568 -9 8 -87 12 -232 13 l-218 2 -1 158 c-1 88 3 160 8 163 5 3 12 -2 15
-12 3 -11 18 -30 35 -43 27 -22 33 -23 69 -12 47 14 51 31 7 31 -49 0 -125 53
-131 93 -3 18 -4 172 -1 342 2 171 4 355 2 410 -1 55 -2 127 -2 160 l-1 60
227 5 c124 3 229 8 232 11 4 3 8 25 10 49 2 23 9 46 16 50 24 15 -1 30 -49 30
-59 0 -67 -7 -40 -36 12 -13 19 -30 16 -38 -6 -14 -37 -16 -225 -16 -164 0
-222 -3 -230 -12 -6 -9 -9 -338 -8 -953 1 -933 1 -940 21 -940 19 0 20 9 27
218 3 120 8 220 10 222 5 5 398 8 403 3 7 -7 8 -1794 1 -1806 -5 -9 -63 -12
-225 -12 -173 0 -221 -3 -230 -14 -27 -32 11 -38 233 -35 119 1 219 -1 223 -5
7 -7 10 -107 12 -364 l1 -82 253 2 c216 3 252 5 252 18 0 13 -34 16 -225 20
l-225 5 0 200 0 200 105 8 c58 4 359 6 670 5 l565 -3 3 -415 c2 -330 0 -418
-10 -432 -12 -16 -92 -17 -1143 -20 l-1130 -3 -1 60 c-6 259 -11 4479 -6 4510
l7 40 415 3 c228 1 425 0 438 -3 25 -6 29 -27 7 -45 -27 -22 -16 -30 40 -30
56 0 67 8 40 30 -13 10 -15 52 -15 256 l0 244 23 5 c12 3 209 4 437 3 l415 -3
3 -196 2 -196 -106 -6 c-59 -4 -160 -7 -225 -7 -65 0 -120 -4 -123 -9 -3 -4
-6 -118 -6 -252 l-1 -244 218 -5 c120 -3 224 -9 231 -13 17 -11 15 -34 -4 -45
-27 -15 -6 -32 41 -32 49 0 66 15 40 34 -9 7 -16 21 -13 32 3 18 15 19 223 22
121 1 224 7 229 12 5 5 8 280 7 698 l-2 690 33 5 c18 3 327 6 687 7 360 0 657
3 660 5 4 2 416 5 916 6 905 2 910 2 913 -18 2 -11 -4 -26 -13 -33 -27 -22
-16 -30 40 -30 43 0 55 3 55 15 0 9 -7 18 -15 21 -10 4 -15 20 -15 49 0 25 -5
45 -12 48 -7 2 -245 1 -528 -4 -283 -4 -1019 -10 -1634 -14 -616 -3 -1124 -9
-1129 -12 -6 -4 -8 -167 -4 -459 3 -279 2 -456 -4 -459 -10 -7 -378 -9 -385
-3 -2 2 -6 208 -9 457 -3 250 -8 458 -11 463 -4 6 -89 8 -218 5 -117 -3 -219
-2 -226 3 -10 6 -13 94 -15 429 -2 232 0 423 4 425 4 3 194 8 422 12 351 6
417 5 425 -7 5 -8 11 -112 12 -233 l4 -218 1106 7 c609 3 1215 8 1347 11 132
2 381 4 553 4 l312 0 0 214 c0 118 3 221 6 230 5 14 44 16 330 16 l324 0 0 30
0 30 -358 0 c-197 0 -361 -3 -365 -6z m-3258 -1937 c10 -13 12 -390 1 -400 -8
-8 -838 -14 -850 -7 -7 4 -10 74 -8 201 l3 194 242 5 c133 3 245 8 249 13 4 4
85 7 179 7 131 0 175 -3 184 -13z"/>
<path d="M0 6802 c0 -10 5 -23 11 -29 9 -9 9 -20 0 -44 -21 -61 -7 -97 17 -44
17 37 15 101 -4 119 -20 20 -24 20 -24 -2z"/>
<path d="M4 6398 c16 -53 18 -88 7 -88 -6 0 -11 -9 -11 -20 0 -25 16 -26 30
-1 14 27 13 104 -2 119 -19 19 -31 14 -24 -10z"/>
<path d="M6947 6093 c-9 -9 -9 -3321 1 -3326 4 -2 62 -2 130 1 120 4 122 5
122 28 0 23 -2 24 -84 24 -58 0 -87 4 -95 14 -8 10 -10 437 -9 1607 l3 1594
93 3 92 3 0 29 0 30 -123 0 c-68 0 -127 -3 -130 -7z"/>
<path d="M0 6015 c0 -8 9 -15 20 -15 25 0 25 6 0 20 -16 9 -20 8 -20 -5z"/>
<path d="M27 5923 c-5 -13 -13 -23 -18 -23 -5 0 -9 -7 -9 -15 0 -17 9 -19 28
-6 8 5 12 20 10 37 -3 27 -4 28 -11 7z"/>
<path d="M1920 5910 c0 -17 7 -20 40 -20 30 0 40 4 40 16 0 10 -6 14 -15 11
-8 -4 -17 -2 -20 3 -12 19 -45 11 -45 -10z"/>
<path d="M6463 5905 c-31 -22 -30 -59 2 -73 35 -16 44 -15 21 3 -25 19 -15 70
12 60 30 -11 37 -10 37 5 0 21 -45 24 -72 5z"/>
<path d="M2363 5888 c2 -7 12 -13 22 -13 10 0 20 6 23 13 2 7 -6 12 -23 12
-17 0 -25 -5 -22 -12z"/>
<path d="M2568 5868 c-19 -19 -32 -22 -75 -20 -57 4 -93 -10 -93 -36 0 -26 20
-42 52 -42 30 0 38 14 13 24 -19 7 -20 46 0 46 8 0 17 -11 21 -25 7 -29 45
-56 52 -36 6 18 40 13 51 -8 6 -10 7 -21 4 -25 -10 -10 -61 -7 -68 4 -3 6 -10
10 -16 10 -13 0 -11 -43 4 -63 11 -16 15 -16 62 7 37 18 53 33 63 57 7 19 18
42 23 51 14 28 11 31 -27 25 -35 -6 -35 -6 -29 24 8 35 -6 38 -37 7z"/>
<path d="M2079 5848 c-1 -2 -2 -18 -4 -35 -2 -29 0 -33 21 -33 13 0 29 -9 36
-20 16 -25 40 -26 63 0 10 11 26 22 36 25 11 4 16 12 12 21 -8 21 -32 17 -52
-8 -24 -29 -44 -15 -36 24 5 21 4 28 -4 24 -6 -4 -11 -14 -11 -22 0 -21 -28
-17 -35 6 -5 16 -22 27 -26 18z"/>
<path d="M0 5791 c0 -28 3 -30 43 -33 l42 -3 5 -145 c7 -191 5 -200 -30 -200
-43 0 -60 -10 -60 -35 0 -21 4 -22 73 -21 l72 1 3 50 c4 63 12 71 53 51 37
-19 112 -21 158 -5 50 18 22 34 -51 31 -71 -4 -116 15 -143 60 -25 44 -14 61
35 53 46 -8 49 -1 20 50 -11 20 -20 47 -20 60 0 31 -14 32 -34 3 -18 -25 -18
-25 -20 52 l-1 55 -72 3 -73 3 0 -30z"/>
<path d="M1977 5804 c-27 -15 -28 -44 0 -44 27 0 9 -35 -20 -38 -31 -4 -34
-14 -12 -32 12 -10 19 -10 27 -2 7 7 22 12 34 12 12 0 29 11 39 26 16 25 16
28 1 36 -9 5 -16 17 -16 27 0 26 -21 31 -53 15z"/>
<path d="M6516 5805 c4 -9 11 -14 16 -13 15 5 11 23 -6 26 -11 2 -14 -2 -10
-13z"/>
<path d="M6527 5762 c-10 -11 -14 -23 -9 -26 12 -7 35 19 30 34 -2 7 -11 3
-21 -8z"/>
<path d="M260 5750 c0 -5 7 -10 15 -10 8 0 15 5 15 10 0 6 -7 10 -15 10 -8 0
-15 -4 -15 -10z"/>
<path d="M6450 5751 c0 -5 7 -11 15 -15 9 -3 15 0 15 9 0 8 -7 15 -15 15 -8 0
-15 -4 -15 -9z"/>
<path d="M1860 5710 c0 -5 7 -10 15 -10 8 0 15 5 15 10 0 6 -7 10 -15 10 -8 0
-15 -4 -15 -10z"/>
<path d="M2672 5704 c2 -11 11 -20 22 -22 13 -3 17 1 14 14 -2 11 -11 20 -22
22 -13 3 -17 -1 -14 -14z"/>
<path d="M330 5694 c0 -3 23 -29 51 -56 l50 -51 -7 -56 -7 -56 21 19 c31 27
21 101 -18 136 -15 14 -32 35 -39 48 -10 19 -51 32 -51 16z"/>
<path d="M6478 5683 c-33 -5 -34 -7 -8 -33 20 -20 20 -26 16 -1416 -2 -768 -8
-1400 -13 -1404 -9 -9 -3164 -35 -3188 -27 -14 6 -15 76 -15 699 l1 693 -230
3 -231 2 0 24 c0 13 7 26 15 30 33 12 12 26 -40 26 -30 0 -55 -2 -55 -5 0 -3
7 -17 16 -30 9 -13 13 -29 9 -35 -4 -6 -84 -10 -225 -10 -137 0 -221 -4 -225
-10 -7 -11 -7 -521 -1 -528 3 -2 105 -4 228 -5 l223 -2 2 -380 c2 -210 -1
-401 -5 -425 l-8 -45 -219 -5 -220 -5 0 -495 0 -495 489 -3 c363 -2 492 1 497
9 4 7 5 111 2 232 -4 177 -2 221 9 228 7 5 201 9 431 9 l417 0 2 -67 c1 -38 0
-123 -1 -191 -2 -123 5 -157 33 -146 8 3 12 26 12 62 0 55 8 117 20 155 4 12
12 16 25 12 22 -7 26 10 4 19 -21 8 -19 56 2 73 13 10 15 16 6 19 -7 3 -13 19
-13 35 0 32 -13 29 145 34 44 2 98 0 120 -4 43 -7 39 2 60 -121 4 -19 9 -42
13 -50 3 -8 7 -37 8 -65 1 -27 6 -67 9 -88 5 -24 3 -42 -5 -52 -10 -12 -9 -16
4 -21 9 -4 20 -4 23 0 4 3 6 94 4 200 -2 180 -1 195 16 199 10 3 113 6 229 6
206 1 212 0 217 -20 3 -11 5 -210 4 -442 l-2 -422 -219 -3 c-125 -1 -225 -7
-231 -12 -18 -15 -16 -476 2 -491 21 -18 43 -2 43 31 0 25 4 30 25 30 14 0 25
5 25 10 0 6 -7 10 -15 10 -26 0 -36 40 -37 148 0 59 0 131 -1 160 0 36 4 57
14 63 8 5 201 8 439 6 l425 -2 3 -190 c2 -113 -1 -198 -7 -210 -10 -19 -20
-106 -20 -168 -1 -15 -6 -38 -13 -50 -7 -12 -13 -35 -15 -52 -7 -79 -12 -107
-22 -119 -7 -8 -11 -27 -9 -43 l3 -28 -105 -8 c-58 -4 -119 -5 -136 -2 -30 5
-31 7 -43 83 -20 135 -23 147 -36 162 -7 8 -13 26 -14 40 0 14 -2 57 -4 95 -4
60 -7 70 -23 70 -18 0 -19 -10 -16 -200 2 -122 -1 -211 -7 -228 l-11 -27 -432
2 -433 3 -5 220 c-5 208 -6 220 -24 220 -19 0 -19 -11 -16 -380 2 -209 4 -417
4 -462 0 -79 1 -83 22 -83 20 0 23 6 29 74 4 41 4 80 -1 87 -4 7 -9 67 -12
135 -4 112 -2 123 15 132 12 7 247 11 648 12 347 1 653 5 680 9 l50 6 0 470 0
470 -220 5 c-121 3 -226 9 -232 13 -10 6 -13 105 -13 437 0 399 1 430 18 438
9 5 311 9 670 10 l652 0 1 -106 c1 -196 10 -356 20 -362 5 -4 78 -6 162 -5 83
1 239 3 345 4 l192 1 0 30 0 30 -319 0 c-176 0 -322 4 -325 9 -3 4 -6 108 -7
230 0 129 -5 223 -10 227 -16 9 -2093 -1 -2934 -15 l-380 -6 0 -225 c0 -124
-4 -231 -8 -238 -6 -9 -104 -12 -433 -12 l-424 0 0 434 c0 386 2 435 16 440 9
3 112 6 230 6 118 0 214 3 214 8 0 4 1 210 3 457 1 248 6 456 10 463 6 9 57
12 197 12 l190 0 2 -457 3 -458 880 1 c1170 0 2396 14 2413 27 9 7 12 306 12
1434 l0 1424 22 8 22 8 -21 12 c-22 11 -26 11 -75 4z m-3270 -1532 c19 -11 19
-411 0 -423 -7 -4 -200 -7 -428 -5 l-415 2 0 210 0 210 385 3 c212 2 387 6
389 8 7 7 55 4 69 -5z"/>
<path d="M2350 5641 c0 -23 14 -41 30 -41 28 0 36 21 15 37 -22 15 -45 17 -45
4z"/>
<path d="M5410 5610 c-162 -4 -613 -8 -1002 -9 -444 0 -709 -5 -713 -11 -3 -5
-5 -209 -4 -452 2 -506 2 -483 -1 -523 -1 -16 -1 -160 -1 -320 1 -159 0 -462
-2 -673 -2 -376 -2 -383 18 -388 11 -2 542 -1 1180 3 l1160 8 3 486 2 486 -37
5 c-21 3 -132 2 -248 -1 l-210 -6 -3 -37 c-2 -20 -10 -42 -18 -48 -25 -21 -15
-30 31 -30 48 0 52 5 30 34 -10 13 -11 24 -4 37 9 18 25 19 214 19 l204 0 6
-32 c3 -18 5 -222 3 -453 l-3 -420 -215 0 -215 0 0 254 c0 195 3 255 13 259
28 9 9 22 -33 22 -47 0 -56 -9 -30 -30 8 -7 15 -19 15 -27 0 -22 -29 -27 -50
-8 -25 23 -40 11 -40 -31 0 -40 24 -56 44 -29 8 11 20 16 30 12 15 -6 16 -29
16 -217 -1 -207 -2 -210 -23 -215 -12 -3 -107 -4 -212 -3 l-190 3 -3 208 c-2
185 -1 208 14 214 9 3 25 1 36 -6 27 -17 36 -7 32 35 -3 46 -9 51 -34 29 -29
-26 -117 -28 -131 -3 -16 29 -39 10 -39 -33 0 -32 3 -39 20 -39 11 0 20 5 20
11 0 6 10 9 23 7 22 -3 22 -3 22 -207 1 -161 -2 -207 -13 -218 -11 -11 -54
-13 -215 -11 l-202 3 -3 185 c-4 215 0 250 28 250 11 0 20 -4 20 -10 0 -5 9
-10 20 -10 17 0 20 7 20 40 0 40 -14 52 -36 30 -6 -6 -33 -13 -61 -17 -43 -5
-54 -2 -73 17 -27 27 -31 23 -34 -29 -4 -48 8 -60 34 -36 11 10 26 15 35 12
13 -6 15 -36 15 -210 0 -144 -3 -206 -12 -215 -17 -17 -404 -17 -414 0 -4 7
-7 102 -7 211 2 199 8 236 35 209 22 -22 46 -14 53 19 9 40 -7 59 -35 41 -39
-24 -69 -5 -39 25 19 19 2 43 -30 43 -34 0 -48 -15 -32 -34 8 -9 11 -93 9
-267 l-3 -254 -203 -3 -202 -2 -11 27 c-13 35 -4 862 10 876 5 5 99 10 208 11
188 1 198 0 201 -18 2 -11 -4 -25 -13 -33 -14 -9 -15 -16 -7 -26 15 -17 92
-10 92 9 0 8 -7 14 -15 14 -12 0 -15 14 -15 64 0 44 5 67 15 76 25 20 17 30
-23 30 -48 0 -55 -6 -36 -35 13 -20 13 -24 -2 -36 -23 -19 -378 -26 -400 -8
-12 9 -14 48 -12 218 l3 206 208 3 c198 2 207 2 207 -17 0 -10 -7 -24 -15 -31
-23 -19 -8 -30 41 -30 46 0 54 9 29 30 -17 14 -22 135 -5 145 22 13 8 25 -30
25 -45 0 -47 -5 -23 -39 28 -41 5 -47 -210 -50 l-195 -2 -8 23 c-4 13 -7 212
-6 442 2 323 5 422 14 428 7 4 101 7 208 5 l195 -2 3 -244 c2 -206 0 -247 -13
-261 -11 -12 -12 -19 -3 -28 15 -15 57 -15 78 -2 13 9 13 12 -2 24 -21 15 -24
42 -5 49 6 2 20 -3 30 -11 21 -19 32 -9 40 35 7 38 -7 51 -32 29 -10 -9 -25
-16 -34 -16 -16 0 -17 19 -15 213 l3 212 210 0 210 0 3 -204 c3 -215 -2 -239
-40 -204 -26 23 -48 9 -48 -31 0 -44 18 -56 41 -28 13 17 28 22 67 22 32 0 54
-5 62 -15 23 -28 40 -18 40 25 0 44 -12 50 -42 23 -12 -11 -22 -13 -28 -7 -6
6 -11 97 -12 215 l-2 204 205 7 c187 7 205 6 217 -10 10 -13 13 -62 11 -197
-1 -99 -4 -188 -6 -197 -5 -20 -39 -24 -45 -6 -8 23 -38 -1 -38 -31 0 -37 16
-48 39 -27 22 20 100 21 127 1 30 -22 34 -18 34 30 0 47 -9 56 -30 30 -18 -22
-39 -18 -45 8 -3 12 -4 108 -3 212 l3 190 210 0 210 0 3 -208 c2 -186 1 -208
-14 -214 -10 -4 -22 0 -29 10 -23 32 -45 14 -45 -39 0 -17 6 -24 19 -24 11 0
23 5 26 10 9 15 35 12 42 -5 3 -9 -2 -24 -11 -34 -20 -22 -12 -31 32 -31 31 0
34 2 27 23 -4 12 -8 132 -9 267 l-1 245 215 0 215 0 2 -432 c1 -238 -1 -434
-5 -437 -13 -8 -407 -10 -420 -2 -11 6 -10 13 4 33 19 30 8 43 -39 43 -32 0
-47 -25 -24 -43 9 -7 17 -25 19 -42 l3 -30 239 -3 c132 -1 244 2 248 6 10 10
11 932 2 941 -8 9 -297 9 -634 1z"/>
<path d="M207 5573 c-4 -3 -7 -16 -7 -28 0 -17 10 -25 40 -35 47 -15 53 -12
44 24 -4 16 -13 26 -24 26 -11 0 -22 5 -25 10 -7 12 -19 13 -28 3z"/>
<path d="M1040 5490 c0 -5 11 -10 24 -10 14 0 28 5 31 10 4 6 -7 10 -24 10
-17 0 -31 -4 -31 -10z"/>
<path d="M1510 5470 c0 -5 7 -10 15 -10 8 0 15 5 15 10 0 6 -7 10 -15 10 -8 0
-15 -4 -15 -10z"/>
<path d="M5284 5454 c-13 -19 -14 -28 -5 -37 10 -9 14 -8 22 6 10 17 63 24 73
9 3 -5 -8 -34 -25 -67 -27 -55 -39 -115 -21 -115 16 0 32 25 32 49 0 29 17 85
37 124 23 43 11 57 -46 57 -43 0 -53 -4 -67 -26z"/>
<path d="M1440 5444 c0 -25 40 -74 60 -74 21 0 80 29 80 39 0 6 -15 11 -34 11
-19 0 -49 11 -70 25 l-36 24 0 -25z"/>
<path d="M4844 5448 c-36 -17 -49 -52 -34 -87 10 -26 10 -33 -4 -46 -38 -39
-2 -95 62 -95 51 0 75 19 75 61 0 18 -5 35 -11 37 -15 5 -15 35 -1 49 16 16
-9 69 -39 82 -12 6 -24 11 -25 10 -1 0 -12 -5 -23 -11z m46 -37 c19 -36 13
-53 -17 -49 -21 2 -29 9 -31 27 -6 38 30 54 48 22z m10 -111 c12 -22 -2 -60
-21 -60 -24 0 -49 22 -49 45 0 37 52 49 70 15z"/>
<path d="M992 5434 c3 -15 11 -18 38 -16 36 4 68 22 38 22 -8 0 -30 3 -48 6
-28 6 -32 4 -28 -12z"/>
<path d="M4364 5442 c-18 -13 -44 -56 -44 -75 0 -29 45 -67 80 -67 34 0 34 0
18 -35 -13 -30 -38 -33 -45 -5 -6 24 -31 27 -39 5 -10 -25 16 -45 56 -45 51 0
72 26 78 95 5 63 -2 97 -24 119 -16 17 -61 21 -80 8z m68 -48 c15 -32 0 -59
-32 -59 -33 0 -47 28 -30 59 17 33 47 33 62 0z"/>
<path d="M1177 5403 c-12 -11 -8 -23 8 -23 18 0 20 -26 3 -36 -6 -4 -16 0 -23
9 -18 26 -25 21 -25 -19 0 -28 4 -35 18 -32 9 1 28 -5 41 -14 24 -17 44 -15
71 7 8 7 23 15 33 18 9 4 17 11 17 17 0 19 -30 23 -55 6 -35 -23 -48 -20 -41
9 5 18 2 27 -9 31 -8 4 -15 12 -15 20 0 15 -12 19 -23 7z"/>
<path d="M1047 5332 c-21 -23 -22 -52 -2 -52 8 0 15 -4 15 -10 0 -5 -11 -10
-24 -10 -29 0 -43 -17 -27 -33 9 -9 16 -8 31 1 10 6 26 9 35 6 17 -7 44 21 45
44 0 16 -38 72 -49 72 -4 0 -15 -8 -24 -18z"/>
<path d="M1480 5270 c-22 -15 42 -72 76 -68 32 4 36 22 6 26 -13 2 -28 14 -34
28 -12 26 -24 29 -48 14z"/>
<path d="M1710 5270 c0 -5 4 -10 9 -10 6 0 13 5 16 10 3 6 -1 10 -9 10 -9 0
-16 -4 -16 -10z"/>
<path d="M1675 5237 c-26 -40 -17 -71 23 -75 35 -4 66 13 56 30 -3 5 -16 7
-29 4 -26 -7 -40 15 -22 33 8 8 8 14 0 22 -8 8 -16 4 -28 -14z"/>
<path d="M31 5158 c0 -31 3 -37 8 -24 7 18 3 66 -5 66 -2 0 -4 -19 -3 -42z"/>
<path d="M16 5084 c-11 -7 -16 -17 -13 -21 4 -4 15 1 24 10 22 21 14 30 -11
11z"/>
<path d="M0 4811 c0 -6 7 -11 15 -11 10 0 15 -10 15 -27 0 -22 2 -25 10 -13 6
10 5 21 -4 34 -15 23 -36 33 -36 17z"/>
<path d="M17 4686 c-9 -7 -17 -18 -17 -25 0 -16 30 -14 36 4 10 24 0 35 -19
21z"/>
<path d="M0 4575 c0 -23 4 -25 39 -25 22 0 43 -5 46 -10 6 -9 9 -177 6 -297
l-1 -43 -45 0 c-43 0 -45 -1 -45 -30 l0 -29 65 2 c36 2 69 7 74 12 6 6 11 30
13 55 3 42 5 45 28 42 61 -9 173 -13 187 -8 13 5 13 9 2 22 -10 12 -24 15 -56
10 -44 -6 -57 5 -27 22 9 5 14 15 10 21 -10 15 -76 42 -87 35 -17 -10 -9 -46
11 -51 23 -6 27 -23 6 -23 -7 0 -28 15 -45 32 -49 50 -31 90 29 64 8 -3 21 -2
28 3 11 6 8 18 -12 54 -14 25 -26 55 -26 66 0 25 -6 26 -28 4 -16 -16 -17 -13
-22 38 l-5 54 -72 3 c-72 3 -73 3 -73 -23z"/>
<path d="M1462 4528 c-13 -13 2 -38 24 -38 26 0 65 20 59 30 -5 8 -11 7 -21
-1 -10 -8 -17 -7 -29 5 -20 19 -18 19 -33 4z"/>
<path d="M3823 4520 c-27 -11 -29 -23 -7 -41 22 -18 15 -120 -9 -147 -25 -28
-21 -32 28 -32 43 0 58 11 34 26 -7 4 -10 40 -7 102 3 100 0 107 -39 92z"/>
<path d="M3964 4516 c-27 -19 -48 -95 -41 -142 15 -89 103 -110 142 -34 21 40
19 129 -3 157 -22 29 -71 39 -98 19z m64 -28 c18 -18 15 -119 -4 -146 -8 -12
-21 -22 -28 -22 -20 0 -35 72 -25 122 4 24 8 46 9 51 0 11 35 8 48 -5z"/>
<path d="M345 4480 c-3 -5 3 -14 14 -19 26 -15 31 -14 25 3 -7 18 -32 28 -39
16z"/>
<path d="M1650 4470 c0 -5 7 -10 15 -10 8 0 15 5 15 10 0 6 -7 10 -15 10 -8 0
-15 -4 -15 -10z"/>
<path d="M1613 4443 c-7 -3 -13 -16 -13 -29 0 -19 9 -29 33 -40 17 -8 40 -20
49 -26 14 -10 21 -9 40 8 13 12 31 24 40 27 11 4 15 12 12 22 -6 14 -8 14 -28
0 -33 -24 -47 -28 -57 -18 -6 6 -2 19 11 36 18 22 19 27 6 27 -9 0 -25 -9 -36
-20 -24 -24 -30 -25 -30 -6 0 18 -11 25 -27 19z"/>
<path d="M420 4408 c0 -18 18 -34 28 -24 3 4 -2 14 -11 23 -16 16 -17 16 -17
1z"/>
<path d="M1524 4405 c-4 -8 -15 -15 -25 -15 -13 0 -16 -5 -12 -16 4 -11 13
-14 29 -10 27 7 30 -1 10 -27 -8 -10 -20 -15 -29 -11 -19 7 -34 -16 -17 -26
24 -15 110 26 110 52 0 13 -42 68 -52 68 -5 0 -11 -7 -14 -15z"/>
<path d="M437 4360 c-9 -25 -14 -90 -5 -90 9 0 21 63 15 87 -3 14 -5 15 -10 3z"/>
<path d="M1617 4040 c-16 -19 -23 -37 -20 -50 4 -13 -1 -26 -12 -34 -16 -12
-15 -16 17 -62 32 -45 38 -49 79 -51 42 -3 45 -1 73 42 26 43 27 49 17 91 -16
64 -46 94 -92 94 -29 0 -43 -7 -62 -30z"/>
<path d="M0 3625 c0 -8 7 -15 16 -15 14 0 14 3 4 15 -7 8 -14 15 -16 15 -2 0
-4 -7 -4 -15z"/>
<path d="M1510 3595 c7 -8 17 -12 22 -9 6 4 5 10 -3 15 -22 14 -33 10 -19 -6z"/>
<path d="M5241 3581 c-7 -5 -10 -14 -6 -21 4 -7 9 -39 12 -72 3 -46 0 -65 -13
-79 -22 -24 -10 -39 31 -39 40 0 54 16 30 34 -15 11 -17 24 -13 80 8 98 -2
122 -41 97z"/>
<path d="M5410 3583 c-8 -2 -21 -6 -28 -9 -11 -3 -10 -8 2 -26 19 -26 23 -148
5 -148 -6 0 -9 -6 -7 -12 3 -7 21 -13 41 -14 36 -1 48 8 27 21 -6 3 -10 48
-10 101 0 52 -3 94 -7 93 -5 0 -15 -3 -23 -6z"/>
<path d="M27 3506 c-4 -10 -5 -21 -2 -24 9 -9 17 6 13 25 -3 17 -4 17 -11 -1z"/>
<path d="M1710 3410 c0 -5 5 -10 10 -10 6 0 10 5 10 10 0 6 -4 10 -10 10 -5 0
-10 -4 -10 -10z"/>
<path d="M1474 3385 c-8 -19 45 -66 70 -62 30 3 31 26 2 37 -17 6 -24 14 -20
25 5 11 -1 15 -20 15 -15 0 -29 -7 -32 -15z"/>
<path d="M1665 3348 c-18 -45 -4 -70 38 -66 39 4 51 35 15 40 -23 4 -25 9 -13
41 13 33 -25 18 -40 -15z"/>
<path d="M4721 2216 c-15 -18 -4 -26 41 -26 28 0 38 4 38 16 0 11 -5 14 -16
10 -8 -3 -24 -2 -34 4 -13 7 -21 6 -29 -4z"/>
<path d="M4330 2205 c-20 -25 -2 -36 52 -31 54 5 67 11 52 25 -18 17 -91 22
-104 6z"/>
<path d="M1461 2197 c-17 -21 9 -39 47 -31 38 8 52 34 18 34 -14 0 -31 2 -39
5 -7 3 -19 0 -26 -8z"/>
<path d="M3767 2184 c-10 -11 3 -24 24 -24 10 0 19 7 19 15 0 15 -31 21 -43 9z"/>
<path d="M4900 2166 c0 -8 -9 -18 -21 -21 -13 -4 -18 -12 -15 -22 3 -8 6 -22
6 -32 0 -9 12 -22 28 -28 15 -7 35 -18 45 -25 15 -11 20 -10 30 3 7 9 22 21
35 28 12 6 22 16 22 21 0 16 -47 11 -54 -5 -6 -18 -36 -9 -36 11 0 8 5 14 10
14 6 0 10 7 10 15 0 8 -7 15 -15 15 -8 0 -15 9 -15 20 0 11 -7 20 -15 20 -8 0
-15 -6 -15 -14z m26 -27 c3 -6 -1 -18 -10 -27 -15 -15 -16 -14 -16 11 0 27 13
36 26 16z"/>
<path d="M1656 2161 c-4 -7 -5 -15 -2 -18 9 -9 19 4 14 18 -4 11 -6 11 -12 0z"/>
<path d="M3963 2143 c-9 -16 -18 -30 -20 -32 -2 -2 -11 3 -21 12 -26 24 -46 8
-32 -27 5 -15 10 -47 10 -71 0 -53 9 -60 56 -45 49 16 91 61 99 104 7 35 6 36
-24 36 -28 0 -31 2 -25 25 9 35 -20 33 -43 -2z m22 -89 c21 -22 2 -47 -29 -38
-30 10 -38 27 -19 42 22 16 28 15 48 -4z"/>
<path d="M3827 2122 c-21 -23 -22 -46 -2 -62 21 -17 51 -5 36 14 -7 8 -9 25
-5 40 7 30 -6 34 -29 8z"/>
<path d="M4325 2132 c-17 -18 -2 -32 35 -32 35 0 40 -3 46 -27 4 -14 2 -33 -3
-42 -13 -21 -53 -27 -53 -8 0 8 -7 20 -15 27 -23 19 -39 -28 -17 -52 23 -27
96 -24 116 4 40 57 7 129 -62 133 -23 1 -44 0 -47 -3z"/>
<path d="M1663 2110 c-6 -23 -23 -27 -23 -5 0 9 -9 15 -21 15 -17 0 -20 -4
-15 -27 3 -16 1 -35 -4 -43 -9 -13 -14 -10 -35 15 l-25 30 -32 -32 c-28 -29
-30 -33 -14 -39 11 -4 22 -1 28 7 7 11 8 9 6 -6 -2 -11 -12 -21 -23 -23 -28
-5 -36 -15 -25 -32 8 -12 13 -13 29 -3 10 6 28 9 39 6 17 -4 25 2 39 31 13 28
22 36 44 36 15 0 35 -8 44 -17 14 -13 20 -14 34 -4 9 6 28 19 43 29 30 18 37
42 14 42 -8 0 -21 -7 -30 -15 -16 -17 -42 -20 -51 -6 -3 5 -1 12 5 16 15 9 12
32 -6 39 -11 4 -18 -1 -21 -14z"/>
<path d="M4772 2077 c-28 -29 -28 -41 -1 -34 13 3 19 1 16 -6 -2 -7 -18 -13
-35 -15 -20 -2 -32 -9 -32 -18 0 -37 93 -23 117 17 15 24 15 28 -3 52 -24 33
-35 33 -62 4z"/>
<path d="M4662 1998 c6 -18 28 -21 28 -4 0 9 -7 16 -16 16 -9 0 -14 -5 -12
-12z"/>
<path d="M4070 1991 c0 -5 6 -14 14 -20 16 -13 32 2 21 19 -8 12 -35 13 -35 1z"/>
<path d="M3760 1915 c0 -21 28 -31 43 -16 9 9 8 14 -3 21 -22 14 -40 12 -40
-5z"/>
<path d="M4406 1758 c-11 -18 -32 -49 -48 -69 -40 -52 -37 -69 11 -69 37 0 40
-2 38 -27 -2 -25 2 -28 28 -28 27 0 29 3 31 40 1 22 -3 45 -8 52 -5 7 -9 39
-9 73 0 69 -14 78 -43 28z m2 -85 c-4 -32 -38 -46 -38 -16 0 20 18 43 33 43 4
0 7 -12 5 -27z"/>
<path d="M4701 1723 c0 -10 14 -29 30 -42 28 -22 33 -23 70 -11 47 16 46 34
-3 35 -19 1 -46 9 -59 18 -30 22 -39 21 -38 0z"/>
<path d="M3790 1716 c0 -20 26 -27 58 -15 25 10 26 12 7 19 -32 14 -65 11 -65
-4z"/>
<path d="M0 1665 c0 -8 5 -15 10 -15 6 0 10 7 10 15 0 8 -4 15 -10 15 -5 0
-10 -7 -10 -15z"/>
<path d="M3947 1653 c-4 -3 -7 -19 -7 -35 0 -19 5 -28 16 -28 9 0 27 -11 40
-25 13 -14 27 -25 31 -25 16 1 84 71 78 80 -10 16 -31 12 -50 -10 -26 -29 -35
-25 -35 15 0 19 -4 35 -10 35 -5 0 -10 -9 -10 -20 0 -11 -5 -20 -11 -20 -6 0
-13 9 -16 20 -5 21 -15 25 -26 13z"/>
<path d="M3852 1607 c-26 -27 -28 -47 -6 -47 26 0 9 -25 -19 -28 -15 -2 -27
-10 -27 -18 0 -13 13 -19 35 -14 6 1 18 4 29 6 23 4 46 23 46 38 0 23 -21 86
-29 86 -4 0 -17 -10 -29 -23z"/>
<path d="M4747 1543 c-11 -11 -8 -22 13 -43 21 -21 80 -28 80 -10 0 6 -7 10
-15 10 -8 0 -22 11 -31 25 -16 25 -34 32 -47 18z"/>
<path d="M3740 1515 c0 -8 5 -15 10 -15 6 0 10 7 10 15 0 8 -4 15 -10 15 -5 0
-10 -7 -10 -15z"/>
<path d="M4926 1496 c-10 -42 2 -57 43 -54 25 2 37 8 39 21 3 13 -2 16 -20 15
-17 -2 -24 3 -26 20 -4 29 -28 28 -36 -2z"/>
<path d="M3413 1368 c-61 -68 -58 -157 8 -197 34 -21 57 -18 88 10 44 41 8
119 -55 119 -39 0 -46 21 -17 52 16 18 17 18 40 -4 18 -17 26 -19 35 -10 20
20 -4 47 -43 50 -26 2 -40 -3 -56 -20z m72 -129 c10 -30 -19 -58 -43 -43 -37
24 -20 94 18 74 10 -6 22 -19 25 -31z"/>
<path d="M2460 1290 c0 -5 9 -10 20 -10 11 0 20 5 20 10 0 6 -9 10 -20 10 -11
0 -20 -4 -20 -10z"/>
<path d="M2836 1263 c-10 -11 -7 -21 20 -52 29 -35 75 -41 109 -15 17 13 18
16 5 24 -8 5 -26 10 -40 10 -14 0 -39 9 -57 19 -17 11 -34 17 -37 14z"/>
<path d="M2394 1249 c-3 -6 0 -18 9 -26 20 -20 70 -5 76 23 3 16 1 16 -12 5
-12 -9 -21 -10 -36 -2 -25 14 -28 14 -37 0z"/>
<path d="M4720 1230 c0 -5 5 -10 10 -10 6 0 10 5 10 10 0 6 -4 10 -10 10 -5 0
-10 -4 -10 -10z"/>
<path d="M1450 1204 c0 -9 7 -14 17 -12 25 5 28 28 4 28 -12 0 -21 -6 -21 -16z"/>
<path d="M4900 1199 c-9 -16 -17 -19 -41 -14 -26 6 -29 4 -29 -19 0 -13 4 -27
9 -30 4 -3 6 -28 3 -56 -5 -57 1 -61 66 -34 38 15 82 67 97 115 7 21 5 22 -30
16 -35 -6 -37 -5 -31 18 5 20 3 25 -13 25 -11 0 -25 -9 -31 -21z m29 -88 c12
-22 5 -31 -26 -31 -27 0 -42 28 -22 41 22 14 37 11 48 -10z"/>
<path d="M2590 1200 c-12 -7 -12 -12 3 -28 21 -23 22 -32 2 -32 -8 0 -15 9
-15 20 0 20 -24 28 -34 11 -3 -5 -3 -23 0 -40 5 -24 12 -31 29 -31 13 0 25 -7
29 -15 9 -24 38 -17 81 19 38 33 39 33 17 45 -18 10 -23 8 -34 -9 -7 -11 -21
-20 -30 -20 -21 0 -22 4 -6 29 9 15 8 22 -8 39 -13 14 -24 18 -34 12z"/>
<path d="M1639 1179 c-8 -15 -16 -19 -32 -14 -67 21 -117 3 -117 -40 0 -27 32
-50 57 -41 14 6 14 8 -1 25 -16 17 -13 51 4 51 16 0 25 -25 30 -85 l5 -60 40
2 c30 2 48 12 77 40 21 20 38 46 38 58 0 12 6 27 13 34 10 11 4 12 -32 7 -43
-6 -43 -6 -37 19 5 20 3 25 -13 25 -11 0 -25 -9 -32 -21z m29 -81 c21 -21 13
-38 -18 -38 -22 0 -30 5 -30 18 0 32 25 43 48 20z"/>
<path d="M4756 1174 c-19 -18 -19 -20 -6 -45 6 -10 20 -19 32 -19 16 0 19 4
14 23 -3 12 -6 30 -6 40 0 21 -14 22 -34 1z"/>
<path d="M2102 1134 c-48 -50 -50 -67 -6 -72 16 -2 36 -9 44 -17 8 -7 31 -18
52 -25 32 -12 40 -11 62 4 28 18 31 33 16 86 -11 40 -52 70 -97 70 -21 0 -40
-12 -71 -46z"/>
<path d="M2448 1136 c-22 -16 -24 -56 -3 -56 24 0 17 -19 -10 -26 -14 -3 -25
-13 -25 -21 0 -23 81 -7 102 20 21 26 22 34 6 52 -7 8 -19 21 -26 30 -15 18
-22 18 -44 1z"/>
<path d="M2893 1073 c-22 -8 -14 -31 16 -52 34 -25 61 -27 61 -6 0 8 -6 15
-13 15 -8 0 -19 11 -25 25 -12 25 -17 28 -39 18z"/>
<path d="M3070 1024 c-15 -45 -4 -58 44 -49 39 8 51 26 14 22 -24 -2 -27 11
-13 46 5 13 2 17 -13 17 -15 0 -24 -10 -32 -36z"/>
<path d="M5010 1050 c0 -5 7 -10 15 -10 8 0 15 5 15 10 0 6 -7 10 -15 10 -8 0
-15 -4 -15 -10z"/>
<path d="M1760 1030 c0 -5 5 -10 10 -10 6 0 10 5 10 10 0 6 -4 10 -10 10 -5 0
-10 -4 -10 -10z"/>
<path d="M5306 1018 c-9 -5 -16 -16 -16 -23 0 -17 16 -20 25 -5 3 6 17 10 31
10 14 0 23 4 20 9 -9 14 -42 19 -60 9z"/>
<path d="M1442 959 c2 -7 10 -15 17 -17 8 -3 12 1 9 9 -2 7 -10 15 -17 17 -8
3 -12 -1 -9 -9z"/>
<path d="M5300 957 c0 -19 16 -31 24 -18 3 5 -1 14 -9 21 -12 10 -15 10 -15
-3z"/>
<path d="M5354 912 c19 -37 7 -57 -30 -48 -27 6 -28 5 -10 -9 25 -19 36 -19
52 3 19 24 17 69 -2 76 -25 9 -25 8 -10 -22z"/>
<path d="M2867 794 c-12 -12 6 -34 27 -34 31 0 39 11 18 26 -19 15 -35 17 -45
8z"/>
<path d="M3903 761 c-50 -31 -55 -89 -7 -79 14 2 18 11 16 31 -3 22 1 27 17
27 11 0 25 -9 31 -21 12 -21 -2 -52 -37 -87 -14 -15 -17 -32 -5 -32 4 0 24 15
45 33 50 42 54 89 11 124 -35 28 -32 27 -71 4z"/>
<path d="M5300 760 c-22 -22 -24 -50 -3 -57 7 -3 18 7 24 21 15 32 35 34 45 4
5 -16 0 -27 -17 -41 l-23 -19 23 -17 c30 -23 26 -65 -6 -69 -18 -3 -23 2 -23
17 0 14 -6 21 -20 21 -15 0 -20 -7 -20 -26 0 -50 92 -65 122 -20 13 19 9 73
-7 86 -14 11 -14 15 1 38 15 23 15 26 -3 51 -26 34 -65 39 -93 11z"/>
<path d="M3060 720 c0 -16 -4 -30 -10 -30 -5 0 -9 5 -7 12 1 6 -6 14 -15 16
-15 3 -18 -3 -18 -33 0 -34 2 -37 24 -31 16 4 29 0 41 -14 24 -27 36 -25 70
10 34 35 28 49 -10 24 -31 -20 -57 -6 -36 20 10 12 8 19 -8 35 -28 28 -31 27
-31 -9z"/>
<path d="M2922 677 c-27 -29 -27 -33 1 -41 21 -6 20 -7 -11 -21 -45 -20 -37
-41 14 -37 27 2 45 11 61 30 l22 26 -25 22 c-13 13 -24 28 -24 34 0 17 -15 12
-38 -13z"/>
<path d="M3870 576 c-19 -24 6 -37 66 -34 50 3 59 6 62 23 2 18 -3 20 -58 21
-33 0 -64 -4 -70 -10z"/>
<path d="M4700 357 c0 -7 16 -28 35 -47 31 -30 37 -32 66 -24 45 13 47 30 4
37 -19 3 -48 15 -64 26 -34 24 -41 26 -41 8z"/>
<path d="M4267 353 c-4 -3 -7 -12 -7 -20 0 -14 45 -18 74 -7 23 9 20 27 -3 19
-11 -3 -22 -1 -26 5 -7 11 -28 13 -38 3z"/>
<path d="M3336 341 c-12 -19 4 -31 39 -31 29 0 54 14 44 25 -11 11 -78 15 -83
6z"/>
<path d="M2853 308 c2 -7 12 -13 22 -13 10 0 20 6 23 13 2 7 -6 12 -23 12 -17
0 -25 -5 -22 -12z"/>
<path d="M3046 275 c-25 -23 -31 -25 -60 -14 -58 21 -119 -27 -86 -66 21 -25
40 -18 40 15 0 22 5 30 18 30 19 0 49 -53 32 -58 -15 -5 -12 -49 5 -66 17 -17
31 -14 90 20 28 16 45 35 54 59 16 44 7 58 -30 50 -22 -5 -29 -3 -29 9 0 8 5
18 10 21 6 3 10 10 10 16 0 17 -27 9 -54 -16z m24 -90 c12 -15 7 -45 -8 -45
-20 0 -45 28 -39 44 8 20 31 21 47 1z"/>
<path d="M3520 290 c0 -5 5 -10 10 -10 6 0 10 -11 10 -25 0 -30 -16 -33 -23
-4 -8 31 -43 21 -39 -11 4 -41 10 -50 36 -50 13 0 26 -7 30 -15 8 -21 40 -19
61 5 10 11 26 20 37 20 10 0 18 7 18 15 0 18 -50 16 -57 -2 -7 -17 -43 -17
-43 0 0 7 7 22 15 34 14 20 13 22 -16 37 -38 19 -39 19 -39 6z"/>
<path d="M3943 290 c-26 -10 -29 -20 -12 -37 14 -14 18 -131 5 -155 -7 -16 -3
-18 34 -18 36 0 41 2 35 18 -20 49 -24 83 -19 140 7 67 4 71 -43 52z"/>
<path d="M4433 283 c-28 -19 -32 -71 -5 -79 9 -3 31 -12 48 -20 29 -14 33 -14
72 12 23 15 39 31 36 36 -8 13 -40 9 -54 -7 -7 -8 -19 -15 -27 -15 -11 0 -13
7 -8 31 5 23 3 34 -12 44 -22 18 -23 18 -50 -2z m29 -35 c-15 -15 -26 -4 -18
18 5 13 9 15 18 6 9 -9 9 -15 0 -24z"/>
<path d="M4318 219 c-33 -32 -35 -39 -8 -39 20 0 29 -19 10 -21 -5 -1 -16 -2
-22 -3 -7 0 -14 -9 -16 -18 -2 -13 3 -18 17 -18 12 0 21 4 21 9 0 5 9 7 21 4
13 -4 27 2 40 16 20 22 20 51 -1 51 -5 0 -10 6 -10 14 0 29 -25 32 -52 5z"/>
<path d="M3384 206 c-27 -27 -21 -51 8 -35 18 10 20 9 15 -6 -4 -9 -7 -19 -7
-21 0 -2 -12 -1 -26 2 -22 6 -25 4 -22 -12 6 -28 66 -21 98 12 22 22 23 26 9
37 -8 7 -18 20 -22 30 -8 22 -27 20 -53 -7z"/>
<path d="M4754 158 c-9 -14 40 -58 67 -58 25 0 24 12 -1 28 -11 7 -20 19 -20
27 0 18 -36 20 -46 3z"/>
<path d="M4954 139 c-37 -46 -19 -84 35 -73 35 7 44 35 9 31 -17 -1 -23 4 -28
27 -4 24 -7 26 -16 15z"/>
<path d="M2840 46 c0 -15 27 -29 40 -21 5 3 7 12 3 20 -7 19 -43 20 -43 1z"/>
</g>
</svg>
