<?xml version="1.0" standalone="no"?>
<!DOCTYPE svg PUBLIC "-//W3C//DTD SVG 20010904//EN"
 "http://www.w3.org/TR/2001/REC-SVG-20010904/DTD/svg10.dtd">
<svg version="1.0" xmlns="http://www.w3.org/2000/svg"
 width="636.000000pt" height="616.000000pt" viewBox="0 0 636.000000 616.000000"
 preserveAspectRatio="xMidYMid meet">
<metadata>
Created by potrace 1.16, written by Peter Selinger 2001-2019
</metadata>
<g transform="translate(0.000000,616.000000) scale(0.100000,-0.100000)"
fill="#000000" stroke="none">
<path d="M3360 5968 c-2 -799 1 -1493 6 -1497 3 -3 483 -6 1067 -6 584 0 1068
-4 1075 -8 9 -6 12 -223 12 -1028 0 -964 -1 -1019 -17 -1019 -642 -4 -764 -3
-773 6 -7 7 -9 74 -8 180 l3 169 215 5 215 5 3 654 c1 425 -1 658 -8 665 -12
12 -1320 18 -1339 6 -10 -6 -13 -148 -12 -659 0 -359 3 -656 6 -661 4 -6 89
-10 204 -10 163 0 201 -3 211 -15 9 -10 12 -61 11 -176 0 -88 -4 -165 -7 -170
-6 -10 -1197 -9 -1213 0 -5 4 -12 671 -17 1576 -4 864 -8 1625 -8 1692 -1 80
-5 126 -13 134 -9 9 -274 12 -1108 11 -603 0 -1099 -3 -1101 -5 -7 -7 -2
-3030 5 -3267 l6 -205 213 -3 212 -2 0 -623 c0 -360 4 -628 9 -637 8 -12 104
-14 681 -13 370 1 674 4 676 6 2 2 5 193 5 424 l1 420 52 5 c96 9 298 1 307
-13 4 -7 8 -197 9 -423 0 -225 3 -412 5 -414 3 -3 538 -5 847 -2 l67 0 3 419
c2 231 5 422 9 425 3 3 81 7 173 9 132 3 171 0 182 -10 11 -11 13 -122 11
-616 l-2 -602 -204 -3 c-127 -1 -209 -6 -217 -13 -10 -9 -13 -84 -13 -345 l0
-334 33 0 33 0 -1 298 c-1 214 2 303 11 313 9 11 50 14 204 13 160 -1 198 1
217 14 19 12 28 13 43 4 32 -20 39 -14 39 33 0 49 -11 56 -42 28 -12 -11 -22
-13 -28 -7 -6 6 -10 252 -10 647 l-1 637 -22 5 c-36 7 -905 1 -913 -8 -18 -18
20 -22 219 -27 l212 -5 3 -403 c1 -221 -1 -402 -5 -402 -19 -2 -608 -2 -695
-1 l-98 1 0 420 c0 329 -3 420 -12 421 -7 1 -106 2 -220 3 -151 1 -210 4 -219
13 -10 10 -10 16 -1 25 24 24 13 38 -28 38 -28 0 -40 -4 -40 -14 0 -8 5 -18
10 -21 6 -4 10 -163 10 -446 l0 -439 -32 0 c-18 0 -291 -1 -606 -1 -314 -1
-574 0 -576 2 -2 2 -6 276 -7 609 l-3 605 39 5 c54 7 367 3 405 -5 30 -6 30
-6 30 34 0 43 -8 49 -40 29 -15 -10 -22 -10 -32 0 -9 9 -8 15 7 25 26 20 10
37 -36 37 -42 0 -49 -12 -23 -41 16 -17 15 -19 -10 -29 -32 -12 -762 -14 -770
-2 -2 4 -6 188 -7 407 l-2 400 394 0 394 0 3 -214 c3 -192 1 -215 -15 -233
-15 -17 -15 -21 -3 -28 22 -14 66 -12 79 4 10 11 9 16 -3 23 -13 7 -16 46 -16
266 -1 181 2 263 10 272 18 22 3 35 -41 35 -32 0 -39 -4 -39 -19 0 -11 5 -21
12 -23 6 -2 9 -12 5 -21 -6 -16 -39 -17 -386 -17 -209 0 -382 4 -385 8 -6 10
-12 779 -6 785 3 3 181 7 395 8 l390 3 0 -209 c0 -150 -4 -216 -13 -234 -15
-28 -2 -43 33 -39 19 3 20 11 21 276 1 188 5 277 13 285 24 24 12 37 -34 37
-33 0 -45 -4 -45 -14 0 -8 5 -18 10 -21 6 -3 10 -15 10 -26 0 -18 -11 -19
-389 -19 -365 0 -389 1 -393 18 -3 10 -5 191 -4 402 l1 385 384 3 c225 1 389
-2 394 -7 5 -5 11 -103 13 -217 2 -182 1 -209 -13 -219 -39 -29 24 -62 67 -35
12 7 12 13 1 33 -20 37 -22 507 -3 530 19 23 6 37 -33 37 -38 0 -52 -14 -35
-35 6 -8 10 -21 8 -30 -3 -14 -48 -16 -390 -18 l-387 -2 -5 30 c-11 63 -10
753 1 767 9 10 90 13 395 13 l383 0 3 -224 c2 -193 0 -226 -13 -242 -20 -21
-6 -32 42 -36 41 -2 45 4 28 53 -10 28 -14 93 -15 231 0 105 3 198 6 207 5 14
31 16 189 16 156 0 185 -2 196 -16 11 -14 10 -18 -5 -30 -27 -19 -13 -44 24
-44 35 0 49 22 29 46 -11 14 -10 18 6 30 16 12 88 14 415 12 l395 -3 0 -400 0
-400 -399 -3 c-250 -1 -403 1 -410 8 -5 5 -10 104 -11 232 -2 184 0 226 12
240 8 9 12 22 8 27 -8 14 -45 14 -65 1 -12 -8 -13 -13 -2 -30 16 -26 17 -531
1 -562 -6 -11 -9 -21 -7 -22 11 -10 55 -14 67 -6 12 7 12 12 -2 34 -12 17 -13
27 -6 32 18 11 799 10 810 -1 11 -11 13 -795 2 -795 -5 0 -189 -3 -410 -6
l-403 -7 0 231 c0 136 4 233 10 237 18 11 -2 35 -30 35 -30 0 -43 -18 -29 -41
13 -22 12 -512 -2 -526 -19 -19 -2 -43 31 -43 35 0 49 22 29 46 -10 13 -10 17
2 25 8 5 183 8 409 6 l395 -2 0 -400 0 -400 -405 0 -405 0 -3 224 c-2 152 1
228 9 237 16 20 2 34 -37 34 -33 0 -48 -20 -24 -35 14 -8 14 -532 0 -540 -6
-3 -10 -13 -10 -21 0 -10 12 -14 39 -14 45 0 58 12 36 30 -8 7 -15 19 -15 26
0 12 50 14 288 15 158 0 340 2 404 4 65 2 120 0 122 -3 7 -12 20 -479 18 -642
-1 -90 -7 -159 -13 -165 -15 -15 -773 -16 -794 -1 -22 17 -31 415 -10 457 14
26 14 29 -5 39 -39 21 -88 -8 -61 -35 11 -11 17 -452 7 -462 -4 -4 -16 -2 -27
5 -27 17 -39 7 -39 -35 0 -32 2 -35 23 -28 12 4 124 9 249 11 225 3 257 -1
229 -29 -6 -6 -11 -19 -11 -29 0 -14 8 -18 34 -18 39 0 53 14 36 35 -7 8 -10
21 -7 29 8 21 356 22 396 1 26 -13 120 -15 682 -15 642 1 654 1 675 21 20 19
23 19 38 4 25 -25 46 -11 46 29 0 42 -15 54 -39 32 -37 -33 -41 -22 -42 122
-2 229 -4 259 -16 273 -15 19 -24 213 -15 319 l7 85 199 2 c110 1 203 6 207
10 10 10 14 427 4 442 -9 16 -437 15 -453 -1 -9 -9 -12 -86 -12 -286 0 -179
-3 -271 -10 -267 -5 3 -10 20 -10 36 0 16 -7 45 -14 64 l-15 35 -100 0 c-66 0
-101 -4 -101 -11 0 -7 31 -10 93 -8 86 3 92 2 92 -16 0 -18 -8 -20 -107 -23
l-108 -3 0 31 c0 24 -4 31 -17 28 -12 -2 -21 -23 -32 -71 -8 -37 -19 -67 -23
-67 -4 0 -8 207 -8 459 0 370 3 460 13 464 21 8 1181 7 1194 -1 9 -6 13 -158
15 -607 l3 -600 -210 -5 -210 -5 -3 -200 c-2 -203 -9 -239 -37 -201 -22 30
-45 13 -45 -34 0 -33 3 -40 20 -40 11 0 20 5 20 10 0 15 40 12 46 -3 7 -19
898 -17 916 1 7 7 12 38 12 69 -2 620 -14 2087 -18 2091 -4 3 -484 6 -1069 6
-584 1 -1068 5 -1074 9 -10 6 -13 55 -13 186 0 131 3 181 13 188 20 15 404 8
423 -8 19 -16 34 2 34 43 0 35 -16 44 -41 22 -17 -15 -40 -17 -211 -15 -117 1
-198 6 -205 13 -10 8 -13 136 -13 604 l0 594 -30 0 -30 0 0 -192z m1285 -2328
c3 -5 6 -89 7 -186 1 -142 -1 -177 -13 -185 -8 -5 -92 -8 -187 -8 -150 1 -173
3 -180 17 -10 20 -17 347 -7 361 8 14 371 15 380 1z m-486 -474 c7 -8 9 -25 5
-40 -3 -15 -2 -26 4 -26 16 0 23 -30 12 -50 -8 -15 -6 -21 10 -30 27 -14 26
-55 -2 -74 l-22 -16 27 0 c27 0 28 -2 25 -47 l-3 -48 -175 0 -175 0 -3 39 c-3
28 1 42 13 49 12 6 15 17 10 38 -4 18 -1 36 9 50 13 19 13 24 0 45 -14 21 -14
23 8 35 32 16 31 15 18 39 -9 16 -9 25 1 36 16 20 221 20 238 0z"/>
<path d="M4041 3098 c-11 -18 -34 -52 -51 -75 -35 -46 -34 -73 1 -73 17 0 20
4 16 22 -6 23 8 58 23 58 5 0 8 -28 7 -62 l-2 -63 34 -3 34 -3 -8 68 c-5 37
-9 88 -9 112 -1 55 -19 63 -45 19z"/>
<path d="M4648 5558 l-3 -603 -224 -3 c-195 -2 -226 0 -242 14 -25 23 -39 9
-39 -37 0 -43 7 -46 50 -24 24 13 94 14 463 12 240 -1 439 1 443 6 18 17 -19
22 -201 27 -106 3 -196 8 -199 11 -3 3 -7 274 -8 602 -2 563 -4 597 -20 597
-17 0 -18 -34 -20 -602z"/>
<path d="M5942 5560 c3 -648 5 -628 -47 -615 -11 2 -106 5 -212 5 -157 0 -194
3 -207 15 -24 25 -36 17 -36 -24 0 -44 13 -59 35 -41 16 13 450 19 462 7 11
-12 3 -1320 -9 -1334 -6 -7 -7 -20 -4 -29 4 -9 2 -22 -4 -29 -13 -16 -2 -65
15 -65 17 0 45 -33 45 -53 0 -18 -25 -23 -35 -7 -10 17 -25 11 -25 -10 0 -11
4 -20 8 -20 5 0 9 -15 10 -32 12 -237 14 -462 16 -1258 l1 -935 -387 -2 c-309
-2 -389 1 -397 11 -8 9 -10 134 -9 407 l3 394 192 5 c105 3 195 9 199 13 24
24 -42 28 -448 24 -234 -3 -431 -8 -437 -11 -8 -5 -11 -197 -11 -641 0 -375
-4 -636 -9 -640 -5 -3 -16 2 -24 10 -29 28 -47 19 -47 -24 0 -46 14 -60 39
-37 24 22 30 20 41 -10 8 -20 15 -25 33 -21 17 5 335 11 395 8 9 -1 12 -70 12
-311 l0 -310 30 0 30 0 0 339 c0 190 -4 342 -9 345 -5 3 -99 6 -210 7 -110 0
-203 4 -206 9 -3 4 -7 279 -10 609 l-6 601 25 9 c22 9 316 5 344 -4 9 -3 12
-96 12 -419 0 -314 3 -417 12 -422 19 -12 879 -11 895 1 11 8 13 193 16 1065
l2 1055 168 3 167 2 0 30 0 30 -180 0 c-155 0 -181 2 -187 16 -3 8 -1 20 5 26
6 6 8 23 5 38 -3 15 0 31 6 34 15 9 14 49 -1 64 -7 7 -22 12 -34 12 -29 0 -38
14 -24 40 8 14 17 19 33 15 21 -6 23 -2 24 29 1 20 -3 39 -8 42 -5 3 -9 14 -9
25 0 18 9 19 185 19 l185 0 0 29 c0 37 -20 41 -197 41 -98 0 -135 3 -138 13
-4 13 -15 1511 -15 2090 l0 367 -36 0 -36 0 4 -600z"/>
<path d="M3990 5735 c0 -3 9 -14 20 -25 26 -26 25 -36 -5 -64 l-25 -24 25 -16
c27 -18 32 -45 13 -64 -19 -19 -37 -14 -44 14 -8 33 -39 28 -39 -6 0 -57 94
-62 125 -7 14 25 13 30 -3 59 -12 22 -15 34 -7 42 16 16 12 61 -8 79 -17 16
-52 24 -52 12z"/>
<path d="M3952 5718 c-7 -7 -12 -20 -12 -31 0 -30 34 -16 38 16 4 29 -6 35
-26 15z"/>
<path d="M980 5270 c-13 -8 -13 -13 -2 -30 14 -22 14 -148 0 -156 -15 -10 -8
-32 12 -37 25 -6 60 2 60 15 0 5 -7 17 -16 25 -13 13 -15 31 -10 90 7 99 -3
119 -44 93z"/>
<path d="M5138 4955 c-16 -13 -28 -26 -28 -28 0 -10 59 -29 69 -22 12 7 14 35
5 59 -8 21 -14 20 -46 -9z"/>
<path d="M2709 4805 c-35 -19 -52 -58 -35 -81 16 -22 38 -10 34 19 -4 31 9 46
32 40 15 -4 20 -14 20 -38 0 -34 -18 -61 -74 -115 -15 -16 -25 -33 -22 -39 4
-6 36 -11 72 -11 62 0 64 1 64 26 0 21 -3 25 -17 19 -38 -16 -50 -16 -62 -1
-9 10 -10 16 -3 16 6 0 27 16 47 35 45 46 48 93 9 124 -31 24 -31 24 -65 6z"/>
<path d="M0 2447 c0 -70 2 -77 20 -77 23 0 25 19 9 88 -19 76 -29 72 -29 -11z"/>
<path d="M1838 2283 c-10 -2 -18 -13 -18 -24 0 -16 5 -18 48 -13 51 7 68 16
58 33 -7 11 -54 13 -88 4z"/>
<path d="M1820 2190 c0 -18 4 -21 22 -17 35 9 58 -9 58 -47 0 -56 -54 -77 -62
-24 -4 27 -31 31 -36 5 -10 -51 78 -77 118 -35 41 44 12 128 -45 128 -13 0
-30 3 -39 6 -12 4 -16 0 -16 -16z"/>
<path d="M0 1156 c0 -336 2 -397 14 -387 24 20 48 99 44 144 -3 23 1 53 8 68
19 37 54 182 54 221 0 18 -9 47 -20 63 -11 17 -20 38 -20 48 0 11 -7 31 -15
45 -8 15 -21 60 -29 101 -31 155 -36 110 -36 -303z"/>
</g>
</svg>
