<?xml version="1.0" standalone="no"?>
<!DOCTYPE svg PUBLIC "-//W3C//DTD SVG 20010904//EN"
 "http://www.w3.org/TR/2001/REC-SVG-20010904/DTD/svg10.dtd">
<svg version="1.0" xmlns="http://www.w3.org/2000/svg"
 width="436.000000pt" height="500.000000pt" viewBox="0 0 436.000000 500.000000"
 preserveAspectRatio="xMidYMid meet">
<metadata>
Created by potrace 1.16, written by Peter Selinger 2001-2019
</metadata>
<g transform="translate(0.000000,500.000000) scale(0.100000,-0.100000)"
fill="#000000" stroke="none">
<path d="M1583 4646 c5 -317 3 -355 -11 -361 -8 -3 -347 -5 -751 -5 -405 0
-755 1 -778 0 l-43 0 0 -45 0 -45 323 -2 c367 -2 385 -3 391 -9 7 -7 17 -1625
10 -1643 -5 -14 -45 -16 -365 -16 l-359 0 0 -50 0 -50 359 0 c278 0 360 -3
364 -12 2 -7 4 -182 3 -388 l-1 -375 -362 -3 -363 -2 0 -48 0 -47 357 -3 c196
-2 360 -5 365 -8 4 -3 8 -349 8 -770 l0 -764 45 0 45 0 0 770 0 770 28 0 c265
5 1589 -3 1595 -9 5 -5 8 -351 8 -770 l-1 -761 45 0 45 0 2 768 3 767 486 3
486 2 9 -32 c7 -23 16 -33 29 -33 19 0 20 7 20 105 0 101 -1 105 -22 108 -13
2 -24 -1 -24 -7 -6 -53 13 -51 -488 -51 -358 0 -471 3 -484 12 -16 12 -17 71
-15 838 l3 825 185 0 c102 -1 321 -2 488 -3 l302 -2 0 -24 c0 -29 22 -49 44
-40 13 5 16 21 15 88 -1 117 -6 136 -35 136 -20 0 -24 -5 -24 -30 l0 -30 -484
0 c-320 0 -487 3 -491 10 -7 11 -14 670 -15 1268 l0 322 -45 0 -45 0 -2 -357
-3 -358 -369 -3 c-204 -1 -373 1 -377 5 -4 5 -9 167 -11 360 l-3 353 -48 0
-49 0 5 -354z m852 -468 c7 -7 10 -1647 3 -1654 -8 -7 -927 -6 -940 2 -4 3 -8
13 -8 23 0 29 -26 46 -45 31 -13 -11 -15 -34 -13 -119 3 -101 4 -106 25 -109
18 -3 24 3 31 30 7 29 12 33 46 36 21 2 43 -1 49 -7 8 -8 10 -160 7 -754 0
-16 -23 -17 -382 -15 l-383 3 -5 365 c-3 201 -2 375 2 388 7 20 14 23 50 20
36 -3 43 -7 48 -28 4 -18 12 -25 30 -25 25 0 25 1 28 106 2 92 0 107 -14 113
-22 9 -44 -11 -44 -40 0 -22 -4 -24 -44 -24 -25 0 -47 3 -49 8 -6 9 -19 1647
-13 1653 5 5 1616 2 1621 -3z m1 -1770 c5 -7 10 -180 12 -385 l4 -373 -23 -9
c-19 -6 -458 -8 -716 -2 l-33 1 0 383 c0 211 3 387 7 390 3 4 172 7 374 7 279
0 370 -3 375 -12z"/>
<path d="M1031 4008 c-11 -18 -32 -48 -47 -65 -30 -38 -26 -63 11 -63 27 0 32
9 13 28 -9 9 -9 17 2 36 20 39 29 22 27 -52 -1 -65 -1 -67 23 -67 20 0 26 7
31 35 4 19 3 42 -2 52 -5 9 -9 42 -9 72 0 66 -17 74 -49 24z"/>
<path d="M4189 4938 c-1 -35 0 -391 0 -792 1 -529 -2 -732 -10 -742 -27 -32
-99 -9 -99 32 0 21 -4 25 -22 22 -22 -3 -23 -7 -23 -113 l0 -110 25 0 c20 0
26 6 30 30 4 26 10 30 41 33 22 2 40 -2 47 -11 9 -11 11 -219 10 -833 l-3
-819 -47 -3 c-44 -3 -46 -2 -53 28 -5 25 -11 31 -28 28 -21 -3 -22 -8 -22
-108 l0 -105 25 0 c20 0 26 6 28 27 3 26 7 28 47 28 24 0 46 -4 50 -9 3 -5 6
-350 6 -765 l0 -756 45 0 44 0 1 188 c1 103 1 842 0 1642 -1 800 -1 1795 -1
2210 0 415 -3 801 -7 858 l-6 102 -38 0 -39 0 -1 -62z"/>
<path d="M2683 4908 c-33 -16 -48 -61 -33 -98 7 -16 18 -30 24 -31 26 -2 71
-11 75 -15 8 -8 -19 -54 -33 -54 -7 0 -20 10 -29 23 -14 21 -16 21 -23 3 -18
-47 57 -76 94 -36 32 34 45 93 31 143 -7 23 -17 47 -23 53 -17 17 -58 23 -83
12z m58 -40 c21 -46 14 -68 -22 -68 -37 0 -49 38 -25 75 22 33 29 32 47 -7z"/>
<path d="M241 4078 c-15 -36 -16 -44 -4 -46 28 -7 43 7 43 42 0 51 -18 53 -39
4z"/>
<path d="M180 3995 c0 -16 6 -25 15 -25 9 0 15 9 15 25 0 16 -6 25 -15 25 -9
0 -15 -9 -15 -25z"/>
<path d="M280 3995 c0 -17 5 -25 13 -22 6 2 12 12 12 22 0 10 -6 20 -12 23 -8
2 -13 -6 -13 -23z"/>
<path d="M368 3936 c-24 -17 -23 -43 2 -56 25 -13 70 -103 70 -140 0 -16 5
-32 10 -35 20 -12 10 -35 -15 -35 -13 0 -28 -8 -33 -17 -9 -15 -15 -12 -51 22
-40 38 -41 41 -41 102 0 39 -4 63 -11 63 -6 0 -22 9 -36 20 -14 11 -30 20 -34
20 -13 0 -11 -48 1 -52 6 -2 12 -13 15 -26 2 -12 11 -29 19 -38 9 -8 16 -32
17 -52 0 -35 9 -54 52 -114 29 -41 14 -58 -53 -58 -33 0 -61 4 -65 9 -3 6 10
22 30 38 25 20 35 36 35 56 0 35 -9 34 -45 -3 -28 -30 -55 -39 -55 -20 0 14
-28 12 -33 -2 -2 -8 -8 -9 -13 -4 -5 5 -4 11 4 13 16 6 15 23 -3 43 -13 14
-10 22 35 69 54 57 54 59 40 81 -7 12 -17 6 -49 -30 -23 -25 -41 -55 -41 -67
0 -14 -6 -23 -15 -23 -9 0 -18 -12 -22 -30 -3 -16 -9 -30 -13 -30 -23 0 -26
86 -5 114 14 18 21 76 11 76 -15 0 -56 -51 -56 -68 0 -11 -4 -24 -10 -27 -5
-3 -10 -19 -10 -35 0 -16 5 -32 10 -35 6 -3 10 -21 10 -38 1 -36 39 -87 66
-87 10 0 25 -7 34 -15 25 -23 265 -23 290 0 9 8 23 15 32 15 27 0 58 44 58 83
0 21 6 39 15 44 8 5 16 19 17 33 2 19 -3 26 -27 34 -38 13 -45 24 -38 56 3 17
-1 31 -11 39 -9 8 -16 24 -16 37 0 13 -9 28 -20 34 -11 6 -20 20 -20 30 0 23
-8 25 -32 6z m72 -315 c-1 -10 -51 -43 -57 -37 -3 3 2 12 11 21 9 9 16 20 16
25 0 5 7 7 15 4 8 -4 15 -9 15 -13z m-260 -31 c0 -5 -4 -10 -10 -10 -5 0 -10
5 -10 10 0 6 5 10 10 10 6 0 10 -4 10 -10z"/>
<path d="M90 3881 c0 -40 13 -61 25 -41 4 7 19 8 36 5 16 -4 29 -3 29 1 0 9
-72 74 -82 74 -5 0 -8 -18 -8 -39z"/>
<path d="M312 3878 c-8 -8 -8 -17 -1 -30 13 -24 29 -14 29 18 0 26 -9 31 -28
12z"/>
<path d="M535 3661 c-8 -14 6 -92 16 -85 12 7 11 81 0 89 -5 3 -12 1 -16 -4z"/>
<path d="M0 3540 c0 -25 4 -30 25 -30 30 0 32 13 5 40 -27 27 -30 25 -30 -10z"/>
<path d="M490 3545 c-11 -20 -11 -28 -2 -37 18 -18 47 3 47 33 0 33 -28 35
-45 4z"/>
<path d="M65 3500 c-10 -16 4 -30 29 -30 13 0 29 -7 36 -15 10 -12 39 -15 141
-15 122 0 129 1 129 20 0 19 -7 20 -139 20 -114 0 -140 3 -145 15 -6 17 -42
20 -51 5z"/>
<path d="M420 3495 c-10 -12 -9 -16 5 -21 19 -8 40 9 31 25 -10 15 -21 14 -36
-4z"/>
<path d="M442 2903 c2 -5 10 -20 17 -35 11 -22 12 -30 1 -43 -7 -8 -19 -15
-26 -15 -23 0 -16 -18 14 -32 34 -16 39 -48 13 -72 -25 -23 -52 -14 -48 16 1
14 -4 23 -15 26 -24 5 -25 -50 -2 -69 20 -17 73 -12 95 8 23 20 29 59 13 80
-9 12 -11 33 -7 65 6 53 -6 78 -39 78 -11 0 -18 -3 -16 -7z"/>
<path d="M392 2888 c-19 -19 -15 -48 8 -48 16 0 20 7 20 30 0 32 -9 37 -28 18z"/>
<path d="M3721 1961 c-21 -16 -23 -24 -17 -59 3 -24 2 -43 -4 -47 -12 -7 -13
-65 -2 -80 4 -6 20 -16 35 -23 23 -10 34 -9 62 3 19 7 35 20 36 27 3 29 -4 64
-13 75 -7 9 -6 23 1 44 23 65 -41 104 -98 60z m67 -34 c2 -18 -2 -29 -12 -33
-22 -9 -46 14 -46 43 0 21 4 24 28 21 21 -2 28 -9 30 -31z m10 -105 c7 -47
-47 -72 -68 -32 -6 12 -8 30 -5 41 10 30 69 23 73 -9z"/>
<path d="M1003 1372 c-23 -3 -35 -23 -25 -38 4 -6 28 -8 55 -6 37 3 47 8 47
22 0 18 -34 28 -77 22z"/>
<path d="M974 1289 c-10 -17 8 -31 33 -24 33 8 53 -10 53 -50 0 -55 -54 -76
-62 -23 -4 31 -32 30 -36 -1 -4 -28 30 -60 64 -61 32 0 74 47 74 84 -1 45 -27
73 -77 79 -24 3 -46 1 -49 -4z"/>
<path d="M2688 263 c-11 -3 -18 -14 -18 -30 0 -20 3 -24 18 -18 9 5 28 8 42 9
31 1 31 -15 -1 -100 -13 -34 -20 -68 -16 -78 13 -33 35 1 42 65 4 33 16 77 26
100 11 22 17 44 14 49 -6 10 -74 12 -107 3z"/>
</g>
</svg>
