<?xml version="1.0" standalone="no"?>
<!DOCTYPE svg PUBLIC "-//W3C//DTD SVG 20010904//EN"
 "http://www.w3.org/TR/2001/REC-SVG-20010904/DTD/svg10.dtd">
<svg version="1.0" xmlns="http://www.w3.org/2000/svg"
 width="510.000000pt" height="480.000000pt" viewBox="0 0 510.000000 480.000000"
 preserveAspectRatio="xMidYMid meet">
<metadata>
Created by potrace 1.16, written by Peter Selinger 2001-2019
</metadata>
<g transform="translate(0.000000,480.000000) scale(0.100000,-0.100000)"
fill="#000000" stroke="none">
<path d="M4110 4317 c-5 -4 -799 -12 -2490 -23 -492 -3 -985 -7 -1095 -9 -110
-2 -273 -4 -362 -4 l-163 -1 0 -54 0 -55 773 4 c424 3 1217 7 1762 10 545 3
1227 8 1518 12 l527 6 1 -349 c1 -192 1 -352 1 -355 -1 -4 3 -267 8 -585 5
-319 10 -1104 10 -1746 l2 -1168 70 0 70 0 -2 428 c-2 235 -7 531 -11 657 -8
203 -25 2840 -20 3100 1 55 -3 106 -8 114 -7 11 -66 15 -297 18 -159 3 -291 3
-294 0z"/>
<path d="M1168 3464 c-33 -18 -35 -34 -7 -60 19 -17 20 -26 15 -83 -4 -35 -11
-73 -17 -83 -6 -11 -17 -45 -25 -76 -8 -31 -20 -62 -26 -70 -17 -20 -10 -84
12 -108 15 -15 20 -35 20 -75 1 -66 34 -189 51 -189 12 0 12 -63 0 -75 -12
-13 -23 -87 -23 -153 0 -49 -2 -54 -38 -80 -22 -15 -44 -37 -49 -49 -10 -23
-13 -23 -220 -23 -131 0 -212 -4 -216 -10 -4 -6 -6 -154 -6 -329 0 -307 -1
-319 -20 -324 -10 -3 -19 -12 -19 -20 0 -12 15 -16 66 -19 75 -3 94 12 54 42
l-22 17 1 274 c1 202 5 275 14 281 9 6 1216 3 2089 -6 l113 -1 3 -283 c2 -280
2 -284 -18 -289 -15 -4 -20 -12 -18 -27 3 -18 10 -21 64 -24 45 -2 65 2 74 13
10 12 10 18 0 30 -7 8 -19 15 -26 15 -11 0 -14 58 -16 322 l-3 322 -50 1 c-27
1 -115 3 -195 4 l-145 1 -17 28 c-10 15 -31 45 -48 67 -16 22 -29 49 -30 59 0
11 -8 28 -17 38 -12 14 -18 42 -20 106 -4 84 -29 192 -45 192 -4 0 -8 25 -8
55 0 30 -5 64 -12 74 -15 25 -4 51 20 44 24 -6 39 14 23 30 -6 6 -11 19 -11
29 0 19 -25 25 -35 8 -12 -19 -25 -10 -25 18 0 28 31 72 51 72 6 0 27 -8 47
-17 26 -12 37 -14 40 -5 2 7 8 12 13 12 5 0 2 -12 -8 -27 l-17 -26 27 7 c15 3
27 2 27 -3 0 -16 -28 -33 -51 -29 -28 4 -35 -15 -14 -36 15 -15 19 -15 46 1
26 16 31 16 39 3 6 -8 8 -21 5 -28 -8 -21 24 -26 45 -7 18 16 19 20 5 35 -17
19 -20 40 -5 40 6 0 20 11 32 25 12 14 28 25 36 25 8 0 23 -11 34 -25 24 -31
33 -31 75 1 19 14 45 27 59 29 34 3 52 21 37 36 -14 14 -88 2 -104 -17 -14
-17 -49 -19 -49 -1 1 18 23 44 35 41 16 -6 38 13 31 25 -8 12 -45 15 -62 3 -6
-4 -16 -17 -23 -30 -14 -27 -31 -20 -31 14 0 17 5 24 20 24 13 0 20 7 20 20 0
11 5 20 10 20 16 0 12 17 -6 24 -8 3 -12 2 -9 -3 6 -11 -40 -61 -55 -61 -13 0
-50 -37 -50 -50 0 -5 7 -10 15 -10 18 0 18 -5 5 -31 -16 -29 -28 -23 -41 21
-12 39 -13 40 -35 25 -31 -20 -100 -20 -108 1 -4 10 -13 13 -26 9 -19 -6 -20
-2 -20 127 0 91 -4 138 -12 146 -15 15 -80 16 -95 1 -8 -8 -16 -7 -31 2 -16
10 -26 10 -44 2 -34 -17 -161 -34 -172 -23 -5 5 -38 6 -73 3 -51 -5 -66 -3
-76 10 -9 12 -26 15 -64 14 -28 -1 -55 -6 -59 -10 -12 -11 -69 -8 -82 5 -9 9
-20 9 -50 -2 -22 -8 -88 -14 -167 -15 -117 -2 -132 -1 -152 17 -16 15 -25 17
-41 9 -11 -6 -21 -9 -23 -7 -15 12 -68 12 -91 0z m662 -54 c0 -5 -4 -10 -10
-10 -5 0 -10 5 -10 10 0 6 5 10 10 10 6 0 10 -4 10 -10z m-177 -10 c9 0 17 -6
17 -12 1 -28 56 -75 89 -76 19 0 38 -8 46 -19 19 -25 2 -38 -32 -25 -25 9 -85
15 -150 14 -26 0 -83 -24 -83 -34 0 -5 5 -8 10 -8 6 0 10 -7 10 -16 0 -21 63
-84 83 -84 8 0 17 -7 21 -15 3 -8 15 -15 28 -15 17 0 19 -3 10 -12 -8 -8 -15
-8 -26 1 -8 7 -24 10 -35 6 -14 -4 -27 1 -43 20 -22 26 -78 59 -78 47 0 -11
-78 -32 -94 -26 -22 9 -20 16 14 49 33 32 38 53 15 61 -29 11 -4 23 38 18 37
-4 46 -1 76 27 30 28 33 34 27 71 -6 39 -6 40 16 34 13 -3 31 -6 41 -6z m580
-7 c4 -2 7 -10 7 -17 0 -8 16 -26 35 -40 19 -15 35 -33 35 -40 0 -20 -28 -28
-52 -15 -15 8 -27 8 -46 0 -17 -8 -27 -9 -31 -2 -10 16 -56 -12 -59 -36 -2
-12 9 -34 27 -54 17 -18 31 -37 31 -41 0 -5 11 -8 25 -8 19 0 45 -23 45 -42 0
-2 -25 -1 -55 0 -52 4 -55 5 -49 27 5 20 1 25 -20 31 -15 3 -38 4 -51 0 -14
-3 -36 -9 -50 -12 -36 -9 -42 18 -11 49 27 27 33 51 16 62 -15 9 -12 25 5 25
8 0 24 -6 36 -12 18 -12 24 -8 60 29 38 41 49 75 29 88 -21 13 3 26 33 19 18
-3 35 -8 40 -11z m-925 -363 c37 -35 28 -57 -9 -24 -13 12 -35 18 -60 18 -30
-1 -39 2 -39 16 0 24 9 30 43 26 17 -2 45 -17 65 -36z m560 5 c17 -10 32 -25
32 -32 0 -16 1 -17 -47 7 -32 15 -47 17 -74 10 -42 -12 -39 -12 -39 3 0 19 50
45 74 38 12 -3 36 -15 54 -26z m-429 -69 c13 -14 33 -26 45 -28 13 -2 21 -10
21 -23 0 -12 9 -21 25 -25 47 -11 4 -18 -95 -15 -55 2 -101 8 -103 13 -4 14
16 25 31 15 12 -7 58 -5 66 3 3 2 -8 17 -23 33 -27 28 -28 51 -2 51 7 0 23
-11 35 -24z m599 -26 c24 -22 48 -40 55 -40 7 0 20 -7 30 -14 17 -13 14 -15
-23 -21 -27 -4 -46 -3 -53 4 -6 6 -19 11 -29 11 -11 0 -18 7 -18 18 0 10 -11
29 -25 42 -31 29 -32 40 -2 40 12 0 41 -18 65 -40z m-99 -47 c9 -16 12 -16 20
-3 6 8 13 11 17 7 12 -11 -2 -19 -41 -24 -25 -2 -35 0 -35 10 0 30 24 36 39
10z m-288 -63 c10 0 19 -6 19 -14 0 -27 41 -66 69 -66 28 0 71 -24 71 -41 0
-14 -101 -5 -137 13 -22 11 -34 13 -42 5 -6 -6 -11 -8 -11 -3 0 4 -13 -1 -30
-10 -41 -25 -48 -11 -15 27 20 24 25 40 21 60 -6 30 2 42 22 34 7 -3 22 -5 33
-5z m572 0 c10 0 17 -8 17 -19 0 -24 63 -73 84 -65 12 5 16 0 16 -19 0 -28 10
-27 -123 -12 -40 5 -62 3 -73 -5 -27 -23 -27 -1 0 30 27 33 34 64 16 75 -17
11 1 27 24 21 11 -3 29 -6 39 -6z m-696 -133 c8 3 21 -13 32 -39 20 -47 49
-78 78 -82 10 -2 19 -10 21 -19 5 -26 -36 -21 -71 9 -28 23 -36 25 -77 19 -54
-9 -89 -9 -97 -1 -4 4 9 22 27 41 30 31 33 38 22 56 -18 29 -6 41 26 25 15 -7
33 -11 39 -9z m569 3 c8 0 14 -9 14 -19 0 -23 81 -111 102 -111 9 0 18 -7 22
-15 3 -8 15 -15 28 -15 17 0 19 -3 10 -12 -9 -9 -18 -9 -37 0 -14 7 -34 12
-45 12 -10 0 -25 9 -33 20 -23 34 -63 42 -100 21 -24 -14 -38 -16 -55 -8 -29
13 -28 20 8 50 29 25 40 57 20 57 -5 0 -10 7 -10 16 0 13 7 15 31 10 17 -3 38
-6 45 -6z m-391 -160 c3 -5 -3 -10 -15 -10 -12 0 -18 5 -15 10 3 6 10 10 15
10 5 0 12 -4 15 -10z m168 -74 c15 -11 27 -26 27 -33 0 -17 -1 -17 -50 9 -34
18 -44 20 -60 10 -11 -7 -29 -12 -40 -12 -11 0 -20 -7 -20 -15 0 -8 -8 -15
-17 -15 -14 0 -12 5 7 28 48 55 60 62 93 55 18 -4 44 -15 60 -27z m-573 2 c17
-12 30 -31 30 -42 0 -12 -4 -16 -8 -11 -4 6 -19 18 -34 28 -16 10 -28 24 -28
32 0 20 5 19 40 -7z m164 -83 c39 -35 39 -35 15 -43 -13 -5 -37 -5 -54 -1 -16
5 -30 9 -30 9 -1 0 -1 8 -1 18 -1 9 -4 25 -9 35 -13 30 36 19 79 -18z m554 5
c18 -16 39 -30 47 -30 25 0 17 -17 -11 -24 -38 -10 -60 1 -84 38 -11 18 -20
36 -20 40 0 17 41 3 68 -24z"/>
<path d="M2548 3363 c-27 -7 -22 -23 7 -23 14 0 25 -4 25 -9 0 -13 -39 -24
-85 -25 -34 -1 -41 -5 -43 -23 -3 -21 1 -23 37 -23 46 0 91 18 91 36 0 7 10
14 22 16 32 5 32 21 -1 41 -16 9 -31 16 -33 16 -1 -1 -11 -3 -20 -6z"/>
<path d="M2780 3330 c0 -5 5 -10 10 -10 6 0 10 5 10 10 0 6 -4 10 -10 10 -5 0
-10 -4 -10 -10z"/>
<path d="M3092 3190 c-12 -5 -29 -7 -37 -4 -22 9 -95 -55 -95 -83 0 -17 6 -23
21 -23 16 0 19 -4 14 -20 -4 -13 2 -37 14 -60 22 -42 12 -53 -21 -24 -16 16
-18 15 -24 0 -8 -21 22 -56 48 -56 10 0 18 7 19 18 0 10 3 12 6 4 9 -22 66
-39 144 -40 65 -2 78 1 94 18 23 26 45 26 45 0 0 -25 0 -25 55 1 45 21 59 39
30 39 -13 0 -14 4 -4 22 9 18 8 24 -6 34 -9 7 -14 17 -11 23 10 16 -22 58 -51
66 -35 8 -37 3 -14 -36 25 -40 28 -99 7 -99 -22 0 -28 17 -16 41 9 15 9 24 1
32 -8 8 -11 8 -11 -1 0 -9 -8 -7 -26 4 -16 11 -28 14 -32 7 -4 -5 -15 -12 -24
-16 -10 -3 -15 -13 -12 -24 8 -28 -51 -25 -71 5 -11 14 -26 22 -46 22 -25 0
-29 3 -24 18 3 11 -3 29 -14 44 -21 27 -19 38 9 38 10 0 29 9 44 21 17 14 36
19 52 16 16 -3 23 0 21 7 -5 14 -55 18 -85 6z m1 -196 c21 -29 18 -39 -11 -30
-22 7 -36 32 -26 47 8 14 18 10 37 -17z"/>
<path d="M3380 3185 c-10 -12 -7 -15 14 -21 33 -8 51 3 35 22 -15 18 -33 18
-49 -1z"/>
<path d="M3217 3184 c-11 -12 3 -24 29 -24 16 0 24 5 22 13 -5 13 -40 22 -51
11z"/>
<path d="M3250 3133 c0 -6 8 -17 18 -24 16 -13 16 -13 2 6 -8 11 -16 22 -17
24 -2 2 -3 0 -3 -6z"/>
<path d="M3119 3104 c-11 -14 -10 -16 9 -12 13 1 23 7 23 13 1 17 -17 16 -32
-1z"/>
<path d="M3398 3078 c2 -15 8 -28 12 -28 5 0 16 -7 25 -16 9 -9 19 -13 23 -9
4 4 1 10 -5 12 -7 3 -13 17 -13 33 0 21 -6 29 -23 32 -20 4 -23 1 -19 -24z"/>
<path d="M3120 3050 c0 -5 5 -10 10 -10 6 0 10 5 10 10 0 6 -4 10 -10 10 -5 0
-10 -4 -10 -10z"/>
<path d="M3163 3025 c-9 -24 1 -27 15 -5 8 13 8 20 2 20 -6 0 -13 -7 -17 -15z"/>
<path d="M3603 2703 c-17 -6 -16 -32 1 -39 19 -7 56 13 56 31 0 15 -31 19 -57
8z"/>
<path d="M3838 2649 c-28 -34 -60 -52 -57 -31 4 26 -4 31 -53 27 -38 -3 -58
-10 -76 -28 -23 -24 -24 -25 -7 -51 14 -21 25 -26 56 -26 22 0 39 5 39 10 0 6
-6 10 -13 10 -8 0 -21 8 -31 19 -14 16 -15 20 -2 30 23 20 51 9 54 -20 2 -16
13 -32 29 -40 22 -12 27 -11 38 4 7 9 14 17 17 17 13 0 48 -39 48 -54 0 -20
-45 -21 -80 -1 -36 21 -39 19 -37 -20 3 -37 26 -70 34 -47 3 6 15 12 28 12 38
0 72 17 78 39 3 12 11 21 19 21 16 0 39 46 31 66 -3 8 1 14 11 14 9 0 16 8 16
20 0 21 -10 26 -25 11 -16 -14 -70 -20 -85 -10 -12 8 -10 14 13 33 28 22 28
23 8 29 -16 4 -29 -4 -53 -34z"/>
<path d="M3974 2468 c-4 -6 1 -17 11 -25 24 -17 34 -17 42 3 10 26 -38 47 -53
22z"/>
<path d="M3577 2394 c-17 -18 13 -54 44 -54 24 0 26 35 2 44 -10 3 -23 8 -29
11 -5 3 -13 2 -17 -1z"/>
<path d="M202 2231 c2 -7 7 -12 11 -12 12 1 9 15 -3 20 -7 2 -11 -2 -8 -8z"/>
<path d="M247 2214 c-11 -12 3 -24 28 -24 18 0 23 4 19 15 -6 15 -35 20 -47 9z"/>
<path d="M3640 2210 c0 -5 5 -10 10 -10 6 0 10 5 10 10 0 6 -4 10 -10 10 -5 0
-10 -4 -10 -10z"/>
<path d="M3680 2190 c0 -5 12 -10 26 -10 14 0 23 4 19 10 -3 6 -15 10 -26 10
-10 0 -19 -4 -19 -10z"/>
<path d="M160 2171 c0 -62 49 -111 97 -95 94 31 112 64 35 64 -34 0 -58 7 -84
25 -44 30 -48 30 -48 6z"/>
<path d="M3588 2164 c-9 -8 22 -65 32 -59 4 3 15 -6 24 -20 20 -30 35 -31 86
-5 51 26 51 40 1 40 -23 0 -57 10 -82 25 -47 26 -52 28 -61 19z"/>
<path d="M301 2011 c-20 -5 -22 -8 -9 -19 12 -10 18 -8 33 8 19 21 16 22 -24
11z"/>
<path d="M160 1970 c0 -5 4 -10 9 -10 6 0 13 5 16 10 3 6 -1 10 -9 10 -9 0
-16 -4 -16 -10z"/>
<path d="M404 1965 c-4 -9 -3 -19 0 -23 9 -8 42 12 39 24 -4 16 -33 16 -39 -1z"/>
<path d="M487 1964 c-14 -14 -7 -25 13 -22 12 2 21 8 21 13 0 12 -24 18 -34 9z"/>
<path d="M3595 1961 c-6 -11 9 -23 19 -14 9 9 7 23 -3 23 -6 0 -12 -4 -16 -9z"/>
<path d="M207 1942 c-16 -17 -16 -20 6 -39 12 -11 36 -28 54 -38 30 -17 33
-17 57 -1 37 24 32 34 -16 38 -40 3 -43 5 -41 31 1 22 -2 27 -21 27 -13 0 -30
-8 -39 -18z"/>
<path d="M3840 1944 c0 -9 5 -14 12 -12 18 6 21 28 4 28 -9 0 -16 -7 -16 -16z"/>
<path d="M3658 1939 c-38 -22 -15 -63 50 -89 27 -11 37 -11 58 0 35 19 30 28
-18 32 -40 3 -43 5 -46 36 -3 33 -15 39 -44 21z"/>
<path d="M3932 1938 c6 -18 28 -21 28 -4 0 9 -7 16 -16 16 -9 0 -14 -5 -12
-12z"/>
<path d="M441 1885 c-16 -46 -7 -72 29 -80 36 -8 70 9 70 35 0 22 -20 26 -38
8 -20 -20 -40 7 -24 33 7 11 10 24 7 29 -12 20 -31 9 -44 -25z"/>
<path d="M537 1913 c-13 -12 -7 -33 8 -33 8 0 15 9 15 20 0 20 -11 26 -23 13z"/>
<path d="M0 1895 c0 -10 7 -15 18 -13 21 4 19 22 -2 26 -10 2 -16 -3 -16 -13z"/>
<path d="M3878 1892 c2 -7 -1 -25 -9 -39 -12 -23 -11 -27 9 -44 22 -17 67 -19
92 -4 14 9 12 31 -4 44 -12 10 -17 8 -26 -9 -9 -17 -14 -19 -26 -9 -18 15 -18
38 1 45 27 11 17 33 -14 31 -19 -1 -27 -6 -23 -15z"/>
<path d="M3965 1890 c-3 -5 -4 -14 0 -20 8 -13 35 -1 35 16 0 16 -26 19 -35 4z"/>
<path d="M3154 1575 c-19 -29 -15 -59 9 -63 13 -3 17 3 17 27 0 40 19 50 42
21 24 -30 17 -51 -38 -116 -24 -28 -44 -56 -44 -61 0 -15 40 -21 91 -14 39 5
44 9 47 34 4 30 -9 35 -28 12 -12 -14 -51 -21 -62 -10 -2 3 17 27 44 55 54 56
60 85 25 118 -32 31 -82 29 -103 -3z"/>
<path d="M2692 1561 c-10 -6 -10 -10 3 -21 11 -9 15 -31 15 -81 0 -60 -3 -70
-22 -80 -21 -11 -21 -12 -3 -25 29 -22 75 -18 75 5 0 11 -5 23 -11 26 -6 4
-10 39 -9 83 1 43 1 83 1 90 -1 14 -29 16 -49 3z"/>
<path d="M650 1323 c-62 -7 -68 -12 -40 -35 l25 -20 -2 -390 c-2 -238 -7 -396
-13 -408 -5 -10 -10 -58 -10 -107 0 -62 -4 -95 -15 -110 -21 -31 -22 -189 -1
-236 7 -14 21 -17 83 -17 53 0 79 4 89 15 20 20 34 19 34 -1 0 -14 2 -15 17
-3 13 11 17 11 20 2 5 -15 23 -17 23 -3 0 5 -11 20 -25 34 -28 28 -33 56 -10
56 22 0 115 -70 115 -86 0 -19 379 -21 398 -2 10 10 15 10 23 -2 8 -11 12 -12
16 -2 2 6 11 12 19 12 19 0 18 7 -6 38 -13 15 -17 29 -11 35 14 14 47 -1 65
-28 9 -14 23 -25 31 -25 8 0 15 -9 15 -20 0 -19 7 -20 205 -20 130 0 205 4
205 10 0 6 7 10 15 10 8 0 15 -4 15 -10 0 -5 16 -10 35 -10 19 0 35 5 35 10 0
6 -8 10 -18 10 -11 0 -21 12 -28 35 -10 32 -9 35 10 35 12 0 42 -20 68 -45
l47 -45 192 0 191 0 -16 25 c-15 23 -15 28 -1 55 9 18 33 38 61 50 27 13 48
30 54 45 5 14 16 25 24 25 21 0 84 67 88 93 2 12 13 26 25 33 13 6 50 38 84
72 40 41 69 62 84 62 13 0 31 7 39 16 9 9 29 19 44 23 l27 7 3 382 c2 374 3
381 23 387 12 4 19 14 17 23 -3 14 -15 17 -65 16 -34 -1 -66 -5 -72 -8 -18
-12 -12 -25 14 -32 l25 -6 -2 -342 -3 -341 -1099 3 c-780 2 -1103 6 -1113 13
-15 13 -18 228 -6 512 5 149 8 166 25 170 25 7 23 33 -4 41 -13 3 -25 5 -28 4
-3 -1 -21 -3 -40 -5z m430 -823 c10 -5 32 -23 48 -40 21 -21 40 -30 63 -30 29
0 58 -21 59 -44 0 -5 -27 -5 -62 -1 -35 4 -76 9 -92 10 -40 3 -116 -14 -116
-26 0 -29 67 -109 90 -109 7 0 24 -9 38 -21 l27 -21 -73 4 c-39 2 -72 6 -72
11 0 4 4 7 10 7 5 0 7 7 4 15 -5 13 -21 14 -98 9 l-91 -6 43 39 c46 43 50 54
27 73 -8 7 -15 16 -15 21 0 12 47 11 55 -1 20 -32 105 33 105 80 0 40 14 49
50 30z m595 -30 c17 -18 48 -35 73 -42 23 -6 47 -19 53 -29 9 -18 6 -19 -48
-17 -32 1 -64 6 -70 11 -9 6 -18 5 -28 -3 -9 -7 -15 -8 -15 -2 0 19 -30 21
-65 4 -19 -9 -35 -22 -35 -29 0 -24 23 -63 42 -68 10 -4 18 -12 18 -20 0 -7
10 -15 22 -17 13 -2 24 -11 26 -20 5 -25 -43 -24 -60 0 -15 22 -93 35 -120 21
-22 -12 -58 -3 -58 15 0 7 11 23 25 36 29 28 31 37 9 62 -16 16 -16 18 0 24 9
3 23 1 31 -6 8 -7 26 -10 39 -6 30 7 86 70 86 96 0 31 42 25 75 -10z m575 -5
c23 -19 49 -36 58 -36 33 -2 38 -4 60 -25 22 -20 22 -22 4 -26 -11 -3 -41 -2
-68 2 -69 9 -173 5 -187 -9 -14 -14 16 -81 37 -81 7 0 16 -10 19 -21 4 -14 11
-20 21 -16 10 4 20 -1 26 -13 6 -11 24 -20 43 -22 26 -3 29 -6 14 -12 -11 -5
-28 -4 -40 2 -12 5 -33 10 -47 10 -14 1 -32 12 -42 25 -16 21 -25 24 -66 22
-26 -2 -54 -6 -63 -9 -9 -4 -21 -1 -27 7 -10 11 -7 20 13 41 29 32 31 42 8 64
-16 16 -15 17 1 20 10 2 30 -2 46 -8 27 -11 31 -10 62 25 18 21 37 51 41 66
10 39 35 37 87 -6z m-1517 -316 c35 -40 25 -55 -16 -26 -18 12 -34 23 -36 24
-6 4 8 33 16 33 5 0 21 -14 36 -31z m559 5 c30 -23 43 -54 24 -54 -8 0 -16 6
-19 14 -8 20 -62 30 -87 16 -13 -7 -26 -7 -36 -2 -15 8 -14 12 5 31 26 26 76
24 113 -5z m503 16 c4 -6 14 -9 23 -6 10 3 29 -6 45 -19 29 -26 37 -65 12 -65
-8 0 -15 8 -15 18 0 24 -53 46 -79 33 -11 -6 -27 -11 -37 -11 -9 0 -23 -8 -30
-17 -7 -10 -15 -15 -18 -12 -8 7 70 89 83 89 6 0 13 -5 16 -10z m615 0 c-1
-23 -58 -53 -95 -48 l-28 3 27 27 c20 19 36 26 62 25 18 -1 34 -4 34 -7z
m-1250 -60 c0 -5 -4 -10 -10 -10 -5 0 -10 5 -10 10 0 6 5 10 10 10 6 0 10 -4
10 -10z m1135 -10 c3 -6 -1 -13 -10 -16 -19 -8 -30 0 -20 15 8 14 22 14 30 1z"/>
<path d="M240 1065 c-17 -20 -13 -23 39 -26 51 -4 63 10 24 29 -35 16 -48 15
-63 -3z"/>
<path d="M490 1050 c0 -5 7 -10 15 -10 8 0 15 5 15 10 0 6 -7 10 -15 10 -8 0
-15 -4 -15 -10z"/>
<path d="M176 1004 c-14 -36 -7 -44 37 -44 33 0 49 6 65 23 12 13 22 26 22 30
0 11 -29 8 -50 -5 -15 -10 -22 -10 -32 0 -17 17 -35 15 -42 -4z"/>
<path d="M405 940 c-3 -11 -15 -20 -25 -20 -15 0 -18 -8 -18 -50 0 -41 3 -50
17 -48 23 3 61 -20 61 -37 0 -25 31 -17 71 20 22 19 48 35 59 35 11 0 20 7 20
15 0 23 -62 19 -90 -5 -13 -11 -28 -19 -34 -17 -13 5 -9 61 5 65 15 6 10 22
-6 22 -9 0 -20 -11 -25 -25 -5 -14 -16 -25 -25 -25 -9 0 -15 9 -15 25 0 18 5
25 20 25 13 0 20 7 20 20 0 11 -6 20 -14 20 -8 0 -18 -9 -21 -20z"/>
<path d="M3700 891 c0 -9 24 -21 43 -21 6 0 2 7 -9 15 -22 17 -34 19 -34 6z"/>
<path d="M255 856 c-50 -51 -52 -60 -16 -53 23 5 31 3 31 -8 0 -15 -32 -26
-64 -22 -27 3 -30 -16 -7 -44 16 -19 22 -22 32 -11 18 17 68 15 75 -3 4 -8 10
-12 16 -9 5 3 5 11 -2 19 -16 19 5 55 31 55 15 0 19 5 15 16 -3 9 -6 18 -6 20
0 2 -8 4 -18 4 -12 0 -23 13 -32 35 -8 19 -16 34 -19 34 -3 -1 -19 -15 -36
-33z"/>
<path d="M3632 883 c-18 -3 -36 -11 -39 -19 -3 -9 -16 -20 -29 -25 -18 -6 -24
-16 -24 -39 0 -17 6 -33 13 -36 7 -2 13 -19 14 -38 1 -20 11 -43 27 -61 14
-15 26 -34 26 -42 0 -21 47 -36 127 -39 64 -4 74 -2 101 21 31 26 42 24 42 -7
0 -19 15 -24 25 -8 3 6 15 10 25 10 13 0 22 9 25 28 4 15 13 39 21 54 19 35
18 41 -5 33 -11 -3 -22 -1 -26 4 -3 6 0 9 7 6 25 -10 50 18 43 47 -6 25 -18
28 -63 19 -2 -1 4 -8 12 -17 9 -8 16 -21 16 -27 0 -7 -5 -4 -11 5 -13 24 -44
39 -63 32 -20 -8 -21 -33 -1 -40 10 -4 13 -13 10 -24 -3 -10 -1 -21 4 -25 17
-10 -9 -43 -31 -37 -21 5 -23 13 -6 30 9 9 6 17 -12 37 -13 14 -28 25 -35 25
-15 0 -45 -37 -45 -55 0 -25 -50 -18 -76 10 -27 29 -42 32 -51 8 -4 -11 3 -23
20 -37 15 -12 27 -25 27 -29 0 -15 -30 -6 -55 16 -26 22 -26 23 -9 55 16 33
16 35 -5 63 -13 18 -17 28 -9 27 7 -2 12 3 11 9 -2 7 8 20 22 29 23 15 36 46
18 42 -5 0 -23 -3 -41 -5z"/>
<path d="M3940 875 c0 -16 37 -29 66 -23 17 3 17 4 0 21 -22 21 -66 23 -66 2z"/>
<path d="M183 853 c-7 -2 -13 -11 -13 -20 0 -8 5 -12 13 -9 6 3 20 9 30 12 9
4 17 10 17 15 0 10 -27 11 -47 2z"/>
<path d="M3680 790 c0 -5 5 -10 10 -10 6 0 10 5 10 10 0 6 -4 10 -10 10 -5 0
-10 -4 -10 -10z"/>
<path d="M111 757 c-8 -11 -6 -18 8 -31 17 -16 19 -16 23 1 10 37 -9 55 -31
30z"/>
<path d="M3546 663 c-10 -11 -7 -22 14 -43 26 -26 40 -25 40 3 0 23 -41 53
-54 40z"/>
<path d="M3950 290 c0 -5 9 -10 20 -10 11 0 20 5 20 10 0 6 -9 10 -20 10 -11
0 -20 -4 -20 -10z"/>
<path d="M3572 272 c-29 -14 -33 -20 -30 -52 2 -22 8 -34 16 -32 9 2 11 -7 7
-30 -5 -28 1 -41 32 -82 21 -26 51 -56 66 -65 24 -14 29 -14 38 -1 8 11 12 12
16 3 8 -22 93 -16 119 8 23 22 44 19 44 -7 0 -8 6 -14 13 -14 15 1 68 47 65
57 -1 4 6 21 17 37 24 37 29 104 10 130 -8 11 -18 16 -22 12 -4 -4 -2 -10 4
-14 8 -5 7 -12 -3 -26 -13 -19 -14 -19 -33 -1 -32 28 -71 -1 -42 -31 5 -5 13
-26 16 -46 7 -36 6 -38 -19 -38 -22 0 -25 3 -21 28 4 21 0 31 -19 44 -22 16
-26 16 -40 3 -8 -8 -20 -15 -26 -15 -7 0 -9 -8 -5 -19 10 -33 -35 -32 -72 2
-23 22 -35 27 -48 20 -15 -9 -14 -13 10 -42 31 -36 27 -50 -10 -33 -33 15 -42
39 -25 66 7 11 14 35 16 52 2 25 -2 30 -18 30 -28 -1 -34 21 -8 29 24 8 24 39
0 41 -8 1 -30 -6 -48 -14z"/>
<path d="M3820 254 c0 -8 5 -12 10 -9 6 3 10 10 10 16 0 5 -4 9 -10 9 -5 0
-10 -7 -10 -16z"/>
<path d="M3700 216 c0 -8 5 -18 10 -21 6 -3 10 3 10 14 0 12 -4 21 -10 21 -5
0 -10 -6 -10 -14z"/>
<path d="M3540 66 c0 -23 16 -36 46 -36 21 0 17 28 -6 35 -11 3 -20 11 -20 16
0 5 -4 9 -10 9 -5 0 -10 -11 -10 -24z"/>
</g>
</svg>
