<?xml version="1.0" standalone="no"?>
<!DOCTYPE svg PUBLIC "-//W3C//DTD SVG 20010904//EN"
 "http://www.w3.org/TR/2001/REC-SVG-20010904/DTD/svg10.dtd">
<svg version="1.0" xmlns="http://www.w3.org/2000/svg"
 width="504.000000pt" height="640.000000pt" viewBox="0 0 504.000000 640.000000"
 preserveAspectRatio="xMidYMid meet">
<metadata>
Created by potrace 1.16, written by Peter Selinger 2001-2019
</metadata>
<g transform="translate(0.000000,640.000000) scale(0.100000,-0.100000)"
fill="#000000" stroke="none">
<path d="M570 6201 c0 -147 3 -201 13 -208 13 -11 410 -10 1987 1 1074 7 1793
16 1803 23 4 2 7 89 7 194 l0 189 -40 0 -41 0 3 -155 c2 -129 0 -158 -12 -165
-9 -6 -157 -10 -345 -10 -181 0 -539 -2 -795 -5 -680 -7 -2491 -7 -2498 0 -4
3 -8 80 -10 171 l-4 164 -34 0 -34 0 0 -199z"/>
<path d="M4849 5514 c-5 -7 -9 -736 -9 -1882 0 -1711 1 -1871 16 -1874 9 -2
54 -2 100 0 l84 3 0 35 0 34 -55 0 c-36 0 -57 4 -60 12 -7 24 -16 3473 -9
3551 l7 77 58 0 c56 0 59 1 59 25 0 23 -4 25 -42 26 -24 1 -65 2 -91 3 -27 1
-52 -4 -58 -10z"/>
<path d="M2610 5513 c-14 -2 -477 -4 -1030 -6 l-1005 -2 -5 -780 c-3 -429 -6
-781 -8 -782 -1 -2 -128 -3 -282 -3 -275 0 -280 0 -280 -20 0 -21 3 -21 539
-17 296 1 543 1 550 -1 16 -5 14 -52 -4 -58 -18 -7 -20 -34 -2 -35 23 -2 82 3
86 7 2 2 -1 14 -7 27 -8 16 -12 246 -14 824 -2 441 -1 803 2 806 3 3 613 8
1355 11 743 3 1445 9 1560 12 184 5 213 4 224 -10 10 -12 13 -358 13 -1831 0
-999 -1 -1818 -3 -1820 -2 -2 -277 -6 -611 -10 -503 -6 -608 -10 -608 -21 0
-11 17 -14 68 -14 37 0 72 -4 79 -8 9 -6 13 -224 17 -887 3 -484 5 -883 5
-887 1 -5 8 -8 16 -8 13 0 15 108 17 893 l3 892 523 3 523 2 7 23 c4 12 5 850
2 1862 l-5 1840 -850 1 c-467 1 -861 -1 -875 -3z m-1510 -573 c3 -294 3 -638
0 -765 l-5 -230 -234 -3 c-144 -1 -238 1 -244 7 -13 13 -16 1501 -4 1519 8 9
64 12 246 10 l236 -3 5 -535z"/>
<path d="M43 5502 c-40 -3 -43 -5 -43 -32 0 -15 7 -30 15 -34 13 -5 15 -68 15
-486 0 -418 -2 -481 -15 -486 -9 -4 -15 -19 -15 -40 0 -33 1 -34 44 -34 24 0
48 6 54 13 17 20 16 1094 -1 1098 -6 2 -31 3 -54 1z"/>
<path d="M1657 4981 c-17 -6 -18 -64 -18 -1329 0 -727 3 -1327 6 -1333 5 -7
183 -10 571 -8 510 2 566 0 583 -15 31 -28 41 -19 41 34 0 42 -3 50 -19 50
-10 0 -21 -7 -25 -15 -3 -8 -17 -15 -31 -15 l-25 0 0 503 c0 378 3 506 12 515
9 9 86 12 283 12 260 0 271 -1 288 -20 24 -29 37 -17 37 35 0 53 -12 63 -45
36 -24 -18 -42 -19 -332 -20 -298 -1 -308 0 -329 20 -30 28 -44 17 -44 -36 0
-51 17 -68 38 -37 15 24 37 29 47 11 6 -9 8 -1010 2 -1015 -1 -1 -228 -4 -504
-6 -345 -4 -505 -2 -512 5 -17 17 -15 1001 2 1015 9 7 105 11 284 11 256 1
271 0 288 -19 25 -27 35 -17 35 36 0 34 -4 44 -16 44 -9 0 -22 -6 -28 -14 -9
-11 -66 -15 -284 -19 -246 -4 -273 -3 -281 12 -5 9 -9 118 -10 242 -2 199 0
227 14 239 13 11 20 11 33 2 31 -22 44 -25 53 -11 13 21 11 53 -6 75 -14 19
-14 19 -30 -3 -20 -28 -41 -29 -54 -4 -16 30 -15 976 1 988 8 5 215 9 513 9
l500 -1 3 -494 c1 -317 -1 -498 -8 -505 -6 -6 -119 -10 -285 -11 -260 -2 -276
-1 -286 16 -23 45 -59 0 -45 -56 7 -28 30 -33 44 -9 7 13 50 15 336 16 295 0
329 -1 346 -17 27 -24 40 -11 40 41 0 47 -16 58 -40 29 -7 -9 -23 -15 -34 -13
-21 3 -21 5 -24 497 -1 272 1 498 5 502 10 10 1007 14 1023 4 8 -5 10 -136 8
-497 -3 -444 -5 -491 -20 -502 -26 -19 -556 -11 -578 9 -29 26 -40 18 -40 -29
0 -52 16 -68 39 -38 16 21 22 22 299 21 257 -1 283 -3 292 -19 5 -9 8 -119 8
-244 -2 -216 -3 -228 -22 -238 -16 -9 -23 -7 -37 11 -32 39 -43 29 -39 -39 3
-50 9 -55 37 -29 18 18 28 21 40 13 15 -9 16 -58 15 -509 -1 -275 -6 -503 -11
-508 -5 -5 -134 -8 -287 -8 -273 1 -279 2 -295 22 -24 32 -39 15 -39 -42 0
-52 19 -68 39 -31 9 17 32 18 311 20 165 0 306 4 312 8 8 5 9 352 5 1325 -3
725 -8 1323 -12 1329 -7 12 -2107 13 -2138 1z"/>
<path d="M2903 4843 c-7 -2 -13 -14 -13 -25 0 -18 4 -20 31 -14 17 3 42 6 55
6 27 0 33 24 8 34 -18 7 -63 7 -81 -1z"/>
<path d="M1799 4791 c-25 -25 -29 -37 -29 -84 0 -44 5 -59 25 -81 30 -33 76
-35 105 -4 43 46 8 118 -58 118 -37 0 -40 9 -12 41 l20 24 18 -24 c19 -24 42
-22 42 4 0 17 -31 35 -60 35 -12 0 -35 -13 -51 -29z m69 -93 c17 -17 15 -53
-3 -68 -13 -10 -19 -10 -35 5 -22 20 -27 61 -7 68 21 9 32 8 45 -5z"/>
<path d="M2890 4755 c0 -13 6 -16 25 -11 26 7 65 -22 65 -46 -1 -14 -34 -58
-44 -58 -3 0 -12 14 -21 30 -17 33 -32 38 -42 14 -3 -10 4 -26 19 -41 23 -22
28 -24 65 -14 52 14 71 47 53 91 -16 38 -20 40 -75 46 -37 4 -45 2 -45 -11z"/>
<path d="M1511 3907 c-8 -10 -7 -21 2 -40 17 -38 27 -33 27 13 0 41 -9 50 -29
27z"/>
<path d="M1410 3884 c-11 -12 -10 -18 3 -31 15 -15 17 -14 27 11 5 15 10 29
10 32 0 10 -29 2 -40 -12z"/>
<path d="M1330 3865 c-6 -8 -9 -19 -6 -24 10 -15 14 -312 6 -342 -9 -31 4 -49
34 -49 16 0 17 3 8 12 -9 9 -12 70 -12 215 0 112 -4 203 -9 203 -5 0 -14 -7
-21 -15z"/>
<path d="M1259 3848 c0 -11 0 -341 1 -371 0 -5 5 -7 11 -5 7 2 10 61 9 182 0
122 3 182 11 192 9 11 7 14 -10 14 -11 0 -21 -6 -22 -12z"/>
<path d="M1417 3762 c-19 -21 -22 -63 -6 -79 8 -8 6 -18 -6 -37 -23 -34 -13
-74 22 -87 37 -14 89 -1 108 27 14 22 14 27 -1 59 -10 22 -14 45 -10 61 10 40
-17 74 -58 74 -19 0 -40 -8 -49 -18z m61 -14 c16 -16 15 -45 0 -50 -22 -8 -38
3 -38 26 0 35 16 46 38 24z m13 -107 c20 -16 22 -23 13 -38 -16 -27 -61 -29
-69 -4 -6 21 9 61 24 61 5 0 19 -9 32 -19z"/>
<path d="M1076 3491 c-3 -5 1 -14 9 -21 20 -16 19 -56 -1 -64 -9 -3 -256 -6
-550 -6 -511 0 -534 -1 -534 -18 0 -18 13 -18 259 -14 142 3 271 2 285 -2 l26
-6 0 -790 c0 -593 3 -791 12 -796 12 -8 305 -7 754 1 238 5 283 3 293 -9 9
-10 11 -77 9 -249 -2 -130 -6 -238 -9 -241 -3 -3 -237 -8 -520 -11 -283 -4
-520 -8 -528 -11 -11 -3 -12 -47 -9 -245 4 -203 3 -243 -10 -255 -11 -12 -39
-15 -121 -14 -58 1 -182 1 -274 1 l-168 -1 3 -32 3 -33 315 4 c173 2 317 5
320 8 3 3 6 116 8 251 2 151 7 249 13 253 9 5 965 11 971 6 2 -1 5 -234 8
-517 l5 -515 265 -5 265 -5 3 -77 3 -78 34 0 35 0 -1 108 c0 77 -5 111 -15
123 -12 13 -14 137 -16 780 l-3 764 233 5 c129 3 239 2 245 -2 9 -5 12 -206
10 -820 -2 -862 0 -958 23 -958 12 0 14 138 14 884 0 646 3 887 11 892 6 4 42
7 80 8 70 2 86 7 75 24 -6 10 -867 6 -894 -3 -33 -12 6 -25 74 -25 51 0 76 -4
79 -12 9 -28 14 -1268 4 -1268 -5 0 -9 14 -9 30 0 17 -4 38 -10 48 -9 16 -28
94 -34 137 -1 11 -9 21 -18 23 -19 4 -17 -52 2 -88 8 -14 13 -37 11 -51 -1
-14 5 -31 13 -38 10 -9 14 -22 10 -37 -4 -13 -1 -31 6 -39 11 -13 17 -43 35
-180 10 -68 9 -68 -202 -71 -103 -2 -202 -6 -219 -9 -44 -8 -57 12 -50 77 12
117 19 154 29 167 10 12 15 51 16 135 0 16 7 36 15 45 18 21 26 91 10 91 -11
0 -20 -27 -31 -102 -3 -21 -9 -38 -14 -38 -5 0 -9 142 -9 329 0 316 -1 330
-19 336 -23 7 -26 43 -30 311 -1 140 1 183 12 192 7 6 46 12 87 14 44 2 74 7
73 13 -2 6 -128 11 -347 13 l-344 2 -5 43 c-3 23 -5 391 -6 818 -1 758 0 777
19 794 11 10 17 22 14 26 -7 12 -91 12 -98 0z m12 -129 c10 -7 12 -169 10
-778 l-3 -769 -242 -3 -241 -2 -7 82 c-9 116 -2 1450 8 1466 6 9 64 12 235 12
125 0 233 -4 240 -8z"/>
<path d="M3478 3479 c-10 -5 -18 -17 -18 -24 0 -19 8 -19 27 1 9 9 26 14 40
11 12 -2 23 0 23 4 0 5 -6 9 -14 9 -8 0 -20 2 -28 5 -7 2 -21 0 -30 -6z"/>
<path d="M1401 3467 c-13 -16 -5 -27 21 -27 11 0 18 7 18 20 0 23 -22 27 -39
7z"/>
<path d="M1505 3460 c-8 -24 1 -40 21 -40 9 0 14 11 14 30 0 35 -25 42 -35 10z"/>
<path d="M1563 3413 c9 -2 23 -2 30 0 6 3 -1 5 -18 5 -16 0 -22 -2 -12 -5z"/>
<path d="M3540 3371 c0 -5 7 -14 15 -21 16 -14 18 -10 9 14 -6 17 -24 22 -24
7z"/>
<path d="M3545 3311 c-6 -11 9 -23 19 -14 9 9 7 23 -3 23 -6 0 -12 -4 -16 -9z"/>
<path d="M2395 3279 c-10 -32 8 -44 38 -24 20 13 30 14 46 5 26 -13 26 -18 3
-44 -23 -26 -47 -99 -39 -120 8 -21 37 -9 37 15 0 28 29 132 40 143 5 5 10 18
10 28 0 15 -9 18 -64 18 -57 0 -65 -3 -71 -21z"/>
<path d="M13 2863 c-18 -7 -16 -51 2 -69 23 -23 23 -955 0 -978 -8 -8 -15 -31
-15 -51 l0 -36 53 3 52 3 2 560 c2 432 0 561 -10 567 -13 8 -65 9 -84 1z"/>
<path d="M2961 1909 c-18 -19 -19 -25 -6 -48 8 -16 12 -47 9 -81 -5 -71 2 -92
29 -88 20 3 22 10 28 103 5 82 4 103 -9 118 -20 22 -27 22 -51 -4z"/>
<path d="M1891 1896 c-8 -15 -10 -29 -5 -38 5 -7 11 -49 14 -93 4 -72 7 -80
25 -80 18 0 21 8 25 80 3 44 9 85 13 92 11 17 -21 63 -42 63 -10 0 -23 -11
-30 -24z"/>
<path d="M2985 1573 c-11 -21 -33 -57 -49 -79 -32 -48 -28 -64 16 -64 21 0 31
-6 35 -20 3 -13 14 -20 28 -20 18 0 24 7 28 33 2 17 1 42 -4 55 -5 13 -9 48
-9 78 0 65 -16 71 -45 17z m9 -69 c3 -8 1 -25 -5 -36 -15 -27 -34 -8 -25 26 7
29 21 34 30 10z"/>
<path d="M1859 1579 c-23 -23 -22 -62 3 -67 12 -2 17 5 20 30 4 39 31 50 48
18 15 -29 7 -47 -50 -109 -28 -29 -50 -58 -50 -62 0 -5 31 -9 69 -9 55 0 70 3
75 17 9 22 -10 41 -26 25 -14 -14 -58 -16 -58 -4 0 5 20 29 45 54 49 50 57 84
27 111 -26 23 -78 21 -103 -4z"/>
<path d="M4053 1282 l-273 -2 0 -640 0 -640 40 0 40 0 -1 600 c0 329 2 603 5
608 3 5 103 9 223 8 l218 -1 6 -180 c4 -99 7 -215 8 -257 l1 -78 360 0 360 0
0 36 0 36 -319 -5 c-227 -4 -322 -2 -330 6 -7 7 -11 90 -11 259 0 207 -2 248
-14 248 -8 0 -20 1 -28 3 -7 1 -136 1 -285 -1z"/>
<path d="M1905 566 c-19 -14 -19 -15 -1 -34 14 -16 16 -28 10 -54 -4 -18 -8
-44 -9 -58 -2 -14 -6 -33 -10 -42 -6 -16 -1 -18 34 -18 40 0 53 11 30 26 -7 4
-10 38 -8 98 4 98 -4 113 -46 82z"/>
</g>
</svg>
