<?xml version="1.0" standalone="no"?>
<!DOCTYPE svg PUBLIC "-//W3C//DTD SVG 20010904//EN"
 "http://www.w3.org/TR/2001/REC-SVG-20010904/DTD/svg10.dtd">
<svg version="1.0" xmlns="http://www.w3.org/2000/svg"
 width="630.000000pt" height="500.000000pt" viewBox="0 0 630.000000 500.000000"
 preserveAspectRatio="xMidYMid meet">
<metadata>
Created by potrace 1.16, written by Peter Selinger 2001-2019
</metadata>
<g transform="translate(0.000000,500.000000) scale(0.100000,-0.100000)"
fill="#000000" stroke="none">
<path d="M200 4992 c0 -4 11 -19 25 -34 30 -32 31 -38 6 -38 -32 0 -39 -22
-36 -103 4 -83 20 -117 56 -117 25 0 69 -39 69 -62 0 -24 -5 -23 -47 9 -65 50
-85 7 -78 -171 3 -79 9 -114 20 -126 20 -22 19 -37 -4 -43 -18 -4 -19 -12 -16
-97 4 -97 10 -110 52 -110 22 0 73 -42 73 -60 0 -18 -24 -15 -46 7 -48 48 -72
26 -80 -71 l-7 -78 1186 4 c820 2 1189 0 1197 -8 7 -7 9 -189 8 -570 l-3 -559
-68 -3 c-43 -2 -74 2 -83 9 -11 9 -18 9 -26 1 -8 -8 -72 -12 -203 -12 -135 0
-195 -4 -203 -12 -7 -7 -12 -39 -12 -74 0 -52 -3 -64 -22 -76 -37 -25 -13 -38
67 -38 80 0 104 13 67 38 -24 16 -29 51 -10 70 9 9 88 12 295 12 l283 0 0 579
c0 516 2 581 16 595 14 14 48 16 257 14 l242 -3 3 -579 c1 -377 6 -583 12
-592 8 -9 81 -12 290 -12 154 0 284 -3 290 -7 5 -3 10 -17 10 -31 0 -17 -8
-27 -26 -34 -49 -19 -21 -35 65 -38 75 -3 82 -1 79 15 -2 10 -10 18 -18 18
-12 0 -16 18 -20 75 l-5 75 -284 3 c-189 1 -289 6 -298 13 -18 15 -19 744 -2
783 9 19 9 29 0 40 -8 9 -11 41 -9 86 2 73 13 96 30 66 5 -9 15 -16 22 -16 7
0 18 -11 24 -25 11 -24 42 -35 42 -15 0 6 7 10 15 10 17 0 57 20 67 35 13 17
-4 27 -38 21 -49 -10 -128 29 -148 72 -20 40 -20 56 -2 71 10 9 219 13 772 17
1048 8 968 6 972 26 2 12 -6 21 -23 28 -25 9 -26 13 -20 50 5 32 4 41 -10 46
-10 4 -21 1 -25 -7 -5 -7 -12 -11 -15 -7 -10 10 24 68 39 68 11 0 13 21 11 98
-3 116 -8 129 -43 129 -15 0 -40 1 -57 2 -31 2 -112 -12 -121 -22 -11 -10 12
-60 31 -71 11 -6 27 -20 37 -31 9 -11 17 -16 18 -11 0 11 30 -13 30 -25 0 -14
-36 -28 -58 -23 -11 3 -23 17 -26 30 -4 15 -19 29 -39 37 -27 12 -36 12 -57
-2 -14 -8 -28 -19 -31 -24 -7 -10 -49 9 -49 23 0 4 12 23 26 40 20 23 24 34
15 43 -6 6 -11 17 -11 24 0 16 42 17 57 2 14 -14 43 1 78 42 21 26 25 39 20
65 -7 39 3 47 50 38 24 -4 35 -12 35 -24 0 -9 16 -31 36 -49 33 -31 36 -32 49
-15 8 11 12 40 10 74 -2 44 -6 54 -19 52 -9 -2 -16 2 -16 8 0 5 4 10 8 10 5 0
14 25 21 56 10 43 10 59 1 68 -8 8 -15 6 -26 -8 -7 -11 -17 -16 -21 -12 -4 4
-2 15 5 24 7 9 15 24 19 32 4 8 11 18 16 22 30 20 10 235 -21 223 -8 -3 -21 0
-28 6 -8 6 -21 8 -31 3 -10 -4 -36 -6 -58 -5 -23 1 -48 -4 -60 -13 -19 -14
-19 -17 -5 -43 9 -16 24 -28 35 -28 13 0 21 -8 23 -22 2 -15 10 -23 22 -23 11
0 24 -9 30 -20 6 -12 21 -20 35 -20 14 0 25 -4 25 -10 0 -11 -43 -14 -53 -4
-10 11 -91 12 -111 1 -16 -8 -18 -7 -11 9 16 41 12 49 -35 52 -32 2 -48 -1
-56 -13 -10 -14 -15 -14 -33 -3 -26 16 -26 19 0 52 16 20 20 35 15 57 -7 38
15 49 54 25 33 -19 40 -20 40 -4 0 6 10 22 21 34 l21 23 -186 0 c-193 0 -204
-3 -170 -41 16 -16 16 -18 0 -24 -9 -3 -29 -3 -44 0 -15 4 -37 7 -49 7 -12 -1
-25 3 -28 8 -7 12 -115 2 -132 -12 -19 -14 -16 -52 7 -72 11 -10 20 -14 20 -9
0 5 6 -2 13 -16 7 -14 20 -24 30 -22 9 1 21 -7 27 -18 6 -11 20 -20 30 -20 11
0 20 -4 20 -10 0 -5 -9 -10 -20 -10 -11 0 -20 5 -20 11 0 6 -7 8 -16 5 -8 -3
-33 -3 -54 0 -32 5 -39 10 -37 28 2 18 -4 21 -42 24 -30 2 -49 -2 -62 -14 -19
-17 -21 -17 -40 2 -20 20 -20 20 6 50 26 30 33 54 15 54 -13 0 -13 27 0 35 6
3 26 1 45 -6 32 -12 37 -11 60 11 14 13 25 27 25 32 0 4 -83 8 -185 8 -193 0
-204 -3 -169 -41 15 -17 14 -19 -11 -25 -17 -4 -36 -2 -47 5 -10 6 -23 9 -28
6 -5 -3 -18 0 -29 7 -15 9 -23 9 -35 -1 -11 -9 -20 -10 -34 -2 -22 12 -76 -9
-85 -33 -7 -18 20 -56 39 -56 8 0 19 -11 24 -24 5 -14 19 -26 31 -28 32 -4 35
-26 5 -39 -24 -11 -29 -9 -59 23 -39 42 -83 63 -94 45 -15 -23 -49 -37 -62
-24 -16 16 -14 47 4 53 18 7 19 37 3 64 -19 29 -3 35 43 15 l40 -19 24 30 c13
16 24 32 25 37 0 13 -218 8 -224 -5 -5 -10 -7 -10 -12 0 -4 8 -28 12 -71 12
-58 0 -64 -2 -58 -17 17 -41 12 -48 -35 -48 -25 0 -50 3 -55 7 -6 3 -30 5 -55
3 -25 -1 -58 -3 -73 -4 -34 -1 -43 -22 -27 -61 8 -20 20 -30 33 -30 11 0 17
-3 14 -7 -11 -10 13 -33 34 -33 20 0 24 -16 10 -39 -8 -12 -14 -12 -43 2 -18
9 -39 25 -46 37 -9 15 -19 19 -32 15 -15 -5 -20 -2 -20 12 0 13 -2 15 -9 5
-16 -26 -61 -42 -81 -30 -17 11 -17 13 6 43 27 35 30 55 12 73 -9 9 -9 15 -1
23 9 9 18 8 37 -5 14 -9 31 -16 38 -16 13 0 68 49 68 62 0 4 -101 8 -225 8
-124 0 -225 -4 -225 -8 0 -5 14 -9 30 -9 34 0 66 -25 55 -43 -5 -8 -24 -9 -63
-4 -32 5 -72 7 -91 6 -18 -1 -40 3 -47 9 -10 8 -21 6 -44 -11 -16 -12 -30 -27
-30 -34 0 -18 40 -67 49 -61 5 2 13 -7 19 -20 7 -15 20 -25 32 -25 22 0 25 -7
11 -29 -14 -21 -81 4 -81 31 0 16 -5 19 -24 16 -18 -4 -26 0 -30 15 -5 20 -6
20 -31 -6 -18 -18 -36 -25 -56 -24 -16 1 -29 3 -29 5 0 10 31 61 45 72 14 12
14 14 -1 31 -31 35 7 52 51 23 23 -15 25 -14 54 18 17 18 31 36 31 40 0 4
-101 7 -225 7 -140 0 -225 -3 -225 -10 0 -5 13 -8 29 -7 31 2 61 -16 61 -38 0
-18 -18 -27 -38 -18 -9 4 -33 8 -52 9 -54 4 -64 9 -72 28 -8 18 -38 24 -38 7
0 -6 -16 -20 -35 -31 -19 -12 -35 -27 -35 -35 0 -22 30 -64 45 -64 8 0 17 -9
20 -20 4 -13 15 -20 31 -20 28 0 33 -24 7 -38 -23 -13 -58 4 -72 34 -6 13 -19
24 -30 24 -10 0 -26 10 -35 23 -15 20 -16 21 -14 2 2 -15 -3 -20 -19 -19 -13
0 -23 -5 -23 -13 0 -14 -10 -16 -34 -7 -21 8 -20 20 5 47 15 16 19 30 15 55
-5 36 15 55 37 33 18 -18 47 -13 78 16 16 16 29 31 29 35 0 5 -103 8 -230 8
-147 0 -230 -4 -230 -10 0 -5 12 -10 26 -10 33 0 64 -17 64 -36 0 -18 -24 -29
-42 -18 -7 5 -33 9 -57 11 -29 1 -50 9 -63 23 -22 24 -48 26 -48 4 0 -8 -13
-20 -30 -25 -19 -7 -30 -18 -30 -30 0 -31 22 -69 40 -69 10 0 20 -9 23 -19 2
-11 15 -21 28 -23 32 -4 35 -26 5 -34 -37 -9 -74 3 -72 22 1 13 -13 20 -56 29
-46 9 -58 9 -58 -1 0 -20 -13 -23 -39 -10 l-23 13 31 32 c33 33 37 46 21 56
-5 3 -10 13 -10 21 0 17 41 19 57 3 15 -15 45 2 73 41 l21 30 -230 0 c-147 0
-231 -4 -231 -10 0 -5 13 -10 29 -10 20 0 35 -8 45 -22 24 -33 20 -41 -16 -33
-18 3 -54 9 -80 12 -31 3 -48 10 -48 18 0 27 -21 26 -51 -4 -17 -17 -37 -31
-45 -31 -8 0 -14 -5 -14 -11 0 -34 68 -109 99 -109 23 0 28 -24 9 -37 -7 -4
-32 -7 -55 -8 -42 0 -54 7 -33 20 6 3 10 13 10 22 0 11 -7 14 -25 11 -14 -3
-25 -1 -25 3 0 13 -18 11 -57 -7 -32 -16 -36 -16 -51 -1 -15 15 -14 19 13 47
25 26 28 33 17 50 -25 41 -4 50 59 25 16 -6 79 46 79 66 0 5 -84 9 -200 9
-110 0 -200 -3 -200 -8z m3530 -222 c0 -5 -9 -10 -21 -10 -11 0 -17 5 -14 10
3 6 13 10 21 10 8 0 14 -4 14 -10z m60 0 c0 -5 -4 -10 -10 -10 -5 0 -10 5 -10
10 0 6 5 10 10 10 6 0 10 -4 10 -10z m-1865 -10 c3 -5 -1 -10 -9 -10 -9 0 -16
5 -16 10 0 6 4 10 9 10 6 0 13 -4 16 -10z m-602 -7 c-7 -2 -19 -2 -25 0 -7 3
-2 5 12 5 14 0 19 -2 13 -5z m3097 -24 c0 -6 11 -9 24 -7 16 2 31 -7 50 -29
30 -35 32 -48 11 -57 -8 -3 -15 -1 -15 3 0 5 -14 18 -32 29 -29 19 -35 19 -59
6 -16 -8 -33 -14 -39 -14 -7 0 -20 -10 -31 -22 -25 -31 -24 -7 1 25 11 14 20
30 20 36 0 6 6 11 14 11 7 0 19 7 26 15 15 17 30 20 30 4z m-1195 -9 c4 -6 15
-10 24 -8 21 3 76 -56 66 -72 -9 -14 -35 -12 -35 3 0 7 -9 18 -21 25 -16 10
-27 10 -57 0 -20 -6 -41 -16 -46 -20 -6 -4 -17 -8 -25 -8 -14 1 -13 3 2 14 9
7 17 25 17 39 0 20 4 24 19 20 10 -3 22 0 25 6 9 14 23 14 31 1z m600 -1 c4
-5 14 -9 23 -7 21 4 64 -39 60 -60 -4 -19 -28 -29 -28 -11 0 6 -8 18 -17 25
-21 16 -63 18 -63 4 0 -5 -10 -10 -23 -10 -13 0 -33 -9 -45 -20 -27 -26 -29
-11 -2 23 11 14 20 33 20 42 0 9 4 14 8 11 4 -2 14 -1 22 5 20 12 37 11 45 -2z
m-2973 -13 c10 -1 29 -15 43 -30 43 -47 27 -63 -25 -25 -24 18 -33 20 -57 11
-51 -19 -77 -8 -55 24 12 19 46 34 62 27 8 -3 23 -6 32 -7z m1200 0 c22 -3 68
-45 68 -63 0 -18 -17 -16 -24 3 -4 9 -9 14 -13 10 -3 -3 -14 1 -23 9 -16 14
-21 14 -54 -1 -27 -13 -39 -15 -47 -7 -16 16 38 66 60 57 9 -4 24 -7 33 -8z
m630 -15 c4 -11 12 -21 18 -21 5 0 10 -9 10 -20 0 -29 -6 -27 -56 19 -13 11
-20 12 -35 3 -23 -14 -69 -16 -69 -2 0 5 10 18 22 29 29 28 98 23 110 -8z
m-1189 -11 c30 -26 36 -50 12 -50 -8 0 -15 3 -15 8 0 4 -14 15 -31 24 -27 16
-33 16 -52 3 -12 -8 -27 -15 -34 -15 -17 0 -17 47 0 54 29 12 93 -1 120 -24z
m1361 -81 c15 -16 31 -29 36 -29 6 0 10 -7 10 -15 0 -7 7 -18 16 -23 9 -5 14
-14 10 -21 -14 -21 -44 -11 -84 29 -22 22 -44 40 -50 40 -14 0 -22 36 -10 48
15 15 44 3 72 -29z m629 -21 c43 -46 46 -54 32 -64 -13 -10 -22 -9 -46 4 -16
10 -29 21 -29 25 0 5 -16 23 -35 41 -45 43 -46 61 -3 52 22 -4 49 -24 81 -58z
m558 36 c13 -14 35 -30 48 -35 13 -5 21 -12 17 -16 -3 -3 1 -14 10 -24 23 -25
1 -34 -52 -19 -32 9 -44 18 -44 32 0 10 -11 24 -25 30 -40 18 -32 47 16 57 3
0 16 -11 30 -25z m628 -24 c27 -27 54 -50 60 -50 21 0 11 -20 -13 -26 -28 -7
-86 22 -86 43 0 7 -4 13 -8 13 -14 0 -52 40 -52 55 0 33 50 15 99 -35z m-3589
-19 c64 -59 65 -59 40 -69 -18 -7 -29 -6 -41 4 -8 8 -21 14 -27 14 -7 0 -12 7
-12 15 0 8 -13 21 -30 30 -21 11 -30 23 -30 40 0 40 29 30 100 -34z m575 29
c16 -16 34 -30 41 -30 6 0 15 -11 18 -25 4 -14 11 -25 17 -25 6 0 7 -4 4 -10
-15 -24 -95 3 -95 33 0 9 -11 22 -24 29 -26 11 -40 34 -30 49 11 18 41 9 69
-21z m622 -26 c56 -49 62 -59 50 -71 -12 -13 -19 -12 -52 6 -21 11 -42 26 -47
33 -6 10 -8 10 -8 1 0 -7 -4 -13 -9 -13 -5 0 -7 8 -4 18 2 10 -3 24 -11 31
-21 18 -21 51 0 51 9 0 46 -25 81 -56z m-1799 5 c23 -23 42 -45 42 -49 0 -5 8
-10 18 -13 34 -8 -15 -20 -54 -13 -24 5 -38 14 -44 32 -5 13 -16 24 -24 24
-19 0 -39 27 -32 45 10 27 50 16 94 -26z m2872 -44 c-7 -14 -17 -25 -22 -25
-15 0 -8 39 9 49 25 13 29 5 13 -24z m610 22 c0 -14 -20 -37 -32 -37 -13 0 -9
38 5 43 21 9 27 7 27 -6z m600 -7 c0 -11 -2 -20 -4 -20 -2 0 -11 -3 -20 -6
-19 -7 -22 16 -4 34 18 18 28 15 28 -8z m-2409 -33 c-17 -17 -24 -1 -10 25 12
21 14 21 17 4 2 -10 -1 -23 -7 -29z m609 23 c0 -22 16 -27 23 -7 2 6 8 9 12 5
4 -4 0 -14 -8 -23 -10 -10 -18 -11 -22 -5 -4 6 -15 8 -26 5 -22 -7 -26 14 -7
33 18 18 28 15 28 -8z m-2395 0 c8 -13 -13 -40 -31 -40 -17 0 -18 22 -2 38 15
15 25 15 33 2z m55 -11 c0 -5 -4 -9 -10 -9 -5 0 -10 7 -10 16 0 8 5 12 10 9 6
-3 10 -10 10 -16z m540 6 c0 -16 -27 -32 -37 -21 -7 7 16 36 28 36 5 0 9 -7 9
-15z m600 0 c0 -8 -2 -15 -4 -15 -2 0 -12 -3 -21 -7 -15 -5 -16 -3 -6 15 13
25 31 29 31 7z m2440 5 c0 -5 -4 -10 -10 -10 -5 0 -10 5 -10 10 0 6 5 10 10
10 6 0 10 -4 10 -10z m844 4 c27 -11 17 -22 -16 -19 -49 4 -49 4 -1 24 1 1 8
-2 17 -5z m-1244 -14 c0 -5 -7 -10 -16 -10 -8 0 -12 5 -9 10 3 6 10 10 16 10
5 0 9 -4 9 -10z m55 0 c-3 -5 -13 -10 -21 -10 -8 0 -12 5 -9 10 3 6 13 10 21
10 8 0 12 -4 9 -10z m563 -1 c-2 -6 -7 -10 -11 -10 -4 1 -14 1 -23 1 -8 0 -12
5 -9 10 8 13 48 13 43 -1z m42 1 c0 -5 -4 -10 -10 -10 -5 0 -10 5 -10 10 0 6
5 10 10 10 6 0 10 -4 10 -10z m120 1 c0 -6 -18 -9 -39 -8 -22 0 -37 5 -35 9 7
11 74 10 74 -1z m-3780 -21 c0 -5 -4 -10 -9 -10 -6 0 -13 5 -16 10 -3 6 1 10
9 10 9 0 16 -4 16 -10z m3258 -29 c3 -8 -1 -12 -9 -9 -7 2 -15 10 -17 17 -3 8
1 12 9 9 7 -2 15 -10 17 -17z m389 -4 c12 -7 36 -32 53 -55 24 -34 36 -43 52
-38 13 3 33 -3 51 -16 28 -20 29 -22 10 -29 -11 -4 -55 -3 -97 3 -67 10 -76
14 -77 32 -1 18 -2 18 -8 -4 -4 -14 -13 -25 -21 -26 -23 -1 -60 -15 -60 -22 1
-28 16 -55 37 -63 13 -5 28 -20 33 -34 6 -16 14 -23 25 -19 20 8 20 -19 0 -36
-12 -10 -18 -10 -29 -1 -10 8 -16 9 -21 1 -11 -18 -25 0 -19 24 4 17 0 25 -13
29 -10 4 -26 12 -37 19 -15 10 -20 10 -23 1 -3 -7 -9 -13 -15 -13 -6 0 -17 -8
-24 -17 -10 -14 -17 -16 -30 -7 -27 16 -27 29 2 63 21 25 24 34 14 46 -6 8 -9
19 -5 25 8 13 42 13 50 0 11 -18 31 -10 69 28 33 32 37 41 33 74 -7 51 6 60
50 35z m-2402 -7 c3 -5 15 -10 26 -10 10 0 19 -6 19 -14 0 -27 50 -76 78 -76
15 -1 41 -12 57 -25 l30 -25 -35 0 c-31 0 -61 6 -148 25 -13 3 -20 10 -17 15
3 5 1 11 -4 14 -5 3 -11 -1 -15 -9 -3 -8 -21 -23 -41 -32 -48 -23 -47 -75 1
-94 13 -4 24 -15 24 -24 0 -8 11 -17 26 -21 16 -4 24 -12 22 -23 -5 -26 -33
-24 -64 7 -41 40 -82 64 -89 52 -3 -6 -17 -10 -31 -10 -18 0 -24 -5 -24 -22 0
-20 -1 -20 -18 -5 -10 10 -22 14 -27 10 -4 -5 0 7 9 25 9 17 20 32 25 32 17 0
21 33 6 50 -28 30 14 43 47 14 17 -16 20 -14 64 29 42 42 46 50 40 81 -5 23
-3 36 6 39 20 8 26 8 33 -3z m1243 -39 c33 -38 49 -50 81 -55 27 -4 44 -13 52
-28 11 -21 10 -21 -42 -15 -30 4 -69 7 -86 7 -22 0 -33 5 -33 14 0 8 -4 17 -9
21 -12 7 -100 -55 -100 -71 -1 -17 39 -64 54 -64 7 0 15 -9 18 -20 3 -12 14
-20 27 -20 15 0 20 -5 18 -17 -6 -30 -43 -27 -77 6 -18 17 -38 31 -46 31 -8 0
-15 5 -15 10 0 6 -8 6 -22 -1 -47 -25 -58 -29 -72 -29 -27 0 -28 22 -2 49 27
28 33 55 16 66 -34 21 14 34 52 14 17 -9 26 -5 60 28 35 34 39 42 35 75 -5 37
1 46 34 47 9 1 34 -21 57 -48z m606 -3 c25 -38 37 -47 61 -48 36 0 97 -37 75
-44 -41 -12 -62 -13 -66 -3 -10 26 -214 12 -214 -14 0 -23 31 -67 50 -72 12
-3 20 -13 20 -27 0 -18 4 -21 25 -18 17 4 25 1 25 -8 0 -18 -29 -31 -65 -29
-26 2 -30 5 -27 26 2 20 -4 28 -33 42 -43 20 -46 21 -42 5 1 -7 -6 -13 -16
-13 -10 0 -22 -7 -27 -15 -8 -13 -11 -13 -26 1 -15 16 -14 19 7 48 20 28 22
35 10 53 -7 11 -9 24 -4 29 10 10 53 0 53 -13 0 -17 42 4 71 36 22 24 28 41
29 74 0 43 1 43 32 40 25 -2 38 -13 62 -50z m-3035 36 c20 -4 31 -13 31 -23 0
-9 13 -31 30 -49 24 -26 34 -31 55 -26 19 5 30 1 40 -12 24 -32 17 -37 -42
-29 -32 4 -68 9 -81 10 -12 1 -29 10 -37 21 -8 11 -15 14 -15 7 0 -7 -6 -13
-14 -13 -8 0 -16 -7 -20 -15 -3 -8 -15 -15 -26 -15 -14 0 -20 -6 -20 -22 1
-26 22 -58 39 -58 6 0 16 -11 21 -25 8 -22 21 -31 34 -22 2 1 12 -5 22 -14 11
-9 28 -20 39 -24 20 -8 20 -8 0 -13 -10 -2 -21 1 -23 7 -5 15 -29 14 -35 -1
-4 -10 -7 -10 -18 0 -7 6 -21 12 -31 12 -10 0 -18 4 -18 9 0 11 -58 71 -69 71
-5 0 -11 -9 -14 -21 -3 -12 -12 -19 -19 -17 -7 3 -17 -1 -23 -8 -12 -17 -55
-7 -55 11 0 7 3 15 8 17 4 2 17 16 29 31 21 27 21 30 7 53 -15 22 -15 24 1 30
10 4 26 2 36 -4 32 -20 53 -13 87 29 26 31 32 46 28 65 -11 42 -1 49 53 38z
m598 -6 c18 -7 33 -16 33 -22 0 -21 54 -66 79 -66 24 -1 71 -30 71 -44 0 -9
-60 -7 -110 5 -25 6 -55 20 -68 32 l-23 21 -22 -26 c-12 -14 -32 -31 -44 -37
-19 -10 -21 -15 -11 -42 6 -17 21 -34 34 -39 13 -5 24 -16 24 -25 0 -8 11 -17
26 -21 16 -4 24 -12 22 -23 -6 -30 -35 -22 -89 23 -40 33 -55 41 -57 30 -3
-11 -11 -14 -33 -9 -22 5 -29 3 -29 -9 0 -18 -2 -19 -24 -10 -23 9 -20 28 9
62 22 26 23 31 10 42 -23 19 -18 40 9 40 14 0 28 -4 31 -10 14 -22 51 -8 83
32 28 35 32 47 27 75 -7 37 0 40 52 21z m1243 -38 c32 -35 54 -50 75 -52 31
-3 45 -14 45 -35 0 -14 -42 -18 -54 -6 -4 4 -25 8 -47 9 -26 1 -49 10 -64 24
-22 21 -23 21 -36 2 -8 -10 -24 -24 -36 -31 -34 -17 -29 -55 11 -95 18 -19 43
-37 55 -41 32 -10 26 -35 -9 -35 -21 0 -36 8 -52 30 -12 17 -30 30 -39 30 -10
0 -19 5 -21 12 -3 8 -17 2 -41 -16 -61 -47 -98 -22 -51 34 23 27 26 35 16 51
-7 10 -12 23 -12 29 0 16 42 12 62 -7 18 -16 21 -15 58 26 32 35 40 51 40 82
0 36 2 39 28 39 20 0 39 -13 72 -50z m2260 10 c0 -5 -4 -10 -10 -10 -5 0 -10
5 -10 10 0 6 5 10 10 10 6 0 10 -4 10 -10z m-940 -220 c0 -5 -4 -10 -10 -10
-5 0 -10 5 -10 10 0 6 5 10 10 10 6 0 10 -4 10 -10z m140 0 c0 -5 -4 -10 -10
-10 -5 0 -10 5 -10 10 0 6 5 10 10 10 6 0 10 -4 10 -10z m960 -40 c0 -5 -10
-10 -22 -10 -19 0 -20 2 -8 10 19 13 30 13 30 0z m-1210 -4 c0 -11 -19 -15
-25 -6 -3 5 1 10 9 10 9 0 16 -2 16 -4z m590 -6 c0 -5 -4 -10 -10 -10 -5 0
-10 5 -10 10 0 6 5 10 10 10 6 0 10 -4 10 -10z m-2980 -10 c0 -5 -7 -10 -15
-10 -8 0 -15 5 -15 10 0 6 7 10 15 10 8 0 15 -4 15 -10z m80 0 c0 -5 -4 -10
-10 -10 -5 0 -10 5 -10 10 0 6 5 10 10 10 6 0 10 -4 10 -10z m515 0 c3 -5 -1
-10 -10 -10 -9 0 -13 5 -10 10 3 6 8 10 10 10 2 0 7 -4 10 -10z m595 6 c0 -11
-19 -15 -25 -6 -3 5 1 10 9 10 9 0 16 -2 16 -4z m1983 -67 c49 -51 32 -65 -29
-24 -24 16 -44 23 -53 19 -9 -4 -28 -7 -43 -7 -17 0 -28 -6 -31 -18 -3 -11
-11 -19 -17 -19 -9 0 -7 8 4 25 9 13 16 32 16 41 0 9 6 14 13 11 8 -3 20 -1
27 3 24 15 84 -2 113 -31z m-1206 2 c31 -23 34 -37 12 -57 -18 -16 -19 -16
-19 1 0 34 -68 62 -85 35 -3 -5 -17 -10 -29 -10 -13 0 -29 -7 -36 -15 -7 -8
-16 -15 -21 -15 -4 0 3 11 16 25 14 13 25 28 25 33 0 32 94 34 137 3z m597 -1
c26 -25 34 -50 16 -50 -5 0 -19 9 -31 21 -18 18 -28 20 -70 14 -45 -6 -49 -5
-49 13 0 39 93 40 134 2z m-2988 -15 c23 -22 32 -45 17 -45 -5 0 -21 9 -38 20
-34 22 -65 26 -82 9 -14 -14 -43 -5 -43 14 0 40 103 42 146 2z m600 2 c27 -23
32 -47 9 -47 -8 0 -15 4 -15 10 0 5 -13 16 -30 25 -31 16 -64 9 -103 -24 -25
-21 -40 -1 -19 25 10 11 26 26 37 32 27 16 92 5 121 -21z m599 0 c38 -35 25
-46 -25 -20 -39 21 -40 21 -88 4 l-49 -18 13 25 c18 35 33 43 80 39 27 -2 50
-12 69 -30z m590 9 c48 -41 25 -62 -27 -25 -25 18 -34 20 -54 10 -14 -6 -34
-11 -44 -11 -11 0 -20 -4 -20 -10 0 -5 -4 -10 -9 -10 -5 0 -1 16 7 35 16 34
18 35 69 34 38 -2 61 -8 78 -23z m1037 -48 c-7 -7 -12 -8 -12 -2 0 6 3 14 7
17 3 4 9 5 12 2 2 -3 -1 -11 -7 -17z m963 -42 c19 -7 19 -8 2 -21 -29 -21
-111 4 -115 35 -3 15 3 29 14 37 16 11 22 9 48 -16 17 -15 40 -31 51 -35z
m-643 24 c18 -16 38 -30 45 -30 7 0 10 -7 7 -15 -6 -15 -64 -21 -77 -8 -11 11
-57 12 -57 2 0 -6 -5 -7 -11 -4 -7 5 -5 13 5 24 9 10 16 24 16 33 0 38 29 37
72 -2z m-3576 -31 c31 -32 35 -39 21 -45 -39 -15 -117 47 -103 81 8 21 40 7
82 -36z m584 14 c22 -21 40 -41 40 -44 0 -17 -42 -15 -65 2 -13 11 -28 19 -32
17 -4 -2 -9 12 -11 30 -4 44 17 42 68 -5z m603 -2 c34 -32 40 -42 29 -53 -10
-10 -16 -10 -30 0 -9 7 -24 15 -33 18 -19 7 -42 51 -34 65 11 16 25 10 68 -30z
m594 5 c32 -29 35 -36 24 -50 -7 -9 -18 -16 -23 -16 -17 0 -68 61 -68 81 0 29
26 23 67 -15z m603 -1 c26 -27 31 -38 22 -47 -9 -9 -18 -9 -37 0 -14 7 -34 12
-45 12 -18 0 -19 11 -4 58 6 21 29 13 64 -23z m607 2 c37 -34 38 -57 4 -57
-10 0 -24 7 -31 15 -7 8 -19 15 -26 15 -8 0 -19 12 -24 26 -13 34 -13 34 15
34 15 0 41 -14 62 -33z"/>
<path d="M5284 4153 c4 -467 6 -1592 6 -2500 l0 -1653 55 0 54 0 0 2500 0
2500 -60 0 -60 0 5 -847z"/>
<path d="M6038 4913 c-2 -49 0 -254 3 -458 4 -291 2 -1271 -5 -2245 0 -47 0
-563 2 -1147 l2 -1063 131 0 132 0 -8 338 c-5 185 -7 407 -4 492 5 179 4 1035
-1 1250 -2 80 -1 663 2 1295 2 633 1 1166 -4 1185 -4 19 -13 126 -20 238 l-12
202 -107 0 -108 0 -3 -87z"/>
<path d="M62 4748 c3 -7 13 -15 22 -16 12 -3 17 1 14 10 -3 7 -13 15 -22 16
-12 3 -17 -1 -14 -10z"/>
<path d="M990 3830 c0 -5 7 -10 16 -10 8 0 12 5 9 10 -3 6 -10 10 -16 10 -5 0
-9 -4 -9 -10z"/>
<path d="M1050 3831 c0 -20 13 -41 21 -35 14 8 11 31 -6 38 -8 3 -15 1 -15 -3z"/>
<path d="M4220 3814 c0 -8 5 -12 10 -9 6 3 10 10 10 16 0 5 -4 9 -10 9 -5 0
-10 -7 -10 -16z"/>
<path d="M1565 3810 c3 -5 13 -10 21 -10 8 0 12 5 9 10 -3 6 -13 10 -21 10 -8
0 -12 -4 -9 -10z"/>
<path d="M1475 3800 c-9 -14 22 -73 55 -105 27 -26 31 -27 62 -15 77 32 108
77 46 68 -40 -6 -83 7 -125 38 -19 14 -34 20 -38 14z"/>
<path d="M4000 3803 c0 -17 -40 -27 -53 -14 -17 17 -44 13 -51 -6 -8 -20 21
-46 42 -38 8 3 24 5 37 5 29 0 53 36 36 53 -8 8 -11 8 -11 0z"/>
<path d="M4505 3794 c-15 -16 -15 -18 2 -34 24 -23 89 -16 104 12 15 28 4 34
-26 14 -23 -15 -25 -15 -37 4 -15 24 -22 25 -43 4z"/>
<path d="M918 3789 c-22 -12 -23 -45 -2 -53 24 -9 95 5 101 21 8 22 -6 29 -29
14 -19 -12 -23 -11 -37 7 -12 16 -20 19 -33 11z"/>
<path d="M2084 3745 c-10 -26 9 -37 40 -25 34 12 29 34 -7 38 -18 2 -29 -2
-33 -13z"/>
<path d="M290 3736 c-10 -13 -9 -17 3 -22 24 -9 52 0 52 16 0 21 -39 24 -55 6z"/>
<path d="M4154 3742 c-6 -4 -13 -15 -17 -24 -3 -10 -16 -18 -27 -18 -16 0 -20
-7 -21 -35 -1 -19 -2 -41 -3 -47 -1 -8 10 -13 26 -13 15 0 39 -12 55 -27 36
-35 43 -35 78 2 16 17 39 30 52 30 16 0 23 6 23 20 0 11 -5 20 -11 20 -6 0
-23 13 -38 29 -35 38 -84 33 -101 -10 -16 -38 -30 -37 -30 1 0 23 4 30 20 30
15 0 20 7 20 25 0 26 -7 30 -26 17z m84 -99 c-2 -22 -9 -29 -30 -31 -32 -4
-34 0 -12 33 22 34 46 33 42 -2z"/>
<path d="M4747 3739 c-9 -6 -17 -17 -17 -24 0 -9 -9 -15 -21 -15 -18 0 -21 -4
-16 -30 4 -16 2 -32 -3 -35 -6 -3 -10 -13 -10 -21 0 -16 31 -19 46 -4 7 7 20
0 39 -20 35 -37 45 -37 84 -4 17 14 39 27 48 28 10 2 18 11 18 21 0 29 -65 27
-76 -2 -8 -22 -42 -32 -53 -15 -3 5 4 23 15 41 11 18 17 36 14 41 -9 15 -44
-2 -47 -23 -4 -30 -28 -34 -28 -4 0 16 7 26 20 30 20 5 28 31 12 41 -4 2 -15
0 -25 -5z"/>
<path d="M2375 3730 c-12 -4 -27 -15 -34 -24 -10 -12 -17 -14 -27 -5 -10 8
-14 8 -14 0 0 -6 5 -11 10 -11 6 0 10 -7 10 -15 0 -20 -27 -19 -38 1 -6 11
-16 14 -30 10 -17 -6 -20 -12 -15 -44 3 -20 9 -39 12 -42 3 -3 6 -31 6 -64 0
-63 17 -84 41 -52 6 10 18 16 26 15 32 -7 138 83 138 118 0 9 7 24 16 34 12
14 13 22 4 39 l-11 21 -19 -24 c-23 -29 -69 -41 -77 -20 -3 8 4 25 16 37 25
26 18 38 -14 26z m-23 -137 c26 -23 23 -53 -5 -53 -13 0 -31 6 -42 13 -17 14
-17 15 1 35 24 25 24 25 46 5z"/>
<path d="M567 3715 c-8 -7 -26 -17 -41 -21 -14 -3 -26 -9 -26 -13 0 -3 -29 -5
-63 -4 -52 2 -68 -1 -85 -18 -40 -37 -18 -89 37 -89 39 0 45 10 21 35 -24 25
-18 55 11 55 14 0 21 -9 26 -30 3 -16 9 -30 12 -30 4 0 5 -26 3 -59 -4 -49 -1
-59 14 -65 9 -4 22 -2 28 4 5 5 21 10 34 10 14 0 38 14 58 35 18 19 38 35 43
35 11 0 21 25 21 51 0 11 7 22 15 25 19 8 20 44 1 44 -8 0 -16 -4 -18 -9 -1
-4 -20 -11 -40 -15 -34 -6 -38 -5 -38 13 0 11 9 25 20 31 11 6 20 15 20 20 0
15 -37 12 -53 -5z m-1 -130 c31 -48 1 -63 -63 -32 -25 11 -32 33 -8 23 9 -3
19 3 25 14 14 27 26 25 46 -5z"/>
<path d="M1157 3713 c-12 -11 -8 -23 8 -23 8 0 15 7 15 15 0 16 -12 20 -23 8z"/>
<path d="M1213 3690 c-17 -8 -36 -25 -42 -37 -14 -30 -31 -29 -31 1 0 27 -29
44 -42 24 -11 -18 -10 -70 2 -88 7 -12 12 -12 21 -3 10 10 20 6 46 -18 l35
-30 31 20 c18 12 47 28 66 36 27 13 32 20 27 38 -3 12 -6 25 -6 30 0 16 -18 6
-23 -13 -7 -29 -32 -16 -43 23 -9 32 -9 32 -41 17z m27 -50 c0 -33 -3 -40 -19
-40 -11 0 -22 4 -25 8 -4 7 31 72 40 72 2 0 4 -18 4 -40z"/>
<path d="M4840 3691 c0 -6 5 -13 10 -16 6 -3 10 1 10 9 0 9 -4 16 -10 16 -5 0
-10 -4 -10 -9z"/>
<path d="M2163 3674 c-35 -17 -41 -40 -23 -75 8 -14 21 -19 55 -19 52 0 56 8
15 32 -30 17 -33 48 -4 48 8 0 14 7 14 15 0 19 -17 19 -57 -1z"/>
<path d="M3445 3660 c3 -5 10 -10 16 -10 5 0 9 5 9 10 0 6 -7 10 -16 10 -8 0
-12 -4 -9 -10z"/>
<path d="M3997 3650 c-3 -12 -14 -20 -26 -20 -14 0 -21 -6 -21 -20 0 -11 -9
-29 -21 -41 -14 -14 -19 -28 -15 -44 6 -24 38 -43 44 -26 2 6 19 11 37 11 25
0 38 7 59 34 20 27 23 35 11 40 -8 3 -23 23 -35 46 -23 46 -26 47 -33 20z m8
-70 c3 -6 -1 -13 -10 -16 -19 -8 -30 0 -20 15 8 14 22 14 30 1z m-45 -30 c0
-5 -4 -10 -10 -10 -5 0 -10 5 -10 10 0 6 5 10 10 10 6 0 10 -4 10 -10z"/>
<path d="M4600 3656 c0 -8 -13 -24 -30 -36 -16 -12 -30 -28 -30 -36 0 -16 26
-19 35 -4 3 6 13 10 21 10 12 0 13 -4 4 -21 -7 -11 -14 -18 -17 -15 -4 3 -13
1 -20 -6 -11 -9 -16 -9 -23 2 -8 13 -40 7 -40 -7 0 -4 7 -16 15 -27 11 -14 20
-17 42 -10 15 4 38 8 49 9 12 0 33 14 47 30 30 35 33 45 12 45 -8 0 -23 18
-32 40 -18 40 -33 52 -33 26z"/>
<path d="M978 3623 c-16 -20 -28 -42 -28 -50 0 -7 -7 -13 -16 -13 -12 0 -14
-9 -12 -37 3 -43 31 -57 52 -27 13 17 15 16 55 -4 22 -12 41 -17 41 -12 0 6
-7 13 -15 16 -21 8 -19 20 6 43 l22 20 -26 30 c-14 17 -28 40 -32 51 -9 27
-16 25 -47 -17z m32 -58 c0 -12 -47 -45 -65 -45 -17 0 -1 31 23 43 36 20 42
20 42 2z"/>
<path d="M3870 3650 c0 -5 7 -10 16 -10 8 0 12 5 9 10 -3 6 -10 10 -16 10 -5
0 -9 -4 -9 -10z"/>
<path d="M876 3641 c-3 -5 1 -14 9 -21 12 -10 15 -10 15 3 0 19 -16 31 -24 18z"/>
<path d="M1730 3581 c0 -10 22 -31 32 -31 17 0 7 28 -12 33 -11 3 -20 2 -20
-2z"/>
<path d="M3540 3570 c13 -23 20 -26 20 -6 0 8 -7 16 -15 20 -13 4 -14 2 -5
-14z"/>
<path d="M3620 3562 c0 -11 -7 -22 -15 -25 -19 -8 -47 -76 -39 -99 6 -20 5
-20 56 -23 43 -2 63 14 55 46 -3 12 0 22 9 26 16 6 19 29 5 38 -9 5 -33 -29
-47 -68 -8 -21 -23 -18 -38 7 -9 13 -7 19 6 27 9 5 14 17 11 28 -3 13 2 20 17
24 25 6 22 30 -3 35 -11 2 -17 -3 -17 -16z"/>
<path d="M1832 3554 c4 -21 22 -23 26 -1 2 10 -3 17 -13 17 -10 0 -15 -6 -13
-16z"/>
<path d="M1540 3545 c-10 -12 -11 -21 -3 -33 16 -27 86 -62 108 -55 28 8 74
46 74 61 1 17 -16 15 -27 -4 -6 -11 -20 -14 -47 -12 -32 2 -40 7 -45 28 -7 30
-41 38 -60 15z"/>
<path d="M3323 3543 c-11 -28 86 -95 113 -78 25 16 21 28 -13 37 -26 7 -33 14
-33 33 0 21 -5 25 -30 25 -19 0 -33 -6 -37 -17z"/>
<path d="M3825 3540 c-8 -14 3 -30 21 -30 8 0 14 9 14 20 0 21 -24 28 -35 10z"/>
<path d="M4423 3535 c-18 -20 -16 -25 12 -25 18 0 25 5 25 20 0 23 -19 26 -37
5z"/>
<path d="M680 3512 c0 -21 18 -42 37 -42 19 0 16 24 -5 43 -24 22 -32 21 -32
-1z"/>
<path d="M830 3516 c0 -10 9 -16 21 -16 24 0 21 23 -4 28 -10 2 -17 -3 -17
-12z"/>
<path d="M1786 3496 c-22 -46 -20 -63 9 -82 33 -22 79 -7 83 27 2 13 11 32 19
41 8 9 12 22 8 27 -11 19 -25 12 -25 -14 0 -15 -6 -25 -14 -25 -7 0 -16 -10
-20 -22 l-5 -23 -23 22 c-21 22 -22 23 -3 36 11 9 16 20 12 31 -10 25 -23 19
-41 -18z"/>
<path d="M2470 3511 c0 -11 9 -23 21 -26 27 -9 33 -1 19 24 -14 26 -40 27 -40
2z"/>
<path d="M265 3430 c-3 -6 -3 -19 0 -31 5 -16 14 -19 38 -17 18 2 31 8 30 13
-2 6 -7 10 -11 10 -5 0 -16 8 -26 18 -20 20 -23 20 -31 7z"/>
<path d="M2065 3420 c-11 -18 16 -40 47 -40 23 0 29 4 26 18 -2 10 -11 16 -21
14 -9 -2 -17 2 -17 8 0 13 -27 13 -35 0z"/>
<path d="M4520 3245 c0 -8 5 -15 10 -15 6 0 10 7 10 15 0 8 -4 15 -10 15 -5 0
-10 -7 -10 -15z"/>
<path d="M2080 3189 c0 -28 18 -59 35 -59 7 0 17 -9 20 -20 8 -25 42 -26 89
-2 44 21 48 44 7 36 -29 -6 -91 14 -91 28 0 5 -9 8 -20 8 -11 0 -20 7 -20 15
0 8 -4 15 -10 15 -5 0 -10 -9 -10 -21z"/>
<path d="M4474 3179 c3 -17 6 -35 6 -40 0 -5 6 -9 13 -9 7 0 20 -9 30 -20 21
-25 32 -25 86 3 59 30 61 42 6 45 -27 1 -64 12 -91 27 -24 14 -47 25 -51 25
-3 0 -3 -14 1 -31z"/>
<path d="M2340 2976 c0 -8 5 -18 10 -21 6 -3 10 1 10 9 0 8 -4 18 -10 21 -5 3
-10 -1 -10 -9z"/>
<path d="M4820 2970 c0 -19 20 -27 33 -13 8 7 -11 33 -24 33 -5 0 -9 -9 -9
-20z"/>
<path d="M2423 2960 c-3 -10 -16 -26 -30 -35 -14 -9 -22 -19 -19 -22 3 -3 1
-14 -5 -25 -6 -11 -8 -31 -5 -44 6 -21 12 -24 50 -24 48 0 78 22 58 42 -9 9
-15 9 -24 0 -7 -7 -17 -12 -24 -12 -17 0 -27 31 -14 44 5 5 10 18 10 27 0 9 7
22 15 29 17 14 20 40 4 40 -6 0 -13 -9 -16 -20z"/>
<path d="M4536 2965 c-22 -22 -20 -38 7 -61 44 -39 74 -49 102 -34 28 15 17
30 -21 30 -28 0 -45 21 -42 51 4 29 -23 37 -46 14z"/>
<path d="M4740 2970 c0 -5 5 -10 10 -10 6 0 10 5 10 10 0 6 -4 10 -10 10 -5 0
-10 -4 -10 -10z"/>
<path d="M2142 2948 c-19 -19 -14 -35 21 -61 44 -33 64 -39 87 -24 26 15 25
27 -1 27 -35 0 -60 19 -57 43 3 26 -29 36 -50 15z"/>
<path d="M2296 2931 c-4 -7 -5 -15 -2 -18 9 -9 19 4 14 18 -4 11 -6 11 -12 0z"/>
<path d="M4680 2924 c0 -9 5 -14 12 -12 18 6 21 28 4 28 -9 0 -16 -7 -16 -16z"/>
<path d="M4788 2933 c-11 -3 -19 -19 -24 -50 -9 -59 8 -77 60 -67 40 7 56 28
37 47 -8 8 -14 6 -24 -7 -12 -16 -14 -16 -26 -2 -11 13 -11 22 -2 42 6 14 11
29 11 34 0 10 -4 11 -32 3z"/>
<path d="M4860 2907 c0 -21 12 -28 27 -16 19 16 16 29 -7 29 -11 0 -20 -6 -20
-13z"/>
<path d="M2470 2900 c0 -5 7 -10 15 -10 8 0 15 5 15 10 0 6 -7 10 -15 10 -8 0
-15 -4 -15 -10z"/>
<path d="M1758 2668 c-31 -11 -36 -29 -12 -49 19 -15 14 -109 -6 -134 -18 -22
0 -37 36 -33 23 2 28 7 25 23 -2 11 -2 59 -1 106 1 48 -2 89 -7 92 -4 2 -20 0
-35 -5z"/>
<path d="M4477 2553 c-16 -15 -5 -24 25 -21 41 4 50 28 11 28 -17 0 -33 -3
-36 -7z"/>
<path d="M4754 2531 c-18 -11 -34 -24 -38 -29 -3 -5 -40 -7 -82 -5 -81 4 -114
-10 -114 -46 0 -28 30 -61 55 -61 32 0 41 17 20 40 -22 25 -12 52 17 48 17 -2
24 -11 26 -30 2 -16 9 -28 16 -28 8 0 17 -10 20 -22 6 -23 7 -23 31 6 20 25
26 28 39 17 22 -19 29 -50 16 -66 -18 -21 -37 -18 -76 11 -39 30 -48 21 -35
-36 6 -31 11 -35 37 -33 16 1 38 7 49 12 11 5 28 12 38 15 9 3 22 17 27 31 6
15 14 23 20 20 13 -8 29 34 28 74 -1 34 -21 41 -59 21 -29 -16 -37 15 -10 44
37 39 25 48 -25 17z m54 -120 c3 -8 -1 -12 -9 -9 -7 2 -15 10 -17 17 -3 8 1
12 9 9 7 -2 15 -10 17 -17z"/>
<path d="M4865 2330 c-8 -13 13 -40 31 -40 17 0 17 5 4 31 -12 21 -25 25 -35
9z"/>
<path d="M3740 2272 c-18 -6 -11 -22 15 -32 24 -9 25 -12 25 -109 0 -97 -1
-100 -27 -119 -43 -31 -20 -43 73 -40 62 2 79 6 79 18 0 8 -10 16 -22 18 -22
3 -23 7 -23 114 0 101 2 110 20 115 11 3 20 14 20 25 0 17 -7 19 -75 16 -41
-2 -79 -4 -85 -6z"/>
<path d="M1940 2254 c0 -9 9 -18 20 -21 18 -5 20 -14 20 -113 0 -99 -2 -109
-22 -122 -37 -25 -13 -38 67 -38 83 0 102 13 63 41 -24 18 -25 23 -24 115 2
88 4 97 25 114 38 28 18 40 -70 40 -66 0 -79 -3 -79 -16z"/>
<path d="M4450 2230 c0 -22 10 -28 50 -32 17 -2 25 2 25 12 0 8 -9 15 -19 15
-11 0 -21 6 -24 13 -6 20 -32 14 -32 -8z"/>
<path d="M905 1952 c-32 -6 -39 -19 -17 -31 24 -13 52 -5 52 14 0 18 -10 23
-35 17z"/>
<path d="M1132 1899 c-34 -33 -43 -38 -48 -25 -3 9 -15 16 -25 16 -14 0 -19
-7 -19 -30 0 -17 6 -39 13 -50 10 -17 9 -22 -3 -30 -12 -7 -12 -12 -2 -22 6
-6 12 -26 12 -44 0 -34 26 -55 36 -29 4 8 18 15 33 15 33 0 119 76 124 109 2
12 9 27 15 33 7 7 12 20 12 30 0 14 -4 16 -17 9 -45 -24 -82 -30 -95 -14 -10
13 -8 19 16 38 24 19 25 23 11 29 -9 3 -17 6 -18 6 -1 0 -21 -18 -45 -41z m22
-101 c35 -49 12 -71 -48 -48 -28 10 -35 30 -12 30 8 0 18 9 21 20 8 26 20 25
39 -2z"/>
<path d="M942 1868 c-15 -15 -15 -43 -2 -69 8 -13 21 -19 45 -19 39 0 45 13
15 32 -27 17 -25 42 3 56 20 10 19 11 -13 11 -20 1 -41 -4 -48 -11z"/>
<path d="M1742 1787 c-7 -8 -7 -18 -2 -27 16 -25 12 -136 -5 -150 -18 -15 -13
-22 18 -26 38 -4 51 9 37 36 -8 15 -10 47 -5 101 7 74 6 79 -13 79 -11 0 -24
-6 -30 -13z"/>
<path d="M1280 1712 c0 -19 27 -38 39 -27 7 8 -12 38 -27 43 -7 2 -12 -5 -12
-16z"/>
<path d="M1948 1663 c-9 -11 -9 -17 3 -24 8 -5 17 -9 21 -9 4 0 8 -33 10 -72
l3 -73 283 -2 c156 -1 290 -4 298 -7 11 -4 13 -98 14 -538 0 -293 -4 -539 -9
-546 -6 -11 -80 -13 -372 -12 -200 0 -373 1 -384 1 -11 0 -377 -2 -814 -5
-565 -4 -798 -9 -807 -17 -16 -13 -19 -85 -3 -94 5 -4 7 -19 4 -34 -4 -20 0
-32 15 -46 24 -22 26 -35 5 -35 -23 0 -40 -43 -27 -67 7 -12 7 -25 1 -34 -5
-7 -9 -22 -9 -31 0 -17 16 -18 201 -18 185 0 200 1 197 17 -2 10 -12 19 -23
21 -11 2 -26 11 -32 20 -12 14 -13 14 -13 -2 0 -14 -5 -17 -25 -12 -18 5 -25
2 -25 -9 0 -16 -9 -19 -34 -9 -23 9 -20 18 14 52 28 28 33 62 9 62 -5 0 -9 7
-9 15 0 18 9 19 46 4 33 -12 74 -4 74 15 0 7 10 20 22 28 16 11 21 23 20 53
-1 21 1 41 3 46 7 11 85 -24 85 -38 0 -24 46 -61 79 -65 32 -3 63 -30 49 -43
-10 -10 -140 15 -155 30 -20 20 -40 19 -53 -4 -5 -11 -19 -23 -31 -26 -18 -6
-20 -12 -15 -39 3 -17 15 -38 26 -48 11 -9 20 -21 20 -26 0 -12 24 -22 51 -22
10 0 19 -4 19 -10 0 -6 92 -10 255 -10 140 0 255 4 255 8 0 14 -23 32 -42 32
-9 0 -22 9 -28 21 -11 20 -12 19 -43 -10 -35 -35 -49 -38 -68 -15 -11 14 -9
20 19 43 35 28 41 55 16 65 -13 5 -14 9 -4 21 10 12 16 12 46 -3 l35 -16 42
42 c40 40 41 43 29 74 -6 17 -10 34 -7 36 8 8 95 -9 95 -19 0 -6 12 -26 28
-45 20 -26 35 -34 58 -34 23 0 36 -7 49 -26 l17 -26 -64 7 c-63 8 -90 16 -118
36 -12 9 -26 4 -62 -20 -45 -30 -47 -33 -35 -59 16 -39 72 -92 97 -92 11 0 20
-4 20 -10 0 -6 92 -10 255 -10 215 0 255 2 255 14 0 8 -10 18 -22 22 -13 3
-31 13 -40 22 -16 14 -18 13 -18 -1 0 -10 -8 -17 -20 -17 -11 0 -20 -4 -20
-10 0 -16 -40 -11 -47 6 -3 9 5 26 21 43 30 32 33 46 9 60 -14 7 -15 13 -6 21
8 9 20 9 48 0 36 -12 38 -11 76 26 34 33 40 45 37 73 -2 21 2 36 10 39 18 6
72 -18 72 -32 0 -20 59 -68 77 -62 20 8 63 -19 63 -39 0 -20 -16 -19 -139 8
-7 2 -17 11 -22 20 -11 18 -39 12 -39 -9 0 -8 -8 -14 -18 -14 -29 0 -55 -35
-47 -62 10 -32 70 -88 94 -88 10 0 21 -5 23 -10 2 -7 93 -9 262 -8 l259 3 -48
40 c-30 24 -46 33 -42 22 4 -12 1 -20 -11 -23 -9 -3 -27 -10 -39 -16 -47 -23
-58 20 -16 64 26 27 26 28 8 48 -10 11 -16 22 -14 24 10 10 36 8 63 -4 27 -14
29 -13 68 29 39 41 41 50 24 92 -9 22 17 32 48 18 13 -6 40 -31 61 -56 28 -33
43 -43 57 -40 27 8 68 -9 68 -27 0 -19 -39 -31 -53 -17 -6 6 -33 11 -59 11
-34 0 -50 5 -54 15 -6 16 -40 21 -46 7 -1 -4 -17 -18 -35 -30 -28 -20 -31 -26
-23 -48 17 -43 64 -94 87 -94 12 0 25 -4 28 -10 4 -6 102 -10 261 -10 252 0
255 0 244 20 -6 11 -17 20 -24 20 -8 0 -21 10 -29 22 l-16 23 0 -24 c-1 -20
-4 -22 -13 -13 -16 16 -38 15 -38 -2 0 -23 -20 -30 -38 -12 -15 15 -13 19 18
51 33 34 33 35 15 55 -17 19 -17 20 0 26 10 4 30 3 45 -3 24 -9 32 -6 69 29
42 40 50 65 29 86 -20 20 5 35 47 28 24 -5 39 -14 44 -30 14 -36 57 -70 91
-72 31 -2 65 -32 51 -46 -4 -4 -22 -3 -41 2 -18 5 -43 7 -56 4 -12 -3 -25 -1
-28 5 -4 6 -16 11 -26 11 -10 0 -23 7 -28 15 -7 13 -16 9 -55 -21 -26 -20 -47
-39 -47 -42 0 -3 17 -27 37 -53 25 -34 44 -49 60 -49 14 0 23 -6 23 -15 0 -23
495 -23 504 0 7 19 -8 26 -65 28 -27 1 -48 -3 -55 -12 -9 -11 -14 -11 -32 0
-21 13 -20 13 14 52 33 36 34 40 20 56 -9 10 -16 23 -16 29 0 15 46 16 55 2
11 -18 35 -11 70 21 40 37 51 64 35 84 -21 25 -5 45 27 34 56 -18 63 -22 63
-33 1 -20 58 -79 70 -71 21 13 60 -4 60 -26 0 -19 -4 -20 -49 -14 -27 4 -71
12 -98 19 -44 11 -51 11 -80 -8 -19 -12 -33 -29 -33 -41 0 -29 29 -67 47 -61
11 4 13 1 8 -14 -5 -15 0 -21 19 -26 14 -3 30 -12 37 -20 9 -11 60 -14 265
-14 140 0 254 4 254 8 0 5 -8 16 -18 25 -21 19 -90 16 -102 -4 -7 -11 -13 -11
-34 1 -34 17 -33 27 6 67 l31 32 -24 20 c-13 11 -22 21 -19 21 36 9 60 9 60 0
0 -21 33 -9 72 28 36 34 39 40 34 75 -7 43 12 59 45 39 10 -7 25 -12 34 -12 8
0 12 -6 9 -13 -2 -7 8 -27 23 -44 24 -26 34 -30 70 -28 37 2 42 0 46 -24 3
-14 3 -29 0 -33 -7 -13 -40 -9 -53 7 -9 10 -17 12 -30 5 -9 -5 -21 -6 -24 -2
-4 4 -26 11 -49 17 -35 9 -47 7 -75 -9 -30 -17 -33 -23 -28 -50 3 -17 15 -37
26 -45 11 -7 20 -19 20 -26 0 -15 28 -28 42 -19 5 3 12 -4 15 -15 5 -21 8 -21
252 -19 215 3 246 5 249 19 2 13 -7 16 -45 17 -26 0 -54 -5 -61 -10 -9 -8 -16
-8 -24 0 -7 7 -20 12 -30 12 -10 0 -18 5 -18 10 0 6 4 10 9 10 5 0 21 16 36
36 20 26 24 39 16 47 -18 18 -13 44 9 50 11 3 20 1 20 -4 0 -4 9 -13 21 -20
18 -9 26 -6 61 31 39 41 41 46 27 100 -5 18 37 26 55 11 8 -6 21 -8 31 -5 13
5 16 2 13 -14 -4 -23 38 -72 61 -72 23 0 46 39 32 53 -20 20 -12 53 15 66 15
6 24 18 22 27 -3 14 -47 15 -395 14 -310 0 -392 2 -396 12 -4 10 -7 11 -18 0
-17 -15 -919 -18 -919 -2 0 6 11 10 25 10 18 0 25 5 25 20 0 11 -5 17 -12 15
-38 -14 -58 37 -57 147 2 135 7 152 47 156 24 2 32 8 32 23 0 20 -24 26 -35 9
-4 -6 -13 -5 -25 3 -19 11 -20 25 -20 358 0 307 2 348 16 353 9 3 138 6 288 6
198 0 275 3 284 12 7 7 12 39 12 74 0 54 3 62 21 67 12 3 19 12 17 19 -6 18
-160 18 -166 0 -2 -7 5 -16 17 -19 18 -5 22 -12 19 -42 l-3 -36 -290 -3 c-159
-2 -291 -4 -292 -6 -2 -2 -4 -264 -6 -584 -1 -319 -5 -583 -9 -587 -9 -10
-490 -7 -500 3 -4 4 -9 269 -10 587 l-3 580 -292 3 -293 2 0 30 c0 18 8 34 21
44 37 25 18 38 -59 41 -52 1 -75 -2 -84 -12z m2500 -1359 c2 -14 1 -16 -6 -5
-7 9 -12 10 -16 2 -4 -6 -12 -9 -17 -5 -13 8 10 36 25 31 6 -2 12 -12 14 -23z
m-600 -2 c2 -7 -2 -10 -12 -6 -9 3 -16 11 -16 16 0 13 23 5 28 -10z m-668 -12
c0 -5 -4 -10 -10 -10 -5 0 -10 5 -10 10 0 6 5 10 10 10 6 0 10 -4 10 -10z"/>
<path d="M862 1618 c3 -26 43 -37 61 -19 8 8 6 11 -6 11 -10 0 -20 7 -23 15
-10 24 -36 18 -32 -7z"/>
<path d="M4560 1450 c0 -5 9 -10 20 -10 11 0 20 5 20 10 0 6 -9 10 -20 10 -11
0 -20 -4 -20 -10z"/>
<path d="M4500 1405 c-15 -19 3 -45 31 -45 27 0 32 16 12 40 -21 24 -27 25
-43 5z"/>
<path d="M874 1383 c7 -26 70 -92 89 -93 14 0 95 39 102 50 6 10 -28 15 -69
11 -10 0 -40 12 -67 29 -27 16 -52 30 -55 30 -3 0 -3 -12 0 -27z"/>
<path d="M4582 1398 c-16 -16 -15 -28 3 -28 8 0 15 2 15 4 0 2 3 11 6 20 7 19
-7 21 -24 4z"/>
<path d="M4740 1331 c0 -11 5 -23 10 -26 16 -10 12 -42 -6 -49 -22 -9 -22 -9
-26 21 -5 41 -29 42 -27 1 1 -18 -2 -41 -6 -50 -10 -24 20 -24 33 -1 8 14 14
11 42 -20 18 -20 36 -37 41 -37 4 0 24 14 42 30 19 17 42 30 51 30 9 0 16 7
16 15 0 22 -42 19 -73 -5 -14 -11 -32 -20 -41 -20 -9 0 -16 8 -16 20 0 11 5
20 10 20 15 0 12 40 -4 46 -8 3 -16 14 -19 25 -7 25 -27 25 -27 0z"/>
<path d="M4582 1255 c-7 -14 -19 -28 -27 -31 -8 -4 -15 -17 -15 -30 0 -17 -4
-22 -15 -18 -21 8 -30 -22 -17 -52 14 -29 33 -31 56 -5 9 10 25 17 34 14 21
-5 62 28 62 51 0 9 -3 16 -8 16 -4 0 -15 18 -25 40 -20 47 -29 50 -45 15z m18
-50 c0 -20 -36 -55 -56 -55 -12 0 -9 8 13 34 31 38 43 44 43 21z"/>
<path d="M1222 1168 c3 -7 13 -15 22 -16 12 -3 17 1 14 10 -3 7 -13 15 -22 16
-12 3 -17 -1 -14 -10z"/>
<path d="M934 1156 c-9 -23 20 -62 60 -81 32 -15 37 -15 65 0 35 18 33 38 -4
29 -31 -8 -63 11 -67 38 -4 28 -45 38 -54 14z"/>
<path d="M4426 1151 c-7 -10 22 -37 30 -28 9 8 -3 37 -15 37 -5 0 -12 -4 -15
-9z"/>
<path d="M1175 1104 c-27 -64 -14 -84 52 -84 46 0 61 15 49 46 -6 15 -8 15
-25 0 -10 -9 -25 -14 -35 -10 -18 7 -22 29 -6 39 16 10 12 45 -5 45 -8 0 -22
-16 -30 -36z"/>
<path d="M1277 1116 c-6 -16 2 -28 14 -20 12 7 11 34 0 34 -5 0 -11 -6 -14
-14z"/>
<path d="M3920 850 c0 -5 5 -10 10 -10 6 0 10 5 10 10 0 6 -4 10 -10 10 -5 0
-10 -4 -10 -10z"/>
<path d="M1575 830 c-3 -5 3 -10 15 -10 12 0 18 5 15 10 -3 6 -10 10 -15 10
-5 0 -12 -4 -15 -10z"/>
<path d="M3860 820 c0 -32 28 -80 44 -74 8 3 16 -4 19 -17 5 -19 11 -21 42
-16 55 9 95 30 95 49 0 18 -11 23 -24 11 -23 -23 -140 15 -152 50 -8 24 -24
22 -24 -3z"/>
<path d="M3970 830 c0 -5 7 -10 15 -10 8 0 15 5 15 10 0 6 -7 10 -15 10 -8 0
-15 -4 -15 -10z"/>
<path d="M1460 811 c0 -10 20 -40 45 -66 40 -42 49 -47 76 -41 46 9 83 29 87
47 2 12 -4 15 -28 11 -49 -7 -97 7 -130 38 -37 35 -50 38 -50 11z"/>
<path d="M907 803 c-4 -3 -7 -14 -7 -24 0 -26 79 -32 104 -8 24 23 13 38 -15
20 -18 -10 -24 -10 -38 3 -19 17 -34 20 -44 9z"/>
<path d="M4464 771 c-2 -2 -4 -13 -4 -23 0 -12 7 -18 23 -18 25 0 47 17 47 36
0 10 -56 15 -66 5z"/>
<path d="M2074 759 c-3 -6 -2 -15 4 -21 15 -15 56 -5 60 15 3 13 -3 17 -27 17
-16 0 -33 -5 -37 -11z"/>
<path d="M276 751 c-3 -5 0 -13 7 -19 14 -11 57 2 57 18 0 12 -57 14 -64 1z"/>
<path d="M4731 725 c-35 -40 -38 -41 -61 -20 -12 11 -24 13 -39 7 -20 -7 -21
-9 -7 -21 9 -8 16 -25 16 -38 0 -18 4 -24 15 -19 10 4 15 -1 15 -14 0 -12 -7
-20 -16 -20 -13 0 -15 -7 -10 -31 3 -17 6 -40 6 -50 0 -11 7 -19 15 -19 15 0
25 4 72 28 13 7 29 12 37 12 8 0 17 9 21 19 3 10 15 21 25 24 11 3 20 13 21
24 2 48 7 67 17 71 19 6 14 24 -5 18 -10 -3 -35 -8 -55 -12 -34 -6 -38 -4 -38
15 0 11 9 25 20 31 11 6 18 15 15 21 -11 18 -33 9 -64 -26z m17 -104 c25 -34
20 -61 -12 -61 -29 0 -65 27 -50 37 6 5 16 18 23 31 6 12 13 22 14 22 2 0 13
-13 25 -29z m62 4 c0 -9 -6 -12 -15 -9 -8 4 -15 10 -15 15 0 5 7 9 15 9 8 0
15 -7 15 -15z"/>
<path d="M550 728 c-14 -11 -24 -27 -22 -34 2 -8 -5 -14 -18 -14 -11 0 -20 6
-20 14 0 16 -91 11 -127 -6 -54 -26 -30 -98 32 -98 40 0 44 9 15 35 -24 21
-26 50 -5 59 17 6 45 -19 45 -40 0 -8 7 -17 15 -20 20 -8 19 -30 0 -38 -12 -4
-14 -15 -10 -43 11 -64 11 -63 47 -52 58 18 82 32 120 69 29 26 38 43 38 68 0
20 6 35 15 38 8 4 15 13 15 21 0 10 -5 13 -17 8 -51 -21 -86 -26 -97 -15 -8 9
-5 16 12 30 23 19 22 40 -1 40 -7 -1 -23 -10 -37 -22z m14 -123 c9 -13 16 -31
16 -38 0 -22 -48 -27 -72 -8 l-20 17 23 27 c29 33 33 33 53 2z m56 5 c0 -5 -4
-10 -10 -10 -5 0 -10 5 -10 10 0 6 5 10 10 10 6 0 10 -4 10 -10z"/>
<path d="M2326 714 c-33 -32 -38 -34 -52 -20 -29 30 -144 0 -144 -36 0 -37 20
-58 60 -64 30 -5 43 -13 54 -34 10 -21 11 -31 2 -40 -8 -8 -7 -13 4 -21 17
-10 51 -5 94 17 16 8 35 14 43 14 7 0 13 9 13 20 0 11 8 24 18 27 23 9 32 23
32 54 0 15 7 29 15 33 8 3 15 12 15 21 0 16 -20 20 -35 6 -19 -17 -62 -21 -74
-7 -8 10 -6 17 9 31 20 18 18 35 -4 35 -7 0 -29 -16 -50 -36z m-86 -64 c0 -11
9 -24 20 -30 21 -11 27 -30 11 -30 -5 0 -16 6 -23 13 -7 6 -25 18 -40 26 -30
15 -35 30 -16 49 15 15 48 -3 48 -28z m130 -75 c0 -25 -30 -33 -61 -18 -16 8
-29 17 -29 19 0 3 10 18 22 35 l23 30 22 -26 c13 -14 23 -32 23 -40z"/>
<path d="M3530 720 c-27 -32 -45 -38 -53 -16 -4 9 -21 13 -58 11 -40 -3 -58
-9 -78 -29 -25 -25 -25 -28 -11 -54 11 -19 25 -28 48 -30 35 -4 44 16 17 38
-29 24 -7 58 30 44 8 -4 15 -17 15 -30 0 -15 6 -24 15 -24 9 0 18 -7 22 -16 5
-13 9 -12 30 8 l25 23 19 -24 c42 -52 7 -88 -53 -51 -45 27 -62 26 -53 -2 3
-13 6 -30 6 -38 0 -31 10 -60 20 -60 6 0 8 4 5 8 -5 9 7 16 81 47 23 9 43 26
46 36 3 11 12 19 20 19 9 0 18 13 22 33 4 17 14 44 23 59 17 29 11 48 -10 30
-7 -5 -29 -13 -49 -17 -43 -8 -59 7 -35 34 21 23 20 31 -2 31 -10 0 -29 -13
-42 -30z"/>
<path d="M1150 725 c0 -8 7 -15 15 -15 19 0 19 -24 0 -40 -17 -14 -30 -7 -30
18 0 10 -8 17 -20 17 -17 0 -20 -7 -21 -52 -1 -38 3 -53 12 -53 8 0 14 5 14
10 0 21 29 9 50 -20 12 -16 28 -30 36 -30 8 0 28 14 46 30 17 16 39 30 49 30
12 0 19 7 19 20 0 16 -7 20 -34 20 -26 0 -36 -5 -41 -20 -4 -13 -15 -20 -31
-20 -28 0 -31 16 -8 48 16 24 12 42 -12 42 -8 0 -14 7 -14 15 0 8 -7 15 -15
15 -8 0 -15 -7 -15 -15z"/>
<path d="M4541 693 c-14 -17 -19 -33 -15 -47 8 -27 14 -32 46 -40 35 -8 46 10
19 35 -16 15 -18 24 -11 43 16 43 -9 49 -39 9z"/>
<path d="M1650 680 c0 -5 6 -10 14 -10 8 0 18 5 21 10 3 6 -3 10 -14 10 -12 0
-21 -4 -21 -10z"/>
<path d="M1000 658 c0 -7 -11 -22 -25 -32 -27 -20 -33 -46 -12 -46 7 0 18 5
25 12 17 17 26 3 13 -20 -13 -24 -53 -40 -59 -23 -6 19 -32 12 -32 -8 0 -34
41 -64 55 -41 3 6 22 10 41 10 23 0 34 5 34 15 0 8 11 22 25 31 28 18 33 34
11 34 -8 0 -23 17 -33 37 -20 38 -43 55 -43 31z"/>
<path d="M4140 584 c0 -8 5 -12 10 -9 6 3 10 10 10 16 0 5 -4 9 -10 9 -5 0
-10 -7 -10 -16z"/>
<path d="M4220 580 c0 -10 -9 -24 -19 -30 -18 -9 -51 -62 -51 -82 0 -4 8 -16
19 -27 27 -27 95 -15 99 17 2 15 -2 22 -12 22 -9 0 -16 -7 -16 -16 0 -19 -20
-14 -33 8 -12 17 14 83 35 90 14 5 3 38 -12 38 -5 0 -10 -9 -10 -20z"/>
<path d="M1740 575 c0 -9 5 -15 11 -13 6 2 11 8 11 13 0 5 -5 11 -11 13 -6 2
-11 -4 -11 -13z"/>
<path d="M1820 561 c0 -11 -8 -22 -18 -25 -27 -9 -46 -69 -30 -95 14 -24 33
-29 73 -21 22 4 31 11 33 30 2 14 8 29 13 35 11 11 12 35 1 35 -4 0 -19 -18
-32 -39 -23 -36 -27 -38 -42 -24 -15 14 -15 18 8 60 28 54 29 63 9 63 -8 0
-15 -9 -15 -19z"/>
<path d="M3932 568 c-18 -18 -15 -32 11 -54 37 -32 67 -45 88 -39 28 9 19 28
-19 37 -27 7 -32 13 -32 38 0 32 -25 41 -48 18z"/>
<path d="M1531 552 c-12 -22 11 -48 67 -76 26 -14 37 -15 48 -5 21 17 17 29
-10 29 -26 0 -42 15 -48 45 -5 27 -44 32 -57 7z"/>
<path d="M841 541 c-15 -10 -8 -41 9 -41 15 0 25 29 14 40 -5 5 -15 5 -23 1z"/>
<path d="M4080 535 c0 -8 5 -15 10 -15 6 0 10 7 10 15 0 8 -4 15 -10 15 -5 0
-10 -7 -10 -15z"/>
<path d="M4865 540 c-9 -15 14 -40 36 -40 18 0 19 1 3 25 -18 27 -29 31 -39
15z"/>
<path d="M674 526 c-8 -22 4 -36 32 -36 31 0 31 13 -1 34 -22 15 -26 15 -31 2z"/>
<path d="M1700 524 c0 -8 5 -12 10 -9 6 3 10 10 10 16 0 5 -4 9 -10 9 -5 0
-10 -7 -10 -16z"/>
<path d="M2460 527 c0 -19 21 -37 42 -37 21 0 22 9 4 33 -15 20 -46 23 -46 4z"/>
<path d="M3670 525 c0 -16 27 -32 37 -21 7 7 -16 36 -28 36 -5 0 -9 -7 -9 -15z"/>
<path d="M4265 519 c-10 -15 3 -25 16 -12 7 7 7 13 1 17 -6 3 -14 1 -17 -5z"/>
<path d="M2060 435 c0 -13 8 -28 18 -32 27 -13 57 -9 57 7 0 8 -5 14 -11 13
-7 -1 -20 7 -29 17 -24 27 -35 25 -35 -5z"/>
<path d="M4450 444 c0 -20 28 -43 53 -44 10 0 17 7 17 20 0 13 -7 20 -20 20
-11 0 -20 5 -20 10 0 6 -7 10 -15 10 -8 0 -15 -7 -15 -16z"/>
<path d="M260 431 c0 -21 45 -55 60 -46 16 10 12 25 -12 46 -29 24 -48 24 -48
0z"/>
<path d="M4801 179 c-50 -11 -61 -27 -45 -66 9 -21 21 -33 33 -33 14 0 18 -5
14 -20 -5 -20 3 -24 38 -21 9 1 19 -7 22 -19 4 -16 13 -20 49 -20 70 0 79 36
42 169 -2 7 -11 10 -19 7 -8 -3 -34 -2 -58 2 -23 5 -57 5 -76 1z"/>
</g>
</svg>
